<svg width="400" height="907" viewBox="0 0 400 907" fill="none" xmlns="http://www.w3.org/2000/svg">
<path d="M220.5 522.002C220.5 522.002 204 583.123 204 709.223C204 781.212 223 866.002 223 866.002" stroke="#C9D2E5" stroke-width="4"/>
<path d="M108 374.003C108 374.003 140.466 514.148 142.081 575.406C145.817 717.148 222.788 867.522 222.788 867.522" stroke="#C9D2E5" stroke-width="4"/>
<path d="M273 346.503C273 346.503 268.338 481.979 263.77 540.921C251.602 697.903 222.44 866.308 222.44 866.308" stroke="#C9D2E5" stroke-width="4"/>
<path d="M168 188C168 188 209.529 330.145 196.081 401.065C154.081 622.558 218.081 857.08 218.081 857.08" stroke="#C9D2E5" stroke-width="4"/>
<g opacity="0.95" filter="url(#filter0_d_0_1)">
<path d="M114.186 401.408L124.884 413.629L109.8 417.177L114.186 401.408Z" fill="#F99557"/>
<ellipse rx="75.0297" ry="84.3384" transform="matrix(0.985818 -0.167815 0.161617 0.986853 105.641 324.921)" fill="#F99557"/>
<path d="M64.5192 338.058L71.0983 320.031L74.2898 319.798L83.4437 336.676L80.0528 336.923L72.1465 321.684L73.4431 321.589L67.8602 337.814L64.5192 338.058ZM67.8395 333.755L68.5264 331.148L77.9512 330.459L79.0097 332.939L67.8395 333.755ZM87.942 326.872L96.6438 326.236L96.8442 328.979L88.1424 329.614L87.942 326.872ZM88.9048 336.277L85.6634 336.513L84.3885 319.06L97.1295 318.129L97.328 320.847L87.8284 321.541L88.9048 336.277ZM105.201 335.086L104.127 320.375L98.3422 320.798L98.1419 318.055L112.952 316.973L113.153 319.716L107.368 320.139L108.443 334.849L105.201 335.086ZM118.907 323.833L127.584 323.199L127.779 325.867L119.102 326.501L118.907 323.833ZM119.703 331.295L129.552 330.575L129.75 333.293L116.66 334.249L115.385 316.796L128.126 315.865L128.325 318.583L118.825 319.277L119.703 331.295ZM133.363 333.029L132.089 315.576L139.269 315.051C140.815 314.938 142.155 315.091 143.288 315.509C144.439 315.927 145.347 316.579 146.013 317.466C146.68 318.353 147.06 319.437 147.153 320.717C147.247 321.997 147.028 323.124 146.498 324.098C145.966 325.056 145.162 325.825 144.084 326.405C143.023 326.968 141.719 327.305 140.173 327.418L134.787 327.811L136.126 326.235L136.605 332.792L133.363 333.029ZM144.783 332.195L139.907 326.184L143.373 325.931L148.274 331.94L144.783 332.195ZM136.151 326.584L134.592 325.144L139.828 324.761C141.258 324.657 142.307 324.271 142.977 323.604C143.664 322.935 143.967 322.052 143.887 320.955C143.805 319.842 143.377 319.012 142.602 318.467C141.844 317.921 140.75 317.7 139.32 317.805L134.084 318.187L135.414 316.486L136.151 326.584Z" fill="black"/>
<path d="M64.8094 285.875C60.3561 291.959 56.2758 303.244 56.2758 303.244C56.2758 303.244 54.9361 305.561 53.9367 303.666C53.618 300.895 57.2965 290.604 60.4569 285.363C64.5776 278.529 69.8902 274.294 74.1205 272.258C77.0443 271.73 73.2806 275.523 73.2806 275.523C73.2806 275.523 70.6878 277.844 64.8094 285.875Z" fill="white"/>
<path d="M55.9341 310.916C56.3953 312.13 55.9858 313.343 55.0195 314.236C54.355 314.862 53.1046 314.923 52.6434 313.708C52.1822 312.494 53.1326 311.062 53.9497 310.274C54.5635 309.794 55.4728 309.701 55.9341 310.916Z" fill="white"/>
</g>
<g opacity="0.95">
<path d="M273.576 351.023L280.55 365.969L264.316 364.699L273.576 351.023Z" fill="#37DECD"/>
<ellipse cx="283.921" cy="272.064" rx="80.3539" ry="84.3622" transform="rotate(2.17966 283.921 272.064)" fill="#37DECD"/>
<path d="M232.522 283.03L233.188 265.542L241.382 265.854C243.48 265.934 245.063 266.411 246.131 267.286C247.199 268.144 247.707 269.264 247.654 270.646C247.619 271.579 247.372 272.37 246.913 273.02C246.456 273.653 245.853 274.139 245.107 274.477C244.377 274.8 243.588 274.945 242.738 274.912L243.222 274.03C244.205 274.068 245.081 274.284 245.85 274.681C246.619 275.06 247.216 275.6 247.639 276.3C248.08 277 248.28 277.859 248.242 278.875C248.185 280.373 247.566 281.517 246.385 282.306C245.204 283.095 243.481 283.447 241.216 283.361L232.522 283.03ZM235.867 280.605L241.113 280.805C242.329 280.851 243.269 280.687 243.934 280.312C244.599 279.937 244.948 279.308 244.981 278.425C245.014 277.559 244.714 276.914 244.079 276.49C243.446 276.048 242.521 275.805 241.305 275.758L235.809 275.549L235.905 273.026L240.752 273.211C241.884 273.254 242.758 273.087 243.373 272.71C244.004 272.334 244.335 271.746 244.365 270.946C244.397 270.13 244.112 269.511 243.511 269.088C242.926 268.665 242.068 268.432 240.935 268.389L236.339 268.214L235.867 280.605ZM254.914 273.65L263.608 273.98L263.506 276.653L254.812 276.323L254.914 273.65ZM254.878 281.154L264.746 281.529L264.643 284.252L251.527 283.753L252.193 266.266L264.958 266.752L264.855 269.475L255.337 269.112L254.878 281.154ZM271.595 275.06L280.314 275.392L280.209 278.14L271.491 277.808L271.595 275.06ZM271.511 284.514L268.263 284.39L268.929 266.903L281.694 267.389L281.591 270.112L272.073 269.749L271.511 284.514ZM292.159 285.55C290.793 285.498 289.544 285.225 288.412 284.732C287.28 284.238 286.305 283.576 285.486 282.744C284.667 281.895 284.046 280.921 283.621 279.821C283.196 278.704 283.009 277.496 283.058 276.197C283.107 274.898 283.386 273.716 283.893 272.651C284.402 271.57 285.096 270.645 285.975 269.878C286.856 269.094 287.879 268.5 289.046 268.094C290.212 267.688 291.469 267.51 292.819 267.562C294.184 267.614 295.425 267.886 296.54 268.379C297.672 268.872 298.647 269.543 299.466 270.392C300.285 271.223 300.906 272.198 301.331 273.315C301.756 274.415 301.944 275.615 301.894 276.914C301.845 278.213 301.566 279.403 301.058 280.484C300.55 281.566 299.856 282.49 298.976 283.257C298.096 284.024 297.073 284.611 295.907 285.017C294.757 285.423 293.508 285.601 292.159 285.55ZM292.242 282.701C293.125 282.734 293.947 282.616 294.708 282.344C295.469 282.073 296.134 281.673 296.705 281.144C297.276 280.599 297.725 279.966 298.053 279.244C298.398 278.507 298.588 277.688 298.622 276.789C298.656 275.89 298.529 275.068 298.24 274.323C297.969 273.562 297.569 272.896 297.04 272.326C296.512 271.739 295.879 271.281 295.141 270.953C294.403 270.624 293.593 270.443 292.71 270.41C291.827 270.376 291.006 270.495 290.245 270.766C289.501 271.038 288.835 271.446 288.247 271.991C287.676 272.52 287.218 273.153 286.874 273.89C286.546 274.612 286.365 275.422 286.331 276.321C286.297 277.204 286.416 278.026 286.687 278.787C286.975 279.548 287.383 280.223 287.911 280.81C288.44 281.38 289.073 281.83 289.811 282.158C290.549 282.486 291.36 282.667 292.242 282.701ZM305.004 285.788L305.67 268.301L312.864 268.575C314.413 268.634 315.728 268.934 316.808 269.476C317.905 270.018 318.735 270.766 319.299 271.722C319.863 272.677 320.121 273.796 320.072 275.079C320.023 276.361 319.682 277.457 319.046 278.367C318.412 279.26 317.527 279.935 316.392 280.393C315.275 280.834 313.942 281.025 312.393 280.966L306.997 280.761L308.502 279.342L308.252 285.912L305.004 285.788ZM316.446 286.224L312.265 279.71L315.738 279.842L319.943 286.357L316.446 286.224ZM308.488 279.691L307.098 278.087L312.345 278.287C313.777 278.342 314.863 278.074 315.602 277.485C316.359 276.897 316.758 276.053 316.8 274.954C316.842 273.838 316.508 272.967 315.798 272.339C315.105 271.712 314.042 271.372 312.61 271.317L307.364 271.118L308.874 269.574L308.488 279.691ZM326.664 276.38L335.357 276.711L335.256 279.384L326.562 279.053L326.664 276.38ZM326.628 283.884L336.496 284.26L336.392 286.983L323.277 286.484L323.943 268.997L336.708 269.482L336.605 272.205L327.087 271.843L326.628 283.884Z" fill="#1D2644"/>
<path d="M246.626 225.771C240.726 230.787 234.085 240.968 234.085 240.968C234.085 240.968 232.205 242.953 231.587 240.89C231.858 238.114 237.871 228.821 242.257 224.358C247.976 218.539 254.36 215.511 259.154 214.406C262.277 214.502 257.583 217.423 257.583 217.423C257.583 217.423 254.413 219.149 246.626 225.771Z" fill="white"/>
<path d="M232.074 248.398C232.286 249.682 231.602 250.783 230.414 251.454C229.595 251.926 228.295 251.724 228.083 250.44C227.871 249.156 229.159 247.955 230.171 247.355C230.906 247.015 231.862 247.114 232.074 248.398Z" fill="white"/>
</g>
<g opacity="0.95">
<path d="M166.849 181.078L178.612 194.611L161.554 198.21L166.849 181.078Z" fill="#FCDC8F"/>
<path opacity="0.95" d="M116.475 35.2587C132.054 30.0481 155.731 69.3456 168.896 73.059C182.061 76.7724 224.112 55.0596 233.341 70.122C247.088 92.5596 212.181 103.079 212.396 130.059C212.608 156.596 244.869 167.016 233.193 189.826C225.907 204.06 177.944 181.674 165.896 186.055C153.848 190.436 143.055 235.965 116.236 228.944C101.396 225.059 105.452 180.023 96.3962 166.559C87.3402 153.095 45.5562 148.559 44.1006 133.416C41.8073 109.559 87.0401 108.678 96.3963 95.059C105.752 81.4402 100.896 40.4694 116.475 35.2587Z" fill="#FCDC8F"/>
<path d="M116.588 143.117L129.614 139.809L130.894 144.849L117.868 148.157L116.588 143.117ZM120.844 157.925L114.564 159.52L107.671 132.382L128.18 127.173L129.46 132.213L115.232 135.827L120.844 157.925ZM134.66 154.416L139.863 124.206L146.066 122.63L165.093 146.687L158.503 148.361L142.492 126.922L144.974 126.292L141.095 152.782L134.66 154.416ZM139.231 147.065L139.686 141.873L153.643 138.328L156.56 142.663L139.231 147.065ZM180.791 143.195C178.672 143.733 176.606 143.886 174.594 143.655C172.607 143.416 170.781 142.835 169.116 141.909C167.476 140.978 166.064 139.754 164.882 138.239C163.725 136.717 162.89 134.948 162.378 132.932C161.866 130.916 161.755 128.963 162.046 127.073C162.362 125.177 163.031 123.425 164.054 121.817C165.076 120.209 166.403 118.827 168.035 117.67C169.667 116.512 171.543 115.664 173.662 115.126C175.807 114.581 177.86 114.431 179.821 114.676C181.807 114.914 183.621 115.499 185.26 116.431C186.919 117.33 188.34 118.538 189.523 120.053C190.706 121.569 191.557 123.347 192.075 125.389C192.587 127.405 192.688 129.374 192.379 131.296C192.062 133.192 191.393 134.944 190.371 136.552C189.368 138.128 188.05 139.494 186.418 140.651C184.812 141.802 182.936 142.65 180.791 143.195ZM191.137 146.717C190.077 146.986 189.039 147.125 188.024 147.136C187.034 147.139 186.009 147.001 184.947 146.72C183.911 146.433 182.778 145.978 181.546 145.355C180.341 144.726 178.993 143.913 177.501 142.916L183.669 139.575C184.609 140.354 185.449 140.953 186.188 141.37C186.927 141.788 187.597 142.044 188.199 142.139C188.827 142.227 189.451 142.192 190.071 142.035C191.725 141.615 193.028 140.568 193.979 138.896L197.617 141.521C196.347 144.21 194.186 145.942 191.137 146.717ZM179.432 137.845C180.647 137.536 181.706 137.047 182.609 136.378C183.538 135.701 184.291 134.877 184.87 133.905C185.448 132.933 185.81 131.864 185.954 130.699C186.118 129.502 186.039 128.27 185.717 127.004C185.389 125.712 184.871 124.592 184.162 123.643C183.479 122.689 182.652 121.922 181.68 121.344C180.707 120.765 179.652 120.401 178.513 120.25C177.4 120.092 176.236 120.168 175.021 120.476C173.806 120.785 172.734 121.277 171.806 121.953C170.877 122.629 170.123 123.453 169.545 124.426C168.992 125.392 168.631 126.46 168.461 127.631C168.316 128.796 168.408 130.025 168.736 131.317C169.058 132.583 169.563 133.707 170.253 134.687C170.961 135.635 171.789 136.402 172.735 136.987C173.707 137.565 174.763 137.93 175.902 138.081C177.041 138.232 178.218 138.153 179.432 137.845Z" fill="#1D2644"/>
<path d="M96.8703 122.499C94.5021 127.923 93.3404 137.191 93.3404 137.191C93.3404 137.191 92.7141 139.189 91.6069 137.953C90.8714 135.928 91.8979 127.485 93.4155 122.94C95.3942 117.015 98.753 112.819 101.663 110.483C103.83 109.531 101.591 113.1 101.591 113.1C101.591 113.1 99.9962 115.339 96.8703 122.499Z" fill="white"/>
<path d="M94.4308 143.03C95.0017 143.856 94.8994 144.847 94.31 145.702C93.9069 146.299 92.9511 146.582 92.3802 145.756C91.8093 144.93 92.2911 143.672 92.7836 142.923C93.1733 142.446 93.8598 142.203 94.4308 143.03Z" fill="white"/>
</g>
<path d="M218.392 533.628L222.622 549.944L206.183 545.687L218.392 533.628Z" fill="#FE7098"/>
<ellipse rx="76.618" ry="83.9033" transform="matrix(0.992747 0.120221 -0.130361 0.991467 230 454.401)" fill="#FE7098"/>
<path d="M192.117 408.034C186.538 413.09 180.427 423.154 180.427 423.154C180.427 423.154 178.664 425.139 177.982 423.171C178.144 420.484 183.675 411.298 187.796 406.832C193.168 401.009 199.295 397.853 203.939 396.611C206.994 396.59 202.516 399.579 202.516 399.579C202.516 399.579 199.482 401.361 192.117 408.034Z" fill="white"/>
<path d="M178.738 430.396C178.993 431.627 178.365 432.714 177.229 433.404C176.446 433.891 175.168 433.743 174.913 432.512C174.659 431.281 175.873 430.075 176.839 429.46C177.545 429.104 178.483 429.165 178.738 430.396Z" fill="white"/>
<path d="M178.55 468.007V450.507H186.2C188.1 450.507 189.766 450.874 191.2 451.607C192.633 452.34 193.75 453.357 194.55 454.657C195.35 455.957 195.75 457.49 195.75 459.257C195.75 461.007 195.35 462.54 194.55 463.857C193.75 465.157 192.633 466.174 191.2 466.907C189.766 467.64 188.1 468.007 186.2 468.007H178.55ZM181.8 465.257H186.05C187.366 465.257 188.5 465.007 189.45 464.507C190.416 464.007 191.158 463.307 191.675 462.407C192.208 461.507 192.475 460.457 192.475 459.257C192.475 458.04 192.208 456.99 191.675 456.107C191.158 455.207 190.416 454.507 189.45 454.007C188.5 453.507 187.366 453.257 186.05 453.257H181.8V465.257ZM206.729 468.257C204.329 468.257 202.446 467.582 201.079 466.232C199.729 464.882 199.054 462.932 199.054 460.382V450.507H202.304V460.257C202.304 462.057 202.687 463.365 203.454 464.182C204.237 464.999 205.337 465.407 206.754 465.407C208.171 465.407 209.262 464.999 210.029 464.182C210.796 463.365 211.179 462.057 211.179 460.257V450.507H214.379V460.382C214.379 462.932 213.696 464.882 212.329 466.232C210.979 467.582 209.112 468.257 206.729 468.257ZM218.93 468.007V450.507H226.13C227.68 450.507 229.005 450.757 230.105 451.257C231.222 451.757 232.08 452.474 232.68 453.407C233.28 454.34 233.58 455.449 233.58 456.732C233.58 458.015 233.28 459.124 232.68 460.057C232.08 460.974 231.222 461.682 230.105 462.182C229.005 462.665 227.68 462.907 226.13 462.907H220.73L222.18 461.432V468.007H218.93ZM230.38 468.007L225.955 461.657H229.43L233.88 468.007H230.38ZM222.18 461.782L220.73 460.232H225.98C227.414 460.232 228.489 459.924 229.205 459.307C229.939 458.69 230.305 457.832 230.305 456.732C230.305 455.615 229.939 454.757 229.205 454.157C228.489 453.557 227.414 453.257 225.98 453.257H220.73L222.18 451.657V461.782ZM237.217 468.007V450.507H240.467V468.007H237.217ZM245.2 468.007V450.507H247.875L258.85 463.982H257.525V450.507H260.75V468.007H258.075L247.1 454.532H248.425V468.007H245.2ZM273.614 468.257C272.248 468.257 270.989 468.04 269.839 467.607C268.706 467.157 267.714 466.532 266.864 465.732C266.014 464.915 265.356 463.957 264.889 462.857C264.423 461.757 264.189 460.557 264.189 459.257C264.189 457.957 264.423 456.757 264.889 455.657C265.356 454.557 266.014 453.607 266.864 452.807C267.731 451.99 268.739 451.365 269.889 450.932C271.039 450.482 272.298 450.257 273.664 450.257C275.148 450.257 276.481 450.499 277.664 450.982C278.864 451.465 279.873 452.174 280.689 453.107L278.639 455.107C277.956 454.424 277.214 453.924 276.414 453.607C275.631 453.274 274.764 453.107 273.814 453.107C272.898 453.107 272.048 453.257 271.264 453.557C270.481 453.857 269.806 454.282 269.239 454.832C268.673 455.382 268.231 456.032 267.914 456.782C267.614 457.532 267.464 458.357 267.464 459.257C267.464 460.14 267.614 460.957 267.914 461.707C268.231 462.457 268.673 463.115 269.239 463.682C269.806 464.232 270.473 464.657 271.239 464.957C272.006 465.257 272.856 465.407 273.789 465.407C274.656 465.407 275.489 465.274 276.289 465.007C277.106 464.724 277.881 464.257 278.614 463.607L280.464 466.032C279.548 466.765 278.481 467.324 277.264 467.707C276.064 468.074 274.848 468.257 273.614 468.257ZM277.389 465.607V459.057H280.464V466.032L277.389 465.607Z" fill="#1D2644"/>
<path d="M230.979 818H200.649C196.54 818 194.032 822.798 196.02 826.394C199.01 831.8 202.074 838.843 201.678 844.474C200.771 857.368 182.65 861.819 180.892 874.677C179.289 886.398 174.572 907 190.708 907H242.694C258.83 907 253.4 884.416 251.951 872.687C250.376 859.935 231.557 857.249 230.547 844.474C230.097 838.782 232.95 831.585 235.694 826.132C237.493 822.557 234.98 818 230.979 818Z" fill="url(#paint0_linear_0_1)"/>
<defs>
<filter id="filter0_d_0_1" x="0.416504" y="210.732" width="210.449" height="236.445" filterUnits="userSpaceOnUse" color-interpolation-filters="sRGB">
<feFlood flood-opacity="0" result="BackgroundImageFix"/>
<feColorMatrix in="SourceAlpha" type="matrix" values="0 0 0 0 0 0 0 0 0 0 0 0 0 0 0 0 0 0 127 0" result="hardAlpha"/>
<feOffset/>
<feGaussianBlur stdDeviation="15"/>
<feComposite in2="hardAlpha" operator="out"/>
<feColorMatrix type="matrix" values="0 0 0 0 0.988235 0 0 0 0 0.862745 0 0 0 0 0.560784 0 0 0 1 0"/>
<feBlend mode="normal" in2="BackgroundImageFix" result="effect1_dropShadow_0_1"/>
<feBlend mode="normal" in="SourceGraphic" in2="effect1_dropShadow_0_1" result="shape"/>
</filter>
<linearGradient id="paint0_linear_0_1" x1="216.5" y1="818" x2="216" y2="958.5" gradientUnits="userSpaceOnUse">
<stop stop-color="#FEA3AA"/>
<stop offset="1" stop-color="#B73C94"/>
</linearGradient>
</defs>
</svg>
