<svg width="393" height="907" viewBox="0 0 393 907" fill="none" xmlns="http://www.w3.org/2000/svg">
<path d="M220.5 522.002C220.5 522.002 204 583.123 204 709.223C204 781.212 223 866.002 223 866.002" stroke="#C9D2E5" stroke-width="4"/>
<path d="M108 374.003C108 374.003 140.466 514.148 142.081 575.406C145.817 717.148 222.788 867.522 222.788 867.522" stroke="#C9D2E5" stroke-width="4"/>
<path d="M273 346.503C273 346.503 268.339 481.979 263.77 540.921C251.602 697.903 222.44 866.308 222.44 866.308" stroke="#C9D2E5" stroke-width="4"/>
<path d="M168 188C168 188 209.529 330.145 196.081 401.065C154.081 622.558 218.081 857.08 218.081 857.08" stroke="#C9D2E5" stroke-width="4"/>
<g opacity="0.95">
<path d="M114.186 401.408L124.884 413.629L109.8 417.177L114.186 401.408Z" fill="#F99557"/>
<g filter="url(#filter0_d_1072_230)">
<ellipse cx="75.0297" cy="84.3384" rx="75.0297" ry="84.3384" transform="matrix(0.985818 -0.167815 0.161617 0.986853 18.0444 254.282)" fill="#F99557"/>
</g>
<path d="M56.3351 338.656L55.0601 321.202L62.6898 320.645C64.5847 320.507 66.2737 320.751 67.7566 321.378C69.2396 322.005 70.4274 322.937 71.3199 324.176C72.2125 325.414 72.7232 326.914 72.8519 328.676C72.9794 330.421 72.6921 331.98 71.9902 333.351C71.287 334.706 70.2474 335.801 68.8713 336.637C67.4952 337.473 65.8597 337.96 63.9647 338.098L56.3351 338.656ZM59.3761 335.676L63.6148 335.367C64.9279 335.271 66.04 334.939 66.9511 334.371C67.8788 333.802 68.5675 333.05 69.0172 332.114C69.4835 331.178 69.673 330.111 69.5856 328.915C69.4969 327.701 69.1545 326.673 68.5582 325.831C67.9774 324.971 67.1867 324.327 66.1861 323.899C65.2022 323.469 64.0537 323.303 62.7405 323.399L58.5018 323.708L59.3761 335.676ZM84.4577 336.852C82.0641 337.027 80.1366 336.491 78.6752 335.244C77.2304 333.996 76.4151 332.1 76.2294 329.557L75.5099 319.709L78.7513 319.472L79.4616 329.196C79.5927 330.991 80.0704 332.268 80.8945 333.027C81.7353 333.784 82.8621 334.111 84.275 334.008C85.6879 333.905 86.7469 333.418 87.452 332.548C88.1572 331.677 88.4442 330.344 88.313 328.549L87.6027 318.825L90.7942 318.592L91.5136 328.441C91.6994 330.984 91.16 332.979 89.8953 334.425C88.6472 335.869 86.8347 336.679 84.4577 336.852ZM96.6086 335.714L95.3337 318.26L102.515 317.736C104.06 317.623 105.4 317.776 106.534 318.194C107.684 318.612 108.592 319.264 109.258 320.151C109.925 321.038 110.305 322.122 110.398 323.402C110.492 324.682 110.273 325.809 109.743 326.783C109.211 327.741 108.407 328.51 107.33 329.09C106.268 329.652 104.964 329.99 103.418 330.103L98.0323 330.496L99.371 328.92L99.85 335.477L96.6086 335.714ZM108.028 334.88L103.152 328.869L106.618 328.616L111.519 334.625L108.028 334.88ZM99.3965 329.269L97.8374 327.828L103.073 327.446C104.503 327.342 105.553 326.956 106.222 326.288C106.909 325.62 107.212 324.737 107.132 323.64C107.051 322.526 106.622 321.697 105.847 321.152C105.089 320.606 103.995 320.385 102.565 320.49L97.3292 320.872L98.6588 319.171L99.3965 329.269ZM114.846 334.382L113.571 316.928L116.813 316.691L118.088 334.145L114.846 334.382ZM122.808 333.8L121.533 316.347L124.201 316.152L136.129 328.791L134.807 328.888L133.826 315.449L137.042 315.214L138.317 332.667L135.649 332.862L123.722 320.222L125.043 320.126L126.025 333.565L122.808 333.8ZM151.165 331.979C149.802 332.079 148.531 331.955 147.353 331.606C146.19 331.24 145.155 330.689 144.249 329.953C143.342 329.2 142.616 328.292 142.07 327.229C141.525 326.166 141.204 324.986 141.11 323.69C141.015 322.393 141.16 321.18 141.546 320.048C141.931 318.917 142.518 317.922 143.308 317.062C144.113 316.185 145.073 315.488 146.188 314.972C147.302 314.439 148.541 314.123 149.904 314.024C151.383 313.915 152.731 314.059 153.946 314.455C155.178 314.85 156.235 315.483 157.118 316.354L155.219 318.498C154.488 317.866 153.711 317.422 152.891 317.164C152.085 316.889 151.209 316.786 150.261 316.855C149.347 316.922 148.51 317.133 147.751 317.49C146.991 317.846 146.349 318.319 145.824 318.909C145.299 319.499 144.906 320.179 144.644 320.95C144.4 321.72 144.31 322.554 144.376 323.451C144.44 324.332 144.649 325.136 145.003 325.862C145.374 326.587 145.862 327.211 146.469 327.735C147.074 328.243 147.77 328.618 148.556 328.861C149.343 329.105 150.201 329.192 151.132 329.124C151.997 329.061 152.818 328.867 153.596 328.543C154.39 328.201 155.129 327.679 155.813 326.977L157.835 329.261C156.974 330.059 155.951 330.694 154.766 331.165C153.595 331.618 152.395 331.89 151.165 331.979ZM154.737 329.061L154.26 322.529L157.327 322.305L157.835 329.261L154.737 329.061Z" fill="black"/>
<path d="M64.8097 285.875C60.3563 291.959 56.276 303.244 56.276 303.244C56.276 303.244 54.9364 305.561 53.937 303.666C53.6182 300.895 57.2967 290.604 60.4572 285.363C64.5778 278.529 69.8904 274.294 74.1208 272.258C77.0446 271.73 73.2808 275.523 73.2808 275.523C73.2808 275.523 70.6881 277.844 64.8097 285.875Z" fill="white"/>
<path d="M55.9343 310.916C56.3956 312.13 55.9861 313.343 55.0198 314.236C54.3553 314.862 53.1049 314.923 52.6437 313.708C52.1824 312.494 53.1328 311.062 53.95 310.274C54.5637 309.794 55.4731 309.701 55.9343 310.916Z" fill="white"/>
</g>
<g opacity="0.95">
<path d="M273.576 351.023L280.55 365.969L264.316 364.699L273.576 351.023Z" fill="#37DECD"/>
<ellipse cx="283.921" cy="272.064" rx="80.3539" ry="84.3622" transform="rotate(2.17966 283.921 272.064)" fill="#37DECD"/>
<path d="M232.522 283.03L233.188 265.542L241.382 265.854C243.48 265.934 245.063 266.411 246.131 267.286C247.199 268.144 247.707 269.264 247.654 270.646C247.619 271.579 247.372 272.37 246.913 273.02C246.455 273.653 245.853 274.139 245.106 274.477C244.377 274.8 243.588 274.945 242.738 274.912L243.222 274.03C244.205 274.068 245.08 274.284 245.849 274.681C246.619 275.06 247.215 275.6 247.639 276.3C248.079 277 248.28 277.859 248.241 278.875C248.184 280.373 247.565 281.517 246.385 282.306C245.204 283.095 243.481 283.447 241.216 283.361L232.522 283.03ZM235.867 280.605L241.113 280.805C242.329 280.851 243.269 280.687 243.934 280.312C244.598 279.937 244.948 279.308 244.981 278.425C245.014 277.559 244.714 276.914 244.079 276.49C243.446 276.048 242.521 275.805 241.305 275.758L235.809 275.549L235.905 273.026L240.751 273.211C241.884 273.254 242.758 273.087 243.372 272.71C244.004 272.334 244.335 271.746 244.365 270.946C244.396 270.13 244.111 269.511 243.51 269.088C242.926 268.665 242.068 268.432 240.935 268.389L236.338 268.214L235.867 280.605ZM254.914 273.65L263.607 273.98L263.506 276.653L254.812 276.323L254.914 273.65ZM254.878 281.154L264.746 281.529L264.642 284.252L251.527 283.753L252.192 266.266L264.958 266.752L264.855 269.475L255.336 269.112L254.878 281.154ZM271.595 275.06L280.314 275.392L280.209 278.14L271.49 277.808L271.595 275.06ZM271.51 284.514L268.263 284.39L268.928 266.903L281.694 267.389L281.59 270.112L272.072 269.749L271.51 284.514ZM292.159 285.55C290.793 285.498 289.544 285.225 288.412 284.732C287.28 284.238 286.304 283.576 285.486 282.744C284.667 281.895 284.045 280.921 283.62 279.821C283.196 278.704 283.008 277.496 283.058 276.197C283.107 274.898 283.386 273.716 283.893 272.651C284.401 271.57 285.095 270.645 285.975 269.878C286.856 269.094 287.879 268.5 289.045 268.094C290.212 267.688 291.469 267.51 292.818 267.562C294.184 267.614 295.424 267.886 296.54 268.379C297.672 268.872 298.647 269.543 299.465 270.392C300.284 271.223 300.906 272.198 301.331 273.315C301.756 274.415 301.944 275.615 301.894 276.914C301.845 278.213 301.566 279.403 301.058 280.484C300.55 281.566 299.856 282.49 298.976 283.257C298.096 284.024 297.073 284.611 295.907 285.017C294.757 285.423 293.508 285.601 292.159 285.55ZM292.242 282.701C293.125 282.734 293.947 282.616 294.707 282.344C295.468 282.073 296.134 281.673 296.704 281.144C297.276 280.599 297.725 279.966 298.053 279.244C298.398 278.507 298.587 277.688 298.622 276.789C298.656 275.89 298.529 275.068 298.24 274.323C297.969 273.562 297.569 272.896 297.04 272.326C296.512 271.739 295.879 271.281 295.141 270.953C294.403 270.624 293.593 270.443 292.71 270.41C291.827 270.376 291.005 270.495 290.245 270.766C289.5 271.038 288.834 271.446 288.246 271.991C287.676 272.52 287.218 273.153 286.873 273.89C286.546 274.612 286.365 275.422 286.33 276.321C286.297 277.204 286.416 278.026 286.687 278.787C286.975 279.548 287.383 280.223 287.911 280.81C288.44 281.38 289.073 281.83 289.811 282.158C290.549 282.486 291.359 282.667 292.242 282.701ZM305.004 285.788L305.669 268.301L312.864 268.575C314.413 268.634 315.728 268.934 316.808 269.476C317.905 270.018 318.735 270.766 319.299 271.722C319.863 272.677 320.121 273.796 320.072 275.079C320.023 276.361 319.681 277.457 319.046 278.367C318.412 279.26 317.527 279.935 316.392 280.393C315.275 280.834 313.941 281.025 312.393 280.966L306.996 280.761L308.501 279.342L308.251 285.912L305.004 285.788ZM316.445 286.224L312.265 279.71L315.738 279.842L319.943 286.357L316.445 286.224ZM308.488 279.691L307.098 278.087L312.344 278.287C313.777 278.342 314.863 278.074 315.602 277.485C316.358 276.897 316.758 276.053 316.799 274.954C316.842 273.838 316.508 272.967 315.798 272.339C315.105 271.712 314.042 271.372 312.61 271.317L307.363 271.118L308.873 269.574L308.488 279.691ZM326.663 276.38L335.357 276.711L335.255 279.384L326.562 279.053L326.663 276.38ZM326.628 283.884L336.496 284.26L336.392 286.983L323.277 286.484L323.942 268.997L336.708 269.482L336.604 272.205L327.086 271.843L326.628 283.884Z" fill="#1D2644"/>
<path d="M246.626 225.771C240.726 230.787 234.085 240.968 234.085 240.968C234.085 240.968 232.205 242.953 231.587 240.89C231.858 238.114 237.871 228.821 242.257 224.358C247.976 218.539 254.36 215.511 259.154 214.406C262.277 214.502 257.583 217.423 257.583 217.423C257.583 217.423 254.413 219.149 246.626 225.771Z" fill="white"/>
<path d="M232.074 248.398C232.286 249.682 231.602 250.783 230.415 251.454C229.595 251.926 228.295 251.724 228.083 250.44C227.872 249.156 229.159 247.955 230.171 247.355C230.906 247.015 231.862 247.114 232.074 248.398Z" fill="white"/>
</g>
<g opacity="0.95">
<path d="M166.849 181.078L178.612 194.611L161.554 198.21L166.849 181.078Z" fill="#FCDC8F"/>
<path opacity="0.95" d="M116.475 35.2587C132.054 30.0481 155.731 69.3456 168.896 73.059C182.061 76.7724 224.112 55.0596 233.34 70.122C247.088 92.5596 212.181 103.079 212.396 130.059C212.608 156.596 244.869 167.016 233.193 189.826C225.906 204.06 177.944 181.674 165.896 186.055C153.848 190.436 143.055 235.965 116.236 228.944C101.396 225.059 105.452 180.023 96.396 166.559C87.34 153.095 45.556 148.559 44.1003 133.416C41.8071 109.559 87.0398 108.678 96.396 95.059C105.752 81.4402 100.896 40.4694 116.475 35.2587Z" fill="#FCDC8F"/>
<path d="M116.588 143.117L129.614 139.809L130.894 144.849L117.868 148.157L116.588 143.117ZM120.844 157.925L114.564 159.52L107.671 132.382L128.18 127.173L129.46 132.213L115.232 135.827L120.844 157.925ZM134.66 154.416L139.863 124.206L146.066 122.63L165.093 146.687L158.503 148.361L142.492 126.922L144.974 126.292L141.095 152.782L134.66 154.416ZM139.231 147.065L139.686 141.873L153.643 138.328L156.56 142.663L139.231 147.065ZM180.791 143.195C178.672 143.733 176.606 143.886 174.594 143.655C172.607 143.416 170.781 142.835 169.116 141.909C167.476 140.978 166.064 139.754 164.882 138.239C163.725 136.717 162.89 134.948 162.378 132.932C161.866 130.916 161.755 128.963 162.046 127.073C162.362 125.177 163.031 123.425 164.054 121.817C165.076 120.209 166.403 118.827 168.035 117.67C169.667 116.512 171.543 115.664 173.662 115.126C175.807 114.581 177.86 114.431 179.821 114.676C181.807 114.914 183.621 115.499 185.26 116.431C186.919 117.33 188.34 118.538 189.523 120.053C190.706 121.569 191.557 123.347 192.075 125.389C192.587 127.405 192.688 129.374 192.379 131.296C192.062 133.192 191.393 134.944 190.371 136.552C189.368 138.128 188.05 139.494 186.418 140.651C184.812 141.802 182.936 142.65 180.791 143.195ZM191.137 146.717C190.077 146.986 189.039 147.125 188.024 147.136C187.034 147.139 186.009 147.001 184.947 146.72C183.911 146.433 182.778 145.978 181.546 145.355C180.341 144.726 178.993 143.913 177.501 142.916L183.669 139.575C184.609 140.354 185.449 140.953 186.188 141.37C186.927 141.788 187.597 142.044 188.199 142.139C188.827 142.227 189.451 142.192 190.071 142.035C191.725 141.615 193.028 140.568 193.979 138.896L197.617 141.521C196.347 144.21 194.186 145.942 191.137 146.717ZM179.432 137.845C180.647 137.536 181.706 137.047 182.609 136.378C183.538 135.701 184.291 134.877 184.87 133.905C185.448 132.933 185.81 131.864 185.954 130.699C186.118 129.502 186.039 128.27 185.717 127.004C185.389 125.712 184.871 124.592 184.162 123.643C183.479 122.689 182.652 121.922 181.68 121.344C180.707 120.765 179.652 120.401 178.513 120.25C177.4 120.092 176.236 120.168 175.021 120.476C173.806 120.785 172.734 121.277 171.806 121.953C170.877 122.629 170.123 123.453 169.545 124.426C168.992 125.392 168.631 126.46 168.461 127.631C168.316 128.796 168.408 130.025 168.736 131.317C169.058 132.583 169.563 133.707 170.253 134.687C170.961 135.635 171.789 136.402 172.735 136.987C173.707 137.565 174.763 137.93 175.902 138.081C177.041 138.232 178.218 138.153 179.432 137.845Z" fill="#1D2644"/>
<path d="M96.8703 122.499C94.5021 127.923 93.3404 137.191 93.3404 137.191C93.3404 137.191 92.7141 139.189 91.6069 137.953C90.8714 135.928 91.8979 127.485 93.4155 122.94C95.3942 117.015 98.753 112.819 101.663 110.483C103.83 109.531 101.591 113.1 101.591 113.1C101.591 113.1 99.9962 115.339 96.8703 122.499Z" fill="white"/>
<path d="M94.4308 143.03C95.0017 143.856 94.8994 144.847 94.31 145.702C93.9069 146.299 92.9511 146.582 92.3802 145.756C91.8093 144.93 92.2911 143.672 92.7836 142.923C93.1733 142.446 93.8598 142.203 94.4308 143.03Z" fill="white"/>
</g>
<g filter="url(#filter1_d_1072_230)">
<path d="M218.392 533.628L222.622 549.944L206.183 545.687L218.392 533.628Z" fill="#FE7098"/>
<ellipse cx="76.618" cy="83.9033" rx="76.618" ry="83.9033" transform="matrix(0.992747 0.120221 -0.130361 0.991467 164.875 362.003)" fill="#FE7098"/>
<path d="M192.117 408.034C186.538 413.09 180.427 423.154 180.427 423.154C180.427 423.154 178.663 425.139 177.982 423.171C178.144 420.484 183.674 411.298 187.795 406.832C193.168 401.009 199.294 397.853 203.938 396.611C206.994 396.59 202.515 399.579 202.515 399.579C202.515 399.579 199.481 401.361 192.117 408.034Z" fill="white"/>
<path d="M178.737 430.396C178.992 431.627 178.365 432.714 177.229 433.404C176.446 433.891 175.168 433.743 174.913 432.512C174.658 431.281 175.872 430.075 176.839 429.46C177.545 429.104 178.483 429.165 178.737 430.396Z" fill="white"/>
<path d="M177.313 468.257C175.947 468.257 174.688 468.04 173.538 467.607C172.405 467.157 171.413 466.532 170.563 465.732C169.713 464.915 169.055 463.957 168.588 462.857C168.122 461.757 167.888 460.557 167.888 459.257C167.888 457.957 168.122 456.757 168.588 455.657C169.055 454.557 169.713 453.607 170.563 452.807C171.43 451.99 172.438 451.365 173.588 450.932C174.738 450.482 175.997 450.257 177.363 450.257C178.847 450.257 180.18 450.499 181.363 450.982C182.563 451.465 183.572 452.174 184.388 453.107L182.338 455.107C181.655 454.424 180.913 453.924 180.113 453.607C179.33 453.274 178.463 453.107 177.513 453.107C176.597 453.107 175.747 453.257 174.963 453.557C174.18 453.857 173.505 454.282 172.938 454.832C172.372 455.382 171.93 456.032 171.613 456.782C171.313 457.532 171.163 458.357 171.163 459.257C171.163 460.14 171.313 460.957 171.613 461.707C171.93 462.457 172.372 463.115 172.938 463.682C173.505 464.232 174.172 464.657 174.938 464.957C175.705 465.257 176.555 465.407 177.488 465.407C178.355 465.407 179.188 465.274 179.988 465.007C180.805 464.724 181.58 464.257 182.313 463.607L184.163 466.032C183.247 466.765 182.18 467.324 180.963 467.707C179.763 468.074 178.547 468.257 177.313 468.257ZM181.088 465.607V459.057H184.163V466.032L181.088 465.607ZM191.45 457.782H200.15V460.457H191.45V457.782ZM191.7 465.282H201.575V468.007H188.45V450.507H201.225V453.232H191.7V465.282ZM205.198 468.007V450.507H207.873L218.848 463.982H217.523V450.507H220.748V468.007H218.073L207.098 454.532H208.423V468.007H205.198ZM228.437 457.782H237.137V460.457H228.437V457.782ZM228.687 465.282H238.562V468.007H225.437V450.507H238.212V453.232H228.687V465.282ZM242.185 468.007V450.507H249.385C250.935 450.507 252.26 450.757 253.36 451.257C254.477 451.757 255.335 452.474 255.935 453.407C256.535 454.34 256.835 455.449 256.835 456.732C256.835 458.015 256.535 459.124 255.935 460.057C255.335 460.974 254.477 461.682 253.36 462.182C252.26 462.665 250.935 462.907 249.385 462.907H243.985L245.435 461.432V468.007H242.185ZM253.635 468.007L249.21 461.657H252.685L257.135 468.007H253.635ZM245.435 461.782L243.985 460.232H249.235C250.668 460.232 251.743 459.924 252.46 459.307C253.193 458.69 253.56 457.832 253.56 456.732C253.56 455.615 253.193 454.757 252.46 454.157C251.743 453.557 250.668 453.257 249.235 453.257H243.985L245.435 451.657V461.782ZM257.996 468.007L265.871 450.507H269.071L276.971 468.007H273.571L266.796 452.232H268.096L261.346 468.007H257.996ZM261.621 463.957L262.496 461.407H271.946L272.821 463.957H261.621ZM279.197 468.007V450.507H282.447V465.257H291.597V468.007H279.197Z" fill="#1D2644"/>
</g>
<path d="M230.979 818H200.649C196.54 818 194.032 822.798 196.02 826.394C199.01 831.8 202.074 838.843 201.678 844.474C200.771 857.368 182.65 861.819 180.892 874.677C179.289 886.398 174.572 907 190.708 907H242.694C258.83 907 253.4 884.416 251.951 872.687C250.376 859.935 231.557 857.249 230.547 844.474C230.097 838.782 232.95 831.585 235.694 826.132C237.493 822.557 234.98 818 230.979 818Z" fill="url(#paint0_linear_1072_230)"/>
<defs>
<filter id="filter0_d_1072_230" x="0.416504" y="214.732" width="210.448" height="228.376" filterUnits="userSpaceOnUse" color-interpolation-filters="sRGB">
<feFlood flood-opacity="0" result="BackgroundImageFix"/>
<feColorMatrix in="SourceAlpha" type="matrix" values="0 0 0 0 0 0 0 0 0 0 0 0 0 0 0 0 0 0 127 0" result="hardAlpha"/>
<feOffset dy="4"/>
<feGaussianBlur stdDeviation="15"/>
<feComposite in2="hardAlpha" operator="out"/>
<feColorMatrix type="matrix" values="0 0 0 0 0 0 0 0 0 0 0 0 0 0 0 0 0 0 0.25 0"/>
<feBlend mode="normal" in2="BackgroundImageFix" result="effect1_dropShadow_1072_230"/>
<feBlend mode="normal" in="SourceGraphic" in2="effect1_dropShadow_1072_230" result="shape"/>
</filter>
<filter id="filter1_d_1072_230" x="123.146" y="340.698" width="213.709" height="239.246" filterUnits="userSpaceOnUse" color-interpolation-filters="sRGB">
<feFlood flood-opacity="0" result="BackgroundImageFix"/>
<feColorMatrix in="SourceAlpha" type="matrix" values="0 0 0 0 0 0 0 0 0 0 0 0 0 0 0 0 0 0 127 0" result="hardAlpha"/>
<feOffset/>
<feGaussianBlur stdDeviation="15"/>
<feComposite in2="hardAlpha" operator="out"/>
<feColorMatrix type="matrix" values="0 0 0 0 0.988235 0 0 0 0 0.862745 0 0 0 0 0.560784 0 0 0 1 0"/>
<feBlend mode="normal" in2="BackgroundImageFix" result="effect1_dropShadow_1072_230"/>
<feBlend mode="normal" in="SourceGraphic" in2="effect1_dropShadow_1072_230" result="shape"/>
</filter>
<linearGradient id="paint0_linear_1072_230" x1="216.5" y1="818" x2="216" y2="958.5" gradientUnits="userSpaceOnUse">
<stop stop-color="#FEA3AA"/>
<stop offset="1" stop-color="#B73C94"/>
</linearGradient>
</defs>
</svg>
