<svg width="400" height="907" viewBox="0 0 400 907" fill="none" xmlns="http://www.w3.org/2000/svg">
<path d="M203.5 522.002C203.5 522.002 187 583.123 187 709.223C187 781.212 206 866.002 206 866.002" stroke="#C9D2E5" stroke-width="4"/>
<path d="M91 374.003C91 374.003 123.466 514.148 125.081 575.406C128.817 717.148 205.788 867.522 205.788 867.522" stroke="#C9D2E5" stroke-width="4"/>
<path d="M256 346.503C256 346.503 251.338 481.979 246.77 540.921C234.602 697.903 205.44 866.308 205.44 866.308" stroke="#C9D2E5" stroke-width="4"/>
<path d="M151 188C151 188 192.529 330.145 179.081 401.065C137.081 622.558 201.081 857.08 201.081 857.08" stroke="#C9D2E5" stroke-width="4"/>
<g opacity="0.95" filter="url(#filter0_d_0_1)">
<path d="M97.1857 401.408L107.884 413.629L92.8003 417.177L97.1857 401.408Z" fill="#F99557"/>
<ellipse rx="75.0297" ry="84.3384" transform="matrix(0.985818 -0.167815 0.161617 0.986853 88.6407 324.921)" fill="#F99557"/>
<path d="M47.5192 338.058L54.0984 320.031L57.2898 319.798L66.4438 336.676L63.0528 336.923L55.1466 321.684L56.4431 321.589L50.8603 337.814L47.5192 338.058ZM50.8395 333.755L51.5264 331.148L60.9513 330.459L62.0098 332.939L50.8395 333.755ZM70.9421 326.872L79.6439 326.236L79.8443 328.979L71.1424 329.614L70.9421 326.872ZM71.9048 336.277L68.6635 336.513L67.3885 319.06L80.1296 318.129L80.3281 320.847L70.8284 321.541L71.9048 336.277ZM88.2014 335.086L87.1269 320.375L81.3423 320.798L81.1419 318.055L95.9525 316.973L96.1528 319.716L90.3682 320.139L91.4428 334.849L88.2014 335.086ZM101.907 323.833L110.584 323.199L110.779 325.867L102.102 326.501L101.907 323.833ZM102.703 331.295L112.552 330.575L112.75 333.293L99.66 334.249L98.385 316.796L111.126 315.865L111.325 318.583L101.825 319.277L102.703 331.295ZM116.364 333.029L115.089 315.576L122.269 315.051C123.815 314.938 125.155 315.091 126.289 315.509C127.439 315.927 128.347 316.579 129.013 317.466C129.68 318.353 130.06 319.437 130.153 320.717C130.247 321.997 130.028 323.124 129.498 324.098C128.966 325.056 128.162 325.825 127.084 326.405C126.023 326.968 124.719 327.305 123.173 327.418L117.787 327.811L119.126 326.235L119.605 332.792L116.364 333.029ZM127.783 332.195L122.907 326.184L126.373 325.931L131.274 331.94L127.783 332.195ZM119.151 326.584L117.592 325.144L122.828 324.761C124.258 324.657 125.308 324.271 125.977 323.604C126.664 322.935 126.967 322.052 126.887 320.955C126.806 319.842 126.377 319.012 125.602 318.467C124.844 317.921 123.75 317.7 122.32 317.805L117.084 318.187L118.414 316.486L119.151 326.584Z" fill="black"/>
<path d="M47.8093 285.875C43.356 291.959 39.2757 303.244 39.2757 303.244C39.2757 303.244 37.9361 305.561 36.9367 303.666C36.6179 300.895 40.2964 290.604 43.4568 285.363C47.5775 278.529 52.8901 274.294 57.1204 272.258C60.0443 271.73 56.2805 275.523 56.2805 275.523C56.2805 275.523 53.6878 277.844 47.8093 285.875Z" fill="white"/>
<path d="M38.9341 310.916C39.3954 312.13 38.9859 313.343 38.0196 314.236C37.3551 314.862 36.1047 314.923 35.6435 313.708C35.1822 312.494 36.1327 311.062 36.9498 310.274C37.5636 309.794 38.4729 309.701 38.9341 310.916Z" fill="white"/>
</g>
<g opacity="0.95">
<path d="M256.576 351.023L263.55 365.969L247.316 364.699L256.576 351.023Z" fill="#37DECD"/>
<ellipse cx="266.921" cy="272.064" rx="80.3539" ry="84.3622" transform="rotate(2.17966 266.921 272.064)" fill="#37DECD"/>
<path d="M215.522 283.03L216.188 265.542L224.382 265.854C226.48 265.934 228.063 266.411 229.131 267.286C230.199 268.144 230.707 269.264 230.654 270.646C230.619 271.579 230.372 272.37 229.913 273.02C229.456 273.653 228.853 274.139 228.107 274.477C227.377 274.8 226.588 274.945 225.738 274.912L226.222 274.03C227.205 274.068 228.081 274.284 228.849 274.681C229.619 275.06 230.215 275.6 230.639 276.3C231.079 277 231.28 277.859 231.242 278.875C231.185 280.373 230.566 281.517 229.385 282.306C228.204 283.095 226.481 283.447 224.216 283.361L215.522 283.03ZM218.867 280.605L224.113 280.805C225.329 280.851 226.269 280.687 226.934 280.312C227.599 279.937 227.948 279.308 227.981 278.425C228.014 277.559 227.714 276.914 227.079 276.49C226.446 276.048 225.521 275.805 224.305 275.758L218.809 275.549L218.905 273.026L223.752 273.211C224.884 273.254 225.758 273.087 226.373 272.71C227.004 272.334 227.335 271.746 227.365 270.946C227.396 270.13 227.111 269.511 226.51 269.088C225.926 268.665 225.068 268.432 223.935 268.389L219.338 268.214L218.867 280.605ZM237.914 273.65L246.607 273.98L246.506 276.653L237.812 276.323L237.914 273.65ZM237.878 281.154L247.746 281.529L247.643 284.252L234.527 283.753L235.193 266.266L247.958 266.752L247.855 269.475L238.337 269.112L237.878 281.154ZM254.595 275.06L263.314 275.392L263.209 278.14L254.491 277.808L254.595 275.06ZM254.511 284.514L251.263 284.39L251.929 266.903L264.694 267.389L264.591 270.112L255.073 269.749L254.511 284.514ZM275.159 285.55C273.793 285.498 272.544 285.225 271.412 284.732C270.28 284.238 269.305 283.576 268.486 282.744C267.667 281.895 267.046 280.921 266.62 279.821C266.196 278.704 266.008 277.496 266.058 276.197C266.107 274.898 266.386 273.716 266.893 272.651C267.402 271.57 268.096 270.645 268.975 269.878C269.856 269.094 270.879 268.5 272.045 268.094C273.212 267.688 274.469 267.51 275.818 267.562C277.184 267.614 278.425 267.886 279.54 268.379C280.672 268.872 281.647 269.543 282.466 270.392C283.285 271.223 283.906 272.198 284.331 273.315C284.756 274.415 284.944 275.615 284.894 276.914C284.845 278.213 284.566 279.403 284.058 280.484C283.55 281.566 282.856 282.49 281.976 283.257C281.096 284.024 280.073 284.611 278.907 285.017C277.757 285.423 276.508 285.601 275.159 285.55ZM275.242 282.701C276.125 282.734 276.947 282.616 277.708 282.344C278.468 282.073 279.134 281.673 279.705 281.144C280.276 280.599 280.725 279.966 281.053 279.244C281.398 278.507 281.587 277.688 281.622 276.789C281.656 275.89 281.529 275.068 281.24 274.323C280.969 273.562 280.569 272.896 280.04 272.326C279.512 271.739 278.879 271.281 278.141 270.953C277.403 270.624 276.593 270.443 275.71 270.41C274.827 270.376 274.006 270.495 273.245 270.766C272.5 271.038 271.834 271.446 271.247 271.991C270.676 272.52 270.218 273.153 269.873 273.89C269.546 274.612 269.365 275.422 269.331 276.321C269.297 277.204 269.416 278.026 269.687 278.787C269.975 279.548 270.383 280.223 270.911 280.81C271.44 281.38 272.073 281.83 272.811 282.158C273.549 282.486 274.359 282.667 275.242 282.701ZM288.004 285.788L288.669 268.301L295.864 268.575C297.413 268.634 298.728 268.934 299.808 269.476C300.905 270.018 301.735 270.766 302.299 271.722C302.863 272.677 303.121 273.796 303.072 275.079C303.023 276.361 302.681 277.457 302.046 278.367C301.412 279.26 300.527 279.935 299.392 280.393C298.275 280.834 296.942 281.025 295.393 280.966L289.997 280.761L291.502 279.342L291.252 285.912L288.004 285.788ZM299.446 286.224L295.265 279.71L298.738 279.842L302.943 286.357L299.446 286.224ZM291.488 279.691L290.098 278.087L295.345 278.287C296.777 278.342 297.863 278.074 298.602 277.485C299.359 276.897 299.758 276.053 299.799 274.954C299.842 273.838 299.508 272.967 298.798 272.339C298.105 271.712 297.042 271.372 295.61 271.317L290.364 271.118L291.873 269.574L291.488 279.691ZM309.664 276.38L318.357 276.711L318.255 279.384L309.562 279.053L309.664 276.38ZM309.628 283.884L319.496 284.26L319.392 286.983L306.277 286.484L306.942 268.997L319.708 269.482L319.604 272.205L310.086 271.843L309.628 283.884Z" fill="#1D2644"/>
<path d="M229.626 225.771C223.726 230.787 217.085 240.968 217.085 240.968C217.085 240.968 215.205 242.953 214.587 240.89C214.858 238.114 220.871 228.821 225.257 224.358C230.976 218.539 237.36 215.511 242.154 214.406C245.277 214.502 240.583 217.423 240.583 217.423C240.583 217.423 237.413 219.149 229.626 225.771Z" fill="white"/>
<path d="M215.074 248.398C215.286 249.682 214.602 250.783 213.414 251.454C212.595 251.926 211.295 251.724 211.083 250.44C210.871 249.156 212.159 247.955 213.171 247.355C213.906 247.015 214.862 247.114 215.074 248.398Z" fill="white"/>
</g>
<g opacity="0.95">
<path d="M149.849 181.078L161.612 194.611L144.554 198.21L149.849 181.078Z" fill="#FCDC8F"/>
<path opacity="0.95" d="M99.4752 35.2587C115.054 30.0481 138.731 69.3456 151.896 73.059C165.061 76.7724 207.112 55.0596 216.341 70.122C230.088 92.5596 195.181 103.079 195.396 130.059C195.608 156.596 227.869 167.016 216.193 189.826C208.907 204.06 160.944 181.674 148.896 186.055C136.848 190.436 126.055 235.965 99.236 228.944C84.3962 225.059 88.4522 180.023 79.3962 166.559C70.3401 153.095 28.5562 148.559 27.1005 133.416C24.8072 109.559 70.04 108.678 79.3962 95.059C88.7524 81.4402 83.8962 40.4694 99.4752 35.2587Z" fill="#FCDC8F"/>
<path d="M99.588 143.117L112.614 139.809L113.894 144.849L100.868 148.157L99.588 143.117ZM103.844 157.925L97.5636 159.52L90.6709 132.382L111.18 127.173L112.46 132.213L98.2316 135.827L103.844 157.925ZM117.66 154.416L122.863 124.206L129.066 122.63L148.093 146.687L141.503 148.361L125.492 126.922L127.974 126.292L124.095 152.782L117.66 154.416ZM122.231 147.065L122.686 141.873L136.643 138.328L139.56 142.663L122.231 147.065ZM163.791 143.195C161.672 143.733 159.606 143.886 157.594 143.655C155.607 143.416 153.781 142.835 152.116 141.909C150.476 140.978 149.064 139.754 147.882 138.239C146.725 136.717 145.89 134.948 145.378 132.932C144.866 130.916 144.755 128.963 145.046 127.073C145.362 125.177 146.031 123.425 147.054 121.817C148.076 120.209 149.403 118.827 151.035 117.67C152.667 116.512 154.543 115.664 156.662 115.126C158.807 114.581 160.86 114.431 162.821 114.676C164.807 114.914 166.621 115.499 168.26 116.431C169.919 117.33 171.34 118.538 172.523 120.053C173.706 121.569 174.557 123.347 175.075 125.389C175.587 127.405 175.688 129.374 175.379 131.296C175.062 133.192 174.393 134.944 173.371 136.552C172.368 138.128 171.05 139.494 169.418 140.651C167.812 141.802 165.936 142.65 163.791 143.195ZM174.137 146.717C173.077 146.986 172.039 147.125 171.024 147.136C170.034 147.139 169.009 147.001 167.947 146.72C166.911 146.433 165.778 145.978 164.546 145.355C163.341 144.726 161.993 143.913 160.501 142.916L166.669 139.575C167.609 140.354 168.449 140.953 169.188 141.37C169.927 141.788 170.597 142.044 171.199 142.139C171.827 142.227 172.451 142.192 173.071 142.035C174.725 141.615 176.028 140.568 176.979 138.896L180.617 141.521C179.347 144.21 177.186 145.942 174.137 146.717ZM162.432 137.845C163.647 137.536 164.706 137.047 165.609 136.378C166.538 135.701 167.291 134.877 167.87 133.905C168.448 132.933 168.81 131.864 168.954 130.699C169.118 129.502 169.039 128.27 168.717 127.004C168.389 125.712 167.871 124.592 167.162 123.643C166.479 122.689 165.652 121.922 164.68 121.344C163.707 120.765 162.652 120.401 161.513 120.25C160.4 120.092 159.236 120.168 158.021 120.476C156.806 120.785 155.734 121.277 154.806 121.953C153.877 122.629 153.123 123.453 152.545 124.426C151.992 125.392 151.631 126.46 151.461 127.631C151.316 128.796 151.408 130.025 151.736 131.317C152.058 132.583 152.563 133.707 153.253 134.687C153.961 135.635 154.789 136.402 155.735 136.987C156.707 137.565 157.763 137.93 158.902 138.081C160.041 138.232 161.218 138.153 162.432 137.845Z" fill="#1D2644"/>
<path d="M79.8703 122.499C77.5021 127.923 76.3404 137.191 76.3404 137.191C76.3404 137.191 75.7141 139.189 74.6069 137.953C73.8714 135.928 74.8979 127.485 76.4155 122.94C78.3942 117.015 81.753 112.819 84.6635 110.483C86.8304 109.531 84.5908 113.1 84.5908 113.1C84.5908 113.1 82.9962 115.339 79.8703 122.499Z" fill="white"/>
<path d="M77.4308 143.03C78.0018 143.856 77.8994 144.847 77.3101 145.702C76.907 146.299 75.9512 146.582 75.3803 145.756C74.8093 144.93 75.2912 143.672 75.7836 142.923C76.1734 142.446 76.8599 142.203 77.4308 143.03Z" fill="white"/>
</g>
<path d="M201.392 533.628L205.622 549.944L189.183 545.687L201.392 533.628Z" fill="#FE7098"/>
<ellipse rx="76.618" ry="83.9033" transform="matrix(0.992747 0.120221 -0.130361 0.991467 213 454.401)" fill="#FE7098"/>
<path d="M175.117 408.034C169.538 413.09 163.427 423.154 163.427 423.154C163.427 423.154 161.664 425.139 160.982 423.171C161.144 420.484 166.675 411.298 170.796 406.832C176.168 401.009 182.295 397.853 186.939 396.611C189.994 396.59 185.516 399.579 185.516 399.579C185.516 399.579 182.482 401.361 175.117 408.034Z" fill="white"/>
<path d="M161.738 430.396C161.993 431.627 161.365 432.714 160.23 433.404C159.446 433.891 158.168 433.743 157.914 432.512C157.659 431.281 158.873 430.075 159.839 429.46C160.545 429.104 161.483 429.165 161.738 430.396Z" fill="white"/>
<path d="M161.55 468.007V450.507H169.2C171.1 450.507 172.766 450.874 174.2 451.607C175.633 452.34 176.75 453.357 177.55 454.657C178.35 455.957 178.75 457.49 178.75 459.257C178.75 461.007 178.35 462.54 177.55 463.857C176.75 465.157 175.633 466.174 174.2 466.907C172.766 467.64 171.1 468.007 169.2 468.007H161.55ZM164.8 465.257H169.05C170.366 465.257 171.5 465.007 172.45 464.507C173.416 464.007 174.158 463.307 174.675 462.407C175.208 461.507 175.475 460.457 175.475 459.257C175.475 458.04 175.208 456.99 174.675 456.107C174.158 455.207 173.416 454.507 172.45 454.007C171.5 453.507 170.366 453.257 169.05 453.257H164.8V465.257ZM189.729 468.257C187.329 468.257 185.446 467.582 184.079 466.232C182.729 464.882 182.054 462.932 182.054 460.382V450.507H185.304V460.257C185.304 462.057 185.687 463.365 186.454 464.182C187.237 464.999 188.337 465.407 189.754 465.407C191.171 465.407 192.262 464.999 193.029 464.182C193.796 463.365 194.179 462.057 194.179 460.257V450.507H197.379V460.382C197.379 462.932 196.696 464.882 195.329 466.232C193.979 467.582 192.112 468.257 189.729 468.257ZM201.931 468.007V450.507H209.131C210.681 450.507 212.006 450.757 213.106 451.257C214.222 451.757 215.081 452.474 215.681 453.407C216.281 454.34 216.581 455.449 216.581 456.732C216.581 458.015 216.281 459.124 215.681 460.057C215.081 460.974 214.222 461.682 213.106 462.182C212.006 462.665 210.681 462.907 209.131 462.907H203.731L205.181 461.432V468.007H201.931ZM213.381 468.007L208.956 461.657H212.431L216.881 468.007H213.381ZM205.181 461.782L203.731 460.232H208.981C210.414 460.232 211.489 459.924 212.206 459.307C212.939 458.69 213.306 457.832 213.306 456.732C213.306 455.615 212.939 454.757 212.206 454.157C211.489 453.557 210.414 453.257 208.981 453.257H203.731L205.181 451.657V461.782ZM220.217 468.007V450.507H223.467V468.007H220.217ZM228.2 468.007V450.507H230.875L241.85 463.982H240.525V450.507H243.75V468.007H241.075L230.1 454.532H231.425V468.007H228.2ZM256.614 468.257C255.248 468.257 253.989 468.04 252.839 467.607C251.706 467.157 250.714 466.532 249.864 465.732C249.014 464.915 248.356 463.957 247.889 462.857C247.423 461.757 247.189 460.557 247.189 459.257C247.189 457.957 247.423 456.757 247.889 455.657C248.356 454.557 249.014 453.607 249.864 452.807C250.731 451.99 251.739 451.365 252.889 450.932C254.039 450.482 255.298 450.257 256.664 450.257C258.148 450.257 259.481 450.499 260.664 450.982C261.864 451.465 262.873 452.174 263.689 453.107L261.639 455.107C260.956 454.424 260.214 453.924 259.414 453.607C258.631 453.274 257.764 453.107 256.814 453.107C255.898 453.107 255.048 453.257 254.264 453.557C253.481 453.857 252.806 454.282 252.239 454.832C251.673 455.382 251.231 456.032 250.914 456.782C250.614 457.532 250.464 458.357 250.464 459.257C250.464 460.14 250.614 460.957 250.914 461.707C251.231 462.457 251.673 463.115 252.239 463.682C252.806 464.232 253.473 464.657 254.239 464.957C255.006 465.257 255.856 465.407 256.789 465.407C257.656 465.407 258.489 465.274 259.289 465.007C260.106 464.724 260.881 464.257 261.614 463.607L263.464 466.032C262.548 466.765 261.481 467.324 260.264 467.707C259.064 468.074 257.848 468.257 256.614 468.257ZM260.389 465.607V459.057H263.464V466.032L260.389 465.607Z" fill="#1D2644"/>
<path d="M213.979 818H183.649C179.54 818 177.032 822.798 179.02 826.394C182.01 831.8 185.074 838.843 184.678 844.474C183.771 857.368 165.65 861.819 163.892 874.677C162.289 886.398 157.572 907 173.708 907H225.694C241.83 907 236.4 884.416 234.951 872.687C233.376 859.935 214.557 857.249 213.547 844.474C213.097 838.782 215.95 831.585 218.694 826.132C220.493 822.557 217.98 818 213.979 818Z" fill="url(#paint0_linear_0_1)"/>
<defs>
<filter id="filter0_d_0_1" x="0" y="210.732" width="210.449" height="236.445" filterUnits="userSpaceOnUse" color-interpolation-filters="sRGB">
<feFlood flood-opacity="0" result="BackgroundImageFix"/>
<feColorMatrix in="SourceAlpha" type="matrix" values="0 0 0 0 0 0 0 0 0 0 0 0 0 0 0 0 0 0 127 0" result="hardAlpha"/>
<feOffset/>
<feGaussianBlur stdDeviation="9"/>
<feComposite in2="hardAlpha" operator="out"/>
<feColorMatrix type="matrix" values="0 0 0 0 0.988235 0 0 0 0 0.862745 0 0 0 0 0.560784 0 0 0 1 0"/>
<feBlend mode="normal" in2="BackgroundImageFix" result="effect1_dropShadow_0_1"/>
<feBlend mode="normal" in="SourceGraphic" in2="effect1_dropShadow_0_1" result="shape"/>
</filter>
<linearGradient id="paint0_linear_0_1" x1="216.5" y1="818" x2="216" y2="958.5" gradientUnits="userSpaceOnUse">
<stop stop-color="#FEA3AA"/>
<stop offset="1" stop-color="#B73C94"/>
</linearGradient>
</defs>
</svg>
