<?xml version="1.0" encoding="UTF-8"?><svg id="Layer_1" xmlns="http://www.w3.org/2000/svg" viewBox="0 0 498.42 115.4"><defs><style>.cls-1{fill:#afa172;stroke-width:0px;}</style></defs><path class="cls-1" d="M339.55,8.9c.92-3.98,2.05-7.77,6.82-8.8,3.62-.78,8.02,3.13,7.61,6.86-.19,1.71-.48,3.41-.85,5.92,4.37-2.67,8.42-4.35,13.16-3.66,3.95,3.14,1,7.79,2.39,11.96,2.04-1.19,4.12-2.15,5.88-3.51,1.81-1.41,3.78-2.15,5.33-.48,1.02,1.1,1.15,3.18,1.36,4.85.25,1.97.15,3.98.2,6.2,3.32-1.02,5.9-1.76,8.45-2.61,1.66-.55,3.17-1.87,4.95-.1,1.7,1.68,3.43,3.25,3.25,5.93-.25,3.71-.47,7.42-.72,11.39,2.09-.89,4.19-2.59,6.16-2.46,3.13.22,6.17,1.66,9.68,2.71-.37,3.02-.7,5.8-1.13,9.29,2.89.5,6.04,1.05,9.49,1.65.4-.66.81-2.18,1.48-2.31,6.29-1.2,10.15-6.78,15.87-8.69,2.66-.89,4.3-2.21,5.28-4.56,1.73.11,3.14.21,4.78.31.16-1.2.29-2.24.41-3.12,2.92-1.48,5.67-3.12,8.59-4.3,3.5-1.41,7.09-2.39,11.04-1.59,2.95.6,6.07.34,9.04.87,2.17.38,4.19,1.5,6.32,2.15,3.81,1.16,7.27,3.28,11.45,3.56,2.35.16,2.9,2.65,2.38,4.73-.52,2.09-2.25,3.07-4.19,1.9-1.85-1.11-3.39-.33-4.47.62-2.33,2.07-5.05,2.63-7.94,3.12-1.36.23-2.8.72-3.94,1.48-5.05,3.37-10.02,6.86-14.99,10.35-.4.28-.51.93-.85,1.34-3.27,3.96-5.93,8.42-11.56,9.89-3.53.92-4.59,4.94-6.31,7.75-1.94,3.17-4.05,5.46-7.79,6-.52.08-1.35.15-1.49.46-1.87,4.29-6.12,2.84-9.3,3.87-3.31,1.08-7.05,1.33-9.97,3.04-3.22,1.89-6.48,1.88-9.82,2.14-2.63.2-5.29.04-8.08.04-1.4,4.17-2.66,7.94-4.13,12.31,4-.48,7.47-2.11,11.09-.2-.71,3.12-3.5,2.9-5.43,3.96.73,1.13,1.45,2.27,2.83,4.4-2.24-.15-3.73.17-4.73-.4-2.35-1.32-4.64-2.87-6.58-4.72-.82-.78-1.15-2.63-.91-3.84.77-4.05,1.89-8.02,2.95-12.34-1.11-.42-2.1-1.17-3.01-1.08-6.42.66-9.65-.37-13.99-4.55-.73-.7-1.9-1.43-2.82-1.38-5.39.28-9.57-2.65-14.22-5.41-1.15,3.58-2.15,6.9-3.29,10.17-1.33,3.81-1,7.42.83,10.98.31.61.57,1.58.3,2.1-.51.99-1.27,2.06-2.21,2.51-.43.2-2.01-.85-2.24-1.59-.78-2.56-1.2-5.23-1.91-8.58-1.39,1.27-2.56,2.84-4.13,3.65-1.59.81-3.57.87-5.51,1.28-.09-5.34.93-6.24,8.97-8.56,1.47-3.39,2.97-6.87,4.48-10.35,1.41-3.23.96-4.11-1.99-5.79-4.63-2.64-8.8-5.84-12.36-9.93-4.07-4.67-9.78-4.67-15.42-4.44-.35.01-.8,0-1.01.2-2.51,2.4-5.18,4.67-7.41,7.31-2.73,3.25-5.08,6.82-7.6,10.25-.21.29-.43.65-.73.78-3.52,1.62-7.01,3.32-10.59,4.77-4.24,1.72-8.46,3.99-12.88,4.6-5.09.7-9.71,3.64-15.23,2.58-3.35-.64-6.97.26-10.45.17-5.74-.15-11.68.31-17.14-1.05-5.57-1.39-11.76-1.11-16.7-5-1.3-1.02-3.39-1.07-5.13-1.49-4.63-1.1-8.45-3.35-10.28-7.92-1.77-4.43-6.13-6.33-8.98-9.7-1.95-2.31-3.38-5.38-7.34-5.45-3.05-.06-5.3-3.97-8.94-2.23-10.71-2.47-19.59,2.54-28.39,7.29-3.64,1.97-7.3,3.97-10.19,7.47-2.31,2.8-1.91,5.34-.74,7.31,2.07,3.5,3.11,7.09,3.74,10.99.64,3.99,2.73,5.67,6.66,6.51,2.72.58,5.32,1.64,8.12.31.36-.17,1.17.59,2.02,1.05-.81,2.36-1.89,3.26-4.43,2.71-3.81-.83-3.85-.64-8.84.94,1.24,3.85,8.03.04,7.76,5.63-4.6.99-10.34-.98-12.55-4.34-.2-.3-.67-.56-.66-.84.11-4.41-2.06-8.19-3.21-12.25-.66-2.33-.15-4.86-1.62-7.23-.78-1.25-.14-3.39-.14-5.35-9.23,3.07-16.64,9.73-26.24,11.96-.78,1.25-1.71,2.74-2.45,3.92.68,2.09,1.43,3.91,1.86,5.8,1.07,4.74,3.65,6.33,8.45,5.35,1.86-.38,3.87-.46,5.74-.19,1.9.27,2.41,2.36.82,3.61-1.28,1.02-2.26,1.44-1.68,3.57.41,1.49-1.65,2.42-3.17,1.92-3.06-1.02-6.02-2.37-9.02-3.58-3.49-1.4-3.63-4.63-4.28-7.64-.26-1.21-.97-2.31-1.34-3.5-.25-.81-.67-2.08-.3-2.47,2.35-2.52,0-4.65-.34-7.41-8.11.32-16.2.62-24.28,1.01-.84.04-1.82.43-2.45.98-5.78,5.16-9.11,6.67-16.43,7.25-.53.04-1.16-.04-1.57.21-8.41,5.17-17.99,5.52-27.37,6.69-.88.11-1.8.17-2.61.48-4.7,1.83-9.47,1.24-14.26.55-2.08-.3-3.02-1.31-3.53-3.43-.7-2.87-2.02-5.59-3.43-9.34.19-.6.72-2.27,1.34-4.24,1.63.12,3.18.23,4.86.35.24-.4.6-.81.76-1.28.89-2.75,1.69-5.43.47-8.4-.94-2.28-1.38-4.41-4.79-3.65-2.22.5-3.06-1.52-3.38-3.41-.46-2.77-.78-5.57-1.19-8.51-1.35,0-2.74.38-3.66-.11-.82-.44-1.12-1.85-1.87-3.25-1.1,1.2-1.79,2.28-2.77,2.91-.59.38-1.87.36-2.39-.04-.53-.41-.88-1.65-.65-2.31,1-2.92,2.13-5.8,3.43-8.6,1.34-2.89,2.57-5.95,4.51-8.41,1.96-2.49,5.19-4,7.05-6.53,5.66-7.69,14.51-8.28,22.53-10.8,5.88,1.46,11.33-2.64,17.2-1.36,1.36.3,2.93.18,4.07.84,4.19,2.41,8.44,1.39,12.7.54.81-.16,1.76-.62,2.26-1.25,2.32-2.93,4.48-5.99,6.76-8.96,1.35-1.76,2.95-3.29,5.43-2.61,2.01.55,2.64,2.67,2.11,5.9-.21,1.28-.17,2.6-.28,4.61,3.52-2.38,6.26-4.23,9.33-6.3,3.13,4.05,1.46,8.1,1.35,12.3.89-.24,2.11-.21,2.4-.72,1.37-2.42,2.85-2.14,4.92-.88,2.21,1.34,3.17,2.84,2.08,5.34-.7,1.6-1.32,3.24-2.13,5.27.83.26,1.87.96,2.33.69,3.23-1.9,7.05-1.48,10.51-3.45,3.84-2.17,7.74-3.88,10.99-7.08,1.83-1.81,4.71-2.5,6.78-4.12,3.89-3.05,7.41-6.56,11.31-9.59,4.76-3.7,9.12-8.04,15.28-9.63,3.07-.79,6-2.13,9-3.2,5.77-2.05,11.37.18,17.02.76,4.65.47,9.29,1.28,13.83,2.37,2.4.58,4.65,1.95,6.85,3.18,4.2,2.36,4.86,2.21,6.84-2.13.22-.49.39-1,.13-.32,2.82-2.25,4.76-3.8,6.83-5.46,2.68,1.43,3.76,3.72,3.14,7.59-.51,3.18-1.09,6.35-1.82,10.61,1.91-1.15,3.38-1.5,3.73-2.33,1.32-3.11,4.41-3.6,6.86-4.76,2.8-1.33,4.92.85,4.41,4.01-.47,2.96-.87,5.92-1.36,9.33,2.06-1.72,3.41-3.69,5.18-4.19,4.78-1.33,9.13,3.86,7.52,8.64-.51,1.51-1.17,2.96-1.9,4.8,1.54.47,2.7.83,3.86,1.2.78,3.74-4.04,4.39-4.28,7.5,3.01,3.36,6.05.76,8.93.44v-7.12c-1.48-.21-3.12-.45-4.76-.68-.98-3.03.56-3.9,3.27-3.93,3.29-.03,3.85.48,4.34,3.41.43,2.58,1.15,5.1,1.64,7.2,3.65-2.31,6.85-4.47,10.18-6.41,6.97-4.04,13.66-8.5,19.57-13.98,3.97-3.68,8.84-5.58,13.59-7.79,1.79-.84,3.58-1.71,5.35-2.6,2.25-1.13,4.35-2.35,7.16-1.63,1.36.34,3.02-.7,4.56-.81,3.34-.24,6.71-.12,10.04-.47,1.46-.15,2.83-1.09,4.25-1.65.87-.35,1.75-.66,2.63-.99.43,1.08.86,2.16,1.56,3.93,2,.7,4.73,1.65,7.76,2.71.53-2.68,1.17-4.57,1.17-6.46,0-1.23-.64-2.82-1.55-3.58-.61-.51-2.31-.14-3.32.31-1.96.86-3.77,2.05-5.64,3.1ZM180.65,22.2l-.1-.15c.28.67.52,1.36.85,2.01.74,1.48.87,3.21-.85,3.6-1.27.29-3.11-.41-4.18-1.28-.77-.63-1.15-2.38-.93-3.47.93-4.71-1.87-8.47-2.46-12.79-1.12-.1-1.83-.19-2.53-.22-3.09-.14-4.86,2.57-7.31,3.5-7.37,2.79-12.77,8.35-19.11,12.56-.64.42-1.34,1.59-1.19,2.22,1.24,5.07-.87,9.91-.92,14.88-.04,3.54-2.45,4.75-5.49,2.96-1.38-.81-2.37-2.27-3.7-3.17-6.63-4.5-6.3-5.4-11.92-.61-2.29,1.95-4.59,3.12-7.7,3.15-7.43.08-7.43.2-11.35,6.29-1.44-.46-2.92-1.02-2.15-2.95.83-2.1,2.06-4.06,2.85-6.18.9-2.44,1.5-5,2.27-7.66-5.97-.66-4.67,6.11-8.79,6.89-2.91-.91-3.54-2.88-2.7-5.86.8-2.84,2.57-5.65.9-9.5-4.49,1.84-5.52,8.52-11.26,8.15-1.86-3.53,3.1-6.82-.19-10.62-2.24,2.21-4.77,4.2-6.64,6.68-2.26,2.99-4.93,3.2-8.12,2.41-8.08-2.01-16.37-.32-24.58-1.31-3.85-.47-7.95,2.95-12.47,2.08-.51-.1-1.2.71-1.8,1.11-2.81,1.88-5.68,3.53-7.99,6.25-1.99,2.34-5.28,3.52-7.68,5.58-1.57,1.35-2.34,3.66-3.93,4.97-1.82,1.5-2.66,3.02-2.51,5.35,6.94-1.46,8.72-2.26,12.55,5.51.8,1.62,2.55,2.78,3.85,4.15,5.3-5,8.58-4.99,13.72-.47,1.55,1.36,3.78,2.45,5.25.67,2.21-2.69,4.3-1.41,6.2-.33,2.31,1.32,4.3,3.21,5.99,4.52,5.03.75,8.82-4.43,13.83-1.78-.63,5-1.19,9.73-1.85,14.45-.39,2.74-2.1,4.03-5.07,4.09-1.64-2.92-4.23-4.23-8.01-3.97-.58.96-1.36,2.1-1.99,3.32-.79,1.55-1.28,3.27-2.2,4.72-2.71,4.25-6.61,4.2-9.24-.04-.51-.82-.9-1.71-1.92-3.69-1.13,2.45-1.64,4.09-2.56,5.45-1.37,2.01-2.8,4.11-4.65,5.64-1.88,1.56-3.15-.78-4.69-1.51-2.65-1.24-5.38-2.28-8.29-3.49.71,3.31,1.35,6.27,1.92,8.94,3.66,3.03,7.5,2.26,11.36,1.3,3.34-.82,6.68-1.63,10.01-2.48,6.34-1.61,13.21-1.07,19.06-4.68.29-.18.74-.33,1.02-.23,5.89,2.14,9.67-1.98,12.99-5.26,4.11-4.07,8.39-5.73,13.97-5.08,2.27.27,4.62-.1,6.93-.25,1.42-.09,2.96-.75,4.24-.4,5.31,1.48,10.56-.07,15.82-.04,2.41.02,5.25-.21,7.18-1.44,7.77-4.94,15.88-9.43,22.45-16.1,2.41-2.45,5.12-5.19,8.22-6.26,7.57-2.62,14.16-7.65,22.5-8.47,3.75-.37,7.4-.28,10.88.51,4.26.97,8.93,1.75,11.68,5.95,6.93,2.58,10.35,9.01,14.92,14.05,3.49,3.84,7.51,7.34,12.06,8.48,4.08,1.03,8.37,1.59,12.55,2.8,4.57,1.32,9.36,1.98,14.11,2.52,4.66.53,9.46-1.16,14.09.8.51.22,1.37-.35,2.06-.57,3.92-1.21,8.16-3.99,11.69-3.27,5.04,1.02,7.61-2.12,11.21-3.6.31-.13.72,0,1.08-.04,6.21-.64,11.16-4.09,15.8-7.72,2.5-1.95,5.36-4.61,3.35-8.45,4.01-3.93,8.74-5.7,13.54-7.4,3.83-1.35,7.75-1.05,10.95.82,4.89,2.85,8.94,7.19,13.93,9.78,5.11,2.65,8.45,8.24,14.79,8.72.65.05,1.24.73,1.9,1.03,4.78,2.2,9.15,5.23,14.45,6.34,2.61.55,5.06,1.83,7.62,2.65,1.65.53,3.37,1.11,5.07,1.14,4.06.07,8.14-.39,12.2-.23,4,.15,7.6-.04,11.13-2.56,2.54-1.82,5.88-3.15,8.97-3.44,7.2-.66,13.1-2.83,16.34-9.84.33-.72,1.37-1.09,2.05-1.66,3.8-3.22,8.3-5.92,11.17-9.82,2.89-3.93,6.4-6.62,10.27-9.17.83-.55,1.95-1.2,2.17-2.01.45-1.63,1.35-2.12,2.85-2.76,5.73-2.43,11.31-5.21,16.91-7.84-2.43-3.34-7.87.22-9.29-4.28-1.72.21-3.23.85-4.38.45-5.19-1.8-10.16-1.37-14.84,1.25-2.17,1.21-3.85,3.13-6.77,2.11-.62-.22-1.98.75-2.57,1.51-2.3,2.93-4.42,6-6.61,9.02,2.23,9.3.87,13.42-5.45,15.85-3.19-2.7-6.57-5.36-9.72-8.28-1.65-1.53-3.94-2.64-5.17-1.13-2.14,2.64-4.61,1.39-6.95,1.72-4.13.58-7.86-3.07-12.18-1.16-.4.18-1.21-.63-1.86-.94-7.28-3.48-14.56-6.95-21.39-10.21-2.38,1.65-4.26,3.45-6.51,4.39-2.53,1.06-4.96,1.89-6.87,4.08-.71.81-2.76,1.22-3.77.79-1.05-.44-2.17-2.11-2.19-3.26-.05-2.49-.13-5.44,1.09-7.4,2.22-3.58,1.7-7.17,1.72-10.79-4.3-2.27-6.68-4.63-9.45-8.94-3.54-1.51-6.21-2.9-9.04-3.79-4.8-1.5-9.03-5.43-14.74-3.41-.98.35-2.39-.43-3.57-.77-.64-.19-1.35-.91-1.84-.76-2.62.77-5.19,1.74-7.22,2.45-.9,3.34-2.57,6.36-2.31,9.21.49,5.44-.54,10.63-1.08,15.93-.38,3.8-2.09,4.89-5.62,3.43-3.32-1.37-6.23-3.53-7.52-6.74-1.66-4.13-5.7-5.67-7.98-9.19-3.95,2.67-7.59,5.19-11.3,7.61-1.81,1.18-3.78,2.12-5.6,3.28-1.95,1.24-3.74,2.74-5.73,3.9-2.02,1.18-5.59,1.66-6.04,3.18-1.05,3.53-3.89,1.62-5.57,2.77-.76.53-2,.55-3.01.5-4.24-.19-7.47,2.4-8.54,5.61-1.64,4.91-5.01,7.02-9.2,8.73-3.02,1.23-6.61.25-6.85-2.03-.28-2.6-.29-5.29.08-7.87.56-3.89,1.7-7.69,2.27-11.57.17-1.19-.38-2.89-1.22-3.75-1.59-1.64-3.67-2.8-5.48-4.23-3-2.38-8.81-10.9-10.52-15.28-.2-.5-.39-1.14-.79-1.39-2.97-1.86-5.85-3.93-9.02-5.38-4.55-2.08-9.03-4.24-14.25-4.76-4.34-.43-12.07-1.16-16.6-.17.82,1.98,2.33,3.96,2.28,5.9-.07,2.83,1.45,4.73,2.47,6.97ZM13.36,59.81c-.34.08-.68.16-1.02.24-.05.8-.37,1.7-.1,2.37.79,1.96,1.93,3.77,2.69,5.73.69,1.78,1.05,3.69,1.6,5.68,5.62-1.53,6.76,3.05,8.98,6.11.71-.53,1.17-.79,1.52-1.15,1.31-1.35,2.76-2.67,4.72-1.63,2.22,1.18.99,3.11.66,4.81-.29,1.48-.53,2.97-.86,4.79-2.53-.62-4.38-1.08-6.39-1.57-.44,2.44-.87,4.81-1.3,7.16,1.87,1.18,3.52,2.22,5.7,3.59.88-1.81,1.66-3.32,2.36-4.87.71-1.57,1.16-3.3,2.08-4.73,1.34-2.08,3.15-2.27,4.96-.67.78.69,1.09,1.95,1.9,2.54.9.66,2.26,1.34,3.21,1.11,1-.24,2.04-1.41,2.49-2.42.39-.87.19-2.17-.13-3.16-.82-2.54-1.9-4.99-2.79-7.5-1.17-3.31-3.88-5.01-6.69-6.66-2.49-1.47-4.95-2.99-7.53-4.55-.45.92-1.12,2.39-1.9,3.81-1.87,3.44-3.9,3.8-6.83,1.19-.8-.71-1.52-1.55-2.13-2.43-1.78-2.57-3.48-5.2-5.21-7.8ZM308.87,41.22l1.54-.59c0-7.37,2.98-14.39,2.35-22.03-5.97,2.66-11.55,5.15-18.26,8.14,4.71,1.15,4.45,5.33,7.38,7.27,2.72,1.8,4.68,4.76,6.98,7.2ZM392.65,46.53c.27-4.13.18-7.73.82-11.19.63-3.42-.56-5.16-3.47-5.9-4.34,1.84-8.48,3.6-12.59,5.35,1,3.73,3.83,3.95,6.96,3.83-.06,5.49,4.58,5.74,8.28,7.93ZM235.05,62.3c3.34-1.25,11.98-8.32,13.38-10.95-3.16-2.89-6.56-5.49-11.24-8.19-.77,6.92-1.43,12.79-2.14,19.15ZM378.09,20.96c-4.9,2.13-8.81,3.83-12.64,5.51.1,5.31,5.67,5.56,6.9,9.54,1.45-.91,2.48-1.57,2.48-1.56,1.19-4.91,2.14-8.83,3.27-13.48ZM378.19,42.08c-3.18-1.9-6.19-3.69-9.23-5.5-3.58,6.92-4.08,8.89-3.16,13.16,3.88-2.4,7.65-4.73,12.39-7.67ZM234.91,36.42c2.62,2.14,5.46,4.46,9.06,7.41.96-5.48,1.8-10.22,2.63-14.96-.33-.17-.65-.35-.98-.52-3.58,2.7-7.16,5.4-10.7,8.07ZM230.15,33.52c3.49-5.65,5.01-10.91,4.4-13.97-4.05,2.46-7.53,6.2-12.92,5.63,1.51,1.38,2.98,2.65,4.37,4,1.32,1.29,2.56,2.66,4.15,4.34ZM363.53,12.67c-5.21-.05-6.88,3.9-9.52,7.31,2.99,1.36,5.67,2.58,8.38,3.82,2.39-3.47,1.52-7.17,1.14-11.12ZM430.57,54.67c2.27,1.71,4.87,3.66,7.49,5.63,1.74-2.56.76-4.71.55-6.99-.18-1.99,1.13-4.12,1.76-6.12-3.43,2.62-6.74,5.15-9.8,7.49ZM397.81,47.29c2.96,2.68,5.86,4.07,9.79,3.89.31-2.17.61-4.2.92-6.36-4.03-.36-7.66-1.26-10.71,2.47ZM136.62,41.28c.41-.21.82-.43,1.23-.64.43-3.06.87-6.12,1.48-10.42-3,2.07-4.83,3.33-6.97,4.8,1.62,2.38,2.94,4.32,4.26,6.26ZM215.68,14.93c2.03,2.15,2.46,5.31,5.98,5.1-.25-2.76-.47-5.17-.67-7.45-1.6.71-3.14,1.39-5.31,2.35Z"/><path class="cls-1" d="M11.23,13.36c1.66-.64,3.54-.77,4.21-1.73,2.47-3.58,5.96-3.44,9.58-3.36,1.05.02,2.39.05,3.1-.53,2.19-1.8,3.95-.95,5.86.35.85.58,1.86,1.23,2.82,1.28,4.65.25,6.99,3.11,8.69,7.47-3.53,4.31-7.99,6.68-13.77,6.36-4.36-.24-8.72-.57-13.09-.83-5.53-.32-7.83-3.03-7.41-9.02ZM15.99,16.8c3.15.95,6.12,1.85,9.59,2.9.84-2.66,1.61-5.12,2.47-7.87-4.35-.56-7.82.79-11.25,2.13-.47.18-.48,1.57-.81,2.83ZM29.44,19.19l1.34.74c2.87-1.82,7.26-.32,9.57-4.72-3.3-.99-6.15-1.84-9.49-2.84-.55,2.61-.99,4.71-1.42,6.82Z"/><path class="cls-1" d="M65.06,60.94c-2.37-.22-5.75-.43-9.09-.88-.94-.13-1.78-.96-2.69-1.43-1.02-.53-2.17-1.58-3.08-1.41-2.86.54-4.25-1.69-6.19-2.82-.66-.38-1.17-1.42-1.3-2.23-.28-1.88-.6-3.84-.33-5.69.34-2.34,1.27-4.81,4.16-4.93,5.05-.2,10.12-.1,15.18-.04.66,0,1.38.44,1.97.82,4.89,3.16,9.51,6.69,13.85,10.58,2.54,2.28,1.67,6.14-1.8,6.9-3.13.69-6.4.7-10.68,1.11ZM58.48,55.89c5.58.4,10.24,4.8,15.32-1.19-4.59-2.44-7.34-7.66-14.3-6.2-.3,2.13-.62,4.49-1.03,7.39ZM45.22,47.46c2.79,2.28,5,4.1,7.73,6.34,1.13-2.76,1.91-4.65,2.79-6.79-3.52-1.29-6.38-2.14-10.52.46Z"/><path class="cls-1" d="M180.65,22.2c1.54-2.37,3.34-4.61,4.56-7.14,1.37-2.84,3.18-4.59,6.71-4.51-.47,3.64-1.64,6.65-4.92,8.8-1.55,1.02-2.58,2.83-4.12,4.6-.77-.62-1.55-1.25-2.33-1.89,0-.01.09.14.09.14Z"/></svg>