<?xml version="1.0" encoding="UTF-8"?><svg id="Layer_1" xmlns="http://www.w3.org/2000/svg" viewBox="0 0 559.08 744.3"><defs><style>.cls-1{fill:#afa172;stroke-width:0px;}</style></defs><path class="cls-1" d="M361.92,169.33c4.25,1.14,8.18,2.12,12.05,3.26,1.45.43,2.82,1.18,4.19,1.86.64.32,1.14,1.07,1.79,1.21,5.67,1.2,10.26,4.6,14.9,7.67,4.81,3.18,9.94,5.92,13.57,10.91,1.88,2.59,5.42,3.92,7.15,7.14,2.1,3.91,4.65,7.59,7.09,11.31,1.95,2.98,4.02,5.88,6.31,9.22-4.24,5.43,1.22,9.02,3.9,13.21-3.25,3.71-2.72,11.09.11,16.34-3.24.57-3.71,3.09-3.34,5.6.91,6.13-2.33,11.2-3.99,16.63-1.96,6.41-6.41,11.44-10.61,16.52-.34.41-.94.64-1.21,1.09-3.02,5.03-4.06,6.01-9.12,8.5-.31.15-.8.32-.84.55-.65,3.47-4.11,3.71-6.11,5.57-1.96,1.83-3.57,2.15-5.18,1.22-5.31,4.12-9.81,8.98-15.37,11.6-8.45,3.98-17.62,6.46-26.52,9.46-5.08,1.71-10.24,3.19-15.39,4.72-.82.24-1.73.18-2.6.25-1.71.15-3.41.32-5.12.46-.88.07-1.98.49-2.61.12-3.53-2.12-7.08-.5-10.63-.37-2.28.08-4.59-.2-6.86-.51-4.76-.64-9.44-2.12-14.32-1.21-.17.03-.4,0-.53-.1-6.33-5.08-15.42-3.59-21.58-9.08-4.9.06-8.13-3.62-12.16-5.51-1.89-.89-3.48-2.44-5.16-3.74-.57-.44-.93-1.33-1.53-1.51-6.44-1.97-9.77-7.84-14.63-11.77-2.68-2.17-4.57-5.49-6.37-8.56-2.8-4.77-5.71-9.58-7.69-14.71-3.44-8.95-7.75-17.79-7.38-27.73.13-3.5,1.12-6.97,1.63-10.46.66-4.58,1.23-9.17,1.85-13.76.38-2.82.59-5.38,3.5-7.38,2.02-1.39,2.5-4.81,4.3-6.75,4.9-5.3,10.02-10.42,15.28-15.36,3.19-2.99,5.68-6.76,11.11-7.06,2.43-.13,4.65-3.67,7.01-5.6,2.2-1.8,4.17-3.65,7.56-3.51,1.97.08,4.23-1.44,6.01-2.72,5.26-3.77,11.49-4.5,17.48-6.02,2.88-.73,6.13-.25,8.51-2.64.11-.11.36-.21.5-.17,5.49,1.55,10.75-2.03,16.34-.59,2.48.64,5.32-.29,7.97-.08,7.66.62,15.26,1.82,22.8,3.32,2.61.52,5.13,1.57,7.66,2.45,4.42,1.54,4.46,1.54,6.27-3.29ZM385.79,274.2c-.37,1.85-.47,3.8-1.15,5.52-1.65,4.17-4.43,7.98-4.44,12.67,0,3.2.84,6.42.65,9.59-.2,3.25.53,5.96,2.57,8.6,3.17-2.64,6.03-5.77,9.54-7.75,4.39-2.48,8.25-5.58,12.3-8.47,7.21-5.15,10.52-13.19,15.84-19.95-1.9-.79-3.21-1.4-4.56-1.89-5.46-1.98-11.27-3.17-16.86-2.35-4.73.69-9.65,1.87-14.05,4.19,1.64-5.27,6.17-7.07,10.76-7.49,5.96-.53,12.09-.98,18.01.9,2.21.7,4.41,1.41,6.5,2.07,1.31-2.62,2.48-4.95,3.85-7.7-.51-.63-1.11-2.15-2.05-2.4-5.97-1.61-9.81-6.43-14.75-9.55-.94-.59-1.33-2.23-1.72-3.47-.3-.94-.2-2-.28-3.01.39-.19.77-.38,1.16-.57,4.5,3.5,9.08,6.9,13.46,10.55,2.93,2.44,3.64,2.49,5.63-.87.26-.45.39-.98.43-1.09-1.87-4.7-5.29-7.34-9.47-9.33-3.21-1.53-6.2-3.53-9.29-5.31-1.56-.9-2.84-2.17-1.58-3.9,1.17-1.6,2.93-1.01,4.37-.02.91.62,1.74,1.37,3.02,2.4-.41-2.28-.99-3.81-.89-5.31.25-3.89-2.5-5.62-5.06-7.43-1.42-1-3.24-1.44-4.64-2.47-.7-.51-.85-1.77-1.55-3.38,2.57.38,4.08.6,5.64.84-.89-5.02-5.67-8.7-4.85-14.15,4.64-.46,3.59,4.86,7.23,5.49,2.75.48,5.19,2.68,7.77,4.12.02-2.27-.39-4.14-1.52-5.32-3.87-4.04-7.15-8.57-11.17-12.56-4.85-4.81-10.76-7.76-16.01-11.76-7.14-5.45-16.32-6.74-25.54-11.29,2.72,3.41,2.07,5.22-.05,7.14-2.22,2.01-3.64,5.06-6.06,6.66-4.12,2.71-4.51,9.62-10.94,9.58-.16,0-.44.58-.47.91-.45,3.89-4.09,3.59-6.49,4.73-1.01.48-3.14.11-3.85-.68-1.28-1.42-.56-3.02,1.19-3.99.45-.25.78-.72,1.26-1.17-.74-3.45-1.03-6.78,2.32-9.32.67-.51.64-1.97.9-2.99.39-1.51.74-3.04,1.12-4.55.45-1.85.91-3.7,1.42-5.77-4.48-.6-8.5-1.48-12.54-1.58-4.09-.1-8.19.58-11.5.85-1.05,6.12-1.57,11.51-2.95,16.66-2.21,8.26-6.57,15.87-7.59,24.52-.1.83-.86,1.56-1.21,2.38-.59,1.41-1.18,2.82-1.6,4.29-.76,2.66-.5,5.91-4.35,6.91-3.8-2.84-2.83-7.44-3.5-11.13-.4-2.2.26-4.79-.27-7.34-.47-2.29.47-4.86.09-7.19-.9-5.59.92-11.46-1.81-16.84,1.38-3.48.15-6.59-1.59-10.09-5.91.84-10.89,4.36-16.34,6.04-.53,5.23-1.08,9.93.34,14.74.58,1.96-.42,4.39-.81,7.4-3.24-2.46-5.91-3.98-7.03-7.29-.87-2.56-1.94-5.1-3.26-7.45-1.63-2.89-2.63-2.93-5.48-.98-.71.49-1.56,1.23-2.28,1.17-2.52-.21-3.9,1.42-5.47,2.86-1.18,1.08-2.38,2.13-3.63,3.13-4.27,3.39-8.84,6.46-12.78,10.2-2.94,2.78-5.38,6.22-7.54,9.68-2.06,3.3-3.51,7-5.18,10.54-3.04,6.48-3.32,13.67-3.91,20.5-.71,8.17,1.25,16.41,3.64,24.23,1.86-.53,3.73-1.71,5.25-1.37,5.21,1.18,8.86,5.21,12.23,8.84,2.82,3.04,5.26,6.68,7.63,10.19,1.31,1.94,2.46,4.48,2.36,6.69-.07,1.44-.06,2.53.43,3.89.58,1.61.83,3.39.89,5.11.06,1.92-.26,3.84-.39,5.4,4.09,2.54,7.73,5.12,11.65,7.16,6.68,3.47,13.28,7.4,20.39,9.65,7.73,2.44,15.96,3.53,24.05,4.45,2.23.25,4.26.03,6.32,1.29.83.51,2.34.04,3.51-.17,2.44-.44,4.89-1.51,7.29-1.4,5.89.26,11.45-1.11,16.97-2.75,2.16-.64,4.03-1.42,6.51-1.37,3.02.06,6.14-1.55,9.1-2.73,3.64-1.45,7.17-3.16,10.73-4.82,3.44-1.6,7.41-2.39,9.72-5.94-.61-.43-1.39-.68-1.45-1.05-.79-4.84-3-9.45-1.78-14.63.8-3.42,1.35-7.08,1.03-10.55-.39-4.2,2.33-6.67,4.11-9.67.86-1.45,2.52-2.07,4.33-1.15ZM249.01,304.34c1.68-8.63-2.4-14.56-5.91-20.29-3.6-5.88-8.14-11.37-15.98-13.84-.51,5.22,2.61,8.96,4.47,12.47,4.28,8.06,9.81,15.46,17.42,21.67ZM425.01,238.13c-1.66-.66-4.76-.17-4.3-2.91.78-4.62-3.9-4.96-5.03-7.95.47,3.48.36,7.7,2.41,9.72,2.15,2.12,3.26,6.53,7.87,6.22-.35-1.87-.63-3.41-.94-5.07ZM417.19,222.75c-.6-2.28-.92-4.51-1.76-6.52-.97-2.31-2.64-2.71-4.41-.83.72,3.52,2.37,6.15,6.17,7.35ZM345.91,187.55q-2.27,3.06-.35,5.46c.12-1.89.21-3.35.35-5.46ZM348.98,181.85c-2.52,1.31-3.7,2.19-3.6,4.58,2.36-.26,3.26-1.32,3.6-4.58ZM300.69,178.51c.4,0,.79,0,1.19.01.11-1.52.22-3.05.33-4.57-.28-.03-.56-.07-.85-.1-.23,1.55-.45,3.11-.68,4.66Z"/><path class="cls-1" d="M301.11,103.67c-.84-4.83.23-9.47.9-14.25,1.11-7.91,5.53-14.46,7.78-21.85.56-1.85,1.87-3.48,2.84-5.21.44-.78,1.19-1.52,1.3-2.35.8-6.07,4.43-10.64,7.72-15.48,2.18-3.21,3.53-6.99,7.06-9.21.61-.38.68-1.62,1.01-2.47.39-1,.48-2.43,1.21-2.94,4.6-3.2,6.92-8.54,11.4-11.83,1.22-.9,2.11-2.24,3.18-3.34.81-.83,1.55-2.02,2.54-2.35,4.03-1.33,6.92-4.3,10.36-6.48,2.91-1.84,6.63-3.34,9.99-3.33,4.08.02,7.86-1.36,12.08-1.1,10.38.62,24.49,5.41,31.85,12.34,1.02.96,2.31,1.66,3.23,2.71.94,1.08,1.58,2.43,2.47,3.87h3.32c.19.54.48,1.02.37,1.15-1.23,1.49-1.63,2.99-1.1,4.98.26.97-.36,3.01-1.04,3.25-5.03,1.76-7.52,5.94-10.3,9.93-.56.8-1.8,1.09-2.68,1.7-1.27.88-2.51,1.79-3.71,2.76-.41.32-.57,1.02-1,1.24-7.73,4.08-15.48,8.11-23.24,12.14-1.57.82-3.24,1.46-4.74,2.38-4.6,2.81-7.07,2.71-11.19-.57-1.1-.88-2.25-1.71-4.07-3.09.44,2.37.6,3.93,1.04,5.41.45,1.5,1.2,2.91,1.78,4.3-5.6,3.55-11.05,5.58-17.49,4.89-2.73-.29-5.61,1.01-8.44,1.42-2.54.37-5.36-.07-7.63.87-6.68,2.75-12.78,6.44-15.06,14-.44,1.46-.37,3.08-.64,5.59,4.76-3.14,8.41-2.39,12.28.21,2.32,1.55,5.55,1.67,8.06,3.01,4.53,2.42,8.54,6.36,13.31,7.65,4.73,1.29,7.23,4.77,10.79,7.14,3.58,2.38,6.95,5.07,10.57,7.38,1.93,1.24,4.18,1.99,6.65,3.12.94-1.56,1.89-3.5,3.18-5.18,2.41-3.14,2.35-8.2,7.37-9.4.62-.15.76-1.91,1.3-2.83,2.72-4.62,6.3-8.56,9.85-12.54,1.52-1.7,2.56-3.82,3.97-5.63,2.42-3.09,8.89-5.33,12.27-3.86,1.41.62,2.47,2.45,3.29,3.94.85,1.55.88,3.59,1.84,5.02,1.79,2.65,1.75,5.32,1.28,8.28-.3,1.89-.73,4.5.24,5.68,1.92,2.34,1.49,4.87,1.44,7.21-.06,2.94-.63,5.74,1.74,8.12.4.4.6,1.56.31,2.01-1.38,2.14-.21,4.19-.1,6.3.28,5.65.33,11.3.56,16.95.04,1.02.52,2.01.77,3.03.26,1.04.97,2.27.65,3.1-1.11,2.9-.31,5.65-.07,8.52.39,4.62.2,9.3.11,13.96-.06,2.82-1,3.17-5.57,2.37.32-1.44.8-2.84.89-4.27.35-5.72-1.49-11.52.71-17.18.14-.37-.33-.98-.48-1.48-1.05-3.45-2.89-6.78-1.2-10.57.26-.57.22-1.57-.11-2.07-1.66-2.46-1.01-5.23-1.26-7.88-.69-7.23-.69-14.57-2.51-21.63-.75-2.9.13-4.73,2.06-6.2-1.49-3.07-3.72-5.07-3.44-8.67.24-3.08-1.22-6.29-2-9.75-1.22-.51-2.67-1.12-4.71-1.97-1.49,5.16-6.56,7.27-8.85,11.89-1.55,3.13-4.35,5.64-6.66,8.38-2.06,2.45-4.45,4.65-6.27,7.27-2.76,3.99-5.15,8.24-8.12,13.08,3.63,3.01,7.41,6.14,11.41,9.46.84-1.23,1.66-2.01,1.97-2.97.92-2.85,1.33-5.89,2.49-8.63,2.48-5.91,5.26-11.7,8-17.5,1.8-3.8,2.3-3.77,5.24.13-1.66,3.81-5.5,7.4-2.05,12.2.3.42-.32,1.41-.23,2.1.42,3.24.77,6.5,1.47,9.68.63,2.88,2.38,5.7-.83,8.2-.4.31-.31,1.37-.3,2.08.08,4.42.1,8.84.39,13.25.07,1.11.96,2.25,1.68,3.23,2.57,3.48,5.42,6.77,7.79,10.38,1.94,2.95,3.35,6.25,5,9.39,2.69,3.64,5.38,7.28,8.49,11.5,1.84-2.03,3.81-4.46,6.05-6.61,3.83-3.68,7.45-7.78,11.86-10.6,4.43-2.83,9.58-4.94,14.69-6.21,4.3-1.07,9.15.16,13.51-.79,5.78-1.26,10.92,1.28,16.4,1.49,1.01.04,2.09.36,2.97.84,3.04,1.67,6.32,1.96,9.65,2.63,7.52,1.51,15.77,1.74,21.43,8.49,1.63,1.95,4,3.53,6.34,4.57,5.1,2.27,7.8,6.86,10.53,11.05,3.74,5.74,8.83,10.24,12.76,15.73,2.26,3.16,5.52,5.7,6.02,10.06.22,1.94-.55,3.25-1.25,4.76l.04.09c-3-4.23-5.95-8.49-9.02-12.68-2.64-3.6-5.16-7.35-8.19-10.61-3.96-4.26-5.24-10.76-10.75-13.53-6.37-3.2-10.88-9.34-18.08-11.14-.5-.13-.91-.71-1.41-.78-3.92-.57-7.85-1.08-10.98-3.88-6.72.09-13.14-2.59-19.91-2.2-1.78.1-3.74.17-5.34-.44-3.99-1.52-7.69-.39-11.64.13-5.4.71-9.87,2.98-14.13,5.93-1.81,1.26-3.08,3.32-4.92,4.52-5.09,3.34-9.65,7.22-13.61,11.85-.38.44-1.29.43-1.98.64,4.76,11.26,9.45,22.22,12.5,33.75-.35.27-.69.55-1.04.82-.97-.48-2.03-.85-2.87-1.5-.52-.4-.8-1.21-1.01-1.88-2.07-6.73-4.73-13.21-7.52-19.68-1.68-3.89-2.96-8.04-4.94-11.84-2.01-3.87-3.99-7.79-6.44-11.38-3.39-4.98-7.09-9.76-10.87-14.46-4.37-5.43-7.1-12.07-12.45-16.76-1.31-6.39-7.55-8.14-11.41-12.14-.24-.25-.77-.27-.93-.54-2.06-3.45-4.79-5.78-8.85-6.89-1.53-.42-2.33-3.04-3.81-4.22-4.17-3.31-8.46-6.48-12.84-9.52-1.72-1.2-3.77-1.91-5.68-2.84-.63-.31-1.67-.4-1.88-.88-1.95-4.41-7.75-4.31-9.86-8.5-.2-.4-.82-.69-1.3-.85-7.56-2.56-15.13-5.09-23.42-7.86-.91,1.88-1.93,3.97-3.16,6.49-1.61-.01-3.82-.13-5.11,2.45-.37.74-2.59.56-3.96.8,0,0,.06.06.06.06ZM366.82,58.26c.21-.02,1.39.13,2.29-.31,4.4-2.13,8.65-4.58,13.11-6.59,3.87-1.75,7.06-4.77,10.91-6.22,6.58-2.48,11.48-7.01,16.19-11.76,2.19-2.21,4.44-5.35,4.67-8.22.21-2.65-1.55-6.46-3.7-8.08-5-3.76-9.7-8.7-16.85-8.34-.87.04-1.86-.06-2.63-.44-7.21-3.62-14.74-2.13-22.17-1.26-2.03.24-3.83,2.21-5.87,2.52-5.22.8-10.56.98-13.17,6.8-.22.5-1.37.51-1.85.99-1.88,1.86-3.72,3.78-5.47,5.77-.69.79-.98,1.92-1.67,2.72-3.29,3.78-6.67,7.49-9.96,11.27-.46.52-.86,1.28-.89,1.95-.16,4.27-3.82,6.53-5.58,9.88-3.35,6.39-9.41,11.31-10.19,19.12-.13,1.35-1.12,2.61-1.72,3.91-.64,1.39-1.37,2.75-1.93,4.17-.45,1.14-.69,2.36-1.08,3.53-1.06,3.17-2.21,6.32-3.18,9.52-.12.4.6,1.07,1.2,2.03.62-1.3,1.07-2.07,1.37-2.89,1.44-3.97,1.68-8.4,6.28-10.81,2.86-1.5,4.93-4.46,7.62-6.39,1.67-1.2,3.89-2.46,5.8-2.35,5.92.32,11.77-3.26,17.7-.28.31.15.95-.38,1.44-.57,1.79-.7,3.58-1.37,5.36-2.09,1.76-.7,4.6-1.05,5.03-2.25,1.02-2.86-2.6-3.33-3.96-5.08-.61-.79-1.87-1.04-2.69-1.71-1.24-1.03-2.85-2.01-3.41-3.38-.76-1.89-.81-4.12-.88-6.21-.02-.5,1.09-1.03,1.74-1.6q4.78,8.11,7.51,8.14c-.39-2.49-4.15-4.34-1.12-8.26,3.85,4.19,7.41,8.07,11.75,12.78ZM398.09,124.52c-1.6,2.63-3.32,5.44,0,9.27v-9.27Z"/><path class="cls-1" d="M208.55,214c1.81,4.91-1.99,8.55-3.1,12.78-.52,1.99-.92,3.36-.2,5.46.82,2.41.48,5.22.66,7.86.2,2.84.17,5.72.69,8.5,1.13,6.09,3.46,11.84,5.27,17.73,1.3,4.24,2.74,8.35,4.85,12.19,1.31,2.38,2.64,4.74,3.94,7.12,3.2,5.89,6.56,11.76,10.56,17.11,3.51,4.69,7.96,8.68,12.05,12.92.98,1.02,2.28,1.73,3.29,2.73,4.72,4.72,9.56,9.09,16.45,10.56,3.24.69,6.57,1.88,9.36,3.63,4.89,3.06,10.56,2.95,15.94,5.08,2.29,3.79,4.6,8.04,9.88,9.44,1.47.39,3.01,1.51,3.96,2.73,4.36,5.58,9.86,6.35,16.23,4.44,5.1-1.52,10.26-2.83,15.36-4.34.68-.2,1.18-1.01,2.24-1.97-3.12-.87-5.63-1.61-8.16-2.24-.85-.21-2.06-.54-2.61-.14-3.45,2.55-6.45.63-9.62-.59-2.83-1.09-5.81-1.77-8.65-2.85-.83-.32-1.37-1.38-2.04-2.1.97-.56,1.95-1.65,2.89-1.61,6.76.29,13.51,1.19,20.26,1.14,5.55-.04,11.11-1.04,16.65-1.79,1.49-.2,2.85-1.33,4.34-1.55,1.89-.28,3.85-.07,6.81-.07-1.48,1.46-2.24,2.87-3.25,3.09-5.66,1.22-11.36,2.27-17.08,3.14-2.16.33-4.41.05-6.76.2,3.74.93,8.33.4,9.97,5.7-1.46,3.53-4.86,5.28-8.59,6.99-5.75,2.63-11.82,3.73-17.93,3.37-7.05-.43-12.65-5.12-18.86-8.01-1.77-4.83-7.96-5.79-9.2-10.9-6.29-1.5-12.33-2.94-18.4-4.36-2.58-1.57-4.91-3.46-8.19-3.74-1.64-.14-3.31-1.32-4.72-2.37-4.79-3.57-9.49-7.27-14.19-10.96-.69-.55-1.29-1.29-1.75-2.05-3.04-5.06-7.97-8.6-10.91-13.77-1.4-2.45-3.55-4.47-5.02-6.89-3.29-5.44-7.2-10.72-9.24-16.62-1.55-4.47-2.64-8.82-6.58-12.51-1.54.59-4.17.76-4.94,2.04-2.15,3.62-5.68,5.37-8.66,7.9-5.05,4.28-7.56,11.02-4.21,17.57,1.17,2.28,3.37,4.26,5.53,5.74,5.77,3.94,11.7,7.65,17.69,11.25,8.45,5.07,16.97,10.02,25.54,14.88,7.23,4.1,15.59,5.52,22.96,9.44,1.76.93,4.48.03,6.77-.02-2.68,4.39-1.38,5.88,2.02,8.43,6.3,4.7,12.87,8.98,18.84,14.24,5.51,4.86,12.52,8.03,18.91,11.88.71.43,1.76.27,2.53.64,1.82.86,3.56,1.86,5.79,3.05-2.58,2.36-4.8,1.73-6.62.94-7.17-3.14-13.78-7.08-20.14-11.81-6.98-5.19-13.29-11.37-21.1-15.46-1.35-.71-2.29-2.17-3.97-3.82-1.68,2.57-3.5,4.93-4.85,7.53-1.72,3.34-3.32,6.79-4.48,10.35-.81,2.48-1.33,5.29-1.05,7.85.45,4.11,4.27,6.79,9.69,7.66,6.65,1.07,13.34,1.94,19.92,3.31,4.2.87,8.25,2.48,12.88,3.92.32,2.79,2.34,4.74,5.44,5.93,1.64.63,3.04,1.89,4.57,2.83,1.5.93,2.85,2.26,4.94,1.14.61-.33,1.69.12,2.51.34.51.14,1.21.86,1.39.73,4.07-3.03,9.47,1,13.45-2.57.58-.52,1.68-.44,2.54-.65,2.5-.62,5.01-1.24,7.43-2.27,2.18.06,4.59,2.02,6.53-.98,5.06-.18,10.13-.47,15.19-.5,2.28-.02,4.01.89,2.88,3.74l.12-.12c-6.62.32-13.26.37-19.84,1.07-3.19.34-6.25,1.88-9.37,2.88-.34.11-.74.44-1,.35-4.48-1.58-7.93,2.19-12.02,2.29-3.26.08-6.54-.41-9.81-.46-1.11-.02-2.72.18-3.27.9-1.51,2.03-3.24,1.98-5.46,1.31.28-1.17.55-2.32.85-3.54-2.71-1.91-5.36-3.72-7.94-5.63-.71-.52-1.6-1.24-1.74-1.99-.79-4.25-4.17-4.12-7.13-4.05-5.1.12-9.79-1.01-14.58-2.68-2.54-.89-5.64-.16-8.76-.16,2.22,7.57,4.98,14.23,12.25,18.27,1.6-4.73-3.97-10.38,2.37-15.27.39,2.57.69,4.26.89,5.95.19,1.61.04,3.3.47,4.82,1.32,4.64,5.72,6.25,11.03,3.97-1.52-2.85-4.54-5.28-2.93-9.43,5.73.06,4.63,6.61,8.95,8.8.18-.05,1.29-.7,2.15-.46,1.03.29,2.48,1.27,2.57,2.07.09.84-1.38,2.72-1.9,2.63-5.11-.87-9.52,3.54-14.75,1.79-1.45-.49-3.24.11-4.85-.03-1.69-.15-3.46-.34-5.02-.96-1.82-.72-3.47-1.89-5.16-2.92-.6-.36-1.34-.75-1.64-1.32-2.99-5.67-5.82-11.42-8.89-17.04-.91-1.67-2.14-3.59-3.73-4.38-3.66-1.82-4.59-4.79-4.78-8.39-.05-.93-.31-1.85-.54-3.14-1.88,2.16-3.39,3.89-4.9,5.62-.44-.16-.88-.33-1.32-.49-.05-1.48-.1-2.96-.15-4.45l-.13.15c1.85-2.24,3.7-4.47,5.55-6.71,0,0-.21.22-.21.22,4.4-7.43,8.8-14.85,13.46-22.72-5.98-1.62-11.56-2.7-16.79-4.69-4.77-1.82-9.11-4.76-13.74-7.01-7.59-3.69-14.14-9.12-22.03-12.43-4.68-1.96-8.57-5.81-12.82-8.81-2.84-2.01-5.69-4.01-8.7-6.14-1.15,1.1-1.2,2.17-.81,4.29,1.26,7.02,6.31,11.98,8.89,18.23,1.17,2.83,5.5,4.25,9.85,3.86-5.57-4.42-9.69-9.41-10.41-17.01,1.12.26,2.02.19,2.32.58,3.68,4.86,6.95,10.06,11.97,13.77.62.46.76,1.59,1.14,2.46,5.02,2.48,10.96-2.21,15.77,1.96-1.54,2.41-3.54,2.73-6.42,2.51-4.75-.38-9.57.22-14.37.4-1.44.05-2.88.22-4.31.13-3.03-.19-6.01-.54-9.03.44-1.26.41-2.83-.27-4.24-.18-1.71.11-3.55.18-5.08.85-4.58,2.02-7.52.37-7.99-4.67-.16-1.77-.81-3.54-.66-5.26.08-.91,1.35-2.35,2.19-2.42,1.5-.14,1.84,1.07,1.57,2.65-.84,5.11.54,6.53,5.57,6.05,3.23-.31,6.45-.65,10.48-1.06-2.2-3.56-4.31-6.71-6.15-10.01-1.83-3.27-3.39-6.69-5.5-10.89-.65,3.41-1.17,6.13-1.92,10.12-1.82-2.05-2.79-3.15-3.85-4.35.1-.05-.27,0-.38.21-1.02,1.87-2.04,3.74-2.96,5.66-.95,1.99-2.2,2.82-4.7,1.16.4-1.21.51-2.79,1.33-3.76,3.96-4.72,5.78-11.03,11.36-14.62,1.53-.99,2.47-3.54,2.83-5.53.37-2.03-.09-4.3-.55-6.38-1.02-4.61.88-7.51,4.44-10.39,2.86-2.32,4.74-5.86,7.01-8.89,1.55-2.06,3.08-3.71,6.07-3.91,1.84-.12,3.58-1.72,5.66-2.81-.93-3.56-2.03-7.14-2.78-10.79-1.33-6.49-2.02-13.06-1.36-19.68.36-3.58.06-6.66-2.14-9.88-2.28-3.33-1.62-7.46-.85-11.49,4.97.58,1.46,5.13,3.7,6.91,2.28-1.33,4.52-2.65,6.77-3.96l.25.26Z"/><path class="cls-1" d="M64.07,290.4c-1.39-.18-2.79-.36-4.56-.59-1.11-5.28-6.85-6.02-9.77-9.67-5.45,3.03-9.83,6.78-13.43,11.46-.43.56-1.02,1.08-1.64,1.4-5.57,2.87-8.76,8.21-13.11,12.35-2.83,2.69-5.4,5.89-9.99,6.6-1.8.28-3.36,3.51-4.57,5.65-.94,1.66-1.18,3.71-1.74,5.59-.76,2.57-1.21,5.15,1.68,6.68,2.66,1.41,5.8,1.19,7.58-.9,2-2.33,4.95-4.02,5.36-7.85.4-3.72,3.64-5.92,6.72-8.79.46,1.37,1.03,2.17.82,2.54-3.04,5.49-4.68,11.76-9.19,16.44-4.52,4.69-10,5.08-15.2.95-.83-.66-1.78-1.17-2.38-1.56-1.97-6.05.97-10.98,3.23-15.61,1.33-2.74,5.09-4.3,7.75-6.39-.34-.4-.68-.79-1.02-1.19h5.78c2.87-5.06,5.8-9.67,10.88-12.84,3.2-1.99,6.19-4.93,8.12-8.14,1.52-2.53,3.33-2.93,5.24-3.08,1.57-2.46,2.92-4.55,4.37-6.83-1.71-3.71-3.74-7.49-5.21-11.49-1.29-3.49.43-6.65,2.55-9.57-2.23-3.49-4.52-6.73-6.41-10.18-1.01-1.84-1.68-4.02-1.87-6.1-.35-3.73.45-7.67-.46-11.2-1.04-4.01-.53-7.69-.11-11.6,1.16-10.63,3.65-20.8,10.67-29.14,2.54-3.02,4.63-6.62,8.28-8.69.59-.34.86-1.5,1.01-2.33.39-2.09.62-4.21.87-5.94-3.34-3.29-6.45-6.46-9.68-9.5-2.66-2.51-4-5.8-5.7-8.9-1.37-2.51-3.62-4.82-4.1-7.47-.85-4.77-4.01-9.03-2.41-14.46.91-3.08-.42-6.74-.12-10.08.57-6.42,1.5-12.65,4.77-18.63,2.19-4.01,3.07-8.79,6.38-12.31.97-1.03,2.12-1.88,3.09-2.91,1.06-1.12,2.11-2.27,2.98-3.55.58-.85.54-2.44,1.26-2.84,6.8-3.8,10.98-11.35,19.03-13.32,5.39-5.17,13.26-5.69,19.06-10.18,1.22-.94,3.44-.5,5.14-.94,5.99-1.53,11.69-4.63,18.22-3.12.77.18,1.7-.51,2.57-.57,1.89-.12,3.78-.11,5.68-.1.32,0,.79.53.93.44,5.07-3.46,10,.18,14.88.6,9.61.84,19.15,2.74,28.65,4.52,1.8.34,3.32,2.18,4.73,3.85-4.23,1.12-8.1.48-11.89-.97-4.87-1.86-9.89-2.81-15.11-2.88-1.16-.01-2.31-.59-3.48-.85-1.2-.27-2.4-.6-3.62-.66-2.26-.11-4.54.06-6.8-.09-3.59-.24-7.2-1.87-10.71.55-.58.4-1.7-.01-2.57-.03-2.12-.05-4.29-.38-6.36-.08-4.75.68-9.45,1.66-14.17,2.52-.71.13-1.77.05-2.05.48-2.85,4.27-7.7,3.79-11.78,5.13-1.01.33-2.65.54-2.87,1.19-1.23,3.63-4.03,2.9-5.66,2.69-2.86,2.28-5.04,4-7.21,5.75-2.93,2.36-6.72,3.52-8.39,7.61-.77,1.88-3.46,3.07-5.43,4.33-1.75,1.12-3.12,2.22-3.5,4.5-.22,1.3-1.38,2.45-2.15,3.64-1.48,2.31-3.89,3.9-3.74,7.37.09,1.88-3.63,2.95-2.82,5.83-3.1,3.98-1.25,9.09-3.04,13.38-.2.48-.23,1.08-.19,1.62.61,8.08.28,16.39,3.93,23.88,2.59,5.3,5.8,10.31,10.05,14.58,1.88,1.89,3.29,4.24,5.01,6.3.67.8,1.5,1.56,2.42,2.04,3.31,1.72,6.34,3.71,9.21,6.2,2.31,2.01,5.6,3.08,8.62,4.04,4.99,1.6,5.04,1.42,7.79,6.04.66-.47,1.31-.94,2.06-1.48,5.13,6.65,2.14,13.8,1.52,20.76-.04.47-.52.94-.89,1.32-3.34,3.44-10.48,6.05-15.41,3.19-1.59-.92-2.76-2.6-4.06-4-.33-.36-.35-1.36-.6-1.39-5.11-.62-5.18-4.67-5.67-8.35-.65-4.92-3.22-9.6-1.92-14.77.42-1.67.81-3.34,1.3-5.35-.45-.24-1.2-.64-1.93-1.03-.37.4-.75.61-.78.87-.5,3.93-2.51,7.01-5.06,9.95-2.8,3.24-5.28,6.77-7.78,10.25-.72,1-1.16,2.24-1.53,3.44-1.02,3.28-2.07,6.56-2.84,9.9-.65,2.85-2.01,5.85.51,8.91,6.45-3.85,12.79-7.63,19.13-11.41.32.21.63.42.95.63-.26.99-.2,2.49-.83,2.89-6.79,4.28-12.23,10.65-20.29,13.03-.87.26-1.79,2.27-1.73,3.43.38,7.73,1.51,15.22,5.19,22.34,2.18,4.22,4.57,7.9,8.23,10.83.47.38.55,1.25.84,1.98-2.2.67-4.21,1.29-6.24,1.91.39,9.86,8.55,14.07,14.33,21.54.29-5.57.63-9.99,4.46-14.02.51,1.68,1.12,2.74,1.1,3.79-.04,1.6-.36,3.24-.86,4.77-1.25,3.82-.39,7.69-.46,11.53.01,0,.14-.08.14-.08ZM84.29,195.47c-3.91,2.13-4.48-.12-5.01-2.37-.25-1.04-.31-2.14-.7-3.12-.84-2.08-1.35-4.62-2.87-6.04-2.57-2.41-5.73-4.26-8.82-6.02-1.42-.81-3.27-.84-4.69-1.18-.29,2.87-.57,5.12-.72,7.39-.06,1.02.09,2.07.27,3.09.76,4.27,2.88,7.96,4.62,11.86,1.38,3.11,3.69,4.51,6.11,5.48,2.14.85,5.01.68,7.33.08,2.59-.67,2.95-3.22,2.88-5.74-.02-.76.69-1.55,1.61-3.43Z"/><path class="cls-1" d="M181.45,228.82c-3.44.34-6.88.7-10.33,1-.99.09-2,.01-4.21.01,3.84-4.19,8.07-3.98,12-4.61-.54-2.01-1.37-3.99-1.55-6.02-.17-1.92.34-3.9.55-5.74-12.46,1.11-24.56,2.2-36.65,3.28-3.53,7.96-6.96,16.07-10.73,24.03-3.07,6.49-6.7,12.73-10.86,18.57-2.45,3.44-6.01,6.08-9.18,9.19.65,2.65,1.97,5.62-2.58,6.53-.97.2-2.26,1.65-2.4,2.66-.45,3.33-3.05,4.19-4.72,5.08-4.89-1.07-9.22-2.01-13.42-2.93-1.59,4.59-3.36,8.35-6.1,11.64-1.32-4.51.62-8.4,1.17-12.7-.98-.8-2.05-1.67-3.06-2.49-.75.44-1.46.6-1.64,1-1.38,3.12-2.81,6.23-3.92,9.45-1.91,5.52-1.75,5.81,3.1,10.6.4-1.23.55-2.43,1.14-3.33.53-.82,1.55-1.32,2.52-2.1,1.8,2.13,1.61,4.32.95,6.33-1.32,4.01-3.11,7.86-4.36,11.89-.66,2.11-.45,4.47-.9,6.67-1.36,6.68-2.84,13.35-4.29,20.01-.86,3.99-1.75,7.97-2.6,11.83,1.45,6.55,7.52,5.71,11.91,7.6,2-2.02,3.17-4.34,2.73-7.31-.1-.7-.16-1.63.2-2.13,4.61-6.4.95-14.74,5.03-21.24-.41-4.66,3.43-8.82,1.57-13.7-.24-.63.68-1.63.85-2.49.76-3.81,1.64-7.47-1.17-11.13-1.95-2.54-4.42-5.43-2.61-9.31,2.7-.22,3.45,1.52,4.16,3.5,1.06,2.95,1.9,6.09,3.59,8.65,1.43,2.18,1.84,4.73,2.96,6.66,2.09,3.61,3.33,8.33,7.48,9.75,1.23,2.85,1.96,5.48,3.4,7.64,2.68,4.02,5.86,7.71,8.67,11.65,5.49,7.71,12.01,14.51,18.53,21.31.5.52,1.24,1.01,1.4,1.63.24.95.07,2,.08,3.01-1.12-.11-2.67.2-3.3-.42-2.41-2.39-4.5-5.11-6.77-7.65-1.53-1.71-3.18-3.31-5.12-5.31-1.69,3.44-1.56,7.72-6.84,8.44.7-3.52,1.25-6.57,1.93-9.58.89-3.98.11-5.82-4.13-8.66-.35.53-.86,1.02-1.02,1.6-1.21,4.26-2.48,8.5-3.47,12.81-.54,2.33,1.05,4.36,3.43,5.18,3.21,1.1,6.3,2.55,9.92,1.83,1.27-.25,2.72.43,4.28.72q-2.88,3.82-6.49,3.15c-.89-.16-1.81-.47-2.68-.38-6.01.62-11.42-2.02-17.13-2.92-6.86-1.08-13.9-1.49-20.84-1.36-4.56.08-8.21-.1-10.15-4.93-.35-.86-1.63-1.35-2.06-1.68-.55-2.85-1.1-5.2-1.41-7.59-.14-1.07.17-2.22.38-3.32.09-.48.77-1.03.65-1.33-1.87-4.79,1.68-8.37,2.72-12.5.13-.51.71-.96.71-1.43-.08-6.36,1.34-12.46,3.22-18.48.63-2.01,1.19-4.1,2.2-5.93.88-1.61.91-3.25-.71-3.47-5.09-.69-7.28-4.82-10.35-7.94-.37-.37-.67-.81-1.02-1.21-.01.01-.14.09-.15.09,1.64,0,3.28,0,5.04,0,1.59-4.89,2.65-10.33,5.62-15.51-1.16-2.12-3.71-2.98-6.36-3.56-3.1-.68-4.53-2.59-4.79-5.71,2.16-1.12,4.62-1.16,5.28.88.93,2.88,3.15,2.44,5,3.17,3.98,1.57,7.96,3.17,11.93,4.76,1.14.46,2.26.96,3.39,1.41,5.15,2.08,8.78-1,11.93-4.11,3.25-3.2,6.59-6.52,8.07-11.14.62-1.94,1.59-3.12,4.38-2.83,1.61.17,4.14-2.05,5.14-3.82,1.55-2.75,3.32-5.35,4.86-8.08,2.78-4.93,5.33-10.03,7.51-15.26,1.92-4.59,3.45-9.39,4.63-14.22.44-1.81,1.4-2.68,2.47-3.88,2.45-2.75,4.64-5.74,7.34-9.16.42.18,1.6.7,2.95,1.28-1.22,2.34-2.24,4.32-3.35,6.45,5.35.46,5.34.46,5.82-3.79.1-.88.13-1.94.62-2.57.59-.75,1.65-1.13,2.5-1.66.55.95,1.63,1.95,1.56,2.85-.18,2.11-.91,4.18-1.61,7.06,3.74-.78,7.14-1.5,10.82-2.26v-7.09c4.59-.71,5.33-.17,4.54,3.69-.37,1.81-.81,3.18,1.69,3.86,3.71-3.37,8.08-4.89,12.63-3.22,5.02-2.19,9.19-5.33,15.12-4.58-2,5.28-5.7,6.78-10.03,6.77-2.84,0-5.21.48-6.83,2.57-.18,2.94-.42,5.77-.48,8.61-.02,1,.61,2.02.58,3.03-.03,1.5-.37,2.99-.58,4.49,0,0,.12-.1.12-.1ZM96.49,311.74c-.9,1.63-2.78,3.25-1.86,6.27.6,1.96.55,4.86-.52,6.46-3.34,5.01-.59,11.55-4.52,16.28-.28.34-.07,1.06-.14,1.6-.47,3.16-.95,6.33-1.45,9.49-.22,1.37-.48,2.73-.78,4.39,1.83.48,3.27.86,4.47,1.18,1-2.21,1.89-3.95,2.57-5.77.42-1.12.52-2.36.78-3.55.8-3.65,1.47-7.33,2.43-10.93,1.28-4.84,2.9-9.6,4.15-14.45.76-2.97,0-5.55-2.66-7.56-1.12-.85-1.74-2.36-2.46-3.4ZM105.61,325c-2.4,11.15-7.55,21.39-9.66,33.11h9.71c.26-1.53.55-2.91.72-4.3.61-4.79.47-9.83,1.95-14.33,1.84-5.59.16-9.96-2.72-14.48Z"/><path class="cls-1" d="M77.95,657.57c-.87-5.87-1.6-10.81-2.32-15.68-2.51-.89-5-1.77-7.65-2.72-1.56,3.35-4.82,2.88-8.05,2.65-1.6-.11-3.22.06-5.13.11,1.74,4.35,1.99,13.73.82,17.37-.26.82-.65,1.85-.37,2.54,1.55,3.75.53,7.97,2.74,11.75,1.51,2.58,3,5.8,1.2,9.31-.47.92.54,2.63.92,3.96.79,2.83,0,4.09-2.91,4.52-1.18.18-4.25,1.4-5.19,2.2-1.75-2.84-3.15-5.46-3.97-8.92-1.32-5.57-.73-11.34-2.72-16.84-1.24-3.42-1.13-7.41-1.23-11.16-.1-3.71.29-7.44.47-11.22-2.76-.85-5.16-1.81-2.69-5.22.36-.5.39-1.41.27-2.08-1.5-8.6-.97-17.51-3.68-25.9-1.29-4-1.8-7.9-1.21-12.03.14-1-.25-2.08-.45-3.11-.07-.35-.34-.66-.41-1-.92-4.85-.86-9.81-2.67-14.59-.71-1.87-.38-4.99,2.16-7.21.64,1.37,1.15,2.45,1.66,3.54,4.44.21,3.98.36,5.29,4.45,1.27,3.98.09,8.68,3.65,12.07.68.65.03,2.65.1,4.02.28,5.27,2.91,9.84,4.41,14.75.51,1.66,1.18,3.51.92,5.13-.94,6.02,1.16,11.47,2.68,17.35,3.35,0,6.69-.05,10.03.01,4.21.09,8.32-.1,11.38-2.24,0-3.82-.03-7.11,0-10.4.08-6.65.39-13.3.43-19.95.06-10.59-3.27-21.16-.42-31.77.36-1.35.11-2.87.15-4.31.06-2.33,1.26-4.04,3.53-4.03,1.91,0,4.05.7,4.41,3.22.17,1.22.05,2.47.13,3.7.15,2.46.35,4.92.52,7.38.07,1.04.56,2.33.13,3.1-3.53,6.27-2.04,13.15-2.06,19.67-.04,12.21.87,24.42,1.58,36.62.33,5.59.62,11.07-1.98,16.28-.25.5,0,1.31.16,1.94.48,1.89,1.03,3.77,1.54,5.66,1.87,6.86-.56,13.55-.82,20.32-.07,1.91-.82,3.6-3.37,3.22-2.5-.37-2.67-2.09-2.43-4.04.43-3.52-1.19-7.17,1.01-10.65.58-.92.09-3.02-.6-4.16-1.89-3.1-1.29-5.86.01-7.66ZM45.31,623.17c-.27.09-.53.18-.8.26.98,4.9,1.95,9.79,3,15.04.97-.41,1.71-.71,1.91-.79-.65-4.02-1.22-7.57-1.94-12.07-.18-.21-1.18-1.33-2.17-2.44ZM49.66,672.61c.41.11.82.21,1.23.32.9-1.04,1.81-2.08,2.91-3.35-1.15-.87-2.05-1.55-3.64-2.74-.22,2.5-.36,4.14-.5,5.78ZM51.52,660.53c-.39.08-.78.16-1.17.24.18,1.08.35,2.15.53,3.23.45-.1.91-.2,1.36-.3-.24-1.06-.49-2.11-.73-3.17Z"/><path class="cls-1" d="M477.3,294.55v4.46c-1.71-.22-3.34-.1-4.67-.67-4.05-1.72-7.5-.08-9.78,2.67-2.16,2.61-5.53,4.85-5.39,9.04.02.48-1.2,1-1.84,1.51-.49-.66-1.44-1.35-1.41-1.98.31-5.46,5.76-14.86,13.15-15.29-2-1.58-3.52-2.71-4.95-3.95-1.21-1.05-2.54-2.07-3.41-3.38-1.65-2.47-3.28-4.5-6.57-5.06-1.5-.26-2.72-2.15-4.45-3.62-2.09,4.24-3.56,8.62-4.39,13.25-.06.36-.37.88-.24,1.03,4.04,4.48-.54,6.35-2.67,8.96-.23.28-.36.63-.67,1.2.9,1.03,2.64,2.15,2.62,3.23-.03,1.28-1.58,2.53-2.46,3.8-.77,1.1-1.53,2.2-2.33,3.36-3-2.43.21-3.64.34-5.57-1.65-2.1-3.42-4.35-5.37-6.83,1.49-1.84,3.29-4.01,5.02-6.24,1.6-2.07.58-5.58,3.77-6.87.32-.13.21-1.35.26-2.06.25-3.24-1.54-6.84,1.69-9.56.12-.1.22-.37.17-.5-2.2-6.21,1.97-11.69,2.01-17.59.06-7.46,3.39-14.12,4.72-21.26.3-1.62,1.87-2.95,2.53-4.55,1.58-3.84,2.92-7.79,4.46-11.65.72-1.8,1.66-3.51,2.49-5.23q3.8,1.54.89,7.47c1.46-.48,2.48-1.1,3.48-1.08,1.14.03,2.26.63,3.57,1.04,0-5.36-.79-10.53-4.25-15.37-1.26,1.87-2.38,3.56-3.52,5.26-2.79-.71-2.65-1.82-1.71-4,3.35-7.75,8.6-14.33,13.1-21.84,2.86,1.35,5.58.62,8.04-1.47.39-.33,1.11-.77,1.42-.62,3.99,1.95,7.79-.94,11.82-.35,3.83.57,7.82.16,11.74-.01,2.64-.12,5.27-.62,7.91-.85,1.91-.17,2.57.81,2.17,2.54-2.86.25-5.59.45-8.31.73-7.1.73-14.2,1.49-21.64,2.27-.27,2.3.29,4.82,1.49,7.58,2.62,6.04,2.43,12.66,2.57,19.14.1,4.66.3,9.34.06,13.99-.19,3.71-.97,7.39-1.61,11.97-2.56-1.93-2.62-3.52-2.57-5.59.19-6.78,1.33-13.51-.16-20.37-1.22-5.61-1.31-11.47-2.12-17.18-.37-2.59-1.28-5.1-2.14-8.39-2.01.93-3.67,1.28-4.63,2.3-.67.71-.81,2.46-.47,3.52,3.37,10.48,4.96,21.23,4.75,32.21-.07,3.73-1.73,7.64-1,11.13.71,3.43-.82,4.96-3.21,7.74-.44-2.01-1.06-3.44-1-4.84.21-5.57,1.03-11.15.86-16.7-.17-5.33-1.29-10.63-2.03-15.95-.07-.53-.62-1.16-.45-1.52,1.86-3.9-1.13-6.79-2.16-10.8-1.97,2.16-3.68,4.03-5.57,6.1,3.11,2.46,4.84,5.08,5.23,8.8.68,6.43,1.92,12.79,2.94,19.18.35,2.2.06,3.96-2.84,4.28-.48-1.16-.91-2.23-1.37-3.36-.51.36-.99.54-.99.72.02,7.24,1.7,14.47.11,21.72,2.52,5.15-2.16,9.98-.72,15.12.2.7-.4,1.68-.78,2.47-1.77,3.68-3.6,7.33-5.51,11.2,3.73,3.23,7.12,6.41,10.8,9.23,1.48,1.13,3.57,1.46,5.39,2.15,0,0-.18-.22-.18-.22ZM457.01,280.74l1.45.27c.58-1.08.91-2.44,1.78-3.2,3.84-3.38.87-9.34,4.89-12.61.14-.12-.11-.68-.12-1.04-.07-2.12-.19-4.24-.16-6.36.04-3.74.16-7.48.28-11.22.08-2.31-1.3-4.18-1.14-6.78.25-4.29,1.2-9.05-1.93-13.88-.33,1.57-.7,2.54-.71,3.51-.06,4.31.14,8.63-.07,12.94-.29,6.08-.31,12.26-1.48,18.19-.89,4.47.27,9.29-2.61,13.57-1.04,1.55-.17,4.38-.17,6.63ZM453.6,269.01c-.51-.13-1.02-.26-1.54-.39-.73,1.32-1.7,2.57-2.09,3.99-.18.66.75,1.62,1.18,2.45.81-.5,2.16-.87,2.33-1.53.36-1.42.11-3,.11-4.52ZM454.65,266.33c.17-1.71.31-3.07.49-4.81q-2.69,2.11-.49,4.81ZM456.57,242.5q1.12-2.54-.77-4.07c.22,1.16.41,2.15.77,4.07Z"/><path class="cls-1" d="M458.18,606.82c2.96.87,5.04-.63,6.54-2.72,3.02-4.23,7.89-5.34,12.17-7.24,2.07-.92,5.03-.36,7.43.18,2.47.56,3.85,2.4,5.07,4.96,1.96,4.12,5.17,7.63,7.69,11.5.94,1.44,1.39,3.19,2.14,4.76,2.75,5.8,2.01,11.85,1.28,17.9-.06.52-.17,1.28-.52,1.49-5.02,3.02-4.13,8.33-5.12,12.92-.22,1.01-.43,2.19-1.07,2.92-2.73,3.06-5.74,5.66-5.75,10.49,0,2.74-6.92,5.84-9.31,4.59-.74-.39-1.43-1.74-1.37-2.6.08-1.2.78-2.4,1.38-3.51,2.05-3.75,5.13-7.06,4.65-11.83-.06-.62.38-1.61.89-1.91,3.94-2.31,3.27-6.06,3.17-9.64-.02-.9-.49-2.08-.08-2.65,4.72-6.67,1-13.81,1.19-20.7.1-3.73-4.05-6.78-8.14-5.93-3.45.72-6.98,2.04-9.93,3.93-2.87,1.84-5,4.81-7.55,7.18-2.31,2.15-2.84,5.68-6.3,7.18-1.16.51-1.1,3.93-1.5,6.04-.09.49.5,1.25.29,1.55-2.48,3.63-1.23,7.38-.87,11.26.31,3.27-3.1,2.03-4.92,2.69-.3,1.05-.47,2.15-.93,3.12-1,2.09-2.77,2.8-4.97,2.19-2.06-.57-3.49-2.5-2.62-4.1,3.3-6.03-.21-12.56,1.78-18.53,1.65-4.93.76-10.07,1.74-15.07,1.19-6.09,2.74-12.45,2.05-18.45-.47-4.08,1.56-8.01-.15-12.01-.57-1.35.06-3.21.13-4.83.23-5.35,1.36-10.59.33-16.09-.76-4.03.1-8.33,3.64-13.09.3.93.77,1.66.7,2.34-.23,2.11,1.04,2.92,2.41,4.25,1.51,1.46,2.76,4.12,2.63,6.16-.42,6.75-.78,13.42.62,20.12.72,3.47.93,7.06,1.12,10.61.18,3.4.04,6.81.04,10.61Z"/><path class="cls-1" d="M428.88,335.9c1.71-.91,3.58-1.61,5.1-2.77,2.49-1.89,4.76-4.08,7.66-6.62-.19-.27-.66-1.4-1.49-2.07-1.41-1.12-3.09-1.88-4.59-2.91-1.35-.93-2-2.11-.42-3.97,2.8,1.24,5.73,2.47,8.59,3.85.75.36,1.83,1.19,1.81,1.76-.12,3.25,2.65,3.95,4.44,5.55,2.13,1.91,4.31,3.79,6.25,5.88,2.02,2.18,3.92,3.68,6.97,1.68,1.48-.96,3.22-1.67,4.93-2.08,1.64-.39,3.46-.56,5.09-.26,1.63.3,3.53,2.27,4.6,1.81,2.36-1,4.72-2.73,6.23-4.78,1.58-2.15,3.39-2.98,6.44-3.68-.17,1.55.11,2.96-.48,3.66-1.94,2.3-3.99,4.59-6.36,6.43-2.72,2.11-5.59,3.53-9.41,1.57-3-1.54-6.56-2.03-9.89,1.22,3.85,4.41,7.7,8.82,11.78,13.48,3.01-.96,5.65-1.8,8.28-2.65,2.31-.75,4.13.41,3.98,2.82-.3,4.85-.82,9.69-1.22,14.54-.16,1.99-1.22,3.13-2.91,4.2-2.87,1.81-5.39,4.16-8.19,6.08-4.31,2.95-7.61,6.92-11.36,10.44-2.43,2.28-5.81,3.52-8.69,5.36-1.63,1.04-3.09,2.33-4.95,3.75-2.79-1.19-4.7-3.43-6.54-6.24-1.74-2.66-2.99-6.07-6.88-7.04-2.03-.51-2.09-2.87-.2-4.81,2.47-2.55,5.13-4.91,7.8-7.43-3.59-4.09-3.59-10.61-9.02-13.59.65-.29,1.29-.79,1.96-.82,6.53-.35,12.38-2.68,17.19-5.26.76-5.02,1.41-9.24,2.07-13.6-4.77-1.68-8.97-4.57-11.57-9.53-6.21,3.53-11.88,6.62-15.4,11.7,1.47,3.77,6.44,5.57,4.38,11.32-1.22-.74-2.16-1.28-3.07-1.88-.76-.5-1.48-1.06-2.21-1.61.07-1.86.46-3.85-2.06-5.03-1.41,2.75,1.71,3.28,2.17,4.92,1,2.84,2.09,5.47,5.55,6.36.65.17.78,2.36,1.15,3.62-4.85,1.03-7.69-2.66-10.84-5.08-1.18-.91-.96-3.66-1.25-5-4.84-4.23-9.37-8.19-13.83-12.08-3.75,1.98-7.73,4.28-11.89,6.2-1.65.76-3.78,1.16-5.53.83-1.54-.29-3.5-1.07-3.69-3.41-.36-4.35-.83-8.69-1.31-13.53-1.58.89-3.31,2.09-5.21,2.86-2.48,1.01-5.54,1.1-7.55,2.64-2.39,1.83-4.83,2.07-7.45,2.14-.85.03-1.72-.77-3.74-1.76,5.04-.93,7.75-3.86,12.15-4.15,3.6-.24,7.06-3.24,10.5-5.17,5.31-2.97,10.57-6.02,15.79-9.14,1.22-.73,2.23-1.84,3.27-2.84,2.67-2.57,2.91-2.58,5.96.15.54-1.06,1.07-2.12,1.8-3.56.91.78,1.96,1.21,2.09,1.85,1.2,5.58,2.2,11.19,3.34,16.78.35,1.71.96,3.38,1.46,5.06.89,2.98.13,4.36-2.93,5.37-1.99-6-1.92-12.66-6.16-19.19-.5,2.42-1.13,3.9-1.04,5.33.18,2.69.19,5.65,1.37,7.95,1.12,2.19,3.63,3.68,5.53,5.47.13.12.3.21.45.31,1.93,1.74,3.86,3.48,5.93,5.35,1.97-2.48,3.72-4.67,5.46-6.86,0,0-.16.15-.16.15ZM450.03,374.62c-.45.13-.9.26-1.35.38-1.66,2.28-3.84,4.37-4.77,6.92-.48,1.33,1.25,3.47,1.95,5.25.13.33.11.72.23,1.06.93,2.62,2.92,4.11,5.14,3.11,3.29-1.48,7.79-.89,9.58-5.26.29-.71,1.39-1.09,2.13-1.6,1.95-1.32,4.5-2.21,5.75-4.02,2.77-4.01,6.58-6.32,10.63-8.66,1.77-1.02,3.68-3.28,3.9-5.17.36-3.09-.61-6.34-1.02-9.58-1.03-.21-2.12-.69-3.13-.58-4.25.48-6.62-1.95-9.54-4.64-3.15-2.89-4.11-6.93-6.74-9.86-4.64,3.63-1.7,8.97-3.2,12.92-4.82,2.94-10.34,4.05-14.29,7.6,1.69,4.35,3.21,8.24,4.73,12.13ZM402.99,321.68c1.3,4.42,2.38,8.07,3.45,11.71.42-.1.84-.2,1.25-.3-.41-3.55-.81-7.11-1.25-10.88-1.01-.15-2.02-.31-3.46-.53ZM401.05,335.69c.2-4.87-.96-8.69-4.12-12.26,1.16,4.78.77,8.92,4.12,12.26Z"/><path class="cls-1" d="M318.19,626c.28-4.82.54-9.63.85-14.44.03-.52.19-1.18.54-1.5,3.38-3.17,2.42-6.39-.1-9.69,1.16-1.79,2.14-3.51,3.31-5.08,1.59-2.13,4.32-2.22,5.14.07.92,2.58,3,5.07,1.81,8.17-.13.33-.3.74-.21,1.05,1.97,6.85-.09,13.1-2.7,19.31-.29.68.4,1.71.3,2.54-.29,2.46-.71,4.9-1.14,7.34-.22,1.24-.93,2.49-.79,3.66.69,5.76-1.85,10.93-2.86,16.37-.25,1.35-1.38,2.53-2.52,4.5.23,1.4.63,3.69.99,6,.11.71.46,1.69.13,2.12-2.66,3.5-1.6,7.92-3.1,11.72-1.39,3.53-2.62,7.24-.03,10.61-1.8,1.83-3.08,3.38-4.62,4.59-.87.68-2.58,1.42-3.2,1.02-1.02-.64-1.97-2.17-2.05-3.38-.22-3.23.31-6.51-1.83-9.39-.35-.47-.17-1.4-.1-2.11.31-3.61.73-7.19,4.69-9.59-5.45-4.33-1.67-8.36.06-12.2,1.53-3.4,5.16-11.97,4.77-14.6-.27-1.86-1.45-3.6-2.33-5.35-1.79-3.57-3.65-7.12-5.5-10.67-.33-.63-.65-1.58-1.17-1.74-7.73-2.42-8.29-9.42-10.16-15.61-.22-.72-.76-1.36-1.22-1.99-1.36-1.81-3.74-3.51-3.92-5.42-.25-2.67-1.63-4.11-3.65-5.76,1.05-1.48,1.95-2.74,2.75-3.87,7.88,2.11,11.37,8.69,16.08,13.81.75.82.56,2.45,1,3.63,1.12,2.96,1.67,6.13,5.16,7.81,1.53.74,2.34,3.1,3.33,4.8.61,1.04.94,2.24,1.39,3.38.29-.03.59-.06.88-.1Z"/><path class="cls-1" d="M208.29,213.74c-.08-2.84.43-5,2.45-7.65,4.22-5.52,7.02-12.11,10.55-18.17,1.71-2.94,3.78-5.67,5.66-8.51,3.23-4.87,6.43-9.76,9.65-14.64,2.13-2.16,4.31-4.27,6.39-6.47,1.82-1.92,3.58-3.91,5.29-5.93,1.01-1.19,2.91-2.86,2.62-3.71-1.46-4.28,2.77-6.89,2.66-10.66.85.9,1.68,1.83,2.43,2.67.04-.86.09-1.88.16-3.29-1.11.31-1.91.53-2.7.75-.32-1.39-.76-2.76-.95-4.17-.26-1.94-1.05-4.2-.38-5.8,1.89-4.48.84-8.78.26-13.18-.21-1.6-.52-3.28-.24-4.82.18-1,1.35-1.82,2.08-2.72.62.9,1.6,1.73,1.8,2.71.97,4.88,1.82,9.79,2.55,14.71.59,3.98.95,7.99,1.54,13.11,3.02-3.91,5.1-7.26,7.84-9.94,2.76-2.7,6.17-4.73,9.38-7.11-.94-1.23-1.74-1.98-2.2-2.91-2.4-4.88-4.83-9.73-7.45-14.5-2.84-5.17-5.24-10.45-9.33-14.81-2.1-2.23-4.43-3.5-7.84-2.7-.72,3.75-2.79,6.84-2.49,11.17.31,4.38-1.28,9.11-2.92,13.34-1.22,3.13.8,5.78-.1,8.77-1.07,3.56-1.44,7.33-2,11.02-.49,3.22-2.66,6.3-.96,9.74-2.18,2.69-1.51,6.24-2.57,9.07-1.94,5.21-1.88,10.54-2.75,15.81-.81-.76-2.14-1.42-2.32-2.31-.39-1.9-.36-3.95-.2-5.91.36-4.42.9-8.83,1.35-13.24.07-.7-.2-1.53.07-2.11,3.26-7.02,2.7-14.74,4.13-22.09.17-.89.09-1.9.5-2.65,2.41-4.46,1.21-9.32,1.77-13.99.24-2.04,1.24-3.99,1.87-5.99,1.56-4.93,3.12-9.86,4.6-14.58,4.11-1.37,6.98.18,9.79,2.38,2.47,1.93,6.25,2.43,6.71,6.49.07.63.5,1.48,1.02,1.77,5.03,2.84,6.38,8.15,8.2,12.89,1.05,2.73,1.77,5.29,4.13,7.24.86.71,1.05,2.22,1.55,3.37,5.09-1.43,8.49-5.21,11.97-8.8,2.57-2.65,5.51-4.01,9.19-3.74,0,0-.06-.06-.06-.06-.43.89-.64,2.05-1.33,2.64-5.2,4.43-10.77,8.47-15.7,13.17-7.02,6.7-13.92,13.58-20.25,20.92-4.73,5.48-9.13,11.23-14.3,16.34-1.63,1.61-2.47,4.01-4.01,5.75-4.71,5.29-7.8,11.87-13.52,16.42-1.65,1.31-1.91,4.25-3.22,6.14-3.84,5.55-7.96,10.9-11.82,16.44-1,1.44-1.71,3.2-2.13,4.92-.87,3.6-3.38,5.73-6.21,7.66,0,0-.25-.26-.25-.26Z"/><path class="cls-1" d="M419.1,392.04c1.18,1.53.75,2.83-.87,3.51-3.31,1.37-6.72,2.5-10.05,3.83-1.12.45-2.15,1.17-3.15,1.86-1.76,1.2-3.37,2.68-5.24,3.65-2.41,1.26-4.32,2.53-5.63,5.27-1.06,2.22-3.82,3.63-5.58,5.17,1.68,6.91,8.14,6.77,12.58,10.98-.59-4.2-4.05-7.44.09-11.24.77,1.37,1.61,2.39,1.96,3.56,1.49,4.96,1.44,4.97,5.72,7.73,4.74-.64,8.67-2.32,9.85-7.88-1.83-1.45-4.01-2.97-3.05-6,4.35-1.04,5.18-.35,6.13,5.05,2.47-1.41,2.55-1.5,2.78-6.94.12-2.74.02-5.49.02-8.98,3.78,3.14,3.89,7.01,4.9,10.3.41,1.34-.98,3.37-1.84,4.93-1.86,3.38-3.27,7.23-7.92,7.96-1,.16-2.38.8-2.74,1.6-1.66,3.72-5.02,4.12-8.32,4.55-4.06.53-7.73-.74-11.49-2.34-5.43-2.31-9.05-6.7-12.71-10-2.75,2.15-5.2,4.08-7.69,5.97-.57.43-1.51.54-1.86,1.08-3.19,4.91-8.83,6.86-12.85,10.75-4.75,4.6-9.53,9.16-14.34,13.71-.75.71-1.65,1.3-2.54,1.83-4.76,2.83-9.01,6.19-12.8,10.32-3.62,3.94-7.95,7.23-11.97,10.79-1.86,1.64-3.77,3.23-5.61,4.9-.66.6-1.03,1.69-1.78,2.02-5.21,2.28-7.8,7.67-12.36,10.52-6.07,3.79-8.98,10.86-15.45,14.09-.95.48-1.7,1.4-2.68,1.77-5.19,2.02-8.19,6.54-12.01,10.16-2.97,2.82-6.2,5.4-9.55,7.75-3.87,2.72-7.73,5.29-10.32,9.46-1.48,2.38-3.68,4.16-7.54,3.39,3.31-5.45,7.28-9.49,11.74-13.33,5.38-4.63,11.65-7.99,16.69-13.21,5.14-5.33,11.74-9.21,17.32-14.15,2.71-2.4,5.8-4.33,7.92-7.71,1.81-2.9,5.66-4.52,8.61-6.71.99-.73,2.08-1.34,2.94-2.2,5.62-5.59,10.88-11.59,16.88-16.73,4.21-3.61,9-6.5,12.15-11.26.36-.55,1.17-.78,1.74-1.2,3.89-2.83,8.09-5.34,11.58-8.6,4.48-4.17,9.18-7.95,14.31-11.26.98-.63,1.68-1.76,2.35-2.77,1.28-1.93,2.22-4.19,5.13-4.05.32.02.84-.18.96-.42,2.36-5.02,8.44-5.93,11.4-10.43,1.43-2.18,3.72-4.12,6.06-5.3,3.01-1.52,4.92-3.97,7.2-6.19,4.24-4.13,8.92-7.81,13.16-11.95,3.81-3.72,8.17-6.65,12.39-9.81,3.17-2.38,5.53-5.85,8.27-8.81.73-.79,1.45-1.81,2.38-2.14,1.03-.36,2.29-.03,3.45,0-.08,1.15.3,2.75-.31,3.36-2.66,2.66-5.24,5.95-8.55,7.25-3.6,1.42-5.06,4.53-7.69,6.61-1.68,1.33-2.78,3.4-4.31,5.34.59.18,1.37.41,2.16.65l-.07-.06Z"/><path class="cls-1" d="M361.06,391.73c5.44.29,6.78-5.11,10.25-7.55,1.21-.85,2.43-1.77,3.59-2.65,2.74-2.08,4.84-5,7.19-7.58l-.18.17c2.1-1.13,4.45-1.97,6.25-3.46,5.68-4.7,10.98-9.86,16.76-14.44,3.8-3.01,8.16-5.31,12.24-7.91,2.28,3.3,2.1,3.9-.21,5.31-2.7,1.65-5.22,3.6-7.81,5.42-2.48,1.75-5.11,3.33-7.4,5.3-2.55,2.19-4.59,5-7.23,7.07-5.12,4.02-10.49,7.71-15.76,11.53-.29.21-.71.3-.9.57-5.57,7.9-14.32,12.26-21.09,18.87-4.9,4.79-11.25,8.06-16.81,12.21-2.35,1.76-4.23,4.14-6.48,6.06-5.58,4.79-11.17,9.57-16.9,14.17-4,3.21-8.29,6.07-12.38,9.18-1.85,1.41-3.67,2.91-5.22,4.63-2.54,2.81-4.91,5.53-8.59,7.18-2.56,1.14-4.6,3.64-6.6,5.78-2.07,2.22-4.08,4.2-6.93,5.66-3.28,1.67-6.02,4.46-8.85,6.93-4.22,3.67-8.31,7.48-12.46,11.24-.93.84-1.68,2.11-2.76,2.51-4.55,1.7-7.07,5.9-10.89,8.46-4.41,2.97-7.75,7.15-12.17,10.24-4.86,3.4-8.57,8.43-12.98,12.53-2.85,2.65-5.89,5.16-9.14,7.29-4.21,2.77-5.25,6.63-4.93,11.24.34,4.96-1.81,9.39-2.31,14.67-3.63-3.42-3.8-9.97-1.07-18.19-1.27-.55-2.59-1.11-4.56-1.96,1.36-1.58,2.16-3.09,3.41-3.84,3.22-1.94,5.92-4.32,8.71-6.85,2.96-2.69,6.16-5.33,9.18-8.08,2.07-1.88,3.88-4.07,6.07-5.79,4.46-3.5,9.16-6.68,13.61-10.19,1.51-1.19,2.39-3.16,3.86-4.42,2.37-2.02,5.13-3.6,7.48-5.64,2.26-1.97,3.92-4.7,6.34-6.39,4.67-3.26,8.38-7.62,13.38-10.59,3.86-2.28,6.73-6.22,10.1-9.36,1.18-1.1,2.41-2.29,3.84-2.98,5.55-2.67,9.63-7.08,13.88-11.31.49-.49,1.12-.83,1.65-1.28,2.54-2.15,5.1-4.29,7.6-6.48.68-.59,1.09-1.52,1.81-2.01,3.34-2.23,6.91-4.14,10.07-6.59,4.02-3.12,7.75-6.63,11.56-10.01,2.62-2.33,4.26-6.05,8.58-5.92.16,0,.43-.08.47-.19,1.53-4.64,6.37-5.56,9.49-8.4,4.25-3.88,8.84-7.4,13.19-11.17.92-.79,1.43-2.05,2.14-3.09,0,0-.12.12-.12.12Z"/><path class="cls-1" d="M350.31,633.51c-.24,9.54,6.65,13.05,12.84,17.36,1.12-.89,2.38-1.89,3.87-3.07,3.42,2.18,6.68,2.25,9.48-1.11.3-.36,1.08-.69,1.46-.55,4.31,1.54,7.17-1.33,10.36-3.26.56-.34,1.3-.37,1.97-.55,1.36,6.11.97,6.79-3.96,9.25-3.47,1.73-6.65,4.13-10.96,3.1-.84-.2-2.27.47-2.88,1.2-1.94,2.32-4.4,2.08-6.95,1.94-2.46-.14-4.93-.05-7.39-.25-1.05-.08-2.31-.36-3.05-1.02-5.96-5.36-12.21-10.53-13.23-19.34-.18-1.55-1.06-3.01-1.5-4.55-.34-1.15-.85-2.41-.68-3.53.61-3.9,1.33-7.79,2.31-11.61.85-3.31,1.98-6.56,3.28-9.72.4-.98,1.8-1.54,2.7-2.32,1.06-.92,2.82-1.76,2.99-2.84.57-3.65,3.23-4.43,6-5.41,1.13-.4,2.1-1.25,3.2-1.77.77-.36,1.91-.97,2.42-.68,3.99,2.38,8.57,1.77,12.81,2.82.51.13,1.04.3,1.45.61.84.62,2.75,9.13,2.27,10.13-.31.64-1.19,1.19-1.17,1.77.16,6.3-3.1,10.78-7.33,14.99-1.56,1.55-2.56,3.47-5.11,3.4-.33,0-.77.17-.98.42-3.82,4.31-8.35,6.66-14.25,4.59ZM353.57,625.94c.84-.14,1.54-.26,2.25-.38,3.27-.53,4.84-4.07,7.29-4.94,4.93-1.77,5.08-5.75,6.08-9.4.81-2.97-1.24-4.82-3.49-6.53-2.19-1.67-4.25-2.23-6.23-.07-2.65,2.88-5.21,5.86-7.6,8.96-3.33,4.32-2.48,8.36,1.7,12.35Z"/><path class="cls-1" d="M131.46,650.86c-.56.34-1.13.61-1.11.68,2.21,6.41-2.7,11.27-3.76,16.97-.43,2.29-2.11,4.18-4.99,4.29-.81.03-2.04.49-2.33,1.11-1.3,2.75-3.05,3.72-6.11,2.79-2.1-.64-4.22-.04-6.61-1.2-6.97-3.37-8.9-9.29-9.67-16.02-.36-3.13-.13-6.33-.16-9.5-.05-5.7,4.15-9.8,5.64-14.91,1.8-6.16,6.77-9.89,10.81-14.32,2.82-3.09,8.28-2.44,10.84,1.02,4.93,6.67,4.8,6.71,7.2,16.3.64,2.54,2.28,4.84,3.56,7.19,2.16,3.97,5.98,7.05,5.82,12.27-.05,1.55,1.48,3.18,2.36,4.72.89,1.56,2.18,2.96,2.75,4.62.62,1.79.24,4.02-1.81,4.49-1.21.28-3-.75-4.12-1.68-.88-.73-1.29-2.16-1.63-3.36-1.03-3.66-2.21-7.17-4.69-10.23-1.11-1.36-1.34-3.43-1.99-5.22ZM116.2,632.37c-6.66,1.96-7.06,1.88-7.64,4.62-1.32,6.3-5.12,11.93-3.79,19.07.65,3.51,1.53,6.8,2.74,10.07.82,2.22,2.4,3.94,4.87,3.44,2.13-.43,3.97-1.72,4.23-4.37.1-1.02.44-2.17,1.05-2.96,5.15-6.67,4.96-14.49,4.93-22.28,0-.61-.49-1.32-.93-1.81-1.78-1.97-3.63-3.86-5.46-5.79ZM118.59,628.37c-1.02-3.3-2.39-2.6-3.91-.6,1.3.2,2.61.4,3.91.6Z"/><path class="cls-1" d="M220.68,645.94c1.43,1.27,2.32,2.52,3.52,3.06,5.36,2.41,10.8,4.61,16.22,6.89.17.07.41.07.5.19,2.49,3.26,5.76,5.61,8.96,8.09.49.38.46,2.52.05,2.75-1.09.63-3.09,1.32-3.72.8-1.83-1.54-3.29-2.46-5.77-1.29-.74.35-2.36-.73-3.37-1.45-3.05-2.19-5.92-4.63-9.01-6.75-1.62-1.1-3.54-1.79-5.37-2.53-1.65-.66-3.38-1.14-5.34-1.78-3.74,4.15-6.38,8.69-5.66,14.66.22,1.79.06,3.63.04,5.44-.03,2.08-1.57,3.08-3.18,2.95-1.11-.09-2.72-1.33-3.04-2.38-1.79-5.83-3.47-11.69-1.65-17.94.46-1.58.27-3.69-.43-5.16-.77-1.61-.73-2.82-.5-4.52.53-4.1.51-8.27.64-12.41.02-.69-.07-1.54-.47-2.04-1.18-1.5-1.17-2.76-.11-4.4.61-.95.88-2.56.52-3.61-1.29-3.86-.8-7.72-.69-11.64.11-3.76-.55-7.55-.91-11.32-.07-.7-.69-1.68-.42-2.03.81-1.05,1.83-2.19,3.01-2.6.48-.17,2.08,1.29,2.33,2.23,1.42,5.47,2.86,10.97,3.74,16.54.54,3.44-.05,7.05.15,10.57.3,5.16,1.87,10.28.14,15.51-.18.55,1.09,1.59,2.04,2.88,1.78-2.09,3.35-3.77,4.72-5.6,3.56-4.75,6.97-9.6,10.58-14.31.69-.9,1.99-1.68,3.11-1.83,1.28-.17,3.03-.01,3.91.76,1.42,1.26.75,2.99-.36,4.39-4.55,5.74-9.09,11.49-14.16,17.88Z"/><path class="cls-1" d="M417.73,639.71c-3.18,1.14-5.33,2.2-5.87,5.18-.87,4.74-4.72,5.55-8.56,6-3.36.39-7.33-2.07-8.45-5.65-1.11-3.53-2.39-7.44-1.89-10.94.58-4.02-.8-8.82,3.11-12.14.48-.4.28-1.71.25-2.59-.06-1.57.17-2.83,1.92-3.45.56-.2.98-.98,1.31-1.57,3.44-6.09,8.06-7.88,14.6-5.76,1.13.37,2.46.22,3.69.2,3.38-.05,4.52.8,3.9,4-.37,1.9-.12,2.97,1.15,4.28.65.67,1,1.94.94,2.91-.23,3.63,1.07,6.69,3.08,9.56,3.04,4.35,4.04,9.41,4.81,14.48.32,2.13.4,4.09,1.75,6.03,1.23,1.77-.25,5.83-1.88,6.82-1.83,1.11-3.81.22-6.14-1.88-4.5-4.06-6.28-9.46-7.72-15.48ZM410.77,613.65c-6.52,3.01-7.94,8.72-8.92,13.38-1.03,4.93-3.95,10.93,1.14,15.61,1.57-1.16,3.43-2.04,4.56-3.48,1.93-2.45,3.4-5.26,5.66-8.88-.65-4.44-1.49-10.15-2.43-16.63Z"/><path class="cls-1" d="M511.58,712.07c3.24-4.8,6.48-9.6,9.77-14.47-.49-1.18-1.16-2.31-1.39-3.52-.17-.93.22-1.96.35-2.95,1.11.23,2.4.17,3.31.73,2.95,1.8,2.86,5.25,3.67,8.04,1.12,3.88,1.45,7.99,2.14,12.14,2.8,1.11,5.47,1.6,8.77.86,2.45-.55,6.37-1.85,7.91,2.71-1.35,6.23-8.28,6.5-12.37,10.69,1.69,1.87,3.34,3.7,4.96,5.5-2.4,3.94-5.38,5.1-9.28,4.07-4.01-1.06-5.72-4.75-8.6-7.33-3.75,3.25-7.22,6.52-10.97,9.44-2.81,2.19-5.1,1.73-6.18-1.06-.43-1.13-.38-3.11.34-3.89,1.71-1.85,3.64-3.26,3.94-6.15.1-.97,1.95-1.77,3.3-2.89-2.56-2.45-5.77-2.02-8.51-2.87-3.35-1.05-6.68-2.28-8.91-5.1-.71-.89-.92-3.02-.34-3.89.76-1.13,2.51-2.1,3.9-2.19,3.12-.2,6.3.02,9.41.39,1.54.18,2.99,1.07,4.76,1.74ZM513.27,728.47c1.99-1.27,3.92-2.97,6.17-3.81,2.39-.89,5.35.21,7.37-2.51.58-.78,2.81-.1,3.98-.69,2.47-1.24,4.73-2.88,7.74-4.77-2.13,0-4.08-.47-5.65.1-3.41,1.24-6.3.44-9.68-1.26v-11.21c-4.39,5.44-8.33,10.32-12.42,15.38,1.29,1.08,2.75,2.31,3.9,3.27.44,2.46-3.82,2.79-1.42,5.5Z"/><path class="cls-1" d="M517.74,51.68c2.85,4.67,5.61,9.2,8.75,14.34-5.22,2.16-9.64,3.72-14.53,1.51-3.08-1.4-6.15-2.83-9.12-4.2-7.09,5.82-13.35,12.93-24.14,10.2,1.35-6.91,6.11-12.55,4.22-19.8-6.38-1.04-12.88-2.09-19.76-3.21.25-1.55.05-2.95.63-3.44,2.07-1.75,4.25-3.5,6.66-4.68,3.85-1.89,7.89-3.43,11.91-4.93,2.08-.77,2.83-1.89,3.38-4.18.98-4.04,3.05-7.61,2.34-12.21-.45-2.85,1.87-5.54,5.05-7.02,1.56,3.23,3.38,6.09,4.33,9.21,1.12,3.7,3.47,6.29,6.32,8.44,1.63,1.22,3.81,2.11,5.83,2.33,3,.34,6.1.14,9.12-.16,4.12-.4,6.86,2.02,9.44,4.5.67.64.72,3.1.07,3.76-3.19,3.25-6.71,6.17-10.5,9.55ZM511.95,50.59c4.41-3.25,8.34-6.15,12.54-9.25-.84-1.07-1.26-2.18-1.87-2.3-3.45-.69-6.73-2.15-10.51-1.09-4.97,1.39-13.41-3.25-15.59-8.03-1-2.19-2.14-4.31-3.24-6.48-.51.37-.97.53-1,.75-.18,1.4-.34,2.82-.38,4.23-.19,5.9-5.48,12.43-11.12,14.26-3.37,1.1-6.54,2.83-9.8,4.28,1.59,1.12,2.97,1.5,4.37,1.67,2.64.33,5.36.26,7.93.86,4.67,1.1,7.51,8.12,4.29,11.62-2.86,3.1-2.62,6.4-3.29,11.05,4.21-2.9,8.35-4.65,10.73-7.75,2.04-2.66,4.35-4.03,6.86-5.46,6.94,4.44,13.52,5.91,18.18,4.29-1.41-4.88-5.3-8.31-8.12-12.68Z"/><path class="cls-1" d="M495.03,282.43c.33-1.92.94-3.85.93-5.77-.01-5.14,3.04-7.68,7.34-9.27,1.84-.68,3.58-2.98,5.71-.77.64.66,1,1.85.98,2.78,0,.38-1.46,1.12-2.14,1.01-3.21-.53-5.41.14-5.57,3.93,4.99.82,7.26,4.87,9.32,8.69,1.22,2.28,2.09,3.91,4.95,4.09,1.21.07,2.34,1.39,3.78,2.33-1.23,1.78-2.19,3.17-3.17,4.59,3.79,1.99,4.26,1.91,5.83-.48.96-1.47,2.09-2.83,3.43-4.61-1.53-7.05-5.71-12.73-11.91-17.6,1.3-.96,2.5-1.85,3.91-2.89,3.3,3.64,8.01,5.69,8.38,11.14l3.17,13.63c-.08,1.86-.7,2.79-2.58,4-3.5,2.27-7.2,3.48-11.02,4.76-1.27.43-2.1,2.17-3.28,3.47-3.88.07-6.59-4.55-11.19-3.13-.58,4.9-3.75,7.32-8.8,7.82,1.36,4.51,2.73,8.72,3.9,12.99.76,2.79-.32,4.72-3.56,5.86,0-1.41.02-2.4,0-3.39-.04-1.2.04-2.43-.22-3.58-.47-2.05-.91-4.17-1.8-6.06-.9-1.91-2.44-3.5-3.49-5.34-.79-1.38-1.26-2.95-2.14-5.06-2.87-.58-6.17-1.29-9.49-1.86-.64-.11-1.53.1-2.04.5-3.93,3.01-9.04,4.56-11.5,9.41-.47.93-1.29,1.97-2.2,2.3-1.01.38-2.3.02-3.46-.02.31-1.04.45-2.19.98-3.11.62-1.06,1.87-1.78,2.35-2.87,2.79-6.34,8-8.33,14.43-8.85,2.3-.19,4.48-1.71,7.62-2.98,2.36,2.34,5.28,5.22,8.65,8.55,2.4-1.58,5.21-3.11,7.63-5.11,3.49-2.89,7.14-4.02,11.51-2.49.45.16,1.03-.08,1-.08.73-2.58,1.37-4.85,2.12-7.51-3.38-.9-5.47-3.06-6.23-6.83-.35-1.73-2.28-3.13-3.68-4.93-.99.64-2.29.99-2.64,1.77-1.67,3.68-3.77,2.38-5.99.77,0,0,.19.19.19.19Z"/><path class="cls-1" d="M366.01,513.65c-5.59-2.15-10.84-5.1-12.71-10.8-1.78-5.45-1.88-11.3.84-16.77-1.27-3.04-3.49-4.87-6.65-5.92-2.75-.92-5.32-2.36-8.54-3.83,6.78-3.03,11.09,2.28,16.71,3.43.62,4.78,2.64,9.49.3,14.64-1.48,3.26,1.36,10.23,4.4,12.29,1.64,1.11,3.12,2.52,4.87,3.38,2.36,1.16,4.93,1.87,7.37,2.87,1.23.51,2.37,1.24,3.72,1.96-1.71,2.94-4.42,2.41-6.47,3.2-2.68,1.04-5.52,1.62-8.25,2.53-4.46,1.48-9.2,1.56-13.22-.24-2.58-1.16-4.35-4.55-5.98-7.25-2.31-3.82-4.2-7.89-6.18-11.9-.62-1.26-.85-2.7-1.39-3.99-.64-1.53-1.43-2.99-2.59-5.37-2.09,2.74-4.05,4.35-4.76,6.4-2.08,6.04-7.05,9.83-10.71,14.63-.79,1.03-2.46,1.38-3.72,2.05-5.59,2.99-11.1,6.14-16.8,8.89-2.49,1.2-5.65,1.07-8.03,2.39-10.55,5.86-17.82,14.77-22.55,25.77-.87,2.01-.81,4.41-1.52,6.51-.32.95-1.48,2.31-2.25,2.3-1.85-.03-2.38-1.8-1.8-3.21,2.24-5.48,1.5-12,7.21-16.37,3.76-2.88,5.92-7.76,9.18-11.4,2.95-3.29,6.21-5.84,11.15-6.67,5.11-.86,9.82-3.78,14.27-6.79,2.57-1.74,5.79-2.48,8.43-4.15,2.97-1.87,5.89-4.01,8.31-6.53,2.27-2.35,4.74-4.63,4.85-8.63.13-4.71,4.4-6.23,8.07-7.61.9-.34,2.91.68,3.58,1.65,1.91,2.79,3.5,5.82,5.03,8.85,2.35,4.68,4.47,9.47,6.83,14.15,1.54,3.04,4.47,3.64,7.44,3.15,3.68-.61,7.29-1.69,10.93-2.56.21-.35.41-.7.62-1.05Z"/><path class="cls-1" d="M183.82,638.23c-.41,2.24-1.55,3.36-3.81,2.4-1.14-.49-2.22-1.2-3.19-1.99-5.04-4.06-8.99-3.42-12.64,2.13-.1.15-.15.37-.28.45-6.53,3.76-6.85,10.03-6.57,16.47.09,2.14.15,4.5,1.1,6.31,1.11,2.13,1.79,4.19,2.03,6.55.15,1.57.46,3.19,2.57,3.71.8.2,1.43,1.32,2.01,2.11,4.13,5.6,10.62,6.77,16.43,2.91,1.51-1,2.98-2.04,4.54-2.95,2.06-1.2,3.95-.43,5.47.99,1.7,1.6,1.44,3.56.4,5.49-3.04,5.61-8.78,8.07-15.53,6.19-4.87-1.36-9.61-3.17-14.36-4.92-.92-.34-1.86-1.17-2.35-2.02-1.97-3.43-4.04-6.84-5.55-10.48-2.43-5.86-3.34-12.07-2.88-18.44.09-1.25.44-2.59.14-3.75-1.47-5.77,1.63-9.61,5.25-13.34,1.57-1.62,2.79-3.61,4.42-5.17.81-.78,2.19-1.34,3.32-1.35,3.76-.02,7.55.01,11.26.53,1.41.2,2.8,1.6,3.89,2.75,1.6,1.67,2.91,3.61,4.34,5.43Z"/><path class="cls-1" d="M228.34,452.06c-2.15-9.13-5.02-18.11-12.13-25.69.68-4.72,2.11-8.98,7.51-11.02,1.71-.64,2.97-2.49,5.16-4.43.74,1.88,1.76,3.22,1.65,4.45-.36,4.2.94,7.31,4.56,9.63,5.07,3.25,9.06,7.94,11.57,13.1,2.02,4.17,4.79,9.34,1.89,14.29-2.66,4.56-5.9,8.72-11.39,10.62-3.88,1.34-7.81,3.11-9.8,7.43-1.28-4.02.18-7.3,3.94-9.17,2.08-1.04,4.26-1.89,6.31-2.99,1.19-.64,2.45-1.43,3.25-2.48,1.89-2.47,4.44-4.4,4.06-8.36-.52-5.42-2-10.15-5.85-14.03-.75-.76-1.62-1.41-2.44-2.1-4.69-3.91-9.5-7.72-10.8-15.14-.84,1.34-1.11,1.91-1.5,2.37-4.04,4.83-3.93,4.75-.62,9.87,4.05,6.27,5.7,13.47,7.33,20.62,1.17,5.16-3.19,7.5-6.44,8.75-5.95,2.29-10.15,6.68-15.1,10.18-.73.52-1.26,1.52-2.04,1.72-.91.24-2.26.16-2.89-.38-.42-.37-.29-2.22.23-2.68,2.69-2.35,5.49-4.59,8.44-6.61,2.94-2.01,6.05-3.77,9.16-5.5,1.53-.85,3.25-1.37,5.95-2.48Z"/><path class="cls-1" d="M80.35,211.82c4.23,0,7.79-.36,11.22.14,1.91.28,3.61,1.99,5.37,3.13.42.27.56,1.04.98,1.21,10.34,4.25,14.72,11.14,14.43,22.12-.14,5.22.1,10.31-2.97,15.05-2.63,4.06-6,7.13-10.03,9.54-1.11.66-2.74.72-4.1.64-3.2-.19-6.39-.63-8.56-.86-2.61-2.57-4.68-4.44-6.54-6.5-1.14-1.26-2.29-2.69-2.87-4.26-1.12-3.02-1.73-6.22-2.74-9.28-2.27-6.89-1.11-13.58,1.07-20.19.43-1.32,1.36-2.65,2.43-3.54,2.19-1.83,2.88-4.05,2.32-7.2ZM87.74,214.89c-.75.59-1.73,1.75-2.97,2.26-2.99,1.24-4.27,3.58-5.14,6.49-2.93,9.91-1.42,19.56,2.48,28.7,2,4.68,6.9,7.84,11.99,7.18,4.8-.63,9.53-3.29,12.17-7.92,3.94-6.9,1.89-14.12.55-21.23-.12-.61-.92-1.07-1.31-1.67-2.07-3.18-4.3-6.23-7.03-8.88-.81-.78-1.74-1.56-2.76-1.98-2.61-1.09-5.31-1.98-7.99-2.95Z"/><path class="cls-1" d="M42.82,304.67c.81-2.75,2.2-4.27,5.51-4.33,3.08-.06,6.14-1.31,9.22-1.96,1.04-.22,2.16-.36,3.19-.21.52.08,1.39,1.02,1.3,1.36-.19.74-1.13,2-1.35,1.92-4.19-1.53-6.52,2.45-9.89,3.31-.94.24-2.38,1.9-2.21,2.59.92,3.87.09,8.26,2.78,11.56,1.15,1.42,3.05,2.38,4.79,3.15,1.42.63,3.12.61,4.67.96,2.35.53,4.55,1.31,5.57,4.14-1.69,1.44-3.44,1.26-5.37.39-1.14-.51-2.48-1.21-3.59-1.01-1.42.25-3.33.96-3.94,2.08-2.24,4.09-4.42,8.3-5.88,12.71-1.97,5.99-3.62,12.15-2.24,17.88-3.88,3.45-7.26,6.45-11.14,9.9,4.07,2.4,7.56,2.08,11.17,1.06,3.58-1.01,7.19-1.9,11.15-2.94-.67-2.72-1.3-5.63,2.41-7.76.53,1.02,1.54,2.06,1.44,2.96-.29,2.48-.78,5.02-1.77,7.29-.45,1.03-2.2,1.9-3.47,2.11-6.54,1.08-13.15,1.78-19.68,2.89-2.84.48-4.92-.31-6.77-2.19.03-.48-.07-1.06.1-1.15,4.44-2.34,5.39-8.09,10.07-10.26.81-.37,1.56-1.61,1.71-2.55.84-5.31,1.28-10.69,2.29-15.97.46-2.42,1.9-4.64,2.87-6.97,1.03-2.47,2.06-4.95,3.05-7.44,1.02-2.57.33-4.9-1-7.17-1.99-3.39-2.86-7.07-3.16-10.99-.14-1.87-1.23-3.66-1.89-5.49l.08.12Z"/><path class="cls-1" d="M528.12,626.37c-1.85-1.53-2.57-3.6-1.53-5.75,1.33-2.73.53-5.25.12-7.93-.32-2.09-.72-4.46-.05-6.34,1.22-3.43.48-6.84.91-10.17.51-4-1.86-8.36,1.89-12.2,1.44-1.48,1.83-5.06,1.21-7.26-1.37-4.81,1.61-7.85,3.5-11.74-1.54-1.84-3.21-3.83-1.02-6.54.55-.68.15-2.08.27-3.14.18-1.6.29-3.23.7-4.78.45-1.68.7-3.96,3.17-3.69,2.21.24,2.6,2.06,2.73,4.06.09,1.41.98,2.76,1.09,4.16.09,1.14-.2,2.47-.76,3.46-2.03,3.54-3.7,7.12-2.76,11.35.52,2.36.95,4.58-1.18,6.56-.57.53-.49,1.99-.38,2.98.43,3.77,1.14,7.49-.58,11.19-.36.77.08,2.05.45,2.98,1.08,2.74.88,5.04-2.08,6.32-2.38,1.03-2.36,2.52-1.03,4.28,2.03,2.69,1.57,5.7.34,8.23-1.12,2.29-1.44,4.08-.6,6.52,1.3,3.77-.22,6.06-4.41,7.45Z"/><path class="cls-1" d="M153.44,92.42c-3.46-2.77-3.65-4-.7-6.12,2.01-1.45,4.28-2.53,6.78-3.97-.5-2.7.93-4.6,2.96-6.64,3.14-3.15,5.77-6.84,8.44-10.43,2.51-3.37,4.52-6.95,8.12-9.62,2.85-2.11,4.47-5.84,6.75-8.75,1.06-1.35,2.29-2.66,3.67-3.67,3.58-2.6,5.45-7.02,9.67-8.96.38-.17.26-1.33.48-1.99.34-1,.52-2.29,1.24-2.9,4.27-3.59,7.81-8.04,13.16-10.38,2.88-1.26,5.18-3.79,7.99-5.27,3.53-1.86,6.56-5.22,11.6-4.53-.22,1.14-.07,2.6-.63,2.97-2.76,1.79-4.63,5.45-8.79,4.49-.17-.04-.42-.08-.54,0-3.19,2.27-6.42,4.49-9.53,6.87-1.4,1.07-2.76,2.31-3.8,3.72-3.74,5.06-9.98,7.42-13.49,12.74-3.04,4.62-6.32,9.08-9.54,13.58-.63.88-1.33,1.77-2.18,2.41-5.06,3.76-7.97,9.21-11.41,14.25-.4.58-.5,1.49-1.02,1.86-4.19,2.95-6.44,7.62-10,11.1-1.89,1.85-3.16,4.26-6.11,5.15-1.33.4-2.09,2.66-3.13,4.09Z"/><path class="cls-1" d="M181.33,228.92c.8,1.97,1.72,3.89,2.36,5.91,1.07,3.35,1.96,6.75,3.01,10.41,1.61-.35,2.77-.59,4.44-.95-.68-3.47-1.51-6.68-1.89-9.93-.52-4.47-.69-8.97-1.02-13.46-.17-2.36.91-3.33,3.67-3,.46,5.41.81,10.86,1.42,16.28.37,3.32,1.09,6.6,1.76,9.88.94,4.62,1.2,9.41,4.25,13.46,1.49,1.98.38,4.43-2.27,5.86-.81-2.56-1.47-5.13-2.44-7.57-.91-2.28-2.16-4.43-3.45-7.02-1.25.34-2.53.69-4.29,1.17,1.3,4.69,2.57,8.94,3.61,13.24.34,1.39.05,2.94.05,4.41-.43.1-.86.21-1.3.31-1.37-2.73-2.93-5.38-4.05-8.2-.88-2.22-1.23-4.64-1.8-6.98-.47-1.92-1.37-3.46-3.62-3.14-1.95.28-2.41,2.57-1.61,5.21.49,1.61.69,3.45.43,5.1-.13.8-1.6,1.4-3.07,2.56-.32-2.24-.53-3.61-.7-4.99-.5-3.9-1.41-4.55-5.3-3.84-4.66.85-9.53.76-13.87,3.14-.36.2-1-.11-1.64-.21-.83-2.46.15-4.49,2.39-4.42,5.49.16,9.83-3.73,15-3.4.7-2.71,1.29-5.03,1.89-7.35.48-.04.95-.08,1.43-.12.72,1.77,1.44,3.55,2.3,5.66,4.32.84,4.89.3,4.4-4.59-.39-3.85-.71-7.72-.93-11.58-.04-.62.6-1.28.94-1.93,0,0-.11.09-.11.09Z"/><path class="cls-1" d="M266.06,8.95c-4.86-.44-8.71-.67-12.52-1.16-5.05-.65-9.61,1.29-14.28,2.52-1.71.45-3.13.94-4.3-.79.53-2.75,2.6-3.58,4.98-4.04,8.06-1.56,16.11-3.5,24.39-1.46,4.17,1.03,8.35,2.01,12.49,3.14,1.01.27,2.01.88,2.8,1.58.43.38.77,1.52.52,1.87-.43.6-1.44,1.29-2.04,1.17-2.45-.5-4.83-1.29-7.11-1.94-2.27,1.33-2.93,3.23-3.11,5.53-.37,4.68-.63,9.15,2.32,13.4,6.15,8.85,14.65,11.5,24.84,10.33.86-.1,1.87-.73,2.51-.45.86.38,1.85,1.36,1.96,2.2.08.59-1.13,1.86-1.89,1.97-3.88.57-7.79,1.68-11.68-.3-1.23-.63-2.76-.9-4.15-.9-6.29,0-10.49-3.79-14.42-7.94-.78-.82-.87-2.32-1.2-3.53-.39-1.39-.24-3.28-1.11-4.13-3.85-3.75-.45-8.23-1.47-12.24-.25-1,1.19-2.42,2.48-4.82Z"/><path class="cls-1" d="M63.93,100.52c3.55-3.18,6.03-6.59,9.35-7.99,2.75-1.16,6.23-1.33,9.88-.47,5.51,1.3,7.63,5.79,10.81,9.05,3.93,4.02,4.04,17.44.44,21.95-2.36,2.96-5.73,5.41-9.12,7.17-7.28,3.78-8,3.71-15.48.25-2.34-1.08-4.25-3.21-6.2-5.03-4.68-4.36-7.01-13.19-4.98-20.03,1.02.87,1.84,1.49,2.56,2.21.19.19.14.71.07,1.06-1.1,5.95,2.56,10.3,5.71,14.33,2.27,2.91,5.2,6.52,10.21,5.12,1.14-.32,2.5.12,3.52.2,1.77-1.36,3.21-2.78,4.92-3.73,4.14-2.29,6.38-5.46,6.75-10.35.18-2.41,1.81-4.85.11-7.14-2.51-3.39-2.97-7.94-7.32-10.41-4.57-2.6-8.47-1.28-12.1.71-2.03,1.11-3.87,2.57-5.9,3.67-.53.28-1.48-.23-3.23-.58Z"/><path class="cls-1" d="M241.21,367.58c-.55.43-1.09.89-1.67,1.3-.43.31-.91.55-1.52.91-4.23-1.44-2.83-8.94-9.93-7.85-.77.39-2.57,1.53-4.54,2.18-.6.2-1.82-.8-2.37-1.54-.2-.26.57-1.75,1.18-2.03,1.61-.71,3.38-1.06,5.5-1.68,1.06-5.49-5.25-6.86-6.55-11.05-1.46.63-2.7,1.13-3.91,1.69-2.12.98-4.36,1.79-6.32,3.03-2.75,1.74-2.66,1.88-7.06.87.27-4.14,4.22-3.88,6.56-5.22,2.62-1.5,5.67-2.25,8.6-3.35.74-2.63-2.62-5.59,1.02-8.33,1.33,2.03,2.56,3.92,4.16,6.36,1.84-.82,3.72-1.66,5.69-2.54-.33-2.29-.62-4.24-1.04-7.18,1.75.91,2.83,1.09,3.15,1.69,1.94,3.64,3.69,7.37,5.53,11.06.39.78.83,1.54,1.32,2.25,2.52,3.66,5.11,7.28,7.55,10.99.31.47-.08,1.4-.14,2.12,0,0,.21-.22.21-.22-2.01-1.19-4.02-2.38-6.61-3.91-1.13.29-3.11.81-5.69,1.48,2.34,3.17,4.54,6.16,6.75,9.14,0,0,.13-.15.13-.15ZM237.3,352.73c-.42-5.32-3.85-8.57-7.75-8.63-2.25-.04-3.43,1.49-2.6,3.58.84,2.1,1.65,4.39,3.11,6.02,1,1.12,3.18,1.82,4.7,1.63,1.12-.14,2.03-2.01,2.55-2.59Z"/><path class="cls-1" d="M141.69,518.91c-2.43,1.12-3.61.09-4.46-1.43-.96-1.71-2.13-3.42-2.58-5.28-1.68-6.98-3.74-13.96-4.46-21.06-.79-7.87,1.79-14.62,9.47-18.81,2.34-1.28,4.43-3.03,7.12-3.38,4.84-.62,9.68-1.28,14.38,1.03,1.86.92,4.03,1.19,6.03,1.82,1.86.58,3.67,1.39,5.57,1.82,2.39.54,4.86.7,7.25,1.23,1.62.36,3.16,1.06,4.61,2.66-1.06.46-2.23,1.46-3.17,1.28-4.73-.95-9.74-.89-14-3.81-1.02-.7-2.62-.6-3.97-.81-1.56-.24-3.21-.17-4.67-.68-5.59-1.96-11.26-1.09-16.11,1.28-3.84,1.87-6.97,5.97-7.66,10.51-.54,3.63.35,7.47.63,11.22.01.16.27.33.24.47-1.35,7.66,3.21,13.62,5.75,20.16.18.46.02,1.05.02,1.79Z"/><path class="cls-1" d="M439.09,229.04c2.82,3.71,3.6,6.47,3.03,9.97-.54,3.34-.12,6.85-.03,10.28.08,3.17.4,6.33.38,9.5,0,1.31-.6,2.62-.97,3.93-.29,1.03-1.03,2.1-.88,3.04.73,4.53-1.69,7.84-3.88,11.32-1.05,1.68-1.76,3.57-2.68,5.33-.49.94-.91,2.35-1.7,2.64-4.79,1.79-4.36,6.82-6.59,10.25,2.06-1.09,4.12-2.18,6.88-3.64.36,7.43-6.25,6.72-8.55,10.29-2.14-2.02-3.76-3.54-5.33-5.02,3.66-5.78,7.11-11.32,10.64-16.8,2.15-3.34,4.25-6.64,5.97-10.29,1.89-3.99,1.24-8.07,2.1-12.04.63-2.91.09-6.06.13-9.1,0-.7,0-1.61.41-2.08,2.14-2.46,1.59-5.02.52-7.65-1.22-3.01-.41-5.86.53-9.94Z"/><path class="cls-1" d="M426.54,362.8c-5.33,2.42-8.46,7.1-12.1,11.27-1.19,1.36-2.46,2.67-3.84,3.82-5.79,4.79-11.64,9.5-17.45,14.25-.41.34-.78.75-1.11,1.17-4.32,5.56-9.81,9.53-16.12,12.62-2.12,1.04-3.58,3.4-5.43,5.06-2.07,1.86-5.24,2.1-6.69,5.09-.63,1.31-2.51.94-3.96-1.1,7.41-5.85,14.77-11.69,22.15-17.49,3.2-2.52,6.53-4.66,9.13-8.12,2.53-3.36,6.91-5.24,10.11-8.18,4.19-3.85,7.98-8.13,12-12.17,2.65-2.67,5.24-5.45,8.18-7.78,1.64-1.3,3.77-1.12,5.14,1.57Z"/><path class="cls-1" d="M48.1,418.26c4.39,6.96,10.82,9.69,17.42,13.14-.82,1.9-1.22,3.93-2.38,5.31-3.64,4.35-7.56,8.24-13.58,9.53-3.04.65-5.8,2.71-8.64,4.21-1.43.76-2.8,2.12-4.31.39-1.36-1.55-.2-2.91.5-4.43,2.67-5.84,5.28-11.7,7.61-17.68.89-2.29.89-4.91,1.49-7.34.23-.93,1.01-1.72,1.89-3.14ZM42.87,445.32c.37.18.73.35,1.1.53,1.75-1.37,3.36-3,5.28-4.05,2.16-1.18,4.73-1.63,6.89-2.82,1.63-.9,2.89-2.48,4.53-3.95-2.24-4.89-8.23-4.65-10.44-8.67-2.11.41-2.92,1.07-3.15,3.22-.38,3.59-.37,7.39-3.36,10.41-1.03,1.04-.61,3.51-.85,5.33Z"/><path class="cls-1" d="M231.11,374.78c-1.8.78-3.01,1.52-4.31,1.82-4.28.99-8.29,3.08-12.93,2.73-2.06-.15-4.18.9-6.29,1.07-9.01.71-18.07.23-27.04.7-5.8.31-11.24-1.33-16.91-.97-2.55.16-3.58-1.34-4.25-4.65,1.08,0,2.17-.26,3.08.04,6.45,2.17,13,2.33,19.75,1.88,5.89-.4,11.84.22,17.76.26,1.75.01,3.5-.37,5.25-.64,6.23-.97,12.43-2.15,18.69-2.87,2.06-.24,4.23-2.64,7.21.65Z"/><path class="cls-1" d="M308.12,156.84c-1.72-2.65-3.59-4.73-2.91-8.55.61-3.46-.53-7.33.03-11.11.81-5.38,2.07-10.89,1.6-16.21-.42-4.79,1.99-8.59,2.35-12.96.26-3.19,1.99-4.83,5.71-5.05.06,1.33.71,3.13.09,3.91-3.6,4.45-2.18,9.92-3.4,14.82-.52,2.06-.73,4.19-1.13,6.28-.1.52-.63,1.06-.55,1.51.89,4.68-1.19,9.48-.38,13.79.92,4.87-1,8.97-1.41,13.57Z"/><path class="cls-1" d="M165.9,166.98c-.97-2.02-.46-3.46,1.6-4.42,2.93-1.36,5.72-3.28,8.79-4.04,3.53-.88,7.36-1.28,10.96-.91,2.43.25,4.56,2.71,7.03,3.27,3.84.87,6.09,3.28,8.06,6.28,1.93,2.94,4.45,5.69,5.57,8.92,1.25,3.62,1.3,7.68,1.64,11.57.04.43-1.46,1-2.94,1.96-.87-3.74-1.75-6.78-2.27-9.88-.63-3.73-1.89-7.12-4.08-10.23-1.09-1.53-1.98-2.71-4.17-2.9-1.3-.11-2.62-1.6-3.66-2.73-1.47-1.6-2.88-2.31-5.22-1.94-3.64.56-7.41.27-11.05.82-1.95.3-4.11,1.22-5.51,2.56-1.54,1.47-2.99,1.81-4.86,1.56l.12.11Z"/><path class="cls-1" d="M382.1,373.94c-6.57,1.39-13.11,2.89-19.71,4.13-6.27,1.18-12.59,2.13-18.9,3.07-6.45.96-12.84.38-19.14-1.19-.79-.2-1.48-.78-2.65-1.43.82-.9,1.25-1.76,1.92-2.01.79-.3,1.83-.3,2.66-.07,6.11,1.7,12.44.68,18.64,1.49,2.65.35,5.54-.85,8.28-1.52,5.51-1.35,10.98-2.89,16.5-4.23,3.78-.91,7.61-1.62,11.72-2.48.22,2,.36,3.2.5,4.39,0,0,.18-.17.18-.17Z"/><path class="cls-1" d="M320.51,106.78c.49.65,1.48,1.38,1.43,2.02-.37,4.55-.91,9.09-1.49,13.63-.13,1.02-1.15,2.19-.87,2.96,2.5,6.81.38,13.57.09,20.35-.09,2.07.11,4.21.53,6.24.47,2.27-.3,3.75-2.09,5.24-3.6-2.66-2.01-6.58-2.92-9.7-.31-1.07.63-2.46.49-3.64-.52-4.48-.37-8.84.32-13.35.78-5.12-.31-10.42.62-15.61.15-.87-.25-1.83-.09-2.7.43-2.31.9-4.68,3.99-5.43Z"/><path class="cls-1" d="M358.79,472.79c-3.98.77-6.91,1.34-9.85,1.91-.34-.89-.82-1.55-.66-1.84,2.76-4.95,11.58-5.79,15.04-1.44.9,1.13,1.58,2.41,2.41,3.6,1.82,2.63,4.24,3.09,6.89,1.26,3.82-2.64,6.81-5.88,7.42-10.63-2.61-1.45-5.19-2.89-7.71-4.3q1.86-4.55,5.88-5.79c-.53,1.7-.96,3.08-1.48,4.74,2.91.51,5.77,1.01,8.57,1.5-1.5,4.12-2.15,8.17-4.28,11.18-2.41,3.4-5.88,6.3-9.43,8.55-1.87,1.18-4.39-.58-6.14-2.4-2.22-2.3-4.63-4.43-6.65-6.34Z"/><path class="cls-1" d="M87.64,298.17c.3,2.15.96,3.9.7,5.49-.86,5.3-1.92,10.58-3.15,15.82-1.22,5.22-2.74,10.37-4.08,15.57-.22.86-.15,1.8-.32,2.67-.85,4.31-1.63,8.65-2.7,12.91-.26,1.04-1.51,1.83-2.89,3.4-.67-1.67-1.58-2.78-1.4-3.66.76-3.69,1.94-7.28,2.77-10.96.7-3.12,1.1-6.31,1.7-9.46.64-3.34.92-6.83,2.16-9.95,1.95-4.92,3.07-9.88,3.28-15.15.09-2.35-.44-5.25,3.93-6.69Z"/><path class="cls-1" d="M147,525.82c2.79-.15,5.14-.15,7.52,1.81,4.35,3.58,9.28,6.46,13.92,9.71,2.25,1.58,4.26,3.28,3.77,6.63-.19,1.31.5,2.79.95,4.13,1.05,3.14.03,5.64-2.21,7.82-.89.87-1.76,1.8-2.77,2.5-2.25,1.56-3.23,3.25-1.59,5.93.41.68-.17,1.96-.44,4.12-1.24-1.59-1.71-2.08-2.05-2.64-3.72-6.21-3.66-6.14,2.33-10.65,1.14-.86,2.21-2.49,2.36-3.87.38-3.49,1.02-7.22-2.42-9.89-.48-.37-.53-1.3-.68-1.7-7.37-3.26-13.54-7.76-18.67-13.91Z"/><path class="cls-1" d="M29.68,522.67c1,.86,1.52,1.31,2.04,1.77,4.36,3.86,4.71,5.07,2.59,10.45-.35.89-1.3,1.62-2.13,2.22-.69.51-1.93.49-2.36,1.1-1.47,2.08-3.06,2.95-5.83,2.99-3.71.05-6.57-1.78-9.68-3.03-1.49-.6-2.23-5.66-1.19-7.66.96-1.85,2.02-3.53,4.82-3.58,4.1-.07,8.15-1.01,11.74-4.27ZM17.14,533.87c2.16,1.8,3.76,3.13,5.66,4.71,2.19-1.49,4.76-2.45,5.99-4.29,1.25-1.87,3.58-4.38.81-7.29-3.83,2.11-7.64,4.21-12.46,6.86Z"/><path class="cls-1" d="M237.54,549.79c-3.51,3.76-6.12,6.64-8.84,9.4-.57.58-1.62,1.13-2.37,1.04-5.01-.61-9.39,2.04-14.11,2.55-3.74.4-7.32,1.17-10.86,2.25-1.13.34-2.14,1.09-3.28,1.7-4.02-3.66-4-5.11.69-13.67,1.56,2.47,2.34,4.74,1.29,7.53,3.74.59,6.97,1.84,9.83-1.35.7-.78,2.37-.68,3.6-.99,2.75-.7,5.21-1.91,7.76-3.21,4.8-2.44,10.13-4.16,16.29-5.25Z"/><path class="cls-1" d="M331.68,154.95c-2.6-2.14-4.44-4.09-2.09-7.34.27-.37-.05-1.16-.12-1.76-.15-1.34-.37-2.67-.46-4.02-.09-1.41-.1-2.82-.08-4.23.03-1.35.1-2.71.23-4.05.14-1.41.78-2.9.48-4.19-1.4-6.06,1.93-10.79,4.2-15.81.24-.52,1.52-.57,2.72-.53-3.19,4.99-2.41,9.99-1.24,15.06.22.97.25,2.35-.28,3.06-1.94,2.61-1.58,5.48-1.32,8.34.23,2.47,1.28,4.91-.61,7.28-.34.42.22,1.64.47,2.45.67,2.11.4,3.93-1.91,5.76Z"/><path class="cls-1" d="M496.51,517.49c-2.27-2.69-3.02-4.41-1.68-6.78,1.37-2.43,3.03-4.94,1.43-8.03-.25-.49.1-1.45.43-2.05,2.74-5.11,3.63-10.81,5.38-16.24.54-1.68,1.47-3.34,2.61-4.67.66-.77,2.09-.87,3.18-1.28.23,1.27.55,2.53.65,3.81.03.45-.46.96-.78,1.39-1.84,2.54-2.78,5.24-3.02,8.49-.22,3.03-2.42,5.64-2.68,8.94-.31,4-1.24,7.99-2.3,11.87-.41,1.52-1.9,2.75-3.22,4.56Z"/><path class="cls-1" d="M523.81,646.43c1.1.63,1.93,1.01,2.65,1.53,2.64,1.94,4.81,3.74,4.32,7.88-.41,3.48-.63,6.15-4.39,7.5-1.54.55-2.5,2.94-4.62,1.73-2.43-1.38-4.35-3.45-4.51-6.32-.07-1.37.66-3.35,1.7-4.08,1.33-.92,1.58-1.69,1.34-3.04-.46-2.63,1.21-3.89,3.5-5.21Z"/><path class="cls-1" d="M349.37,155.79c-3.11-2.31-3.85-5.64-3.23-8.58,1.38-6.48,1.58-12.86.62-19.36-.57-3.89-.25-4.4,4.44-6.59.85,4.91,1.92,9.51-.41,15.1.16,1.33,4.21,3.36.36,5.92-.19.12.27,1.23.44,1.87,1.09,4.13,1.03,8.03-2.22,11.62Z"/><path class="cls-1" d="M147.75,0c2.62,5.66,1.77,12.56-1.59,15.36-3.78,3.15-8.94,2.26-11.5-1.9-.89-1.45-2.05-2.74-3.5-4.66,4.45-4.52,9.64-7.89,16.59-8.81ZM145.8,5.71h-6.6c-.51,1.67-1.06,3.49-1.79,5.88,2.28.36,4.14.65,6.14.96.73-2.21,1.33-4.04,2.25-6.84Z"/><path class="cls-1" d="M284.68,158.02c-1.65-.97-2.52-1.34-2.49-1.48.84-3.48-2.04-6.98.77-10.76,1.35-1.81.17-5.52.12-8.36-.04-2.4-1.38-5.01,1.54-6.87.5-.32.14-1.97.17-3.01.07-2.45,1.81-3.21,3.7-2.93,2.17.32,2.05,2.31,1.65,3.92-.97,3.98-3.05,7.97-2.87,11.88.15,3.26-.58,6.25-.82,9.35-.2,2.56-1.05,5.07-1.77,8.28Z"/><path class="cls-1" d="M159.88,191.48c4.54,3.1,9.12,3.34,13.44,4.46.98.25,2.12-.02,3.16-.17,2.79-.4,5.44-.81,8.43-.46,3.28.39,6.86-1.18,10.22-2.19,1.36-.41,2.65-.9,3.03.69.19.78-.76,2.13-1.56,2.78-.94.77-2.24,1.42-3.43,1.49-5.26.33-10.46,1.14-15.67,1.67-4.63.48-9.53-.83-14.2-1.83-2.44-.53-4.4-2.26-3.43-6.44Z"/><path class="cls-1" d="M24.43,712.73c-2.37,3.17-3.46,7.04-7.57,9.22-5.31,2.81-9.59,7.14-13.33,12-1.92-5.16-1.85-5.09,1.51-8.23,2.99-2.8,5.57-6.09,8.79-8.57,2.89-2.24,6.4-3.68,9.64-5.47.32.35.64.7.96,1.06Z"/><path class="cls-1" d="M226.18,135.75c-.19,4.29-3.87,4.73-6.47,5.44-5.33,1.46-10.78,2.32-16.36.21-1.99-.75-4.52-.16-6.8-.03-2.93.16-4.6-1.24-5.7-3.96,1.97-1.82,3.88-1,5.72-.46,9.28,2.73,18.37,2.64,27.19-1.77.42-.21,1.03-.07,1.55-.04.15,0,.29.2.86.6Z"/><path class="cls-1" d="M197.72,50.32c-1.33,6.48,3.77,10.58,5.26,16.01,1.3,4.76,3.28,9.62-.4,15.24-.4.18-1.83.81-3.45,1.52-.15-.61-.53-1.24-.35-1.53,2.6-4.29,1.55-8.78.39-13.06-1.07-3.9-2.97-7.58-4.42-11.38-.51-1.34-.92-2.76-1.11-4.17-.29-2.15.96-2.9,4.09-2.63Z"/><path class="cls-1" d="M66.86,330.7c-.22,2.29-.05,3.16-.4,3.68-2.06,3.06-4.28,6.01-6.34,9.06-.57.84-.91,1.89-1.12,2.9-.8,3.83-1.38,7.71-2.3,11.51-.35,1.47-1,3.18-3.87,3.02-.14-1.39-.52-2.9-.39-4.36.21-2.32.44-4.71,1.21-6.88,2.07-5.85,3.64-12.04,8.38-16.51,1.01-.95,2.56-1.31,4.82-2.42Z"/><path class="cls-1" d="M265.25,155.32c1.45.75,2.36,1.22,3.23,1.66,2.07-2.27,3.86-4.29,3.08-7.61-.2-.86,1.14-2.41,2.15-3.1.5-.34,2.4.3,2.67.93.41.96.35,2.54-.22,3.4-1.3,1.99-2.39,3.7-1.9,6.37.22,1.16-1.29,2.92-2.41,3.98-1.21,1.15-2.32.41-3.66-.65-2.08-1.65-3.66,0-4.38,1.94-1.2,3.25-3.65,4.33-7.16,4.95.15-6.31,5.24-8.3,8.6-11.86Z"/><path class="cls-1" d="M180.19,584.59c6.13.83,12.12,2.92,18.44,2.11,2.63-.34,5.27-.59,7.87-1.04,1.89-.33,3.73-.94,6.43-1.65-.6,1.6-.67,2.8-1.28,3.23-2.96,2.08-6.03,3.43-9.99,3-4.4-.48-8.91-.02-13.37.06-5.04.09-6.36-.86-7.94-5.85l-.16.15Z"/><path class="cls-1" d="M281.64,436.03c-2.27,1.34-3.71,2.87-5.27,2.98-5.28.4-6.36,4.64-8.14,8.24-.78,1.58-1.18,3.35-1.83,5.27-1.74.09-3.31.17-5.44.27,2.46-5.7,3.04-11.92,9.69-14.3,1.06-.38,1.69-1.82,2.66-2.6,2.28-1.83,4.7-2.43,8.34.14Z"/><path class="cls-1" d="M429.05,335.76c-2.88,1.03-4.73-.08-5.03-2.98-.43-4.13-2.89-7.83-1.54-12.45.76-2.6-.66-5.85-1.17-8.79-.56-3.2.81-5.36,3.58-5.5,0,10.14,1.01,20.14,3.98,29.88,0,0,.17-.15.17-.15Z"/><path class="cls-1" d="M557.79,223.16c-3.11,3.58-6.38,6.67-11.02,8.58-3.42,1.41-6.02,4.72-9.14,6.98-.76.55-2.1.31-3.17.44.35-1.04.38-2.44,1.09-3.05,3.76-3.24,7.59-6.42,11.58-9.35,2.42-1.78,5.14-3.2,7.87-4.48.65-.3,1.86.6,2.82.95,0,0-.03-.08-.03-.08Z"/><path class="cls-1" d="M67.32,740.5c-2.61-1.19-4.57-2.26-3.6-5.39.2-.63-.44-1.56-.77-2.31-1.71-3.79-3.57-7.53-5.11-11.39-.34-.86.37-2.13.59-3.21,1.08.46,2.97.76,3.1,1.4.89,4.57,6.37,7.07,5.46,12.46-.17,1.01,1,2.23,1.5,3.38.76,1.76.75,1.77-1.16,5.05Z"/><path class="cls-1" d="M511.34,516.27c1.08-3.35,3.38-6.46,1.99-10.19-.05-.12.09-.36.2-.49,2.97-3.67,5.91-7.38,9-10.96.4-.47,1.58-.27,2.39-.38.11.95.65,2.49.27,2.77-5.85,4.28-6.27,11.34-8.96,17.21-.99,2.16-1.9,3.94-4.88,2.05Z"/><path class="cls-1" d="M519.76,261.09c-5.22-4.96-4.08-10.31-3.89-15.38,6.66-3.65,9.79-3.78,12.99-.51-1.72,4.47-6.82,1.31-9.72,4.73.16,2.82.35,6.31.62,11.16Z"/><path class="cls-1" d="M298.91,128.07c.83,1.77,1.55,2.61,1.36,2.98-1.74,3.31-.22,7.06-1.79,10.57-1.31,2.95-.96,6.65-1.32,10.01-.09.85.15,1.86-.23,2.53-.34.6-1.32,1.07-2.05,1.12-.36.03-1.19-1.01-1.16-1.53.3-6.27.48-12.56,1.27-18.78.26-2.08,2.17-3.94,3.92-6.9Z"/><path class="cls-1" d="M301.07,33.79c5.15,2.69,5.14,8.31,7.22,12.74.82,1.74,1.29,3.65,2.13,5.38.85,1.74.27,3.03-1.32,3.37-.8.17-2.42-.75-2.77-1.57-2.07-4.91-4.05-9.88-5.68-14.96-.48-1.49.32-3.38.54-5.09l-.12.12Z"/><path class="cls-1" d="M119.32,237.45c-.32-4.24,4.98-16.9,9.76-23.75.66,1.47,1.89,2.92,1.55,3.68-2.84,6.37-5.94,12.63-9.05,18.87-.24.49-1.16.64-2.27,1.2Z"/><path class="cls-1" d="M149.69,116.94c3.64,2.67,6.87,5.33,10.4,7.51,1.59.98,3.79.98,5.71,1.44,1.21.29,2.54.38,3.58.97.54.31.95,1.62.74,2.27-.19.61-1.36,1.44-1.93,1.33-2.95-.58-5.88-1.33-8.75-2.22-1.61-.5-3.08-1.42-4.64-2.09-3.22-1.39-5.2-3.84-5.98-7.19-.14-.62.6-1.43.86-2.01Z"/><path class="cls-1" d="M363.06,156.66c-4.83-1.2-5.99-4.16-5.08-6.93,1.4-4.23.4-8.46,1.15-12.61.17-.95,1.25-2.5,1.85-2.47,1.71.09,1.93,1.38,1.81,3.12-.31,4.4-.69,8.79.83,13.17.53,1.55-.3,3.57-.55,5.72Z"/><path class="cls-1" d="M473.41,250.8c3.59,3.32,4.37,6.2,2.41,10.21-1.18,2.41-.75,5.59-1.13,8.41-.26,1.92-.77,3.7-4.04,2.64.39-3.49,1.02-7.09,1.14-10.71.11-3.44-.73-6.96,1.62-10.54Z"/><path class="cls-1" d="M226.86,156.26c-1.9.99-3.73,1.93-6.12,3.17-.96-1.17-2.04-2.47-3.21-3.9-1.99-.16-4.22-.33-6.69-.52.22-.95.19-1.73.46-1.86,4.01-1.87,8.4-2.54,12.66-2.32,1.87.1,3.78,2.64,2.9,5.43Z"/><path class="cls-1" d="M44.32,727.14c.54,2.41,1.23,4.79,1.55,7.23.12.89-.52,1.97-1.04,2.83-1.16,1.89-2.46,3.7-4.13,6.18q-4.04,1.52-5.59-2.92c.91-.37,1.81-.84,2.77-1.12,2.24-.68,3.33-2.37,2.97-4.45-.62-3.55,1.09-5.71,3.63-7.61l-.15-.14Z"/><path class="cls-1" d="M485.84,271.61c-1.36-1.76-2.77-2.74-2.84-3.81-.36-5.3-1.83-10.7.66-16.93,1.41,1.66,2.6,2.52,3.04,3.67,1.24,3.18.85,12.1-.87,17.06Z"/><path class="cls-1" d="M180.34,584.44c-1.17-.15-2.78.14-3.43-.51-3.01-3-5.94-6.12-8.49-9.5-1.1-1.46-2.62-3.91,1.11-5.38,4.04,4.84,9.13,8.91,10.65,15.55,0,0,.16-.15.16-.15Z"/><path class="cls-1" d="M477.3,294.55s.18.22.18.22c.45-1.27.51-3.11,1.4-3.71,4.56-3.02,9.32-5.75,14.06-8.49.54-.32,1.4-.1,2.1-.14,0,0-.19-.19-.2-.19.33,1.16.66,2.32.9,3.14-4.72,2.95-9.04,5.83-13.54,8.36-1.36.76-3.25.57-4.9.81Z"/><path class="cls-1" d="M219.19,147.69c-6.85,1.94-13.65,5.41-21.45.24,1.17-.87,1.92-1.86,2.44-1.74,4.9,1.09,9.64-.32,14.45-.63,1.56-.1,3.17.54,4.75.85-.06.43-.12.86-.18,1.29Z"/><path class="cls-1" d="M122.83,196.67c-3.94.68-7.84,1.43-11.67-1.07-1.91-1.25-4.07-2.12-6.1-3.16.18-2.3,1.73-3.47,3.27-2.43,4.07,2.75,8.92,2.59,13.23,4.27.59.23,1.06.78,1.59,1.18-.11.4-.21.8-.32,1.21Z"/><path class="cls-1" d="M538.76,503.61c-.95,2.01-1.87,3.52-2.4,5.16-.88,2.74-3.09,3.91-5.44,4.81-.77.29-2.24-.05-2.77-.65-.57-.65-.79-2.07-.49-2.92,1.1-3.18,6.78-6.46,11.1-6.4Z"/><path class="cls-1" d="M503.78,208.51c.41,2.78.98,5.54,1.14,8.33.06.98-.9,2.02-1.4,3.04-1.03-.58-2.69-.95-2.95-1.77-.67-2.12-.81-4.43-.99-6.68-.09-1.11.29-2.26.27-3.38-.04-1.64.36-2.96,2.23-2.98,2.24-.02,2.53,1.55,1.71,3.44Z"/><path class="cls-1" d="M372.69,159.83c-1.88,1.83-3.76,1.41-4.2-.76-.78-3.79-.89-7.73-1.17-11.61-.04-.56.6-1.17.92-1.76,4.9,2.74,5.03,3.51,3.66,8.35-.45,1.6.45,3.58.79,5.78Z"/><path class="cls-1" d="M199.83,457.18c.72,2.48,1.4,4.22,1.68,6.02.16,1.05.06,2.74-.58,3.19-1.34.93-2.15-.25-2.74-1.55-.35-.77-1.09-1.36-1.96-2.4-1.09.94-2.05,1.77-3.82,3.3-.32-2.39-1.07-4.1-.58-5.28.56-1.34,2.08-2.64,3.47-3.15,1.47-.54,3.29-.12,4.52-.12Z"/><path class="cls-1" d="M235.94,98.68c-2.83.19-4.79.75-6.51.34-2.91-.7-5.71-1.93-8.46-3.15-.62-.27-1.36-1.63-1.15-2.08.36-.79,1.33-1.44,2.19-1.81.57-.24,1.59-.15,2.07.23,2.91,2.31,6.39,2.88,9.86,3.6.5.1.81,1.11,2.01,2.88Z"/><path class="cls-1" d="M301.2,33.67c-2.5.28-4.01-.55-4.7-3.23-.57-2.25-2.03-4.26-2.67-6.5-.25-.88.66-2.09,1.05-3.14.92.37,2.13.49,2.72,1.15,3.01,3.36,4.72,7.19,3.47,11.84,0,0,.13-.12.13-.12Z"/><path class="cls-1" d="M249.92,349.45c-2.05-1.19-3.98-1.95-4.93-4.57-.66-1.81-2.91-3-4.24-4.63-.45-.56-.6-2.22-.36-2.34.84-.43,1.98-.69,2.87-.47.76.19,1.39,1.08,1.98,1.75,1.74,1.99,3.42,4.03,5.13,6.05,1.04,1.23,1.49,2.47-.45,4.21Z"/><path class="cls-1" d="M419.18,392.1c2.57-1.54,5.51-2.68,7.62-4.7,3.03-2.89,5.09-1.27,7.86.64-4.65,4.34-9.58,6.02-15.53,4.02-.03-.02.05.04.05.04Z"/><path class="cls-1" d="M165.78,166.86c-.22,1.52.08,3.52-.78,4.48-1.94,2.17-4.19,3.91-3.93,7.28.03.33-1.86,1.32-2.38,1.06-.72-.37-1.58-1.88-1.33-2.46,1.34-3.21,2.8-6.42,4.66-9.34.51-.8,2.54-.62,3.87-.9,0,0-.12-.11-.12-.11Z"/><path class="cls-1" d="M42.74,304.54c-4.77,3.45-9.94,5.95-15.83,7.5,0-1.1-.12-1.68.02-1.76,3.85-2.01,6.64-5.99,11.33-6.35,1.49-.12,3.04.46,4.56.73,0,0-.08-.12-.08-.12Z"/><path class="cls-1" d="M233.36,105.65v2.88c-4.8,0-9.42.07-14.04-.06-.88-.03-2.01-.66-2.5-1.38-.29-.43.21-1.8.77-2.3.52-.48,1.71-.72,2.37-.47,5.17,1.94,8.35,2.37,13.4,1.34Z"/><path class="cls-1" d="M192.88,465.37c3.25,2.91,2.27,5.11,1.07,7.2-.97,1.7-2.36,2.64-4.43,1.55,1.11-2.9,2.14-5.57,3.36-8.75Z"/><path class="cls-1" d="M430.97,310.42c-.93-1.72-2.11-3.35-2.69-5.18-.25-.81.44-2.51,1.19-2.92,1.39-.75,2.44.27,2.52,1.78.12,2.05.03,4.12.03,6.18-.35.05-.71.09-1.06.14Z"/><path class="cls-1" d="M220.55,147.37c-.66-3.08,1.14-3.69,2.81-4.35,1.39-.55,3.13-.88,3.39,1.02.14,1.01-.95,2.76-1.92,3.19-1.25.56-2.94.14-4.27.14Z"/><path class="cls-1" d="M507.73,206.19c4.03.57,2.11,5.15,4.81,7.03-.73.24-2.08.73-2.1.69-.99-2.48-4.52-4.13-2.71-7.72Z"/><path class="cls-1" d="M44.47,727.28c-.08-1.4-.35-2.83-.16-4.2.09-.68,1.18-1.84,1.53-1.74.88.24,2.01.93,2.28,1.7.69,1.95-.92,3.55-3.8,4.11-.01-.01.14.13.14.13Z"/><path class="cls-1" d="M333.04,280.82c.48-1.05.92-2.19,1.51-3.25.43-.78,1.53-1.48,1.5-2.18-.18-5.4,4.29-8.41,6.51-12.51,1.24-2.29,4.29-3.57,6.48-5.37,1.05-.86,2.37-1.68,2.91-2.83,2.38-5.06,6.57-7.41,11.75-8.53,2.69-.59,5.28-.99,7.67-2.96,2.98-2.46,6.86-.89,10.48-1.17.69,4.97-.69,8.94-3.42,12.32-1.17,1.44-3.45,1.95-4.74,3.32-4.68,4.97-9.66,9.47-15.98,12.28-2.11,4.8-7.14,5.49-10.97,7.9-1.63,1.02-3.06,2.35-4.58,3.54-3.42,2.66-4.82,2.61-9.13-.55ZM350.27,270.06c.74.21,1.18.5,1.39.38,7.28-4.18,14.42-8.69,19.86-15.12,1.87-2.22,3.54-4.31,6.06-5.77.63-.36.73-1.64,1.37-3.26-3.47.27-6.46-.15-8.89.82-6.05,2.42-10.19,8.24-16.78,9.89-.44.11-.95.63-1.12,1.07-1.53,3.96-4.7,6.57-7.53,9.5-1.15,1.19-1.81,2.87-3.38,5.45,1.88-.78,2.66-.86,3.01-1.28,2.47-2.95,4.63-6.2,7.33-8.92,2.5-2.52,5.46-4.62,8.41-6.63.74-.5,2.65-.39,3.23.21,1.34,1.36.33,2.57-1.05,3.46-3.25,2.11-5.12,5.96-9.25,7.09-1.05.29-1.73,1.95-2.67,3.1Z"/><path class="cls-1" d="M284.03,291.86c-5.41-3.98-10.55-7.74-15.67-11.52-5.12-3.77-10.01-7.92-15.43-11.18-2.76-1.66-5.32-2.97-7.13-5.84-.76-1.2-3.16-1.43-4.85-1.97-2.94-.94-3.44-2.31-1.44-4.63,1.77-2.05,3.76-3.03,6.66-1.97,3.1,1.13,6.35,1.99,9.61,2.51,9.68,1.56,16.05,7.46,21.71,15.01,3.32,4.42,5.63,9.16,7.69,14.14.79,1.91,1.37,3.8-1.15,5.44ZM267.68,273.51c2.33,2.54,4.51,5.22,8.52,5.62-2.14-6.56-5.37-8.71-8.52-5.62ZM255.83,266.02c.73-5.63.4-5.94-4.4-5.51-1.19.11-2.43-.37-3.64-.59-.15.31-.29.63-.44.94,2.77,1.68,5.54,3.36,8.48,5.15Z"/><path class="cls-1" d="M268.28,305.5c.98.33,2.23.38,2.88,1.03,2.75,2.76,6.44,2.8,9.67,2.67,6.39-.25,12.74-1.4,19.11-2.18.35-.04.9.13,1.04-.04,3.98-5.1,8.33-1.21,12.27-.2,4.2,1.07,8.34,1.21,12.56,1.64,5.73.58,11.15-1.17,16.8-.86,2.67.15,5.77-1.39,8.11-2.99,4.24-2.89,8.38-5.97,11.8-9.95,1.26-1.47,3.54-2.05,5.36-3.04.29.24.58.48.87.72-.39,1.26-.41,2.89-1.23,3.72-6.34,6.35-12.88,12.06-22.39,13.8-4.13.76-7.97,1.75-12.31,1.65-4.35-.1-8.59,1.81-12.16,4.71-6.04,4.9-12.25,6.46-20.56,1.45-6.42-3.87-13.71-5.8-21.57-4.39-5.02.9-9.57-2.92-10.13-7.86l-.12.12ZM320.03,312.29c-7.45-1.17-14.86-5.16-22.54-.79,8.06,7.54,12.58,6.87,22.54.79Z"/><path class="cls-1" d="M291.79,292.54c6.24.18,12.03.32,17.81.56.6.03,1.17.7,2.01,1.24-2,2.64-3.76,5.19-5.79,7.5-.72.82-2.13,1.49-3.2,1.46-4.27-.12-9.99-5.73-10.83-10.75Z"/><path class="cls-1" d="M269.22,245.52c4.06,7.38,7.87,14.31,11.85,21.55-2.71.52-4.72.23-6.13-2.19-2.15-3.69-4.41-7.31-6.6-10.97-2.05-3.44-1.92-4.92.88-8.39Z"/><path class="cls-1" d="M392.14,204.75c5.17,7.71,8.78,16.03,12.82,24.59-3.47,1.09-5.2-.68-6.07-2.69-2.56-5.9-5.11-11.81-7.77-17.67-.71-1.58-1.44-2.93,1.02-4.23Z"/><path class="cls-1" d="M331.36,243.69c2,2.98.47,5.48-1.47,7.56-1.66,1.78-3,3.3-2.86,6.01.09,1.68-.65,3.65-2.89,3.95-.76.1-1.89-.02-2.31-.51-.46-.54-.61-1.73-.34-2.42,1.41-3.6,2.95-7.15,4.54-10.67.98-2.18,2.34-4.01,5.31-3.92Z"/><path class="cls-1" d="M268.4,305.38c-1.68.49-2.98.24-3.99-1.43-.96-1.59-2.24-2.98-3.38-4.46l-.1.02c4.06-.25,6.69,1.89,7.35,5.99,0,0,.12-.12.12-.12Z"/><path class="cls-1" d="M261.02,299.5c-.91-1.34-1.82-2.68-3.52-5.18,2.39.54,3.44.78,4.49,1.02-.34,1.39-.69,2.78-1.05,4.17-.02,0,.08,0,.08,0Z"/><path class="cls-1" d="M438.86,351.7c3.48-.29,5.7-.48,8.06-.68-2.1,3.29-3.43,3.54-8.06.68Z"/></svg>