<?xml version="1.0" encoding="UTF-8"?><svg id="Layer_1" xmlns="http://www.w3.org/2000/svg" viewBox="0 0 555.13 481"><defs><style>.cls-1{fill:#afa172;stroke-width:0px;}</style></defs><path class="cls-1" d="M390.48,156.72c-1.06,1.17-1.8,2.08-2.64,2.89-.88.84-1.73,1.93-2.81,2.3-5.15,1.78-10.35,3.39-15.56,4.99-1.73.53-3.5,1.08-5.28,1.21-1.11.08-2.47-.33-3.38-.99-2.28-1.67-4.37-3.6-7.05-5.86-.55,1.38-.83,2.08-1.26,3.18-4.35-1.42-8.59-2.93-11.6-6.77-.52-.66-1.34-1.2-2.14-1.51-3.83-1.47-7.72-2.77-11.54-4.27-2.14-.84-2.51-2.11-1.77-5.67,2.7,1.6,5.18,3.28,7.83,4.59,2.41,1.19,5.01,1.98,7.37,2.89-2.2-2.62-4.39-5.81-7.19-8.29-1.44-1.28-4-1.3-6.26-1.94-.43-1.36-.9-2.89-1.49-4.76,4.91-2.98,3.96-8.34,4.84-12.9.7-3.6.31-7.42.4-11.15.01-.53.12-1.14-.08-1.59-1.87-4.25-3.77-8.49-5.72-12.7-.88-1.9-1.89-3.74-2.55-5.03-2.87-2.55-5.76-4.5-7.77-7.12-1.65-2.15-3.56-3.27-5.87-4.35-3.13-1.46-6.14-3.04-9.49-4.15-4.45-1.47-4.61-5.06-.37-7.22,3.43-1.75,7.33-2.96,11.14-3.5,7.63-1.08,15.33-1.64,23.02-2.17,1.69-.12,3.49,1.24,5.19,1.13,4.85-.32,9.6,1.52,14.22,1.13,3.89-.33,6.35,1.68,9.12,3.11,1.34.69,2.35,1.76,4.1,1.93,1.34.13,2.6,1.1,3.92,1.63,1.46.59,2.91,1.22,4.42,1.64,6.04,1.69,11.75,3.91,16.43,8.35,2.31,2.19,5.04,3.92,8.06,6.22.25-1.02.9-2.14.58-2.63-2.81-4.29-3.04-10.03-7.53-13.39-.37-.28.04-1.43-.25-2.01-.54-1.07-1.47-2.95-1.99-2.88-4.51.68-6.16-3.02-7.93-5.56-3.72-5.32-9.93-7.63-14.18-12.81.48-.91.77-2.38,1.65-2.94,6.65-4.23,13.35-8.4,20.17-12.35,3.07-1.78,6.87-2.46,9.61-4.58,5-3.86,11.71-2.88,16.64-6.59.53-.4,1.53-.68,2.07-.45,4.12,1.79,7.66-.59,11.47-1.3,3.1-.57,6.62-1.12,9.48-.21,4.27,1.36,8.62-1.95,12.6.83,2.84-1.7,5.86-.26,8.78-.45,1.72-.11,3.72-.31,5.16.41,3.48,1.75,7.16.42,10.75,1.25,4.44,1.03,9.25.58,13.89.53,1.56-.02,3.12-.75,3.79-.92,4.09,1.3,7.5,2.27,10.82,3.46,3.16,1.13,6.24,2.5,9.35,3.76.8.32,1.58.7,2.39.98,1.2.42,2.58.53,3.6,1.2,2.85,1.87,5.7,3.4,9.13,4.23,3.24.79,6.09,3.06,9.3,4.11,3.81,1.24,2.25,4.47,3.25,6.6-2.28,3.42-5.16,4.95-8.96,6.31-4.12,1.48-8.28,2.8-12.48,4.04-.51.15-1.08.76-1.44.64-3.79-1.25-6.46,1.46-9.65,2.45-5.1,1.59-6.39,5.47-6.76,9.94-.25,2.98-.55,6.18.25,8.97.95,3.34,2.97,6.39,4.68,9.49,1.8,3.27,3.76,6.47,5.69,9.67.72,1.2,1.69,2.26,2.33,3.49.51.99.75,2.13,1.02,3.23.07.3-.38.82-.25,1.01,4.63,6.85,5.06,15.07,7.55,22.61,1.15,3.47,3.97,6.37,5.95,9.57,1.29,2.09,2.74,4.15,3.59,6.42,1.07,2.87-.2,4.36-3.38,4.58-7.26.51-13.99-1.37-20.16-5.02-2.9-1.72-5.62-3.19-9.11-2.43-.85.19-1.84.04-2.7-.21-7.35-2.14-14.17.7-21.12,2.23-5.22,1.14-10.41,2.42-15.61,3.64-.5.12-1.15.16-1.44.49-4.35,4.98-11.35,7.23-14.13,13.86-.6,1.42-1.89,2.6-3.01,3.74-3.65,3.7-3.42,6.04,1.06,8.53,3.74,2.08,7.59,3.96,11.33,6.03,4.1,2.27,7.83,5,9.95,9.4.15.31.41.69.71.8,4.89,1.87,6.82,6.65,10.06,10.14,3.99,4.3,7.59,8.93,11,13.68,2.58,3.59,4.95,7.33,7.27,11.1.91,1.47,1.62,3.13,2.07,4.8,1.23,4.56,2.4,9.41,2.62,13.85.26,5.15,4.09,10.22.97,15.51,1.38,4.56.36,8.82-1.39,13.09-.28.69.97,2.02,1.82,3.63,1.1-1.39,1.83-2.29,2.53-3.19,2.22-2.86,4.36-5.79,6.67-8.58,4.48-5.41,4.76-12.97,9.4-18.3.39-.45.53-1.55.25-2.08-1.71-3.3-.28-6.67-.33-9.99-.02-1.15.63-2.29.84-3.45.31-1.72,1.18-3.76.59-5.13-1.23-2.88-.89-5.17,1.77-7.75-1.23-.87-2.04-1.87-2.99-2.04-3.3-.58-4.7-3.15-6.37-5.51-1.67-2.35-3.51-4.58-5.09-6.99-.63-.95-.75-2.23-1.11-3.36,1.11-.33,2.25-1.02,3.33-.94,4.59.36,9.16.95,14.01,1.49,0-3.16.2-6.18-.06-9.16-.25-2.88,3.06-4.73,2.01-7.83-.07-.19,1.95-1.1,3.27-1.82,1.88,3.73,3.65,6.99,2.64,11.19.5-1.21,1.48-2.45,1.42-3.63-.15-2.79,2.52-3.3,3.45-5.01.96-1.79.75-4.18,1.39-6.19.3-.93,1.62-1.49,2.11-2.41.76-1.42,1.55-2.43,3.34-1.97,1.72.44,2.21,1.67,2.22,3.28,0,.67.17,1.34.29,2.24,1.14-.1,2.01-.21,2.88-.26,2.56-.14,3.73.93,4.38,3.61,1.44,5.94-1.19,10.9-3.02,16.1-.52,1.49-1.28,2.9-1.73,4.4-.77,2.61-1.37,5.19-3.66,7.11-1,.83-1.29,2.47-2,3.68-.86,1.45-1.84,2.84-3.06,4.7.21,2.96.47,6.69.75,10.66,4.94,1.81,6.01,7.06,8.42,10.98,3.02,4.92,4.65,10.7,6.95,16.27-1.08,1.33-2.19,2.71-3.31,4.09-4.77-.84-9.09-4.08-14.49-1.6,3.53,6.22,4.35,12.63,2.42,19.94-1.48,0-3.19.24-4.79-.07-1.38-.27-2.57-1.47-3.95-1.75-2.47-.5-4.57-.64-6.52,2.16-2,2.87-3.25,5.81-4.58,8.96-1.98,4.68-4.64,9.26-10.34,10.71-1.1.28-2.35,1.11-2.96,2.05-3.33,5.17-8.27,7.36-14.09,7.66-5.38.27-10.78.06-16.43.06-4.39,2.22-7.66,7.98-14.64,5.58-1.28,2.86-2.47,5.83-3.92,8.66-.81,1.58-2.01,2.96-3.09,4.38-1.28,1.68-2.88,3.18-3.89,5-3.25,5.9-6.42,11.85-9.35,17.9-1.74,3.6-4.42,7.28-1.25,11.5.1.13.16.38.1.52-2.23,5.57.5,10.31,1.89,15.52,1.02,3.82,1.51,8.01,2.29,12.03.39,2,0,4.24-.43,6.29-.17.79-1.3,1.73-2.17,1.97-2.9.79-7.71-1.72-8.95-4.6-1.62-3.77-3.1-7.61-4.73-11.63-2.81,1.33-3.5,3.81-4.33,6.11-1.38,3.82-3.69,6.86-7.08,9.07-.4.26-1.01.18-1.88.32-.99-2.88-1.76-5.39-.46-8.64,1.08-2.7.72-5.98,1.03-9.43-1,.21-1.68.22-2.24.49-4.43,2.12-8.89,4.19-13.24,6.48-1.78.94-3.39.68-4.41-.59-.72-.9-1.05-2.81-.58-3.8,1.31-2.76,2.42-6.12,6.58-5.63,2.1,2.16-4.29,3.27-.97,5.45,4.33-2.59,8.36-5.39,12.75-7.41,1.63-.75,5-.43,5.97.74,1.2,1.44.98,4.28.88,6.49-.05,1.15-1.18,2.26-1.83,3.38.39.23.78.47,1.16.7,1.54-2.57,3.21-5.07,4.57-7.73,1.03-2.03,2.09-4.31,4.57-3.96,2.95.42,3.44,3.22,3.98,5.74.56,2.64,1.4,5.23,1.89,7.88.53,2.88,2.36,3.77,4.89,4.01,1.81-5.92-2.46-10.53-2.75-15.96-.35-6.74-1.84-13.42-2.46-20.15-.17-1.82.75-3.92,1.65-5.64,2.91-5.55,5.89-11.08,9.16-16.42,1.64-2.68,3.1-5.3,4.42-8.18,2.19-4.79,6.29-8.78,9.93-12.79,1.03-1.13,3.26-1.31,4.99-1.62,1.39-.25,2.86-.05,4.29-.05.29-1.65.55-3.15.69-3.98,2.44-1.1,4.22-2.29,6.16-2.67,1.81-.35,3.93-.23,5.67.37,2.34.81,4.32,1.09,6.76.1,3.1-1.26,6.51-1.75,9.74-2.74,4.57-1.4,8.17-4.12,11.34-7.8,2.69-3.13,5.77-5.9,7.7-9.63.61-1.18,1.44-2.26,1.87-3.5,1.58-4.49,4.32-7.86,9.3-9.78,2.46.78,5.34,1.7,9.04,2.88-.69-3.04-1.35-5.56-1.81-8.1-.5-2.77-1.13-5.57-1.14-8.36,0-3.14,4.2-4.91,7.48-3.41q3.44,1.58,8.06.9c-1.03-2.44-2.02-4.81-3.04-7.16-.14-.32-.65-.58-.64-.85.22-6.2-5.41-8.94-7.89-13.52-1.64-3.03-4.38-6.12-3.1-9.87,1.66-4.85,1.69-10.11,3.72-14.76,1.57-3.6,4.1-6.78,6.23-10.13.29-.45,1-.76,1.06-1.21.48-3.22.85-6.46,1.26-9.69-2.83-.45-3.28,1.34-3.81,2.8-1.62,4.43-2.38,4.62-5.92,1.29-.23-.22-.57-.33-1.38-.79-.71,1.4-1.67,2.71-2.04,4.17-1.4,5.49-1.32,5.5-7,5.78-.41,1.27-.46,3.12-1.34,3.69-.87.56-2.58-.22-3.92-.33-1.9-.16-3.8-.26-7.17-.48,2.47,3.52,3.68,6.71,5.99,8.2,3.87,2.5,3.76,6.03,3.21,9.32-.7,4.24-1.39,8.24-.29,12.57.85,3.37,1.66,7.13-2.3,9.77-.88.59-1.47,2.93-1.02,3.95,1.86,4.23-.66,6.93-2.75,9.95-.9,1.3-1.24,2.98-2.04,4.37-3.47,6.09-7.22,12.01-12.27,16.94-1.53,1.49-3.35,2.78-5.23,3.81-1.87,1.03-3.97.08-4.18-1.85-.25-2.31-.36-4.73.02-7.01.67-4.05,2.27-8,2.53-12.05.27-4.2-.14-8.56-1.03-12.69-1.43-6.71-3.13-13.42-5.38-19.9-2.65-7.66-7.8-14.01-12.22-20.7-.94-1.42-2.74-2.25-3.9-3.57-3.56-4.01-7.12-8.03-10.42-12.25-1.15-1.47-2.03-2.77-4.04-3.16-.91-.18-1.9-1.15-2.4-2.01-2.4-4.1-6.02-6.53-10.3-8.28-2.31-.94-4.5-2.2-6.87-3.38-2.89,4.73-.42,8.77.92,12.86.55,1.68,1.36,3.29,2.15,4.89,1.27,2.58-.08,3.65-2.92,4.5-4.35-3.55-8.95-7.31-13.77-11.24-2.43-.58-5.32-1.32-8.23-1.95-3.37-.73-6.7-1.1-10.06.41-2.2.99-4.65,2.26-7.45-.45,3.56-3.85,7.83-5.67,12.75-5.29,7.38.57,14.14,3.24,20.02,7,0-2.76.02-5.85,0-8.94-.05-5.66,2.65-10.47,4.96-15.33.8-1.68,2.64-2.88,4.09-4.22,3.93-3.63,7.65-7.55,11.93-10.72,3.97-2.95,8.33-5.53,13.72-5.34,1.54.05,3.12-.74,4.67-1.22,1.84-.56,3.61-1.52,5.48-1.74,5.54-.65,10.91-2.21,16.44-2.83.71-.08,1.47-.15,2.16,0,5.18,1.1,10.42,2.04,15.51,3.49,3.08.88,5.88,2.71,8.88,3.9,1.61.64,3.39.82,6.04,1.42-1.76-3.4-2.63-6.43-4.57-8.45-1.81-1.89-2.05-4.06-2.95-6.14-2.51-5.79-2.2-12.58-6.37-17.76-1.37-1.7.48-3.55-.98-5.78-3.68-5.62-6.64-11.68-10.64-17.19-2.7-3.72-3.89-8.53-5.75-12.85,2.5-2.28-.69-6.32,2.78-8.55.97-.62.93-2.93,1.2-4.5.68-3.8,6.16-8.28,10.07-8.68,2.73-.28,5.87.86,8.1-1.8,4.72,1.8,7.78-3.44,12.47-2.89,1.77.21,3.86-2.29,6.23-3.82-.99-.94-1.69-2.06-2.68-2.48-4.45-1.86-8.99-3.5-13.48-5.28-1.16-.46-2.3-1.06-3.34-1.74-8.51-5.59-17.98-8.04-28.03-8.7-1.59-.1-3.14-.71-4.73-.9-1.73-.21-3.49-.23-5.24-.3-.35-.01-.86.32-1.04.18-4.49-3.6-9.86-.15-14.6-1.83-.77-.27-1.73-.05-2.6-.02-5.64.18-11.38,1.08-16.9.35-5.66-.74-11,.52-16.49.68-2.12.06-4.49-.99-6.35-.36-8.99,3.07-18.24,5.53-26.6,10.23-4.31,2.43-8.49,5.1-12.79,7.57-1.16.67-2.57.89-3.79,1.47-1.18.57-2.26,1.34-4.08,2.45,3.91,3.79,7.23,7.02,10.55,10.24,1.77,1.71,3.57,3.39,5.31,5.14,2.12,2.13,3.7,4.59,6.45,6.37,2.64,1.72,4.88,5.24,5.65,8.37,1.4,5.72,3.87,10.8,6.35,16.03,1.2,2.53.56,5.97.59,9,.04,4.76.06,9.52-.18,14.27-.11,2.31-.73,4.61-1.3,6.87-.45,1.77-.36,3.27,1.3,4.29,2.61,1.62,3.28,4.07,3.17,7.14-2.91,1.27-4.03-1.24-5.94-3.05-.41,3.7,1.11,6.44,2.53,9.17.23.45.92.66,1.17,1.11,1.11,1.94.5,6.73-1.11,7.46-3.33,1.52-3.71-1.48-4.95-3.36-.96-1.45-2.35-2.61-3.71-4.07-1.23,1.3-2.21,2.35-3.2,3.4.46,3.01,1.02,5.93,1.3,8.87.15,1.55-1.7,2.51-3.15,1.62-1.19-.74-2.15-1.86-3.9-3.44ZM376.24,147.75c2.71-1.29,4.46-.33,5.62,2.29.65,1.47,1.47,2.87,2.31,4.24.23.38.85.52,1.47.87.92-1.17,1.76-2.25,2.6-3.32-1.19-2.87-.7-6.06-2.96-8.61-2.1-2.37-3.68-5.23-5.32-7.97-2.31-3.86-4.68-7.7-6.64-11.73-2.81-5.78-5.3-11.71-7.85-17.61-.73-1.69,0-2.76,1.96-3.08,3.9,2.88,3.85,8.14,7.1,11.69,2.69,2.95,3.23,7.77,5.13,11.56,1.39,2.78,3.44,5.23,5.19,7.83.58-1.23.51-2.11.27-2.94-1.78-6.09-3.58-12.17-5.39-18.25-.47-1.58-1.23-3.35.84-4.21,1.89-.78,3.11.47,3.78,2.13,2.41,5.91,6.87,10.74,8.63,17.07.84,3.03,3.16,5.65,4.82,8.45.38-.14.77-.27,1.15-.41-.79-3.45-1.14-7.07-2.47-10.29-1.77-4.3-4.28-8.3-6.53-12.4-1.33-2.42-.42-4.06,1.79-5.69,2.15,2.43,5.39,3.83,5.15,7.78-.03.5.7,1.44,1.17,1.5,2.38.31,2.68,2.06,3.1,3.87.16.71.65,1.34,1.43,2.86,1.1-2.82,1.85-4.75,2.53-6.47-13.27-11.36-15.04-17.82-10.58-21.84.7,1.57,1.87,2.97,1.86,4.37-.03,5.24,3.42,7.33,8.11,9.73-.98-3.99-1.74-7.22-2.58-10.43-.41-1.55-.99-3.04-1.56-4.79-5.25,1.67-9.06-.79-12.56-3.99-2.65-2.42-5.35-4.4-8.99-5.46-2.94-.86-5.99-1.59-8.9-3.07-2.86-1.46-5.36-3.67-8.25-4.68-7.03-2.44-14.74-2.41-21.7-5.42-1.07-.46-2.52-.32-3.74-.13-6.49,1-13.04,1.24-19.57,1.72-4.11.3-8.98-.46-12.81,3.54,1.63.74,3.1,1.31,4.48,2.06,1.53.83,3.7,1.47,4.31,2.79,1.34,2.89,3.9,4.14,6.1,5.94,4.03,3.31,8.77,5.97,10.61,11.35.22.64.71,1.45,1.28,1.66,2.02.78,1.74,2.41,1.93,4.03.38,3.16,1.09,6.28,1.47,9.45.42,3.51.73,7.04.84,10.56.06,1.74-.44,3.51-.63,4.88,12.09,9.69,22.8,20.34,35.42,28.67-1.7-2.75-3.83-5.04-5.84-7.44-2.14-2.58-4.17-5.25-6.24-7.89-.87-1.11-2.3-2.16-2.46-3.37-.22-1.71-1.08-2.26-2.31-3.15-5.45-3.96-9.22-9.39-12.52-15.17-.2-.36.05-.97.1-1.73h3.93c1.64,7.57,10.14,9.86,12.66,16.76.05.13.28.23.45.28,3.74,1.24,5.23,4.63,7.22,7.55,2.64,3.87,5.2,7.8,7.94,11.6,2.16,2.99,4.99,3.85,8.01,2.83-1.42-3.47-2.83-6.95-4.25-10.42l-.15.08ZM367.26,162.97c-1.23-1.52-1.86-2.6-2.77-3.37-4.77-4.02-9.53-8.06-14.44-11.9-3.53-2.76-7.29-5.18-10.2-8.71-1.77-2.15-4.05-3.88-6.6-6.28-.76,2.62-1.29,4.46-1.83,6.31,3.72,3.2,7.07,6.48,10.81,9.21,7.1,5.18,14.4,10.07,21.69,14.97.59.4,1.78-.1,3.34-.24ZM394.67,143.43c1.21-4.87,1.01-5.26-3.58-7.46,1.13,2.35,2.17,4.51,3.58,7.46ZM388.22,141.6c.25-.11.49-.22.74-.33-.47-1.28-.95-2.56-1.42-3.84-.79.85-.92,1.56-.68,2.13.31.74.9,1.37,1.37,2.04ZM371.07,160.92c-.02.44-.05.88-.07,1.32.74-.07,1.48-.14,2.21-.26.02,0,0-.8-.09-.81-.67-.14-1.36-.18-2.05-.25Z"/><path class="cls-1" d="M338.69,334.82c-.7.97-1.19,2.35-2.14,2.84-5.07,2.62-10.07,5.65-15.47,7.28-4.03,1.22-8.31,2.64-12.37,3.05-8.73.87-16.67,4.71-25.32,5.57-1.74.17-3.59.27-4.15-1.55-.33-1.07.55-2.52.9-3.79.09-.34.23-.66.44-1.29-3.68-1.02-6.28,1.78-9.24,2.69-1.86-1.24-2.26-2.72-.82-4.14,2.03-1.99,4.3-3.73,6.25-5.39-2.33-.79-4.91-1.37-7.2-2.53-2.47-1.26-2.58-3.53-.27-5.12,3.1-2.15,6.31-4.27,9.73-5.82,4.04-1.83,8.39-2.98,12.55-4.57,2.63-1.01,5.21-2.16,7.7-3.48,3.69-1.95,7.35-3.86,12.16-3.14-.11-2.14-.23-3.43-2.26-4.5-5.99-3.18-7.19-7.35-4.72-13.67,1.74-4.45,4.9-7.77,7.71-11.49,4.02-5.34,9.94-8.04,14.51-12.5,4.35-4.25,8.92-8.28,13.82-12.8-2.58-5.07-8.86-7.29-11.27-12.96-2.23-5.26-5.69-9.99-8.08-15.2-2.46-5.35-4.27-10.99-6.59-17.07-1.22,1.02-2.22,1.87-3.23,2.7-1.33,1.1-2.51,2.51-4.02,3.22-4.21,1.97-5.66,6.26-8.4,9.46-.57.67-.77,1.8-1.45,2.21-6.33,3.83-9.34,10.66-14.35,15.67-3.24,3.25-6.25,6.75-9.35,10.13,2.4,1.07,3.63-.65,5.06-2.07,1.67-1.65,3.46-2.91,5.4.17-3.39,3.68-2.11,7.5-.17,12.19,1.79-1.72,3.61-2.78,4.38-4.36,2.58-5.26,6.79-8.78,11.54-11.85.45-.29,1.1-.67,1.16-1.08.94-5.83,6.47-8.09,9.58-12.23,1.34-1.79,3.48-3.86,6.8-2.79-.23,4.72-3.52,7.86-6.47,10.59-4.43,4.09-8.56,8.53-13.06,12.56-3.17,2.83-6.73,5.61-9.41,9.05-1.71,2.19-2.98,4.78-4.12,7.34-1.42,3.19-3.62,3.46-6.68,2.51v-5.3c-1.58-.74-3.72-1.08-4.1-2.08-.44-1.18.44-3.03,1.12-4.42.92-1.88,2.18-3.59,2.67-6.05-1.52,1.33-3,2.69-4.56,3.96-1.78,1.45-3.52,3.57-6.15,1.95-1.82-1.12-1.46-3.46.77-6.75.71-1.05,1.26-2.36,2.23-3.05,5.82-4.11,8.91-10.62,13.83-15.49,1.85-1.83,4.03-3.19,5.85-5.23,2.56-2.87,4.9-5.6,6.16-9.23.16-.46.65-.96,1.11-1.15,4.95-2.05,7.43-6.77,11.06-10.23,2.65-2.51,4.32-4.96,2.81-9.39-1.56-4.58-1.94-9.61-4.9-13.66-2.48-3.39-5.31-6.54-7.98-9.8-.8-.98-1.64-1.93-2.39-2.94-2.25-3.01-4.5-6.04-6.71-9.08-2.6-3.58-5.09-7.24-7.77-10.75-1.16-1.52-2.65-2.78-4.02-4.12-3.01-2.93-4.11-6.92-5.89-10.53-.42-.86-1.05-1.64-1.67-2.39-.86-1.02-2.02-1.84-2.66-2.97-2.79-4.89-6.92-5.22-10.04-.64-3.35,4.93-6.64,9.91-9.96,14.87.85,3.08-2.23,4.61-2.8,7.18-.8,3.65-3.27,6.08-5.95,8.71-4.54,4.42-7.77,10.21-12.39,14.53-4,3.73-4.22,9.21-7.76,13-5.75,6.15-9.83,13.74-16.45,19.18-1.48,1.21-2.51,2.96-3.96,4.22-5.66,4.88-12.03,7.7-19.72,6.39-.18-.03-.45-.19-.51-.12-3.77,3.67-8.3,1.06-12.45,1.59-1.57.2-3.1.81-4.61,1.34-3.68,1.29-7.35.8-11.02.02-2.22-.47-4.42-1.03-7.47-1.74-.57-.54-1.98-1.69-3.14-3.05-.67-.78-1.11-1.85-1.35-2.86-.96-4.03-1.81-8.09-2.68-12.14-.11-.52-.15-1.07-.13-1.61.11-2.42.26-4.84.43-7.94,3-3.4,3.82-3.65,7.06-.09,2.36,2.6,4.02,5.83,6.12,8.68.53.72,1.54,1.08,2.85,1.95v-7.82h-4.45c-.18-.68-.72-1.51-.49-1.99,1.09-2.32,1.08-5.47,4.42-6.22.3-.07.75-.39.78-.63.47-4.57,3.76-7.61,5.93-11.28,2.91-4.93,5.03-10.37,8.28-15.04,2.25-3.23,3.79-6.57,5.19-10.14.62-1.57,2.13-2.79,3.23-4.18,5.57-7.05.95-14.91-5.16-17.75-4.35-2.02-9.16-3.07-14.04-4.65-.86,4.34,1.35,7.66,3.03,10.76,1.52,2.81,1.42,5.43,1.55,8.38-5.13,1.96-9.22.73-12.66-3.17-.71-.8-1.38-1.93-2.29-2.22-4.04-1.3-6.22-4.91-9.43-7.21-.41-.29-.92-.43-.96-.45-.81,3.28-1.64,6.5-2.39,9.74-.19.82-.12,1.69-.18,2.54-.19,2.63-.38,5.25-.55,7.56-3.09,1.17-4.58.17-5.34-2.05-1.17-3.42-2.34-6.86-3.32-10.34-.75-2.67-1.83-5.02-4.7-7.55-.69,1.77-1.24,2.9-1.58,4.08-1.56,5.5-2.74,11.13-4.69,16.48-1.59,4.35-3.13,4.11-6.44.91-2.91-2.81-3.54-5.82-3.42-9.66.11-3.75-.57-7.58-1.3-11.29-1.13-5.7-.49-11.42.67-16.85.93-4.38,3.78-8.36,5.81-12.51.14-.28.54-.47.86-.63,8.67-4.38,17.35-8.74,26.01-13.13,2.2-1.12,4.71-1.95,6.44-3.59,2.8-2.64,5.51-2.1,8.5-.9,0,0-.1-.13-.1-.13-2.46,3.97-6.97,4.76-10.64,6.84-1.54.88-3.4,1.31-4.75,2.4-2.61,2.11-5.46,3.44-8.75,4.02-.97.17-1.83.9-2.76,1.35-3.33,1.62-5.93,4.34-9.69,5.55-2.07.67-3.78,3.77-4.79,6.14-3.55,8.37-5.74,16.95-3.05,26.15.94,3.23,1.05,6.7,1.85,9.99.35,1.42,1.48,2.65,2.89,5.04,1.12-4.76,1.89-8.26,2.76-11.74.79-3.13,1.63-6.26,2.57-9.35.59-1.96,1.62-4.31,3.98-3.48,1.99.7,4.85,2.62,4.98,4.19.36,4.26,4.05,6.43,4.97,10.25.74-6.08,1.4-11.98,5.76-17.49,5.53,9.06,13.97,13.12,22.32,19.14-1.88-5.24-3.39-9.38-4.85-13.53-.91-2.6-1.62-5.22.21-7.56,3.87.54,7.56,1.07,11.25,1.55,1.73.23,3.42.84,4.65-1.47.31-.59,2.96.05,5.45.17,1.2-.97,4.4-1.88,4.04-5.59,3.92-2.21,6.5-7.12,12.03-6.07.99.19,1.94.72,2.84,1.23,3.51,2,7,4.06,11.15,6.48-.16,1.27-.21,3.37-.71,5.37-1.36,5.44-.27,11.3-3.03,16.53-.72,1.36-.5,3.19-.84,4.78-2.8,12.96-5.83,25.86-9.83,38.53-.82,2.61-.88,5.71-.41,8.43.54,3.14-.65,5.69-1.71,8.25-1.3,3.16-3.14,3.54-5.82,1.35-2.36-1.92-4.44-4.19-6.56-6.39-1.59-1.65-3.04-3.43-5.46-6.19-.37,2.64-.73,4.08-.73,5.52,0,2.71.73,5.52.19,8.08-.39,1.84-2.02,4.06-3.69,4.85-2.34,1.11-3.84-1.24-5.09-3.03-1.03-1.49-1.96-3.05-3.56-4.2.08,1.87.1,3.75.27,5.62.17,1.87.41,3.71-1.84,4.52-2.34.84-4.28-.13-5.81-1.75-2.45-2.59-4.7-5.36-7.09-8-.45-.49-1.19-.72-2.46-1.46.62,3.34.97,6.1,1.67,8.76.68,2.58,1.95,4.95,1.47,7.84-.13.76,1.26,2.28,2.24,2.63,5.26,1.88,10.52,3.08,16.26,1.45,3.9-1.11,8.12-1.25,12.21-1.49,3.75-.22,7.66.72,10.84-2.2.12-.11.35-.14.52-.12,9.51.94,13.34-7.03,18.95-12.15,1.44-1.32,2.52-3.03,3.9-4.44,3.22-3.28,4.73-7.84,8.69-10.7,1.76-1.27,2.18-4.33,3.37-6.49,1.97-3.58,3.86-7.24,6.2-10.57,1.52-2.16,3.54-4.17,5.76-5.58,3.9-2.46,6.58-5.45,7.39-10.13.22-1.3,1.36-2.62,2.41-3.56,4.96-4.43,6.7-10.62,9.46-16.32,1.62-3.34,4.1-6.41,6.71-9.09,3.05-3.13,8.52-2.32,10.97,1.15,2.47,3.5,4.62,7.17,8.21,9.84,2.49,1.85,3.35,5.11,4.9,7.77,2.77,4.77,6.64,8.89,10.02,13.31.76,1,1.73,2.02,2.02,3.18.91,3.63,3.77,5.7,6.06,8.26,4.91,5.47,9.73,11.03,14.59,16.55,1.52,1.73,1.93,3.51,1.54,5.97-.33,2.07.87,4.36,1.3,6.57.85,4.34,1.62,8.61,4.4,12.37,1.5,2.03,2.26,4.75,2.88,7.28,2.2,8.98,8.51,15.74,12.58,23.7,4.24,2.38,5.74,7.18,9.09,10.35,3.78,3.56,7.64,7.04,11.32,10.7,3.48,3.45,7.22,6.1,12.24,7.12,2.75.56,5.22,2.56,8.6,4.33-4.1.88-9.55.1-11.35-1.21-.14-.1-.24-.41-.35-.4-5.35.28-7.42-4.7-11.14-7.01-3.82-2.37-7.31-5.27-10.96-7.92-.27-.19-.67-.2-1.06-.31-4.86,4.84-9.82,9.49-15.59,13.44-6.3,4.31-11.59,9.81-15.88,16.5-4.57,7.13-1.97,9.49,3.44,14.47,2.11,1.94,4.71,3.3,5.12,6.61-2.32,2.46-5.48,2.59-8.39,3.41-4.15,1.17-8.26,2.49-12.35,3.85-3.91,1.29-7.79,2.7-11.66,4.09-1,.36-2.03.72-2.9,1.3-2.24,1.49-4.4,3.1-6.98,4.93,1.17.74,2.27,1.43,3.35,2.1,2.61-1.91,5-4.31,8.32-1.86,2.67,1.98,1.06,4.02-.24,5.83.96,1.1,1.77,2.01,2.63,3-1.33,1.69-2.51,3.19-4.24,5.39,1.72-.18,2.58-.15,3.36-.38,5.08-1.52,10.11-3.21,15.21-4.62,2.06-.57,4.26-.82,6.4-.82,5.78,0,10.51-3.43,15.91-4.65,2.01-.45,3.75-1.98,5.72-2.74,1.42-.55,3.02-.65,4.54-.95.3.32.6.64.9.97ZM188.19,123.36c-.04-1.63-1.07-2.45-2.44-1.97-2.12.72-4.1,1.87-6.38,2.95,1.3,1.05,2.09,1.7,3.13,2.54.17-4.04,3.37-3.17,5.79-3.64q.49,5.67,4.67,7.62c-.71-2.27-1.16-4.38-2.07-6.27-.33-.69-1.77-.84-2.7-1.24ZM152.26,197.89c4.13,1.78,7.09,4.07,8.02,8.42.13.63,1.67.96,3.39,1.86-1.08-3.67-1.78-6.15-.25-8.82,1.06-1.86,1.3-4.18,2.13-7.09,1.05-.31,2.89-.85,5.17-1.52,1.7,2.98,2.69,6.38,4.95,8.21,2.19,1.78,4.27,3.31,5.06,6.69,3.15-3.33,2.19-7.05,3.08-10.22.88-3.16,1.59-6.38,2.35-9.48-7.06-3.85-9.27-5.85-11.01-9.97.87-.83,2.08-1.53,2.57-2.56.54-1.15.41-2.6.61-4.26,3.36,1.6,6.28,2.98,9.25,4.39,1.47-3.25-.78-4.45-2-5.68-2.57-2.59-3.51-5.83-4.43-9.09-.2-.7.63-2.23,1.32-2.48.64-.23,2.04.5,2.52,1.21.69,1,.77,2.4,1.25,3.57.64,1.55,1.42,3.05,2.14,4.57,2.07-2.9,3.09-5.72,4.01-8.56,1.28-3.94,1.25-3.95-2.76-6.57-.3-.19-.64-.4-.82-.69-2.37-3.76-5.93-6.77-7.35-11.1-1.24-3.75-2.14-7.62-3.21-11.51-3.86.59-1.85,5.43-4.76,7.26,1.72,2.71,3.52,4.99,4.7,7.57,1.09,2.37,2.41,5.21,2,7.56-.56,3.25-2.49,6.32-4.13,9.31-1.8,3.27-4.02,6.3-5.89,9.53-1.59,2.76-2.43,6.13-4.52,8.38-3.87,4.17-5.68,9.41-8.33,14.17-1.35,2.43-2.27,4.99-5.06,6.91ZM194.23,144.96c-.38.24-.75.48-1.13.72.62.75,1.23,1.5,1.85,2.25l.73-.5-1.44-2.47Z"/><path class="cls-1" d="M102.72,296.57c-4.89-2.68-6.23-7.35-8.01-13.08-1.69,5.12-3.03,9.35-4.49,13.54-.94,2.7-1.81,5.49-3.18,7.98-2.16,3.94-4.85,3.75-7.2-.22-1.89-3.19-4.28-6.19-5.56-9.61-1.05-2.81-1.24-6.15-.98-9.18.16-1.92-.18-3.39-1.5-4.17-1.66-.98-2.74.32-4,1.64-2.58,2.71-5.38,5.33-8.48,7.41-4.61,3.08-7.68,7.46-10.56,11.88-1.78,2.74-3.96,3.97-6.84,4.81-2.09-1.92-3.02-3.79-2.06-6.75.73-2.25.26-4.86.53-7.28.21-1.87.36-3.93,1.23-5.52,2.36-4.32.55-9.67,3.73-13.79.79-1.02.64-2.76,1.05-4.85-5.51.79-10.03.6-14.46,3.02-4.69,2.56-9.81,4.38-15.36,4.98-3.3.36-6.86.64-9.94,2.54-.83.51-2.54.39-3.42-.15-1.32-.8-2.26-2.22-3.2-3.21,1.08-2.3,1.99-4.22,2.9-6.15.23-.48.32-1.28.67-1.42,5.2-2.1,6.52-7.9,10.67-11.05,4.61-3.5,6.84-9.7,13.05-11.52.84-.25,1.35-1.54,2.06-2.31,1.06-1.14,2.2-2.2,3.21-3.38,1.56-1.83,4.3-2.49,4.72-5.57.18-1.34,1.74-3.14,3.06-3.58,5.97-2,6.49-7.85,9.66-12.37-3.64-1.84-6.55-2.68-10.69-1.8-6.92,1.47-14.18,1.3-21.28,2.02-3.69.37-5.78-1.23-6.9-4.23,2.86-5.69,8.67-7.16,13.36-9.73,8.63-4.74,17.81-8.39,27.24-11.51,7.11-2.35,14.18-4.39,21.61-5.22.52-.06,1.05-.27,1.53-.5,3.42-1.59,6.83-2.74,10.76-3.02,3.26-.23,6.33-2.47,9.59-3.52,1.61-.52,3.26-2.29,5.75-.58-3.37,2.18-6.27,4.14-9.27,5.95-.71.43-1.84.72-2.55.46-1.97-.72-3.4.16-5.09.91-1.88.83-4.04.99-6.03,1.6-4.78,1.46-9.52,3.04-14.29,4.54-6.94,2.18-14.08,3.87-20.77,6.64-6.75,2.79-14.02,4.56-20.01,9.05-1.5,1.12-2.78,2.53-4.82,4.41,5.61.7,10.24.41,14.83-.94,1.19-.35,2.43-.94,3.61-.86,4.82.31,9.62.84,14.99,1.34.55,1.53,2.01,3.5,1.67,5.07-.65,3.04-2.01,6.06-3.66,8.73-1.78,2.89-4.23,5.37-6.4,8.01-.56.69-1.09,1.45-1.79,1.98-4.06,3.1-6.99,7.59-10.98,10.42-5.66,4.01-9.63,9.45-14.54,14.05-1.8,1.69-3.01,4.96-4.93,5.36-3.45.73-2.14,4.37-4.47,5.41-.41.18-.43,1.24-.78,2.4,1.52,0,2.73.27,3.76-.05,3.59-1.09,7.12-2.37,10.67-3.6,2.87-1,5.66-2.63,8.59-2.94,4.85-.53,8.83-3.41,13.49-4.22,1.19-.21,2.47-.02,3.69.09,2.55.25,3.16,1.68,2.92,4.15-.84,8.83-2.41,17.56-3.44,26.37-.08.69.2,1.42.38,2.56,1.07-.52,2.4-.71,2.74-1.39,2.95-6.03,8.34-9.96,13.22-13.92,3.32-2.7,6.95-6.22,11.99-6.39,3.99-.13,5.66,1.75,3.88,5.26-1.06,2.09-.74,3.52-.13,5.51.72,2.32,1.33,4.99.89,7.3-.84,4.44,1.86,6.48,5.48,9.95-.61-7.76,5.68-12.08,5.12-19.24-.34-4.33,1.96-8.89,3.2-13.31.27-.96,1.11-1.75,2.33-3.6,1.43,3.05,2.52,4.67,2.93,6.45.64,2.73.5,5.67,1.28,8.35.73,2.51,2.21,4.8,3.47,7.4,3.13-2.47,1.89-6.06,2.46-9.07,1.25-6.57,1.22-13.33,3.16-19.82.57-1.9-.12-4.15.04-6.22.23-2.92.84-5.8,1.08-8.72.54-6.71,1.43-13.4.87-20.17-.08-.99.48-2.02.7-3.04.36-1.69.67-3.39.42-5.31-7.3,7.64-11.02,17.4-15.99,26.32-3.32-.55-2.75-2.77-2.48-4.63.51-3.56,1.31-7.09,1.81-10.65.22-1.57.04-3.19.04-5.74-1.33,1.22-2.03,1.82-2.68,2.47-2.15,2.16-4.34,4.27-6.39,6.52-2.68,2.94-5.12,6.09-7.87,8.96-1.68,1.76-3.58,3.9-6.59,1.38.96-9,5.18-16.81,9.52-24.91-3.03-.63-5.74-1.2-8.66-1.81.13-2.19.23-3.93.34-5.71,4.22-2.84,8.34-5.61,12.66-8.52-.66-.99-1.32-1.98-2.14-3.22,2.26-4.4,5.62-7.43,10.27-9.27,1.79-.71,3.39-2.01,4.9-3.25,1.98-1.61,3.89-3.11,7.36-1.93-3.74,6.59-11.51,7.44-16.23,13.05,2.6-.19,4.77-.35,8.26-.61-3.63,4.44-6.19,7.84-10.46,9.67-3.56,1.52-6.93,3.46-10.68,5.36,2.82,3.03,7.96.95,9,5.25-1.76,5.99-6.18,10.69-7.16,17.57,7.77-4.4,10.45-13.53,18.83-17.52.6,2.24,1.08,3.73,1.38,5.25.25,1.31.29,2.66.53,4.97,6.1-5.32,8.02-11.55,9.45-18.36,1.46-.28,2.94-.57,4.62-.9,1.28,7.88,2.22,15.02.84,22.7-1.06,5.88-1.39,12.31.21,18.5.4,1.55-.64,3.42-.81,5.17-.53,5.46.59,11.16-2.49,16.23,1.61,4.18-.39,8.17-1.1,12.08-.91,5.03-1.24,10.73-6.46,14.1Z"/><path class="cls-1" d="M283.14,29.67c-1.02-2.49-2.66-3.03-4.47-.98-5.46,6.17-10.78,12.47-16.19,18.68-.98,1.12-2.15,2.07-3.19,3.05-2.81-2.12-1.92-4.09-.7-5.63,3.78-4.77,6.29-10.15,8.48-15.78.95-2.43,2.76-4.52,4.72-7.62-1.48.57-2.37.63-2.78,1.1-2.44,2.88-4.81,5.84-7.14,8.81-3.19,4.06-6.01,8.5-9.64,12.11-2.14,2.13-3.22,4.74-5,6.85-2.19,2.59-4.53,4.96-6.26,7.97-1.72,2.98-4.59,5.34-6.05,8.41-1.48,3.1-2.99,3.05-5.49,1.73-.93-.49-2.22-.99-3.11-.72-4.19,1.26-7.89-.49-11.74-1.48-3.28-.84-4.64-3.64-2.75-6.5.96-1.45,2.54-2.47,3.68-3.81,1.38-1.63,3.57-3.34,3.67-5.11.16-2.77,2.8-3.91,3.02-6.02.28-2.72,2.72-3.22,3.8-4.97,2.85-4.65,5.61-9.36,8.38-14.06.14-.24.02-.63.02-1.72-3.13,3.31-6.01,6.12-8.62,9.18-2.8,3.28-5.3,6.8-7.98,10.18-1.69,2.13-3.47,2.55-5.5-.38,3.57-7.73,7.26-15.71,11.27-24.39-3.6,1.85-4.94,4.32-5.75,7.23-.29,1.03-.67,2.05-1.19,2.98-3.86,6.85-7.75,13.68-11.69,20.49-.53.92-1.52,1.59-2.03,2.52-1.62,2.97-3.12,6.01-4.65,9.03-2.09,4.11-4.16,8.23-6.27,12.33-.15.29-.54.59-.85.64-5.78.9-9.91,5.71-15.06,7.1-5.79,1.56-9.75,6.6-15.87,6.98-1.15.07-2.39.89-3.33,1.68-2.85,2.38-5.83,2.62-9.06.97,0,0,.1.13.1.13.56-3.71,4.22-4.11,6.52-4.77,3.58-1.03,6.24-3.88,10.03-4.24,6.2-.59,10.07-6.17,15.95-7.56,1.87-.44,3.63-1.36,5.43-2.08,5.37-2.17,5.93-7.68,8.27-11.95.69-1.25,1.1-2.68,1.93-3.82,5.67-7.77,9.44-16.52,13.54-25.14,1.81-3.8,4.71-7.08,7.01-10.66,1.76-2.73,3.28-5.61,5.03-8.34,1.72-2.68,3.27-5.85,7.98-4.34.62,7.69-4.7,14.07-4.95,21.31,1.8-1.55,3.71-3.06,5.44-4.75.97-.95,1.93-2.12,2.36-3.37.86-2.49,2.56-3.89,4.94-4.55,2.3-.64,3.9.67,3.09,2.77-1.95,5.05-2.82,10.67-7.05,14.63-.26.25-.78.49-.77.72.24,6.6-7.38,8.58-8.42,14.41-4.4,2.26-3.62,8.54-8.28,10.71-.55.26-.44,1.95-.7,3.33,6.17.58,12.02,1.13,17.92,1.68,2.75-4.96,5.29-9.91,8.19-14.64,1.66-2.71,3.87-5.09,5.9-7.57,5.88-7.17,11.14-14.88,18.25-20.99,1.72-1.48,3.26-3.19,5.07-4.56,2.42-1.84,5.13-.57,5.14,2.59.01,2.53-.79,5.06-1.24,7.61,1-.21,2.53-.53,4.02-.84,1.56-4.5,2.63-5.15,8.56-5.26,1.64,4.37.91,5.92-4.04,8.57l.12.12Z"/><path class="cls-1" d="M425.98,313.2c.08-2.97.98-6.07-2.3-8.26-.78-.53-.65-2.35-1.05-3.54-1.2-3.5-1.76-7.11-4.01-10.4-1.63-2.38-2.84-5.36-2.94-8.9-.1-4.05-1.97-8.18-3.6-12.05-5.36-12.66-11-25.2-16.44-37.83-1.15-2.66-1.75-5.5.53-9.01,1.03,2.4,1.83,4.22,2.6,6.05,1.74,4.13,3.45,8.27,5.19,12.4,2.59,6.11,5.22,12.21,7.79,18.32,2.52,5.97,4.49,12.09,6.27,18.34,1.32,4.64,2.59,9.25,3.71,13.95.66,2.76,2.81,5.16,4.93,8.85.52-3.53.72-5.8,1.23-8.01.29-1.27,1.07-2.42,1.63-3.63,1.27.79,2.62,1.49,3.79,2.41.47.37.56,1.22.7,1.56,6.57-3.69,6.65,4.23,10.08,5.54.44-.35.97-.63.93-.78-.81-3.82-1.28-7.77-2.63-11.4-1.85-4.99-4.19-9.82-6.64-14.55-2.92-5.63-6.2-11.08-9.32-16.6-.09-.16-.27-.33-.25-.47.98-6.72-4.47-10.77-6.78-16.11-.98-2.27-1.99-4.24-.49-6.55,2.51-1.05,4.1.25,4.61,2.34,1.12,4.63,3.18,8.63,6.01,12.48,1.43,1.94,1.42,4.93,2.08,7.44.23.87.27,2.03.85,2.52,3.49,2.96,3.84,7.39,5.53,11.18.51,1.13,1.27,2.16,1.98,3.2.61.89,1.81,1.69,1.88,2.6.39,5.49,5.09,9.74,4.42,15.5-.04.34.01.9.23,1.03,3.89,2.35,2.43,6.71,3.63,10.04.51,1.44-.54,3.68-1.45,5.21-.22.36-2.88-.44-4.2-1.13-1.21-.63-2.12-1.83-3.42-3.02-1.44,1.41-1.52,4.77-4.1,3.41-1.55-.82-2.5-2.78-3.91-4.45-.34,3.39-.57,6.59-1,9.77-.76,5.7-1.4,5.92-6.19,2.43l.11.13Z"/><path class="cls-1" d="M338.69,334.82c-.3-.32-.6-.64-.9-.97-4.63-2.49-7.77-5.94-9.02-11.35-1.06-4.58-3.04-8.91-.51-13.58.28-.53.03-1.36-.02-2.05-.32-5.2.65-6.75,5.52-9.21,1.44-.73,2.75-1.72,4.12-2.6.75-.48,1.51-1.42,2.24-1.39,7.74.31,13.72-6.97,21.84-5.02.4.1.97-.98,1.55-1.12,2.37-.57,4.76-1.08,7.18-1.43,1.38-.2,2.84.1,4.22-.1,3.15-.47,6.15-.98,7.62,3,.29.77,1.6,1.17,2.46,1.72,1.5.96,2.99,1.92,4.52,2.84,1.19.71,2.45,1.29,3.63,2.02,3.61,2.23,8.72,2.23,10.97,7.27-4.37,1.38-7.92.43-11.39-1.82-2.5-1.62-5.37-2.7-7.77-4.45-2.08-1.51-4.71-2.18-5.98-5.1-1.24-2.83-3.8-3.43-6.95-2.02-2.96,1.33-5.85,1.4-8.96,1.32-1.93-.05-3.91.96-5.83,1.61-3.01,1.02-5.92,2.47-9,3.15-5.48,1.22-9.6,4.89-14.4,7.32-.34,2.73-3.04,4.65-1.93,8.08,1.3,3.99,1.46,8.34,2.25,12.51.49,2.59,1.64,4.46,4.62,5.32,2.06.59,3.72,2.55,5.5,3.86-1.43,3.03-3.23,3.44-5.56,2.19Z"/><path class="cls-1" d="M229.46,383.96c-1.71,3.17-3.22,5.9-4.67,8.68-2.27,4.37-4.34,5.44-8.9,4.1-2.41-.71-4.8-1.64-6.99-2.85-3.42-1.88-6.68-4.07-9.73-5.96,0-3.05.07-5.84-.02-8.62-.13-4.43,2.96-8.78,7-10.42,2.62-1.07,4.51-.21,6.36,1.19,2.63,6.88-2.59,11.4-4.91,17.22,3.94,2.47,7.56,5.83,13.11,4.99,1.1-2.98,2.23-5.98,3.33-8.99,1.49-4.08,1.33-5.61-2.4-7.68-3.48-1.93-3.88-4.73-4.2-9.2,2.13,2.42,3.54,4.02,5.13,5.82,2.9-1.75,4.85-.35,7.38,1.19,3.78,2.31-.11,5,1.25,7.17,2.29,4.13,8.48,3.92,10.58,9.33-5.13,0-8.19-2.93-12.32-5.96ZM204.57,383.42c1.27-4.11,6.45-5.65,3.87-10.31-4.79,1.88-5.86,4.3-3.87,10.31Z"/><path class="cls-1" d="M71.86,31.44c2.02,1.87,3.49,3.88,4.66,6.59,2.17,5.01,5.63,9.46,9.14,15.08,0-7.48.69-13.73-1.07-20.36-1.64-6.18-.75-13-1.15-19.53-.13-2.1-.39-4.38-1.33-6.2-1.99-3.86-5.83-3.74-8.54-.22-2.02,2.62-3.09,6.1-6.52,7.81-2.58-3.06,0-5.21,1.03-7.35.74-1.52,2.16-2.86,3.56-3.89,2.22-1.64,4.02-4.16,7.6-3.09,3.92,1.17,6.45,3.7,6.99,7.42.97,6.7,1.27,13.5,1.81,20.25.04.49-.49,1.28-.3,1.47,3.17,3.19.97,6.93,1.13,10.41.03.7-.19,1.52.11,2.07,3.6,6.54.97,12.91.02,19.34-3.75,1.16-5.81-.73-6.86-3.29-2.5-6.1-5.92-11.63-9.38-17.2-1.3-2.1-1.88-4.65-3.17-7.99.55-.33,1.49-.88,2.42-1.43,0,0-.15.14-.15.14Z"/><path class="cls-1" d="M214.25,462.98c-5.45-.79-5.73-5.41-7.26-9.03-.74-1.75-1.36-3.55-2.52-5.35-1.49,5.41-3.13,10.56-6.77,14.77-1.03,1.19-1.96,2.48-3.02,3.64-1.52,1.68-2.81,4.11-5.73,2.25-3.54-2.25-4.15-4.21-3.35-8.14,1.41-6.9,5.51-11.32,11.88-13.95.93-.38,2.34-1.29,2.33-1.94-.05-4.41,3.04-8.55.97-13.14-.73-1.61-1.11-3.47-1.17-5.24-.03-.76,1.04-1.82,1.87-2.23.46-.22,1.78.43,2.12,1.03.69,1.2,1.14,2.61,1.4,3.98.67,3.54,1.14,7.12,1.8,10.67.26,1.4.36,3.3,1.28,4.02,2.28,1.8,1.84,4.06,2.08,6.36.15,1.5.8,2.96,1.32,4.4.93,2.59,3.26,4.72,2.78,7.87ZM198.43,452.63c-6.49,3.23-8.83,7.27-7.26,11.81,1.18-1.65,1.97-3.96,3.45-4.58,3.27-1.35,2.85-3.97,3.81-7.24Z"/><path class="cls-1" d="M149.26,381.69c-3.06-.48-5.49-1.55-5.81-4.83-.28-2.86,2.52-2.46,3.72-3.11,1.44-7.61-2.27-13.86-4.89-20.04-1.6-3.77-1.88-8.12-4.8-12.01-1.05,3.18-1.97,5.94-2.99,9.01-.86.15-1.88.43-2.92.5-5.47.38-7.38-1.82-6.19-7.03.24-1.06.67-2.11.71-3.17.25-6.85,3.98-7.62,9.46-9.27,1.87-.57,3.6.18,4.48,2.08.67,1.44,1.2,2.95,1.74,4.44,1.23,3.45,1.77,7.03,4.26,10.13,1.79,2.23,2.34,5.49,3.26,8.35,1.67,5.22,3.05,10.46,2.86,16.07-.11,3.2-.74,6-2.88,8.86ZM133.28,335.88c-3.98,4.81-4.35,7.45-1.5,10.63-.48-3.51,3.86-6.11,1.5-10.63Z"/><path class="cls-1" d="M270.07,428.01c2.42-2.9,4.1-5.48,2.04-8.93-.33-.55-.53-1.73-.22-2.01,2.32-2.16.91-4.8,1.13-7.21.13-1.4.07-3.11,2.13-3.2,1.98-.09,2.45,1.32,2.35,2.9-.24,3.73-.45,7.47-1,11.16-.15,1.04-1.44,1.91-2.39,3.08,2.21,3,2.61,5.99.85,9.53-.97,1.95-.04,4.79-.82,6.91-1.29,3.53-3.17,6.78-1.94,10.78.21.69-.42,1.74-.87,2.5-1.76,3.01-2.59,6.21-2.4,9.7.12,2.23-1.01,3.46-3.27,3.34-2.11-.12-3.39-2.06-2.93-4.32.18-.88.46-1.8.95-2.54,1.47-2.25,2.49-4.44,2.19-7.36-.18-1.75,1.26-3.61,1.7-5.49,1.12-4.83,2.1-9.69,3.2-14.88-1.11-.36-2.24-.93-3.42-1.07-3.45-.41-6.9-.64-8.72-4.34-.2-.41-.9-.86-1.34-.83-4.92.36-6.77-3.12-8.54-6.71-.3-.62-.76-1.34-.66-1.92.14-.78.6-1.85,1.21-2.11.5-.21,2.03.55,2.06.95.2,2.61,2.36,3,4.05,3.81,3.84,1.84,6.9,5.22,11.52,5.62,1,.09,1.88,1.53,3.13,2.63Z"/><path class="cls-1" d="M313.72,138.24c-2.33.57-3.93.13-5.46-2.14-1.86-2.76-4.17-5.3-7.53-6.69-1.3-.54-2.21-2.24-3.08-3.56-2.19-3.31-3.36-7.36-7.85-8.81-1.54-.5-2.87-2.23-3.89-3.69-2.09-3-4.81-5.23-7.59-7.54-3.56-2.97-6.48-6.69-10-9.7-5-4.27-9.55-9.15-15.96-11.81,1.21-2.63,2.8-3.23,4.89-1.9,1.8,1.14,3.64,2.33,5.14,3.83,3.86,3.85,9.31,5.9,12.15,10.93.57,1.01,1.79,1.71,2.81,2.42,2.33,1.64,4.59,3.19,6.34,5.64,1.7,2.38,4.48,3.96,6.56,6.11,1.45,1.51,2.52,3.39,3.75,5.11.21.29.33.86.55.89,6.33.88,7.45,7.58,11.88,10.77,3.2,2.31,4.83,6.78,7.17,10.29l.13-.15Z"/><path class="cls-1" d="M30.13,368.43c3.9-2.65,7.18-5.06,10.66-7.11.86-.51,2.41.09,3.62.28.85.13,1.69.7,2.5.62,7.05-.7,9.95,1.7,9.5,8.67-.25,3.88-.68,8.03-2.3,11.45-1.69,3.58-4.71,6.63-7.53,9.55-1.77,1.84-4.8.53-5.24-2.24-.96-6.02-5.34-10.2-7.87-15.36-.91-1.86-2.04-3.6-3.34-5.87ZM46.39,387.53c2.35-4.06,4.64-7.46,6.36-11.14,1.53-3.29-.02-9.02-2.5-9.61-2.91-.68-6-.76-9.01-.77-2.04,0-4.28.7-4.5,3.1-.2,2.21-.73,4.81,1.85,6.35,2.29,1.36,3.42,3.44,4.25,5.96.64,1.95,2.07,3.64,3.55,6.1Z"/><path class="cls-1" d="M56.89,116.18c-2.4,3.65-2.73,3.7-5.27,1.27-.72-.69-1.59-1.28-2.48-1.75-4.74-2.48-9.16-5.37-12.61-9.55-.43-.52-1.18-1.24-1.68-1.17-3.15.45-3.35-2.34-4.37-3.98-2.82-4.53-2.84-11.47,0-16.21,5.03,1.58,9.83,3.19,11.97,9.11,1.07,2.98,3.26,5.53,4.63,8.42,2.64,5.56,6.09,10.64,9.82,13.87ZM45.99,108.96c.28-.35.56-.71.84-1.06-4.5-5.34-7.32-11.91-12.7-16.89-1.68,3.08-1.84,5.96.01,8.1,2.99,3.45,6.5,6.46,9.87,9.57.4.37,1.31.2,1.98.28Z"/><path class="cls-1" d="M418.02,373.28c-5.16,2.14-9.78,4.06-14.43,5.99-1.54-2.09-.5-3.64,1.06-4.69,1.77-1.19,3.72-2.3,5.76-2.88,3.97-1.13,6.23-2.94,7.16-7.5,2.01-9.81,5.03-19.42,7.56-29.13.95-3.66,1.61-7.4,2.59-11.06.31-1.17,1.21-2.19,1.84-3.28.44.08.87.17,1.31.25.28,1.28.93,2.61.76,3.83-.55,4.08-1.32,8.13-2.15,12.16-1.36,6.6-3.71,13-4.97,19.55-.8,4.2-1.66,7.72-4.53,10.97-1.3,1.47-1.4,4.01-1.96,5.78Z"/><path class="cls-1" d="M117.75,368c-6.18-2.88-10.7-7.04-13.21-13.38-4.2,2.53-5.13,8.25-10.87,8.3-1.35-2.01-2.81-4.19-4.38-6.55,2.07-2.27,3.61-4.32,3.4-7.63-.12-1.96,1.78-4.27,3.23-6.04,2.14-2.62,6.45-1.93,8.76,1.45,1.61,2.36,2.85,5,4.02,7.62,1.85,4.15,4,8.06,7.76,10.8,1.63,1.19,2.65,2.44,1.29,5.44ZM95.29,359.51c3.87-4.18,4.67-9.04,6.04-14.2-5.76.72-3.65,6.82-7.06,7.89.37,2.28.66,4.06,1.02,6.31Z"/><path class="cls-1" d="M166.36,470.01c-.76,1.39-1.52,2.78-2.29,4.2h-10.67c-.46-1.51-.89-2.94-1.36-4.47-.81.26-1.48.26-1.77.59-3.29,3.86-9.81,4.3-14.3,2.08-8.91-4.4-9.93-12.46-10.63-20.79-.23-2.8,1.5-4.75,4.8-5.77.33,3.19.65,6.29.97,9.4l.15-.15c-1.21,3.98,1.15,7.09,2.85,10.17,2.25,4.07,5.72,5.04,10.44,4.01,1.52-.33,3.18-.05,5.12-.05.7-.96,1.5-2.07,2.33-3.22.67.13,1.42.06,1.65.37,1.96,2.74,4.77,2.7,7.71,2.72,1.71.02,3.41.66,5.11,1.02l-.11-.12Z"/><path class="cls-1" d="M79.84,412.49c-1.73,2.46-3.19,4.73-4.85,6.84-1.61,2.03-3.44,3.89-5.31,5.98,1.94,1.73,4.23,3.04,7.43,1.68,2.64-1.12,5.4-1.99,8.16-2.79.96-.28,2.07-.04,3.95-.04-4.74,5.56-10.34,6.95-16.1,7.58-1.5.17-3.49-1.09-4.73-2.26-1.38-1.3-2.23-3.05-4.56-2.97-.22,0-1.09-2.48-.66-3.03,1.13-1.45,1.14-2.66,1.26-4.48.25-3.88,1.01-8.16,5.36-10.18,5.08-2.36,6.82-1.76,10.06,3.68ZM73.61,412.87l-1.1-.79c-3.29.93-3.16,3.52-2.15,6.57,1.08-1.93,2.16-3.85,3.25-5.78Z"/><path class="cls-1" d="M233,431.03c3.91,2.26,7.4,4.39,11.01,6.28.95.5,2.38.61,3.41.29,2.29-.71,3.33.26,4.14,2.06-3.24,3.06-5.2,3.47-8.17,1.98-1.84-.92-3.73-1.71-6.19-2.38,2.69,5.38-.37,8.84-3.33,12.1-3.67,4.05-8.27,3.25-10.78-1.67-.72-1.41-1.46-2.87-1.78-4.4-1.03-4.95,2.36-7.67,7.61-6.28,2.18,4.59-6.6,4.38-3.88,9.43,3.36.62,5.65-1.62,7.85-3.55,1.82-1.59,1.46-4.55-.39-7.28-2.36-3.48-2.35-3.68.52-6.6Z"/><path class="cls-1" d="M283.03,29.54c1.9,2.76-.21,4.84-1.41,6.84-3.63,6.05-7.5,11.96-11.29,17.92-.58.91-1.07,1.93-1.82,2.69-4.74,4.76-7.68,10.73-11.26,16.29-1.34,2.08-2.15,4.99-5.54,5.45-.79-3.09.71-5.65,2.24-7.49,3.2-3.87,3.86-9.25,8.17-12.51,1.61-1.22,1.73-4.24,2.97-6.16,2.22-3.43,4.84-6.59,7.15-9.96,2.38-3.48,4.72-7,6.82-10.66,1.01-1.75,1.91-2.97,4.1-2.28,0,0-.12-.12-.12-.12Z"/><path class="cls-1" d="M97.56,459.26c-2.87,3.25-5.83,1.71-8.76,1.06-3,1.5-1.99,4.22-1.95,6.65.07,4.11.18,8.22.15,12.34,0,.53-.72,1.05-1.19,1.69-2.84-5.04-3.56-9.18-3.45-19.51-1.04.15-2.02.37-3,.41-4.08.16-8.2.61-12.24.25-2.01-.18-4.94-.99-3.8-5.06,1.15-.07,2.5-.14,3.85-.25,2.57-.21,4.39,2.84,7.65,1.02,2.31-1.29,5.68-.59,8.49-1.15,1.81-.36,3.34-1.05,5.08.36.52.42,2.04.03,2.86-.43,3.01-1.67,4.69-.29,6.31,2.62Z"/><path class="cls-1" d="M44.09,426.26c-2.68,1.59-5.02,3.28-7.6,4.42-2.21.98-4.87,2-6.27-1.73,4.1-2.54,8.18-5.08,12.83-7.97-1.27-5.12-2.54-10.24-3.8-15.32,3.48-1.63,4.4-1.42,4.44,1.28.09,5.17,1.85,9.59,4.76,13.82,1.18,1.71,1.44,4.15,1.81,6.31.49,2.95.71,5.95.98,8.94.09,1.02.33,2.29-.15,3.02-.58.9-1.9,1.91-2.79,1.82-.74-.07-1.74-1.61-1.9-2.61-.49-3.16-.56-6.38-.96-9.55-.1-.78-.8-1.48-1.36-2.44Z"/><path class="cls-1" d="M182.59,333.2c-5.14-1.24-1.83-5.53-3.93-8.06-1.87-2.26-2.05-5.91-3.12-9.42.93-1.09,2.08-2.43,3.6-4.21,1.53,4.25,2.94,8.15,4.43,12.29.84-1.04,1.57-2.44,2.72-3.25,6.26-4.44,12.92-2.2,15.64,5.26,1.01,2.77,2.71,5.62,0,8.52-.36.38.17,1.59.35,2.8-1.6-.14-2.79-.25-4.43-.39,2.03-4.04,2.21-7.8.14-11.51-1.76-3.15-5.52-4.11-8.07-1.73-1.52,1.42-3.28,3.24-3.61,5.11-.46,2.62-1.83,3.73-3.72,4.6Z"/><path class="cls-1" d="M216.88,79.83c.48.08.91.02,1.16.21,7.26,5.3,6.93,6.35,2.83,14.74-3.13,6.4-8.3,8.48-14.3,10.02-1.02.26-2.16.28-3.2.13-2.31-.33-3.05-1.9-1.84-3.82.84-1.33,1.54-2.95,2.74-3.82,4-2.9,5.67-7.28,7.96-11.33,1.26-2.23,3.1-4.13,4.64-6.13ZM219.52,85.09c-5.57,4.01-8.03,9.33-11.13,14.89,1.63,0,3.67.52,4.09-.08,3.02-4.29,8.06-7.65,7.04-14.8Z"/><path class="cls-1" d="M156.69,318.02c6.24.49,8.55,6.15,12.56,9.56.23.2.26.65.36,1,1.01,3.45-2.87,10.76-6.3,11.89-2.93.96-7.09-1.28-7.87-4.61-.81-3.43-1.89-6.95.14-10.47.39-.67-.11-1.91-.33-2.86-.43-1.78-.47-1.77,1.45-4.51ZM162.05,335.28c4-2.14,1.59-5.94,3.24-8.82-1.84-.58-3.22-1.02-4.84-1.53-.65,3.89-1.5,7.09,1.6,10.35Z"/><path class="cls-1" d="M170.4,394.04c3.06-3.86,5.5-6.93,7.94-10,8.29.93,10.13,3.77,8.38,13.21-3.76-1.62-3.64-6.04-6.4-8.7-2.87,1.8-4.43,4.5-5.24,7.51-.6,2.22-1.98,4.08-3.81,3.98-1.59-.09-3.58-1.77-4.48-3.28-1.83-3.06-2.99-6.47-2.33-10.24.27-1.56-.23-3.32.26-4.76.38-1.09,1.72-2.48,2.75-2.58,1.6-.16,2.87,1.5,2.13,2.96-1.98,3.87-.12,7.33.8,11.91Z"/><path class="cls-1" d="M129.55,36.05c-7.07-1.39-7.68-4.09-6.37-8.57.37-1.28.14-2.79-.06-4.16-.53-3.75-1.74-7.54,3.22-9.62,1.28-.54,1.75-2.75,2.97-3.73,1-.81,2.71-1.51,3.83-1.21,1.13.3,2.85,2.05,2.71,2.88-.62,3.5.67,6.82.14,10.46-.84,5.85-6.06,8.66-6.44,13.96ZM128.67,30.93c1.95-5.56,3.66-10.45,5.41-15.43-.76-.66-1.51-1.32-2.78-2.42-1.59,3.05-3.57,5.52-4.12,8.28-.56,2.8-.58,6.03,1.5,9.56Z"/><path class="cls-1" d="M136.4,394.35c-2.56,1.4-4.54,3.03-6.79,3.58-2.65.65-2.94,1.42-2.21,3.98.76,2.66.6,5.61.6,8.43,0,.63-1.03,1.27-1.85,2.2-3.2-3.64-2.5-7.82-2.59-11.56-2.29-.83-2.9.55-3.53,1.89-.72,1.54-1.63,3.09-3.59,2.52-.8-.23-1.68-1.4-1.87-2.29-.49-2.28,1.18-3.09,3.01-3.74.97-.35,1.9-.9,2.72-1.53.52-.41,1.26-1.38,1.1-1.69-1.79-3.45,1.18-7.13-.91-10.77-1.93-3.36-1.29-3.9,3.3-5.21.91,4.62-.58,9.8,2.85,13.47,3.24,1.44,5.76-4.94,9.76.73Z"/><path class="cls-1" d="M90.03,345.87c-3.39,1.28-6.38,2.36-9.33,3.55-1.77.71-4.93,6.9-4.7,8.95.4,3.69.8,7.39,1.19,11.08.25,2.4-1.22,3.74-3.15,4.53-1.99.82-2.79-.54-3.64-2.16-1.11-2.11-1.37-3.84-.97-6.42.52-3.32,1.12-6.6,1.97-9.85.22-.84.22-1.8.63-2.53,1.83-3.17,10.26-9.18,13.74-9.91,2.37-.5,2.6-.36,4.26,2.75Z"/><path class="cls-1" d="M172.42,59.13c.89,3.3.25,6.19-1.77,9.03-1.47,2.06-2.29,4.57-3.48,6.84-.89,1.69-2.53,2.33-4.1,1.48-1.04-.56-1.85-1.94-2.29-3.13-.67-1.83-.91-3.81-1.36-5.72-1.09-4.59,2.82-13.31,6.92-15.41,2.62-1.34,6.06-1.04,7.63.67,1.43,1.56,1.35,4.29-.28,6.44-.13.17-.82-.09-1.26-.14-.94-1.06-1.89-2.12-2.88-3.25-6.68,3.48-6.69,9.24-5.11,16.37,1.34-1.95,3.04-3.31,3.1-4.74.16-3.82,2.3-6.18,4.87-8.44Z"/><path class="cls-1" d="M263.26,371.07c-2.54,3.04-5.43,4.59-8.92,4.97-4.9.54-6.29,2.66-4.43,7.37,1.04,2.64,1.06,4.9-1,6.97q-2.32-2.06-1.94-11.17c-1.03-.42-2.53-.58-3.19-1.41-.73-.92-1.38-2.97-.88-3.63,2.86-3.77,2.23-7.69,1.26-11.78-.32-1.36-.27-2.82-.4-4.46,1.43-.34,2.58-.62,3.69-.88,1.75,2.35,1.43,4.64,1.03,6.98-.2,1.19-.4,2.45-.21,3.62.72,4.59,1.77,5.13,6,3.33,3.76-1.6,4.71-1.61,9.01.1Z"/><path class="cls-1" d="M101.18,462.03c1.79,2.13,3.7,3.89,4.99,6.03,1.79,2.96,4.08,3.75,7.64,2.78.74-4.63,1.8-9.29,2.09-14,.15-2.43,2.53-5.11-.2-7.55-.1-.09.58-1.54.97-1.58.76-.08,2.02.18,2.28.69.62,1.25,1.15,2.74,1.05,4.1-.31,4.4,1.43,8.9-.81,13.23-.96,1.86.41,4.5-2.14,5.98-2.01,1.17-3.78,2.75-6.09,4.48-8.77-2.63-12.35-7.15-9.78-14.15Z"/><path class="cls-1" d="M313.52,419.36c-1.12-1.17-1.96-2.05-3.01-3.14,4.6-7.87,4.79-16.32,4.12-25.03-.2-2.64-.21-6.23,3.43-7.71,3.57,6.85.78,30.03-4.55,35.89Z"/><path class="cls-1" d="M107.44,416.16c-1.26-.47-2.48-1.05-3.77-1.39-1.9-.51-3.85-.85-5.78-1.25-3.33-.71-4.68-3.1-5.09-6.16-.62-4.71,1.22-7.72,5.61-8.98.36,2.06,1,3.83-.76,5.83-1.67,1.91-.92,4.58.94,5.63,2.27,1.28,4.47,3.49,7.89,1.92,2.74-1.26,5.34,1.12,5.29,4.12-.05,2.65-4.13,7.76-6.69,8.37-1.48.35-3.04.57-3.69-1.2-.58-1.6.22-2.69,1.81-3.35,1.46-.61,2.83-1.42,4.24-2.14,0-.46-.01-.93-.02-1.39Z"/><path class="cls-1" d="M166.47,470.12c.65-2.03,1.3-4.06,2.06-6.42-.05-.11-.15-.78-.53-1.03-5.04-3.25-6.22-9-8.79-13.79-2.65-4.94-1.59-7.67,4.16-11.61.14,1.41.54,2.53.28,3.46-.31,1.08-1.88,2.13-1.71,2.94.46,2.2,1.13,4.6,2.48,6.32,3.18,4.06,5.66,8.47,7.13,13.33.5,1.67-.02,4.05-.93,5.59-.52.89-2.77.76-4.25,1.08,0,0,.11.12.11.12Z"/><path class="cls-1" d="M72.02,31.3c-1.05-.43-2.66-.57-3.05-1.34-2.72-5.34-8.16-9.21-8.48-15.88-.06-1.22-1.27-2.39-2.52-4.57,1.91.17,3.66,0,3.8.4.71,1.96,3.03,2.89,2.93,5.53-.05,1.38,1.87,2.84,2.92,4.25,2.61,3.5,3.12,7.74,4.23,11.76.01-.01.17-.15.17-.15Z"/><path class="cls-1" d="M131.12,455.26c3.17-2,2.76-5.58,3.96-8.71-1.21-.42-2.3-.79-3.58-1.24.41-.69.56-1.3.94-1.53,1.44-.86,2.94-1.49,4.4.05,2.61,2.77,2.92,6.83.71,9.97-.51.73-1.12,1.4-1.7,2.07-1.94,2.23-2.32,2.16-4.57-.79-.01.01-.16.17-.16.17Z"/><path class="cls-1" d="M425.87,313.07c.84,2.89-1.36,3.01-3.04,2.9-3.35-.23-6.79-.46-9.95-1.45-2.03-.64-4.69-1.91-3.9-5.56,5.97.93,11.06,4.44,17,4.24,0,0-.11-.12-.11-.12Z"/><path class="cls-1" d="M308.59,443.82c-.21-4.16,1.1-6.47,4.01-7.12.72-.16,1.83.18,2.32.7.49.52.74,1.64.55,2.36-.6,2.28-3.41,3.91-6.88,4.06Z"/><path class="cls-1" d="M313.59,138.4c2.36,1.23,5.49,1.11,6.98,3.86.78,1.43,1.41,2.94,2.29,4.81-5.97-.72-8.95-3.43-9.15-8.81,0,0-.13.14-.13.14Z"/><path class="cls-1" d="M376.39,147.67c-3.87-2.94-7.38-5.73-8.91-11.04-1.09-3.78-4.84-6.82-7.48-10.13-1.52-1.9-4.15-3.24-2.88-6.4.1-.25-.08-.82-.31-.95-3.92-2.28-3.54-6.03-3.41-10.07,3.09,3.01,5.65,5.91,7.14,9.9,1.04,2.78,3.24,5.12,4.93,7.65,2.99,4.47,6,8.92,8.98,13.4.86,1.3,1.59,2.69,2.5,3.96,1.1,1.54.61,2.68-.7,3.74-.02.01.13-.07.13-.07Z"/></svg>