<?xml version="1.0" encoding="UTF-8"?><svg id="Layer_1" xmlns="http://www.w3.org/2000/svg" viewBox="0 0 606.82 262.03"><defs><style>.cls-1{fill:#afa172;stroke-width:0px;}</style></defs><path class="cls-1" d="M264.35,91.27c-.14-3.22,1.09-5.5,4.24-6.71,1.49-.58,2.9-1.46,4.21-2.4,3.29-2.37,6.55-2.5,10.09-.5,1.55.88,3.39,1.26,5.11,1.83,4.01,1.32,7.26,3.38,9.62,7.19,1.64,2.65,2.02,5.49,1.01,7.69-1.61,3.48-3.83,7.21-6.83,9.4-4.76,3.47-10.6,5.18-16.51,6.05-3.36.49-6.12-1.36-9.06-2.85.36-.86.69-1.66,1.17-2.82-1.87-.87-3.77-1.75-5.49-2.54-5.57,3.06-4.29,7.99-2.94,11.99,1.94,5.75.9,10.88-.93,16.21-1.45,4.23-4.88,8.4-2.75,12.99,1.91,4.12,5.11,7.65,8.08,11.93-2.47,4.85-5.23,10.26-8.06,15.8,2.74,3.18,5.24,6.17,7.85,9.06,1.14,1.26,2.46,2.32,1,4.13-.67.83-1.55.63-4.5-.24,1.15,1.08,2.12,2.55,3.48,3.15,2.68,1.19,2.27,2.69.87,5.44-4.05-3.15-7.79-6.06-11.7-9.09-.75.2-2.21,1.09-3.14.71-1.6-.66-1.25-2.15-.55-3.69.56-1.24.28-2.83.65-4.19.96-3.47,2.07-6.9,3.03-10.03-1.53,1.03-3.37,2.46-5.38,3.56-5,2.71-6.41,7.96-9,12.37,1.31,3.69,2.19,7.62,4.04,11.02,2.14,3.93,5.12,7.4,8,11.44,1.21.12,2.77.27,4.42.43,0-.56.12-.93-.02-1.15-1.68-2.77-3.45-5.48-5.08-8.28-.44-.75-.77-1.74-.68-2.57.08-.72.72-1.54,1.35-1.94.29-.18,1.16.51,1.74.85.13.07.2.31.23.48,1.16,8.14,7.77,11.01,13.9,14.31,1.82.98,3.25,2.11,3.88,4.79-6.77-.82-12.83-.43-17.6,4.37.13,1.66.26,3.22.37,4.59,7.8,3.49,14.61.31,21.28-3.71-1.64-4.58-.93-5.35,4.06-4.6-3.91-8.58-5.19-11.27-3.34-16.65,2.82-1.01,3.38,1.61,3.36,2.93-.06,4.25,3.08,7.47,3.18,11.75.04,1.87,2.5,3.79,4.07,5.49,2.6,2.82,2.9,4.34.94,7.36,1.34,1.15,2.69,2.3,4.29,3.67,2.78-1.74,5.68-3.03,7.46,1.3,4.61-2.12,4.91-6.65,6.64-10.1,2.72-5.43,4.94-11.11,7.29-16.72.78-1.87,1.74-3.19,4.05-2.67,1.98,1.93.24,3.59-.26,4.86,3.22,5.15,6.27,10.03,9.48,15.15-.94.75-1.76,1.4-2.75,2.19.32.28.61.75.96.8,3.69.55,7.42,1.6,11.07,1.38,4.01-.25,8.11,1.67,12.03-.45.44-.24,1.2-.36,1.59-.14,4.04,2.3,7.96.69,12.05-.28-1.64-4.31-3.08-8.69-4.98-12.88-1.55-3.43-1.09-6.48.79-10.63,4.06,10.56,7.56,20.34,9.17,31.47,3.29-2.58,5.77-4.53,9.22-1.71,1.16.94,3.73.15,5.03.15,3.76-9.48,7.42-18.68,11.24-28.31,1.31.58,2.33,1.03,3.52,1.56-1.16,2.02-2.12,3.71-3.09,5.4,2.81,1.8,5.43,3.47,8.22,5.25-.31,1.72-.62,3.4-.92,5.08.29.13.59.25.88.38.96-1.64,1.92-3.28,2.92-5,4.03,1.26,2.41,4.48,2.9,7.24,2.25.71,4.64,1.37,6.94,2.25.94.36,2.1,1.07,2.39,1.89.28.79-.17,2.26-.82,2.82-.6.52-2,.51-2.86.21-.94-.34-1.66-1.28-2.86-2.29-2.22,4.23-7.02,6.09-8.93,11.62,4.92-1.62,9.01-2.96,13.78-4.53-.17,2.78-.29,4.86-.43,7.18,3.31-.82,5.38-3.01,7.49-5.42,2.81-3.22,3.66-3.11,7.25-.26.78-.88,1.57-1.77,2.3-2.59-1.5-1.23-2.79-2.28-4.55-3.72,1.46-.94,2.37-2.01,3.12-1.92,3.97.51,5.88-1.98,7.49-4.85.87-1.55,1.73-2.25,3.71-1.02-.33,2.65-1.33,5.14-2.94,7.41-2.03,2.86-2.25,6.73-5.58,8.93-2.75,1.82-4.9,4.57-7.68,6.32-1.18.74-3.31-.02-6.07-.14-1.67.44-2.93,4.81-6.84,2.76-2.86-1.5-2.36-3.98-1.92-6.37-4.78.24-9.18.47-13.45.69-2.2-2.58-.64-4.27,1.15-5.61,3.28-2.47,4.75-6,6.48-9.39-4.64.53-9.05.87-13.4,1.63-1.4.24-2.84,1.38-3.85,2.49-.92,1.01-1.26,2.54-1.76,3.62-2.62.57-4.97,1.08-8.07,1.75-.63-.46-1.9-1.39-3.63-2.66-1.83,1.08-3.8,2.24-5.77,3.41-4.85-.62-4.28-4.46-4.12-8.12-2.4,0-4.32.09-6.23-.02-4.3-.23-8.59-.6-12.89-.82-1.24-.06-2.67-.18-3.71.33-3.71,1.84-7.25,1.19-11.02.17-2.85-.77-5.88-.83-8.91-.92-3.72-.1-7.38-2.29-10.48-3.36-2.83,3.55-5.28,6.94-8.06,10.04-2.58,2.86-2.74,2.72-5.23-.97-2.53.35-5.12,1.61-7.2-1.53-.44-.67-3.6-.32-4.9.51-2.54,1.62-3.54.11-5.02-1.34,1.14-2.51,2.2-4.83,3.5-7.69-4.11.7-7.46,1.06-10.69,1.91-2.18.57-4.52,1.43-6.19,2.86-4.07,3.48-6.78,3.46-10.4-1.11-4.46,3.92-8.06.35-11.94-1.57-1.56-.77-1.88-1.85-1.49-3.56.7-3.09,2.55-5.11,5.28-6.42,1.6-.77,3.3-1.33,5.8-2.32-2.5-2.39-4.62-4.12-6.36-6.17-2.46-2.87-4.82-5.86-6.87-9.02-1.36-2.1-1.97-4.66-3.17-6.88-1.48-2.72-1.71-5.21-.4-8.16,3.39-7.6,8.07-13.86,15.99-17.18,1.95-.82,3.85-1.76,6.21-2.84.27-1.11.65-2.65,1.03-4.22-.08-.31-.11-.67-.27-.97-1.75-3.25-3.54-6.48-5.27-9.75-.24-.45-.04-1.18-.34-1.52-1.39-1.54-3.6-2.77-4.13-4.53-.52-1.72-.02-3.61-1.22-5.52-1.86-2.97-3.27-6.31-4.33-9.66-.57-1.82-1.22-4.36,1.9-5.89,3.1,4.42,2.28,11.16,8.14,14.05,2.34-2.09,3.78-4.55,3.15-7.92-.13-.69-.03-1.43.05-2.14q.78-6.96-2.29-13.39c-1.2,1.65-2.22,3.06-3.25,4.46-.75,1.02-1.38,2.19-2.33,2.97-.5.42-1.67.41-2.34.12-.41-.18-.84-1.51-.6-1.86,2.8-3.91,5.39-8.06,8.75-11.45,1.85-1.87,5.04-2.41,7.81-3.63-.51-4.4-1.86-8.9,3.03-11.59,2.48,1.22,1.91,3.17,1.17,5.1-1.48,3.85-.38,6.02,2.5,8.72,3.79,3.55,8.09,3.1,12.49,2.86,4.25-.23,7.96-1.54,10.65-5.21.78-1.06,2.49-1.45,3.98-2.25-.58-3.23-1.2-6.73-1.96-10.95-5.33-1.45-10.83-3.02-16.38-4.38-1.34-.33-2.87-.13-4.27.12-.75.13-1.76.74-2.02,1.39-1.17,2.9-3.78,3.7-6.3,4.69ZM315.82,215.99c1.16-2.96-.4-3.86-2.76-4.6-1.6,3.36,1.02,3.56,2.76,4.6ZM390.78,226.15q-4.3-2.12-5.58-.45c2.12.17,3.85.31,5.58.45ZM308.75,221c2.55.84,4.08,1.35,5.61,1.85-1.44-.92-1.78-4.47-5.61-1.85Z"/><path class="cls-1" d="M94.04,195.16c-6.53,1.08-11.87.6-17.09-1.26-7.62-2.7-14.61,1.44-15.98,9.33-.75,4.29.14,7.85,3.08,11.22,4.37,5.02,8.12,10.58,12.62,15.47,3.24,3.53,7.21,6.41,10.94,9.47,4.4,3.61,9,6.99,13.32,10.7,4.01,3.44,8.43,3.35,13.06,2.09,3.48-.95,7.01-1.82,10.32-3.2,2.56-1.07,4.95-2.68,7.17-4.38,5.95-4.56,11.73-9.33,15.84-15.77,1.11-1.74,2.28-3.47,3.57-5.08,2.06-2.57,3.74,0,5.73.94,1.86-3.85,3.6-7.45,5.81-12.04-.13-.74-.72-2.68-.67-4.61.03-.88,1.33-1.73,2.05-2.59.67.9,1.99,1.87,1.91,2.68-.43,3.93-1.23,7.81-1.92,11.71-.09.53-.22,1.4-.52,1.49-3.55,1.02-3.44,4.61-5.14,6.9-1.39,1.87-3.9,3.92-6,4.01-2.98.13-4.31,2.07-5.61,3.61-6,7.14-12.22,13.86-21.11,17.47-2.97,1.21-5.97,2.48-8.67,4.17-1.35.84-2.07,2.68-3.42,4.54-5.37-2.2-10.8-4.6-15.06-8.68-5.34-5.1-11.07-9.66-16.91-14.14-3.71-2.84-7.05-6.24-10.21-9.69-3.52-3.84-6.86-7.88-9.87-12.12-1.71-2.41-3.29-5.1-2.68-8.54.25-1.41-.69-3.03-1.36-5.58-1.71,6.07-4.8,9.7-10.05,11.12-4.61-4.36-5.64-9.16-3.17-14.5q-4.24-2.05-1.69-5.88c-1.23-.75-3.18-1.29-3.5-2.32-.39-1.28.45-3.02,1.01-4.46.3-.78,1.3-1.27,1.7-2.03,1.1-2.09,0-5.8-2-5.87-5.22-.19-7.41-3.69-9.5-7.57-.31-.57-1-.93-1.28-1.18,1.47-4.33,2.62-8.42,4.28-12.29.71-1.65,2.48-2.85,4.08-4.59-.41-.43-.88-1.08-1.5-1.54-1.65-1.23-1.6-2.52-.63-4.22,3.8-6.6,8.12-13.02,14.07-17.61,5.56-4.3,11.97-7.87,19.28-8.8,1.18-.15,2.58,0,3.62.53,2.53,1.27,5.1,2.61,7.32,4.34,6.84,5.34,13,2.8,18.18-1.22,2.51-1.95,4.56-4.54,6.72-6.91,1.66-1.82,3.03-1.88,4.93.02,2.7,2.7,2.87,9.66.42,12.92-1.36,1.81-2.5,3.77-3.98,6.02,1.59.38,2.68.46,3.61.9,2.98,1.41,6.5,2.34,6.78,6.56.16,2.43,1.53,3.36,3.65,2.37,2.68-1.24,3.49.43,4.59,2.24.8,1.32,1.9,2.48,2.99,3.59,4.57,4.67,10.21,8.18,13.04,14.7,1.65,3.8,5.48,6.63,8.15,10.03,4.94,6.3,9.73,12.71,14.63,19.04,1.81,2.34,1.32,4.58-.39,8.11-.98-6.43-6.1-8.76-8.5-13.43-2.79-5.42-7.73-9.73-11.71-14.54-1.61-1.95-3.34-3.84-4.7-5.96-3.04-4.73-6.8-8.8-10.97-12.5-1.6-1.42-3.63-2.36-3.4-5.08.05-.62-.92-1.57-1.63-1.95-2.05-1.08-8.86.12-10.41,1.83-4.69,5.14-9.34,10.32-13.9,15.57-.79.9-1.7,2.34-1.52,3.34.71,3.89-1.07,7.56-.17,11.65.78,3.51-.99,7.58-1.64,11.47ZM109.05,120.05c-3.37.46-5.27,2.11-6.97,4.24-1.98,2.47-3.71,5.41-6.24,7.09-3.17,2.1-4,4.84-4.51,8.14-.23,1.51-.64,3.11-1.44,4.38-3.77,6.02-7.69,11.94-11.59,17.87-1,1.51-2.07,2.99-3.26,4.36-5.95,6.85-12.06,13.56-17.83,20.56-1.18,1.43-2.14,2.31-3.89,2.22-2.67-.14-3.88,1.05-4.24,3.74-.62,4.64-1.62,9.22-2.29,13.85-.09.64.81,1.42,1.5,2.53,1.57-1.52,2.94-2.67,4.08-4.01,3.16-3.68,6.04-7.61,9.4-11.09,1.68-1.74,4.02-3.44,6.3-3.89,3.72-.73,7.46-2.3,11.56-.14,3.08,1.62,6.85,1.94,10.91,3,.67-2.26,1.53-4.05,1.67-5.89.36-4.62.69-9.28.41-13.89-.11-1.78.29-2.96.91-4.48,2.82-6.95,7.78-12.12,13.85-16.07,3.49-2.27,4.67-4.66,3.57-8.41-.54-.38-.96-.74-1.44-1-1.27-.7-2.55-1.38-3.84-2.03-3.12-1.57-3.83-2.77-2.69-5.88,1.78-4.85,3.82-9.6,6.08-15.21ZM82.42,133.48c-2.08-1.67-3.74-3.06-5.48-4.37-2.49-1.87-4.57-1.15-5.66,1.87-1.44,3.99-4.4,7.33-5.06,11.68-.1.66-.58,1.57-1.12,1.8-2.96,1.25-3.77,4.26-5.21,6.58-2.6,4.18-5.02,8.34-9.76,10.47-.43.19-.88.68-1.01,1.12-1.11,3.97-4.73,5.75-7.82,6.61-3.05.85-3.38,2.48-4.12,4.45,3.13,2.89,6.28,3.9,9.9,1.51,2.95-1.95,6.05-3.69,8.81-5.87,1.28-1.01,2.35-2.56,1.75-4.71-.98-3.47.84-5.39,4.27-6.46,1.14,1.06,2.27,2.12,3.97,3.7,5.41-9.29,10.74-18.44,16.54-28.38ZM33.86,168.67c2.1-.74,3.4-.98,4.45-1.62,1.79-1.1,3.45-2.41,5.12-3.71,1.82-1.41,3.77-2.72,5.33-4.38,3.96-4.24,6.44-9.76,11.42-13.15.4-.28.22-1.32.45-1.96.42-1.13.81-2.31,1.44-3.33,2.16-3.48,4.48-6.85,6.6-10.35,1.06-1.75,1.73-3.68-.51-4.85-2.75.92-5.38,1.51-7.73,2.66-1.89.93-3.78,2.27-5.08,3.9-2.99,3.77-5.77,7.74-8.37,11.79-4.33,6.75-8.5,13.61-12.62,20.49-.49.83-.27,2.08-.51,4.51ZM46.59,187.36q3.29-2.94,6.9-2.54c3.02-6.58,10.85-9.22,13.64-16.22.28-.71,1.41-1.05,2.11-1.62.66-.54,1.68-1.07,1.82-1.75.68-3.34,3.45-4.95,5.49-7.21,1.52-1.69,2.72-3.67,4.04-5.54.82-1.15,1.65-2.3,2.41-3.49.86-1.34,1.74-2.67,2.47-4.08.99-1.91,1.95-3.85,2.74-5.85.61-1.56.95-3.22,1.49-5.14-1.7-.3-2.73-.49-4.18-.75-.54,2.04-1.04,3.92-1.55,5.8-.33,1.22-.4,2.62-1.07,3.6-1.69,2.48-3.88,4.62-5.44,7.17-2.03,3.32-5.45,5.57-6.79,9.47-.6,1.74-2.34,3.08-3.41,4.41-1.96-.14-3.46-.24-5.51-.39.55,1.87.92,3.13,1.46,4.96-6.08,4.38-12.23,8.8-18.35,13.21.6,2.03,1.17,3.96,1.75,5.93Z"/><path class="cls-1" d="M530.73,241.34c-6.8-4.82-6.98-5.26-4.32-11.48-2.15-2.17-4.58-2.84-7.75-2.34-2.9.46-5.95.22-8.9-.03-2.42-.21-4.87-3.4-4.6-5.88.29-2.62.9-5.2,1.35-7.66-3.9-2.46-7.74-4.94-11.64-7.29-.85-.51-1.98-.53-2.94-.88-5.02-1.83-10.08-3.55-15.01-5.6-2.47-1.03-4.03-4.64-3.42-7.34.67-2.94,1.09-6.47,5.12-6.61,5.22-.18,10.29-3.36,15.82-.09,1.57.93,4.58.09,6.85,1.28,3.15,1.64,6.51,2.88,9.65,4.53,2.81,1.48,5.67,2.36,8.73,2.51.2-.36.39-.72.59-1.08-1.28-1.04-2.43-2.35-3.88-3.08-4.99-2.53-6.78-7.23-8.17-12.05-.95-3.27.96-5.29,4.44-4.78,2.45.36,4.81,1.41,7.19,2.19,4.88,1.6,10.04,2.53,14.32,5.6,1.54,1.11,2.74,2.67,4.22,3.87,5.59,4.51,9.36,10.39,12.79,16.56q2.6,4.68,6.73,1.33c.42-.34.93-.56,1.68-1,5.81,1.23,10.25,4.39,12.7,10.18.41.96,1,1.92,1.74,2.65,2.68,2.66,3.95,5.96,4.85,9.53.97,3.85,2.38,7.3,5.75,10.04,4.76,3.87,8.23,8.96,10.96,14.49.78,1.59,1.12,3.23-.62,4.34-1.24.78-2.61,1.11-3.84-.41-3.48-4.33-7.06-8.58-11.16-13.53-4.21-.94-8.96.39-14.17,3-1-2.65-1.9-5.06-2.88-7.66-3.26.36-6.45.67-9.63,1.09-.66.09-1.4.46-1.86.93-3.86,3.98-8.39,4.81-13.74,3.73-2.12-.43-4.54.58-6.94.96ZM476.17,194.12c5.96,4.46,12.05,6.8,18.27,8.88,1.34.45,2.71.85,3.97,1.46,3.52,1.7,7,3.5,11.93,5.99,3.14,2.88,1.25,6.8-1.98,10.62,1.56,1.37,2.88,2.53,4.49,3.94,2.38-2.04,5.04-3.48,8.07-.89.28.24,1.07.17,1.45-.05,3.03-1.7,4.83.58,6.56,2.23,2.12,2.03,2.79,4.61,1.25,7.45-.4.74-.5,1.64-.78,2.61,3.07.39,6.11,1.64,8.57.91,6.18-1.81,12.1-4.53,18.13-6.84.78-.3,1.67-.53,2.49-.48,6.27.39,6.26.42,8.81,6.36.11.25.59.34,1.13.63,1.16-1.23,2.38-2.52,3.94-4.18-5.48-3.63-10.68-7.43-16.23-10.61-3.96-2.27-7.76-4.99-12.53-5.73-3.14-.49-6.21-1.55-9.23-2.6-.61-.21-.85-1.51-1.78-3.29,3.29.63,5.6.83,7.74,1.53,3.53,1.16,6.88,2.87,10.43,3.94,6.07,1.84,12.25,3.31,16.05,9.13.45.69,1.4,1.16,2.22,1.5,2.16.91,4.38,1.7,6.57,2.53-2.88-8.64-5.86-17.23-13.39-23.69-.97.9-2.27,1.56-2.61,2.55-.44,1.26-.11,2.79-.11,4.47-1.7.4-3.21.76-4.94,1.17-3.56-5.17-7.46-9.93-10.3-15.25-2.21-4.14-5.98-6.74-8.4-10.43-2.97-4.54-8.05-4.18-12.02-6.31-2.79-1.5-6.05-2.16-9.14-3.06-.88-.26-1.89-.04-4.01-.04,1.67,2.23,2.47,4.47,3.91,5,5.13,1.89,7.16,7,11.16,10,.56.42.54,1.63.76,2.39-4.2,3.29-10.32,3.93-15.83,1.56-4.26-1.83-8.46-3.84-12.63-5.87-6.32-3.08-12.63-1.94-18.91,0-.94.29-1.66,1.3-3.09,2.48Z"/><path class="cls-1" d="M363.26,17.77c-.93-4.23-.92-4.21,2.81-6.59,2.56-1.63,4.89-3.8,7.65-4.87,2.76-1.07,6.16-2.02,8.88-1.36,5.99,1.44,11.92,3.59,16.76,7.67,1.17.99,1.59,2.81,2.63,4,3.21,3.69,8.09,4.24,12.66,1.21,2.96-1.96,6.58-2.93,8.7-6.24.96-1.5,1.83-1.27,5.02-.26-1.06,4.84-2.28,9.56-6.06,13.22-.63.61-1.49,1.52-1.44,2.23.48,6.18-5.62,6.38-8.68,9.11-1.32,1.18-5,.09-7.47-.52-2.03-.5-3.85-1.83-5.79-2.75-.65-.31-1.57-.27-2-.74-1.67-1.79-3.12-3.79-4.79-5.59-1.59-1.72-3.34-3.28-5.81-5.68-7.22-1.17-13.63,2.38-18.62,8.95-3.12,4.1-7.8,6.54-12.18,7.24-6.31,1-13.06.21-17.89-5.5-1.61-1.9-3.79-3.33-5.74-4.94-5.22-4.33-8.9-3.88-15.58,1.01-4.04,2.96-7.44,6.8-11.19,10.17-1.07.96-2.26,2.21-3.55,2.43-4.53.76-8.32,4.4-12.85,4.04-3.01-.24-6-2.29-8.74-3.95-2.41-1.46-5.43-3.08-6.44-5.39-1.57-3.6-4.37-5.32-7.04-7.62-3.35-2.88-7.07-3.38-11.13-3.11-4.09.28-8.18.65-12.26,1.01-4.44.39-8.24-.63-10.67-5.09-2.78,1.36-4.26,3.16-5.53,5.99-1.29,2.87-4.29,4.98-6.79,7.69-3.76-4.72,1.05-6.05,2.21-8.54-2.08-1.03-3.99-2.11-6.02-2.93-2.22-.89-2.18-2.77-1.07-3.88,1.06-1.05,3.06-1.18,4.66-1.63.17-.05.51.46.76.72,2.14,2.31,4.51,2.53,7.19.91.9-.54,1.97-.79,3.22-1.27.14-5.08,2.88-8.93,6.43-12.41,3.99-3.91,13.18-5.73,18.58-3.67,1.66.63,3.53.71,5.2,1.32,1.42.51,2.69,1.42,3.93,2.58-3.38-.64-6.7,3.6-9.97-.17-9.01-1.11-17.28.19-19.82,12.37,2.65,3.74,7.01,2.86,10.7,3.32,3.62.45,7.28.75,11.06-.4,2.11-.64,5.17.12,7.21,1.28,4.63,2.65,8.98,5.81,11.81,10.6.98,1.66,1.91,3.36,4.4,3.56,1.19.1,2.22,1.63,3.4,2.4,2.8,1.85,5.6,3.4,8.94.86.92-.7,2.38-.65,3.5-1.15,1.75-.77,3.63-1.46,5.08-2.64,2.91-2.39,5.42-5.28,8.37-7.62,3.03-2.41,6.16-4.89,9.65-6.44,2.57-1.14,5.79-1.19,8.7-1.08,3.18.12,5.28,2.37,7.54,4.58,3.81,3.74,8.05,7.12,13.12,9.13,3.1,1.23,5.35-1.24,7.8-2.35,3.51-1.6,6.83-3.64,10.13-5.66.8-.49,1.2-1.64,1.76-2.5,1.63-2.46,3.48-4.75,6.74-4.68,3.98.08,7.79-2.89,11.88-.58,1.38.79,3.04,1.23,4.19,2.26,2.89,2.57,5.31,5.71,8.4,7.97,2.17,1.59,5.06,2.57,7.76,3.02,6.25,1.04,7.65-.05,10.19-6.21.58-1.41,1.48-2.68,2.38-4.26-2.59-.9-4.04.3-5.48,1.7-3.68,3.58-10.91,2.91-13.27-1.43-1.33-2.45-2.53-4.19-5.77-3.74-1.08.15-2.45-1.04-3.51-1.86-1.28-.98-2.23-2.4-3.54-3.3-5.53-3.79-11.18-3.57-17.19.25-1.76,1.12-4.07,1.26-4.64,4.02-.16.76-2.33,1.1-3.58,1.64,0,0,.11.12.11.12Z"/><path class="cls-1" d="M493.35,46.26c4.96,3.88,11.21,17.72,12.46,28.27-4.47.66-4.74,5.23-7.13,7.99-2.54,2.93-3.03,6.5-3.82,10.28-1.25,6.02,1.42,11.3,1.37,16.96,0,.83.54,1.76,1.07,2.47,2.05,2.71,3.51,5.66,4.56,8.9.65,2.01,1.76,3.27,4.42,3.85,3.47.75,6.86,2.72,9.83,4.81,6.28,4.42,13.12,2.94,19.89,2.53,3.27-.2,6.52-.56,10.19-.89,3.83-2.71,8.22-5.8,12.6-8.91,3.13-2.23,7.01-3.75,6.96-8.69-.02-2.01,3.06-2.19,3.04-5.17-.03-5.32-1.28-10.56-.73-15.89.19-1.79-.19-3.68.23-5.4.84-3.48.18-6.36-2.36-8.9-2.52-2.52-4.52-5.86-7.49-7.52-3.09-1.73-7.03-2.09-10.66-2.68-2.81-.46-5.72-.35-8.59-.48-7.81-.36-13.6-3.72-16.68-11.16-.21-.5-.42-1.22-.81-1.38-4.37-1.75-4.5-6.85-7.63-9.58-.74-.65-1.42-1.96-1.3-2.85.14-1.03,1.02-2.27,1.93-2.76.62-.34,1.91.32,2.79.76.38.19.57.9.73,1.41,2.47,7.89,9.14,12.91,13.41,19.58,1.54,2.41,5.13,3.31,7.79,1.97,2.95-1.48,5.41-1.04,8.16.37,1.68.87,3.85,1.91,5.49,1.53,5.19-1.21,8.04,2.98,11.95,4.61,1.13.47,1.85,2.13,2.54,3.36.42.75.22,1.87.67,2.57,5.93,9.19,3.24,19.8,4.99,29.67-2.08,4.68-4.02,9.43-6.28,14.02-2.94,5.97-9.34,8.1-14.02,12.16-.26.23-.64.35-.98.44-6.14,1.61-12.23,3.47-18.44,4.72-4.45.89-8.86.38-13.14-1.83-3.28-1.69-6.93-2.59-10.36-4.23-11.43-5.46-16.65-14.87-19.14-26.62-1.57-7.41.58-14.38,2.41-21.21,1.05-3.94,4.49-7.24,7.53-11.86-2.09-6.11-4.5-13.16-7.02-20.53-3.29.32-6.05.59-9.28.9-1.71-3.12-2.35-6.52-2.35-10.41,0-4.41,2.37-6.56,5.8-8.23-3.95-4.66-8.15-8.75-9.41-14.75,2.25-3.21,6.55-4.16,7.79-8.05.12-.39,1.63-.3,2.47-.5,1.13-.26,2.26-.56,3.37-.9.5-.15.94-.62,1.42-.65,3.87-.19,10.56,5.37,11.26,9.32.22,1.24.34,2.5.59,3.73.91,4.63.92,4.64,5.71,4.65,2.53,0,4.94,2.2,7.63.33.31-.21,1.62.64,2.17,1.26.96,1.07,1.65,2.37,2.51,3.53,2.61,3.57,2.6,5.79-.41,8.86-.75.76-2.12.91-3.2,1.34-.17-1.15-.59-2.34-.43-3.44.11-.75,1.05-1.37,1.69-2.14-1.67-1.8-3.25-3.5-5.01-5.39-2.83,1.36-5.38.56-8.25,0-5.05-.98-10.3,0-14.75,3.18-.56.4-.95,1.46-1.45,1.48-6.81.36-5.05,5.26-5.01,9.27,0,.89-.08,1.77-.17,3.51,2.32-.54,4.24-.98,6.87-1.59ZM489.28,29.73c3.06-.87,5.92-1.35,8.47-2.51,2.07-.94,3.56-2.48,3.41-5.45-.31-6.19-4.86-8.03-8.89-10.3-3.16,2.8-6.03,5.33-8.85,7.83,1.93,3.43,3.85,6.84,5.86,10.43Z"/><path class="cls-1" d="M77.65,67.28c-.08-.47-.07-.1.05.24,2.17,5.93-1.08,10.25-4.31,14.57-.65.87-1.56,1.62-1.97,2.58-2.3,5.48-6.36,9.22-10.99,12.82-4.02,3.12-8.46,3.78-12.91,3.66-8.64-.23-15.84-4.58-22.88-9.26-4.46-2.96-7.77-7.08-11.82-10.43-1.69-1.4-2.92-3.63-3.77-5.73-1.96-4.78-5.64-8.62-6.57-14.07C1.94,58.51-.25,55.65.02,52.07c.28-3.7.16-7.42.2-11.14.03-3.75,2.45-6.62,3.53-9.83,1.09-3.23,3.24-4.49,5.23-6.2,5.15-4.41,9.89-9.48,16.67-11.57.82-.25,1.9-1.14,2.37-.87,3.54,2.04,8.32.6,11.32,4.13.52.61,1.64.68,2.42,1.12,5.14,2.94,10.67,5.4,15.26,9.05,3.51,2.79,5.62,7.28,8.74,10.65,3.22,3.47,5.45,7.59,7.39,11.68,2.55,5.38,5.4,10.96,4.5,18.19ZM48.01,97.18c5.05,2.43,8.82-1.6,11.59-4.29,5.07-4.94,4.3-12.56,5.85-19.1.04-.17.06-.43-.04-.53-2.73-2.95-2.19-7.01-3.54-10.37-2.1-5.22-2.96-11.17-7.66-15.12-.5-.42-.49-1.39-.94-1.93-3.84-4.71-6.97-10.45-11.78-13.79-6.26-4.36-14.14-5.35-21.92-4.18-3.11.47-5.82,1.91-7.65,4.62-2.3,3.41-4.26,7.09-6.88,10.23-3.15,3.77-2.33,7.85-1.44,11.77,1.47,6.47,4.03,12.56,8.2,17.88,1.31,1.67,2.17,3.69,3.53,5.29,2.08,2.45,4.41,4.68,6.64,7,.85.89,1.58,1.96,2.58,2.61,2.98,1.93,6.01,3.81,9.15,5.48,4.39,2.35,8.54,5.58,14.29,4.44ZM60.85,52.32c2.41,1.59,4.63,3.06,6.98,4.62-.64,1.59-1.25,3.06-1.85,4.54,1.87-.52,2.73-1.83,3.94-2.5,2.43-1.34,2.21-2.68.9-4.76-1.57-2.5-2.7-5.28-3.94-7.8-1.77,1.73-3.56,3.49-6.03,5.9ZM56.19,33.97c-1.52,1.96-2.55,3.29-3.62,4.67.94,1.01,1.66,1.79,2.38,2.57,5.31-4.97,5.32-6.11.1-10.41-1.05-.87-2.23-1.58-3.7-2.62-1.3,1.9-2.36,3.43-3.97,5.78h8.81ZM69.39,79.25q5.22-4.84,4.16-9.25c-1.48.29-2.97.58-4.84.95.19-1.73.34-2.99.52-4.64-.9.43-1.75.67-1.74.86.23,4.01-1.36,8.29,1.9,12.08ZM19.06,22.8c5.61,2.34,10.09.25,10.96-5.29-5.62-2.28-7.7,2.77-10.96,5.29ZM32.59,25.24c2.75-.42,5.38-.82,8.03-1.22-.2-3.72-2.26-4.53-4.48-3.8-1.85.61-4.86,1.18-3.55,5.02ZM57.06,43.79c1.4,1.23,2.44,2.15,3.52,3.1,1.47-1.29,2.78-2.43,4.02-3.52-1.37-5.08-1.42-5.08-7.54.43ZM48.07,26.02c-2.04-.76-3.45-1.73-3.94-1.39-1.44,1-3.47,2.17-1.71,4.84,1.51-.92,2.96-1.81,5.66-3.45Z"/><path class="cls-1" d="M368.22,133.59c-.72,2.9-2.78,4.18-5.84,4.18-.99,0-2.22.29-2.94.92-7.32,6.43-16.26,9.52-25.11,13.07-3.77,1.51-7.63.29-11.19,2.13-1.01.52-3.12-1.08-4.56-1.65.09-3.07,1.66-3.86,3.65-3.3,4.79,1.34,8.89-.33,13.46-1.65,9.59-2.78,16.72-9.93,25.94-13.49-6.48-1.49-12.95-2.98-19.52-4.49-3.43,4.46-8.71,6.23-13.96,7.78-2.48.73-4.69,1.27-6.45,3.44-1.61,1.98-3.8,3.49-6.59,5.95.16,1.42.46,4.1.83,7.46-4.53-.36-8.53-2.14-12.51-4.37-3.82-2.15-9-2.94-11.54-6.02-2.97-3.6-8.79-3.71-9.67-8.57-3.82-.34-7.33-.53-10.8-1-1.82-.25-3.33-2.9-2.6-4.57.29-.66,2.14-1.44,2.41-1.19,5.3,4.7,10.16,1.93,15.39-.32,4.45-1.92,9.31-2.87,13.98-4.27.68-.21,1.45-.39,1.97-.83,4.8-4.01,10.9-3.99,16.55-5.29,1.41-.33,3.26-.09,4.54.58,10.72,5.66,21.92,9.45,34.17,9.93,3.33.13,6.73,2,9.92,1.61,5.4-.65,11.05,1.35,16.26-1.5.61-.33,1.85.48,2.79.75-.33.93-.43,2.08-1.06,2.73-.83.85-2.02,1.69-3.15,1.86-3.27.5-6.58.78-9.89.91-1.38.06-2.78-.47-4.5-.8ZM294.36,140.63c4.64-8.12,7.6-11.52,12.99-9.78-1.29-3.97,5-3.77,4.11-8.06-3.89,1.61-7.44,3.19-11.07,4.56-4.22,1.6-8.52,2.98-12.75,4.55-.85.32-1.56,1.03-2.5,1.67,3.32,2.54,6.24,4.78,9.22,7.06ZM306.03,141.16q-2.27,3.86.66,4.7c-.18-1.28-.34-2.41-.66-4.7ZM304.18,136.04c-2.52.36-2.91,1.75-2.98,3.74,2.86.16,3.47-1.06,2.98-3.74Z"/><path class="cls-1" d="M445.3,195.4c2.68,5.11,3.05,2.96-1.13,10.31-3.38,1.29-6.05,2.37-8.78,3.3-.74.25-1.65,0-2.48-.03.07-.98-.25-2.42.27-2.86,1.48-1.23,3.21-2.33,5.02-2.98,3.16-1.14,4.62-3.16,4.48-7.41-2.37,1.24-4.77,1.81-6.09,3.32-2.3,2.65-4.58,2.18-7.99,1.16,1.02-1.26,1.56-2.4,2.45-2.92,1.78-1.03,4.72-1.24,5.43-2.67,1.07-2.14,2.71-2.81,4.42-3.53,2.2-.93,3-2.57,3.01-4.66,0-2.03-.3-4.07-.51-6.57-3.48,1.91-6.83,1.97-10.04-.46-2.12-1.6-3.21-3.3-1.74-5.94,1.21-2.18,2.27-4.45,3.71-7.28-1.13-1.72-2.54-3.84-4.32-6.55-1.19,1.94-1.7,3.23-2.6,4.12-1.43,1.41-6.51,2.19-7.6,1.42-3.71-2.61-4.76-6.61-3.35-10.35,1.59-4.23,3.8-8.67-.29-13.34-.72.64-1.35,1.11-1.87,1.68-2.93,3.19-6.09,3.01-8.68-.46-.64-.86-1.43-1.62-2.23-2.34-.8-.72-1.69-1.34-1.89-1.49-3.46-11.17.1-20.39,5.19-29.67-1.36-1.61-2.96-3.54-4.62-5.43-.32-.36-.98-.83-1.29-.72-3.73,1.32-3.52-1.64-4.68-3.93,1.47-.31,2.81-1.04,3.42-.65,5.82,3.75,11.96,7.18,15.32,13.71,1.85,3.59,2.88,7.57,6.16,10.43,2.86,2.49,1.6,6.05,1.1,9.12-.42,2.6-1.58,5.09-2.52,7.96,1.49,1.67,2.86,3.23,1.88,6.34-1,3.17,1.96,6.14,4.62,7.18,5.35,2.09,7.82,6.72,10.92,10.73,5.29,6.83,7.99,14.66,9.04,23.36.39,3.24,1.34,5.72-1.72,8.1ZM411.8,113.3c-6.66,7.33-7.09,7.38-6.21,15.81.45,4.27-1,9.59,3.79,12.68,4.56-1.69,8-4.6,9.6-8.96,1.04-2.83,2.08-6.08-.07-9.07-1.44-2.01-2.9-3.99-4.3-6.03-.95-1.39-1.81-2.84-2.81-4.42ZM424.54,155.89c-.16-.28-.32-.55-.48-.83l-2.35,1.36c.16.28.32.55.48.83.79-.45,1.57-.9,2.36-1.36Z"/><path class="cls-1" d="M521.31,79.38c5.36-3.83,11.7-3.42,16.55,1q3.88,3.54,8.43,1.02c9.01,3.97,10.12,5.35,8.64,11.21.93.84,1.89,2.45,3.08,2.64,3.26.51,3.51,3.33,4.72,5.36.97,1.63.87,3.23-.33,5.04-1.94,2.92-2.63,6.74-6.6,8.08-.67.23-.98,1.4-1.54,2.08-1,1.21-1.86,2.72-3.14,3.5-3.53,2.13-7.3,3.86-10.87,5.92-2.91,1.68-5.94,1.75-8.74.36-1.85-.92-3.34-.75-5.16-.39-7.49,1.48-13.54-1.52-17.11-8.18-.75-1.4-1.71-2.77-2.87-3.83-4-3.65-5.44-8.37-5.8-13.51-.08-1.12.65-2.29.98-3.45.17-.62.61-1.59.37-1.83-3.49-3.41.09-5.77,1.17-8.5,1.31-3.34,3.84-5.34,6.9-7.06,4.03-2.27,7.68-1.21,11.34.54ZM514.6,80.98c-4.98,2.64-8.63,5.57-9.25,11.76-.25,2.48.77,4.5.5,6.76-.75,6.27,2.45,11.29,5.98,15.75,3.09,3.91,7.05,6.87,13.09,5.28,2.76-.73,6.3-1.52,9.35.91.8.64,3.01-.18,4.42-.72,1.65-.64,3.05-2.2,4.71-2.5,5-.9,8.11-4.59,11.68-7.5,4.01-3.26,4.89-7.54,2.85-12.44-1.24-2.97-3.92-3.95-6.77-2.35-2.61,1.47-5.33,2.76-8.21,4.23-1.17-2.06-2.08-3.83-3.14-5.49-1.68-2.64-4.36-3.86-6.8-3.25-3.21.8-4.81,2.44-5.17,5.73-.2,1.82-.7,3.12-2.68,3.52-1.57.32-3.08.94-4.66,1.18-2.18.32-6.64-1.86-7.32-3.72-.88-2.41-.11-4.58,1.72-6.39.63-.63,1.03-1.7,1.76-1.99,2.92-1.14,2.85-3.29,2.31-5.8-1.34-.92-2.68-1.83-4.38-2.99ZM523.31,96.97c1.22-6.45,6.56-10.81,12.6-10.5.96.05,2.02.67,2.79,1.31,2.31,1.93,4.49,4.01,6.54,5.87,2.46-.96,4.42-1.73,7.21-2.82-1.21-1.68-1.89-3.62-3.14-4.12-1.86-.74-4.17-.79-6.21-.53-2.92.37-5.28-.7-7.3-2.37-3.63-3.01-7.37-4.64-11.03-2.95-.87,2.89-.86,6-2.27,6.92-3.73,2.43-3.67,6.34-6.28,10.59,3.28-.64,5.27-1.03,7.1-1.39Z"/><path class="cls-1" d="M117.97,202.93c2.41-1.78,4.22-3.13,6.05-4.46,3.58-2.6,10.15-1.46,12.44,2.23.27.43-.12,1.27-.26,2.45-5.38-3.16-10.18-1.55-15.06,1.45,4.54.55,9.08,1.1,14.44,1.75-1.16,1.58-1.7,2.85-2.12,2.82-4.53-.38-9.25,1.49-13.54-1.07-4.54,1.91-5.11,6.61-6.77,10.3-1.27,2.82-3.19,4.16-5.54,3.77-1.45-.24-2.73-2.55-3.7-4.17-.59-.98-.47-2.4-.72-3.97-1.48.12-3.05-.15-4.2.42-4.85,2.41-8.99-.05-13.23-1.69-1.96-.76-3.35-5.15-2.9-7.62.51-2.8,2.54-2.69,4.72-3.33,3.94-1.15,7.57.13,11.32.36.6.04,1.16.72,2.17,1.39-.99.64-1.92,1.59-2.28,1.42-3.37-1.72-6.58-.12-9.78.39-2.5.4-2.95,2.05-1.35,3.81,2.71,3,6.2,2.45,9.59,1.86,2.77-.48,4.21-2.14,4.7-5.1.71-4.32.94-4.28,5.22-8.38-1.17-5.63-2.35-11.28-3.68-17.65,3.05-1.16,5.74-2.45,8.57-3.15,2.06-.51,3.15.68,4.33,2.81,2.81,5.06,2.28,10.09,1.63,15.36-.3,2.4-.05,4.86-.05,7.99ZM111.57,197.26l1.43.98c.69-1.23,1.97-2.46,1.97-3.68-.02-4.08-.31-8.19-.94-12.22-.15-.98-1.88-2.19-3.05-2.41-1.43-.26-2,1.08-1.88,2.57.18,2.31-.57,5.26.58,6.81,1.88,2.53,2.06,5.07,1.89,7.94ZM106.32,202.74q.06,4.77,3.66,7.51,4.95-2.34,5.47-6.82c-1.51-.77-3.07-1.56-4.36-2.22-1.82.58-3.32,1.06-4.77,1.52ZM109.72,212.63q-1.68,1.97,0,5.54v-5.54Z"/><path class="cls-1" d="M355.06,91.35c-.59,3.5-.11,7.17-2.65,10.4-2.58-2.08-1.54-4.81-2.05-7.33-5.77-2.57-7.82,3.96-12.24,5.16-3.64-3.59-8.17-3.06-12.38-1.55-7.16,2.58-13.43.68-19.62-2.71-1.2-.66-2.4-1.33-3.82-2.12,2.83-2.33,5.52-2.75,8.62-1.2,4.77,2.39,9.68,3.04,15.09,2.05,4.07-.75,8.39-.15,13.11-.15,3.46-4,8.47-6,14.62-5.63,1.07.06,2.45-1.22,3.31-2.21,4.95-5.71,10.54-8.13,18.52-6.75,9.38,1.63,14.87,6.84,18.37,15.02.41.95.68,2.19.43,3.15-1.31,4.98-2.54,10.08-7.79,12.65-3.36,1.65-6.34,4.27-10.59,3.37-3.63-.76-7.12-1.27-10.26-3.86-2.53-2.09-6.05-2.95-9.05-4.51-.83-.43-1.38-1.38-2.06-2.09,1.02-.46,2.24-1.53,3.01-1.26,2.92,1.01,6.28.96,8.17,4.53.86,1.63,3.86,2.96,5.9,2.96,4.08,0,8.27-.62,12.21-1.73,2.03-.57,4.99-2.62,5.11-4.19.31-3.93,1.57-8.09-1.5-11.97-6.56-8.31-21.9-11.7-29.87-1.39-.57.73-1.79.95-2.61,1.36Z"/><path class="cls-1" d="M119.23,99.04c-1.41,2.24-2.7,4.29-4.56,7.25-1.91-2.59-4.03-4.24-4.39-6.21-.76-4.13-3.55-4.62-6.69-4.94-1.78-.18-3.58-.03-5.52-.03-1.45-2.96-1.34-5.06,1.32-7.59,8.37-7.94,6.27-9.38.48-16.34-.48-.57-.84-1.68-.6-2.29.26-.66,1.27-1.42,1.97-1.44,1.79-.05,3.74-.09,5.35.55,6.69,2.66,13.12,1.74,19.27-1.35,1.94-.97,3.25-.48,4.33.58.67.65.73,2.2.62,3.31-.26,2.82-.76,5.61-1.07,7.74,3.64,2.48,6.77,4.47,9.75,6.67,1.84,1.36,1.87,3.07-.06,4.46-1.69,1.21-3.29,2.06-5.67,2.41-3.61.53-7.99.68-10.33,4.86-.64,1.14-2.64,1.53-4.2,2.36ZM126.01,70.3c-2.42.72-4.42.71-5.35,1.71-2.72,2.92-5.17,3.1-8.5.97-1.17-.75-3.91-.57-4.95.33-1.85,1.59-.88,3.98.12,5.97.24.47.59.97,1.02,1.25,2.03,1.3,2.04,3.29,1.88,5.31-.15,1.94-.4,3.87-.62,6.02,1.04.3,1.97.57,3.53,1.02-.4-3.31-.58-5.98-1.08-8.58-.52-2.73.14-4.76,3.22-6.71.25,2.82.41,5.09.7,7.34.05.36.67.64,1.24,1.14.38-1.54.69-2.79,1-4.05,1.7,1.35,2.53,2.86,3.01,4.48.5,1.67.65,3.44,1,5.44,5.06-1.93,9.65-3.68,14.74-5.62-4-2.05-7.23-3.71-10.94-5.61v-10.41ZM117.37,87.99c-1,2.82-.74,5.8-4.23,6.52.24,2.02.43,3.66.65,5.47,2.39-1.95,4.48-3.66,6.24-5.09-1.08-2.8-1.87-4.85-2.66-6.91ZM101.98,91.7c1.66-.21,2.65-.34,3.99-.51-.2-1.72-.37-3.21-.67-5.89-1.38,2.67-2.16,4.17-3.32,6.41Z"/><path class="cls-1" d="M201.52,155.99c.42-1.74.65-2.7.94-3.92-2.09-.26-5.28,2.31-6.01-2.27,1.6-1.08,3.29-2.21,5.43-3.65-1.25-.73-1.93-1.31-2.72-1.55-7.44-2.31-13.71-6.7-20.04-11.01-1.91-1.3-4.02-2.37-5.71-3.91-.66-.6-.41-2.19-.57-3.33,1.01-.08,2.25-.57,2.98-.15,3.47,1.98,7,3.56,11.02,4.09.95.12,1.75,1.23,2.64,1.84,2.02,1.39,3.91,3.09,6.12,4.05,4.06,1.76,8.36,2.93,11.23,6.72.57.75,1.79,1,3.49,1.9-.86-3.37-.54-6.2-3.81-7.68-.87-.39-1.75-2.07-1.62-3.01.14-1,1.48-2.55,2.31-2.56,1.21-.02,2.85.83,3.56,1.84,1.44,2.04,2.79,4.32,3.43,6.7.89,3.32,2.8,5.71,5.13,8.03,1.22,1.22,2,2.88,2.82,4.1-1.8,4.73-5.23,5.73-9.32,5.29-3.67-.39-7.32-.98-11.31-1.52Z"/><path class="cls-1" d="M363.15,17.65c-1.7,5.46-4.16,6.95-9.07,6.76-5.67-.22-9.86-2.44-13.15-7.01-.96-1.33-2.93-2.68-4.47-2.71-4.23-.09-6.71-2.95-9.62-5.15-2.15-1.62-4.33-2.59-7.03-1.67-.68.23-1.43.54-2.1.46-8.48-1.01-13.47,4.67-18.77,9.74-1.15,1.1-2.19,2.32-3.22,3.53-2.98,3.47-4.23,3.8-7.99,1.86-3.17-1.64-5.78-3.66-7.95-6.81-2.11-3.07-4.75-6.28-9-7.3-1.76-.42-3.27-1.85-5.18-3,3.25-2.07,5.42-1.85,7.55.05,1.44,1.29,3.15,2.29,4.59,3.58,3.05,2.72,6.01,5.55,9.02,8.33,3.77,3.48,4.09,3.28,7.59-.63,3.34-3.73,6.72-7.62,10.79-10.42,2.97-2.05,7.01-2.72,10.67-3.55,5.67-1.28,10.89.38,15.82,3.19,3.71,2.12,7.2,4.27,10.13,7.67,2.33,2.7,6.18,4.14,9.46,5.95,2.59,1.43,4.85-.28,7.17-1.18,1.59-.61,3.24-1.05,4.86-1.57,0,0-.11-.12-.11-.12Z"/><path class="cls-1" d="M175.56,64.61c.41-1.41.89-3.11,1.29-4.5-.76-1.65-1.63-3.02-2.04-4.52-.64-2.37-1.5-4.07-4.11-5.15-2.62-1.09-3.13-4.12-3.99-7.32,1.44.14,2.72-.12,3.26.39,1.54,1.47,2.96,3.14,4.08,4.95,3.05,4.89,7.06,8.3,12.89,9.38,3.52.66,7.22,1.26,8.79,5.23.45,1.15.88,2.4.92,3.61.02.69-.64,1.61-1.26,2.03-.38.26-1.36-.08-1.89-.42-.58-.37-1.26-1.01-1.38-1.63-.68-3.72-4.09-4.2-6.63-5.6-.93-.51-3-.63-3.38-.09-.7.98-1.14,2.97-.59,3.85,1.71,2.72,3.8,5.25,6,7.6,1.21,1.29,2.93,2.1,4.45,3.08,3.16,2.05,5.87.6,6.53-3.17.58-3.28,1.59-6.48,3.14-9.52-.37-1.38-.97-2.76-1.02-4.15-.03-.85.8-1.72,1.24-2.59.9.67,2.07,1.16,2.61,2.05.51.85.65,2.16.42,3.16-1.27,5.56-2.49,11.15-4.14,16.6-.94,3.08-5.17,4.27-8.15,2.66-1.56-.84-3.29-1.66-4.43-2.95-3.04-3.45-7.35-5.69-9.44-10.08-.53-1.11-1.91-1.8-3.15-2.91Z"/><path class="cls-1" d="M599.84,165.54c-3.64-1.43-6.77-2.47-9.73-3.88-3.54-1.68-7.11-3.42-10.34-5.62-3.7-2.52-4-5.7-1.53-9.28,3.36-4.87,5.97-5.7,11.96-3.86.66.2,1.4.17,1.89.23,2.47-3.07,4.79-5.95,6.85-8.5,4.11.03,6.87,1.6,7.56,4.84.63,2.98.18,6.21.03,9.33-.05,1.12-.85,2.21-.89,3.34-.22,5.51-3.24,9.63-5.79,13.41ZM582.62,147.48c-.89,5.17-.92,5.24,3.07,7.36,3.76,1.99,7.61,3.82,11.97,6,1.71-3.74,3.07-7.26,4.87-10.53,2.41-4.39,2.37-6.52-1.41-11.69-2.4,3.86-4.67,7.51-7,11.26-3.7-4.03-6.9-4.59-11.49-2.4Z"/><path class="cls-1" d="M177.92,36.58c5.29,2.19,5.87,8.42,11.25,8.91,3.45-2.92,2.8-2.66,1.19-6.63-2.51-6.18-8.66-7.11-13.16-10.33-2.52-1.8-5.65-.05-6.19,2.71-.94,4.79-1.65,6.27-5.1,10.41-3.61-3.47.17-6.27.93-9.17.83-3.2,2.33-6.23,3.6-9.49,4.04,1.22,7.34,2.23,10.65,3.21.65.19,1.39.42,2,.28,4.09-.95,3.74-.73,6.25,2.58,2.64,3.48,3.3,7.89,6.19,11.31,1.08,1.28-.33,4.66-.69,7.87,1.79,1.5,4.25,3.56,6.71,5.62-.19.41-.38.81-.57,1.22-1.23-.21-2.61-.15-3.68-.69-3.16-1.61-6.21-3.46-9.3-5.21-.46-.26-.98-.83-1.37-.76-4.38.83-4.83-4.1-7.83-5.46-.9-.41-.55-3.54-.88-6.37Z"/><path class="cls-1" d="M379.92,93.32c.56.84,1.24,1.89,1.97,2.91.62.88,1.29,1.73,1.89,2.53-1.81,4.19-1.8,4.17-5.21,3.38-5.05-1.17-10.12-2.25-15.14-3.53-.84-.22-1.95-1.2-2.07-1.97-.13-.84.54-2.41,1.21-2.65,2.27-.81,4.7-1.56,7.08-1.61,3.18-.07,6.38.54,10.27.93Z"/><path class="cls-1" d="M307.77,160.07c7.4,1.86,14.58,3.66,21.89,5.49-.76,3.19-3.32,2.33-5.52,2.16-2.26-.18-4.51-.48-7.24.05.9.87,1.68,2.19,2.75,2.51,1.39.42,3.17.44,4.51-.08,1.67-.65,3.09-1.19,4.41.27.37.41.48,1.71.2,1.92-1.21.91-2.61,2.19-3.93,2.17-2.61-.04-5.14.24-7.72-2.01-2.22-1.93-3.17-3.1-2.01-5.06-2.76-2.11-5.23-3.93-7.57-5.9-.26-.22.2-1.28.24-1.52Z"/><path class="cls-1" d="M143.02,189.18c-1.35-.58-3.02-.84-3.97-1.81-2.07-2.12-3.67-4.69-5.64-6.91-2.91-3.27-6.03-6.37-8.98-9.61-2.38-2.62-4.63-5.35-7.03-8.15,2.37-2.6,4.18-.92,5.49.6,5.19,6.01,10.15,12.22,15.31,18.26,1.8,2.11,3.92,3.95,5.9,5.91-.35.57-.71,1.14-1.06,1.71Z"/><path class="cls-1" d="M73.59,211.45c3.83.39,6.36,2.5,7.99,5.01,4.07,6.23,9.67,10.76,15.33,15.31.98.79,2.03,1.57,2.75,2.57.42.58.6,2.01.24,2.33-.66.58-1.79.75-2.75.84-.43.04-1-.43-1.37-.8-3.01-3-5.59-6.63-9.08-8.86-2.94-1.88-3.93-5.04-6.59-7.1-2.86-2.22-4.4-6.12-6.52-9.29Z"/><path class="cls-1" d="M561.82,164.7c1.58,1.83,2.61,3.04,3.83,4.45,2.44-1.69,2.25-6.29,6.39-5.68,2.01,1.35.66,2.97.19,4.35-.83,2.42-3.34,4.52.48,7.64-2.39.17-3.36.54-4,.23-1.41-.68-2.08-.62-2.95.9-1.39,2.44-3.15,1.69-5.14-.27,3.55-3.3-1.78-7.25,1.2-11.63Z"/><path class="cls-1" d="M410.16,179.37c-1.51,2.83-3.19,5.58-4.48,8.51-.75,1.71-1.78,4.28-1.05,5.43,1.5,2.37-.28,4.15-.12,6.18.04.51-1.14,1.63-1.65,1.57-.86-.11-2.23-.83-2.34-1.47-.34-2.07-.31-4.21-.24-6.33.16-5.27,2.15-9.89,5.58-13.82.73-.84,2.23-1,3.37-1.48.31.47.62.94.92,1.41Z"/><path class="cls-1" d="M128.71,236.88c3.04-2.69,5.01-4.69,7.22-6.34,4.39-3.27,7.32-7.65,9.9-12.31,1.31-2.38,2.6-2.84,4.29-.51-3.97,8.46-10.53,14.45-17.91,19.66-.41.29-1.33-.16-3.5-.5Z"/><path class="cls-1" d="M152.69,203.84c-2.11.1-3.69.35-5.21.17-.87-.1-1.9-.74-2.38-1.46-.22-.34.51-1.66,1.13-2.13,1.59-1.21,7.08-1.26,8.16.31,1.1,1.6,1.56,3.87,1.61,5.86.02.87-1.77,2.63-2.55,2.52-1.73-.22-1.93-1.8-1.14-3.36.15-.3.14-.67.38-1.91Z"/><path class="cls-1" d="M511.79,39.38c-1.56-.7-2.85-1.28-4.02-1.8-1.46.63-2.87,1.19-4.23,1.85-1.36.65-2.68,1.4-4.02,2.11-2.85-2.6-2.68-3.03-.11-4.84,3.79-2.67,7.84-.73,11.74-1.07,1.58-.13,2.05,1.73.64,3.75Z"/><path class="cls-1" d="M116.48,240.24c-2.37,2.77-5.79,2.28-8.1,4.37-1.91-1.59-4.65-2.76-5.08-4.5-.57-2.31-.02-5.31,2.77-7.95v6.53c3.21,3.84,6.82.24,10.41,1.55Z"/><path class="cls-1" d="M432.98,219.27c.05-1.22-.39-2.93.25-3.58,2.38-2.4,5.1-4.48,7.75-6.61.32-.26.99-.09,2.03-.16-.42,5.84-4.66,8.09-8.41,10.72-.54-.13-1.08-.25-1.62-.38Z"/><path class="cls-1" d="M334.69,178.39c-2.15,1.21-4.01,2.26-5.87,3.31-2.41,1.37-4.21.2-5.69-1.55-1.27-1.5-.25-4.16,1.63-4.12,3,.07,5.98.54,8.97.91.23.03.39.56.96,1.44Z"/><path class="cls-1" d="M323.92,207.57c3.75,2.37,2.3,8.72,8.94,8.59-1.32,1.67-2.05,2.59-3.01,3.81-2.55-2.69-3.79-5.62-6.78-7.23-2.04-1.1-2.16-3.6.85-5.17Z"/><path class="cls-1" d="M270.57,181.45c-2.96,1.89-3.99-.09-5.29-1.16-1.5-1.23-2.98-2.5-4.3-3.92-.28-.3-.04-1.62.36-1.87.65-.43,2.03-.8,2.38-.46,2.32,2.28,4.45,4.76,6.85,7.4Z"/><path class="cls-1" d="M119.7,221.38c-2.13-2.62-2.37-4.01-.86-5.32,1.29-1.12,2.56-2.3,3.98-3.22.57-.36,1.54-.09,2.33-.11-.03.77.24,1.77-.14,2.27-1.56,2.08-3.32,4.02-5.32,6.38Z"/><path class="cls-1" d="M340.17,213.9c-4.16,1.99-5.95-.58-8.07-1.75-.22-.12.22-1.43.45-2.72,2.55,1.5,4.63,2.71,7.62,4.46Z"/><path class="cls-1" d="M307.31,112.28c-1.61.99-2.68,2.16-3.43,1.98-.93-.22-2.17-1.55-2.19-2.42-.02-.83,1.58-2.51,2.08-2.38,1.12.3,1.99,1.5,3.54,2.81Z"/><path class="cls-1" d="M269.79,172.41c2.81,1.09,4.48,1.74,6.55,2.54-1.93,2.59-3.85,2.54-5.58,1.49-.61-.37-.51-1.93-.97-4.03Z"/><path class="cls-1" d="M243.39,12.87c1.17-.75,2.02-1.67,2.45-1.51.81.31,1.64,1.15,1.94,1.97.15.41-.84,1.25-1.31,1.89-.9-.69-1.8-1.37-3.08-2.35Z"/><path class="cls-1" d="M173.89,32.68q4.52-.48,4.7,4.58c-1.8-1.76-3.04-2.96-4.7-4.58Z"/><path class="cls-1" d="M302.43,91.01c-1.31-.6-2.62-1.19-4.69-2.13,3.05-1.99,4.19-.84,5.25.59-.19.51-.38,1.02-.57,1.54Z"/><path class="cls-1" d="M253.82,16.01c-.39-1.27-.83-1.92-.69-2.41.16-.54.84-.94,1.29-1.39.46.47,1.39,1.08,1.29,1.37-.22.7-.92,1.25-1.9,2.43Z"/><path class="cls-1" d="M330.81,111.66c.8,1.26,1.4,1.97,1.67,2.79.07.21-1.15,1.17-1.26,1.09-.64-.48-1.3-1.09-1.59-1.81-.14-.33.54-.99,1.19-2.07Z"/><path class="cls-1" d="M287.34,92.42c.18.65.53,1.2.44,1.67-.41,2.18-.3,4.91-1.59,6.38-1.79,2.04-4.45,1.51-6.82-.22-1.34-.98-3.15-1.32-5.08-2.07-.26.25-.76.72-1.25,1.2-1.36,1.33-2.92,1.15-3.48-.43-.35-.98.5-3.42,1.1-3.53,3.07-.53,5.12-3.38,8.88-2.95,2.18.25,4.79-1.94,7.8-.05Z"/><path class="cls-1" d="M83.87,165.41c1.57,5.26,2.89,9.7,4.3,14.46-1.35,1.16-3.04,1.53-3.9-.29-1.96-4.18-3.93-8.52-.41-14.17Z"/><path class="cls-1" d="M77.56,170.68c1.25,2.43,2.3,4.79,3.64,6.97,1.08,1.77.38,2.59-1.27,3.36-3.07-1.27-3.94-4.17-4.92-6.96-1.01-2.87-.87-3,2.56-3.38Z"/><path class="cls-1" d="M45.76,62.8c1.86,1.07,3.39,1.69,4.61,2.69,3.36,2.76,2.8,7.02-1.15,8.66-2.12.88-4.4,1.35-6.49,1.97-1.59,2.72-3.16,5.42-4.64,7.96-5.8-1-8.38-3.27-11.07-9.39-.27-.19-.53-.49-.83-.55-8.49-1.65-6.96-2.38-4.87-8.17.85-2.37,1.55-3.88-.06-6.23-3.36-4.91-3.18-5.03,1.06-10.79,1.92.64,4.15,1.16,6.18,2.12,3.61,1.72,7.12,3.41,11.06.94.28-.18.71-.13,1.06-.19,1.89-.32,4.37-1.73,5.43.46.98,2.01,2.71,4.42.81,7.06-.58.81-.65,1.98-1.1,3.46ZM23.35,53.3c.38,2.59.49,4.7,1.03,6.7.68,2.55,2.28,4.77.21,7.64-.91,1.27.27,3.41,2.46,3.04,3.48-.59,4.3,1.71,5.33,4.13.85,2.01,1.04,4.46,3.5,6.16.53-1.77.93-3.13,1.36-4.48.97-3.02,2.09-5.66,6.18-5.38,1.48.1,3.04-1.14,4.8-1.86-2.73-2.48-4.95-4.5-7-6.37.94-2.6,1.68-4.63,2.44-6.73-3.35-.88-4.67,1.1-6.33,2.43-2.87,2.3-3.42,2.32-5.66-.45-2.05-2.53-4.77-3.63-8.32-4.84Z"/></svg>