<svg width="447" height="774" viewBox="0 0 447 774" fill="none" xmlns="http://www.w3.org/2000/svg">
<rect x="44.598" y="39.0422" width="13.9377" height="6.89974" fill="#FEA3AA"/>
<rect x="46.3595" y="72.0118" width="19.203" height="6.89974" fill="#FEA3AA"/>
<rect width="13.9377" height="6.89974" transform="matrix(-1 0 0 1 401.384 39.0422)" fill="#FEA3AA"/>
<rect width="19.203" height="6.89974" transform="matrix(-1 0 0 1 399.622 72.0118)" fill="#FEA3AA"/>
<path d="M36.427 87.9814L35.5611 10.731L32.0757 10.1059L32.9416 87.3562L36.427 87.9814Z" fill="url(#paint0_linear_377_170)"/>
<path d="M32.7281 10.4526C24.9192 11.4857 16.008 8.74323 11.0957 4.07583C10.2954 10.8339 9.08447 16.6384 13.9956 20.9536C18.9261 25.2726 27.9219 27.066 33.0645 24.1326" fill="url(#paint1_linear_377_170)"/>
<path d="M33.523 12.6419C32.1215 12.2544 31.1605 10.7515 31.3767 9.28517C31.5928 7.81879 32.9042 6.94421 34.3056 7.33173C35.7071 7.71924 36.6681 9.22211 36.4519 10.6885C36.2358 12.1549 34.9245 13.0295 33.523 12.6419Z" fill="url(#paint2_linear_377_170)"/>
<rect x="21.621" y="90" width="22.6985" height="684" fill="url(#paint3_radial_377_170)"/>
<rect x="22.2886" y="31.4028" width="20.842" height="4.72687" fill="#FEA3AA"/>
<rect x="17.8853" y="36.1297" width="29.9421" height="56.3286" fill="#FBDB8F"/>
<path d="M409.121 83.7666L410.244 10.5957L413.695 9.98151L412.572 83.1524L409.121 83.7666Z" fill="url(#paint4_linear_377_170)"/>
<path d="M413.149 10.6301C420.303 13.4561 431.433 9.51506 436.097 1.92075C436.923 8.85572 437.647 16.9803 432.556 21.408C427.444 25.8394 418.121 27.6788 412.793 24.6681" fill="url(#paint5_linear_377_170)"/>
<path d="M412.254 12.3926C413.642 12.0167 414.598 10.5872 414.389 9.19977C414.181 7.8123 412.886 6.99226 411.498 7.36816C410.11 7.74405 409.154 9.17353 409.363 10.561C409.572 11.9485 410.866 12.7685 412.254 12.3926Z" fill="url(#paint6_linear_377_170)"/>
<rect width="22.6985" height="685" transform="matrix(-1 0 0 1 424.52 89)" fill="url(#paint7_radial_377_170)"/>
<rect width="20.842" height="4.7254" transform="matrix(-1 0 0 1 423.279 29.9731)" fill="#FEA3AA"/>
<rect width="29.9421" height="56.311" transform="matrix(-1 0 0 1 427.682 34.6986)" fill="#FBDB8F"/>
<path d="M59.1666 36.2175L58.5114 33.8055L56.3765 34.387L56.6921 36.5764L62.7978 78.9244L63.1826 81.5937L65.8155 81.0054L65.2722 78.5656C65.8155 81.0054 65.8156 81.0053 65.816 81.0052L65.8183 81.0047L65.8287 81.0024L65.8721 80.9928L66.0483 80.9538C66.2051 80.9193 66.4403 80.8678 66.751 80.8005C67.3726 80.6658 68.2967 80.4677 69.5016 80.2154C71.9114 79.7106 75.4444 78.9888 79.9277 78.1225C88.8948 76.3898 101.66 74.0796 116.84 71.7726C147.216 67.1561 187.194 62.5627 225.737 62.6148C265.345 62.6683 303.871 67.2617 332.514 71.8486C346.83 74.1411 358.665 76.43 366.917 78.1447C371.042 79.002 374.271 79.7156 376.466 80.2142C377.563 80.4635 378.402 80.659 378.965 80.7918C379.246 80.8583 379.459 80.909 379.6 80.9429L379.758 80.9811L379.797 80.9905L379.806 80.9927L379.808 80.9932C379.808 80.9933 379.808 80.9933 380.071 79.9235L379.808 80.9933L382.453 81.6392L382.874 78.949L389.489 36.6554L389.839 34.4218L387.652 33.8519L387.019 36.2711C387.652 33.8519 387.651 33.8517 387.65 33.8515L387.647 33.8506L387.634 33.8473L387.586 33.835L387.401 33.7872C387.238 33.7453 386.996 33.6834 386.677 33.603C386.041 33.4421 385.1 33.2068 383.876 32.9076C381.428 32.3094 377.849 31.4558 373.312 30.4318C364.24 28.3839 351.336 25.6535 335.995 22.9199C305.342 17.4579 264.881 11.9691 225.79 11.9124C187.179 10.5747 145.353 16.0584 113.24 21.8541C97.1633 24.7556 83.4918 27.7406 73.8363 30.0011C69.0081 31.1315 65.1829 32.0809 62.5619 32.7486C61.2514 33.0824 60.2418 33.3458 59.5584 33.5261C59.2167 33.6163 58.9564 33.6857 58.7809 33.7328L58.5815 33.7865L58.5302 33.8004L58.5167 33.804L58.513 33.805C58.5121 33.8053 58.5114 33.8055 59.1666 36.2175Z" fill="url(#paint8_radial_377_170)" stroke="#27A4B6" stroke-width="5"/>
<path d="M121.922 41.0166L124.732 44.185L129.409 44.1059L126.71 47.133L128.453 50.7512L123.975 49.4536L120.375 51.7688L120.306 47.9398L116.338 45.7525L120.774 44.6836L121.922 41.0166Z" fill="#FCDC8F"/>
<path d="M317.538 40.4511L318.244 44.5412L322.711 46.0351L318.3 48.1326L317.721 52.3101L314.288 49.5163L309.463 50.6043L311.753 46.7801L309.35 43.275L314.198 43.7053L317.538 40.4511Z" fill="#FCDC8F"/>
<path d="M153.83 50.6022L152.662 33.8428L155.202 33.4638L163.318 44.614L161.989 44.8124L168.281 31.5117L170.821 31.1327L172.012 47.8885L169.093 48.3242L168.223 36.1892L168.841 36.0971L163.476 47.2273L162.099 47.4327L155.215 38.1306L155.928 38.0243L156.773 50.1629L153.83 50.6022Z" fill="white"/>
<path d="M180.485 37.1429L188.801 36.3688L188.913 38.9344L180.597 39.7085L180.485 37.1429ZM181.037 44.3139L190.476 43.4353L190.589 46.0488L178.044 47.2166L177.314 30.4324L189.525 29.2958L189.639 31.9093L180.534 32.7568L181.037 44.3139Z" fill="white"/>
<path d="M195.547 45.6832L195.218 28.8864L197.784 28.7788L208.564 41.2708L207.293 41.3241L207.04 28.3906L210.133 28.2609L210.462 45.0577L207.896 45.1653L197.116 32.6733L198.387 32.62L198.64 45.5535L195.547 45.6832Z" fill="white"/>
<path d="M219.715 45.0409L219.761 30.881L214.193 30.8406L214.202 28.2007L228.457 28.3039L228.449 30.9439L222.881 30.9036L222.835 45.0635L219.715 45.0409Z" fill="white"/>
<path d="M240.212 45.9143C238.902 45.8391 237.702 45.554 236.611 45.0589C235.52 44.5638 234.578 43.909 233.784 43.0945C232.99 42.2641 232.384 41.3162 231.964 40.2509C231.545 39.1696 231.353 38.0052 231.386 36.7576C231.419 35.5101 231.674 34.3793 232.149 33.3654C232.624 32.3354 233.28 31.4599 234.115 30.739C234.951 30.002 235.925 29.4492 237.039 29.0806C238.153 28.712 239.357 28.5649 240.65 28.6391C241.96 28.7143 243.153 28.9989 244.227 29.4931C245.318 29.9882 246.26 30.651 247.054 31.4815C247.848 32.2959 248.454 33.2438 248.873 34.3251C249.293 35.3904 249.486 36.5468 249.452 37.7944C249.419 39.0419 249.164 40.1807 248.689 41.2106C248.213 42.2406 247.558 43.1161 246.723 43.837C245.887 44.558 244.913 45.1028 243.799 45.4714C242.701 45.8409 241.506 45.9885 240.212 45.9143ZM240.261 43.1779C241.108 43.2265 241.894 43.1274 242.621 42.8808C243.347 42.6341 243.981 42.262 244.522 41.7645C245.064 41.2509 245.488 40.6505 245.794 39.9633C246.117 39.261 246.29 38.478 246.313 37.6143C246.337 36.7506 246.206 35.9581 245.921 35.237C245.653 34.5007 245.262 33.8536 244.749 33.2955C244.237 32.7215 243.625 32.2699 242.914 31.9407C242.203 31.6116 241.424 31.4227 240.577 31.3741C239.731 31.3255 238.944 31.4246 238.217 31.6712C237.507 31.9188 236.873 32.2989 236.315 32.8115C235.774 33.3091 235.342 33.909 235.019 34.6113C234.713 35.2986 234.548 36.0741 234.525 36.9377C234.502 37.7854 234.625 38.5774 234.893 39.3137C235.177 40.0508 235.576 40.7064 236.088 41.2805C236.601 41.8385 237.213 42.2821 237.924 42.6113C238.636 42.9404 239.414 43.1293 240.261 43.1779Z" fill="white"/>
<path d="M253.992 46.6933L254.867 29.9162L261.736 30.6839C263.215 30.8492 264.467 31.2302 265.491 31.8268C266.532 32.4252 267.315 33.2038 267.84 34.1626C268.366 35.1213 268.597 36.2159 268.533 37.4462C268.469 38.6765 268.127 39.7071 267.508 40.5379C266.89 41.3527 266.035 41.9403 264.945 42.3006C263.871 42.6466 262.595 42.737 261.116 42.5717L255.964 41.9959L257.421 40.7365L257.093 47.0399L253.992 46.6933ZM264.916 47.9143L261.012 41.3547L264.327 41.7253L268.255 48.2875L264.916 47.9143ZM257.404 41.072L256.098 39.4314L261.107 39.9912C262.474 40.1441 263.515 39.9631 264.23 39.4483C264.961 38.9353 265.353 38.1516 265.408 37.097C265.464 36.0264 265.157 35.1645 264.488 34.511C263.834 33.8594 262.823 33.4572 261.456 33.3043L256.447 32.7445L257.91 31.3652L257.404 41.072Z" fill="white"/>
<path d="M278.032 50.078C276.737 49.8711 275.51 49.4896 274.353 48.9335C273.196 48.3613 272.292 47.7246 271.641 47.0233L272.888 44.7762C273.512 45.4087 274.301 45.9787 275.254 46.4861C276.208 46.9935 277.198 47.3292 278.225 47.4931C279.094 47.6319 279.804 47.6484 280.356 47.5427C280.907 47.437 281.321 47.2447 281.598 46.966C281.876 46.6713 282.03 46.3165 282.061 45.9016C282.099 45.391 281.948 44.9552 281.607 44.594C281.267 44.2169 280.812 43.8939 280.24 43.625C279.686 43.3428 279.059 43.0651 278.36 42.792C277.676 42.5215 276.987 42.2257 276.291 41.9048C275.613 41.5704 274.994 41.1891 274.434 40.7607C273.891 40.3188 273.46 39.7817 273.139 39.1493C272.819 38.5168 272.692 37.7539 272.758 36.8603C272.826 35.9509 273.125 35.159 273.655 34.4848C274.202 33.7971 274.982 33.3081 275.994 33.0177C277.024 32.7139 278.298 32.6831 279.814 32.9252C280.81 33.0841 281.788 33.3694 282.748 33.7811C283.709 34.1928 284.535 34.696 285.226 35.2907L284.074 37.5528C283.365 36.9875 282.623 36.5381 281.848 36.2046C281.075 35.855 280.325 35.6223 279.598 35.5063C278.745 35.37 278.042 35.3628 277.489 35.4844C276.952 35.6086 276.545 35.8181 276.267 36.1128C276.005 36.41 275.858 36.774 275.826 37.2048C275.788 37.7154 275.931 38.158 276.255 38.5326C276.596 38.8938 277.044 39.2075 277.6 39.4739C278.171 39.7427 278.806 40.0216 279.504 40.3107C280.203 40.5837 280.892 40.8795 281.572 41.1979C282.268 41.5188 282.887 41.8922 283.431 42.3181C283.991 42.7465 284.423 43.2756 284.728 43.9055C285.048 44.538 285.176 45.293 285.111 46.1705C285.044 47.0641 284.737 47.8547 284.19 48.5423C283.66 49.2166 282.881 49.7056 281.851 50.0094C280.822 50.2973 279.549 50.3201 278.032 50.078Z" fill="white"/>
<defs>
<linearGradient id="paint0_linear_377_170" x1="34.3916" y1="61.8151" x2="49.4145" y2="-20.4202" gradientUnits="userSpaceOnUse">
<stop stop-color="#3583AB"/>
<stop offset="1" stop-color="#5FC5BF"/>
</linearGradient>
<linearGradient id="paint1_linear_377_170" x1="21.8466" y1="17.1087" x2="24.5492" y2="-5.41841" gradientUnits="userSpaceOnUse">
<stop stop-color="#F99557"/>
<stop offset="1" stop-color="#FCDC8F"/>
</linearGradient>
<linearGradient id="paint2_linear_377_170" x1="33.8283" y1="10.8724" x2="34.9847" y2="5.07593" gradientUnits="userSpaceOnUse">
<stop stop-color="#FCDC8F"/>
<stop offset="1" stop-color="white"/>
</linearGradient>
<radialGradient id="paint3_radial_377_170" cx="0" cy="0" r="1" gradientUnits="userSpaceOnUse" gradientTransform="translate(32.9702 432) rotate(89.9836) scale(513.5 17.0405)">
<stop stop-color="#0D387C"/>
<stop offset="1" stop-color="#0C3270"/>
</radialGradient>
<linearGradient id="paint4_linear_377_170" x1="411.225" y1="58.971" x2="397.118" y2="-18.9066" gradientUnits="userSpaceOnUse">
<stop stop-color="#3583AB"/>
<stop offset="1" stop-color="#5FC5BF"/>
</linearGradient>
<linearGradient id="paint5_linear_377_170" x1="424.422" y1="17.4616" x2="421.677" y2="-5.6607" gradientUnits="userSpaceOnUse">
<stop stop-color="#F99557"/>
<stop offset="1" stop-color="#FCDC8F"/>
</linearGradient>
<linearGradient id="paint6_linear_377_170" x1="411.958" y1="10.7186" x2="410.875" y2="5.22779" gradientUnits="userSpaceOnUse">
<stop stop-color="#FCDC8F"/>
<stop offset="1" stop-color="white"/>
</linearGradient>
<radialGradient id="paint7_radial_377_170" cx="0" cy="0" r="1" gradientUnits="userSpaceOnUse" gradientTransform="translate(11.3493 342.5) rotate(90.0171) scale(487.649 16.159)">
<stop stop-color="#0D387C"/>
<stop offset="1" stop-color="#0C3270"/>
</radialGradient>
<radialGradient id="paint8_radial_377_170" cx="0" cy="0" r="1" gradientUnits="userSpaceOnUse" gradientTransform="translate(239.689 50.22) rotate(136.494) scale(123.633 746.11)">
<stop stop-color="#4CD3C6" stop-opacity="0.88"/>
<stop offset="1" stop-color="#27A4B6" stop-opacity="0.92"/>
</radialGradient>
</defs>
</svg>
