<svg width="1456" height="847" viewBox="0 0 1456 847" fill="none" xmlns="http://www.w3.org/2000/svg">
    <path opacity="0.2" d="M53.0473 683.251C82.3445 683.251 106.095 663.149 106.095 638.353C106.095 613.557 82.3445 593.456 53.0473 593.456C23.7501 593.456 0 613.557 0 638.353C0 663.149 23.7501 683.251 53.0473 683.251Z" fill="#C9D2E5"/>
    <path opacity="0.2" d="M1342.31 222.243C1377.47 222.243 1405.97 198.121 1405.97 168.366C1405.97 138.61 1377.47 114.489 1342.31 114.489C1307.15 114.489 1278.65 138.61 1278.65 168.366C1278.65 198.121 1307.15 222.243 1342.31 222.243Z" fill="#C9D2E5"/>
    <path opacity="0.2" d="M896.818 132.986C911.466 132.986 923.341 122.936 923.341 110.538C923.341 98.1395 911.466 88.0889 896.818 88.0889C882.169 88.0889 870.294 98.1395 870.294 110.538C870.294 122.936 882.169 132.986 896.818 132.986Z" fill="white"/>
    <path opacity="0.2" d="M138.454 224.488C211.697 224.488 271.072 174.234 271.072 112.244C271.072 50.2533 211.697 0 138.454 0C65.2104 0 5.83521 50.2533 5.83521 112.244C5.83521 174.234 65.2104 224.488 138.454 224.488Z" fill="#FE7098"/>
    <path opacity="0.2" d="M1141.68 92.0401C1159.26 92.0401 1173.51 79.9793 1173.51 65.1016C1173.51 50.2239 1159.26 38.1631 1141.68 38.1631C1124.11 38.1631 1109.86 50.2239 1109.86 65.1016C1109.86 79.9793 1124.11 92.0401 1141.68 92.0401Z" fill="#B73C94"/>
    <path opacity="0.2" d="M512.013 219.19C535.451 219.19 554.451 203.109 554.451 183.272C554.451 163.435 535.451 147.354 512.013 147.354C488.575 147.354 469.575 163.435 469.575 183.272C469.575 203.109 488.575 219.19 512.013 219.19Z" fill="#F99557"/>
    <path opacity="0.2" d="M1412.86 846.857C1436.3 846.857 1455.3 830.776 1455.3 810.939C1455.3 791.102 1436.3 775.021 1412.86 775.021C1389.42 775.021 1370.42 791.102 1370.42 810.939C1370.42 830.776 1389.42 846.857 1412.86 846.857Z" fill="#F99557"/>
    <path opacity="0.2" d="M333.774 434.249C351.352 434.249 365.602 422.188 365.602 407.311C365.602 392.433 351.352 380.372 333.774 380.372C316.195 380.372 301.945 392.433 301.945 407.311C301.945 422.188 316.195 434.249 333.774 434.249Z" fill="#B73C94"/>
    <path opacity="0.2" d="M1107.2 721.413C1183.38 721.413 1245.13 669.15 1245.13 604.68C1245.13 540.21 1183.38 487.946 1107.2 487.946C1031.03 487.946 969.281 540.21 969.281 604.68C969.281 669.15 1031.03 721.413 1107.2 721.413Z" fill="#FCDC8F"/>
    </svg>
    