<svg width="1512" height="940" viewBox="0 0 1512 940" fill="none" xmlns="http://www.w3.org/2000/svg">
<g filter="url(#filter0_f_0_1)">
<g opacity="0.5294">
<path d="M115.571 358.289C109.27 342.802 91.8056 331.659 71.1353 331.659C50.4651 331.659 32.8898 342.802 26.6998 358.384C25.926 358.384 25.0418 358.289 24.268 358.289C0.171149 358.289 -19.2832 371.604 -19.2832 387.941C-19.2832 404.278 0.171149 417.593 24.268 417.593C37.3113 417.593 102.417 417.593 114.797 417.593C138.894 417.593 158.348 404.278 158.348 387.941C158.238 371.793 139.226 358.572 115.571 358.289Z" fill="url(#paint0_linear_0_1)"/>
</g>
<g opacity="0.5294">
<path d="M293.423 230.615C284.912 215.128 260.926 203.985 232.629 203.985C204.331 203.985 180.345 215.128 171.834 230.709C170.728 230.709 169.623 230.615 168.518 230.615C135.688 230.615 109.049 243.93 109.049 260.267C109.049 276.604 135.688 289.919 168.518 289.919C186.314 289.919 275.295 289.919 292.207 289.919C325.037 289.919 351.676 276.604 351.676 260.267C351.897 244.119 325.81 230.993 293.423 230.615Z" fill="url(#paint1_linear_0_1)"/>
</g>
<g opacity="0.5294">
<path d="M1503.9 337.042C1497.16 321.554 1478.37 310.411 1456.15 310.411C1433.93 310.411 1415.03 321.554 1408.4 337.136C1407.52 337.136 1406.63 337.042 1405.75 337.042C1379.88 337.042 1358.99 350.357 1358.99 366.694C1358.99 383.031 1379.99 396.346 1405.75 396.346C1419.68 396.346 1489.76 396.346 1503.02 396.346C1528.89 396.346 1549.78 383.031 1549.78 366.694C1549.78 350.546 1529.33 337.419 1503.9 337.042Z" fill="url(#paint2_linear_0_1)"/>
</g>
<g opacity="0.5294">
<path d="M1189.65 290.014C1177.38 275.943 1143.22 265.744 1102.77 265.744C1062.31 265.744 1028.05 275.943 1015.89 290.014C1014.34 290.014 1012.68 290.014 1011.13 290.014C964.156 290.014 926.021 302.101 926.021 317.022C926.021 331.942 964.156 344.03 1011.13 344.03C1036.56 344.03 1163.78 344.03 1187.99 344.03C1234.97 344.03 1273.1 331.942 1273.1 317.022C1273.1 302.195 1235.96 290.297 1189.65 290.014Z" fill="url(#paint3_linear_0_1)"/>
</g>
<g opacity="0.5294">
<path d="M587.67 402.484C575.401 388.413 541.245 378.215 500.789 378.215C460.333 378.215 426.067 388.413 413.908 402.484C412.36 402.484 410.702 402.484 409.155 402.484C362.177 402.484 324.042 414.571 324.042 429.492C324.042 444.413 362.177 456.5 409.155 456.5C434.578 456.5 561.805 456.5 586.012 456.5C632.99 456.5 671.125 444.413 671.125 429.492C671.125 414.76 633.874 402.767 587.67 402.484Z" fill="url(#paint4_linear_0_1)"/>
</g>
</g>
<path d="M1336.77 610.143L1442.78 445.074L1537.84 609.294" fill="#0D387C"/>
<path d="M1336.77 610.143L1442.78 445.074L1537.84 609.294" stroke="#0D387C" stroke-width="1.2252" stroke-miterlimit="10"/>
<path d="M1220.71 681.63L1326.71 516.56L1448.3 725.73" fill="#0D387C"/>
<path d="M1220.71 681.63L1326.71 516.56L1448.3 725.73" stroke="#0D387C" stroke-width="1.2252" stroke-miterlimit="10"/>
<path d="M398.212 802.694L469.397 679.458L547.104 833.668" fill="#0D387C"/>
<path d="M398.212 802.694L469.397 679.458L547.104 833.668" stroke="#0D387C" stroke-width="0.8546" stroke-miterlimit="10"/>
<path opacity="0.7686" d="M14.2092 20.689C17.2616 20.689 19.736 18.575 19.736 15.9673C19.736 13.3596 17.2616 11.2456 14.2092 11.2456C11.1569 11.2456 8.68243 13.3596 8.68243 15.9673C8.68243 18.575 11.1569 20.689 14.2092 20.689Z" fill="white"/>
<path opacity="0.302" d="M367.593 71.3998C370.645 71.3998 373.12 69.2858 373.12 66.6781C373.12 64.0704 370.645 61.9564 367.593 61.9564C364.541 61.9564 362.066 64.0704 362.066 66.6781C362.066 69.2858 364.541 71.3998 367.593 71.3998Z" fill="white"/>
<path opacity="0.2588" d="M26.1471 192.086C29.81 192.086 32.7793 189.549 32.7793 186.42C32.7793 183.291 29.81 180.754 26.1471 180.754C22.4843 180.754 19.515 183.291 19.515 186.42C19.515 189.549 22.4843 192.086 26.1471 192.086Z" fill="white"/>
<path opacity="0.4902" d="M1135.82 197.752C1139.48 197.752 1142.45 195.215 1142.45 192.086C1142.45 188.957 1139.48 186.42 1135.82 186.42C1132.16 186.42 1129.19 188.957 1129.19 192.086C1129.19 195.215 1132.16 197.752 1135.82 197.752Z" fill="white"/>
<path opacity="0.6" d="M1169.09 92.4585C1172.75 92.4585 1175.72 89.9217 1175.72 86.7925C1175.72 83.6632 1172.75 81.1265 1169.09 81.1265C1165.43 81.1265 1162.46 83.6632 1162.46 86.7925C1162.46 89.9217 1165.43 92.4585 1169.09 92.4585Z" fill="white"/>
<path opacity="0.5882" d="M1327.82 35.6095C1331.48 35.6095 1334.45 33.0727 1334.45 29.9435C1334.45 26.8142 1331.48 24.2774 1327.82 24.2774C1324.16 24.2774 1321.19 26.8142 1321.19 29.9435C1321.19 33.0727 1324.16 35.6095 1327.82 35.6095Z" fill="white"/>
<path opacity="0.3686" d="M515.38 11.34C519.043 11.34 522.012 8.80326 522.012 5.67401C522.012 2.54476 519.043 0.00799561 515.38 0.00799561C511.717 0.00799561 508.748 2.54476 508.748 5.67401C508.748 8.80326 511.717 11.34 515.38 11.34Z" fill="white"/>
<path opacity="0.6902" d="M125.961 285.67C129.014 285.67 131.488 283.556 131.488 280.948C131.488 278.34 129.014 276.226 125.961 276.226C122.909 276.226 120.434 278.34 120.434 280.948C120.434 283.556 122.909 285.67 125.961 285.67Z" fill="white"/>
<path opacity="0.5294" d="M953.877 39.3868C956.929 39.3868 959.403 37.2728 959.403 34.6651C959.403 32.0574 956.929 29.9435 953.877 29.9435C950.824 29.9435 948.35 32.0574 948.35 34.6651C948.35 37.2728 950.824 39.3868 953.877 39.3868Z" fill="white"/>
<path opacity="0.2196" d="M1005.17 247.518C1008.22 247.518 1010.69 245.404 1010.69 242.797C1010.69 240.189 1008.22 238.075 1005.17 238.075C1002.11 238.075 999.638 240.189 999.638 242.797C999.638 245.404 1002.11 247.518 1005.17 247.518Z" fill="white"/>
<path opacity="0.902" d="M1487.99 143.925C1491.04 143.925 1493.51 141.811 1493.51 139.203C1493.51 136.595 1491.04 134.481 1487.99 134.481C1484.93 134.481 1482.46 136.595 1482.46 139.203C1482.46 141.811 1484.93 143.925 1487.99 143.925Z" fill="white"/>
<path opacity="0.451" d="M1334.45 237.603C1336.28 237.603 1337.77 236.335 1337.77 234.77C1337.77 233.205 1336.28 231.937 1334.45 231.937C1332.62 231.937 1331.14 233.205 1331.14 234.77C1331.14 236.335 1332.62 237.603 1334.45 237.603Z" fill="white"/>
<path d="M1501.8 267.538C1503.64 267.538 1505.12 266.27 1505.12 264.705C1505.12 263.141 1503.64 261.872 1501.8 261.872C1499.97 261.872 1498.49 263.141 1498.49 264.705C1498.49 266.27 1499.97 267.538 1501.8 267.538Z" fill="white"/>
<path opacity="0.7098" d="M840.687 189.253C842.519 189.253 844.004 187.985 844.004 186.42C844.004 184.855 842.519 183.587 840.687 183.587C838.856 183.587 837.371 184.855 837.371 186.42C837.371 187.985 838.856 189.253 840.687 189.253Z" fill="white"/>
<path opacity="0.5216" d="M385.61 367.921C386.831 367.921 387.821 367.076 387.821 366.033C387.821 364.99 386.831 364.144 385.61 364.144C384.39 364.144 383.4 364.99 383.4 366.033C383.4 367.076 384.39 367.921 385.61 367.921Z" fill="white"/>
<path d="M623.374 205.873C624.595 205.873 625.584 205.028 625.584 203.985C625.584 202.941 624.595 202.096 623.374 202.096C622.153 202.096 621.163 202.941 621.163 203.985C621.163 205.028 622.153 205.873 623.374 205.873Z" fill="white"/>
<path d="M1042.53 321.177C1043.75 321.177 1044.74 320.331 1044.74 319.288C1044.74 318.245 1043.75 317.399 1042.53 317.399C1041.31 317.399 1040.32 318.245 1040.32 319.288C1040.32 320.331 1041.31 321.177 1042.53 321.177Z" fill="white"/>
<path opacity="0.5686" d="M1220.93 297.379C1222.15 297.379 1223.14 296.534 1223.14 295.491C1223.14 294.448 1222.15 293.602 1220.93 293.602C1219.71 293.602 1218.72 294.448 1218.72 295.491C1218.72 296.534 1219.71 297.379 1220.93 297.379Z" fill="white"/>
<path d="M1378 380.953C1379.22 380.953 1380.21 380.108 1380.21 379.064C1380.21 378.021 1379.22 377.176 1378 377.176C1376.78 377.176 1375.79 378.021 1375.79 379.064C1375.79 380.108 1376.78 380.953 1378 380.953Z" fill="white"/>
<path d="M1090.61 428.264C1091.83 428.264 1092.82 427.419 1092.82 426.376C1092.82 425.333 1091.83 424.487 1090.61 424.487C1089.39 424.487 1088.4 425.333 1088.4 426.376C1088.4 427.419 1089.39 428.264 1090.61 428.264Z" fill="white"/>
<path d="M1509.32 68.5668C1510.54 68.5668 1511.53 67.7212 1511.53 66.6781C1511.53 65.635 1510.54 64.7894 1509.32 64.7894C1508.1 64.7894 1507.11 65.635 1507.11 66.6781C1507.11 67.7212 1508.1 68.5668 1509.32 68.5668Z" fill="white"/>
<path opacity="0.1882" d="M588.997 89.6255C590.828 89.6255 592.313 88.3571 592.313 86.7925C592.313 85.2279 590.828 83.9595 588.997 83.9595C587.165 83.9595 585.681 85.2279 585.681 86.7925C585.681 88.3571 587.165 89.6255 588.997 89.6255Z" fill="white"/>
<path opacity="0.8588" d="M709.371 133.065C711.202 133.065 712.687 131.797 712.687 130.232C712.687 128.667 711.202 127.399 709.371 127.399C707.539 127.399 706.055 128.667 706.055 130.232C706.055 131.797 707.539 133.065 709.371 133.065Z" fill="white"/>
<path opacity="0.3608" d="M1070.16 8.50702C1071.99 8.50702 1073.48 7.23864 1073.48 5.67401C1073.48 4.10938 1071.99 2.841 1070.16 2.841C1068.33 2.841 1066.84 4.10938 1066.84 5.67401C1066.84 7.23864 1068.33 8.50702 1070.16 8.50702Z" fill="white"/>
<path d="M777.35 18.8003C779.182 18.8003 780.666 17.5319 780.666 15.9673C780.666 14.4027 779.182 13.1343 777.35 13.1343C775.519 13.1343 774.034 14.4027 774.034 15.9673C774.034 17.5319 775.519 18.8003 777.35 18.8003Z" fill="white"/>
<path opacity="0.7686" d="M445.853 155.257C447.684 155.257 449.169 153.988 449.169 152.424C449.169 150.859 447.684 149.591 445.853 149.591C444.021 149.591 442.537 150.859 442.537 152.424C442.537 153.988 444.021 155.257 445.853 155.257Z" fill="white"/>
<path opacity="0.6392" d="M544.672 275.376C546.503 275.376 547.988 274.108 547.988 272.543C547.988 270.979 546.503 269.71 544.672 269.71C542.84 269.71 541.356 270.979 541.356 272.543C541.356 274.108 542.84 275.376 544.672 275.376Z" fill="white"/>
<path opacity="0.8902" d="M284.912 295.019C286.744 295.019 288.228 293.75 288.228 292.186C288.228 290.621 286.744 289.353 284.912 289.353C283.081 289.353 281.596 290.621 281.596 292.186C281.596 293.75 283.081 295.019 284.912 295.019Z" fill="white"/>
<path d="M230.528 99.1633C232.36 99.1633 233.844 97.8949 233.844 96.3303C233.844 94.7656 232.36 93.4973 230.528 93.4973C228.697 93.4973 227.212 94.7656 227.212 96.3303C227.212 97.8949 228.697 99.1633 230.528 99.1633Z" fill="white"/>
<path d="M109.16 60.5399C110.991 60.5399 112.476 59.2715 112.476 57.7069C112.476 56.1423 110.991 54.8739 109.16 54.8739C107.328 54.8739 105.844 56.1423 105.844 57.7069C105.844 59.2715 107.328 60.5399 109.16 60.5399Z" fill="white"/>
<path opacity="0.4" d="M1437.69 474.537C1440.75 474.537 1443.22 472.423 1443.22 469.815C1443.22 467.207 1440.75 465.093 1437.69 465.093C1434.64 465.093 1432.17 467.207 1432.17 469.815C1432.17 472.423 1434.64 474.537 1437.69 474.537Z" fill="white"/>
<path d="M1549.78 761.143H-41.9431V940H1549.78V761.143Z" fill="url(#paint5_linear_0_1)"/>
<path d="M27.11 527.325V890.233" stroke="#0D387C" stroke-width="8.0729" stroke-miterlimit="10"/>
<path d="M109.075 485.774V890.233" stroke="#0D387C" stroke-width="8.5225" stroke-miterlimit="10"/>
<path d="M191.04 463.488V890.233" stroke="#0D387C" stroke-width="8.7536" stroke-miterlimit="10"/>
<path d="M273.005 456.878V890.233" stroke="#0D387C" stroke-width="8.8213" stroke-miterlimit="10"/>
<path d="M516.999 495.879V891.65" stroke="#0D387C" stroke-width="8.4304" stroke-miterlimit="10"/>
<path d="M435.034 473.687V891.65" stroke="#0D387C" stroke-width="8.6636" stroke-miterlimit="10"/>
<path d="M353.069 456.5V891.65" stroke="#0D387C" stroke-width="8.8399" stroke-miterlimit="10"/>
<path d="M1006.15 692.584V858.976" stroke="#0D387C" stroke-width="5.4665" stroke-miterlimit="10"/>
<path d="M924.183 656.605V858.976" stroke="#0D387C" stroke-width="6.0288" stroke-miterlimit="10"/>
<path d="M842.218 625.347V858.976" stroke="#0D387C" stroke-width="6.477" stroke-miterlimit="10"/>
<path d="M761.838 604.194V853.215" stroke="#0D387C" stroke-width="6.6869" stroke-miterlimit="10"/>
<path d="M679.872 551.972V853.216" stroke="#0D387C" stroke-width="7.3542" stroke-miterlimit="10"/>
<path d="M597.908 524.964V853.216" stroke="#0D387C" stroke-width="7.6773" stroke-miterlimit="10"/>
<path d="M-17.675 539.318C81.19 446.49 237.304 422.315 377.257 442.429C517.21 462.544 646.495 520.62 776.414 572.464C906.333 624.309 1049.77 717.42 1191.31 713.17C1332.85 708.921 1474.17 649.239 1528.78 529.497" stroke="#0D387C" stroke-width="8.0664" stroke-miterlimit="10"/>
<path d="M-17.675 559.999C81.19 467.171 237.304 442.996 377.257 463.11C517.21 483.225 646.495 541.301 776.414 593.145C906.227 644.989 1049.77 738.101 1191.31 733.851C1332.85 729.602 1474.17 669.92 1528.78 550.178" stroke="#0D387C" stroke-width="8.0664" stroke-miterlimit="10"/>
<path d="M273.005 442.807C278.839 442.807 283.568 438.579 283.568 433.364C283.568 428.148 278.839 423.92 273.005 423.92C267.172 423.92 262.443 428.148 262.443 433.364C262.443 438.579 267.172 442.807 273.005 442.807Z" fill="url(#paint6_radial_0_1)"/>
<path d="M353.069 445.262C358.902 445.262 363.631 441.034 363.631 435.819C363.631 430.604 358.902 426.376 353.069 426.376C347.235 426.376 342.506 430.604 342.506 435.819C342.506 441.034 347.235 445.262 353.069 445.262Z" fill="url(#paint7_radial_0_1)"/>
<path d="M435.456 461.694C441.29 461.694 446.019 457.466 446.019 452.25C446.019 447.035 441.29 442.807 435.456 442.807C429.623 442.807 424.894 447.035 424.894 452.25C424.894 457.466 429.623 461.694 435.456 461.694Z" fill="url(#paint8_radial_0_1)"/>
<path d="M516.999 482.375C522.832 482.375 527.561 478.147 527.561 472.931C527.561 467.716 522.832 463.488 516.999 463.488C511.165 463.488 506.436 467.716 506.436 472.931C506.436 478.147 511.165 482.375 516.999 482.375Z" fill="url(#paint9_radial_0_1)"/>
<path d="M592.521 505.322C598.354 505.322 603.083 501.094 603.083 495.879C603.083 490.663 598.354 486.435 592.521 486.435C586.687 486.435 581.958 490.663 581.958 495.879C581.958 501.094 586.687 505.322 592.521 505.322Z" fill="url(#paint10_radial_0_1)"/>
<path d="M848.978 613.638C854.812 613.638 859.541 609.41 859.541 604.194C859.541 598.979 854.812 594.751 848.978 594.751C843.145 594.751 838.416 598.979 838.416 604.194C838.416 609.41 843.145 613.638 848.978 613.638Z" fill="url(#paint11_radial_0_1)"/>
<path d="M924.183 645.273C930.017 645.273 934.746 641.045 934.746 635.829C934.746 630.614 930.017 626.386 924.183 626.386C918.35 626.386 913.621 630.614 913.621 635.829C913.621 641.045 918.35 645.273 924.183 645.273Z" fill="url(#paint12_radial_0_1)"/>
<path d="M1006.15 680.685C1011.98 680.685 1016.71 676.457 1016.71 671.242C1016.71 666.027 1011.98 661.799 1006.15 661.799C1000.31 661.799 995.586 666.027 995.586 671.242C995.586 676.457 1000.31 680.685 1006.15 680.685Z" fill="url(#paint13_radial_0_1)"/>
<path d="M1079.56 708.26C1085.39 708.26 1090.12 704.032 1090.12 698.817C1090.12 693.601 1085.39 689.373 1079.56 689.373C1073.72 689.373 1068.99 693.601 1068.99 698.817C1068.99 704.032 1073.72 708.26 1079.56 708.26Z" fill="url(#paint14_radial_0_1)"/>
<path d="M191.04 452.25C196.874 452.25 201.603 448.023 201.603 442.807C201.603 437.592 196.874 433.364 191.04 433.364C185.207 433.364 180.478 437.592 180.478 442.807C180.478 448.023 185.207 452.25 191.04 452.25Z" fill="url(#paint15_radial_0_1)"/>
<path d="M109.075 472.931C114.909 472.931 119.638 468.704 119.638 463.488C119.638 458.273 114.909 454.045 109.075 454.045C103.242 454.045 98.5126 458.273 98.5126 463.488C98.5126 468.704 103.242 472.931 109.075 472.931Z" fill="url(#paint16_radial_0_1)"/>
<path d="M27.11 509.761C32.9436 509.761 37.6725 505.533 37.6725 500.317C37.6725 495.102 32.9436 490.874 27.11 490.874C21.2765 490.874 16.5475 495.102 16.5475 500.317C16.5475 505.533 21.2765 509.761 27.11 509.761Z" fill="url(#paint17_radial_0_1)"/>
<path d="M1277.5 371.887H1263.03C1263.13 371.038 1263.13 370.282 1263.13 369.432C1263.13 348.09 1243.7 330.714 1219.83 330.714C1195.96 330.714 1176.52 348.09 1176.52 369.432C1176.52 370.282 1176.52 371.132 1176.63 371.887H1162.16C1152.12 371.887 1143.88 379.159 1143.88 388.224V425.526C1143.88 434.497 1152.02 441.863 1162.16 441.863H1183.92V895.522H1255.74V441.768H1277.5C1287.53 441.768 1295.77 434.497 1295.77 425.431V388.13C1295.77 379.253 1287.53 371.887 1277.5 371.887Z" fill="url(#paint18_linear_0_1)"/>
<path d="M1219.83 394.929C1237.33 394.929 1251.51 382.245 1251.51 366.599C1251.51 350.953 1237.33 338.269 1219.83 338.269C1202.33 338.269 1188.14 350.953 1188.14 366.599C1188.14 382.245 1202.33 394.929 1219.83 394.929Z" fill="url(#paint19_radial_0_1)"/>
<path d="M1219.3 464.905C1226.88 464.905 1233.03 459.408 1233.03 452.628C1233.03 445.848 1226.88 440.352 1219.3 440.352C1211.72 440.352 1205.57 445.848 1205.57 452.628C1205.57 459.408 1211.72 464.905 1219.3 464.905Z" fill="url(#paint20_radial_0_1)"/>
<path d="M1219.3 498.901C1226.88 498.901 1233.03 493.404 1233.03 486.624C1233.03 479.844 1226.88 474.348 1219.3 474.348C1211.72 474.348 1205.57 479.844 1205.57 486.624C1205.57 493.404 1211.72 498.901 1219.3 498.901Z" fill="url(#paint21_radial_0_1)"/>
<path d="M1219.3 532.897C1226.88 532.897 1233.03 527.4 1233.03 520.62C1233.03 513.84 1226.88 508.344 1219.3 508.344C1211.72 508.344 1205.57 513.84 1205.57 520.62C1205.57 527.4 1211.72 532.897 1219.3 532.897Z" fill="url(#paint22_radial_0_1)"/>
<path d="M1219.3 566.893C1226.88 566.893 1233.03 561.397 1233.03 554.617C1233.03 547.836 1226.88 542.34 1219.3 542.34C1211.72 542.34 1205.57 547.836 1205.57 554.617C1205.57 561.397 1211.72 566.893 1219.3 566.893Z" fill="url(#paint23_radial_0_1)"/>
<path d="M1219.3 600.889C1226.88 600.889 1233.03 595.393 1233.03 588.613C1233.03 581.833 1226.88 576.336 1219.3 576.336C1211.72 576.336 1205.57 581.833 1205.57 588.613C1205.57 595.393 1211.72 600.889 1219.3 600.889Z" fill="url(#paint24_radial_0_1)"/>
<path d="M1219.3 634.885C1226.88 634.885 1233.03 629.389 1233.03 622.609C1233.03 615.829 1226.88 610.332 1219.3 610.332C1211.72 610.332 1205.57 615.829 1205.57 622.609C1205.57 629.389 1211.72 634.885 1219.3 634.885Z" fill="url(#paint25_radial_0_1)"/>
<path d="M1219.3 668.881C1226.88 668.881 1233.03 663.385 1233.03 656.605C1233.03 649.825 1226.88 644.328 1219.3 644.328C1211.72 644.328 1205.57 649.825 1205.57 656.605C1205.57 663.385 1211.72 668.881 1219.3 668.881Z" fill="url(#paint26_radial_0_1)"/>
<path d="M1219.3 702.877C1226.88 702.877 1233.03 697.381 1233.03 690.601C1233.03 683.821 1226.88 678.325 1219.3 678.325C1211.72 678.325 1205.57 683.821 1205.57 690.601C1205.57 697.381 1211.72 702.877 1219.3 702.877Z" fill="url(#paint27_radial_0_1)"/>
<path d="M333.951 632.43H154.283V867.381H333.951V632.43Z" fill="url(#paint28_linear_0_1)"/>
<path d="M95.6607 875.124L72.0007 627.236L106.646 624.592L130.306 872.48L95.6607 875.124Z" fill="url(#paint29_linear_0_1)"/>
<path d="M392.678 875.124L416.233 627.236L381.588 624.592L357.928 872.48L392.678 875.124Z" fill="url(#paint30_linear_0_1)"/>
<path d="M429.436 604.761C396.692 589.935 342.189 603.344 331.31 581.152C320.008 558.205 282.406 559.905 271.632 555.561C270.259 554.994 269.203 554.428 268.252 553.767C273.639 550.556 277.019 546.212 277.019 541.396C277.019 531.291 262.337 523.17 244.169 523.17C226.002 523.17 211.32 531.386 211.32 541.396C211.32 546.212 214.594 550.461 220.087 553.767C219.136 554.428 218.08 554.994 216.707 555.561C205.933 559.81 168.225 558.205 157.029 581.152C146.149 603.344 91.7525 589.935 58.9031 604.761C31.7575 617.037 27.2156 640.268 27.2156 640.268H27.4269V653.205H461.123V640.268H461.334C461.123 640.268 456.581 617.132 429.436 604.761Z" fill="url(#paint31_linear_0_1)"/>
<path d="M244.169 574.636C265.52 574.636 282.828 559.162 282.828 540.074C282.828 520.985 265.52 505.511 244.169 505.511C222.819 505.511 205.511 520.985 205.511 540.074C205.511 559.162 222.819 574.636 244.169 574.636Z" fill="url(#paint32_radial_0_1)"/>
<path d="M92.4919 686.729C100.717 686.729 107.385 680.768 107.385 673.414C107.385 666.06 100.717 660.099 92.4919 660.099C84.2666 660.099 77.5988 666.06 77.5988 673.414C77.5988 680.768 84.2666 686.729 92.4919 686.729Z" fill="url(#paint33_radial_0_1)"/>
<path d="M141.396 682.952C149.621 682.952 156.289 676.99 156.289 669.637C156.289 662.283 149.621 656.321 141.396 656.321C133.171 656.321 126.503 662.283 126.503 669.637C126.503 676.99 133.171 682.952 141.396 682.952Z" fill="url(#paint34_radial_0_1)"/>
<path d="M96.7169 730.452C104.942 730.452 111.61 724.49 111.61 717.137C111.61 709.783 104.942 703.822 96.7169 703.822C88.4916 703.822 81.8237 709.783 81.8237 717.137C81.8237 724.49 88.4916 730.452 96.7169 730.452Z" fill="url(#paint35_radial_0_1)"/>
<path d="M100.942 774.175C109.167 774.175 115.835 768.213 115.835 760.859C115.835 753.506 109.167 747.544 100.942 747.544C92.7167 747.544 86.0488 753.506 86.0488 760.859C86.0488 768.213 92.7167 774.175 100.942 774.175Z" fill="url(#paint36_radial_0_1)"/>
<path d="M105.167 817.897C113.392 817.897 120.06 811.936 120.06 804.582C120.06 797.228 113.392 791.267 105.167 791.267C96.9416 791.267 90.2737 797.228 90.2737 804.582C90.2737 811.936 96.9416 817.897 105.167 817.897Z" fill="url(#paint37_radial_0_1)"/>
<path d="M109.286 861.62C117.511 861.62 124.179 855.659 124.179 848.305C124.179 840.951 117.511 834.99 109.286 834.99C101.061 834.99 94.3931 840.951 94.3931 848.305C94.3931 855.659 101.061 861.62 109.286 861.62Z" fill="url(#paint38_radial_0_1)"/>
<path d="M113.511 905.343C121.736 905.343 128.404 899.382 128.404 892.028C128.404 884.674 121.736 878.713 113.511 878.713C105.286 878.713 98.6181 884.674 98.6181 892.028C98.6181 899.382 105.286 905.343 113.511 905.343Z" fill="url(#paint39_radial_0_1)"/>
<path d="M374.722 905.343C382.947 905.343 389.615 899.382 389.615 892.028C389.615 884.674 382.947 878.713 374.722 878.713C366.497 878.713 359.829 884.674 359.829 892.028C359.829 899.382 366.497 905.343 374.722 905.343Z" fill="url(#paint40_radial_0_1)"/>
<path d="M378.947 861.62C387.172 861.62 393.84 855.659 393.84 848.305C393.84 840.951 387.172 834.99 378.947 834.99C370.722 834.99 364.054 840.951 364.054 848.305C364.054 855.659 370.722 861.62 378.947 861.62Z" fill="url(#paint41_radial_0_1)"/>
<path d="M383.172 817.897C391.397 817.897 398.065 811.936 398.065 804.582C398.065 797.228 391.397 791.267 383.172 791.267C374.947 791.267 368.279 797.228 368.279 804.582C368.279 811.936 374.947 817.897 383.172 817.897Z" fill="url(#paint42_radial_0_1)"/>
<path d="M387.291 774.175C395.517 774.175 402.184 768.213 402.184 760.859C402.184 753.506 395.517 747.544 387.291 747.544C379.066 747.544 372.398 753.506 372.398 760.859C372.398 768.213 379.066 774.175 387.291 774.175Z" fill="url(#paint43_radial_0_1)"/>
<path d="M391.516 730.452C399.742 730.452 406.409 724.49 406.409 717.137C406.409 709.783 399.742 703.822 391.516 703.822C383.291 703.822 376.623 709.783 376.623 717.137C376.623 724.49 383.291 730.452 391.516 730.452Z" fill="url(#paint44_radial_0_1)"/>
<path d="M395.741 686.729C403.966 686.729 410.634 680.768 410.634 673.414C410.634 666.06 403.966 660.099 395.741 660.099C387.516 660.099 380.848 666.06 380.848 673.414C380.848 680.768 387.516 686.729 395.741 686.729Z" fill="url(#paint45_radial_0_1)"/>
<path d="M346.837 682.952C355.062 682.952 361.73 676.99 361.73 669.637C361.73 662.283 355.062 656.321 346.837 656.321C338.612 656.321 331.944 662.283 331.944 669.637C331.944 676.99 338.612 682.952 346.837 682.952Z" fill="url(#paint46_radial_0_1)"/>
<path d="M1549.78 853.121H-41.9431V940H1549.78V853.121Z" fill="#0D387C"/>
<path d="M1301.29 588.896L1112.39 700.328C1095.47 710.243 1085.52 726.391 1085.52 743.578V853.121H1317.65H1549.78V579.264H1337.66C1324.61 579.264 1311.9 582.663 1301.29 588.896Z" fill="url(#paint47_linear_0_1)"/>
<path d="M153.706 698.439L312.214 768.131C318.847 771.058 322.826 776.441 322.826 782.296V853.121H140.441H-41.9431V692.584H125.187C135.136 692.584 144.973 694.567 153.706 698.439Z" fill="url(#paint48_linear_0_1)"/>
<path d="M1033.19 866.908L1091.28 537.618L1105.65 539.696L1047.55 868.986L1033.19 866.908Z" fill="url(#paint49_linear_0_1)"/>
<path d="M1094.66 549.423C1130.26 568.687 1189.62 559.338 1217.19 528.553C1218.24 561.132 1199.65 593.901 1171.35 609.766C1142.93 625.631 1111.35 625.253 1085.26 606.744" fill="url(#paint50_linear_0_1)"/>
<path d="M1098.46 550.556C1105.81 550.556 1111.77 545.229 1111.77 538.657C1111.77 532.086 1105.81 526.759 1098.46 526.759C1091.11 526.759 1085.16 532.086 1085.16 538.657C1085.16 545.229 1091.11 550.556 1098.46 550.556Z" fill="url(#paint51_linear_0_1)"/>
<g opacity="0.451">
<path d="M107.596 485.774H33.6588V905.909H107.596V485.774Z" fill="url(#paint52_linear_0_1)"/>
<path d="M1231.45 485.774H1206.1V905.909H1231.45V485.774Z" fill="url(#paint53_linear_0_1)"/>
<path d="M486.684 485.774H369.441V905.909H486.684V485.774Z" fill="url(#paint54_linear_0_1)"/>
<path d="M1050.62 485.774H1040.05V905.909H1050.62V485.774Z" fill="url(#paint55_linear_0_1)"/>
<path d="M1477.34 485.774H1466.78V905.909H1477.34V485.774Z" fill="url(#paint56_linear_0_1)"/>
<path d="M189.033 485.774H161.148V905.909H189.033V485.774Z" fill="url(#paint57_linear_0_1)"/>
<path d="M677.866 485.774H659.909V905.909H677.866V485.774Z" fill="url(#paint58_linear_0_1)"/>
<path d="M326.346 485.774H279.871V905.909H326.346V485.774Z" fill="url(#paint59_linear_0_1)"/>
<path d="M803.665 485.774H757.19V905.909H803.665V485.774Z" fill="url(#paint60_linear_0_1)"/>
<path d="M1122.55 485.774H1078.18V905.909H1122.55V485.774Z" fill="url(#paint61_linear_0_1)"/>
<path d="M1437.31 485.774H1335.91V905.909H1437.31V485.774Z" fill="url(#paint62_linear_0_1)"/>
</g>
<path opacity="0.5294" d="M108.336 738.007C112.127 738.007 115.201 735.258 115.201 731.868C115.201 728.478 112.127 725.73 108.336 725.73C104.544 725.73 101.47 728.478 101.47 731.868C101.47 735.258 104.544 738.007 108.336 738.007Z" fill="white"/>
<path opacity="0.5294" d="M396.692 619.209C400.484 619.209 403.557 616.461 403.557 613.071C403.557 609.681 400.484 606.933 396.692 606.933C392.9 606.933 389.826 609.681 389.826 613.071C389.826 616.461 392.9 619.209 396.692 619.209Z" fill="white"/>
<path opacity="0.5294" d="M461.017 874.18C464.809 874.18 467.883 871.432 467.883 868.042C467.883 864.652 464.809 861.903 461.017 861.903C457.226 861.903 454.152 864.652 454.152 868.042C454.152 871.432 457.226 874.18 461.017 874.18Z" fill="white"/>
<path opacity="0.5294" d="M279.871 791.739C283.662 791.739 286.736 788.991 286.736 785.601C286.736 782.211 283.662 779.463 279.871 779.463C276.079 779.463 273.005 782.211 273.005 785.601C273.005 788.991 276.079 791.739 279.871 791.739Z" fill="white"/>
<path opacity="0.5294" d="M454.152 747.45C457.069 747.45 459.433 745.336 459.433 742.728C459.433 740.12 457.069 738.007 454.152 738.007C451.235 738.007 448.871 740.12 448.871 742.728C448.871 745.336 451.235 747.45 454.152 747.45Z" fill="white"/>
<path opacity="0.5294" d="M309.446 583.985C312.362 583.985 314.727 581.871 314.727 579.264C314.727 576.656 312.362 574.542 309.446 574.542C306.529 574.542 304.164 576.656 304.164 579.264C304.164 581.871 306.529 583.985 309.446 583.985Z" fill="white"/>
<path opacity="0.5294" d="M189.033 857.843C191.95 857.843 194.314 855.729 194.314 853.121C194.314 850.513 191.95 848.399 189.033 848.399C186.116 848.399 183.752 850.513 183.752 853.121C183.752 855.729 186.116 857.843 189.033 857.843Z" fill="white"/>
<path opacity="0.5294" d="M169.281 728.091C170.74 728.091 171.922 727.034 171.922 725.73C171.922 724.426 170.74 723.369 169.281 723.369C167.823 723.369 166.641 724.426 166.641 725.73C166.641 727.034 167.823 728.091 169.281 728.091Z" fill="white"/>
<path opacity="0.5294" d="M183.752 609.294C185.21 609.294 186.393 608.237 186.393 606.933C186.393 605.629 185.21 604.572 183.752 604.572C182.294 604.572 181.111 605.629 181.111 606.933C181.111 608.237 182.294 609.294 183.752 609.294Z" fill="white"/>
<path opacity="0.5294" d="M57.4244 830.268C58.8828 830.268 60.065 829.211 60.065 827.907C60.065 826.603 58.8828 825.546 57.4244 825.546C55.966 825.546 54.7838 826.603 54.7838 827.907C54.7838 829.211 55.966 830.268 57.4244 830.268Z" fill="white"/>
<path opacity="0.5294" d="M91.2244 632.43C92.6827 632.43 93.865 631.373 93.865 630.069C93.865 628.765 92.6827 627.708 91.2244 627.708C89.766 627.708 88.5837 628.765 88.5837 630.069C88.5837 631.373 89.766 632.43 91.2244 632.43Z" fill="white"/>
<path opacity="0.5294" d="M286.736 529.686C288.195 529.686 289.377 528.629 289.377 527.325C289.377 526.021 288.195 524.964 286.736 524.964C285.278 524.964 284.096 526.021 284.096 527.325C284.096 528.629 285.278 529.686 286.736 529.686Z" fill="white"/>
<path opacity="0.5294" d="M314.727 718.553C316.185 718.553 317.368 717.496 317.368 716.192C317.368 714.889 316.185 713.832 314.727 713.832C313.269 713.832 312.086 714.889 312.086 716.192C312.086 717.496 313.269 718.553 314.727 718.553Z" fill="white"/>
<path opacity="0.5294" d="M432.816 673.603C434.274 673.603 435.456 672.546 435.456 671.242C435.456 669.938 434.274 668.881 432.816 668.881C431.357 668.881 430.175 669.938 430.175 671.242C430.175 672.546 431.357 673.603 432.816 673.603Z" fill="white"/>
<path opacity="0.5294" d="M396.692 808.36C398.15 808.36 399.332 807.303 399.332 805.999C399.332 804.695 398.15 803.638 396.692 803.638C395.233 803.638 394.051 804.695 394.051 805.999C394.051 807.303 395.233 808.36 396.692 808.36Z" fill="white"/>
<path opacity="0.5294" d="M412.536 549.612C413.994 549.612 415.176 548.555 415.176 547.251C415.176 545.947 413.994 544.89 412.536 544.89C411.077 544.89 409.895 545.947 409.895 547.251C409.895 548.555 411.077 549.612 412.536 549.612Z" fill="white"/>
<path opacity="0.5294" d="M668.043 842.544C669.501 842.544 670.683 841.488 670.683 840.184C670.683 838.88 669.501 837.823 668.043 837.823C666.584 837.823 665.402 838.88 665.402 840.184C665.402 841.488 666.584 842.544 668.043 842.544Z" fill="white"/>
<path opacity="0.5294" d="M670.683 597.112C672.142 597.112 673.324 596.055 673.324 594.751C673.324 593.447 672.142 592.39 670.683 592.39C669.225 592.39 668.043 593.447 668.043 594.751C668.043 596.055 669.225 597.112 670.683 597.112Z" fill="white"/>
<path opacity="0.5294" d="M771.027 640.551C772.485 640.551 773.667 639.494 773.667 638.19C773.667 636.886 772.485 635.829 771.027 635.829C769.568 635.829 768.386 636.886 768.386 638.19C768.386 639.494 769.568 640.551 771.027 640.551Z" fill="white"/>
<path opacity="0.5294" d="M787.082 735.457C788.54 735.457 789.723 734.4 789.723 733.096C789.723 731.792 788.54 730.735 787.082 730.735C785.624 730.735 784.441 731.792 784.441 733.096C784.441 734.4 785.624 735.457 787.082 735.457Z" fill="white"/>
<path opacity="0.5294" d="M1091.28 745.089C1092.74 745.089 1093.92 744.032 1093.92 742.728C1093.92 741.424 1092.74 740.367 1091.28 740.367C1089.82 740.367 1088.64 741.424 1088.64 742.728C1088.64 744.032 1089.82 745.089 1091.28 745.089Z" fill="white"/>
<path opacity="0.5294" d="M1101.11 554.333C1102.56 554.333 1103.75 553.276 1103.75 551.972C1103.75 550.668 1102.56 549.612 1101.11 549.612C1099.65 549.612 1098.46 550.668 1098.46 551.972C1098.46 553.276 1099.65 554.333 1101.11 554.333Z" fill="white"/>
<path opacity="0.5294" d="M1226.17 586.346C1227.62 586.346 1228.81 585.289 1228.81 583.985C1228.81 582.681 1227.62 581.625 1226.17 581.625C1224.71 581.625 1223.52 582.681 1223.52 583.985C1223.52 585.289 1224.71 586.346 1226.17 586.346Z" fill="white"/>
<path opacity="0.5294" d="M1212.96 723.275C1214.42 723.275 1215.6 722.218 1215.6 720.914C1215.6 719.61 1214.42 718.553 1212.96 718.553C1211.5 718.553 1210.32 719.61 1210.32 720.914C1210.32 722.218 1211.5 723.275 1212.96 723.275Z" fill="white"/>
<path opacity="0.5294" d="M1246.76 855.482C1248.22 855.482 1249.4 854.425 1249.4 853.121C1249.4 851.817 1248.22 850.76 1246.76 850.76C1245.3 850.76 1244.12 851.817 1244.12 853.121C1244.12 854.425 1245.3 855.482 1246.76 855.482Z" fill="white"/>
<path opacity="0.5294" d="M1365.59 855.482C1367.05 855.482 1368.23 854.425 1368.23 853.121C1368.23 851.817 1367.05 850.76 1365.59 850.76C1364.13 850.76 1362.95 851.817 1362.95 853.121C1362.95 854.425 1364.13 855.482 1365.59 855.482Z" fill="white"/>
<path opacity="0.5294" d="M1411.54 570.481C1413 570.481 1414.18 569.424 1414.18 568.121C1414.18 566.817 1413 565.76 1411.54 565.76C1410.08 565.76 1408.9 566.817 1408.9 568.121C1408.9 569.424 1410.08 570.481 1411.54 570.481Z" fill="white"/>
<path opacity="0.5294" d="M1477.34 775.213C1478.8 775.213 1479.98 774.156 1479.98 772.853C1479.98 771.549 1478.8 770.492 1477.34 770.492C1475.88 770.492 1474.7 771.549 1474.7 772.853C1474.7 774.156 1475.88 775.213 1477.34 775.213Z" fill="white"/>
<path opacity="0.5294" d="M1459.6 556.694C1461.05 556.694 1462.24 555.637 1462.24 554.333C1462.24 553.029 1461.05 551.972 1459.6 551.972C1458.14 551.972 1456.96 553.029 1456.96 554.333C1456.96 555.637 1458.14 556.694 1459.6 556.694Z" fill="white"/>
<path opacity="0.5294" d="M49.5025 527.325C52.4193 527.325 54.7838 525.211 54.7838 522.604C54.7838 519.996 52.4193 517.882 49.5025 517.882C46.5857 517.882 44.2213 519.996 44.2213 522.604C44.2213 525.211 46.5857 527.325 49.5025 527.325Z" fill="white"/>
<path opacity="0.5294" d="M803.665 866.625C806.582 866.625 808.946 864.511 808.946 861.903C808.946 859.296 806.582 857.182 803.665 857.182C800.748 857.182 798.384 859.296 798.384 861.903C798.384 864.511 800.748 866.625 803.665 866.625Z" fill="white"/>
<path opacity="0.5294" d="M668.043 706.277C670.959 706.277 673.324 704.163 673.324 701.555C673.324 698.947 670.959 696.833 668.043 696.833C665.126 696.833 662.761 698.947 662.761 701.555C662.761 704.163 665.126 706.277 668.043 706.277Z" fill="white"/>
<path opacity="0.5294" d="M1114.84 630.069C1117.75 630.069 1120.12 627.955 1120.12 625.347C1120.12 622.74 1117.75 620.626 1114.84 620.626C1111.92 620.626 1109.55 622.74 1109.55 625.347C1109.55 627.955 1111.92 630.069 1114.84 630.069Z" fill="white"/>
<path opacity="0.5294" d="M1231.45 777.574C1234.36 777.574 1236.73 775.46 1236.73 772.853C1236.73 770.245 1234.36 768.131 1231.45 768.131C1228.53 768.131 1226.16 770.245 1226.16 772.853C1226.16 775.46 1228.53 777.574 1231.45 777.574Z" fill="white"/>
<path opacity="0.5294" d="M1399.39 720.914C1402.31 720.914 1404.67 718.8 1404.67 716.192C1404.67 713.585 1402.31 711.471 1399.39 711.471C1396.47 711.471 1394.11 713.585 1394.11 716.192C1394.11 718.8 1396.47 720.914 1399.39 720.914Z" fill="white"/>
<path opacity="0.5294" d="M1464.88 871.347C1467.79 871.347 1470.16 869.233 1470.16 866.625C1470.16 864.017 1467.79 861.903 1464.88 861.903C1461.96 861.903 1459.6 864.017 1459.6 866.625C1459.6 869.233 1461.96 871.347 1464.88 871.347Z" fill="white"/>
<path opacity="0.5294" d="M1107.97 840.184C1111.76 840.184 1114.84 837.435 1114.84 834.045C1114.84 830.655 1111.76 827.907 1107.97 827.907C1104.18 827.907 1101.1 830.655 1101.1 834.045C1101.1 837.435 1104.18 840.184 1107.97 840.184Z" fill="white"/>
<path opacity="0.5294" d="M1212.96 675.019C1216.75 675.019 1219.83 672.271 1219.83 668.881C1219.83 665.491 1216.75 662.743 1212.96 662.743C1209.17 662.743 1206.1 665.491 1206.1 668.881C1206.1 672.271 1209.17 675.019 1212.96 675.019Z" fill="white"/>
<path opacity="0.5294" d="M1358.72 625.347C1362.52 625.347 1365.59 622.599 1365.59 619.209C1365.59 615.819 1362.52 613.071 1358.72 613.071C1354.93 613.071 1351.86 615.819 1351.86 619.209C1351.86 622.599 1354.93 625.347 1358.72 625.347Z" fill="white"/>
<path opacity="0.5294" d="M1411.54 814.026C1415.33 814.026 1418.4 811.277 1418.4 807.887C1418.4 804.497 1415.33 801.749 1411.54 801.749C1407.75 801.749 1404.67 804.497 1404.67 807.887C1404.67 811.277 1407.75 814.026 1411.54 814.026Z" fill="white"/>
<path opacity="0.5294" d="M1477.34 662.743C1481.13 662.743 1484.21 659.995 1484.21 656.605C1484.21 653.215 1481.13 650.467 1477.34 650.467C1473.55 650.467 1470.48 653.215 1470.48 656.605C1470.48 659.995 1473.55 662.743 1477.34 662.743Z" fill="white"/>
<path opacity="0.149" d="M60.065 727.902C89.2325 727.902 112.878 706.763 112.878 680.685C112.878 654.608 89.2325 633.469 60.065 633.469C30.8975 633.469 7.2525 654.608 7.2525 680.685C7.2525 706.763 30.8975 727.902 60.065 727.902Z" fill="#C9D2E5"/>
<path opacity="0.0509804" d="M1343.62 243.08C1378.62 243.08 1407 217.712 1407 186.42C1407 155.127 1378.62 129.76 1343.62 129.76C1308.62 129.76 1280.25 155.127 1280.25 186.42C1280.25 217.712 1308.62 243.08 1343.62 243.08Z" fill="#C9D2E5"/>
<path opacity="0.0509804" d="M900.101 149.213C914.684 149.213 926.507 138.643 926.507 125.605C926.507 112.566 914.684 101.996 900.101 101.996C885.517 101.996 873.694 112.566 873.694 125.605C873.694 138.643 885.517 149.213 900.101 149.213Z" fill="white"/>
<path opacity="0.0705882" d="M145.093 245.441C218.012 245.441 277.124 192.592 277.124 127.399C277.124 62.2061 218.012 9.35693 145.093 9.35693C72.1743 9.35693 13.0619 62.2061 13.0619 127.399C13.0619 192.592 72.1743 245.441 145.093 245.441Z" fill="#FE7098"/>
<path opacity="0.149" d="M1143.88 106.151C1161.38 106.151 1175.57 93.4676 1175.57 77.8213C1175.57 62.175 1161.38 49.4912 1143.88 49.4912C1126.38 49.4912 1112.2 62.175 1112.2 77.8213C1112.2 93.4676 1126.38 106.151 1143.88 106.151Z" fill="#B73C94"/>
<path opacity="0.0509804" d="M516.999 239.869C540.333 239.869 559.249 222.958 559.249 202.096C559.249 181.234 540.333 164.322 516.999 164.322C493.665 164.322 474.749 181.234 474.749 202.096C474.749 222.958 493.665 239.869 516.999 239.869Z" fill="#F99557"/>
<path opacity="0.149" d="M1413.86 899.96C1437.19 899.96 1456.11 883.048 1456.11 862.187C1456.11 841.325 1437.19 824.413 1413.86 824.413C1390.53 824.413 1371.61 841.325 1371.61 862.187C1371.61 883.048 1390.53 899.96 1413.86 899.96Z" fill="#F99557"/>
<path opacity="0.149" d="M339.549 466.038C357.049 466.038 371.236 453.354 371.236 437.708C371.236 422.061 357.049 409.378 339.549 409.378C322.048 409.378 307.861 422.061 307.861 437.708C307.861 453.354 322.048 466.038 339.549 466.038Z" fill="#B73C94"/>
<path opacity="0.0392157" d="M1109.55 768.036C1185.39 768.036 1246.87 713.073 1246.87 645.273C1246.87 577.472 1185.39 522.509 1109.55 522.509C1033.72 522.509 972.242 577.472 972.242 645.273C972.242 713.073 1033.72 768.036 1109.55 768.036Z" fill="#FCDC8F"/>
<path d="M1017 853C1017 854 1011.86 855.196 1010 857C1008.09 858.852 1008 863 1006.5 863C1005 863 1005.4 859.554 1003.5 857C1002.28 855.368 996 854 996 853C996 852 1002.28 851.632 1003.5 850C1005.4 847.446 1005 843 1006.5 843C1008 843 1008.09 848.148 1010 850C1011.86 851.804 1017 852 1017 853Z" fill="#FCDC8F" fill-opacity="0.51"/>
<path d="M1038 884C1038 884.7 1034.08 885.537 1032.67 886.8C1031.21 888.097 1031.14 891 1030 891C1028.86 891 1029.16 888.588 1027.71 886.8C1026.79 885.658 1022 884.7 1022 884C1022 883.3 1026.79 883.042 1027.71 881.9C1029.16 880.112 1028.86 877 1030 877C1031.14 877 1031.21 880.603 1032.67 881.9C1034.08 883.163 1038 883.3 1038 884Z" fill="#FCDC8F" fill-opacity="0.51"/>
<path d="M506 893C506 893.7 502.081 894.537 500.667 895.8C499.215 897.097 499.143 900 498 900C496.857 900 497.164 897.588 495.714 895.8C494.788 894.658 490 893.7 490 893C490 892.3 494.788 892.042 495.714 890.9C497.164 889.112 496.857 886 498 886C499.143 886 499.215 889.603 500.667 890.9C502.081 892.163 506 892.3 506 893Z" fill="#FCDC8F" fill-opacity="0.51"/>
<path d="M480 912.5C480 913.75 474.121 915.245 472 917.5C469.822 919.815 469.714 925 468 925C466.286 925 466.746 920.692 464.571 917.5C463.182 915.46 456 913.75 456 912.5C456 911.25 463.182 910.79 464.571 908.75C466.746 905.558 466.286 900 468 900C469.714 900 469.822 906.435 472 908.75C474.121 911.005 480 911.25 480 912.5Z" fill="#FCDC8F" fill-opacity="0.51"/>
<defs>
<filter id="filter0_f_0_1" x="-39.2832" y="183.985" width="1609.06" height="292.515" filterUnits="userSpaceOnUse" color-interpolation-filters="sRGB">
<feFlood flood-opacity="0" result="BackgroundImageFix"/>
<feBlend mode="normal" in="SourceGraphic" in2="BackgroundImageFix" result="shape"/>
<feGaussianBlur stdDeviation="10" result="effect1_foregroundBlur_0_1"/>
</filter>
<linearGradient id="paint0_linear_0_1" x1="69.4348" y1="315.986" x2="69.4348" y2="451.301" gradientUnits="userSpaceOnUse">
<stop stop-color="#0D387C"/>
<stop offset="1" stop-color="#C9D2E5"/>
</linearGradient>
<linearGradient id="paint1_linear_0_1" x1="230.481" y1="188.332" x2="230.481" y2="323.647" gradientUnits="userSpaceOnUse">
<stop stop-color="#0D387C"/>
<stop offset="1" stop-color="#C9D2E5"/>
</linearGradient>
<linearGradient id="paint2_linear_0_1" x1="1454.35" y1="294.761" x2="1454.35" y2="430.077" gradientUnits="userSpaceOnUse">
<stop stop-color="#0D387C"/>
<stop offset="1" stop-color="#C9D2E5"/>
</linearGradient>
<linearGradient id="paint3_linear_0_1" x1="1099.62" y1="236.227" x2="1099.62" y2="422.628" gradientUnits="userSpaceOnUse">
<stop stop-color="#0D387C"/>
<stop offset="1" stop-color="#C9D2E5"/>
</linearGradient>
<linearGradient id="paint4_linear_0_1" x1="497.551" y1="356.419" x2="497.551" y2="497.368" gradientUnits="userSpaceOnUse">
<stop stop-color="#0D387C"/>
<stop offset="1" stop-color="#C9D2E5"/>
</linearGradient>
<linearGradient id="paint5_linear_0_1" x1="753.917" y1="880.102" x2="753.917" y2="682.957" gradientUnits="userSpaceOnUse">
<stop stop-color="#0D387C"/>
<stop offset="1" stop-color="#10689A"/>
</linearGradient>
<radialGradient id="paint6_radial_0_1" cx="0" cy="0" r="1" gradientUnits="userSpaceOnUse" gradientTransform="translate(273.029 433.364) scale(12.6535 11.3128)">
<stop stop-color="white"/>
<stop offset="1" stop-color="white" stop-opacity="0"/>
</radialGradient>
<radialGradient id="paint7_radial_0_1" cx="0" cy="0" r="1" gradientUnits="userSpaceOnUse" gradientTransform="translate(353.019 435.816) scale(12.6535 11.3128)">
<stop stop-color="white"/>
<stop offset="1" stop-color="white" stop-opacity="0"/>
</radialGradient>
<radialGradient id="paint8_radial_0_1" cx="0" cy="0" r="1" gradientUnits="userSpaceOnUse" gradientTransform="translate(435.456 452.25) scale(12.6535 11.3128)">
<stop stop-color="white"/>
<stop offset="1" stop-color="white" stop-opacity="0"/>
</radialGradient>
<radialGradient id="paint9_radial_0_1" cx="0" cy="0" r="1" gradientUnits="userSpaceOnUse" gradientTransform="translate(516.965 472.975) scale(12.6535 11.3128)">
<stop stop-color="white"/>
<stop offset="1" stop-color="white" stop-opacity="0"/>
</radialGradient>
<radialGradient id="paint10_radial_0_1" cx="0" cy="0" r="1" gradientUnits="userSpaceOnUse" gradientTransform="translate(592.493 495.882) scale(12.6535 11.3128)">
<stop stop-color="white"/>
<stop offset="1" stop-color="white" stop-opacity="0"/>
</radialGradient>
<radialGradient id="paint11_radial_0_1" cx="0" cy="0" r="1" gradientUnits="userSpaceOnUse" gradientTransform="translate(848.927 604.193) scale(12.6535 11.3128)">
<stop stop-color="white"/>
<stop offset="1" stop-color="white" stop-opacity="0"/>
</radialGradient>
<radialGradient id="paint12_radial_0_1" cx="0" cy="0" r="1" gradientUnits="userSpaceOnUse" gradientTransform="translate(924.217 635.872) scale(12.6535 11.3128)">
<stop stop-color="white"/>
<stop offset="1" stop-color="white" stop-opacity="0"/>
</radialGradient>
<radialGradient id="paint13_radial_0_1" cx="0" cy="0" r="1" gradientUnits="userSpaceOnUse" gradientTransform="translate(1006.19 671.223) scale(12.6535 11.3128)">
<stop stop-color="white"/>
<stop offset="1" stop-color="white" stop-opacity="0"/>
</radialGradient>
<radialGradient id="paint14_radial_0_1" cx="0" cy="0" r="1" gradientUnits="userSpaceOnUse" gradientTransform="translate(1079.56 698.827) scale(12.6535 11.3128)">
<stop stop-color="white"/>
<stop offset="1" stop-color="white" stop-opacity="0"/>
</radialGradient>
<radialGradient id="paint15_radial_0_1" cx="0" cy="0" r="1" gradientUnits="userSpaceOnUse" gradientTransform="translate(191.056 442.807) scale(12.6535 11.3128)">
<stop stop-color="white"/>
<stop offset="1" stop-color="white" stop-opacity="0"/>
</radialGradient>
<radialGradient id="paint16_radial_0_1" cx="0" cy="0" r="1" gradientUnits="userSpaceOnUse" gradientTransform="translate(109.083 463.531) scale(12.6535 11.3128)">
<stop stop-color="white"/>
<stop offset="1" stop-color="white" stop-opacity="0"/>
</radialGradient>
<radialGradient id="paint17_radial_0_1" cx="0" cy="0" r="1" gradientUnits="userSpaceOnUse" gradientTransform="translate(27.1094 500.36) scale(12.6535 11.3128)">
<stop stop-color="white"/>
<stop offset="1" stop-color="white" stop-opacity="0"/>
</radialGradient>
<linearGradient id="paint18_linear_0_1" x1="994.955" y1="593.006" x2="1267.21" y2="625.881" gradientUnits="userSpaceOnUse">
<stop stop-color="#FEA3AA"/>
<stop offset="1" stop-color="#0D387C"/>
</linearGradient>
<radialGradient id="paint19_radial_0_1" cx="0" cy="0" r="1" gradientUnits="userSpaceOnUse" gradientTransform="translate(1219.82 366.593) scale(31.6875 28.3301)">
<stop stop-color="#FE7098"/>
<stop offset="1" stop-color="#FF7099" stop-opacity="0.1098"/>
</radialGradient>
<radialGradient id="paint20_radial_0_1" cx="0" cy="0" r="1" gradientUnits="userSpaceOnUse" gradientTransform="translate(1219.3 452.655) scale(13.7312 12.2764)">
<stop stop-color="#FEA3AA"/>
<stop offset="1" stop-color="#FFA3AB" stop-opacity="0.0784314"/>
</radialGradient>
<radialGradient id="paint21_radial_0_1" cx="0" cy="0" r="1" gradientUnits="userSpaceOnUse" gradientTransform="translate(1219.3 486.651) scale(13.7312 12.2764)">
<stop stop-color="#FEA3AA"/>
<stop offset="1" stop-color="#FFA3AB" stop-opacity="0.0784314"/>
</radialGradient>
<radialGradient id="paint22_radial_0_1" cx="0" cy="0" r="1" gradientUnits="userSpaceOnUse" gradientTransform="translate(1219.3 520.647) scale(13.7312 12.2764)">
<stop stop-color="#FEA3AA"/>
<stop offset="1" stop-color="#FFA3AB" stop-opacity="0.0784314"/>
</radialGradient>
<radialGradient id="paint23_radial_0_1" cx="0" cy="0" r="1" gradientUnits="userSpaceOnUse" gradientTransform="translate(1219.3 554.644) scale(13.7312 12.2764)">
<stop stop-color="#FEA3AA"/>
<stop offset="1" stop-color="#FFA3AB" stop-opacity="0.0784314"/>
</radialGradient>
<radialGradient id="paint24_radial_0_1" cx="0" cy="0" r="1" gradientUnits="userSpaceOnUse" gradientTransform="translate(1219.3 588.64) scale(13.7312 12.2764)">
<stop stop-color="#FEA3AA"/>
<stop offset="1" stop-color="#FFA3AB" stop-opacity="0.0784314"/>
</radialGradient>
<radialGradient id="paint25_radial_0_1" cx="0" cy="0" r="1" gradientUnits="userSpaceOnUse" gradientTransform="translate(1219.3 622.636) scale(13.7312 12.2764)">
<stop stop-color="#FEA3AA"/>
<stop offset="1" stop-color="#FFA3AB" stop-opacity="0.0784314"/>
</radialGradient>
<radialGradient id="paint26_radial_0_1" cx="0" cy="0" r="1" gradientUnits="userSpaceOnUse" gradientTransform="translate(1219.3 656.632) scale(13.7312 12.2764)">
<stop stop-color="#FEA3AA"/>
<stop offset="1" stop-color="#FFA3AB" stop-opacity="0.0784314"/>
</radialGradient>
<radialGradient id="paint27_radial_0_1" cx="0" cy="0" r="1" gradientUnits="userSpaceOnUse" gradientTransform="translate(1219.3 690.628) scale(13.7312 12.2764)">
<stop stop-color="#FEA3AA"/>
<stop offset="1" stop-color="#FFA3AB" stop-opacity="0.0784314"/>
</radialGradient>
<linearGradient id="paint28_linear_0_1" x1="37.3976" y1="749.889" x2="461.85" y2="749.889" gradientUnits="userSpaceOnUse">
<stop stop-color="#FCDC8F"/>
<stop offset="0.00118029" stop-color="#FBDB8F"/>
<stop offset="0.0818022" stop-color="#BDB18A"/>
<stop offset="0.1616" stop-color="#878C86"/>
<stop offset="0.2388" stop-color="#5B6E82"/>
<stop offset="0.3127" stop-color="#395680"/>
<stop offset="0.3826" stop-color="#21467E"/>
<stop offset="0.4468" stop-color="#123B7C"/>
<stop offset="0.5" stop-color="#0D387C"/>
<stop offset="0.5451" stop-color="#153D7D"/>
<stop offset="0.614" stop-color="#2A4C7E"/>
<stop offset="0.6981" stop-color="#4D6481"/>
<stop offset="0.7943" stop-color="#7D8585"/>
<stop offset="0.8991" stop-color="#BAAF8A"/>
<stop offset="1" stop-color="#FCDC8F"/>
</linearGradient>
<linearGradient id="paint29_linear_0_1" x1="-126.883" y1="762.443" x2="121.604" y2="745.327" gradientUnits="userSpaceOnUse">
<stop stop-color="#FCDC8F"/>
<stop offset="0.5813" stop-color="#6F7B84"/>
<stop offset="1" stop-color="#0D387C"/>
</linearGradient>
<linearGradient id="paint30_linear_0_1" x1="368.067" y1="748.491" x2="523.965" y2="762.798" gradientUnits="userSpaceOnUse">
<stop stop-color="#0D387C"/>
<stop offset="1" stop-color="#FCDC8F"/>
</linearGradient>
<linearGradient id="paint31_linear_0_1" x1="-139.395" y1="400.059" x2="262.199" y2="712.32" gradientUnits="userSpaceOnUse">
<stop stop-color="#FCDC8F"/>
<stop offset="0.1525" stop-color="#C2B48A"/>
<stop offset="0.3153" stop-color="#8C8F86"/>
<stop offset="0.4744" stop-color="#5E7082"/>
<stop offset="0.6259" stop-color="#3B5780"/>
<stop offset="0.7678" stop-color="#22467E"/>
<stop offset="0.8964" stop-color="#123C7C"/>
<stop offset="1" stop-color="#0D387C"/>
</linearGradient>
<radialGradient id="paint32_radial_0_1" cx="0" cy="0" r="1" gradientUnits="userSpaceOnUse" gradientTransform="translate(244.133 540.109) scale(38.6468 34.552)">
<stop stop-color="#FE7098"/>
<stop offset="1" stop-color="#FF7099" stop-opacity="0.1098"/>
</radialGradient>
<radialGradient id="paint33_radial_0_1" cx="0" cy="0" r="1" gradientUnits="userSpaceOnUse" gradientTransform="translate(92.6135 673.376) rotate(-4.38407) scale(14.8716 13.3154)">
<stop stop-color="#FCDC8F"/>
<stop offset="1" stop-color="#FCDC90" stop-opacity="0.2"/>
</radialGradient>
<radialGradient id="paint34_radial_0_1" cx="0" cy="0" r="1" gradientUnits="userSpaceOnUse" gradientTransform="translate(141.522 669.627) rotate(-4.38407) scale(14.8716 13.3154)">
<stop stop-color="#FCDC8F"/>
<stop offset="1" stop-color="#FCDC90" stop-opacity="0.2"/>
</radialGradient>
<radialGradient id="paint35_radial_0_1" cx="0" cy="0" r="1" gradientUnits="userSpaceOnUse" gradientTransform="translate(96.8075 717.103) rotate(-4.38406) scale(14.8716 13.3154)">
<stop stop-color="#FCDC8F"/>
<stop offset="1" stop-color="#FCDC90" stop-opacity="0.2"/>
</radialGradient>
<radialGradient id="paint36_radial_0_1" cx="0" cy="0" r="1" gradientUnits="userSpaceOnUse" gradientTransform="translate(101.002 760.829) rotate(-4.38407) scale(14.8716 13.3154)">
<stop stop-color="#FCDC8F"/>
<stop offset="1" stop-color="#FCDC90" stop-opacity="0.2"/>
</radialGradient>
<radialGradient id="paint37_radial_0_1" cx="0" cy="0" r="1" gradientUnits="userSpaceOnUse" gradientTransform="translate(105.195 804.556) rotate(-4.38407) scale(14.8716 13.3154)">
<stop stop-color="#FCDC8F"/>
<stop offset="1" stop-color="#FCDC90" stop-opacity="0.2"/>
</radialGradient>
<radialGradient id="paint38_radial_0_1" cx="0" cy="0" r="1" gradientUnits="userSpaceOnUse" gradientTransform="translate(109.389 848.282) rotate(-4.38407) scale(14.8716 13.3154)">
<stop stop-color="#FCDC8F"/>
<stop offset="1" stop-color="#FCDC90" stop-opacity="0.2"/>
</radialGradient>
<radialGradient id="paint39_radial_0_1" cx="0" cy="0" r="1" gradientUnits="userSpaceOnUse" gradientTransform="translate(113.583 892.008) rotate(-4.38407) scale(14.8716 13.3154)">
<stop stop-color="#FCDC8F"/>
<stop offset="1" stop-color="#FCDC90" stop-opacity="0.2"/>
</radialGradient>
<radialGradient id="paint40_radial_0_1" cx="0" cy="0" r="1" gradientUnits="userSpaceOnUse" gradientTransform="translate(374.682 892.008) rotate(-175.616) scale(14.8716 13.3154)">
<stop stop-color="#FCDC8F"/>
<stop offset="1" stop-color="#FCDC90" stop-opacity="0.2"/>
</radialGradient>
<radialGradient id="paint41_radial_0_1" cx="0" cy="0" r="1" gradientUnits="userSpaceOnUse" gradientTransform="translate(378.876 848.281) rotate(-175.616) scale(14.8716 13.3154)">
<stop stop-color="#FCDC8F"/>
<stop offset="1" stop-color="#FCDC90" stop-opacity="0.2"/>
</radialGradient>
<radialGradient id="paint42_radial_0_1" cx="0" cy="0" r="1" gradientUnits="userSpaceOnUse" gradientTransform="translate(383.07 804.555) rotate(-175.616) scale(14.8716 13.3154)">
<stop stop-color="#FCDC8F"/>
<stop offset="1" stop-color="#FCDC90" stop-opacity="0.2"/>
</radialGradient>
<radialGradient id="paint43_radial_0_1" cx="0" cy="0" r="1" gradientUnits="userSpaceOnUse" gradientTransform="translate(387.264 760.829) rotate(-175.616) scale(14.8716 13.3154)">
<stop stop-color="#FCDC8F"/>
<stop offset="1" stop-color="#FCDC90" stop-opacity="0.2"/>
</radialGradient>
<radialGradient id="paint44_radial_0_1" cx="0" cy="0" r="1" gradientUnits="userSpaceOnUse" gradientTransform="translate(391.458 717.102) rotate(-175.616) scale(14.8716 13.3154)">
<stop stop-color="#FCDC8F"/>
<stop offset="1" stop-color="#FCDC90" stop-opacity="0.2"/>
</radialGradient>
<radialGradient id="paint45_radial_0_1" cx="0" cy="0" r="1" gradientUnits="userSpaceOnUse" gradientTransform="translate(395.652 673.376) rotate(-175.616) scale(14.8716 13.3154)">
<stop stop-color="#FCDC8F"/>
<stop offset="1" stop-color="#FCDC90" stop-opacity="0.2"/>
</radialGradient>
<radialGradient id="paint46_radial_0_1" cx="0" cy="0" r="1" gradientUnits="userSpaceOnUse" gradientTransform="translate(346.744 669.626) rotate(-175.616) scale(14.8716 13.3154)">
<stop stop-color="#FCDC8F"/>
<stop offset="1" stop-color="#FCDC90" stop-opacity="0.2"/>
</radialGradient>
<linearGradient id="paint47_linear_0_1" x1="1359.08" y1="805.391" x2="1205.57" y2="352.581" gradientUnits="userSpaceOnUse">
<stop stop-color="#0D387C"/>
<stop offset="0.4672" stop-color="#846D93"/>
<stop offset="0.8345" stop-color="#DC94A3"/>
<stop offset="1" stop-color="#FEA3AA"/>
</linearGradient>
<linearGradient id="paint48_linear_0_1" x1="131.745" y1="799.747" x2="23.7975" y2="521.448" gradientUnits="userSpaceOnUse">
<stop stop-color="#0D387C"/>
<stop offset="1" stop-color="#FE7098"/>
</linearGradient>
<linearGradient id="paint49_linear_0_1" x1="1059.82" y1="757.746" x2="1111.29" y2="392.992" gradientUnits="userSpaceOnUse">
<stop stop-color="#0D387C"/>
<stop offset="1" stop-color="#10689A"/>
</linearGradient>
<linearGradient id="paint50_linear_0_1" x1="1149.78" y1="589.68" x2="1156.69" y2="481.726" gradientUnits="userSpaceOnUse">
<stop stop-color="#0D387C"/>
<stop offset="1" stop-color="#10689A"/>
</linearGradient>
<linearGradient id="paint51_linear_0_1" x1="1098.24" y1="542.573" x2="1099.91" y2="516.441" gradientUnits="userSpaceOnUse">
<stop stop-color="#0D387C"/>
<stop offset="1" stop-color="#10689A"/>
</linearGradient>
<linearGradient id="paint52_linear_0_1" x1="70.6238" y1="483.892" x2="70.6238" y2="904.612" gradientUnits="userSpaceOnUse">
<stop stop-color="#37DECD" stop-opacity="0"/>
<stop offset="0.5" stop-color="#37DECD" stop-opacity="0.7412"/>
<stop offset="1" stop-color="#37DECD" stop-opacity="0"/>
</linearGradient>
<linearGradient id="paint53_linear_0_1" x1="1218.77" y1="483.892" x2="1218.77" y2="904.612" gradientUnits="userSpaceOnUse">
<stop stop-color="#37DECD" stop-opacity="0"/>
<stop offset="0.5" stop-color="#37DECD" stop-opacity="0.7412"/>
<stop offset="1" stop-color="#37DECD" stop-opacity="0"/>
</linearGradient>
<linearGradient id="paint54_linear_0_1" x1="428.07" y1="483.892" x2="428.07" y2="904.612" gradientUnits="userSpaceOnUse">
<stop stop-color="#37DECD" stop-opacity="0"/>
<stop offset="0.5" stop-color="#37DECD" stop-opacity="0.7412"/>
<stop offset="1" stop-color="#37DECD" stop-opacity="0"/>
</linearGradient>
<linearGradient id="paint55_linear_0_1" x1="1045.34" y1="483.892" x2="1045.34" y2="904.612" gradientUnits="userSpaceOnUse">
<stop stop-color="#37DECD" stop-opacity="0"/>
<stop offset="0.5" stop-color="#37DECD" stop-opacity="0.7412"/>
<stop offset="1" stop-color="#37DECD" stop-opacity="0"/>
</linearGradient>
<linearGradient id="paint56_linear_0_1" x1="1472.06" y1="483.892" x2="1472.06" y2="904.612" gradientUnits="userSpaceOnUse">
<stop stop-color="#37DECD" stop-opacity="0"/>
<stop offset="0.5" stop-color="#37DECD" stop-opacity="0.7412"/>
<stop offset="1" stop-color="#37DECD" stop-opacity="0"/>
</linearGradient>
<linearGradient id="paint57_linear_0_1" x1="175.098" y1="483.892" x2="175.098" y2="904.612" gradientUnits="userSpaceOnUse">
<stop stop-color="#CAD3E6" stop-opacity="0"/>
<stop offset="0.5" stop-color="#CAD3E6" stop-opacity="0.6706"/>
<stop offset="1" stop-color="#CAD3E6" stop-opacity="0"/>
</linearGradient>
<linearGradient id="paint58_linear_0_1" x1="668.856" y1="483.892" x2="668.856" y2="904.612" gradientUnits="userSpaceOnUse">
<stop stop-color="#CAD3E6" stop-opacity="0"/>
<stop offset="0.5" stop-color="#CAD3E6" stop-opacity="0.6706"/>
<stop offset="1" stop-color="#CAD3E6" stop-opacity="0"/>
</linearGradient>
<linearGradient id="paint59_linear_0_1" x1="303.132" y1="483.892" x2="303.132" y2="904.612" gradientUnits="userSpaceOnUse">
<stop stop-color="white" stop-opacity="0"/>
<stop offset="0.5" stop-color="white" stop-opacity="0.6118"/>
<stop offset="1" stop-color="white" stop-opacity="0"/>
</linearGradient>
<linearGradient id="paint60_linear_0_1" x1="780.442" y1="483.892" x2="780.442" y2="904.612" gradientUnits="userSpaceOnUse">
<stop stop-color="white" stop-opacity="0"/>
<stop offset="0.5" stop-color="white" stop-opacity="0.6118"/>
<stop offset="1" stop-color="white" stop-opacity="0"/>
</linearGradient>
<linearGradient id="paint61_linear_0_1" x1="1100.37" y1="483.892" x2="1100.37" y2="904.612" gradientUnits="userSpaceOnUse">
<stop stop-color="#CAD3E6" stop-opacity="0"/>
<stop offset="0.5" stop-color="#CAD3E6" stop-opacity="0.6706"/>
<stop offset="1" stop-color="#CAD3E6" stop-opacity="0"/>
</linearGradient>
<linearGradient id="paint62_linear_0_1" x1="1386.62" y1="483.892" x2="1386.62" y2="904.612" gradientUnits="userSpaceOnUse">
<stop stop-color="#CAD3E6" stop-opacity="0"/>
<stop offset="0.5" stop-color="#CAD3E6" stop-opacity="0.6706"/>
<stop offset="1" stop-color="#CAD3E6" stop-opacity="0"/>
</linearGradient>
</defs>
</svg>
