<svg width="392" height="288" viewBox="0 0 392 288" fill="none" xmlns="http://www.w3.org/2000/svg">
<path d="M395 0H0V288H395V0Z" fill="url(#paint0_linear_377_170)"/>
<g filter="url(#filter0_f_377_170)">
<g opacity="0.5294">
<path d="M39.0885 114.75C37.525 110.138 33.191 106.819 28.0615 106.819C22.9319 106.819 18.5705 110.138 17.0344 114.778C16.8424 114.778 16.6229 114.75 16.4309 114.75C10.451 114.75 5.62326 118.716 5.62326 123.581C5.62326 128.447 10.451 132.413 16.4309 132.413C19.6677 132.413 35.8243 132.413 38.8965 132.413C44.8764 132.413 49.7042 128.447 49.7042 123.581C49.6767 118.772 44.9587 114.834 39.0885 114.75Z" fill="url(#paint1_linear_377_170)"/>
</g>
<g opacity="0.5294">
<path d="M83.2243 76.725C81.1121 72.1125 75.1597 68.7938 68.1375 68.7938C61.1153 68.7938 55.1628 72.1125 53.0507 76.7531C52.7764 76.7531 52.5021 76.725 52.2278 76.725C44.0809 76.725 37.4701 80.6906 37.4701 85.5563C37.4701 90.4219 44.0809 94.3875 52.2278 94.3875C56.6441 94.3875 78.7257 94.3875 82.9226 94.3875C91.0694 94.3875 97.6802 90.4219 97.6802 85.5563C97.7351 80.7469 91.2615 76.8375 83.2243 76.725Z" fill="url(#paint2_linear_377_170)"/>
</g>
<g opacity="0.5294">
<path d="M383.616 108.422C381.943 103.809 377.28 100.491 371.766 100.491C366.253 100.491 361.562 103.809 359.916 108.45C359.697 108.45 359.477 108.422 359.258 108.422C352.839 108.422 347.655 112.388 347.655 117.253C347.655 122.119 352.867 126.084 359.258 126.084C362.714 126.084 380.105 126.084 383.397 126.084C389.816 126.084 395 122.119 395 117.253C395 112.444 389.925 108.534 383.616 108.422Z" fill="url(#paint3_linear_377_170)"/>
</g>
<g opacity="0.5294">
<path d="M305.631 94.4156C302.586 90.225 294.11 87.1875 284.071 87.1875C274.031 87.1875 265.528 90.225 262.51 94.4156C262.126 94.4156 261.715 94.4156 261.331 94.4156C249.673 94.4156 240.209 98.0156 240.209 102.459C240.209 106.903 249.673 110.503 261.331 110.503C267.64 110.503 299.212 110.503 305.22 110.503C316.878 110.503 326.341 106.903 326.341 102.459C326.341 98.0437 317.125 94.5 305.631 94.4156Z" fill="url(#paint4_linear_377_170)"/>
</g>
<g opacity="0.5294">
<path d="M156.244 127.913C153.2 123.722 144.724 120.684 134.684 120.684C124.644 120.684 116.141 123.722 113.124 127.913C112.74 127.913 112.328 127.913 111.944 127.913C100.286 127.913 90.8226 131.513 90.8226 135.956C90.8226 140.4 100.286 144 111.944 144C118.253 144 149.826 144 155.833 144C167.491 144 176.955 140.4 176.955 135.956C176.955 131.569 167.71 127.997 156.244 127.913Z" fill="url(#paint5_linear_377_170)"/>
</g>
</g>
<path d="M342.141 189.759L368.447 140.597L392.037 189.506" fill="#0D387C"/>
<path d="M342.141 189.759L368.447 140.597L392.037 189.506" stroke="#0D387C" stroke-width="1.2252" stroke-miterlimit="10"/>
<path d="M313.339 211.05L339.645 161.887L369.819 224.184" fill="#0D387C"/>
<path d="M313.339 211.05L339.645 161.887L369.819 224.184" stroke="#0D387C" stroke-width="1.2252" stroke-miterlimit="10"/>
<path d="M109.228 247.106L126.894 210.403L146.177 256.331" fill="#0D387C"/>
<path d="M109.228 247.106L126.894 210.403L146.177 256.331" stroke="#0D387C" stroke-width="0.8546" stroke-miterlimit="10"/>
<path opacity="0.7686" d="M13.9347 14.2031C14.6922 14.2031 15.3063 13.5735 15.3063 12.7969C15.3063 12.0202 14.6922 11.3906 13.9347 11.3906C13.1773 11.3906 12.5632 12.0202 12.5632 12.7969C12.5632 13.5735 13.1773 14.2031 13.9347 14.2031Z" fill="white"/>
<path opacity="0.302" d="M101.63 29.3063C102.388 29.3063 103.002 28.6767 103.002 27.9C103.002 27.1234 102.388 26.4938 101.63 26.4938C100.873 26.4938 100.259 27.1234 100.259 27.9C100.259 28.6767 100.873 29.3063 101.63 29.3063Z" fill="white"/>
<path opacity="0.2588" d="M16.8972 65.25C17.8062 65.25 18.5431 64.4945 18.5431 63.5625C18.5431 62.6305 17.8062 61.875 16.8972 61.875C15.9883 61.875 15.2514 62.6305 15.2514 63.5625C15.2514 64.4945 15.9883 65.25 16.8972 65.25Z" fill="white"/>
<path opacity="0.4902" d="M292.273 66.9375C293.182 66.9375 293.918 66.182 293.918 65.25C293.918 64.318 293.182 63.5625 292.273 63.5625C291.364 63.5625 290.627 64.318 290.627 65.25C290.627 66.182 291.364 66.9375 292.273 66.9375Z" fill="white"/>
<path opacity="0.6" d="M300.529 35.5781C301.438 35.5781 302.175 34.8226 302.175 33.8906C302.175 32.9586 301.438 32.2031 300.529 32.2031C299.62 32.2031 298.883 32.9586 298.883 33.8906C298.883 34.8226 299.62 35.5781 300.529 35.5781Z" fill="white"/>
<path opacity="0.5882" d="M339.919 18.6469C340.828 18.6469 341.565 17.8914 341.565 16.9594C341.565 16.0274 340.828 15.2719 339.919 15.2719C339.01 15.2719 338.274 16.0274 338.274 16.9594C338.274 17.8914 339.01 18.6469 339.919 18.6469Z" fill="white"/>
<path opacity="0.3686" d="M138.305 11.4188C139.214 11.4188 139.951 10.6632 139.951 9.73126C139.951 8.79928 139.214 8.04376 138.305 8.04376C137.396 8.04376 136.659 8.79928 136.659 9.73126C136.659 10.6632 137.396 11.4188 138.305 11.4188Z" fill="white"/>
<path opacity="0.6902" d="M41.667 93.1219C42.4245 93.1219 43.0385 92.4923 43.0385 91.7156C43.0385 90.939 42.4245 90.3094 41.667 90.3094C40.9095 90.3094 40.2955 90.939 40.2955 91.7156C40.2955 92.4923 40.9095 93.1219 41.667 93.1219Z" fill="white"/>
<path opacity="0.5294" d="M247.122 19.7719C247.879 19.7719 248.493 19.1423 248.493 18.3656C248.493 17.589 247.879 16.9594 247.122 16.9594C246.364 16.9594 245.75 17.589 245.75 18.3656C245.75 19.1423 246.364 19.7719 247.122 19.7719Z" fill="white"/>
<path opacity="0.2196" d="M259.85 81.7594C260.607 81.7594 261.221 81.1298 261.221 80.3531C261.221 79.5765 260.607 78.9469 259.85 78.9469C259.092 78.9469 258.478 79.5765 258.478 80.3531C258.478 81.1298 259.092 81.7594 259.85 81.7594Z" fill="white"/>
<path opacity="0.902" d="M379.666 50.9062C380.424 50.9062 381.038 50.2767 381.038 49.5C381.038 48.7233 380.424 48.0938 379.666 48.0938C378.909 48.0938 378.295 48.7233 378.295 49.5C378.295 50.2767 378.909 50.9062 379.666 50.9062Z" fill="white"/>
<path opacity="0.451" d="M341.565 78.8063C342.02 78.8063 342.388 78.4285 342.388 77.9625C342.388 77.4965 342.02 77.1188 341.565 77.1188C341.111 77.1188 340.742 77.4965 340.742 77.9625C340.742 78.4285 341.111 78.8063 341.565 78.8063Z" fill="white"/>
<path d="M383.095 87.7219C383.55 87.7219 383.918 87.3441 383.918 86.8781C383.918 86.4122 383.55 86.0344 383.095 86.0344C382.641 86.0344 382.272 86.4122 382.272 86.8781C382.272 87.3441 382.641 87.7219 383.095 87.7219Z" fill="white"/>
<path opacity="0.7098" d="M219.033 64.4062C219.487 64.4062 219.856 64.0285 219.856 63.5625C219.856 63.0965 219.487 62.7188 219.033 62.7188C218.578 62.7188 218.21 63.0965 218.21 63.5625C218.21 64.0285 218.578 64.4062 219.033 64.4062Z" fill="white"/>
<path opacity="0.5216" d="M106.101 117.619C106.404 117.619 106.65 117.367 106.65 117.056C106.65 116.746 106.404 116.494 106.101 116.494C105.798 116.494 105.553 116.746 105.553 117.056C105.553 117.367 105.798 117.619 106.101 117.619Z" fill="white"/>
<path opacity="0.6902" d="M8.33889 114.469C8.64188 114.469 8.88751 114.217 8.88751 113.906C8.88751 113.596 8.64188 113.344 8.33889 113.344C8.0359 113.344 7.79028 113.596 7.79028 113.906C7.79028 114.217 8.0359 114.469 8.33889 114.469Z" fill="white"/>
<path d="M165.105 69.3563C165.408 69.3563 165.653 69.1044 165.653 68.7938C165.653 68.4831 165.408 68.2313 165.105 68.2313C164.802 68.2313 164.556 68.4831 164.556 68.7938C164.556 69.1044 164.802 69.3563 165.105 69.3563Z" fill="white"/>
<path d="M269.121 103.697C269.424 103.697 269.67 103.445 269.67 103.134C269.67 102.824 269.424 102.572 269.121 102.572C268.818 102.572 268.573 102.824 268.573 103.134C268.573 103.445 268.818 103.697 269.121 103.697Z" fill="white"/>
<path opacity="0.5686" d="M313.394 96.6094C313.697 96.6094 313.943 96.3575 313.943 96.0469C313.943 95.7362 313.697 95.4844 313.394 95.4844C313.091 95.4844 312.845 95.7362 312.845 96.0469C312.845 96.3575 313.091 96.6094 313.394 96.6094Z" fill="white"/>
<path d="M352.373 121.5C352.676 121.5 352.922 121.248 352.922 120.938C352.922 120.627 352.676 120.375 352.373 120.375C352.07 120.375 351.824 120.627 351.824 120.938C351.824 121.248 352.07 121.5 352.373 121.5Z" fill="white"/>
<path d="M281.053 135.591C281.356 135.591 281.602 135.339 281.602 135.028C281.602 134.717 281.356 134.466 281.053 134.466C280.75 134.466 280.505 134.717 280.505 135.028C280.505 135.339 280.75 135.591 281.053 135.591Z" fill="white"/>
<path d="M384.96 28.4625C385.263 28.4625 385.509 28.2107 385.509 27.9C385.509 27.5894 385.263 27.3375 384.96 27.3375C384.657 27.3375 384.412 27.5894 384.412 27.9C384.412 28.2107 384.657 28.4625 384.96 28.4625Z" fill="white"/>
<path opacity="0.1882" d="M156.574 34.7344C157.028 34.7344 157.397 34.3566 157.397 33.8906C157.397 33.4246 157.028 33.0469 156.574 33.0469C156.119 33.0469 155.751 33.4246 155.751 33.8906C155.751 34.3566 156.119 34.7344 156.574 34.7344Z" fill="white"/>
<path opacity="0.8588" d="M186.445 47.6719C186.9 47.6719 187.268 47.2941 187.268 46.8281C187.268 46.3621 186.9 45.9844 186.445 45.9844C185.991 45.9844 185.623 46.3621 185.623 46.8281C185.623 47.2941 185.991 47.6719 186.445 47.6719Z" fill="white"/>
<path opacity="0.3608" d="M275.979 10.575C276.433 10.575 276.802 10.1973 276.802 9.73126C276.802 9.26527 276.433 8.88751 275.979 8.88751C275.524 8.88751 275.156 9.26527 275.156 9.73126C275.156 10.1973 275.524 10.575 275.979 10.575Z" fill="white"/>
<path d="M203.315 13.6406C203.77 13.6406 204.138 13.2629 204.138 12.7969C204.138 12.3309 203.77 11.9531 203.315 11.9531C202.861 11.9531 202.492 12.3309 202.492 12.7969C202.492 13.2629 202.861 13.6406 203.315 13.6406Z" fill="white"/>
<path opacity="0.7686" d="M121.051 54.2812C121.506 54.2812 121.874 53.9035 121.874 53.4375C121.874 52.9715 121.506 52.5938 121.051 52.5938C120.597 52.5938 120.228 52.9715 120.228 53.4375C120.228 53.9035 120.597 54.2812 121.051 54.2812Z" fill="white"/>
<path opacity="0.6392" d="M145.574 90.0563C146.028 90.0563 146.397 89.6785 146.397 89.2125C146.397 88.7465 146.028 88.3688 145.574 88.3688C145.119 88.3688 144.751 88.7465 144.751 89.2125C144.751 89.6785 145.119 90.0563 145.574 90.0563Z" fill="white"/>
<path opacity="0.8902" d="M81.1122 95.9062C81.5666 95.9062 81.9351 95.5285 81.9351 95.0625C81.9351 94.5965 81.5666 94.2188 81.1122 94.2188C80.6577 94.2188 80.2892 94.5965 80.2892 95.0625C80.2892 95.5285 80.6577 95.9062 81.1122 95.9062Z" fill="white"/>
<path d="M67.6163 37.575C68.0708 37.575 68.4392 37.1973 68.4392 36.7313C68.4392 36.2653 68.0708 35.8875 67.6163 35.8875C67.1618 35.8875 66.7934 36.2653 66.7934 36.7313C66.7934 37.1973 67.1618 37.575 67.6163 37.575Z" fill="white"/>
<path d="M37.4976 26.0719C37.9521 26.0719 38.3205 25.6941 38.3205 25.2281C38.3205 24.7622 37.9521 24.3844 37.4976 24.3844C37.0431 24.3844 36.6747 24.7622 36.6747 25.2281C36.6747 25.6941 37.0431 26.0719 37.4976 26.0719Z" fill="white"/>
<path opacity="0.4" d="M367.185 149.372C367.943 149.372 368.557 148.742 368.557 147.966C368.557 147.189 367.943 146.559 367.185 146.559C366.428 146.559 365.814 147.189 365.814 147.966C365.814 148.742 366.428 149.372 367.185 149.372Z" fill="white"/>
<path d="M395 234.731H0V288H395V234.731Z" fill="url(#paint6_linear_377_170)"/>
<path d="M8.33888 165.094V273.178" stroke="#0D387C" stroke-width="8.0729" stroke-miterlimit="10"/>
<path d="M29.625 152.719V273.178" stroke="#0D387C" stroke-width="8.5225" stroke-miterlimit="10"/>
<path d="M50.9111 146.081V273.178" stroke="#0D387C" stroke-width="8.7536" stroke-miterlimit="10"/>
<path d="M72.1972 144.113V273.178" stroke="#0D387C" stroke-width="8.8213" stroke-miterlimit="10"/>
<path d="M135.562 155.728V273.6" stroke="#0D387C" stroke-width="8.4304" stroke-miterlimit="10"/>
<path d="M114.276 149.119V273.6" stroke="#0D387C" stroke-width="8.6636" stroke-miterlimit="10"/>
<path d="M92.9896 144V273.6" stroke="#0D387C" stroke-width="8.8399" stroke-miterlimit="10"/>
<path d="M262.593 214.312V263.869" stroke="#0D387C" stroke-width="5.4665" stroke-miterlimit="10"/>
<path d="M241.307 203.597V263.869" stroke="#0D387C" stroke-width="6.0288" stroke-miterlimit="10"/>
<path d="M220.02 194.287V263.869" stroke="#0D387C" stroke-width="6.477" stroke-miterlimit="10"/>
<path d="M199.146 187.988V262.153" stroke="#0D387C" stroke-width="6.6869" stroke-miterlimit="10"/>
<path d="M177.86 172.434V262.153" stroke="#0D387C" stroke-width="7.3542" stroke-miterlimit="10"/>
<path d="M156.574 164.391V262.153" stroke="#0D387C" stroke-width="7.6773" stroke-miterlimit="10"/>
<path d="M-3.29167 168.666C22.3833 141.019 62.9257 133.819 99.2712 139.809C135.617 145.8 169.192 163.097 202.931 178.538C236.671 193.978 273.922 221.709 310.678 220.444C347.435 219.178 384.137 201.403 398.319 165.741" stroke="#0D387C" stroke-width="8.0664" stroke-miterlimit="10"/>
<path d="M-3.29167 174.825C22.3833 147.178 62.9257 139.978 99.2712 145.969C135.617 151.959 169.192 169.256 202.931 184.697C236.643 200.138 273.922 227.869 310.678 226.603C347.435 225.337 384.137 207.563 398.319 171.9" stroke="#0D387C" stroke-width="8.0664" stroke-miterlimit="10"/>
<path d="M72.1972 139.922C73.7122 139.922 74.9403 138.663 74.9403 137.109C74.9403 135.556 73.7122 134.297 72.1972 134.297C70.6823 134.297 69.4542 135.556 69.4542 137.109C69.4542 138.663 70.6823 139.922 72.1972 139.922Z" fill="url(#paint7_radial_377_170)"/>
<path d="M92.9896 140.653C94.5045 140.653 95.7326 139.394 95.7326 137.841C95.7326 136.287 94.5045 135.028 92.9896 135.028C91.4746 135.028 90.2465 136.287 90.2465 137.841C90.2465 139.394 91.4746 140.653 92.9896 140.653Z" fill="url(#paint8_radial_377_170)"/>
<path d="M114.385 145.547C115.9 145.547 117.128 144.288 117.128 142.734C117.128 141.181 115.9 139.922 114.385 139.922C112.87 139.922 111.642 141.181 111.642 142.734C111.642 144.288 112.87 145.547 114.385 145.547Z" fill="url(#paint9_radial_377_170)"/>
<path d="M135.562 151.706C137.077 151.706 138.305 150.447 138.305 148.894C138.305 147.34 137.077 146.081 135.562 146.081C134.047 146.081 132.819 147.34 132.819 148.894C132.819 150.447 134.047 151.706 135.562 151.706Z" fill="url(#paint10_radial_377_170)"/>
<path d="M155.175 158.541C156.69 158.541 157.918 157.281 157.918 155.728C157.918 154.175 156.69 152.916 155.175 152.916C153.66 152.916 152.432 154.175 152.432 155.728C152.432 157.281 153.66 158.541 155.175 158.541Z" fill="url(#paint11_radial_377_170)"/>
<path d="M221.776 190.8C223.291 190.8 224.519 189.541 224.519 187.988C224.519 186.434 223.291 185.175 221.776 185.175C220.261 185.175 219.033 186.434 219.033 187.988C219.033 189.541 220.261 190.8 221.776 190.8Z" fill="url(#paint12_radial_377_170)"/>
<path d="M241.307 200.222C242.822 200.222 244.05 198.963 244.05 197.409C244.05 195.856 242.822 194.597 241.307 194.597C239.792 194.597 238.564 195.856 238.564 197.409C238.564 198.963 239.792 200.222 241.307 200.222Z" fill="url(#paint13_radial_377_170)"/>
<path d="M262.593 210.769C264.108 210.769 265.336 209.51 265.336 207.956C265.336 206.403 264.108 205.144 262.593 205.144C261.078 205.144 259.85 206.403 259.85 207.956C259.85 209.51 261.078 210.769 262.593 210.769Z" fill="url(#paint14_radial_377_170)"/>
<path d="M281.657 218.981C283.172 218.981 284.4 217.722 284.4 216.169C284.4 214.615 283.172 213.356 281.657 213.356C280.142 213.356 278.914 214.615 278.914 216.169C278.914 217.722 280.142 218.981 281.657 218.981Z" fill="url(#paint15_radial_377_170)"/>
<path d="M50.9111 142.734C52.4261 142.734 53.6542 141.475 53.6542 139.922C53.6542 138.369 52.4261 137.109 50.9111 137.109C49.3962 137.109 48.1681 138.369 48.1681 139.922C48.1681 141.475 49.3962 142.734 50.9111 142.734Z" fill="url(#paint16_radial_377_170)"/>
<path d="M29.625 148.894C31.14 148.894 32.3681 147.635 32.3681 146.081C32.3681 144.528 31.14 143.269 29.625 143.269C28.1101 143.269 26.882 144.528 26.882 146.081C26.882 147.635 28.1101 148.894 29.625 148.894Z" fill="url(#paint17_radial_377_170)"/>
<path d="M8.3389 159.863C9.85384 159.863 11.082 158.603 11.082 157.05C11.082 155.497 9.85384 154.238 8.3389 154.238C6.82395 154.238 5.59584 155.497 5.59584 157.05C5.59584 158.603 6.82395 159.863 8.3389 159.863Z" fill="url(#paint18_radial_377_170)"/>
<path d="M333.062 118.8H329.304C329.331 118.547 329.331 118.322 329.331 118.069C329.331 111.713 324.284 106.538 318.085 106.538C311.885 106.538 306.838 111.713 306.838 118.069C306.838 118.322 306.838 118.575 306.866 118.8H303.108C300.502 118.8 298.362 120.966 298.362 123.666V134.775C298.362 137.447 300.474 139.641 303.108 139.641H308.758V274.753H327.411V139.613H333.062C335.668 139.613 337.807 137.447 337.807 134.747V123.638C337.807 120.994 335.668 118.8 333.062 118.8Z" fill="url(#paint19_linear_377_170)"/>
<path d="M318.085 125.663C322.63 125.663 326.314 121.885 326.314 117.225C326.314 112.565 322.63 108.788 318.085 108.788C313.54 108.788 309.856 112.565 309.856 117.225C309.856 121.885 313.54 125.663 318.085 125.663Z" fill="url(#paint20_radial_377_170)"/>
<path d="M317.948 146.503C319.917 146.503 321.514 144.866 321.514 142.847C321.514 140.828 319.917 139.191 317.948 139.191C315.978 139.191 314.382 140.828 314.382 142.847C314.382 144.866 315.978 146.503 317.948 146.503Z" fill="url(#paint21_radial_377_170)"/>
<path d="M317.948 156.628C319.917 156.628 321.514 154.991 321.514 152.972C321.514 150.953 319.917 149.316 317.948 149.316C315.978 149.316 314.382 150.953 314.382 152.972C314.382 154.991 315.978 156.628 317.948 156.628Z" fill="url(#paint22_radial_377_170)"/>
<path d="M317.948 166.753C319.917 166.753 321.514 165.116 321.514 163.097C321.514 161.078 319.917 159.441 317.948 159.441C315.978 159.441 314.382 161.078 314.382 163.097C314.382 165.116 315.978 166.753 317.948 166.753Z" fill="url(#paint23_radial_377_170)"/>
<path d="M317.948 176.878C319.917 176.878 321.514 175.241 321.514 173.222C321.514 171.203 319.917 169.566 317.948 169.566C315.978 169.566 314.382 171.203 314.382 173.222C314.382 175.241 315.978 176.878 317.948 176.878Z" fill="url(#paint24_radial_377_170)"/>
<path d="M317.948 187.003C319.917 187.003 321.514 185.366 321.514 183.347C321.514 181.328 319.917 179.691 317.948 179.691C315.978 179.691 314.382 181.328 314.382 183.347C314.382 185.366 315.978 187.003 317.948 187.003Z" fill="url(#paint25_radial_377_170)"/>
<path d="M317.948 197.128C319.917 197.128 321.514 195.491 321.514 193.472C321.514 191.453 319.917 189.816 317.948 189.816C315.978 189.816 314.382 191.453 314.382 193.472C314.382 195.491 315.978 197.128 317.948 197.128Z" fill="url(#paint26_radial_377_170)"/>
<path d="M317.948 207.253C319.917 207.253 321.514 205.616 321.514 203.597C321.514 201.578 319.917 199.941 317.948 199.941C315.978 199.941 314.382 201.578 314.382 203.597C314.382 205.616 315.978 207.253 317.948 207.253Z" fill="url(#paint27_radial_377_170)"/>
<path d="M317.948 217.378C319.917 217.378 321.514 215.741 321.514 213.722C321.514 211.703 319.917 210.066 317.948 210.066C315.978 210.066 314.382 211.703 314.382 213.722C314.382 215.741 315.978 217.378 317.948 217.378Z" fill="url(#paint28_radial_377_170)"/>
<path d="M88.0247 196.397H41.3653V266.372H88.0247V196.397Z" fill="url(#paint29_linear_377_170)"/>
<path d="M26.1413 268.678L19.9969 194.85L28.9941 194.062L35.1385 267.891L26.1413 268.678Z" fill="url(#paint30_linear_377_170)"/>
<path d="M103.276 268.678L109.393 194.85L100.396 194.062L94.2514 267.891L103.276 268.678Z" fill="url(#paint31_linear_377_170)"/>
<path d="M112.822 188.156C104.318 183.741 90.1642 187.734 87.3389 181.125C84.4038 174.291 74.6385 174.797 71.8406 173.503C71.484 173.334 71.2097 173.166 70.9628 172.969C72.3618 172.013 73.2396 170.719 73.2396 169.284C73.2396 166.275 69.4267 163.856 64.7087 163.856C59.9906 163.856 56.1778 166.303 56.1778 169.284C56.1778 170.719 57.0281 171.984 58.4545 172.969C58.2076 173.166 57.9333 173.334 57.5767 173.503C54.7788 174.769 44.9861 174.291 42.0785 181.125C39.2531 187.734 25.1264 183.741 16.5955 188.156C9.54583 191.813 8.36632 198.731 8.36632 198.731H8.42118V202.584H121.051V198.731H121.106C121.051 198.731 119.872 191.841 112.822 188.156Z" fill="url(#paint32_linear_377_170)"/>
<path d="M64.7087 179.184C70.2534 179.184 74.7483 174.576 74.7483 168.891C74.7483 163.206 70.2534 158.597 64.7087 158.597C59.164 158.597 54.6691 163.206 54.6691 168.891C54.6691 174.576 59.164 179.184 64.7087 179.184Z" fill="url(#paint33_radial_377_170)"/>
<path d="M25.3184 212.569C27.4545 212.569 29.1861 210.793 29.1861 208.603C29.1861 206.413 27.4545 204.637 25.3184 204.637C23.1823 204.637 21.4507 206.413 21.4507 208.603C21.4507 210.793 23.1823 212.569 25.3184 212.569Z" fill="url(#paint34_radial_377_170)"/>
<path d="M38.0188 211.444C40.1548 211.444 41.8865 209.668 41.8865 207.478C41.8865 205.288 40.1548 203.512 38.0188 203.512C35.8827 203.512 34.151 205.288 34.151 207.478C34.151 209.668 35.8827 211.444 38.0188 211.444Z" fill="url(#paint35_radial_377_170)"/>
<path d="M26.4156 225.591C28.5517 225.591 30.2833 223.815 30.2833 221.625C30.2833 219.435 28.5517 217.659 26.4156 217.659C24.2796 217.659 22.5479 219.435 22.5479 221.625C22.5479 223.815 24.2796 225.591 26.4156 225.591Z" fill="url(#paint36_radial_377_170)"/>
<path d="M27.5129 238.613C29.6489 238.613 31.3806 236.837 31.3806 234.647C31.3806 232.457 29.6489 230.681 27.5129 230.681C25.3768 230.681 23.6451 232.457 23.6451 234.647C23.6451 236.837 25.3768 238.613 27.5129 238.613Z" fill="url(#paint37_radial_377_170)"/>
<path d="M28.6101 251.634C30.7462 251.634 32.4778 249.859 32.4778 247.669C32.4778 245.479 30.7462 243.703 28.6101 243.703C26.474 243.703 24.7424 245.479 24.7424 247.669C24.7424 249.859 26.474 251.634 28.6101 251.634Z" fill="url(#paint38_radial_377_170)"/>
<path d="M29.6799 264.656C31.8159 264.656 33.5476 262.881 33.5476 260.691C33.5476 258.5 31.8159 256.725 29.6799 256.725C27.5438 256.725 25.8122 258.5 25.8122 260.691C25.8122 262.881 27.5438 264.656 29.6799 264.656Z" fill="url(#paint39_radial_377_170)"/>
<path d="M30.7771 277.678C32.9132 277.678 34.6448 275.903 34.6448 273.713C34.6448 271.522 32.9132 269.747 30.7771 269.747C28.641 269.747 26.9094 271.522 26.9094 273.713C26.9094 275.903 28.641 277.678 30.7771 277.678Z" fill="url(#paint40_radial_377_170)"/>
<path d="M98.6128 277.678C100.749 277.678 102.481 275.903 102.481 273.713C102.481 271.522 100.749 269.747 98.6128 269.747C96.4768 269.747 94.7451 271.522 94.7451 273.713C94.7451 275.903 96.4768 277.678 98.6128 277.678Z" fill="url(#paint41_radial_377_170)"/>
<path d="M99.7101 264.656C101.846 264.656 103.578 262.881 103.578 260.691C103.578 258.5 101.846 256.725 99.7101 256.725C97.574 256.725 95.8424 258.5 95.8424 260.691C95.8424 262.881 97.574 264.656 99.7101 264.656Z" fill="url(#paint42_radial_377_170)"/>
<path d="M100.807 251.634C102.943 251.634 104.675 249.859 104.675 247.669C104.675 245.479 102.943 243.703 100.807 243.703C98.6712 243.703 96.9396 245.479 96.9396 247.669C96.9396 249.859 98.6712 251.634 100.807 251.634Z" fill="url(#paint43_radial_377_170)"/>
<path d="M101.877 238.613C104.013 238.613 105.745 236.837 105.745 234.647C105.745 232.457 104.013 230.681 101.877 230.681C99.741 230.681 98.0094 232.457 98.0094 234.647C98.0094 236.837 99.741 238.613 101.877 238.613Z" fill="url(#paint44_radial_377_170)"/>
<path d="M102.974 225.591C105.11 225.591 106.842 223.815 106.842 221.625C106.842 219.435 105.11 217.659 102.974 217.659C100.838 217.659 99.1066 219.435 99.1066 221.625C99.1066 223.815 100.838 225.591 102.974 225.591Z" fill="url(#paint45_radial_377_170)"/>
<path d="M104.072 212.569C106.208 212.569 107.939 210.793 107.939 208.603C107.939 206.413 106.208 204.637 104.072 204.637C101.935 204.637 100.204 206.413 100.204 208.603C100.204 210.793 101.935 212.569 104.072 212.569Z" fill="url(#paint46_radial_377_170)"/>
<path d="M91.3712 211.444C93.5073 211.444 95.2389 209.668 95.2389 207.478C95.2389 205.288 93.5073 203.512 91.3712 203.512C89.2351 203.512 87.5035 205.288 87.5035 207.478C87.5035 209.668 89.2351 211.444 91.3712 211.444Z" fill="url(#paint47_radial_377_170)"/>
<path d="M395 262.125H0V288H395V262.125Z" fill="#0D387C"/>
<path d="M333.336 183.431L286.457 216.619C282.26 219.572 279.792 224.381 279.792 229.5V262.125H337.396H395V180.562H342.361C339.124 180.562 335.969 181.575 333.336 183.431Z" fill="url(#paint48_linear_377_170)"/>
<path d="M48.5521 216.056L87.8875 236.812C89.5333 237.684 90.5208 239.288 90.5208 241.031V262.125H45.2604H0V214.312H41.475C43.9437 214.312 46.3851 214.903 48.5521 216.056Z" fill="url(#paint49_linear_377_170)"/>
<path d="M269.615 266.231L284.702 168.159L288.432 168.778L273.345 266.85L269.615 266.231Z" fill="url(#paint50_linear_377_170)"/>
<path d="M285.58 171.675C294.824 177.413 310.24 174.628 317.399 165.459C317.673 175.162 312.845 184.922 305.494 189.647C298.115 194.372 289.914 194.259 283.138 188.747" fill="url(#paint51_linear_377_170)"/>
<path d="M286.567 172.012C288.476 172.012 290.023 170.426 290.023 168.469C290.023 166.512 288.476 164.925 286.567 164.925C284.658 164.925 283.111 166.512 283.111 168.469C283.111 170.426 284.658 172.012 286.567 172.012Z" fill="url(#paint52_linear_377_170)"/>
<g opacity="0.451">
<path d="M29.241 152.719H10.0396V277.847H29.241V152.719Z" fill="url(#paint53_linear_377_170)"/>
<path d="M321.102 152.719H314.519V277.847H321.102V152.719Z" fill="url(#paint54_linear_377_170)"/>
<path d="M127.689 152.719H97.2413V277.847H127.689V152.719Z" fill="url(#paint55_linear_377_170)"/>
<path d="M274.141 152.719H271.398V277.847H274.141V152.719Z" fill="url(#paint56_linear_377_170)"/>
<path d="M384.96 152.719H382.217V277.847H384.96V152.719Z" fill="url(#paint57_linear_377_170)"/>
<path d="M50.3899 152.719H43.1483V277.847H50.3899V152.719Z" fill="url(#paint58_linear_377_170)"/>
<path d="M177.339 152.719H172.675V277.847H177.339V152.719Z" fill="url(#paint59_linear_377_170)"/>
<path d="M86.0497 152.719H73.9802V277.847H86.0497V152.719Z" fill="url(#paint60_linear_377_170)"/>
<path d="M210.008 152.719H197.939V277.847H210.008V152.719Z" fill="url(#paint61_linear_377_170)"/>
<path d="M292.821 152.719H281.3V277.847H292.821V152.719Z" fill="url(#paint62_linear_377_170)"/>
<path d="M374.564 152.719H348.231V277.847H374.564V152.719Z" fill="url(#paint63_linear_377_170)"/>
</g>
<path opacity="0.5294" d="M29.433 227.841C30.4177 227.841 31.216 227.022 31.216 226.012C31.216 225.003 30.4177 224.184 29.433 224.184C28.4483 224.184 27.65 225.003 27.65 226.012C27.65 227.022 28.4483 227.841 29.433 227.841Z" fill="white"/>
<path opacity="0.5294" d="M104.318 192.459C105.303 192.459 106.101 191.641 106.101 190.631C106.101 189.622 105.303 188.803 104.318 188.803C103.334 188.803 102.535 189.622 102.535 190.631C102.535 191.641 103.334 192.459 104.318 192.459Z" fill="white"/>
<path opacity="0.5294" d="M121.024 268.397C122.008 268.397 122.807 267.578 122.807 266.569C122.807 265.559 122.008 264.741 121.024 264.741C120.039 264.741 119.241 265.559 119.241 266.569C119.241 267.578 120.039 268.397 121.024 268.397Z" fill="white"/>
<path opacity="0.5294" d="M73.9802 243.844C74.9649 243.844 75.7632 243.025 75.7632 242.016C75.7632 241.006 74.9649 240.188 73.9802 240.188C72.9955 240.188 72.1972 241.006 72.1972 242.016C72.1972 243.025 72.9955 243.844 73.9802 243.844Z" fill="white"/>
<path opacity="0.5294" d="M119.241 230.653C119.998 230.653 120.612 230.024 120.612 229.247C120.612 228.47 119.998 227.841 119.241 227.841C118.483 227.841 117.869 228.47 117.869 229.247C117.869 230.024 118.483 230.653 119.241 230.653Z" fill="white"/>
<path opacity="0.5294" d="M81.6608 181.969C82.4182 181.969 83.0323 181.339 83.0323 180.562C83.0323 179.786 82.4182 179.156 81.6608 179.156C80.9033 179.156 80.2892 179.786 80.2892 180.562C80.2892 181.339 80.9033 181.969 81.6608 181.969Z" fill="white"/>
<path opacity="0.5294" d="M50.3899 263.531C51.1474 263.531 51.7615 262.902 51.7615 262.125C51.7615 261.348 51.1474 260.719 50.3899 260.719C49.6325 260.719 49.0184 261.348 49.0184 262.125C49.0184 262.902 49.6325 263.531 50.3899 263.531Z" fill="white"/>
<path opacity="0.5294" d="M45.2604 224.887C45.6392 224.887 45.9462 224.573 45.9462 224.184C45.9462 223.796 45.6392 223.481 45.2604 223.481C44.8817 223.481 44.5747 223.796 44.5747 224.184C44.5747 224.573 44.8817 224.887 45.2604 224.887Z" fill="white"/>
<path opacity="0.5294" d="M49.0184 189.506C49.3971 189.506 49.7042 189.191 49.7042 188.803C49.7042 188.415 49.3971 188.1 49.0184 188.1C48.6397 188.1 48.3326 188.415 48.3326 188.803C48.3326 189.191 48.6397 189.506 49.0184 189.506Z" fill="white"/>
<path opacity="0.5294" d="M16.2115 255.319C16.5902 255.319 16.8972 255.004 16.8972 254.616C16.8972 254.227 16.5902 253.912 16.2115 253.912C15.8327 253.912 15.5257 254.227 15.5257 254.616C15.5257 255.004 15.8327 255.319 16.2115 255.319Z" fill="white"/>
<path opacity="0.5294" d="M24.9892 196.397C25.368 196.397 25.675 196.082 25.675 195.694C25.675 195.305 25.368 194.991 24.9892 194.991C24.6105 194.991 24.3035 195.305 24.3035 195.694C24.3035 196.082 24.6105 196.397 24.9892 196.397Z" fill="white"/>
<path opacity="0.5294" d="M75.7632 165.797C76.1419 165.797 76.449 165.482 76.449 165.094C76.449 164.705 76.1419 164.391 75.7632 164.391C75.3845 164.391 75.0774 164.705 75.0774 165.094C75.0774 165.482 75.3845 165.797 75.7632 165.797Z" fill="white"/>
<path opacity="0.5294" d="M83.0323 222.047C83.411 222.047 83.7181 221.732 83.7181 221.344C83.7181 220.955 83.411 220.641 83.0323 220.641C82.6536 220.641 82.3465 220.955 82.3465 221.344C82.3465 221.732 82.6536 222.047 83.0323 222.047Z" fill="white"/>
<path opacity="0.5294" d="M113.7 208.659C114.078 208.659 114.385 208.345 114.385 207.956C114.385 207.568 114.078 207.253 113.7 207.253C113.321 207.253 113.014 207.568 113.014 207.956C113.014 208.345 113.321 208.659 113.7 208.659Z" fill="white"/>
<path opacity="0.5294" d="M104.318 248.794C104.697 248.794 105.004 248.479 105.004 248.091C105.004 247.702 104.697 247.387 104.318 247.387C103.94 247.387 103.633 247.702 103.633 248.091C103.633 248.479 103.94 248.794 104.318 248.794Z" fill="white"/>
<path opacity="0.5294" d="M108.433 171.731C108.812 171.731 109.119 171.416 109.119 171.028C109.119 170.64 108.812 170.325 108.433 170.325C108.054 170.325 107.747 170.64 107.747 171.028C107.747 171.416 108.054 171.731 108.433 171.731Z" fill="white"/>
<path opacity="0.5294" d="M174.788 258.975C175.166 258.975 175.473 258.66 175.473 258.272C175.473 257.884 175.166 257.569 174.788 257.569C174.409 257.569 174.102 257.884 174.102 258.272C174.102 258.66 174.409 258.975 174.788 258.975Z" fill="white"/>
<path opacity="0.5294" d="M175.473 185.878C175.852 185.878 176.159 185.563 176.159 185.175C176.159 184.787 175.852 184.472 175.473 184.472C175.095 184.472 174.788 184.787 174.788 185.175C174.788 185.563 175.095 185.878 175.473 185.878Z" fill="white"/>
<path opacity="0.5294" d="M201.532 198.816C201.911 198.816 202.218 198.501 202.218 198.113C202.218 197.724 201.911 197.409 201.532 197.409C201.154 197.409 200.847 197.724 200.847 198.113C200.847 198.501 201.154 198.816 201.532 198.816Z" fill="white"/>
<path opacity="0.5294" d="M205.702 227.081C206.08 227.081 206.388 226.766 206.388 226.378C206.388 225.99 206.08 225.675 205.702 225.675C205.323 225.675 205.016 225.99 205.016 226.378C205.016 226.766 205.323 227.081 205.702 227.081Z" fill="white"/>
<path opacity="0.5294" d="M284.702 229.95C285.08 229.95 285.388 229.635 285.388 229.247C285.388 228.859 285.08 228.544 284.702 228.544C284.323 228.544 284.016 228.859 284.016 229.247C284.016 229.635 284.323 229.95 284.702 229.95Z" fill="white"/>
<path opacity="0.5294" d="M287.253 173.137C287.632 173.137 287.939 172.823 287.939 172.434C287.939 172.046 287.632 171.731 287.253 171.731C286.874 171.731 286.567 172.046 286.567 172.434C286.567 172.823 286.874 173.137 287.253 173.137Z" fill="white"/>
<path opacity="0.5294" d="M319.731 182.672C320.109 182.672 320.416 182.357 320.416 181.969C320.416 181.58 320.109 181.266 319.731 181.266C319.352 181.266 319.045 181.58 319.045 181.969C319.045 182.357 319.352 182.672 319.731 182.672Z" fill="white"/>
<path opacity="0.5294" d="M316.302 223.453C316.68 223.453 316.988 223.138 316.988 222.75C316.988 222.362 316.68 222.047 316.302 222.047C315.923 222.047 315.616 222.362 315.616 222.75C315.616 223.138 315.923 223.453 316.302 223.453Z" fill="white"/>
<path opacity="0.5294" d="M325.08 262.828C325.458 262.828 325.765 262.513 325.765 262.125C325.765 261.737 325.458 261.422 325.08 261.422C324.701 261.422 324.394 261.737 324.394 262.125C324.394 262.513 324.701 262.828 325.08 262.828Z" fill="white"/>
<path opacity="0.5294" d="M355.939 262.828C356.318 262.828 356.625 262.513 356.625 262.125C356.625 261.737 356.318 261.422 355.939 261.422C355.56 261.422 355.253 261.737 355.253 262.125C355.253 262.513 355.56 262.828 355.939 262.828Z" fill="white"/>
<path opacity="0.5294" d="M367.871 177.947C368.25 177.947 368.557 177.632 368.557 177.244C368.557 176.855 368.25 176.541 367.871 176.541C367.492 176.541 367.185 176.855 367.185 177.244C367.185 177.632 367.492 177.947 367.871 177.947Z" fill="white"/>
<path opacity="0.5294" d="M384.96 238.922C385.339 238.922 385.646 238.607 385.646 238.219C385.646 237.83 385.339 237.516 384.96 237.516C384.582 237.516 384.275 237.83 384.275 238.219C384.275 238.607 384.582 238.922 384.96 238.922Z" fill="white"/>
<path opacity="0.5294" d="M380.352 173.841C380.731 173.841 381.038 173.526 381.038 173.137C381.038 172.749 380.731 172.434 380.352 172.434C379.973 172.434 379.666 172.749 379.666 173.137C379.666 173.526 379.973 173.841 380.352 173.841Z" fill="white"/>
<path opacity="0.5294" d="M14.1542 165.094C14.9116 165.094 15.5257 164.464 15.5257 163.688C15.5257 162.911 14.9116 162.281 14.1542 162.281C13.3967 162.281 12.7826 162.911 12.7826 163.688C12.7826 164.464 13.3967 165.094 14.1542 165.094Z" fill="white"/>
<path opacity="0.5294" d="M210.008 266.147C210.766 266.147 211.38 265.517 211.38 264.741C211.38 263.964 210.766 263.334 210.008 263.334C209.251 263.334 208.637 263.964 208.637 264.741C208.637 265.517 209.251 266.147 210.008 266.147Z" fill="white"/>
<path opacity="0.5294" d="M174.788 218.391C175.545 218.391 176.159 217.761 176.159 216.984C176.159 216.208 175.545 215.578 174.788 215.578C174.03 215.578 173.416 216.208 173.416 216.984C173.416 217.761 174.03 218.391 174.788 218.391Z" fill="white"/>
<path opacity="0.5294" d="M290.819 195.694C291.576 195.694 292.19 195.064 292.19 194.287C292.19 193.511 291.576 192.881 290.819 192.881C290.061 192.881 289.447 193.511 289.447 194.287C289.447 195.064 290.061 195.694 290.819 195.694Z" fill="white"/>
<path opacity="0.5294" d="M321.102 239.625C321.86 239.625 322.474 238.995 322.474 238.219C322.474 237.442 321.86 236.812 321.102 236.812C320.345 236.812 319.731 237.442 319.731 238.219C319.731 238.995 320.345 239.625 321.102 239.625Z" fill="white"/>
<path opacity="0.5294" d="M364.717 222.75C365.474 222.75 366.088 222.12 366.088 221.344C366.088 220.567 365.474 219.938 364.717 219.938C363.959 219.938 363.345 220.567 363.345 221.344C363.345 222.12 363.959 222.75 364.717 222.75Z" fill="white"/>
<path opacity="0.5294" d="M381.724 267.553C382.481 267.553 383.095 266.924 383.095 266.147C383.095 265.37 382.481 264.741 381.724 264.741C380.966 264.741 380.352 265.37 380.352 266.147C380.352 266.924 380.966 267.553 381.724 267.553Z" fill="white"/>
<path opacity="0.5294" d="M289.036 258.272C290.02 258.272 290.819 257.453 290.819 256.444C290.819 255.434 290.02 254.616 289.036 254.616C288.051 254.616 287.253 255.434 287.253 256.444C287.253 257.453 288.051 258.272 289.036 258.272Z" fill="white"/>
<path opacity="0.5294" d="M316.302 209.081C317.286 209.081 318.085 208.263 318.085 207.253C318.085 206.243 317.286 205.425 316.302 205.425C315.317 205.425 314.519 206.243 314.519 207.253C314.519 208.263 315.317 209.081 316.302 209.081Z" fill="white"/>
<path opacity="0.5294" d="M354.156 194.287C355.141 194.287 355.939 193.469 355.939 192.459C355.939 191.45 355.141 190.631 354.156 190.631C353.171 190.631 352.373 191.45 352.373 192.459C352.373 193.469 353.171 194.287 354.156 194.287Z" fill="white"/>
<path opacity="0.5294" d="M367.871 250.481C368.856 250.481 369.654 249.663 369.654 248.653C369.654 247.643 368.856 246.825 367.871 246.825C366.886 246.825 366.088 247.643 366.088 248.653C366.088 249.663 366.886 250.481 367.871 250.481Z" fill="white"/>
<path opacity="0.5294" d="M384.96 205.425C385.945 205.425 386.743 204.607 386.743 203.597C386.743 202.587 385.945 201.769 384.96 201.769C383.976 201.769 383.177 202.587 383.177 203.597C383.177 204.607 383.976 205.425 384.96 205.425Z" fill="white"/>
<path opacity="0.149" d="M16.8972 224.831C24.472 224.831 30.6125 218.535 30.6125 210.769C30.6125 203.002 24.472 196.706 16.8972 196.706C9.32248 196.706 3.18195 203.002 3.18195 210.769C3.18195 218.535 9.32248 224.831 16.8972 224.831Z" fill="#C9D2E5"/>
<path opacity="0.0509804" d="M350.233 80.4375C359.323 80.4375 366.692 72.8823 366.692 63.5625C366.692 54.2427 359.323 46.6875 350.233 46.6875C341.144 46.6875 333.775 54.2427 333.775 63.5625C333.775 72.8823 341.144 80.4375 350.233 80.4375Z" fill="#C9D2E5"/>
<path opacity="0.0509804" d="M235.052 52.4813C238.84 52.4813 241.91 49.3333 241.91 45.45C241.91 41.5668 238.84 38.4188 235.052 38.4188C231.265 38.4188 228.195 41.5668 228.195 45.45C228.195 49.3333 231.265 52.4813 235.052 52.4813Z" fill="white"/>
<path opacity="0.0705882" d="M38.9788 81.1406C57.9157 81.1406 73.267 65.4006 73.267 45.9844C73.267 26.5681 57.9157 10.8281 38.9788 10.8281C20.042 10.8281 4.69063 26.5681 4.69063 45.9844C4.69063 65.4006 20.042 81.1406 38.9788 81.1406Z" fill="#FE7098"/>
<path opacity="0.149" d="M298.362 39.6562C302.907 39.6562 306.591 35.8787 306.591 31.2188C306.591 26.5588 302.907 22.7812 298.362 22.7812C293.817 22.7812 290.133 26.5588 290.133 31.2188C290.133 35.8787 293.817 39.6562 298.362 39.6562Z" fill="#B73C94"/>
<path opacity="0.0509804" d="M135.562 79.4813C141.622 79.4813 146.534 74.4445 146.534 68.2313C146.534 62.0181 141.622 56.9813 135.562 56.9813C129.502 56.9813 124.59 62.0181 124.59 68.2313C124.59 74.4445 129.502 79.4813 135.562 79.4813Z" fill="#F99557"/>
<path opacity="0.149" d="M368.475 276.075C374.534 276.075 379.447 271.038 379.447 264.825C379.447 258.612 374.534 253.575 368.475 253.575C362.415 253.575 357.502 258.612 357.502 264.825C357.502 271.038 362.415 276.075 368.475 276.075Z" fill="#F99557"/>
<path opacity="0.149" d="M89.4785 146.841C94.0233 146.841 97.7076 143.063 97.7076 138.403C97.7076 133.743 94.0233 129.966 89.4785 129.966C84.9336 129.966 81.2493 133.743 81.2493 138.403C81.2493 143.063 84.9336 146.841 89.4785 146.841Z" fill="#B73C94"/>
<path opacity="0.0392157" d="M289.447 236.784C309.142 236.784 325.107 220.415 325.107 200.222C325.107 180.029 309.142 163.659 289.447 163.659C269.753 163.659 253.788 180.029 253.788 200.222C253.788 220.415 269.753 236.784 289.447 236.784Z" fill="#FCDC8F"/>
<defs>
<filter id="filter0_f_377_170" x="-14.3767" y="48.7938" width="429.377" height="115.206" filterUnits="userSpaceOnUse" color-interpolation-filters="sRGB">
<feFlood flood-opacity="0" result="BackgroundImageFix"/>
<feBlend mode="normal" in="SourceGraphic" in2="BackgroundImageFix" result="shape"/>
<feGaussianBlur stdDeviation="10" result="effect1_foregroundBlur_377_170"/>
</filter>
<linearGradient id="paint0_linear_377_170" x1="197.5" y1="15.0656" x2="197.5" y2="381.689" gradientUnits="userSpaceOnUse">
<stop stop-color="#0D387C"/>
<stop offset="0.2753" stop-color="#856D93"/>
<stop offset="0.5505" stop-color="#FEA3AA"/>
<stop offset="0.6698" stop-color="#FEADA5"/>
<stop offset="0.8717" stop-color="#FDC899"/>
<stop offset="1" stop-color="#FCDC8F"/>
</linearGradient>
<linearGradient id="paint1_linear_377_170" x1="27.6395" y1="102.151" x2="27.6395" y2="142.452" gradientUnits="userSpaceOnUse">
<stop stop-color="#0D387C"/>
<stop offset="1" stop-color="#C9D2E5"/>
</linearGradient>
<linearGradient id="paint2_linear_377_170" x1="67.6045" y1="64.132" x2="67.6045" y2="104.433" gradientUnits="userSpaceOnUse">
<stop stop-color="#0D387C"/>
<stop offset="1" stop-color="#C9D2E5"/>
</linearGradient>
<linearGradient id="paint3_linear_377_170" x1="371.318" y1="95.8296" x2="371.318" y2="136.13" gradientUnits="userSpaceOnUse">
<stop stop-color="#0D387C"/>
<stop offset="1" stop-color="#C9D2E5"/>
</linearGradient>
<linearGradient id="paint4_linear_377_170" x1="283.289" y1="78.3964" x2="283.289" y2="133.912" gradientUnits="userSpaceOnUse">
<stop stop-color="#0D387C"/>
<stop offset="1" stop-color="#C9D2E5"/>
</linearGradient>
<linearGradient id="paint5_linear_377_170" x1="133.881" y1="114.193" x2="133.881" y2="156.172" gradientUnits="userSpaceOnUse">
<stop stop-color="#0D387C"/>
<stop offset="1" stop-color="#C9D2E5"/>
</linearGradient>
<linearGradient id="paint6_linear_377_170" x1="197.5" y1="270.161" x2="197.5" y2="211.445" gradientUnits="userSpaceOnUse">
<stop stop-color="#0D387C"/>
<stop offset="1" stop-color="#10689A"/>
</linearGradient>
<radialGradient id="paint7_radial_377_170" cx="0" cy="0" r="1" gradientUnits="userSpaceOnUse" gradientTransform="translate(72.2035 137.109) scale(3.28607 3.36926)">
<stop stop-color="white"/>
<stop offset="1" stop-color="white" stop-opacity="0"/>
</radialGradient>
<radialGradient id="paint8_radial_377_170" cx="0" cy="0" r="1" gradientUnits="userSpaceOnUse" gradientTransform="translate(92.9766 137.84) scale(3.28607 3.36926)">
<stop stop-color="white"/>
<stop offset="1" stop-color="white" stop-opacity="0"/>
</radialGradient>
<radialGradient id="paint9_radial_377_170" cx="0" cy="0" r="1" gradientUnits="userSpaceOnUse" gradientTransform="translate(114.385 142.734) scale(3.28607 3.36926)">
<stop stop-color="white"/>
<stop offset="1" stop-color="white" stop-opacity="0"/>
</radialGradient>
<radialGradient id="paint10_radial_377_170" cx="0" cy="0" r="1" gradientUnits="userSpaceOnUse" gradientTransform="translate(135.553 148.907) scale(3.28607 3.36926)">
<stop stop-color="white"/>
<stop offset="1" stop-color="white" stop-opacity="0"/>
</radialGradient>
<radialGradient id="paint11_radial_377_170" cx="0" cy="0" r="1" gradientUnits="userSpaceOnUse" gradientTransform="translate(155.167 155.729) scale(3.28607 3.36926)">
<stop stop-color="white"/>
<stop offset="1" stop-color="white" stop-opacity="0"/>
</radialGradient>
<radialGradient id="paint12_radial_377_170" cx="0" cy="0" r="1" gradientUnits="userSpaceOnUse" gradientTransform="translate(221.763 187.987) scale(3.28607 3.36926)">
<stop stop-color="white"/>
<stop offset="1" stop-color="white" stop-opacity="0"/>
</radialGradient>
<radialGradient id="paint13_radial_377_170" cx="0" cy="0" r="1" gradientUnits="userSpaceOnUse" gradientTransform="translate(241.316 197.422) scale(3.28607 3.36926)">
<stop stop-color="white"/>
<stop offset="1" stop-color="white" stop-opacity="0"/>
</radialGradient>
<radialGradient id="paint14_radial_377_170" cx="0" cy="0" r="1" gradientUnits="userSpaceOnUse" gradientTransform="translate(262.604 207.951) scale(3.28607 3.36926)">
<stop stop-color="white"/>
<stop offset="1" stop-color="white" stop-opacity="0"/>
</radialGradient>
<radialGradient id="paint15_radial_377_170" cx="0" cy="0" r="1" gradientUnits="userSpaceOnUse" gradientTransform="translate(281.657 216.172) scale(3.28608 3.36926)">
<stop stop-color="white"/>
<stop offset="1" stop-color="white" stop-opacity="0"/>
</radialGradient>
<radialGradient id="paint16_radial_377_170" cx="0" cy="0" r="1" gradientUnits="userSpaceOnUse" gradientTransform="translate(50.9152 139.922) scale(3.28607 3.36926)">
<stop stop-color="white"/>
<stop offset="1" stop-color="white" stop-opacity="0"/>
</radialGradient>
<radialGradient id="paint17_radial_377_170" cx="0" cy="0" r="1" gradientUnits="userSpaceOnUse" gradientTransform="translate(29.627 146.094) scale(3.28607 3.36927)">
<stop stop-color="white"/>
<stop offset="1" stop-color="white" stop-opacity="0"/>
</radialGradient>
<radialGradient id="paint18_radial_377_170" cx="0" cy="0" r="1" gradientUnits="userSpaceOnUse" gradientTransform="translate(8.33873 157.063) scale(3.28607 3.36926)">
<stop stop-color="white"/>
<stop offset="1" stop-color="white" stop-opacity="0"/>
</radialGradient>
<linearGradient id="paint19_linear_377_170" x1="259.686" y1="184.656" x2="330.634" y2="192.126" gradientUnits="userSpaceOnUse">
<stop stop-color="#FEA3AA"/>
<stop offset="1" stop-color="#0D387C"/>
</linearGradient>
<radialGradient id="paint20_radial_377_170" cx="0" cy="0" r="1" gradientUnits="userSpaceOnUse" gradientTransform="translate(318.084 117.223) scale(8.22917 8.4375)">
<stop stop-color="#FE7098"/>
<stop offset="1" stop-color="#FF7099" stop-opacity="0.1098"/>
</radialGradient>
<radialGradient id="paint21_radial_377_170" cx="0" cy="0" r="1" gradientUnits="userSpaceOnUse" gradientTransform="translate(317.947 142.855) scale(3.56597 3.65625)">
<stop stop-color="#FEA3AA"/>
<stop offset="1" stop-color="#FFA3AB" stop-opacity="0.0784314"/>
</radialGradient>
<radialGradient id="paint22_radial_377_170" cx="0" cy="0" r="1" gradientUnits="userSpaceOnUse" gradientTransform="translate(317.947 152.98) scale(3.56597 3.65625)">
<stop stop-color="#FEA3AA"/>
<stop offset="1" stop-color="#FFA3AB" stop-opacity="0.0784314"/>
</radialGradient>
<radialGradient id="paint23_radial_377_170" cx="0" cy="0" r="1" gradientUnits="userSpaceOnUse" gradientTransform="translate(317.947 163.105) scale(3.56597 3.65625)">
<stop stop-color="#FEA3AA"/>
<stop offset="1" stop-color="#FFA3AB" stop-opacity="0.0784314"/>
</radialGradient>
<radialGradient id="paint24_radial_377_170" cx="0" cy="0" r="1" gradientUnits="userSpaceOnUse" gradientTransform="translate(317.947 173.23) scale(3.56597 3.65625)">
<stop stop-color="#FEA3AA"/>
<stop offset="1" stop-color="#FFA3AB" stop-opacity="0.0784314"/>
</radialGradient>
<radialGradient id="paint25_radial_377_170" cx="0" cy="0" r="1" gradientUnits="userSpaceOnUse" gradientTransform="translate(317.947 183.355) scale(3.56597 3.65625)">
<stop stop-color="#FEA3AA"/>
<stop offset="1" stop-color="#FFA3AB" stop-opacity="0.0784314"/>
</radialGradient>
<radialGradient id="paint26_radial_377_170" cx="0" cy="0" r="1" gradientUnits="userSpaceOnUse" gradientTransform="translate(317.947 193.48) scale(3.56597 3.65625)">
<stop stop-color="#FEA3AA"/>
<stop offset="1" stop-color="#FFA3AB" stop-opacity="0.0784314"/>
</radialGradient>
<radialGradient id="paint27_radial_377_170" cx="0" cy="0" r="1" gradientUnits="userSpaceOnUse" gradientTransform="translate(317.947 203.605) scale(3.56597 3.65625)">
<stop stop-color="#FEA3AA"/>
<stop offset="1" stop-color="#FFA3AB" stop-opacity="0.0784314"/>
</radialGradient>
<radialGradient id="paint28_radial_377_170" cx="0" cy="0" r="1" gradientUnits="userSpaceOnUse" gradientTransform="translate(317.947 213.73) scale(3.56597 3.65625)">
<stop stop-color="#FEA3AA"/>
<stop offset="1" stop-color="#FFA3AB" stop-opacity="0.0784314"/>
</radialGradient>
<linearGradient id="paint29_linear_377_170" x1="11.0105" y1="231.379" x2="121.24" y2="231.379" gradientUnits="userSpaceOnUse">
<stop stop-color="#FCDC8F"/>
<stop offset="0.00118029" stop-color="#FBDB8F"/>
<stop offset="0.0818022" stop-color="#BDB18A"/>
<stop offset="0.1616" stop-color="#878C86"/>
<stop offset="0.2388" stop-color="#5B6E82"/>
<stop offset="0.3127" stop-color="#395680"/>
<stop offset="0.3826" stop-color="#21467E"/>
<stop offset="0.4468" stop-color="#123B7C"/>
<stop offset="0.5" stop-color="#0D387C"/>
<stop offset="0.5451" stop-color="#153D7D"/>
<stop offset="0.614" stop-color="#2A4C7E"/>
<stop offset="0.6981" stop-color="#4D6481"/>
<stop offset="0.7943" stop-color="#7D8585"/>
<stop offset="0.8991" stop-color="#BAAF8A"/>
<stop offset="1" stop-color="#FCDC8F"/>
</linearGradient>
<linearGradient id="paint30_linear_377_170" x1="-31.6528" y1="235.119" x2="32.9519" y2="231.238" gradientUnits="userSpaceOnUse">
<stop stop-color="#FCDC8F"/>
<stop offset="0.5813" stop-color="#6F7B84"/>
<stop offset="1" stop-color="#0D387C"/>
</linearGradient>
<linearGradient id="paint31_linear_377_170" x1="96.8845" y1="230.963" x2="137.452" y2="234.21" gradientUnits="userSpaceOnUse">
<stop stop-color="#0D387C"/>
<stop offset="1" stop-color="#FCDC8F"/>
</linearGradient>
<linearGradient id="paint32_linear_377_170" x1="-34.9022" y1="127.19" x2="79.7439" y2="204.921" gradientUnits="userSpaceOnUse">
<stop stop-color="#FCDC8F"/>
<stop offset="0.1525" stop-color="#C2B48A"/>
<stop offset="0.3153" stop-color="#8C8F86"/>
<stop offset="0.4744" stop-color="#5E7082"/>
<stop offset="0.6259" stop-color="#3B5780"/>
<stop offset="0.7678" stop-color="#22467E"/>
<stop offset="0.8964" stop-color="#123C7C"/>
<stop offset="1" stop-color="#0D387C"/>
</linearGradient>
<radialGradient id="paint33_radial_377_170" cx="0" cy="0" r="1" gradientUnits="userSpaceOnUse" gradientTransform="translate(64.6993 168.901) scale(10.0365 10.2906)">
<stop stop-color="#FE7098"/>
<stop offset="1" stop-color="#FF7099" stop-opacity="0.1098"/>
</radialGradient>
<radialGradient id="paint34_radial_377_170" cx="0" cy="0" r="1" gradientUnits="userSpaceOnUse" gradientTransform="translate(25.35 208.592) rotate(-5.02469) scale(3.86568 3.96206)">
<stop stop-color="#FCDC8F"/>
<stop offset="1" stop-color="#FCDC90" stop-opacity="0.2"/>
</radialGradient>
<radialGradient id="paint35_radial_377_170" cx="0" cy="0" r="1" gradientUnits="userSpaceOnUse" gradientTransform="translate(38.0514 207.475) rotate(-5.02469) scale(3.86568 3.96206)">
<stop stop-color="#FCDC8F"/>
<stop offset="1" stop-color="#FCDC90" stop-opacity="0.2"/>
</radialGradient>
<radialGradient id="paint36_radial_377_170" cx="0" cy="0" r="1" gradientUnits="userSpaceOnUse" gradientTransform="translate(26.4392 221.615) rotate(-5.02468) scale(3.86568 3.96205)">
<stop stop-color="#FCDC8F"/>
<stop offset="1" stop-color="#FCDC90" stop-opacity="0.2"/>
</radialGradient>
<radialGradient id="paint37_radial_377_170" cx="0" cy="0" r="1" gradientUnits="userSpaceOnUse" gradientTransform="translate(27.5283 234.638) rotate(-5.02469) scale(3.86568 3.96206)">
<stop stop-color="#FCDC8F"/>
<stop offset="1" stop-color="#FCDC90" stop-opacity="0.2"/>
</radialGradient>
<radialGradient id="paint38_radial_377_170" cx="0" cy="0" r="1" gradientUnits="userSpaceOnUse" gradientTransform="translate(28.6175 247.661) rotate(-5.02469) scale(3.86568 3.96206)">
<stop stop-color="#FCDC8F"/>
<stop offset="1" stop-color="#FCDC90" stop-opacity="0.2"/>
</radialGradient>
<radialGradient id="paint39_radial_377_170" cx="0" cy="0" r="1" gradientUnits="userSpaceOnUse" gradientTransform="translate(29.7067 260.684) rotate(-5.02469) scale(3.86568 3.96206)">
<stop stop-color="#FCDC8F"/>
<stop offset="1" stop-color="#FCDC90" stop-opacity="0.2"/>
</radialGradient>
<radialGradient id="paint40_radial_377_170" cx="0" cy="0" r="1" gradientUnits="userSpaceOnUse" gradientTransform="translate(30.7958 273.707) rotate(-5.02469) scale(3.86568 3.96206)">
<stop stop-color="#FCDC8F"/>
<stop offset="1" stop-color="#FCDC90" stop-opacity="0.2"/>
</radialGradient>
<radialGradient id="paint41_radial_377_170" cx="0" cy="0" r="1" gradientUnits="userSpaceOnUse" gradientTransform="translate(98.6026 273.707) rotate(-174.975) scale(3.86568 3.96206)">
<stop stop-color="#FCDC8F"/>
<stop offset="1" stop-color="#FCDC90" stop-opacity="0.2"/>
</radialGradient>
<radialGradient id="paint42_radial_377_170" cx="0" cy="0" r="1" gradientUnits="userSpaceOnUse" gradientTransform="translate(99.6917 260.684) rotate(-174.975) scale(3.86568 3.96206)">
<stop stop-color="#FCDC8F"/>
<stop offset="1" stop-color="#FCDC90" stop-opacity="0.2"/>
</radialGradient>
<radialGradient id="paint43_radial_377_170" cx="0" cy="0" r="1" gradientUnits="userSpaceOnUse" gradientTransform="translate(100.781 247.661) rotate(-174.975) scale(3.86568 3.96206)">
<stop stop-color="#FCDC8F"/>
<stop offset="1" stop-color="#FCDC90" stop-opacity="0.2"/>
</radialGradient>
<radialGradient id="paint44_radial_377_170" cx="0" cy="0" r="1" gradientUnits="userSpaceOnUse" gradientTransform="translate(101.87 234.638) rotate(-174.975) scale(3.86568 3.96206)">
<stop stop-color="#FCDC8F"/>
<stop offset="1" stop-color="#FCDC90" stop-opacity="0.2"/>
</radialGradient>
<radialGradient id="paint45_radial_377_170" cx="0" cy="0" r="1" gradientUnits="userSpaceOnUse" gradientTransform="translate(102.959 221.615) rotate(-174.975) scale(3.86568 3.96205)">
<stop stop-color="#FCDC8F"/>
<stop offset="1" stop-color="#FCDC90" stop-opacity="0.2"/>
</radialGradient>
<radialGradient id="paint46_radial_377_170" cx="0" cy="0" r="1" gradientUnits="userSpaceOnUse" gradientTransform="translate(104.048 208.592) rotate(-174.975) scale(3.86568 3.96206)">
<stop stop-color="#FCDC8F"/>
<stop offset="1" stop-color="#FCDC90" stop-opacity="0.2"/>
</radialGradient>
<radialGradient id="paint47_radial_377_170" cx="0" cy="0" r="1" gradientUnits="userSpaceOnUse" gradientTransform="translate(91.347 207.475) rotate(-174.975) scale(3.86568 3.96206)">
<stop stop-color="#FCDC8F"/>
<stop offset="1" stop-color="#FCDC90" stop-opacity="0.2"/>
</radialGradient>
<linearGradient id="paint48_linear_377_170" x1="347.678" y1="247.91" x2="295.19" y2="118.906" gradientUnits="userSpaceOnUse">
<stop stop-color="#0D387C"/>
<stop offset="0.4672" stop-color="#846D93"/>
<stop offset="0.8345" stop-color="#DC94A3"/>
<stop offset="1" stop-color="#FEA3AA"/>
</linearGradient>
<linearGradient id="paint49_linear_377_170" x1="43.1023" y1="246.229" x2="6.61878" y2="167.857" gradientUnits="userSpaceOnUse">
<stop stop-color="#0D387C"/>
<stop offset="1" stop-color="#FE7098"/>
</linearGradient>
<linearGradient id="paint50_linear_377_170" x1="276.532" y1="233.72" x2="294.004" y2="125.75" gradientUnits="userSpaceOnUse">
<stop stop-color="#0D387C"/>
<stop offset="1" stop-color="#10689A"/>
</linearGradient>
<linearGradient id="paint51_linear_377_170" x1="299.895" y1="183.665" x2="302.249" y2="151.554" gradientUnits="userSpaceOnUse">
<stop stop-color="#0D387C"/>
<stop offset="1" stop-color="#10689A"/>
</linearGradient>
<linearGradient id="paint52_linear_377_170" x1="286.509" y1="169.635" x2="287.079" y2="161.862" gradientUnits="userSpaceOnUse">
<stop stop-color="#0D387C"/>
<stop offset="1" stop-color="#10689A"/>
</linearGradient>
<linearGradient id="paint53_linear_377_170" x1="19.6393" y1="152.158" x2="19.6393" y2="277.461" gradientUnits="userSpaceOnUse">
<stop stop-color="#37DECD" stop-opacity="0"/>
<stop offset="0.5" stop-color="#37DECD" stop-opacity="0.7412"/>
<stop offset="1" stop-color="#37DECD" stop-opacity="0"/>
</linearGradient>
<linearGradient id="paint54_linear_377_170" x1="317.809" y1="152.158" x2="317.809" y2="277.461" gradientUnits="userSpaceOnUse">
<stop stop-color="#37DECD" stop-opacity="0"/>
<stop offset="0.5" stop-color="#37DECD" stop-opacity="0.7412"/>
<stop offset="1" stop-color="#37DECD" stop-opacity="0"/>
</linearGradient>
<linearGradient id="paint55_linear_377_170" x1="112.467" y1="152.158" x2="112.467" y2="277.461" gradientUnits="userSpaceOnUse">
<stop stop-color="#37DECD" stop-opacity="0"/>
<stop offset="0.5" stop-color="#37DECD" stop-opacity="0.7412"/>
<stop offset="1" stop-color="#37DECD" stop-opacity="0"/>
</linearGradient>
<linearGradient id="paint56_linear_377_170" x1="272.77" y1="152.158" x2="272.77" y2="277.461" gradientUnits="userSpaceOnUse">
<stop stop-color="#37DECD" stop-opacity="0"/>
<stop offset="0.5" stop-color="#37DECD" stop-opacity="0.7412"/>
<stop offset="1" stop-color="#37DECD" stop-opacity="0"/>
</linearGradient>
<linearGradient id="paint57_linear_377_170" x1="383.59" y1="152.158" x2="383.59" y2="277.461" gradientUnits="userSpaceOnUse">
<stop stop-color="#37DECD" stop-opacity="0"/>
<stop offset="0.5" stop-color="#37DECD" stop-opacity="0.7412"/>
<stop offset="1" stop-color="#37DECD" stop-opacity="0"/>
</linearGradient>
<linearGradient id="paint58_linear_377_170" x1="46.771" y1="152.158" x2="46.771" y2="277.461" gradientUnits="userSpaceOnUse">
<stop stop-color="#CAD3E6" stop-opacity="0"/>
<stop offset="0.5" stop-color="#CAD3E6" stop-opacity="0.6706"/>
<stop offset="1" stop-color="#CAD3E6" stop-opacity="0"/>
</linearGradient>
<linearGradient id="paint59_linear_377_170" x1="174.999" y1="152.158" x2="174.999" y2="277.461" gradientUnits="userSpaceOnUse">
<stop stop-color="#CAD3E6" stop-opacity="0"/>
<stop offset="0.5" stop-color="#CAD3E6" stop-opacity="0.6706"/>
<stop offset="1" stop-color="#CAD3E6" stop-opacity="0"/>
</linearGradient>
<linearGradient id="paint60_linear_377_170" x1="80.0212" y1="152.158" x2="80.0212" y2="277.461" gradientUnits="userSpaceOnUse">
<stop stop-color="white" stop-opacity="0"/>
<stop offset="0.5" stop-color="white" stop-opacity="0.6118"/>
<stop offset="1" stop-color="white" stop-opacity="0"/>
</linearGradient>
<linearGradient id="paint61_linear_377_170" x1="203.977" y1="152.158" x2="203.977" y2="277.461" gradientUnits="userSpaceOnUse">
<stop stop-color="white" stop-opacity="0"/>
<stop offset="0.5" stop-color="white" stop-opacity="0.6118"/>
<stop offset="1" stop-color="white" stop-opacity="0"/>
</linearGradient>
<linearGradient id="paint62_linear_377_170" x1="287.063" y1="152.158" x2="287.063" y2="277.461" gradientUnits="userSpaceOnUse">
<stop stop-color="#CAD3E6" stop-opacity="0"/>
<stop offset="0.5" stop-color="#CAD3E6" stop-opacity="0.6706"/>
<stop offset="1" stop-color="#CAD3E6" stop-opacity="0"/>
</linearGradient>
<linearGradient id="paint63_linear_377_170" x1="361.399" y1="152.158" x2="361.399" y2="277.461" gradientUnits="userSpaceOnUse">
<stop stop-color="#CAD3E6" stop-opacity="0"/>
<stop offset="0.5" stop-color="#CAD3E6" stop-opacity="0.6706"/>
<stop offset="1" stop-color="#CAD3E6" stop-opacity="0"/>
</linearGradient>
</defs>
</svg>
