<svg width="47" height="45" viewBox="0 0 47 45" fill="none" xmlns="http://www.w3.org/2000/svg">
<path d="M46.272 23.0098C46.272 10.7798 35.9404 0.859375 23.1902 0.859375C10.44 0.859375 0.108398 10.7798 0.108398 23.0098C0.108398 34.0598 8.54884 43.2296 19.5871 44.8896V29.4092H13.7246V23.0098H19.5871V18.1299C19.5871 12.5799 23.031 9.50977 28.3062 9.50977C30.8344 9.50977 33.472 9.93945 33.472 9.93945V15.3896H30.5657C27.6991 15.3896 26.8033 17.0996 26.8033 18.8496V23H33.2033L32.1781 29.3994H26.8033V44.8799C37.8415 43.2199 46.282 34.06 46.282 23L46.272 23.0098Z" fill="#753317"/>
</svg>
