<svg width="59" height="57" viewBox="0 0 59 57" fill="none" xmlns="http://www.w3.org/2000/svg">
<mask id="mask0_1320_3136" style="mask-type:luminance" maskUnits="userSpaceOnUse" x="0" y="0" width="59" height="57">
<path d="M58.9997 0.554688H0.949707V56.0547H58.9997V0.554688Z" fill="white"/>
</mask>
<g mask="url(#mask0_1320_3136)">
<path d="M58.9998 28.3047C58.9998 13.0047 45.9498 0.554688 29.8998 0.554688C13.8498 0.554688 0.799805 13.0047 0.799805 28.3047C0.799805 42.1047 11.4498 53.6551 25.2498 55.7551V36.4053H17.8998V28.4548H25.2498V22.3047C25.2498 15.4047 29.5998 11.5051 36.1998 11.5051C39.3498 11.5051 42.6498 12.105 42.6498 12.105V18.855H39.0498C35.4498 18.855 34.2498 20.9548 34.2498 23.2048V28.4548H42.3498L40.9998 36.4053H34.2498V55.7551C48.4998 53.5051 58.9998 42.1047 58.9998 28.3047Z" fill="white"/>
</g>
</svg>
