<svg width="47" height="46" viewBox="0 0 47 46" fill="none" xmlns="http://www.w3.org/2000/svg">
<mask id="mask0_522_2982" style="mask-type:luminance" maskUnits="userSpaceOnUse" x="0" y="0" width="47" height="46">
<path d="M46.2515 0.859375H0.0878906V45.1592H46.2515V0.859375Z" fill="white"/>
</mask>
<g mask="url(#mask0_522_2982)">
<path fill-rule="evenodd" clip-rule="evenodd" d="M23.1699 1.7793C17.6856 1.7793 12.3905 3.6393 8.22005 7.0293C4.0496 10.4193 1.27263 15.1095 0.396738 20.2695C-0.479156 25.4295 0.595732 30.7192 3.43243 35.1992C6.26914 39.6792 10.6785 43.0392 15.8741 44.6992C17.0187 44.8992 17.4567 44.2197 17.4567 43.6396C17.4567 43.0596 17.4368 41.38 17.4269 39.54C11.007 40.87 9.64331 36.9395 9.64331 36.9395C8.59821 34.3895 7.08536 33.7197 7.08536 33.7197C4.99515 32.3597 7.24452 32.3799 7.24452 32.3799C9.56365 32.5399 10.788 34.6494 10.788 34.6494C12.8483 38.0194 16.1926 37.0397 17.5065 36.4697C17.7155 35.0397 18.3127 34.0695 18.9796 33.5195C13.8536 32.9695 8.45892 31.0796 8.45892 22.6396C8.42906 20.4496 9.27511 18.3395 10.8378 16.7295C10.5989 16.1795 9.81257 13.9394 11.0667 10.8994C11.0667 10.8994 13.0076 10.3092 17.4169 13.1592C21.1992 12.1692 25.1905 12.1692 28.9727 13.1592C33.3821 10.3092 35.313 10.8994 35.313 10.8994C36.5671 13.9294 35.7808 16.1695 35.5419 16.7295C37.1046 18.3395 37.9606 20.4594 37.9208 22.6494C37.9208 31.1094 32.5162 32.9698 27.3802 33.5098C28.2064 34.1998 28.9429 35.5298 28.9429 37.5898C28.9429 40.5398 28.913 42.9099 28.913 43.6299C28.913 44.2199 29.3311 44.8995 30.4956 44.6895C35.6913 43.0295 40.1106 39.6695 42.9373 35.1895C45.774 30.7095 46.8489 25.4198 45.9631 20.2598C45.0872 15.0998 42.3102 10.3995 38.1397 7.01953C33.9693 3.62953 28.6641 1.76953 23.1798 1.76953L23.1699 1.7793Z" fill="#753317"/>
<path d="M8.8368 33.3989C8.78703 33.5089 8.60787 33.5392 8.45857 33.4692C8.30927 33.3892 8.1997 33.2491 8.24946 33.1391C8.29923 33.0291 8.4784 32.9988 8.6277 33.0688C8.777 33.1488 8.89652 33.2889 8.8368 33.3989Z" fill="#753317"/>
<path d="M9.77234 34.4002C9.69271 34.4402 9.60312 34.4505 9.51354 34.4305C9.42396 34.4105 9.35432 34.3706 9.2946 34.3006C9.1453 34.1506 9.11549 33.9307 9.22498 33.8407C9.34442 33.7507 9.54346 33.7903 9.69276 33.9403C9.84206 34.0903 9.87186 34.3002 9.76238 34.4002H9.77234Z" fill="#753317"/>
<path d="M10.678 35.6591C10.5387 35.7591 10.2998 35.6596 10.1605 35.4696C10.1206 35.4396 10.0908 35.3895 10.0709 35.3495C10.051 35.2995 10.041 35.2598 10.041 35.2098C10.041 35.1598 10.041 35.1092 10.0709 35.0692C10.0908 35.0192 10.1206 34.9791 10.1605 34.9491C10.2998 34.8591 10.5387 34.9495 10.678 35.1395C10.8074 35.3295 10.8174 35.5798 10.678 35.6698V35.6591Z" fill="#753317"/>
<path d="M11.9125 36.8898C11.7831 37.0198 11.5343 36.9897 11.3153 36.8097C11.1063 36.6297 11.0565 36.3802 11.176 36.2502C11.3054 36.1202 11.5542 36.1493 11.7732 36.3293C11.9921 36.5093 12.0319 36.7598 11.9026 36.8898H11.9125Z" fill="#753317"/>
<path d="M13.6448 37.599C13.5851 37.769 13.3264 37.8489 13.0676 37.7689C12.8088 37.6989 12.6396 37.4887 12.6893 37.3187C12.7391 37.1487 13.0078 37.0588 13.2666 37.1488C13.5254 37.2288 13.6946 37.419 13.6448 37.599Z" fill="#753317"/>
<path d="M15.5352 37.7305C15.5352 37.9105 15.3262 38.0603 15.0475 38.0703C14.7688 38.0703 14.5498 37.931 14.5498 37.751C14.5498 37.571 14.7588 37.4202 15.0375 37.4102C15.3162 37.4102 15.5352 37.5505 15.5352 37.7305Z" fill="#753317"/>
<path d="M17.2879 37.4506C17.3178 37.6306 17.1286 37.8108 16.8599 37.8608C16.5812 37.9008 16.3424 37.8005 16.3125 37.6205C16.2827 37.4405 16.4817 37.2514 16.7405 37.2114C17.0092 37.1614 17.2581 37.2706 17.2879 37.4506Z" fill="#753317"/>
</g>
</svg>
