<svg width="59" height="57" viewBox="0 0 59 57" fill="none" xmlns="http://www.w3.org/2000/svg">
<mask id="mask0_1320_3165" style="mask-type:luminance" maskUnits="userSpaceOnUse" x="0" y="0" width="59" height="57">
<path d="M58.1487 0.554688H0.0986328V56.0547H58.1487V0.554688Z" fill="white"/>
</mask>
<g mask="url(#mask0_1320_3165)">
<path fill-rule="evenodd" clip-rule="evenodd" d="M29.1994 1.60547C22.2994 1.60547 15.6994 4.00532 10.4494 8.20532C5.19936 12.4053 1.7494 18.2555 0.549398 24.8555C-0.500602 31.3055 0.849398 37.9055 4.2994 43.6055C7.8994 49.1555 13.4493 53.3553 19.8993 55.4553C21.3993 55.7553 21.8493 54.8555 21.8493 54.1055C21.8493 53.3555 21.8493 51.2556 21.8493 49.0056C13.7493 50.6556 12.0993 45.7053 12.0993 45.7053C10.7493 42.5553 8.94936 41.6558 8.94936 41.6558C6.24936 40.0058 9.09933 40.0056 9.09933 40.0056C11.9493 40.1556 13.5993 42.8555 13.5993 42.8555C16.1493 47.0555 20.3494 45.8555 21.9994 45.1055C22.2994 43.3055 23.0494 42.1055 23.7994 41.3555C17.3494 40.6055 10.5993 38.3553 10.5993 27.7053C10.5993 25.0053 11.6493 22.3055 13.5993 20.3555C13.2993 19.6055 12.2493 16.9056 13.8993 13.0056C13.8993 13.0056 16.2993 12.2555 21.8493 15.8555C26.6493 14.6555 31.5993 14.6555 36.3993 15.8555C41.9493 12.2555 44.3493 13.0056 44.3493 13.0056C45.9993 16.7556 44.9493 19.6055 44.6493 20.3555C46.5993 22.3055 47.6493 25.0053 47.6493 27.7053C47.6493 38.3553 40.8994 40.6055 34.4494 41.3555C35.4994 42.2555 36.3993 43.9053 36.3993 46.4553C36.3993 50.2053 36.3993 53.0553 36.3993 53.9553C36.3993 54.7053 36.8493 55.6052 38.3493 55.3052C44.9493 53.2052 50.4994 49.0053 53.9494 43.4553C57.5494 37.9053 58.8994 31.1553 57.6994 24.7053C56.6494 18.2553 53.0494 12.4052 47.7994 8.05518C42.6994 4.00518 36.0994 1.60547 29.1994 1.60547Z" fill="white"/>
<path d="M11.0493 41.2075C11.0493 41.3575 10.7492 41.3577 10.5992 41.3577C10.4492 41.2077 10.2993 41.058 10.2993 40.908C10.2993 40.758 10.5993 40.7578 10.7493 40.7578C11.0493 40.9078 11.1993 41.0575 11.0493 41.2075Z" fill="white"/>
<path d="M12.2487 42.5543C12.0987 42.5543 12.0986 42.5543 11.9486 42.5543C11.7986 42.5543 11.7986 42.4049 11.6486 42.4049C11.4986 42.2549 11.3487 41.9543 11.4987 41.8043C11.6487 41.6543 11.9486 41.8044 12.0986 41.9544C12.3986 42.1044 12.3987 42.4043 12.2487 42.5543Z" fill="white"/>
<path d="M13.4487 44.0521C13.2987 44.2021 12.9987 44.0525 12.8487 43.7525L12.6987 43.6024V43.4522V43.3021C12.6987 43.3021 12.6987 43.1527 12.8487 43.1527C12.9987 43.0027 13.2987 43.1522 13.4487 43.4522C13.5987 43.6022 13.5987 43.9021 13.4487 44.0521Z" fill="white"/>
<path d="M14.9492 45.5568C14.7992 45.7068 14.4992 45.7073 14.1992 45.4073C13.8992 45.1073 13.8992 44.8073 14.0492 44.6573C14.1992 44.5073 14.4992 44.5068 14.7992 44.8068C15.0992 45.1068 15.0992 45.4068 14.9492 45.5568Z" fill="white"/>
<path d="M17.1998 46.4522C17.1998 46.6022 16.7498 46.7524 16.4498 46.6024C16.1498 46.4524 15.8499 46.3025 15.9999 46.0025C16.1499 45.7025 16.4499 45.7024 16.7499 45.8524C17.0499 46.0024 17.1998 46.3022 17.1998 46.4522Z" fill="white"/>
<path d="M19.5994 46.6021C19.5994 46.7521 19.2995 47.0518 18.9995 47.0518C18.6995 47.0518 18.3994 46.9021 18.3994 46.6021C18.3994 46.4521 18.6995 46.1523 18.9995 46.1523C19.2995 46.3023 19.5994 46.4521 19.5994 46.6021Z" fill="white"/>
<path d="M21.6987 46.3035C21.6987 46.4535 21.5486 46.7539 21.0986 46.7539C20.7986 46.7539 20.4986 46.6036 20.3486 46.4536C20.3486 46.3036 20.4987 46.0039 20.9487 46.0039C21.3987 46.0039 21.6987 46.1535 21.6987 46.3035Z" fill="white"/>
</g>
</svg>
