<svg width="47" height="46" viewBox="0 0 47 46" fill="none" xmlns="http://www.w3.org/2000/svg">
<path d="M23.9355 4.84961C30.1065 4.84961 30.8331 4.86949 33.2617 4.97949C35.5112 5.07949 36.7355 5.43926 37.5417 5.73926C38.6167 6.13926 39.393 6.61965 40.1893 7.38965C41.0055 8.16965 41.4932 8.89969 41.9112 9.92969C42.2297 10.7097 42.608 11.89 42.7075 14.04C42.817 16.37 42.8468 17.0795 42.8468 22.9795C42.8468 28.8795 42.817 29.5997 42.7075 31.9297C42.608 34.0897 42.2297 35.26 41.9112 36.04C41.4932 37.07 40.9955 37.8091 40.1893 38.5791C39.3731 39.3591 38.6067 39.8295 37.5417 40.2295C36.7255 40.5295 35.5012 40.8993 33.2617 40.9893C30.8232 41.0893 30.0966 41.1191 23.9355 41.1191C17.7743 41.1191 17.0378 41.0893 14.6092 40.9893C12.3597 40.8893 11.1355 40.5295 10.3293 40.2295C9.25429 39.8295 8.47796 39.3491 7.68169 38.5791C6.86552 37.7991 6.37776 37.07 5.95972 36.04C5.64122 35.26 5.263 34.0797 5.16347 31.9297C5.05398 29.5897 5.02411 28.8895 5.02411 22.9795C5.02411 17.0695 5.05398 16.36 5.16347 14.04C5.263 11.88 5.64122 10.7097 5.95972 9.92969C6.37776 8.89969 6.87547 8.15965 7.68169 7.38965C8.49787 6.60965 9.26425 6.13926 10.3293 5.73926C11.1454 5.43926 12.3697 5.06949 14.6092 4.97949C17.0378 4.87949 17.7644 4.84961 23.9355 4.84961ZM23.9355 0.859375C17.6649 0.859375 16.8885 0.889258 14.4201 0.989258C11.9715 1.08926 10.2795 1.46953 8.81633 2.01953C7.29347 2.58953 5.99955 3.3391 4.72552 4.5791C3.44154 5.8091 2.65523 7.05 2.05803 8.5C1.49069 9.91 1.09254 11.5191 0.983051 13.8691C0.873564 16.2391 0.84375 16.9898 0.84375 23.0098C0.84375 29.0298 0.873564 29.7796 0.983051 32.1396C1.09254 34.4896 1.49069 36.1098 2.05803 37.5098C2.65523 38.9698 3.44154 40.2095 4.72552 41.4395C6.0095 42.6695 7.29352 43.4293 8.80642 43.9893C10.2795 44.5393 11.9516 44.9195 14.4101 45.0195C16.8686 45.1195 17.6549 45.1494 23.9256 45.1494C30.1962 45.1494 30.9825 45.1195 33.4409 45.0195C35.8895 44.9195 37.5815 44.5393 39.0446 43.9893C40.5575 43.4293 41.8515 42.6695 43.1255 41.4395C44.4095 40.2095 45.1958 38.9695 45.7831 37.5195C46.3504 36.1095 46.7486 34.4994 46.858 32.1494C46.9675 29.7894 46.9974 29.0395 46.9974 23.0195C46.9974 16.9995 46.9675 16.2496 46.858 13.8896C46.7486 11.5396 46.3504 9.91953 45.7831 8.51953C45.2157 7.04953 44.4294 5.8091 43.1455 4.5791C41.8615 3.3491 40.5775 2.5893 39.0646 2.0293C37.5915 1.4793 35.9193 1.1 33.4608 1C30.9924 0.89 30.2061 0.859375 23.9355 0.859375Z" fill="#753317"/>
<path d="M23.9355 11.6289C17.3862 11.6289 12.0811 16.7288 12.0811 23.0088C12.0811 29.2888 17.3961 34.3887 23.9355 34.3887C30.4748 34.3887 35.7899 29.2888 35.7899 23.0088C35.7899 16.7288 30.4748 11.6289 23.9355 11.6289ZM23.9355 30.3887C19.6854 30.3887 16.2415 27.0888 16.2415 23.0088C16.2415 18.9288 19.6854 15.6289 23.9355 15.6289C28.1855 15.6289 31.6294 18.9388 31.6294 23.0088C31.6294 27.0788 28.1855 30.3887 23.9355 30.3887Z" fill="#753317"/>
<path d="M39.0253 11.1797C39.0253 12.6497 37.7811 13.8398 36.2582 13.8398C34.7353 13.8398 33.4912 12.6497 33.4912 11.1797C33.4912 9.70969 34.7353 8.51953 36.2582 8.51953C37.7811 8.51953 39.0253 9.70969 39.0253 11.1797Z" fill="#753317"/>
</svg>
