<svg width="47" height="46" viewBox="0 0 47 46" fill="none" xmlns="http://www.w3.org/2000/svg">
<mask id="mask0_522_2976" style="mask-type:luminance" maskUnits="userSpaceOnUse" x="0" y="0" width="47" height="46">
<path d="M46.5064 0.859375H0.342773V45.1592H46.5064V0.859375Z" fill="white"/>
</mask>
<g mask="url(#mask0_522_2976)">
<path d="M43.0923 0.859375H3.75663C1.87544 0.859375 0.352539 2.2898 0.352539 4.0498V41.9492C0.352539 43.7092 1.87544 45.1494 3.75663 45.1494H43.0923C44.9734 45.1494 46.5062 43.71 46.5062 41.96V4.0498C46.5062 2.2798 44.9734 0.859375 43.0923 0.859375ZM14.0384 38.6094H7.19048V17.4697H14.0384V38.6094ZM10.6145 14.5791C8.41481 14.5791 6.64312 12.8795 6.64312 10.7695C6.64312 8.65953 8.41481 6.95996 10.6145 6.95996C12.8142 6.95996 14.5859 8.66953 14.5859 10.7695C14.5859 12.8695 12.8042 14.5791 10.6145 14.5791ZM39.6882 38.6094H32.8403V28.3291C32.8403 25.8791 32.7905 22.7197 29.277 22.7197C25.7635 22.7197 25.1762 25.3894 25.1762 28.1494V38.5996H18.3383V17.46H24.8975V20.3496H24.9871C25.8928 18.6896 28.1323 16.9297 31.4567 16.9297C38.3942 16.9297 39.6682 21.31 39.6682 27V38.5996L39.6882 38.6094Z" fill="#753317"/>
</g>
</svg>
