<svg width="59" height="57" viewBox="0 0 59 57" fill="none" xmlns="http://www.w3.org/2000/svg">
<mask id="mask0_1320_3158" style="mask-type:luminance" maskUnits="userSpaceOnUse" x="0" y="0" width="59" height="57">
<path d="M58.1501 0.554688H0.100098V56.0547H58.1501V0.554688Z" fill="white"/>
</mask>
<g mask="url(#mask0_1320_3158)">
<path d="M53.7997 0.554688H4.29974C1.89974 0.554688 -0.050293 2.35498 -0.050293 4.60498V52.0051C-0.050293 54.2551 1.89974 56.0547 4.29974 56.0547H53.7997C56.1997 56.0547 58.1497 54.2551 58.1497 52.0051V4.60498C58.1497 2.35498 56.1997 0.554688 53.7997 0.554688ZM17.3497 47.8047H8.79974V21.4053H17.3497V47.8047ZM12.9997 17.6553C10.2997 17.6553 8.04974 15.555 8.04974 12.855C8.04974 10.155 10.2997 8.05469 12.9997 8.05469C15.6997 8.05469 17.9497 10.155 17.9497 12.855C17.9497 15.555 15.6997 17.6553 12.9997 17.6553ZM49.5997 47.8047H41.0497V34.9053C41.0497 31.9053 41.0497 27.855 36.5497 27.855C32.0497 27.855 31.4497 31.155 31.4497 34.605V47.6553H22.8997V21.2551H31.1497V24.855H31.2997C32.4997 22.755 35.1997 20.5051 39.3997 20.5051C48.0997 20.5051 49.7497 26.055 49.7497 33.105V47.8047H49.5997Z" fill="white"/>
</g>
</svg>
