<svg width="47" height="46" viewBox="0 0 47 46" fill="none" xmlns="http://www.w3.org/2000/svg">
<mask id="mask0_522_2970" style="mask-type:luminance" maskUnits="userSpaceOnUse" x="0" y="0" width="47" height="46">
<path d="M46.7613 0.859375H0.597656V45.1592H46.7613V0.859375Z" fill="white"/>
</mask>
<g mask="url(#mask0_522_2970)">
<path d="M15.1197 41.0004C32.5381 41.0004 42.0635 27.1499 42.0635 15.1499C42.0635 14.7599 42.0635 14.3602 42.0336 13.9702C43.885 12.6802 45.4874 11.09 46.7615 9.26998C45.0395 10.01 43.1981 10.4897 41.3269 10.6997C43.3076 9.55967 44.7807 7.78037 45.4874 5.67037C43.6261 6.73037 41.5957 7.47033 39.4756 7.88033C38.0423 6.42033 36.1611 5.4601 34.1008 5.1401C32.0404 4.8201 29.9304 5.15006 28.0989 6.10006C26.2576 7.04006 24.7944 8.53982 23.9384 10.3598C23.0824 12.1798 22.8634 14.2204 23.3313 16.1704C19.5689 15.9904 15.8862 15.0504 12.5219 13.4204C9.15771 11.7904 6.19161 9.4899 3.81276 6.6899C2.60841 8.6899 2.2302 11.06 2.77764 13.31C3.32507 15.56 4.73843 17.5298 6.73905 18.8198C5.23609 18.7698 3.763 18.3899 2.44916 17.6899V17.8003C2.44916 19.9003 3.20558 21.93 4.58909 23.56C5.97261 25.18 7.9036 26.3004 10.0436 26.7104C8.6501 27.0804 7.18692 27.1296 5.77354 26.8696C6.3807 28.6796 7.5552 30.2501 9.13778 31.3901C10.7204 32.5201 12.6414 33.1499 14.6121 33.1899C11.2578 35.7199 7.11724 37.0895 2.84726 37.0795C2.0908 37.0795 1.33439 37.0297 0.587891 36.9497C4.91759 39.6197 9.96391 41.0297 15.1098 41.0297L15.1197 41.0004Z" fill="#753317"/>
</g>
</svg>
