<svg width="59" height="57" viewBox="0 0 59 57" fill="none" xmlns="http://www.w3.org/2000/svg">
<mask id="mask0_1320_3151" style="mask-type:luminance" maskUnits="userSpaceOnUse" x="0" y="0" width="59" height="57">
<path d="M58.1511 0.554688H0.101074V56.0547H58.1511V0.554688Z" fill="white"/>
</mask>
<g mask="url(#mask0_1320_3151)">
<path d="M18.2507 50.8039C40.1507 50.8039 52.1507 33.4045 52.1507 18.4045C52.1507 17.9545 52.1507 17.3545 52.1507 16.9045C54.5507 15.2545 56.5007 13.3039 58.1507 11.0539C56.0507 11.9539 53.6507 12.5542 51.2507 12.8542C53.8007 11.5042 55.6007 9.25391 56.5007 6.55391C54.1007 7.90391 51.5507 8.80435 49.0007 9.25435C47.2007 7.45435 44.8007 6.25391 42.2507 5.80391C39.7007 5.35391 37.0007 5.80435 34.7507 7.00435C32.5007 8.20435 30.5507 10.0045 29.5007 12.4045C28.4507 14.6545 28.1507 17.2044 28.7507 19.7544C23.9507 19.4544 19.4506 18.4039 15.1006 16.3039C10.9006 14.2039 7.15067 11.3545 4.15067 7.9045C2.65067 10.4545 2.20072 13.3045 2.80072 16.1545C3.55072 19.0045 5.2007 21.4039 7.7507 23.0539C5.8007 23.0539 4.00065 22.4541 2.35065 21.7041V21.8542C2.35065 24.5542 3.25072 27.1039 5.05072 29.0539C6.85072 31.1539 9.25068 32.5041 11.9507 32.9541C10.1507 33.4041 8.35072 33.4042 6.55072 33.1042C7.30072 35.3542 8.8007 37.3039 10.7507 38.8039C12.7007 40.1539 15.1007 41.0539 17.6507 41.0539C13.4507 44.2039 8.20072 46.0042 2.80072 45.8542C1.90072 45.8542 0.850684 45.8541 -0.0493164 45.7041C5.50068 49.0041 11.8007 50.8039 18.2507 50.8039Z" fill="white"/>
</g>
</svg>
