<svg width="1920" height="3013" viewBox="0 0 1920 3013" fill="none" xmlns="http://www.w3.org/2000/svg">
<path d="M1920 0H0V2574H1920V0Z" fill="#004561"/>
<path d="M1920 2573.5H0V3013H1920V2573.5Z" fill="#0A697F"/>
<path d="M610.35 1894.15H153.75V1319.2C153.75 1193.05 255.9 1090.9 382.05 1090.9C508.2 1090.9 610.35 1193.05 610.35 1319.2V1894.15Z" fill="#07556D"/>
<path d="M585.75 1867H178.35V1337.65C178.35 1221.55 269.55 1127.5 382.05 1127.5C494.55 1127.5 585.75 1221.55 585.75 1337.65V1867Z" fill="#0E6A7F"/>
<path d="M602.55 1479.7H397.35V1109.8H366.6V1479.7H161.55V1510.45H366.6V1878.4H397.35V1510.45H602.55V1479.7Z" fill="#07556D"/>
<path d="M1764.75 2416.75H1308.15V1841.8C1308.15 1715.65 1410.3 1613.5 1536.45 1613.5C1662.6 1613.5 1764.75 1715.65 1764.75 1841.8V2416.75Z" fill="#07556D"/>
<path d="M1740.3 2389.6H1332.75V1860.25C1332.75 1744.15 1423.95 1650.1 1536.45 1650.1C1648.95 1650.1 1740.15 1744.15 1740.15 1860.25V2389.6H1740.3Z" fill="#0E6A7F"/>
<path d="M1757.1 2002.3H1551.9V1632.4H1521.15V2002.3H1315.95V2033.05H1521.15V2401H1551.9V2033.05H1757.1V2002.3Z" fill="#07556D"/>
<path d="M178.35 2210.35H106.05C102.75 2210.35 100.05 2207.65 100.05 2204.35V2185.75C100.05 2182.45 102.75 2179.75 106.05 2179.75H178.35C181.65 2179.75 184.35 2182.45 184.35 2185.75V2204.35C184.35 2207.65 181.65 2210.35 178.35 2210.35Z" fill="#015B77"/>
<path d="M268.95 2209.9H196.65C193.35 2209.9 190.65 2207.2 190.65 2203.9V2185.3C190.65 2182 193.35 2179.3 196.65 2179.3H268.95C272.25 2179.3 274.95 2182 274.95 2185.3V2203.9C275.1 2207.2 272.4 2209.9 268.95 2209.9Z" fill="#015B77"/>
<path d="M223.65 2247.55H151.5C148.2 2247.55 145.5 2244.85 145.5 2241.55V2222.95C145.5 2219.65 148.2 2216.95 151.5 2216.95H223.8C227.1 2216.95 229.8 2219.65 229.8 2222.95V2241.55C229.8 2244.85 227.1 2247.55 223.65 2247.55Z" fill="#015B77"/>
<path d="M223.65 2173H151.35C148.05 2173 145.35 2170.3 145.35 2167V2148.4C145.35 2145.1 148.05 2142.4 151.35 2142.4H223.65C226.95 2142.4 229.65 2145.1 229.65 2148.4V2167C229.65 2170.3 226.95 2173 223.65 2173Z" fill="#015B77"/>
<path d="M1905.3 1223.95H1833C1829.7 1223.95 1827 1221.25 1827 1217.95V1199.35C1827 1196.05 1829.7 1193.35 1833 1193.35H1905.3C1908.6 1193.35 1911.3 1196.05 1911.3 1199.35V1217.95C1911.3 1221.25 1908.6 1223.95 1905.3 1223.95Z" fill="#015B77"/>
<path d="M1995.9 1223.5H1923.6C1920.3 1223.5 1917.6 1220.8 1917.6 1217.5V1198.9C1917.6 1195.6 1920.3 1192.9 1923.6 1192.9H1995.9C1999.2 1192.9 2001.9 1195.6 2001.9 1198.9V1217.5C2002.05 1220.8 1999.35 1223.5 1995.9 1223.5Z" fill="#015B77"/>
<path d="M1950.6 1261.15H1878.45C1875.15 1261.15 1872.45 1258.45 1872.45 1255.15V1236.55C1872.45 1233.25 1875.15 1230.55 1878.45 1230.55H1950.75C1954.05 1230.55 1956.75 1233.25 1956.75 1236.55V1255.15C1956.75 1258.45 1954.05 1261.15 1950.6 1261.15Z" fill="#015B77"/>
<path d="M1950.6 1186.6H1878.3C1875 1186.6 1872.3 1183.9 1872.3 1180.6V1162C1872.3 1158.7 1875 1156 1878.3 1156H1950.6C1953.9 1156 1956.6 1158.7 1956.6 1162V1180.6C1956.6 1183.9 1953.9 1186.6 1950.6 1186.6Z" fill="#015B77"/>
<path d="M942.45 1526.65H870.15C866.85 1526.65 864.15 1523.95 864.15 1520.65V1502.05C864.15 1498.75 866.85 1496.05 870.15 1496.05H942.45C945.75 1496.05 948.45 1498.75 948.45 1502.05V1520.65C948.6 1523.95 945.9 1526.65 942.45 1526.65Z" fill="#015B77"/>
<path d="M1033.2 1526.2H960.9C957.6 1526.2 954.9 1523.5 954.9 1520.2V1501.6C954.9 1498.3 957.6 1495.6 960.9 1495.6H1033.2C1036.5 1495.6 1039.2 1498.3 1039.2 1501.6V1520.2C1039.2 1523.5 1036.5 1526.2 1033.2 1526.2Z" fill="#015B77"/>
<path d="M987.901 1563.7H915.601C912.301 1563.7 909.601 1561 909.601 1557.7V1539.1C909.601 1535.8 912.301 1533.1 915.601 1533.1H987.901C991.201 1533.1 993.901 1535.8 993.901 1539.1V1557.7C993.901 1561 991.201 1563.7 987.901 1563.7Z" fill="#015B77"/>
<path d="M539.1 825.252H466.8C463.5 825.252 460.8 822.552 460.8 819.252V800.652C460.8 797.352 463.5 794.652 466.8 794.652H539.1C542.4 794.652 545.1 797.352 545.1 800.652V819.252C545.1 822.552 542.4 825.252 539.1 825.252Z" fill="#015B77"/>
<path d="M629.7 824.8H557.4C554.1 824.8 551.4 822.1 551.4 818.8V800.199C551.4 796.899 554.1 794.199 557.4 794.199H629.7C633 794.199 635.7 796.899 635.7 800.199V818.8C635.85 822.1 633.15 824.8 629.7 824.8Z" fill="#015B77"/>
<path d="M584.401 862.451H512.101C508.801 862.451 506.101 859.751 506.101 856.451V837.852C506.101 834.552 508.801 831.852 512.101 831.852H584.401C587.701 831.852 590.401 834.552 590.401 837.852V856.451C590.401 859.751 587.701 862.451 584.401 862.451Z" fill="#015B77"/>
<path opacity="0.36" d="M1643.25 2083C1719.88 2083 1782 2020.88 1782 1944.25C1782 1867.62 1719.88 1805.5 1643.25 1805.5C1566.62 1805.5 1504.5 1867.62 1504.5 1944.25C1504.5 2020.88 1566.62 2083 1643.25 2083Z" fill="#CA6E91"/>
<path opacity="0.36" d="M1554.9 2351.8C1613.39 2351.8 1660.8 2304.39 1660.8 2245.9C1660.8 2187.41 1613.39 2140 1554.9 2140C1496.41 2140 1449 2187.41 1449 2245.9C1449 2304.39 1496.41 2351.8 1554.9 2351.8Z" fill="#CA6E91"/>
<path opacity="0.36" d="M236.4 2117.8C273.348 2117.8 303.3 2087.85 303.3 2050.9C303.3 2013.95 273.348 1984 236.4 1984C199.452 1984 169.5 2013.95 169.5 2050.9C169.5 2087.85 199.452 2117.8 236.4 2117.8Z" fill="#CA6E91"/>
<path opacity="0.36" d="M258.15 1413.85C300.234 1413.85 334.35 1379.74 334.35 1337.65C334.35 1295.57 300.234 1261.45 258.15 1261.45C216.066 1261.45 181.95 1295.57 181.95 1337.65C181.95 1379.74 216.066 1413.85 258.15 1413.85Z" fill="#CA6E91"/>
<path d="M1771.8 637.449H1699.5C1696.2 637.449 1693.5 634.749 1693.5 631.449V612.85C1693.5 609.55 1696.2 606.85 1699.5 606.85H1771.8C1775.1 606.85 1777.8 609.55 1777.8 612.85V631.449C1777.95 634.749 1775.25 637.449 1771.8 637.449Z" fill="#015B77"/>
<path d="M1862.55 637H1790.25C1786.95 637 1784.25 634.3 1784.25 631V612.4C1784.25 609.1 1786.95 606.4 1790.25 606.4H1862.55C1865.85 606.4 1868.55 609.1 1868.55 612.4V631C1868.55 634.3 1865.85 637 1862.55 637Z" fill="#015B77"/>
<path d="M1817.25 674.649H1744.95C1741.65 674.649 1738.95 671.949 1738.95 668.649V650.049C1738.95 646.749 1741.65 644.049 1744.95 644.049H1817.25C1820.55 644.049 1823.25 646.749 1823.25 650.049V668.649C1823.25 671.949 1820.55 674.649 1817.25 674.649Z" fill="#015B77"/>
<path d="M1817.1 600.101H1744.8C1741.5 600.101 1738.8 597.401 1738.8 594.101V575.5C1738.8 572.2 1741.5 569.5 1744.8 569.5H1817.1C1820.4 569.5 1823.1 572.2 1823.1 575.5V594.101C1823.25 597.401 1820.55 600.101 1817.1 600.101Z" fill="#015B77"/>
<path d="M269.1 251.35H196.8C193.5 251.35 190.8 248.65 190.8 245.35V226.75C190.8 223.45 193.5 220.75 196.8 220.75H269.1C272.4 220.75 275.1 223.45 275.1 226.75V245.35C275.25 248.65 272.55 251.35 269.1 251.35Z" fill="#015B77"/>
<path d="M314.55 288.399H242.25C238.95 288.399 236.25 285.699 236.25 282.399V263.799C236.25 260.499 238.95 257.799 242.25 257.799H314.55C317.85 257.799 320.55 260.499 320.55 263.799V282.399C320.55 285.699 317.85 288.399 314.55 288.399Z" fill="#015B77"/>
<path d="M1050.9 163.901H978.6C975.3 163.901 972.6 161.201 972.6 157.901V139.301C972.6 136.001 975.3 133.301 978.6 133.301H1050.9C1054.2 133.301 1056.9 136.001 1056.9 139.301V157.901C1057.05 161.201 1054.35 163.901 1050.9 163.901Z" fill="#015B77"/>
<path d="M1141.65 163.449H1069.35C1066.05 163.449 1063.35 160.749 1063.35 157.449V138.85C1063.35 135.55 1066.05 132.85 1069.35 132.85H1141.65C1144.95 132.85 1147.65 135.55 1147.65 138.85V157.449C1147.65 160.599 1144.95 163.449 1141.65 163.449Z" fill="#015B77"/>
<path d="M1096.35 200.949H1024.05C1020.75 200.949 1018.05 198.249 1018.05 194.949V176.35C1018.05 173.05 1020.75 170.35 1024.05 170.35H1096.35C1099.65 170.35 1102.35 173.05 1102.35 176.35V194.949C1102.35 198.249 1099.65 200.949 1096.35 200.949Z" fill="#015B77"/>
<path d="M1739.7 454.6H180.15V500.5H1739.7V454.6Z" fill="#138699"/>
<path d="M333.45 501.1H252.6V551.799H333.45V501.1Z" fill="#07556D"/>
<path d="M1688.85 501.1H1608V551.799H1688.85V501.1Z" fill="#07556D"/>
<path opacity="0.36" d="M369.75 1894C414.071 1894 450 1858.07 450 1813.75C450 1769.43 414.071 1733.5 369.75 1733.5C325.429 1733.5 289.5 1769.43 289.5 1813.75C289.5 1858.07 325.429 1894 369.75 1894Z" fill="#CA6E91"/>
<path opacity="0.36" d="M1307.4 1805.8C1344.35 1805.8 1374.3 1775.85 1374.3 1738.9C1374.3 1701.95 1344.35 1672 1307.4 1672C1270.45 1672 1240.5 1701.95 1240.5 1738.9C1240.5 1775.85 1270.45 1805.8 1307.4 1805.8Z" fill="#CA6E91"/>
</svg>
