<svg width="1920" height="2787" viewBox="0 0 1920 2787" fill="none" xmlns="http://www.w3.org/2000/svg">
<path d="M1962.29 0H0V2380.93H1962.29V0Z" fill="#004561"/>
<path d="M1962.29 2380.46H0V2787H1962.29V2380.46Z" fill="#0A697F"/>
<path d="M623.794 1752.07H157.136V1220.24C157.136 1103.55 261.536 1009.07 390.465 1009.07C519.394 1009.07 623.794 1103.55 623.794 1220.24V1752.07Z" fill="#07556D"/>
<path d="M598.651 1726.95H182.278V1237.31C182.278 1129.92 275.487 1042.92 390.465 1042.92C505.443 1042.92 598.651 1129.92 598.651 1237.31V1726.95Z" fill="#0E6A7F"/>
<path d="M615.822 1368.7H406.102V1026.55H374.675V1368.7H165.108V1397.15H374.675V1737.5H406.102V1397.15H615.822V1368.7Z" fill="#07556D"/>
<path d="M1803.62 2235.47H1336.96V1703.64C1336.96 1586.96 1441.36 1492.47 1570.29 1492.47C1699.22 1492.47 1803.62 1586.96 1803.62 1703.64V2235.47Z" fill="#07556D"/>
<path d="M1778.63 2210.36H1362.11V1720.71C1362.11 1613.32 1455.31 1526.32 1570.29 1526.32C1685.27 1526.32 1778.48 1613.32 1778.48 1720.71V2210.36H1778.63Z" fill="#0E6A7F"/>
<path d="M1795.8 1852.1H1586.08V1509.95H1554.66V1852.1H1344.94V1880.55H1554.66V2220.9H1586.08V1880.55H1795.8V1852.1Z" fill="#07556D"/>
<path d="M182.278 2044.55H108.386C105.013 2044.55 102.253 2042.06 102.253 2039V2021.8C102.253 2018.75 105.013 2016.25 108.386 2016.25H182.278C185.651 2016.25 188.41 2018.75 188.41 2021.8V2039C188.41 2042.06 185.651 2044.55 182.278 2044.55Z" fill="#015B77"/>
<path d="M274.874 2044.13H200.981C197.608 2044.13 194.849 2041.64 194.849 2038.58V2021.38C194.849 2018.33 197.608 2015.83 200.981 2015.83H274.874C278.246 2015.83 281.006 2018.33 281.006 2021.38V2038.58C281.159 2041.64 278.4 2044.13 274.874 2044.13Z" fill="#015B77"/>
<path d="M228.576 2078.96H154.837C151.464 2078.96 148.705 2076.46 148.705 2073.41V2056.2C148.705 2053.15 151.464 2050.65 154.837 2050.65H228.729C232.102 2050.65 234.862 2053.15 234.862 2056.2V2073.41C234.862 2076.46 232.102 2078.96 228.576 2078.96Z" fill="#015B77"/>
<path d="M228.576 2010H154.684C151.311 2010 148.552 2007.51 148.552 2004.45V1987.25C148.552 1984.2 151.311 1981.7 154.684 1981.7H228.576C231.949 1981.7 234.708 1984.2 234.708 1987.25V2004.45C234.708 2007.51 231.949 2010 228.576 2010Z" fill="#015B77"/>
<path d="M1947.27 1132.14H1873.37C1870 1132.14 1867.24 1129.65 1867.24 1126.59V1109.39C1867.24 1106.34 1870 1103.84 1873.37 1103.84H1947.27C1950.64 1103.84 1953.4 1106.34 1953.4 1109.39V1126.59C1953.4 1129.65 1950.64 1132.14 1947.27 1132.14Z" fill="#015B77"/>
<path d="M1993.56 1166.55H1919.83C1916.45 1166.55 1913.69 1164.05 1913.69 1161V1143.8C1913.69 1140.74 1916.45 1138.25 1919.83 1138.25H1993.72C1997.09 1138.25 1999.85 1140.74 1999.85 1143.8V1161C1999.85 1164.05 1997.09 1166.55 1993.56 1166.55Z" fill="#015B77"/>
<path d="M1993.56 1097.6H1919.67C1916.3 1097.6 1913.54 1095.1 1913.54 1092.05V1074.84C1913.54 1071.79 1916.3 1069.29 1919.67 1069.29H1993.56C1996.94 1069.29 1999.7 1071.79 1999.7 1074.84V1092.05C1999.7 1095.1 1996.94 1097.6 1993.56 1097.6Z" fill="#015B77"/>
<path d="M963.208 1412.14H889.316C885.943 1412.14 883.184 1409.64 883.184 1406.59V1389.39C883.184 1386.33 885.943 1383.84 889.316 1383.84H963.208C966.581 1383.84 969.34 1386.33 969.34 1389.39V1406.59C969.494 1409.64 966.734 1412.14 963.208 1412.14Z" fill="#015B77"/>
<path d="M1055.96 1411.72H982.064C978.692 1411.72 975.932 1409.23 975.932 1406.17V1388.97C975.932 1385.92 978.692 1383.42 982.064 1383.42H1055.96C1059.33 1383.42 1062.09 1385.92 1062.09 1388.97V1406.17C1062.09 1409.23 1059.33 1411.72 1055.96 1411.72Z" fill="#015B77"/>
<path d="M1009.66 1446.41H935.768C932.395 1446.41 929.636 1443.92 929.636 1440.86V1423.66C929.636 1420.61 932.395 1418.11 935.768 1418.11H1009.66C1013.03 1418.11 1015.79 1420.61 1015.79 1423.66V1440.86C1015.79 1443.92 1013.03 1446.41 1009.66 1446.41Z" fill="#015B77"/>
<path d="M550.974 763.348H477.082C473.709 763.348 470.95 760.85 470.95 757.798V740.593C470.95 737.54 473.709 735.043 477.082 735.043H550.974C554.347 735.043 557.106 737.54 557.106 740.593V757.798C557.106 760.85 554.347 763.348 550.974 763.348Z" fill="#015B77"/>
<path d="M643.57 762.93H569.678C566.305 762.93 563.545 760.433 563.545 757.38V740.175C563.545 737.122 566.305 734.625 569.678 734.625H643.57C646.943 734.625 649.702 737.122 649.702 740.175V757.38C649.855 760.433 647.096 762.93 643.57 762.93Z" fill="#015B77"/>
<path d="M597.273 797.762H523.381C520.008 797.762 517.249 795.264 517.249 792.212V775.007C517.249 771.955 520.008 769.457 523.381 769.457H597.273C600.646 769.457 603.405 771.955 603.405 775.007V792.212C603.405 795.264 600.646 797.762 597.273 797.762Z" fill="#015B77"/>
<path opacity="0.36" d="M1679.44 1926.76C1757.76 1926.76 1821.25 1869.3 1821.25 1798.42C1821.25 1727.54 1757.76 1670.07 1679.44 1670.07C1601.13 1670.07 1537.64 1727.54 1537.64 1798.42C1537.64 1869.3 1601.13 1926.76 1679.44 1926.76Z" fill="#CA6E91"/>
<path opacity="0.36" d="M1589.15 2175.4C1648.92 2175.4 1697.38 2131.54 1697.38 2077.44C1697.38 2023.34 1648.92 1979.48 1589.15 1979.48C1529.37 1979.48 1480.92 2023.34 1480.92 2077.44C1480.92 2131.54 1529.37 2175.4 1589.15 2175.4Z" fill="#CA6E91"/>
<path opacity="0.36" d="M241.607 1958.95C279.369 1958.95 309.98 1931.25 309.98 1897.07C309.98 1862.89 279.369 1835.19 241.607 1835.19C203.845 1835.19 173.233 1862.89 173.233 1897.07C173.233 1931.25 203.845 1958.95 241.607 1958.95Z" fill="#CA6E91"/>
<path opacity="0.36" d="M263.836 1307.8C306.847 1307.8 341.715 1276.25 341.715 1237.32C341.715 1198.39 306.847 1166.84 263.836 1166.84C220.825 1166.84 185.958 1198.39 185.958 1237.32C185.958 1276.25 220.825 1307.8 263.836 1307.8Z" fill="#CA6E91"/>
<path d="M1810.83 589.635H1736.93C1733.56 589.635 1730.8 587.137 1730.8 584.085V566.88C1730.8 563.828 1733.56 561.33 1736.93 561.33H1810.83C1814.2 561.33 1816.96 563.828 1816.96 566.88V584.085C1817.11 587.137 1814.35 589.635 1810.83 589.635Z" fill="#015B77"/>
<path d="M1903.57 589.223H1829.68C1826.31 589.223 1823.55 586.725 1823.55 583.673V566.468C1823.55 563.415 1826.31 560.918 1829.68 560.918H1903.57C1906.95 560.918 1909.71 563.415 1909.71 566.468V583.673C1909.71 586.725 1906.95 589.223 1903.57 589.223Z" fill="#015B77"/>
<path d="M1857.28 624.045H1783.38C1780.01 624.045 1777.25 621.547 1777.25 618.495V601.29C1777.25 598.238 1780.01 595.74 1783.38 595.74H1857.28C1860.65 595.74 1863.41 598.238 1863.41 601.29V618.495C1863.41 621.547 1860.65 624.045 1857.28 624.045Z" fill="#015B77"/>
<path d="M1857.12 555.088H1783.23C1779.86 555.088 1777.1 552.591 1777.1 549.539V532.333C1777.1 529.281 1779.86 526.783 1783.23 526.783H1857.12C1860.5 526.783 1863.26 529.281 1863.26 532.333V549.539C1863.41 552.591 1860.65 555.088 1857.12 555.088Z" fill="#015B77"/>
<path d="M275.027 232.496H201.135C197.762 232.496 195.003 229.999 195.003 226.946V209.741C195.003 206.689 197.762 204.191 201.135 204.191H275.027C278.4 204.191 281.159 206.689 281.159 209.741V226.946C281.313 229.999 278.553 232.496 275.027 232.496Z" fill="#015B77"/>
<path d="M321.478 266.768H247.586C244.213 266.768 241.454 264.27 241.454 261.218V244.013C241.454 240.96 244.213 238.463 247.586 238.463H321.478C324.851 238.463 327.61 240.96 327.61 244.013V261.218C327.61 264.27 324.851 266.768 321.478 266.768Z" fill="#015B77"/>
<path d="M1074.05 151.607H1000.15C996.782 151.607 994.022 149.11 994.022 146.057V128.853C994.022 125.8 996.782 123.303 1000.15 123.303H1074.05C1077.42 123.303 1080.18 125.8 1080.18 128.853V146.057C1080.33 149.11 1077.57 151.607 1074.05 151.607Z" fill="#015B77"/>
<path d="M1166.8 151.189H1092.9C1089.53 151.189 1086.77 148.692 1086.77 145.639V128.435C1086.77 125.382 1089.53 122.885 1092.9 122.885H1166.8C1170.17 122.885 1172.93 125.382 1172.93 128.435V145.639C1172.93 148.553 1170.17 151.189 1166.8 151.189Z" fill="#015B77"/>
<path d="M1120.5 185.877H1046.61C1043.23 185.877 1040.47 183.379 1040.47 180.327V163.122C1040.47 160.07 1043.23 157.572 1046.61 157.572H1120.5C1123.87 157.572 1126.63 160.07 1126.63 163.122V180.327C1126.63 183.379 1123.87 185.877 1120.5 185.877Z" fill="#015B77"/>
<path d="M340.795 463.512H258.164V510.409H340.795V463.512Z" fill="#07556D"/>
<path d="M1726.05 463.512H1643.42V510.409H1726.05V463.512Z" fill="#07556D"/>
<path opacity="0.36" d="M377.894 1751.93C423.192 1751.93 459.912 1718.7 459.912 1677.7C459.912 1636.71 423.192 1603.47 377.894 1603.47C332.597 1603.47 295.877 1636.71 295.877 1677.7C295.877 1718.7 332.597 1751.93 377.894 1751.93Z" fill="#CA6E91"/>
<path opacity="0.36" d="M1336.2 1670.35C1373.96 1670.35 1404.57 1642.65 1404.57 1608.47C1404.57 1574.3 1373.96 1546.59 1336.2 1546.59C1298.44 1546.59 1267.82 1574.3 1267.82 1608.47C1267.82 1642.65 1298.44 1670.35 1336.2 1670.35Z" fill="#CA6E91"/>
</svg>
