<svg width="1920" height="3013" viewBox="0 0 1920 3013" fill="none" xmlns="http://www.w3.org/2000/svg">
<path d="M1920 0H0V2574H1920V0Z" fill="#004561"/>
<path d="M1920 2573.5H0V3013H1920V2573.5Z" fill="#0A697F"/>
<path d="M610.35 1894.15H153.75V1319.2C153.75 1193.05 255.9 1090.9 382.05 1090.9C508.2 1090.9 610.35 1193.05 610.35 1319.2V1894.15Z" fill="#07556D"/>
<path d="M585.75 1867H178.35V1337.65C178.35 1221.55 269.55 1127.5 382.05 1127.5C494.55 1127.5 585.75 1221.55 585.75 1337.65V1867Z" fill="#0E6A7F"/>
<path d="M602.55 1479.7H397.35V1109.8H366.6V1479.7H161.55V1510.45H366.6V1878.4H397.35V1510.45H602.55V1479.7Z" fill="#07556D"/>
<path d="M1764.75 2416.75H1308.15V1841.8C1308.15 1715.65 1410.3 1613.5 1536.45 1613.5C1662.6 1613.5 1764.75 1715.65 1764.75 1841.8V2416.75Z" fill="#07556D"/>
<path d="M1740.3 2389.6H1332.75V1860.25C1332.75 1744.15 1423.95 1650.1 1536.45 1650.1C1648.95 1650.1 1740.15 1744.15 1740.15 1860.25V2389.6H1740.3Z" fill="#0E6A7F"/>
<path d="M1757.1 2002.3H1551.9V1632.4H1521.15V2002.3H1315.95V2033.05H1521.15V2401H1551.9V2033.05H1757.1V2002.3Z" fill="#07556D"/>
<path d="M178.35 2210.35H106.05C102.75 2210.35 100.05 2207.65 100.05 2204.35V2185.75C100.05 2182.45 102.75 2179.75 106.05 2179.75H178.35C181.65 2179.75 184.35 2182.45 184.35 2185.75V2204.35C184.35 2207.65 181.65 2210.35 178.35 2210.35Z" fill="#015B77"/>
<path d="M268.95 2209.9H196.65C193.35 2209.9 190.65 2207.2 190.65 2203.9V2185.3C190.65 2182 193.35 2179.3 196.65 2179.3H268.95C272.25 2179.3 274.95 2182 274.95 2185.3V2203.9C275.1 2207.2 272.4 2209.9 268.95 2209.9Z" fill="#015B77"/>
<path d="M223.65 2247.55H151.5C148.2 2247.55 145.5 2244.85 145.5 2241.55V2222.95C145.5 2219.65 148.2 2216.95 151.5 2216.95H223.8C227.1 2216.95 229.8 2219.65 229.8 2222.95V2241.55C229.8 2244.85 227.1 2247.55 223.65 2247.55Z" fill="#015B77"/>
<path d="M223.65 2173H151.35C148.05 2173 145.35 2170.3 145.35 2167V2148.4C145.35 2145.1 148.05 2142.4 151.35 2142.4H223.65C226.95 2142.4 229.65 2145.1 229.65 2148.4V2167C229.65 2170.3 226.95 2173 223.65 2173Z" fill="#015B77"/>
<path d="M1905.3 1223.95H1833C1829.7 1223.95 1827 1221.25 1827 1217.95V1199.35C1827 1196.05 1829.7 1193.35 1833 1193.35H1905.3C1908.6 1193.35 1911.3 1196.05 1911.3 1199.35V1217.95C1911.3 1221.25 1908.6 1223.95 1905.3 1223.95Z" fill="#015B77"/>
<path d="M1995.9 1223.5H1923.6C1920.3 1223.5 1917.6 1220.8 1917.6 1217.5V1198.9C1917.6 1195.6 1920.3 1192.9 1923.6 1192.9H1995.9C1999.2 1192.9 2001.9 1195.6 2001.9 1198.9V1217.5C2002.05 1220.8 1999.35 1223.5 1995.9 1223.5Z" fill="#015B77"/>
<path d="M1950.6 1261.15H1878.45C1875.15 1261.15 1872.45 1258.45 1872.45 1255.15V1236.55C1872.45 1233.25 1875.15 1230.55 1878.45 1230.55H1950.75C1954.05 1230.55 1956.75 1233.25 1956.75 1236.55V1255.15C1956.75 1258.45 1954.05 1261.15 1950.6 1261.15Z" fill="#015B77"/>
<path d="M1950.6 1186.6H1878.3C1875 1186.6 1872.3 1183.9 1872.3 1180.6V1162C1872.3 1158.7 1875 1156 1878.3 1156H1950.6C1953.9 1156 1956.6 1158.7 1956.6 1162V1180.6C1956.6 1183.9 1953.9 1186.6 1950.6 1186.6Z" fill="#015B77"/>
<path d="M942.45 1526.65H870.15C866.85 1526.65 864.15 1523.95 864.15 1520.65V1502.05C864.15 1498.75 866.85 1496.05 870.15 1496.05H942.45C945.75 1496.05 948.45 1498.75 948.45 1502.05V1520.65C948.6 1523.95 945.9 1526.65 942.45 1526.65Z" fill="#015B77"/>
<path d="M1033.2 1526.2H960.9C957.6 1526.2 954.9 1523.5 954.9 1520.2V1501.6C954.9 1498.3 957.6 1495.6 960.9 1495.6H1033.2C1036.5 1495.6 1039.2 1498.3 1039.2 1501.6V1520.2C1039.2 1523.5 1036.5 1526.2 1033.2 1526.2Z" fill="#015B77"/>
<path d="M987.901 1563.7H915.601C912.301 1563.7 909.601 1561 909.601 1557.7V1539.1C909.601 1535.8 912.301 1533.1 915.601 1533.1H987.901C991.201 1533.1 993.901 1535.8 993.901 1539.1V1557.7C993.901 1561 991.201 1563.7 987.901 1563.7Z" fill="#015B77"/>
<path d="M539.1 825.252H466.8C463.5 825.252 460.8 822.552 460.8 819.252V800.652C460.8 797.352 463.5 794.652 466.8 794.652H539.1C542.4 794.652 545.1 797.352 545.1 800.652V819.252C545.1 822.552 542.4 825.252 539.1 825.252Z" fill="#015B77"/>
<path d="M629.7 824.8H557.4C554.1 824.8 551.4 822.1 551.4 818.8V800.199C551.4 796.899 554.1 794.199 557.4 794.199H629.7C633 794.199 635.7 796.899 635.7 800.199V818.8C635.85 822.1 633.15 824.8 629.7 824.8Z" fill="#015B77"/>
<path d="M584.401 862.451H512.101C508.801 862.451 506.101 859.751 506.101 856.451V837.852C506.101 834.552 508.801 831.852 512.101 831.852H584.401C587.701 831.852 590.401 834.552 590.401 837.852V856.451C590.401 859.751 587.701 862.451 584.401 862.451Z" fill="#015B77"/>
<path opacity="0.36" d="M1643.25 2083C1719.88 2083 1782 2020.88 1782 1944.25C1782 1867.62 1719.88 1805.5 1643.25 1805.5C1566.62 1805.5 1504.5 1867.62 1504.5 1944.25C1504.5 2020.88 1566.62 2083 1643.25 2083Z" fill="#CA6E91"/>
<path opacity="0.36" d="M1554.9 2351.8C1613.39 2351.8 1660.8 2304.39 1660.8 2245.9C1660.8 2187.41 1613.39 2140 1554.9 2140C1496.41 2140 1449 2187.41 1449 2245.9C1449 2304.39 1496.41 2351.8 1554.9 2351.8Z" fill="#CA6E91"/>
<path opacity="0.36" d="M236.4 2117.8C273.348 2117.8 303.3 2087.85 303.3 2050.9C303.3 2013.95 273.348 1984 236.4 1984C199.452 1984 169.5 2013.95 169.5 2050.9C169.5 2087.85 199.452 2117.8 236.4 2117.8Z" fill="#CA6E91"/>
<path opacity="0.36" d="M258.15 1413.85C300.234 1413.85 334.35 1379.74 334.35 1337.65C334.35 1295.57 300.234 1261.45 258.15 1261.45C216.066 1261.45 181.95 1295.57 181.95 1337.65C181.95 1379.74 216.066 1413.85 258.15 1413.85Z" fill="#CA6E91"/>
<path d="M1771.8 637.449H1699.5C1696.2 637.449 1693.5 634.749 1693.5 631.449V612.85C1693.5 609.55 1696.2 606.85 1699.5 606.85H1771.8C1775.1 606.85 1777.8 609.55 1777.8 612.85V631.449C1777.95 634.749 1775.25 637.449 1771.8 637.449Z" fill="#015B77"/>
<path d="M1862.55 637H1790.25C1786.95 637 1784.25 634.3 1784.25 631V612.4C1784.25 609.1 1786.95 606.4 1790.25 606.4H1862.55C1865.85 606.4 1868.55 609.1 1868.55 612.4V631C1868.55 634.3 1865.85 637 1862.55 637Z" fill="#015B77"/>
<path d="M1817.25 674.649H1744.95C1741.65 674.649 1738.95 671.949 1738.95 668.649V650.049C1738.95 646.749 1741.65 644.049 1744.95 644.049H1817.25C1820.55 644.049 1823.25 646.749 1823.25 650.049V668.649C1823.25 671.949 1820.55 674.649 1817.25 674.649Z" fill="#015B77"/>
<path d="M1817.1 600.101H1744.8C1741.5 600.101 1738.8 597.401 1738.8 594.101V575.5C1738.8 572.2 1741.5 569.5 1744.8 569.5H1817.1C1820.4 569.5 1823.1 572.2 1823.1 575.5V594.101C1823.25 597.401 1820.55 600.101 1817.1 600.101Z" fill="#015B77"/>
<path d="M269.1 251.35H196.8C193.5 251.35 190.8 248.65 190.8 245.35V226.75C190.8 223.45 193.5 220.75 196.8 220.75H269.1C272.4 220.75 275.1 223.45 275.1 226.75V245.35C275.25 248.65 272.55 251.35 269.1 251.35Z" fill="#015B77"/>
<path d="M314.55 288.399H242.25C238.95 288.399 236.25 285.699 236.25 282.399V263.799C236.25 260.499 238.95 257.799 242.25 257.799H314.55C317.85 257.799 320.55 260.499 320.55 263.799V282.399C320.55 285.699 317.85 288.399 314.55 288.399Z" fill="#015B77"/>
<path d="M1050.9 163.901H978.6C975.3 163.901 972.6 161.201 972.6 157.901V139.301C972.6 136.001 975.3 133.301 978.6 133.301H1050.9C1054.2 133.301 1056.9 136.001 1056.9 139.301V157.901C1057.05 161.201 1054.35 163.901 1050.9 163.901Z" fill="#015B77"/>
<path d="M1141.65 163.449H1069.35C1066.05 163.449 1063.35 160.749 1063.35 157.449V138.85C1063.35 135.55 1066.05 132.85 1069.35 132.85H1141.65C1144.95 132.85 1147.65 135.55 1147.65 138.85V157.449C1147.65 160.599 1144.95 163.449 1141.65 163.449Z" fill="#015B77"/>
<path d="M1096.35 200.949H1024.05C1020.75 200.949 1018.05 198.249 1018.05 194.949V176.35C1018.05 173.05 1020.75 170.35 1024.05 170.35H1096.35C1099.65 170.35 1102.35 173.05 1102.35 176.35V194.949C1102.35 198.249 1099.65 200.949 1096.35 200.949Z" fill="#015B77"/>
<path opacity="0.36" d="M369.75 1894C414.071 1894 450 1858.07 450 1813.75C450 1769.43 414.071 1733.5 369.75 1733.5C325.429 1733.5 289.5 1769.43 289.5 1813.75C289.5 1858.07 325.429 1894 369.75 1894Z" fill="#CA6E91"/>
<path opacity="0.36" d="M1307.4 1805.8C1344.35 1805.8 1374.3 1775.85 1374.3 1738.9C1374.3 1701.95 1344.35 1672 1307.4 1672C1270.45 1672 1240.5 1701.95 1240.5 1738.9C1240.5 1775.85 1270.45 1805.8 1307.4 1805.8Z" fill="#CA6E91"/>
<path d="M586.02 1743.15C582.778 1691.36 645.259 1663 682.132 1699.55L919.01 1934.08C947.131 1961.87 938.622 2009.28 902.64 2025.65L686.346 2123.87C650.365 2140.24 609.116 2115.44 606.604 2075.98L586.02 1743.15Z" fill="#C9345A"/>
<path d="M550.363 1872.41C498.903 1899.08 450.117 1832.62 490.961 1791.46L593.556 1688.05C616.41 1665.03 653.931 1665.93 675.649 1690.08L698.908 1716.01C723.625 1743.48 715.683 1786.92 682.862 1803.94L550.363 1872.41Z" fill="#C9345A"/>
<path d="M594.529 1854.27C593.962 1854.51 593.395 1854.68 592.746 1854.76C589.667 1855.08 586.83 1852.81 586.506 1849.73C586.263 1847.62 586.101 1845.19 585.939 1842.36C585.372 1835.14 584.723 1826.23 583.103 1818.53C580.834 1808.16 577.997 1805.81 576.863 1805.24C575.08 1804.35 572.162 1805.81 570.136 1807.19C567.543 1808.89 564.058 1808.24 562.276 1805.65C560.574 1803.05 561.222 1799.57 563.815 1797.79C568.353 1794.79 575.161 1791.87 581.806 1795.03C593.233 1800.62 595.583 1820.15 597.122 1841.38C597.284 1844.14 597.528 1846.49 597.69 1848.35C598.095 1851.03 596.717 1853.3 594.529 1854.27Z" fill="#B1294C"/>
<path d="M828.57 1883.43C828.246 1883.6 827.841 1883.68 827.517 1883.76C765.846 1897.94 685.455 1935.54 641.126 1963.74C638.533 1965.44 634.967 1964.63 633.346 1962.04C631.645 1959.45 632.455 1955.88 635.048 1954.26C657.739 1939.76 689.02 1923.39 720.95 1909.12C747.369 1897.37 786.835 1881.49 824.923 1872.74C828.003 1872.01 831.001 1873.95 831.65 1876.95C832.379 1879.71 831.001 1882.3 828.57 1883.43Z" fill="#F1698B"/>
<path d="M495.094 1797.13C493.149 1798.02 490.718 1797.69 489.016 1796.15C486.666 1794.05 486.504 1790.48 488.611 1788.21C493.473 1782.78 498.903 1776.54 504.576 1769.98C526.213 1745.02 553.199 1713.9 580.428 1692.99C595.745 1681.24 609.359 1673.95 622.164 1670.79C637.48 1666.98 651.176 1669.25 663.007 1677.59C665.52 1679.38 666.168 1682.94 664.385 1685.45C662.602 1687.97 659.037 1688.61 656.524 1686.83C616.329 1658.47 554.253 1730.11 513.247 1777.43C507.493 1784.08 502.144 1790.32 497.12 1795.83C496.472 1796.32 495.823 1796.8 495.094 1797.13Z" fill="#F1698B"/>
<path d="M697.854 1817.63C710.968 1817.63 721.599 1807 721.599 1793.88C721.599 1780.77 710.968 1770.14 697.854 1770.14C684.741 1770.14 674.11 1780.77 674.11 1793.88C674.11 1807 684.741 1817.63 697.854 1817.63Z" fill="#FFDDDD"/>
<path d="M604.269 1759.32C610.147 1754.93 611.351 1746.6 606.956 1740.72C602.562 1734.84 594.233 1733.64 588.355 1738.03C582.476 1742.43 581.273 1750.75 585.667 1756.63C590.062 1762.51 598.39 1763.71 604.269 1759.32Z" fill="#FFDDDD"/>
<path d="M548.182 1863.14C548.889 1855.88 541.264 1849.19 531.152 1848.21C521.04 1847.23 512.27 1852.31 511.563 1859.58C510.856 1866.84 518.48 1873.52 528.592 1874.5C538.704 1875.49 547.475 1870.4 548.182 1863.14Z" fill="#FFDDDD"/>
<path d="M1016.74 1896.73C1012.45 1909.94 1000.86 1920.15 986.111 1921.93C965.932 1924.36 947.536 1910.02 945.105 1889.76C943.971 1880.44 946.483 1871.44 951.426 1864.31C882.624 1841.05 798.991 1838.62 733.674 1846.56C679.945 1853.13 603.849 1875.09 541.691 1912.04C545.824 1916.66 548.661 1922.58 549.471 1929.22C551.578 1946.48 539.26 1962.13 521.999 1964.23C509.114 1965.77 497.12 1959.37 491.042 1948.83C452.467 1983.68 428.236 2027.12 434.476 2078.82C447.443 2185.39 595.583 2198.44 773.707 2176.8C951.912 2155.16 1092.6 2107.1 1079.63 2000.46C1074.12 1954.75 1050.54 1921.04 1016.74 1896.73Z" fill="#C9345A"/>
<path d="M521.999 1964.15C539.26 1962.04 551.497 1946.4 549.471 1929.14C548.661 1922.5 545.825 1916.58 541.692 1911.96C523.296 1922.9 506.034 1935.14 491.042 1948.75C497.201 1959.29 509.195 1965.77 521.999 1964.15Z" fill="#FFDDDD"/>
<path d="M986.11 1921.93C1000.78 1920.15 1012.37 1909.94 1016.74 1896.73C997.699 1883.03 975.494 1872.42 951.425 1864.31C946.401 1871.44 943.97 1880.44 945.104 1889.76C947.536 1910.02 965.932 1924.36 986.11 1921.93Z" fill="#FFDDDD"/>
<path d="M934.651 2276.72C916.661 2260.67 898.832 2233.61 889.269 2217.24L689.832 2200.22C670.706 2210.75 641.127 2235.8 647.286 2252.57C652.229 2266.18 639.587 2294.22 626.945 2313.92C622.893 2320.16 625.405 2328.26 632.861 2328.75C666.897 2330.94 734.565 2318.46 753.366 2316.19C775.49 2313.51 769.979 2298.28 805.232 2309.87C827.436 2317.24 889.755 2299.01 931.896 2289.36C937.163 2288.31 938.622 2280.29 934.651 2276.72Z" fill="#5B619B"/>
<path d="M1016.5 1999.81C1026.71 2084.09 914.148 2130.77 770.304 2148.2C626.54 2165.62 505.953 2147.3 495.743 2063.02C485.532 1978.74 597.123 1923.39 740.886 1905.97C884.65 1888.47 1006.21 1915.45 1016.5 1999.81Z" fill="#E28EAE"/>
<path d="M627.917 2111.97C618.84 2037.09 672.164 1968.93 747.125 1959.86C822.087 1950.78 890.16 2004.11 899.236 2079.07L906.449 2138.47L635.129 2171.37L627.917 2111.97Z" fill="#FFD9E7"/>
<path d="M911.15 2199.57C901.911 2200.7 892.511 2200.38 882.948 2198.68C866.011 2195.6 853.207 2188.87 847.129 2185.63C846.561 2185.31 846.075 2185.06 845.67 2184.82L853.45 2169.75C853.936 2169.99 854.503 2170.31 855.071 2170.64C898.751 2193.73 927.195 2178.9 936.515 2173.96L944.376 2188.95C933.598 2194.63 922.495 2198.11 911.15 2199.57Z" fill="#FFD9E7"/>
<path d="M627.512 2193.33L616.167 2205.89C627.026 2215.7 641.37 2221.29 657.659 2222.02C674.353 2222.75 687.238 2218.29 690.804 2216.91L684.726 2201.11C678.972 2203.3 669.086 2205.57 658.47 2205.08C645.908 2204.52 635.535 2200.63 627.512 2193.33Z" fill="#E28EAE"/>
<path d="M688.372 2172.42C689.669 2144.95 710.658 2122.34 737.968 2119.02L790.239 2112.69C817.549 2109.37 843.319 2126.23 851.18 2152.65L864.066 2196C874.033 2229.55 851.423 2263.91 816.739 2268.13L749.395 2276.31C714.71 2280.53 684.482 2252.49 686.184 2217.56L688.372 2172.42Z" fill="#FFD9E7"/>
<path d="M896.725 2229.15C903.046 2240.17 761.714 2222.91 686.185 2207.6C680.188 2206.38 680.512 2198.44 686.59 2197.47L868.929 2169.1C875.088 2184.34 888.783 2215.38 896.725 2229.15Z" fill="#9096D1"/>
<path d="M596.474 2124.61C590.963 2078.98 623.46 2037.41 669.085 2031.9L840.645 2011.07C886.27 2005.56 927.843 2038.06 933.354 2083.68C938.865 2129.31 906.368 2170.88 860.743 2176.39L771.762 2187.17L689.183 2197.22C643.558 2202.73 602.066 2170.23 596.474 2124.61Z" fill="#FFD9E7"/>
<path d="M656.536 2109.58C659.884 2084.87 650.123 2063.16 634.733 2061.07C619.344 2058.98 604.155 2077.32 600.807 2102.02C597.459 2126.72 607.22 2148.44 622.609 2150.53C637.998 2152.61 653.188 2134.28 656.536 2109.58Z" fill="#F1698B"/>
<path d="M913.413 2115.19C927.857 2109.49 932.139 2086.07 922.977 2062.88C913.815 2039.7 894.68 2025.53 880.236 2031.24C865.793 2036.94 861.511 2060.37 870.673 2083.55C879.834 2106.73 898.97 2120.9 913.413 2115.19Z" fill="#F1698B"/>
<path d="M737.969 1991.95C739.427 1997.22 731.891 2000.05 729.541 1995.11L724.516 1984.66C723.301 1982.22 724.597 1979.31 727.109 1978.42L729.054 1977.77C731.486 1976.96 734.16 1978.33 734.889 1980.85L737.969 1991.95Z" fill="#E28EAE"/>
<path d="M763.415 1988.79C763.253 1994.3 771.195 1995.19 772.329 1989.84L774.679 1978.5C775.247 1975.82 773.302 1973.31 770.628 1973.07L768.521 1972.91C765.927 1972.66 763.658 1974.69 763.658 1977.28L763.415 1988.79Z" fill="#E28EAE"/>
<path d="M613.25 2219.75C627.124 2219.75 638.372 2208.5 638.372 2194.63C638.372 2180.76 627.124 2169.51 613.25 2169.51C599.375 2169.51 588.127 2180.76 588.127 2194.63C588.127 2208.5 599.375 2219.75 613.25 2219.75Z" fill="#E28EAE"/>
<path d="M940.729 2216.51C957.244 2216.51 970.632 2203.12 970.632 2186.61C970.632 2170.09 957.244 2156.7 940.729 2156.7C924.213 2156.7 910.825 2170.09 910.825 2186.61C910.825 2203.12 924.213 2216.51 940.729 2216.51Z" fill="#FFD9E7"/>
<g opacity="0.5">
<path fill-rule="evenodd" clip-rule="evenodd" d="M947.212 2050.22C944.132 2049.81 941.296 2052 940.891 2055.08C940.485 2058.16 942.674 2060.99 945.753 2061.4L939.918 2105.97C917.389 2109.46 898.993 2127.37 895.833 2151.03C892.105 2179.8 913.337 2198.36 942.106 2202.08C970.875 2205.81 996.241 2193.41 999.968 2164.64C1003.05 2140.98 989.838 2118.86 969.011 2109.7L974.846 2065.13L975.413 2065.21C978.493 2065.61 981.329 2063.43 981.734 2060.35C982.14 2057.27 979.952 2054.43 976.872 2054.03L947.212 2050.22Z" fill="#B7D6D6"/>
</g>
<g opacity="0.8">
<path d="M990.891 2160.34C987.893 2183.04 967.876 2192.84 945.185 2189.84C922.494 2186.84 905.638 2172.26 908.636 2149.57C911.635 2126.87 932.057 2152.89 958.638 2137.17C971.604 2131.33 993.89 2137.65 990.891 2160.34Z" fill="#A977AB"/>
</g>
<path d="M964.151 2149C970.238 2149 975.173 2144.07 975.173 2137.98C975.173 2131.9 970.238 2126.96 964.151 2126.96C958.064 2126.96 953.13 2131.9 953.13 2137.98C953.13 2144.07 958.064 2149 964.151 2149Z" fill="#CDABD9"/>
<path d="M931.248 2168.94C934.828 2168.94 937.731 2166.03 937.731 2162.45C937.731 2158.87 934.828 2155.97 931.248 2155.97C927.667 2155.97 924.765 2158.87 924.765 2162.45C924.765 2166.03 927.667 2168.94 931.248 2168.94Z" fill="#CDABD9"/>
<path d="M916.579 2137.17C915.931 2137.25 915.283 2137.09 914.715 2136.76C913.419 2135.95 913.013 2134.17 913.824 2132.87C916.174 2129.15 929.464 2110.75 959.449 2118.85C960.989 2119.26 961.88 2120.8 961.475 2122.34C961.07 2123.88 959.53 2124.77 957.99 2124.36C931.815 2117.31 920.55 2132.79 918.605 2135.95C918.119 2136.6 917.39 2137.01 916.579 2137.17Z" fill="#FFF2F7"/>
<path d="M732.377 2306.86L715.52 2308.89C712.522 2284.17 715.115 2271.86 736.51 2247.62L749.233 2258.81C730.837 2279.8 730.027 2287.74 732.377 2306.86Z" fill="#FFD9E7"/>
<path d="M856.853 2291.79L839.997 2293.82C837.646 2274.69 834.972 2267.15 812.119 2251.27L821.763 2237.33C848.344 2255.73 853.854 2267.07 856.853 2291.79Z" fill="#FFD9E7"/>
<path d="M660.252 2326.15C659.279 2317.97 665.114 2310.51 673.299 2309.46L731.891 2302.33L734.727 2325.34C735.213 2329.07 732.539 2332.39 728.892 2332.8L677.027 2339.12C668.68 2340.17 661.224 2334.34 660.252 2326.15Z" fill="#E28EAE"/>
<path d="M914.716 2295.27C913.743 2287.09 906.288 2281.25 898.022 2282.23L839.43 2289.36L842.267 2312.37C842.753 2316.1 846.075 2318.69 849.722 2318.21L901.587 2311.89C909.853 2310.91 915.688 2303.46 914.716 2295.27Z" fill="#E28EAE"/>
<path d="M799.882 1846.07C799.558 1846.15 799.234 1846.15 798.91 1846.15C743.317 1843.89 667.302 1859.44 624.027 1875.25C621.434 1876.22 618.598 1874.52 617.625 1871.6C616.653 1868.6 617.949 1865.44 620.543 1864.55C642.747 1856.45 672.651 1848.67 702.716 1843.24C727.595 1838.7 764.387 1833.59 798.829 1834.97C801.584 1835.05 803.853 1837.73 803.853 1840.81C803.853 1843.48 802.152 1845.67 799.882 1846.07Z" fill="#F1698B"/>
<path d="M759.607 2060.5C729.865 2064.15 705.797 2072.9 701.42 2081.25C718.439 2083.6 739.509 2083.68 762.119 2080.93C784.729 2078.17 805.151 2073.06 821.115 2066.74C814.875 2059.69 789.429 2056.86 759.607 2060.5Z" fill="#F1698B"/>
<path d="M728 2064.88C732.295 2064.39 735.375 2060.42 734.808 2056.13L734.402 2052.89C729.54 2054.67 724.435 2056.13 719.086 2057.1L719.167 2058.07C719.734 2062.29 723.624 2065.37 728 2064.88Z" fill="white"/>
<path d="M852.721 2031.09C852.721 2030.6 852.396 2030.12 851.829 2029.79C851.748 2029.79 851.667 2029.71 851.667 2029.71C850.532 2029.22 848.912 2029.39 847.858 2030.2C836.594 2038.95 821.358 2044.87 804.907 2046.89C802.962 2047.13 801.099 2047.3 799.154 2047.46L799.235 2048.35C799.721 2052.65 796.722 2056.53 792.427 2057.1C788.132 2057.59 784.242 2054.59 783.675 2050.29L783.27 2047.22C774.599 2046.32 766.333 2044.3 759.12 2041.06C757.986 2040.57 756.365 2040.73 755.311 2041.54C749.314 2046.24 742.183 2050.05 734.322 2052.97L734.727 2056.21C735.214 2060.51 732.215 2064.4 727.92 2064.96C723.625 2065.45 719.735 2062.45 719.168 2058.16L719.087 2057.18C716.899 2057.59 714.63 2057.99 712.361 2058.24C695.91 2060.26 679.702 2058.16 666.654 2052.32C665.52 2051.83 663.899 2052 662.846 2052.81C662.764 2052.89 662.764 2052.89 662.683 2052.97C662.197 2053.46 662.035 2053.94 662.116 2054.43C661.306 2056.45 661.063 2058.4 661.306 2060.34C662.602 2070.72 678.162 2078.17 701.42 2081.33C705.796 2073.07 729.865 2064.23 759.606 2060.59C789.348 2056.94 814.875 2059.78 821.034 2066.75C842.834 2058.07 856.205 2047.05 854.909 2036.76C854.747 2034.74 854.017 2032.87 852.721 2031.09Z" fill="#E28EAE"/>
<path d="M792.427 2057.02C796.722 2056.53 799.802 2052.56 799.234 2048.27L799.153 2047.38C793.805 2047.7 788.456 2047.62 783.351 2047.13L783.756 2050.21C784.242 2054.51 788.132 2057.59 792.427 2057.02Z" fill="white"/>
<path d="M698.583 2019.26C697.691 2012.12 704.255 2007.18 712.927 2006.13C721.598 2005.07 729.134 2008.32 729.945 2015.45C730.188 2017.47 729.864 2019.5 729.053 2021.28C732.376 2021.85 735.374 2022.74 737.887 2023.96C739.264 2020.63 739.832 2017.07 739.426 2013.5C737.887 2000.54 724.434 1994.54 708.875 1996.48C693.396 1998.35 681.726 2007.34 683.347 2020.31C683.752 2023.96 685.211 2027.28 687.318 2030.12C690.479 2027.52 694.855 2025.25 700.122 2023.63C699.312 2022.25 698.826 2020.88 698.583 2019.26Z" fill="white"/>
<path d="M712.927 2006.13C704.256 2007.18 697.692 2012.13 698.583 2019.26C698.745 2020.8 699.312 2022.26 700.123 2023.55C703.689 2022.42 707.659 2021.53 711.874 2020.96C718.114 2020.23 723.948 2020.39 729.054 2021.2C729.864 2019.34 730.188 2017.39 729.945 2015.37C729.135 2008.32 721.598 2005.07 712.927 2006.13Z" fill="#C9345A"/>
<path d="M777.111 2009.78C776.22 2002.65 782.784 1997.7 791.455 1996.65C800.126 1995.6 807.663 1998.84 808.473 2005.97C808.635 2007.51 808.473 2008.97 808.068 2010.43C813.741 2010.75 818.765 2011.97 822.574 2013.75C823.952 2010.43 824.519 2006.86 824.114 2003.3C822.574 1990.33 809.122 1984.33 793.562 1986.28C778.084 1988.14 766.414 1997.14 768.035 2010.1C768.44 2013.75 769.899 2017.07 772.006 2019.91C774.032 2018.29 776.544 2016.75 779.461 2015.45C778.165 2013.75 777.354 2011.8 777.111 2009.78Z" fill="white"/>
<path d="M791.456 1996.65C782.785 1997.71 776.22 2002.65 777.112 2009.78C777.355 2011.89 778.246 2013.75 779.543 2015.37C784.324 2013.18 790.24 2011.56 796.642 2010.83C800.694 2010.35 804.584 2010.27 808.15 2010.43C808.555 2008.97 808.717 2007.51 808.555 2005.97C807.583 1998.84 800.046 1995.6 791.456 1996.65Z" fill="#C9345A"/>
<path d="M794.372 2838.05H747.774L725.326 2713.58H816.82L794.372 2838.05Z" fill="#133F49"/>
<path d="M1157.18 2838.05H1110.59L1088.22 2713.58H1179.63L1157.18 2838.05Z" fill="#133F49"/>
<path d="M611.547 2457.26H552.874C534.154 2457.26 519 2442.11 519 2423.39C519 2404.67 534.154 2389.52 552.874 2389.52H611.547C630.267 2389.52 645.421 2404.67 645.421 2423.39C645.421 2442.11 630.267 2457.26 611.547 2457.26Z" fill="#133F49"/>
<path d="M1352.08 2457.26H1293.41C1274.69 2457.26 1259.54 2442.11 1259.54 2423.39C1259.54 2404.67 1274.69 2389.52 1293.41 2389.52H1352.08C1370.8 2389.52 1385.96 2404.67 1385.96 2423.39C1385.96 2442.11 1370.8 2457.26 1352.08 2457.26Z" fill="#133F49"/>
<path d="M952.48 2786.52C1170.45 2786.52 1347.14 2665.96 1347.14 2517.23C1347.14 2368.5 1170.45 2247.94 952.48 2247.94C734.514 2247.94 557.818 2368.5 557.818 2517.23C557.818 2665.96 734.514 2786.52 952.48 2786.52Z" fill="#0E2E38"/>
<path d="M1265.05 2290.24C1205.65 2260.26 1087.98 2239.91 952.479 2239.91C816.981 2239.91 699.393 2260.34 639.911 2290.24H598.743V2334.65C598.743 2387 757.093 2429.38 952.479 2429.38C1147.86 2429.38 1306.22 2387 1306.22 2334.65V2290.24H1265.05Z" fill="#133F49"/>
<path d="M952.479 2384.97C1147.84 2384.97 1306.22 2342.56 1306.22 2290.24C1306.22 2237.92 1147.84 2195.5 952.479 2195.5C757.116 2195.5 598.743 2237.92 598.743 2290.24C598.743 2342.56 757.116 2384.97 952.479 2384.97Z" fill="#0E2E38"/>
<path d="M1266.43 2290.24C1266.43 2253.2 1125.9 2223.14 952.479 2223.14C779.055 2223.14 638.533 2253.2 638.533 2290.24C638.533 2301.1 650.608 2311.39 672.002 2320.38C670.381 2317.63 669.571 2314.79 669.571 2311.96C669.571 2276.54 796.235 2247.93 952.479 2247.93C1108.72 2247.93 1235.39 2276.62 1235.39 2311.96C1235.39 2314.79 1234.58 2317.63 1232.96 2320.38C1254.35 2311.39 1266.43 2301.1 1266.43 2290.24Z" fill="#133F49"/>
<path d="M952.48 2247.94C796.236 2247.94 669.572 2276.63 669.572 2311.96C669.572 2314.79 670.382 2317.63 672.003 2320.39C723.706 2342.27 829.867 2357.34 952.48 2357.34C1075.09 2357.34 1181.25 2342.35 1232.96 2320.39C1234.58 2317.63 1235.39 2314.79 1235.39 2311.96C1235.39 2276.63 1108.72 2247.94 952.48 2247.94Z" fill="#CA6E91"/>
<path d="M966.095 2295.99C977.866 2295.99 987.408 2291.38 987.408 2285.7C987.408 2280.01 977.866 2275.41 966.095 2275.41C954.324 2275.41 944.781 2280.01 944.781 2285.7C944.781 2291.38 954.324 2295.99 966.095 2295.99Z" fill="#E57FA8"/>
<path d="M994.134 2297.46C1000.89 2297.46 1006.37 2294.23 1006.37 2290.24C1006.37 2286.26 1000.89 2283.03 994.134 2283.03C987.376 2283.03 981.897 2286.26 981.897 2290.24C981.897 2294.23 987.376 2297.46 994.134 2297.46Z" fill="#E57FA8"/>
<path d="M975.738 2310.82C981.064 2310.82 985.382 2308.25 985.382 2305.07C985.382 2301.89 981.064 2299.32 975.738 2299.32C970.412 2299.32 966.094 2301.89 966.094 2305.07C966.094 2308.25 970.412 2310.82 975.738 2310.82Z" fill="#E57FA8"/>
<path d="M1083.12 2331.98C1088.44 2331.98 1092.76 2329.4 1092.76 2326.22C1092.76 2323.04 1088.44 2320.47 1083.12 2320.47C1077.79 2320.47 1073.47 2323.04 1073.47 2326.22C1073.47 2329.4 1077.79 2331.98 1083.12 2331.98Z" fill="#E57FA8"/>
<path d="M1100.38 2320.47C1104.58 2320.47 1107.99 2318.44 1107.99 2315.93C1107.99 2313.42 1104.58 2311.39 1100.38 2311.39C1096.17 2311.39 1092.76 2313.42 1092.76 2315.93C1092.76 2318.44 1096.17 2320.47 1100.38 2320.47Z" fill="#E57FA8"/>
<path d="M1061.4 2280.84C1065.6 2280.84 1069.01 2278.81 1069.01 2276.3C1069.01 2273.79 1065.6 2271.76 1061.4 2271.76C1057.19 2271.76 1053.78 2273.79 1053.78 2276.3C1053.78 2278.81 1057.19 2280.84 1061.4 2280.84Z" fill="#E57FA8"/>
<path d="M1172.5 2311.71C1176.71 2311.71 1180.12 2309.68 1180.12 2307.17C1180.12 2304.67 1176.71 2302.64 1172.5 2302.64C1168.3 2302.64 1164.88 2304.67 1164.88 2307.17C1164.88 2309.68 1168.3 2311.71 1172.5 2311.71Z" fill="#E57FA8"/>
<path d="M827.112 2323.79C838.883 2323.79 848.426 2319.19 848.426 2313.5C848.426 2307.82 838.883 2303.21 827.112 2303.21C815.341 2303.21 805.799 2307.82 805.799 2313.5C805.799 2319.19 815.341 2323.79 827.112 2323.79Z" fill="#E57FA8"/>
<path d="M854.585 2335.3C859.911 2335.3 864.229 2332.72 864.229 2329.54C864.229 2326.37 859.911 2323.79 854.585 2323.79C849.259 2323.79 844.941 2326.37 844.941 2329.54C844.941 2332.72 849.259 2335.3 854.585 2335.3Z" fill="#E57FA8"/>
<path d="M735.862 2307.74C740.069 2307.74 743.48 2305.71 743.48 2303.21C743.48 2300.7 740.069 2298.67 735.862 2298.67C731.655 2298.67 728.244 2300.7 728.244 2303.21C728.244 2305.71 731.655 2307.74 735.862 2307.74Z" fill="#E57FA8"/>
<path d="M746.883 2303.85C751.09 2303.85 754.501 2301.82 754.501 2299.32C754.501 2296.81 751.09 2294.78 746.883 2294.78C742.676 2294.78 739.266 2296.81 739.266 2299.32C739.266 2301.82 742.676 2303.85 746.883 2303.85Z" fill="#E57FA8"/>
<path d="M870.711 2277.52C876.037 2277.52 880.355 2274.94 880.355 2271.77C880.355 2268.59 876.037 2266.01 870.711 2266.01C865.385 2266.01 861.067 2268.59 861.067 2271.77C861.067 2274.94 865.385 2277.52 870.711 2277.52Z" fill="#E57FA8"/>
<path d="M955.234 2287.16C956.711 2287.16 957.909 2285.96 957.909 2284.49C957.909 2283.01 956.711 2281.81 955.234 2281.81C953.757 2281.81 952.56 2283.01 952.56 2284.49C952.56 2285.96 953.757 2287.16 955.234 2287.16Z" fill="#FFA1CC"/>
<path d="M979.466 2305.63C980.495 2305.63 981.33 2304.8 981.33 2303.77C981.33 2302.74 980.495 2301.91 979.466 2301.91C978.437 2301.91 977.602 2302.74 977.602 2303.77C977.602 2304.8 978.437 2305.63 979.466 2305.63Z" fill="#FFA1CC"/>
<path d="M1000.54 2291.54C1001.57 2291.54 1002.4 2290.71 1002.4 2289.68C1002.4 2288.65 1001.57 2287.81 1000.54 2287.81C999.507 2287.81 998.672 2288.65 998.672 2289.68C998.672 2290.71 999.507 2291.54 1000.54 2291.54Z" fill="#FFA1CC"/>
<path d="M1064.8 2277.6C1065.83 2277.6 1066.66 2276.76 1066.66 2275.74C1066.66 2274.71 1065.83 2273.87 1064.8 2273.87C1063.77 2273.87 1062.94 2274.71 1062.94 2275.74C1062.94 2276.76 1063.77 2277.6 1064.8 2277.6Z" fill="#FFA1CC"/>
<path d="M1078.9 2326.22C1079.93 2326.22 1080.77 2325.39 1080.77 2324.36C1080.77 2323.33 1079.93 2322.5 1078.9 2322.5C1077.87 2322.5 1077.04 2323.33 1077.04 2324.36C1077.04 2325.39 1077.87 2326.22 1078.9 2326.22Z" fill="#FFA1CC"/>
<path d="M1104.02 2316.82C1105.05 2316.82 1105.89 2315.99 1105.89 2314.96C1105.89 2313.93 1105.05 2313.09 1104.02 2313.09C1102.99 2313.09 1102.16 2313.93 1102.16 2314.96C1102.16 2315.99 1102.99 2316.82 1104.02 2316.82Z" fill="#FFA1CC"/>
<path d="M1174.37 2307.58C1175.39 2307.58 1176.23 2306.75 1176.23 2305.72C1176.23 2304.69 1175.39 2303.85 1174.37 2303.85C1173.34 2303.85 1172.5 2304.69 1172.5 2305.72C1172.5 2306.75 1173.34 2307.58 1174.37 2307.58Z" fill="#FFA1CC"/>
<path d="M811.796 2313.58C812.825 2313.58 813.659 2312.75 813.659 2311.72C813.659 2310.69 812.825 2309.86 811.796 2309.86C810.766 2309.86 809.932 2310.69 809.932 2311.72C809.932 2312.75 810.766 2313.58 811.796 2313.58Z" fill="#FFA1CC"/>
<path d="M848.425 2331.41C849.454 2331.41 850.289 2330.57 850.289 2329.54C850.289 2328.51 849.454 2327.68 848.425 2327.68C847.396 2327.68 846.561 2328.51 846.561 2329.54C846.561 2330.57 847.396 2331.41 848.425 2331.41Z" fill="#FFA1CC"/>
<path d="M876.141 2272.57C877.171 2272.57 878.005 2271.74 878.005 2270.71C878.005 2269.68 877.171 2268.84 876.141 2268.84C875.112 2268.84 874.277 2269.68 874.277 2270.71C874.277 2271.74 875.112 2272.57 876.141 2272.57Z" fill="#FFA1CC"/>
<path d="M731.648 2305.07C732.677 2305.07 733.512 2304.23 733.512 2303.2C733.512 2302.17 732.677 2301.34 731.648 2301.34C730.619 2301.34 729.784 2302.17 729.784 2303.2C729.784 2304.23 730.619 2305.07 731.648 2305.07Z" fill="#FFA1CC"/>
<path d="M750.449 2300.13C751.479 2300.13 752.313 2299.29 752.313 2298.26C752.313 2297.23 751.479 2296.4 750.449 2296.4C749.42 2296.4 748.585 2297.23 748.585 2298.26C748.585 2299.29 749.42 2300.13 750.449 2300.13Z" fill="#FFA1CC"/>
<path d="M643.476 2445.34C651.8 2445.34 658.549 2438.59 658.549 2430.27C658.549 2421.94 651.8 2415.2 643.476 2415.2C635.151 2415.2 628.402 2421.94 628.402 2430.27C628.402 2438.59 635.151 2445.34 643.476 2445.34Z" fill="#205966"/>
<path d="M623.865 2469.65C629.37 2469.65 633.833 2465.19 633.833 2459.69C633.833 2454.18 629.37 2449.72 623.865 2449.72C618.36 2449.72 613.897 2454.18 613.897 2459.69C613.897 2465.19 618.36 2469.65 623.865 2469.65Z" fill="#205966"/>
<path d="M1639.5 1203.25C1639.5 1242.82 1633.46 1278.62 1623.02 1311.91C1527.2 1617.4 1512.48 1995.69 1244.97 2171.62C1157.69 2229.03 1031.86 2263.7 876.75 2305C1639.5 1816.75 616.5 1776.25 584.25 1203.25C584.25 951.822 953.072 738.25 1204.5 738.25C1455.93 738.25 1639.5 984.25 1639.5 1203.25Z" fill="#CA6E91" fill-opacity="0.3"/>
<path d="M808.698 2574.5C792.858 2574.5 781.227 2563.72 781.227 2548.53C781.227 2533.33 792.858 2522.55 808.698 2522.55C817.903 2522.55 825.324 2525.91 830.176 2531.97L821.185 2540.11C818.046 2536.32 814.193 2534.26 809.412 2534.26C801.206 2534.26 795.498 2539.96 795.498 2548.53C795.498 2557.09 801.206 2562.8 809.412 2562.8C814.193 2562.8 818.046 2560.73 821.185 2556.95L830.176 2565.08C825.324 2571.15 817.903 2574.5 808.698 2574.5ZM860.618 2574.5C844.635 2574.5 832.861 2563.51 832.861 2548.53C832.861 2533.54 844.635 2522.55 860.618 2522.55C876.601 2522.55 888.374 2533.54 888.374 2548.53C888.374 2563.51 876.601 2574.5 860.618 2574.5ZM860.618 2562.8C868.181 2562.8 874.104 2557.16 874.104 2548.53C874.104 2539.89 868.181 2534.26 860.618 2534.26C853.054 2534.26 847.132 2539.89 847.132 2548.53C847.132 2557.16 853.054 2562.8 860.618 2562.8ZM953.856 2573.5H940.87L940.727 2547.03L927.883 2568.58H921.604L908.832 2547.74V2573.5H895.774V2523.55H907.405L924.958 2552.38L942.083 2523.55H953.713L953.856 2573.5ZM963.853 2573.5V2523.55H977.981V2573.5H963.853ZM1021.71 2523.55H1035.55V2573.5H1023.92L1001.87 2546.89V2573.5H988.032V2523.55H999.663L1021.71 2550.17V2523.55ZM1078.98 2561.16V2547.46H1091.47V2568.15C1085.69 2572.29 1077.77 2574.5 1070.49 2574.5C1054.58 2574.5 1042.95 2563.72 1042.95 2548.53C1042.95 2533.33 1054.58 2522.55 1070.78 2522.55C1080.13 2522.55 1087.69 2525.76 1092.61 2531.69L1083.62 2539.82C1080.2 2536.04 1076.27 2534.26 1071.49 2534.26C1062.93 2534.26 1057.22 2539.89 1057.22 2548.53C1057.22 2556.95 1062.93 2562.8 1071.35 2562.8C1073.99 2562.8 1076.49 2562.3 1078.98 2561.16ZM857.861 2661.5C849.655 2661.5 841.521 2659.29 836.811 2656L841.449 2645.59C845.873 2648.51 852.152 2650.51 857.932 2650.51C863.783 2650.51 866.066 2648.87 866.066 2646.44C866.066 2638.52 837.668 2644.3 837.668 2625.75C837.668 2616.83 844.946 2609.55 859.787 2609.55C866.28 2609.55 872.988 2611.05 877.911 2613.91L873.559 2624.39C868.778 2621.83 864.068 2620.54 859.716 2620.54C853.794 2620.54 851.653 2622.54 851.653 2625.04C851.653 2632.67 879.98 2626.96 879.98 2645.37C879.98 2654.08 872.702 2661.5 857.861 2661.5ZM911.694 2661.5C895.711 2661.5 883.938 2650.51 883.938 2635.53C883.938 2620.54 895.711 2609.55 911.694 2609.55C927.678 2609.55 939.451 2620.54 939.451 2635.53C939.451 2650.51 927.678 2661.5 911.694 2661.5ZM911.694 2649.8C919.258 2649.8 925.18 2644.16 925.18 2635.53C925.18 2626.89 919.258 2621.26 911.694 2621.26C904.131 2621.26 898.208 2626.89 898.208 2635.53C898.208 2644.16 904.131 2649.8 911.694 2649.8ZM972.038 2661.5C956.055 2661.5 944.282 2650.51 944.282 2635.53C944.282 2620.54 956.055 2609.55 972.038 2609.55C988.022 2609.55 999.795 2620.54 999.795 2635.53C999.795 2650.51 988.022 2661.5 972.038 2661.5ZM972.038 2649.8C979.602 2649.8 985.524 2644.16 985.524 2635.53C985.524 2626.89 979.602 2621.26 972.038 2621.26C964.475 2621.26 958.553 2626.89 958.553 2635.53C958.553 2644.16 964.475 2649.8 972.038 2649.8ZM1040.87 2610.55H1054.72V2660.5H1043.09L1021.04 2633.89V2660.5H1007.19V2610.55H1018.83L1040.87 2637.17V2610.55Z" fill="white"/>
</svg>
