<svg width="1912" height="1520" viewBox="0 0 1912 1520" fill="none" xmlns="http://www.w3.org/2000/svg">
    <path d="M1911.04 0H0V1519.07H1911.04V0Z" fill="#0F4041"/>
    <path d="M1826.09 747.471H1232.09V1519.47H1826.09V747.471Z" fill="#633C17"/>
    <path d="M1792.14 779.109H1265.22V962.359H1792.14V779.109Z" fill="#735641"/>
    <path d="M1792.14 988.811H1265.22V1172.06H1792.14V988.811Z" fill="#735641"/>
    <path d="M1339.02 830.449H1300.28V962.359H1339.02V830.449Z" fill="#C9375B"/>
    <path d="M1339.02 844.5H1300.28V854.75H1339.02V844.5Z" fill="#FCB13F"/>
    <path d="M1339.02 938.07H1300.28V948.32H1339.02V938.07Z" fill="#FCB13F"/>
    <path d="M1377.77 810H1339.02V962.43H1377.77V810Z" fill="#5B629C"/>
    <path d="M1416.52 820.23H1377.77V962.371H1416.52V820.23Z" fill="#AA78AB"/>
    <path d="M1369.72 950.18H1347.08V822.25H1369.72V950.18ZM1350.69 946.55H1366.12V825.87H1350.69V946.55Z" fill="#FCB13F"/>
    <path d="M1416.52 839.391H1377.77V849.641H1416.52V839.391Z" fill="#FCB13F"/>
    <path d="M1416.52 932.961H1377.77V943.211H1416.52V932.961Z" fill="#FCB13F"/>
    <path d="M1571.07 810H1532.32V962.43H1571.07V810Z" fill="#C9375B"/>
    <path d="M1563.01 950.18H1540.37V822.25H1563.01V950.18ZM1543.98 946.55H1559.41V825.87H1543.98V946.55Z" fill="#FCB13F"/>
    <path d="M1609.81 829.721H1571.07V961.631H1609.81V829.721Z" fill="#A62322"/>
    <path d="M1609.81 843.77H1571.07V854.02H1609.81V843.77Z" fill="#FCB13F"/>
    <path d="M1609.81 937.34H1571.07V947.59H1609.81V937.34Z" fill="#FCB13F"/>
    <path d="M1532.17 833.804L1506.94 822.045L1447.4 950.983L1472.62 962.742L1532.17 833.804Z" fill="#89BFAA"/>
    <path d="M1773.36 938.43H1623.57V961.94H1773.36V938.43Z" fill="#B3D689"/>
    <path d="M1783.39 914.92H1633.6V938.43H1783.39V914.92Z" fill="#5B629C"/>
    <path d="M1773.36 945.93H1623.57V954.44H1773.36V945.93Z" fill="#FFFACE"/>
    <path d="M1648.71 914.92H1644.63V938.43H1648.71V914.92Z" fill="#FCB13F"/>
    <path d="M1772.37 914.92H1768.29V938.43H1772.37V914.92Z" fill="#FCB13F"/>
    <path d="M1770.33 891.41H1620.54V914.92H1770.33V891.41Z" fill="#AA78AB"/>
    <path d="M1770.33 898.91H1620.54V907.42H1770.33V898.91Z" fill="#FFFACE"/>
    <path d="M1733.39 1171.68H1772.14V1039.77H1733.39V1171.68Z" fill="#C9375B"/>
    <path d="M1733.39 1064.06H1772.14V1053.81H1733.39V1064.06Z" fill="#FCB13F"/>
    <path d="M1733.39 1157.63H1772.14V1147.38H1733.39V1157.63Z" fill="#FCB13F"/>
    <path d="M1694.65 1171.75H1733.39V1019.32H1694.65V1171.75Z" fill="#5B629C"/>
    <path d="M1655.91 1171.68H1694.66V1029.54H1655.91V1171.68Z" fill="#AA78AB"/>
    <path d="M1702.7 1031.57H1725.34V1159.5H1702.7V1031.57ZM1721.73 1035.2H1706.3V1155.88H1721.73V1035.2Z" fill="#FCB13F"/>
    <path d="M1655.91 1058.95H1694.66V1048.7H1655.91V1058.95Z" fill="#FCB13F"/>
    <path d="M1655.91 1152.52H1694.66V1142.27H1655.91V1152.52Z" fill="#FCB13F"/>
    <path d="M1501.36 1171.75H1540.11V1019.32H1501.36V1171.75Z" fill="#C9375B"/>
    <path d="M1509.42 1031.57H1532.06V1159.5H1509.42V1031.57ZM1528.45 1035.2H1513.02V1155.88H1528.45V1035.2Z" fill="#FCB13F"/>
    <path d="M1462.6 1170.95H1501.35V1039.04H1462.6V1170.95Z" fill="#A62322"/>
    <path d="M1462.6 1063.33H1501.35V1053.08H1462.6V1063.33Z" fill="#FCB13F"/>
    <path d="M1462.6 1156.9H1501.35V1146.65H1462.6V1156.9Z" fill="#FCB13F"/>
    <path d="M1599.55 1172.18L1624.78 1160.42L1565.23 1031.48L1540.01 1043.24L1599.55 1172.18Z" fill="#89BFAA"/>
    <path d="M1299.06 1171.25H1448.85V1147.74H1299.06V1171.25Z" fill="#B3D689"/>
    <path d="M1289.03 1147.75H1438.82V1124.24H1289.03V1147.75Z" fill="#5B629C"/>
    <path d="M1299.06 1163.75H1448.85V1155.24H1299.06V1163.75Z" fill="#FFFACE"/>
    <path d="M1423.72 1147.75H1427.8V1124.24H1423.72V1147.75Z" fill="#FCB13F"/>
    <path d="M1300.06 1147.75H1304.14V1124.24H1300.06V1147.75Z" fill="#FCB13F"/>
    <path d="M1302.1 1124.25H1451.88V1100.74H1302.1V1124.25Z" fill="#AA78AB"/>
    <path d="M1302.1 1116.75H1451.88V1108.24H1302.1V1116.75Z" fill="#FFFACE"/>
    <path d="M1521.09 1198.47H1267.09V1519.47H1521.09V1198.47Z" fill="#895528"/>
    <path d="M1791.09 1198.47H1536.09V1519.47H1791.09V1198.47Z" fill="#895528"/>
    <path d="M1570.49 1334.43H1567.11C1562.67 1334.43 1559.06 1338.05 1559.06 1342.52V1413.76C1559.06 1418.23 1562.67 1421.85 1567.11 1421.85H1570.49C1574.94 1421.85 1578.54 1418.23 1578.54 1413.76V1342.52C1578.54 1338.05 1574.94 1334.43 1570.49 1334.43Z" fill="#FCB13F"/>
    <path d="M1493.41 1334.43H1490.04C1485.59 1334.43 1481.98 1338.05 1481.98 1342.52V1413.76C1481.98 1418.23 1485.59 1421.85 1490.04 1421.85H1493.41C1497.86 1421.85 1501.46 1418.23 1501.46 1413.76V1342.52C1501.46 1338.05 1497.86 1334.43 1493.41 1334.43Z" fill="#FCB13F"/>
    <path d="M1850.02 138.789H1233.89V1007.6H1850.02V138.789Z" fill="#633C17"/>
    <path d="M1815.2 171.561H1268.7V361.621H1815.2V171.561Z" fill="#735641"/>
    <path d="M1815.2 389.061H1268.7V579.121H1815.2V389.061Z" fill="#735641"/>
    <path d="M1345.24 224.811H1305.05V361.621H1345.24V224.811Z" fill="#C9375B"/>
    <path d="M1345.24 239.381H1305.05V250.011H1345.24V239.381Z" fill="#FCB13F"/>
    <path d="M1345.24 336.43H1305.05V347.06H1345.24V336.43Z" fill="#FCB13F"/>
    <path d="M1385.44 203.6H1345.24V361.689H1385.44V203.6Z" fill="#5B629C"/>
    <path d="M1425.63 214.199H1385.44V361.619H1425.63V214.199Z" fill="#AA78AB"/>
    <path d="M1377.08 348.991H1353.59V216.301H1377.08V348.991ZM1357.35 345.231H1373.34V220.071H1357.35V345.231Z" fill="#FCB13F"/>
    <path d="M1425.63 234.08H1385.44V244.71H1425.63V234.08Z" fill="#FCB13F"/>
    <path d="M1425.63 331.121H1385.44V341.751H1425.63V331.121Z" fill="#FCB13F"/>
    <path d="M1585.92 203.6H1545.72V361.689H1585.92V203.6Z" fill="#C9375B"/>
    <path d="M1577.56 348.991H1554.07V216.301H1577.56V348.991ZM1557.82 345.231H1573.81V220.071H1557.82V345.231Z" fill="#FCB13F"/>
    <path d="M1626.1 224.051H1585.91V360.861H1626.1V224.051Z" fill="#A62322"/>
    <path d="M1626.1 238.621H1585.91V249.251H1626.1V238.621Z" fill="#FCB13F"/>
    <path d="M1626.1 335.67H1585.91V346.3H1626.1V335.67Z" fill="#FCB13F"/>
    <path d="M1545.6 228.302L1519.43 216.105L1457.67 349.833L1483.84 362.03L1545.6 228.302Z" fill="#89BFAA"/>
    <path d="M1795.73 336.801H1640.37V361.181H1795.73V336.801Z" fill="#B3D689"/>
    <path d="M1806.13 312.42H1650.77V336.8H1806.13V312.42Z" fill="#5B629C"/>
    <path d="M1795.73 344.58H1640.37V353.4H1795.73V344.58Z" fill="#FFFACE"/>
    <path d="M1666.44 312.42H1662.21V336.8H1666.44V312.42Z" fill="#FCB13F"/>
    <path d="M1794.7 312.42H1790.47V336.8H1794.7V312.42Z" fill="#FCB13F"/>
    <path d="M1792.59 288.039H1637.23V312.419H1792.59V288.039Z" fill="#AA78AB"/>
    <path d="M1792.59 295.82H1637.23V304.64H1792.59V295.82Z" fill="#FFFACE"/>
    <path d="M1754.28 578.711H1794.47V441.901H1754.28V578.711Z" fill="#C9375B"/>
    <path d="M1754.28 467.1H1794.47V456.469H1754.28V467.1Z" fill="#FCB13F"/>
    <path d="M1754.28 564.15H1794.47V553.52H1754.28V564.15Z" fill="#FCB13F"/>
    <path d="M1714.09 578.789H1754.28V420.699H1714.09V578.789Z" fill="#5B629C"/>
    <path d="M1673.89 578.721H1714.08V431.301H1673.89V578.721Z" fill="#AA78AB"/>
    <path d="M1722.44 433.4H1745.93V566.09H1722.44V433.4ZM1742.17 437.16H1726.18V562.32H1742.17V437.16Z" fill="#FCB13F"/>
    <path d="M1673.89 461.801H1714.08V451.171H1673.89V461.801Z" fill="#FCB13F"/>
    <path d="M1673.89 558.85H1714.08V548.219H1673.89V558.85Z" fill="#FCB13F"/>
    <path d="M1513.62 578.789H1553.81V420.699H1513.62V578.789Z" fill="#C9375B"/>
    <path d="M1521.97 433.4H1545.46V566.09H1521.97V433.4ZM1541.7 437.16H1525.71V562.32H1541.7V437.16Z" fill="#FCB13F"/>
    <path d="M1473.42 577.961H1513.62V441.151H1473.42V577.961Z" fill="#A62322"/>
    <path d="M1473.42 466.34H1513.62V455.71H1473.42V466.34Z" fill="#FCB13F"/>
    <path d="M1473.42 563.391H1513.62V552.76H1473.42V563.391Z" fill="#FCB13F"/>
    <path d="M1615.48 579.222L1641.65 567.025L1579.89 433.298L1553.73 445.495L1615.48 579.222Z" fill="#89BFAA"/>
    <path d="M1303.8 578.27H1459.16V553.89H1303.8V578.27Z" fill="#B3D689"/>
    <path d="M1293.39 553.891H1448.75V529.51H1293.39V553.891Z" fill="#5B629C"/>
    <path d="M1303.8 570.5H1459.16V561.68H1303.8V570.5Z" fill="#FFFACE"/>
    <path d="M1433.09 553.891H1437.32V529.51H1433.09V553.891Z" fill="#FCB13F"/>
    <path d="M1304.82 553.891H1309.05V529.51H1304.82V553.891Z" fill="#FCB13F"/>
    <path d="M1306.93 529.52H1462.3V505.14H1306.93V529.52Z" fill="#AA78AB"/>
    <path d="M1306.93 521.74H1462.3V512.92H1306.93V521.74Z" fill="#FFFACE"/>
    <path d="M1533.82 606.551H1270.31V979.161H1533.82V606.551Z" fill="#895528"/>
    <path d="M1813.6 606.551H1550.08V979.161H1813.6V606.551Z" fill="#895528"/>
    <path d="M1585.62 747.52H1581.52C1577.07 747.52 1573.46 751.142 1573.46 755.61V830.1C1573.46 834.568 1577.07 838.189 1581.52 838.189H1585.62C1590.07 838.189 1593.67 834.568 1593.67 830.1V755.61C1593.67 751.142 1590.07 747.52 1585.62 747.52Z" fill="#FCB13F"/>
    <path d="M1505.67 747.52H1501.57C1497.12 747.52 1493.52 751.142 1493.52 755.61V830.1C1493.52 834.568 1497.12 838.189 1501.57 838.189H1505.67C1510.12 838.189 1513.72 834.568 1513.72 830.1V755.61C1513.72 751.142 1510.12 747.52 1505.67 747.52Z" fill="#FCB13F"/>
    <path d="M679 580H63V1519H679V580Z" fill="#633C17"/>
    <path d="M644.001 612.439H97.5029V802.5H644.001V612.439Z" fill="#735641"/>
    <path d="M644.001 829.93H97.5029V1019.99H644.001V829.93Z" fill="#735641"/>
    <path d="M174.054 665.68H133.862V802.49H174.054V665.68Z" fill="#C9375B"/>
    <path d="M174.054 680.25H133.862V690.88H174.054V680.25Z" fill="#FCB13F"/>
    <path d="M174.054 777.301H133.862V787.931H174.054V777.301Z" fill="#FCB13F"/>
    <path d="M214.236 644.471H174.044V802.561H214.236V644.471Z" fill="#5B629C"/>
    <path d="M254.427 655.08H214.235V802.5H254.427V655.08Z" fill="#AA78AB"/>
    <path d="M205.884 789.86H182.395V657.17H205.884V789.86ZM186.147 786.1H202.142V660.94H186.147V786.1Z" fill="#FCB13F"/>
    <path d="M254.427 674.949H214.235V685.579H254.427V674.949Z" fill="#FCB13F"/>
    <path d="M254.427 772H214.235V782.63H254.427V772Z" fill="#FCB13F"/>
    <path d="M414.716 644.471H374.524V802.561H414.716V644.471Z" fill="#C9375B"/>
    <path d="M406.365 789.86H382.875V657.17H406.365V789.86ZM386.627 786.1H402.622V660.94H386.627V786.1Z" fill="#FCB13F"/>
    <path d="M454.907 664.93H414.716V801.74H454.907V664.93Z" fill="#A62322"/>
    <path d="M454.907 679.5H414.716V690.13H454.907V679.5Z" fill="#FCB13F"/>
    <path d="M454.907 776.539H414.716V787.169H454.907V776.539Z" fill="#FCB13F"/>
    <path d="M374.398 669.121L348.232 656.924L286.476 790.651L312.642 802.848L374.398 669.121Z" fill="#89BFAA"/>
    <path d="M624.533 777.67H469.171V802.05H624.533V777.67Z" fill="#B3D689"/>
    <path d="M634.944 753.289H479.582V777.669H634.944V753.289Z" fill="#5B629C"/>
    <path d="M624.533 785.449H469.171V794.269H624.533V785.449Z" fill="#FFFACE"/>
    <path d="M495.239 753.289H491.009V777.669H495.239V753.289Z" fill="#FCB13F"/>
    <path d="M623.498 753.289H619.268V777.669H623.498V753.289Z" fill="#FCB13F"/>
    <path d="M621.387 728.91H466.025V753.29H621.387V728.91Z" fill="#AA78AB"/>
    <path d="M621.387 736.689H466.025V745.51H621.387V736.689Z" fill="#FFFACE"/>
    <path d="M583.087 1019.59H623.278V882.78H583.087V1019.59Z" fill="#C9375B"/>
    <path d="M583.087 907.971H623.278V897.341H583.087V907.971Z" fill="#FCB13F"/>
    <path d="M583.087 1005.02H623.278V994.39H583.087V1005.02Z" fill="#FCB13F"/>
    <path d="M542.886 1019.66H583.077V861.57H542.886V1019.66Z" fill="#5B629C"/>
    <path d="M502.704 1019.6H542.896V872.18H502.704V1019.6Z" fill="#AA78AB"/>
    <path d="M551.246 874.27H574.736V1006.96H551.246V874.27ZM570.984 878.03H554.989V1003.19H570.984V878.03Z" fill="#FCB13F"/>
    <path d="M502.704 902.67H542.896V892.04H502.704V902.67Z" fill="#FCB13F"/>
    <path d="M502.704 999.73H542.896V989.101H502.704V999.73Z" fill="#FCB13F"/>
    <path d="M342.415 1019.66H382.606V861.57H342.415V1019.66Z" fill="#C9375B"/>
    <path d="M350.766 874.27H374.256V1006.96H350.766V874.27ZM370.503 878.03H354.508V1003.19H370.503V878.03Z" fill="#FCB13F"/>
    <path d="M302.223 1018.84H342.415V882.03H302.223V1018.84Z" fill="#A62322"/>
    <path d="M302.223 907.221H342.415V896.591H302.223V907.221Z" fill="#FCB13F"/>
    <path d="M302.223 1004.27H342.415V993.64H302.223V1004.27Z" fill="#FCB13F"/>
    <path d="M444.243 1020.06L470.408 1007.86L408.652 874.136L382.486 886.333L444.243 1020.06Z" fill="#89BFAA"/>
    <path d="M132.598 1019.15H287.96V994.77H132.598V1019.15Z" fill="#B3D689"/>
    <path d="M122.187 994.77H277.549V970.39H122.187V994.77Z" fill="#5B629C"/>
    <path d="M132.598 1011.37H287.96V1002.55H132.598V1011.37Z" fill="#FFFACE"/>
    <path d="M261.882 994.77H266.112V970.39H261.882V994.77Z" fill="#FCB13F"/>
    <path d="M133.633 994.77H137.863V970.39H133.633V994.77Z" fill="#FCB13F"/>
    <path d="M135.744 970.391H291.105V946.01H135.744V970.391Z" fill="#AA78AB"/>
    <path d="M135.744 962.609H291.105V953.789H135.744V962.609Z" fill="#FFFACE"/>
    <path d="M362.63 1047.42H99.1152V1420.03H362.63V1047.42Z" fill="#895528"/>
    <path d="M642.399 1047.42H378.884V1420.03H642.399V1047.42Z" fill="#895528"/>
    <path d="M414.418 1188.39H410.317C405.87 1188.39 402.265 1192.01 402.265 1196.48V1270.97C402.265 1275.44 405.87 1279.06 410.317 1279.06H414.418C418.865 1279.06 422.47 1275.44 422.47 1270.97V1196.48C422.47 1192.01 418.865 1188.39 414.418 1188.39Z" fill="#FCB13F"/>
    <path d="M334.472 1188.39H330.372C325.924 1188.39 322.319 1192.01 322.319 1196.48V1270.97C322.319 1275.44 325.924 1279.06 330.372 1279.06H334.472C338.92 1279.06 342.525 1275.44 342.525 1270.97V1196.48C342.525 1192.01 338.92 1188.39 334.472 1188.39Z" fill="#FCB13F"/>
    <path d="M1911.09 0.46875V468.469C1747.61 468.469 1615.09 363.705 1615.09 234.469C1615.09 105.233 1747.61 0.46875 1911.09 0.46875Z" fill="#A62322"/>
    <path d="M1863.13 41.3711L1885.48 55.4111C1854.2 105.701 1844.28 165.181 1857.53 222.881C1866.05 259.941 1883.49 293.441 1908.15 321.001V358.311C1870.11 324.381 1843.51 279.591 1831.85 228.841C1817.01 164.241 1828.12 97.6711 1863.14 41.3711H1863.13Z" fill="#B52D25"/>
    <path d="M1864.78 429.48L1877.97 408.28C1830.72 378.61 1797.8 332.28 1785.29 277.82C1772.78 223.36 1782.15 167.22 1811.68 119.74L1790.58 106.49C1757.53 159.63 1747.04 222.47 1761.06 283.44C1775.07 344.41 1811.91 396.28 1864.8 429.48H1864.78Z" fill="#B52D25"/>
    <path d="M1779.24 429.48L1792.43 408.28C1745.18 378.61 1712.26 332.28 1699.75 277.82C1687.24 223.36 1696.61 167.22 1726.14 119.74L1705.04 106.49C1671.99 159.63 1661.5 222.47 1675.52 283.44C1689.53 344.41 1726.37 396.28 1779.26 429.48H1779.24Z" fill="#B52D25"/>
    <path d="M0.0898438 0.470703V470.471C163.568 470.471 296.09 365.259 296.09 235.471C296.09 105.682 163.568 0.470703 0.0898438 0.470703Z" fill="#A62322"/>
    <path d="M45.1283 41.3711L22.7731 55.4111C54.0565 105.701 63.98 165.181 50.7221 222.881C42.2021 259.941 24.7638 293.441 0.109375 321.001V358.311C38.1411 324.381 64.7464 279.591 76.4018 228.841C91.2422 164.241 80.1343 97.6711 45.1184 41.3711H45.1283Z" fill="#B52D25"/>
    <path d="M43.4763 429.48L30.2881 408.28C77.5366 378.61 110.452 332.28 122.964 277.82C135.475 223.36 126.109 167.22 96.5774 119.74L117.678 106.49C150.724 159.63 161.214 222.47 147.2 283.44C133.186 344.41 96.3484 396.28 43.4564 429.48H43.4763Z" fill="#B52D25"/>
    <path d="M129.015 429.48L115.827 408.28C163.076 378.61 195.991 332.28 208.503 277.82C221.014 223.36 211.648 167.22 182.116 119.74L203.218 106.49C236.263 159.63 246.753 222.47 232.739 283.44C218.725 344.41 181.887 396.28 128.995 429.48H129.015Z" fill="#B52D25"/>
    <path d="M1728.29 1157.9H1910.24V406.52H1728.29V1157.9Z" fill="#A62322"/>
    <path d="M1733.44 194.6H178.404C103.376 194.6 34.7177 119.37 0.806641 0.00976562H1911.04C1877.12 119.38 1808.46 194.6 1733.44 194.6Z" fill="#DE8E44"/>
    <path d="M384.986 105.791C356.519 105.791 333.726 92.9006 332.771 92.3506L325.206 88.0105L332.771 83.6707C333.726 83.1207 356.519 70.2305 384.986 70.2305C413.452 70.2305 436.246 83.1207 437.201 83.6707L444.766 88.0105L437.201 92.3506C436.246 92.9006 413.452 105.791 384.986 105.791Z" fill="#C9375B"/>
    <path d="M384.986 75.2207C412.457 75.2207 434.732 88.0007 434.732 88.0007C434.732 88.0007 412.457 100.781 384.986 100.781C357.514 100.781 335.239 88.0007 335.239 88.0007C335.239 88.0007 357.514 75.2207 384.986 75.2207ZM384.986 65.2207C355.215 65.2207 331.307 78.7408 330.302 79.3208L315.173 88.0007L330.302 96.6807C331.307 97.2607 355.205 110.781 384.986 110.781C414.766 110.781 438.664 97.2507 439.669 96.6807L454.798 88.0007L439.669 79.3208C438.664 78.7408 414.766 65.2207 384.986 65.2207Z" fill="#FCB13F"/>
    <path d="M552.898 105.791C524.431 105.791 501.638 92.9006 500.683 92.3506L493.118 88.0105L500.683 83.6707C501.638 83.1207 524.431 70.2305 552.898 70.2305C581.365 70.2305 604.158 83.1207 605.113 83.6707L612.678 88.0105L605.113 92.3506C604.158 92.9006 581.365 105.791 552.898 105.791Z" fill="#C9375B"/>
    <path d="M552.899 75.2207C580.37 75.2207 602.645 88.0007 602.645 88.0007C602.645 88.0007 580.37 100.781 552.899 100.781C525.427 100.781 503.152 88.0007 503.152 88.0007C503.152 88.0007 525.427 75.2207 552.899 75.2207ZM552.899 65.2207C523.128 65.2207 499.22 78.7408 498.215 79.3208L483.086 88.0007L498.215 96.6807C499.22 97.2607 523.118 110.781 552.899 110.781C582.679 110.781 606.577 97.2507 607.582 96.6807L622.711 88.0007L607.582 79.3208C606.577 78.7408 582.679 65.2207 552.899 65.2207Z" fill="#FCB13F"/>
    <path d="M468.97 62.9301L444.048 87.9688L468.97 113.007L493.891 87.9687L468.97 62.9301Z" fill="#C9375B"/>
    <path d="M468.942 70.0403L486.828 88.0103L468.942 105.98L451.055 88.0103L468.942 70.0403ZM468.942 55.9004L461.905 62.9702L444.018 80.9402L436.981 88.0103L444.018 95.0803L461.905 113.05L468.942 120.12L475.979 113.05L493.865 95.0803L500.902 88.0103L493.865 80.9402L475.979 62.9702L468.942 55.9004Z" fill="#FCB13F"/>
    <path d="M1358.95 105.791C1330.48 105.791 1307.69 92.9006 1306.73 92.3506L1299.17 88.0105L1306.73 83.6707C1307.69 83.1207 1330.48 70.2305 1358.95 70.2305C1387.42 70.2305 1410.21 83.1207 1411.16 83.6707L1418.73 88.0105L1411.16 92.3506C1410.21 92.9006 1387.42 105.791 1358.95 105.791Z" fill="#C9375B"/>
    <path d="M1358.95 75.2207C1386.42 75.2207 1408.7 88.0007 1408.7 88.0007C1408.7 88.0007 1386.42 100.781 1358.95 100.781C1331.48 100.781 1309.2 88.0007 1309.2 88.0007C1309.2 88.0007 1331.48 75.2207 1358.95 75.2207ZM1358.95 65.2207C1329.18 65.2207 1305.27 78.7408 1304.27 79.3208L1289.14 88.0007L1304.27 96.6807C1305.27 97.2607 1329.17 110.781 1358.95 110.781C1388.73 110.781 1412.63 97.2507 1413.63 96.6807L1428.76 88.0007L1413.63 79.3208C1412.63 78.7408 1388.73 65.2207 1358.95 65.2207Z" fill="#FCB13F"/>
    <path d="M1526.86 105.791C1498.4 105.791 1475.6 92.9006 1474.65 92.3506L1467.08 88.0105L1474.65 83.6707C1475.6 83.1207 1498.4 70.2305 1526.86 70.2305C1555.33 70.2305 1578.12 83.1207 1579.08 83.6707L1586.64 88.0105L1579.08 92.3506C1578.12 92.9006 1555.33 105.791 1526.86 105.791Z" fill="#C9375B"/>
    <path d="M1526.86 75.2207C1554.33 75.2207 1576.61 88.0007 1576.61 88.0007C1576.61 88.0007 1554.33 100.781 1526.86 100.781C1499.39 100.781 1477.12 88.0007 1477.12 88.0007C1477.12 88.0007 1499.39 75.2207 1526.86 75.2207ZM1526.86 65.2207C1497.09 65.2207 1473.18 78.7408 1472.18 79.3208L1457.05 88.0007L1472.18 96.6807C1473.18 97.2607 1497.08 110.781 1526.86 110.781C1556.64 110.781 1580.54 97.2507 1581.55 96.6807L1596.68 88.0007L1581.55 79.3208C1580.54 78.7408 1556.64 65.2207 1526.86 65.2207Z" fill="#FCB13F"/>
    <path d="M1442.9 62.9516L1417.98 87.9902L1442.9 113.029L1467.82 87.9901L1442.9 62.9516Z" fill="#C9375B"/>
    <path d="M1442.91 70.0403L1460.79 88.0103L1442.91 105.98L1425.02 88.0103L1442.91 70.0403ZM1442.91 55.9004L1435.87 62.9702L1417.98 80.9402L1410.95 88.0103L1417.98 95.0803L1435.87 113.05L1442.91 120.12L1449.94 113.05L1467.83 95.0803L1474.87 88.0103L1467.83 80.9402L1449.94 62.9702L1442.91 55.9004Z" fill="#FCB13F"/>
    <path d="M1700.67 31.6422L1644.59 87.9844L1700.67 144.327L1756.75 87.9844L1700.67 31.6422Z" fill="#C9375B"/>
    <path d="M1700.68 38.7297L1749.72 87.9998L1700.68 137.27L1651.64 87.9998L1700.68 38.7297ZM1700.68 24.5898L1693.64 31.6599L1644.6 80.9297L1637.56 87.9998L1644.6 95.0698L1693.64 144.34L1700.68 151.41L1707.72 144.34L1756.76 95.0698L1763.79 87.9998L1756.76 80.9297L1707.72 31.6599L1700.68 24.5898Z" fill="#FCB13F"/>
    <path d="M211.164 31.9019L155.085 88.2441L211.164 144.586L267.244 88.2441L211.164 31.9019Z" fill="#C9375B"/>
    <path d="M211.181 38.97L260.221 88.24L211.181 137.51L162.14 88.24L211.181 38.97ZM211.181 24.8301L204.144 31.9001L155.103 81.1702L148.066 88.24L155.103 95.3101L204.144 144.58L211.181 151.65L218.218 144.58L267.258 95.3101L274.295 88.24L267.258 81.1702L218.218 31.9001L211.181 24.8301Z" fill="#FCB13F"/>
    <path d="M182.754 1157.9H0.806641V406.529H182.754V782.209V1157.9Z" fill="#A62322"/>
    <path d="M1911.27 406.529H1724.69V452.429H1911.27V406.529Z" fill="#61170C"/>
    <path d="M146.653 455.439H115.827V1157.9H146.653V455.439Z" fill="#B52D25"/>
    <path d="M67.723 455.439H36.8975V1157.9H67.723V455.439Z" fill="#B52D25"/>
    <path d="M1874.14 452.5H1843.31V1157.9H1874.14V452.5Z" fill="#B52D25"/>
    <path d="M1795.22 452.5H1764.39V1157.9H1795.22V452.5Z" fill="#B52D25"/>
    <path d="M186.695 406.529H0.109375V452.429H186.695V406.529Z" fill="#61170C"/>
    <path opacity="0.4" d="M274.224 979.781C286.087 979.781 295.704 970.119 295.704 958.201C295.704 946.283 286.087 936.621 274.224 936.621C262.362 936.621 252.745 946.283 252.745 958.201C252.745 970.119 262.362 979.781 274.224 979.781Z" fill="white"/>
    </svg>
    