<svg width="1912" height="873" viewBox="0 0 1912 873" fill="none" xmlns="http://www.w3.org/2000/svg">
    <g filter="url(#filter0_d_522_3220)">
    <path fill-rule="evenodd" clip-rule="evenodd" d="M2020.22 201.53C2020.22 93.4495 1933.01 5.82959 1825.43 5.82959C1762.7 5.82959 1706.9 35.6294 1671.28 81.9094C1667.41 73.8894 1661.78 66.6694 1654.56 60.8894C1659.75 58.1894 1664.21 53.9695 1667.21 48.4395C1675.26 33.6495 1669.85 15.1095 1655.13 7.02954C1640.41 -1.05046 1621.96 4.37943 1613.91 19.1694C1608.93 28.3294 1609.12 38.9296 1613.48 47.5996C1593.14 48.6796 1573.81 59.9995 1563.32 79.2795C1547.24 108.86 1558.06 145.94 1587.5 162.1C1602.19 170.17 1618.75 171.499 1633.64 167.129C1631.67 178.299 1630.64 189.8 1630.64 201.54C1630.64 231.79 1637.47 260.43 1649.67 286C1634.43 289.78 1619.72 294.91 1605.67 301.28C1602.37 275.27 1587.15 251.15 1562.5 237.62C1549.64 230.56 1535.76 227.219 1522.07 227.24C1522.15 217.639 1517.12 208.309 1508.14 203.379C1495.17 196.259 1478.91 201.05 1471.82 214.08C1466.72 223.45 1467.76 234.539 1473.56 242.669C1463.32 249.899 1454.52 259.53 1448.11 271.32C1435.73 294.08 1434.85 320.039 1443.47 342.469C1413.05 345.189 1385.95 359.55 1366.63 381.08C1363.26 378.15 1359.55 375.53 1355.48 373.3C1325.03 356.58 1286.98 367.439 1269.73 397.479C1241.71 377.319 1207.38 365.459 1170.29 365.459C1139.49 365.459 1110.59 373.649 1085.64 387.969C1038.99 321.709 962.13 278.449 875.207 278.449C817.587 278.449 764.387 297.47 721.478 329.59C720.502 317.94 713.913 306.989 702.935 300.959C685.556 291.419 663.768 297.84 654.263 315.3C644.767 332.76 651.157 354.649 668.536 364.199C672.268 366.249 676.21 367.559 680.191 368.189C670.347 379.639 661.479 391.97 653.735 405.05C619.675 375.73 575.432 358.01 527.059 358.01C504.266 358.01 482.398 361.959 462.064 369.179C463.626 344.649 451.274 320.259 428.392 307.699C396.909 290.409 357.434 302.039 340.225 333.669C339.1 335.739 338.105 337.839 337.219 339.969C304.95 317.789 267.406 302.8 226.856 297.29C230.002 283.33 231.674 268.799 231.674 253.889C231.674 222.269 224.199 192.409 210.941 165.969C235.197 157.959 252.715 135.04 252.715 107.99C252.715 77.8995 231.027 52.9094 202.51 47.8894C205.765 43.0294 207.676 37.1696 207.676 30.8696C207.676 14.0196 194.08 0.349609 177.299 0.349609C160.517 0.349609 146.921 14.0096 146.921 30.8696C146.921 41.3096 152.146 50.5195 160.109 56.0295C149.141 62.8295 140.501 73.0394 135.624 85.1794C106.67 68.0394 72.9178 58.1895 36.8768 58.1895C-70.699 58.1895 -157.91 145.809 -157.91 253.889C-157.91 335.709 -107.924 405.79 -36.977 435.02C-55.2713 470.57 -65.6128 510.929 -65.6128 553.709C-65.6128 696.639 49.7166 812.5 191.97 812.5C278.594 812.5 355.224 769.54 401.916 703.68C435.767 732.22 479.403 749.41 527.049 749.41C582.012 749.41 631.649 726.53 667.073 689.74C713.923 754.17 789.688 796.04 875.187 796.04C960.686 796.04 1038.97 752.78 1085.62 686.52C1110.58 700.84 1139.48 709.029 1170.27 709.029C1188.44 709.029 1205.95 706.169 1222.37 700.899C1242.42 794.359 1325.15 864.41 1424.16 864.41C1496.94 864.41 1560.92 826.569 1597.68 769.399C1632.03 786.449 1670.7 796.04 1711.6 796.04C1853.86 796.04 1969.18 680.169 1969.18 537.25C1969.18 476.39 1948.26 420.44 1913.26 376.25C1976.69 343.98 2020.19 277.87 2020.19 201.55L2020.22 201.53Z" fill="white"/>
    </g>
    <defs>
    <filter id="filter0_d_522_3220" x="-161.91" y="0.349609" width="2186.13" height="872.061" filterUnits="userSpaceOnUse" color-interpolation-filters="sRGB">
    <feFlood flood-opacity="0" result="BackgroundImageFix"/>
    <feColorMatrix in="SourceAlpha" type="matrix" values="0 0 0 0 0 0 0 0 0 0 0 0 0 0 0 0 0 0 127 0" result="hardAlpha"/>
    <feOffset dy="4"/>
    <feGaussianBlur stdDeviation="2"/>
    <feComposite in2="hardAlpha" operator="out"/>
    <feColorMatrix type="matrix" values="0 0 0 0 0 0 0 0 0 0 0 0 0 0 0 0 0 0 0.25 0"/>
    <feBlend mode="normal" in2="BackgroundImageFix" result="effect1_dropShadow_522_3220"/>
    <feBlend mode="normal" in="SourceGraphic" in2="effect1_dropShadow_522_3220" result="shape"/>
    </filter>
    </defs>
    </svg>
    