<svg width="1207" height="2101" viewBox="0 0 1207 2101" fill="none" xmlns="http://www.w3.org/2000/svg">
<path d="M153.02 1005.15C149.778 953.363 212.259 925 249.132 961.549L486.01 1196.08C514.131 1223.87 505.622 1271.28 469.64 1287.65L253.346 1385.87C217.365 1402.24 176.116 1377.44 173.604 1337.98L153.02 1005.15Z" fill="#C9345A"/>
<path d="M117.363 1134.41C65.9026 1161.08 17.117 1094.62 57.9608 1053.46L160.556 950.05C183.41 927.035 220.931 927.926 242.649 952.076L265.908 978.009C290.625 1005.48 282.683 1048.92 249.862 1065.94L117.363 1134.41Z" fill="#C9345A"/>
<path d="M161.529 1116.27C160.962 1116.51 160.395 1116.68 159.746 1116.76C156.667 1117.08 153.83 1114.81 153.506 1111.73C153.263 1109.62 153.101 1107.19 152.939 1104.36C152.372 1097.14 151.723 1088.23 150.103 1080.53C147.834 1070.16 144.997 1067.81 143.863 1067.24C142.08 1066.35 139.162 1067.81 137.136 1069.19C134.543 1070.89 131.058 1070.24 129.276 1067.65C127.574 1065.05 128.222 1061.57 130.815 1059.79C135.353 1056.79 142.161 1053.87 148.806 1057.03C160.233 1062.62 162.583 1082.15 164.122 1103.38C164.284 1106.14 164.528 1108.49 164.69 1110.35C165.095 1113.03 163.717 1115.3 161.529 1116.27Z" fill="#B1294C"/>
<path d="M395.57 1145.43C395.246 1145.6 394.841 1145.68 394.517 1145.76C332.846 1159.94 252.455 1197.54 208.126 1225.74C205.533 1227.44 201.967 1226.63 200.346 1224.04C198.645 1221.45 199.455 1217.88 202.048 1216.26C224.739 1201.76 256.02 1185.39 287.95 1171.12C314.369 1159.37 353.835 1143.49 391.923 1134.74C395.003 1134.01 398.001 1135.95 398.65 1138.95C399.379 1141.71 398.001 1144.3 395.57 1145.43Z" fill="#F1698B"/>
<path d="M62.094 1059.13C60.1491 1060.02 57.7179 1059.69 56.0161 1058.15C53.6659 1056.05 53.5038 1052.48 55.6109 1050.21C60.4732 1044.78 65.9028 1038.54 71.5756 1031.98C93.2131 1007.02 120.199 975.899 147.428 954.991C162.745 943.24 176.359 935.947 189.164 932.786C204.48 928.977 218.176 931.246 230.007 939.593C232.52 941.376 233.168 944.942 231.385 947.454C229.602 949.967 226.037 950.615 223.524 948.832C183.329 920.468 121.253 992.107 80.2468 1039.43C74.493 1046.08 69.1444 1052.32 64.12 1057.83C63.4717 1058.32 62.8234 1058.8 62.094 1059.13Z" fill="#F1698B"/>
<path d="M264.854 1079.63C277.968 1079.63 288.599 1069 288.599 1055.88C288.599 1042.77 277.968 1032.14 264.854 1032.14C251.741 1032.14 241.11 1042.77 241.11 1055.88C241.11 1069 251.741 1079.63 264.854 1079.63Z" fill="#FFDDDD"/>
<path d="M171.269 1021.32C177.147 1016.93 178.351 1008.6 173.956 1002.72C169.562 996.84 161.233 995.637 155.355 1000.03C149.476 1004.43 148.273 1012.75 152.667 1018.63C157.062 1024.51 165.39 1025.71 171.269 1021.32Z" fill="#FFDDDD"/>
<path d="M115.182 1125.14C115.889 1117.88 108.264 1111.19 98.152 1110.21C88.04 1109.23 79.2698 1114.31 78.563 1121.58C77.8562 1128.84 85.4804 1135.52 95.5924 1136.5C105.704 1137.49 114.475 1132.4 115.182 1125.14Z" fill="#FFDDDD"/>
<path d="M583.744 1158.73C579.449 1171.94 567.86 1182.15 553.111 1183.93C532.932 1186.36 514.536 1172.02 512.105 1151.76C510.971 1142.44 513.483 1133.44 518.426 1126.31C449.624 1103.05 365.991 1100.62 300.674 1108.56C246.945 1115.13 170.849 1137.09 108.691 1174.04C112.824 1178.66 115.661 1184.58 116.471 1191.22C118.578 1208.48 106.26 1224.13 88.9989 1226.23C76.1137 1227.77 64.1198 1221.37 58.0419 1210.83C19.4672 1245.68 -4.76356 1289.12 1.47647 1340.82C14.4428 1447.39 162.583 1460.44 340.707 1438.8C518.912 1417.16 659.597 1369.1 646.63 1262.46C641.12 1216.75 617.537 1183.04 583.744 1158.73Z" fill="#C9345A"/>
<path d="M88.999 1226.15C106.26 1224.04 118.497 1208.4 116.471 1191.14C115.661 1184.5 112.825 1178.58 108.692 1173.96C90.2956 1184.9 73.0343 1197.14 58.042 1210.75C64.201 1221.29 76.1948 1227.77 88.999 1226.15Z" fill="#FFDDDD"/>
<path d="M553.11 1183.93C567.778 1182.15 579.367 1171.94 583.743 1158.73C564.699 1145.03 542.494 1134.42 518.425 1126.31C513.401 1133.44 510.97 1142.44 512.104 1151.76C514.536 1172.02 532.932 1186.36 553.11 1183.93Z" fill="#FFDDDD"/>
<path d="M501.651 1538.72C483.661 1522.67 465.832 1495.61 456.269 1479.24L256.832 1462.22C237.706 1472.75 208.127 1497.8 214.286 1514.57C219.229 1528.18 206.587 1556.22 193.945 1575.92C189.893 1582.16 192.405 1590.26 199.861 1590.75C233.897 1592.94 301.565 1580.46 320.366 1578.19C342.49 1575.51 336.979 1560.28 372.232 1571.87C394.436 1579.24 456.755 1561.01 498.896 1551.36C504.163 1550.31 505.622 1542.29 501.651 1538.72Z" fill="#5B619B"/>
<path d="M583.501 1261.81C593.712 1346.09 481.148 1392.77 337.304 1410.2C193.54 1427.62 72.9535 1409.3 62.7425 1325.02C52.5316 1240.74 164.123 1185.39 307.886 1167.97C451.65 1150.47 573.209 1177.45 583.501 1261.81Z" fill="#E28EAE"/>
<path d="M194.917 1373.97C185.84 1299.09 239.164 1230.93 314.125 1221.86C389.087 1212.78 457.16 1266.11 466.236 1341.07L473.449 1400.47L202.129 1433.37L194.917 1373.97Z" fill="#FFD9E7"/>
<path d="M478.15 1461.57C468.911 1462.7 459.511 1462.38 449.948 1460.68C433.011 1457.6 420.207 1450.87 414.129 1447.63C413.561 1447.31 413.075 1447.06 412.67 1446.82L420.45 1431.75C420.936 1431.99 421.503 1432.31 422.071 1432.64C465.751 1455.73 494.195 1440.9 503.515 1435.96L511.376 1450.95C500.598 1456.63 489.495 1460.11 478.15 1461.57Z" fill="#FFD9E7"/>
<path d="M194.512 1455.33L183.167 1467.89C194.026 1477.7 208.37 1483.29 224.659 1484.02C241.353 1484.75 254.238 1480.29 257.804 1478.91L251.726 1463.11C245.972 1465.3 236.086 1467.57 225.47 1467.08C212.908 1466.52 202.535 1462.63 194.512 1455.33Z" fill="#E28EAE"/>
<path d="M255.372 1434.42C256.669 1406.95 277.658 1384.34 304.968 1381.02L357.239 1374.69C384.549 1371.37 410.319 1388.23 418.18 1414.65L431.066 1458C441.033 1491.55 418.423 1525.91 383.739 1530.13L316.395 1538.31C281.71 1542.53 251.482 1514.49 253.184 1479.56L255.372 1434.42Z" fill="#FFD9E7"/>
<path d="M463.725 1491.15C470.046 1502.17 328.714 1484.91 253.185 1469.6C247.188 1468.38 247.512 1460.44 253.59 1459.47L435.929 1431.1C442.088 1446.34 455.783 1477.38 463.725 1491.15Z" fill="#9096D1"/>
<path d="M163.474 1386.61C157.963 1340.98 190.46 1299.41 236.085 1293.9L407.645 1273.07C453.27 1267.56 494.843 1300.06 500.354 1345.68C505.865 1391.31 473.368 1432.88 427.743 1438.39L338.762 1449.17L256.183 1459.22C210.558 1464.73 169.066 1432.23 163.474 1386.61Z" fill="#FFD9E7"/>
<path d="M223.536 1371.58C226.884 1346.87 217.123 1325.16 201.733 1323.07C186.344 1320.98 171.155 1339.32 167.807 1364.02C164.459 1388.72 174.22 1410.44 189.609 1412.53C204.998 1414.61 220.188 1396.28 223.536 1371.58Z" fill="#F1698B"/>
<path d="M480.413 1377.19C494.857 1371.49 499.139 1348.07 489.977 1324.88C480.815 1301.7 461.68 1287.53 447.236 1293.24C432.793 1298.94 428.511 1322.37 437.673 1345.55C446.834 1368.73 465.97 1382.9 480.413 1377.19Z" fill="#F1698B"/>
<path d="M304.969 1253.95C306.427 1259.22 298.891 1262.05 296.541 1257.11L291.516 1246.66C290.301 1244.22 291.597 1241.31 294.109 1240.42L296.054 1239.77C298.486 1238.96 301.16 1240.33 301.889 1242.85L304.969 1253.95Z" fill="#E28EAE"/>
<path d="M330.415 1250.79C330.253 1256.3 338.195 1257.19 339.329 1251.84L341.679 1240.5C342.247 1237.82 340.302 1235.31 337.628 1235.07L335.521 1234.91C332.927 1234.66 330.658 1236.69 330.658 1239.28L330.415 1250.79Z" fill="#E28EAE"/>
<path d="M180.25 1481.75C194.124 1481.75 205.372 1470.5 205.372 1456.63C205.372 1442.76 194.124 1431.51 180.25 1431.51C166.375 1431.51 155.127 1442.76 155.127 1456.63C155.127 1470.5 166.375 1481.75 180.25 1481.75Z" fill="#E28EAE"/>
<path d="M507.729 1478.51C524.244 1478.51 537.632 1465.12 537.632 1448.61C537.632 1432.09 524.244 1418.7 507.729 1418.7C491.213 1418.7 477.825 1432.09 477.825 1448.61C477.825 1465.12 491.213 1478.51 507.729 1478.51Z" fill="#FFD9E7"/>
<g opacity="0.5">
<path fill-rule="evenodd" clip-rule="evenodd" d="M514.212 1312.22C511.132 1311.81 508.296 1314 507.891 1317.08C507.485 1320.16 509.674 1322.99 512.753 1323.4L506.918 1367.97C484.389 1371.46 465.993 1389.37 462.833 1413.03C459.105 1441.8 480.337 1460.36 509.106 1464.08C537.875 1467.81 563.241 1455.41 566.968 1426.64C570.048 1402.98 556.838 1380.86 536.011 1371.7L541.846 1327.13L542.413 1327.21C545.493 1327.61 548.329 1325.43 548.734 1322.35C549.14 1319.27 546.952 1316.43 543.872 1316.03L514.212 1312.22Z" fill="#B7D6D6"/>
</g>
<g opacity="0.8">
<path d="M557.891 1422.34C554.893 1445.04 534.876 1454.84 512.185 1451.84C489.494 1448.84 472.638 1434.26 475.636 1411.57C478.635 1388.87 499.057 1414.89 525.638 1399.17C538.604 1393.33 560.89 1399.65 557.891 1422.34Z" fill="#A977AB"/>
</g>
<path d="M531.151 1411C537.238 1411 542.172 1406.07 542.172 1399.98C542.172 1393.9 537.238 1388.96 531.151 1388.96C525.064 1388.96 520.129 1393.9 520.129 1399.98C520.129 1406.07 525.064 1411 531.151 1411Z" fill="#CDABD9"/>
<path d="M498.248 1430.94C501.828 1430.94 504.731 1428.03 504.731 1424.45C504.731 1420.87 501.828 1417.97 498.248 1417.97C494.667 1417.97 491.765 1420.87 491.765 1424.45C491.765 1428.03 494.667 1430.94 498.248 1430.94Z" fill="#CDABD9"/>
<path d="M483.579 1399.17C482.931 1399.25 482.283 1399.09 481.715 1398.76C480.419 1397.95 480.013 1396.17 480.824 1394.87C483.174 1391.15 496.464 1372.75 526.449 1380.85C527.989 1381.26 528.88 1382.8 528.475 1384.34C528.07 1385.88 526.53 1386.77 524.99 1386.36C498.815 1379.31 487.55 1394.79 485.605 1397.95C485.119 1398.6 484.39 1399.01 483.579 1399.17Z" fill="#FFF2F7"/>
<path d="M299.377 1568.86L282.52 1570.89C279.522 1546.17 282.115 1533.86 303.51 1509.62L316.233 1520.81C297.837 1541.8 297.027 1549.74 299.377 1568.86Z" fill="#FFD9E7"/>
<path d="M423.853 1553.79L406.997 1555.82C404.646 1536.69 401.972 1529.15 379.119 1513.27L388.763 1499.33C415.344 1517.73 420.854 1529.07 423.853 1553.79Z" fill="#FFD9E7"/>
<path d="M227.252 1588.15C226.279 1579.97 232.114 1572.51 240.299 1571.46L298.891 1564.33L301.727 1587.34C302.213 1591.07 299.539 1594.39 295.892 1594.8L244.027 1601.12C235.68 1602.17 228.224 1596.34 227.252 1588.15Z" fill="#E28EAE"/>
<path d="M481.716 1557.27C480.743 1549.09 473.288 1543.25 465.022 1544.23L406.43 1551.36L409.267 1574.37C409.753 1578.1 413.075 1580.69 416.722 1580.21L468.587 1573.89C476.853 1572.91 482.688 1565.46 481.716 1557.27Z" fill="#E28EAE"/>
<path d="M366.882 1108.07C366.558 1108.15 366.234 1108.15 365.91 1108.15C310.317 1105.89 234.302 1121.44 191.027 1137.25C188.434 1138.22 185.598 1136.52 184.625 1133.6C183.653 1130.6 184.949 1127.44 187.543 1126.55C209.747 1118.45 239.651 1110.67 269.716 1105.24C294.595 1100.7 331.387 1095.59 365.829 1096.97C368.584 1097.05 370.853 1099.73 370.853 1102.81C370.853 1105.48 369.152 1107.67 366.882 1108.07Z" fill="#F1698B"/>
<path d="M326.607 1322.5C296.865 1326.15 272.797 1334.9 268.42 1343.25C285.439 1345.6 306.509 1345.68 329.119 1342.93C351.729 1340.17 372.151 1335.06 388.115 1328.74C381.875 1321.69 356.429 1318.86 326.607 1322.5Z" fill="#F1698B"/>
<path d="M295 1326.88C299.295 1326.39 302.375 1322.42 301.808 1318.13L301.402 1314.89C296.54 1316.67 291.435 1318.13 286.086 1319.1L286.167 1320.07C286.734 1324.29 290.624 1327.37 295 1326.88Z" fill="white"/>
<path d="M419.721 1293.09C419.721 1292.6 419.396 1292.12 418.829 1291.79C418.748 1291.79 418.667 1291.71 418.667 1291.71C417.532 1291.22 415.912 1291.39 414.858 1292.2C403.594 1300.95 388.358 1306.87 371.907 1308.89C369.962 1309.13 368.099 1309.3 366.154 1309.46L366.235 1310.35C366.721 1314.65 363.722 1318.53 359.427 1319.1C355.132 1319.59 351.242 1316.59 350.675 1312.29L350.27 1309.22C341.599 1308.32 333.333 1306.3 326.12 1303.06C324.986 1302.57 323.365 1302.73 322.311 1303.54C316.314 1308.24 309.183 1312.05 301.322 1314.97L301.727 1318.21C302.214 1322.51 299.215 1326.4 294.92 1326.96C290.625 1327.45 286.735 1324.45 286.168 1320.16L286.087 1319.18C283.899 1319.59 281.63 1319.99 279.361 1320.24C262.91 1322.26 246.702 1320.16 233.654 1314.32C232.52 1313.83 230.899 1314 229.846 1314.81C229.764 1314.89 229.764 1314.89 229.683 1314.97C229.197 1315.46 229.035 1315.94 229.116 1316.43C228.306 1318.45 228.063 1320.4 228.306 1322.34C229.602 1332.72 245.162 1340.17 268.42 1343.33C272.796 1335.07 296.865 1326.23 326.606 1322.59C356.348 1318.94 381.875 1321.78 388.034 1328.75C409.834 1320.07 423.205 1309.05 421.909 1298.76C421.747 1296.74 421.017 1294.87 419.721 1293.09Z" fill="#E28EAE"/>
<path d="M359.427 1319.02C363.722 1318.53 366.802 1314.56 366.234 1310.27L366.153 1309.38C360.805 1309.7 355.456 1309.62 350.351 1309.13L350.756 1312.21C351.242 1316.51 355.132 1319.59 359.427 1319.02Z" fill="white"/>
<path d="M265.583 1281.26C264.691 1274.12 271.255 1269.18 279.927 1268.13C288.598 1267.07 296.134 1270.32 296.945 1277.45C297.188 1279.47 296.864 1281.5 296.053 1283.28C299.376 1283.85 302.374 1284.74 304.887 1285.96C306.264 1282.63 306.832 1279.07 306.426 1275.5C304.887 1262.54 291.434 1256.54 275.875 1258.48C260.396 1260.35 248.726 1269.34 250.347 1282.31C250.752 1285.96 252.211 1289.28 254.318 1292.12C257.479 1289.52 261.855 1287.25 267.122 1285.63C266.312 1284.25 265.826 1282.88 265.583 1281.26Z" fill="white"/>
<path d="M279.927 1268.13C271.256 1269.18 264.692 1274.13 265.583 1281.26C265.745 1282.8 266.312 1284.26 267.123 1285.55C270.689 1284.42 274.659 1283.53 278.874 1282.96C285.114 1282.23 290.948 1282.39 296.054 1283.2C296.864 1281.34 297.188 1279.39 296.945 1277.37C296.135 1270.32 288.598 1267.07 279.927 1268.13Z" fill="#C9345A"/>
<path d="M344.111 1271.78C343.22 1264.65 349.784 1259.7 358.455 1258.65C367.126 1257.6 374.663 1260.84 375.473 1267.97C375.635 1269.51 375.473 1270.97 375.068 1272.43C380.741 1272.75 385.765 1273.97 389.574 1275.75C390.952 1272.43 391.519 1268.86 391.114 1265.3C389.574 1252.33 376.122 1246.33 360.562 1248.28C345.084 1250.14 333.414 1259.14 335.035 1272.1C335.44 1275.75 336.899 1279.07 339.006 1281.91C341.032 1280.29 343.544 1278.75 346.461 1277.45C345.165 1275.75 344.354 1273.8 344.111 1271.78Z" fill="white"/>
<path d="M358.456 1258.65C349.785 1259.71 343.22 1264.65 344.112 1271.78C344.355 1273.89 345.246 1275.75 346.543 1277.37C351.324 1275.18 357.24 1273.56 363.642 1272.83C367.694 1272.35 371.584 1272.27 375.15 1272.43C375.555 1270.97 375.717 1269.51 375.555 1267.97C374.583 1260.84 367.046 1257.6 358.456 1258.65Z" fill="#C9345A"/>
<path d="M361.372 2100.05H314.774L292.326 1975.58H383.82L361.372 2100.05Z" fill="#133F49"/>
<path d="M724.184 2100.05H677.587L655.22 1975.58H746.632L724.184 2100.05Z" fill="#133F49"/>
<path d="M178.547 1719.26H119.874C101.154 1719.26 86 1704.11 86 1685.39C86 1666.67 101.154 1651.52 119.874 1651.52H178.547C197.267 1651.52 212.421 1666.67 212.421 1685.39C212.421 1704.11 197.267 1719.26 178.547 1719.26Z" fill="#133F49"/>
<path d="M919.084 1719.26H860.412C841.691 1719.26 826.537 1704.11 826.537 1685.39C826.537 1666.67 841.691 1651.52 860.412 1651.52H919.084C937.804 1651.52 952.958 1666.67 952.958 1685.39C952.958 1704.11 937.804 1719.26 919.084 1719.26Z" fill="#133F49"/>
<path d="M519.48 2048.52C737.445 2048.52 914.141 1927.96 914.141 1779.23C914.141 1630.5 737.445 1509.94 519.48 1509.94C301.514 1509.94 124.818 1630.5 124.818 1779.23C124.818 1927.96 301.514 2048.52 519.48 2048.52Z" fill="#0E2E38"/>
<path d="M832.048 1552.24C772.646 1522.26 654.977 1501.91 519.479 1501.91C383.981 1501.91 266.393 1522.34 206.911 1552.24H165.743V1596.65C165.743 1649 324.093 1691.38 519.479 1691.38C714.865 1691.38 873.216 1649 873.216 1596.65V1552.24H832.048Z" fill="#133F49"/>
<path d="M519.479 1646.97C714.842 1646.97 873.216 1604.56 873.216 1552.24C873.216 1499.92 714.842 1457.5 519.479 1457.5C324.116 1457.5 165.743 1499.92 165.743 1552.24C165.743 1604.56 324.116 1646.97 519.479 1646.97Z" fill="#0E2E38"/>
<path d="M833.425 1552.24C833.425 1515.2 692.903 1485.14 519.479 1485.14C346.055 1485.14 205.533 1515.2 205.533 1552.24C205.533 1563.1 217.608 1573.39 239.002 1582.38C237.381 1579.63 236.571 1576.79 236.571 1573.96C236.571 1538.54 363.235 1509.93 519.479 1509.93C675.723 1509.93 802.387 1538.62 802.387 1573.96C802.387 1576.79 801.577 1579.63 799.956 1582.38C821.35 1573.39 833.425 1563.1 833.425 1552.24Z" fill="#133F49"/>
<path d="M519.48 1509.94C363.236 1509.94 236.572 1538.63 236.572 1573.96C236.572 1576.79 237.382 1579.63 239.003 1582.39C290.706 1604.27 396.867 1619.34 519.48 1619.34C642.092 1619.34 748.254 1604.35 799.957 1582.39C801.578 1579.63 802.388 1576.79 802.388 1573.96C802.388 1538.63 675.724 1509.94 519.48 1509.94Z" fill="#CA6E91"/>
<path d="M533.095 1557.99C544.866 1557.99 554.408 1553.38 554.408 1547.7C554.408 1542.01 544.866 1537.41 533.095 1537.41C521.324 1537.41 511.781 1542.01 511.781 1547.7C511.781 1553.38 521.324 1557.99 533.095 1557.99Z" fill="#E57FA8"/>
<path d="M561.134 1559.46C567.893 1559.46 573.371 1556.23 573.371 1552.24C573.371 1548.26 567.893 1545.03 561.134 1545.03C554.376 1545.03 548.897 1548.26 548.897 1552.24C548.897 1556.23 554.376 1559.46 561.134 1559.46Z" fill="#E57FA8"/>
<path d="M542.738 1572.82C548.064 1572.82 552.382 1570.25 552.382 1567.07C552.382 1563.89 548.064 1561.32 542.738 1561.32C537.412 1561.32 533.094 1563.89 533.094 1567.07C533.094 1570.25 537.412 1572.82 542.738 1572.82Z" fill="#E57FA8"/>
<path d="M650.115 1593.98C655.441 1593.98 659.759 1591.4 659.759 1588.22C659.759 1585.04 655.441 1582.47 650.115 1582.47C644.789 1582.47 640.472 1585.04 640.472 1588.22C640.472 1591.4 644.789 1593.98 650.115 1593.98Z" fill="#E57FA8"/>
<path d="M667.376 1582.47C671.583 1582.47 674.994 1580.44 674.994 1577.93C674.994 1575.42 671.583 1573.39 667.376 1573.39C663.169 1573.39 659.758 1575.42 659.758 1577.93C659.758 1580.44 663.169 1582.47 667.376 1582.47Z" fill="#E57FA8"/>
<path d="M628.397 1542.84C632.604 1542.84 636.014 1540.81 636.014 1538.3C636.014 1535.79 632.604 1533.76 628.397 1533.76C624.189 1533.76 620.779 1535.79 620.779 1538.3C620.779 1540.81 624.189 1542.84 628.397 1542.84Z" fill="#E57FA8"/>
<path d="M739.502 1573.71C743.71 1573.71 747.12 1571.68 747.12 1569.17C747.12 1566.67 743.71 1564.64 739.502 1564.64C735.295 1564.64 731.885 1566.67 731.885 1569.17C731.885 1571.68 735.295 1573.71 739.502 1573.71Z" fill="#E57FA8"/>
<path d="M394.112 1585.79C405.883 1585.79 415.426 1581.19 415.426 1575.5C415.426 1569.82 405.883 1565.21 394.112 1565.21C382.341 1565.21 372.799 1569.82 372.799 1575.5C372.799 1581.19 382.341 1585.79 394.112 1585.79Z" fill="#E57FA8"/>
<path d="M421.585 1597.3C426.911 1597.3 431.229 1594.72 431.229 1591.54C431.229 1588.37 426.911 1585.79 421.585 1585.79C416.259 1585.79 411.941 1588.37 411.941 1591.54C411.941 1594.72 416.259 1597.3 421.585 1597.3Z" fill="#E57FA8"/>
<path d="M302.862 1569.74C307.069 1569.74 310.48 1567.71 310.48 1565.21C310.48 1562.7 307.069 1560.67 302.862 1560.67C298.655 1560.67 295.244 1562.7 295.244 1565.21C295.244 1567.71 298.655 1569.74 302.862 1569.74Z" fill="#E57FA8"/>
<path d="M313.883 1565.85C318.09 1565.85 321.501 1563.82 321.501 1561.32C321.501 1558.81 318.09 1556.78 313.883 1556.78C309.676 1556.78 306.266 1558.81 306.266 1561.32C306.266 1563.82 309.676 1565.85 313.883 1565.85Z" fill="#E57FA8"/>
<path d="M437.711 1539.52C443.037 1539.52 447.355 1536.94 447.355 1533.77C447.355 1530.59 443.037 1528.01 437.711 1528.01C432.385 1528.01 428.067 1530.59 428.067 1533.77C428.067 1536.94 432.385 1539.52 437.711 1539.52Z" fill="#E57FA8"/>
<path d="M522.234 1549.16C523.711 1549.16 524.909 1547.96 524.909 1546.49C524.909 1545.01 523.711 1543.81 522.234 1543.81C520.757 1543.81 519.56 1545.01 519.56 1546.49C519.56 1547.96 520.757 1549.16 522.234 1549.16Z" fill="#FFA1CC"/>
<path d="M546.466 1567.63C547.495 1567.63 548.33 1566.8 548.33 1565.77C548.33 1564.74 547.495 1563.91 546.466 1563.91C545.437 1563.91 544.602 1564.74 544.602 1565.77C544.602 1566.8 545.437 1567.63 546.466 1567.63Z" fill="#FFA1CC"/>
<path d="M567.536 1553.54C568.566 1553.54 569.4 1552.71 569.4 1551.68C569.4 1550.65 568.566 1549.81 567.536 1549.81C566.507 1549.81 565.672 1550.65 565.672 1551.68C565.672 1552.71 566.507 1553.54 567.536 1553.54Z" fill="#FFA1CC"/>
<path d="M631.8 1539.6C632.83 1539.6 633.664 1538.76 633.664 1537.74C633.664 1536.71 632.83 1535.87 631.8 1535.87C630.771 1535.87 629.937 1536.71 629.937 1537.74C629.937 1538.76 630.771 1539.6 631.8 1539.6Z" fill="#FFA1CC"/>
<path d="M645.901 1588.22C646.931 1588.22 647.765 1587.39 647.765 1586.36C647.765 1585.33 646.931 1584.5 645.901 1584.5C644.872 1584.5 644.038 1585.33 644.038 1586.36C644.038 1587.39 644.872 1588.22 645.901 1588.22Z" fill="#FFA1CC"/>
<path d="M671.023 1578.82C672.052 1578.82 672.887 1577.99 672.887 1576.96C672.887 1575.93 672.052 1575.09 671.023 1575.09C669.994 1575.09 669.159 1575.93 669.159 1576.96C669.159 1577.99 669.994 1578.82 671.023 1578.82Z" fill="#FFA1CC"/>
<path d="M741.365 1569.58C742.395 1569.58 743.229 1568.75 743.229 1567.72C743.229 1566.69 742.395 1565.85 741.365 1565.85C740.336 1565.85 739.501 1566.69 739.501 1567.72C739.501 1568.75 740.336 1569.58 741.365 1569.58Z" fill="#FFA1CC"/>
<path d="M378.796 1575.58C379.825 1575.58 380.659 1574.75 380.659 1573.72C380.659 1572.69 379.825 1571.86 378.796 1571.86C377.766 1571.86 376.932 1572.69 376.932 1573.72C376.932 1574.75 377.766 1575.58 378.796 1575.58Z" fill="#FFA1CC"/>
<path d="M415.425 1593.41C416.454 1593.41 417.289 1592.57 417.289 1591.54C417.289 1590.51 416.454 1589.68 415.425 1589.68C414.396 1589.68 413.561 1590.51 413.561 1591.54C413.561 1592.57 414.396 1593.41 415.425 1593.41Z" fill="#FFA1CC"/>
<path d="M443.141 1534.57C444.171 1534.57 445.005 1533.74 445.005 1532.71C445.005 1531.68 444.171 1530.84 443.141 1530.84C442.112 1530.84 441.277 1531.68 441.277 1532.71C441.277 1533.74 442.112 1534.57 443.141 1534.57Z" fill="#FFA1CC"/>
<path d="M298.648 1567.07C299.677 1567.07 300.512 1566.23 300.512 1565.2C300.512 1564.17 299.677 1563.34 298.648 1563.34C297.619 1563.34 296.784 1564.17 296.784 1565.2C296.784 1566.23 297.619 1567.07 298.648 1567.07Z" fill="#FFA1CC"/>
<path d="M317.449 1562.13C318.479 1562.13 319.313 1561.29 319.313 1560.26C319.313 1559.23 318.479 1558.4 317.449 1558.4C316.42 1558.4 315.585 1559.23 315.585 1560.26C315.585 1561.29 316.42 1562.13 317.449 1562.13Z" fill="#FFA1CC"/>
<path d="M210.476 1707.34C218.8 1707.34 225.549 1700.59 225.549 1692.27C225.549 1683.94 218.8 1677.2 210.476 1677.2C202.151 1677.2 195.402 1683.94 195.402 1692.27C195.402 1700.59 202.151 1707.34 210.476 1707.34Z" fill="#205966"/>
<path d="M190.865 1731.65C196.37 1731.65 200.833 1727.19 200.833 1721.69C200.833 1716.18 196.37 1711.72 190.865 1711.72C185.36 1711.72 180.897 1716.18 180.897 1721.69C180.897 1727.19 185.36 1731.65 190.865 1731.65Z" fill="#205966"/>
<path d="M1206.5 465.25C1206.5 504.821 1200.46 540.619 1190.02 573.906C1094.2 879.401 1079.48 1257.69 811.974 1433.62C724.685 1491.03 598.862 1525.7 443.75 1567C1206.5 1078.75 183.5 1038.25 151.25 465.25C151.25 213.822 520.072 0.25 771.5 0.25C1022.93 0.25 1206.5 246.25 1206.5 465.25Z" fill="#CA6E91" fill-opacity="0.3"/>
<path d="M375.698 1836.5C359.858 1836.5 348.227 1825.72 348.227 1810.53C348.227 1795.33 359.858 1784.55 375.698 1784.55C384.903 1784.55 392.324 1787.91 397.176 1793.97L388.185 1802.11C385.046 1798.32 381.193 1796.26 376.412 1796.26C368.206 1796.26 362.498 1801.96 362.498 1810.53C362.498 1819.09 368.206 1824.8 376.412 1824.8C381.193 1824.8 385.046 1822.73 388.185 1818.95L397.176 1827.08C392.324 1833.15 384.903 1836.5 375.698 1836.5ZM427.618 1836.5C411.635 1836.5 399.861 1825.51 399.861 1810.53C399.861 1795.54 411.635 1784.55 427.618 1784.55C443.601 1784.55 455.374 1795.54 455.374 1810.53C455.374 1825.51 443.601 1836.5 427.618 1836.5ZM427.618 1824.8C435.181 1824.8 441.104 1819.16 441.104 1810.53C441.104 1801.89 435.181 1796.26 427.618 1796.26C420.054 1796.26 414.132 1801.89 414.132 1810.53C414.132 1819.16 420.054 1824.8 427.618 1824.8ZM520.856 1835.5H507.87L507.727 1809.03L494.883 1830.58H488.604L475.832 1809.74V1835.5H462.774V1785.55H474.405L491.958 1814.38L509.083 1785.55H520.713L520.856 1835.5ZM530.853 1835.5V1785.55H544.981V1835.5H530.853ZM588.711 1785.55H602.554V1835.5H590.923L568.875 1808.89V1835.5H555.032V1785.55H566.663L588.711 1812.17V1785.55ZM645.984 1823.16V1809.46H658.471V1830.15C652.692 1834.29 644.771 1836.5 637.493 1836.5C621.581 1836.5 609.951 1825.72 609.951 1810.53C609.951 1795.33 621.581 1784.55 637.779 1784.55C647.126 1784.55 654.69 1787.76 659.613 1793.69L650.622 1801.82C647.197 1798.04 643.273 1796.26 638.492 1796.26C629.93 1796.26 624.222 1801.89 624.222 1810.53C624.222 1818.95 629.93 1824.8 638.35 1824.8C640.99 1824.8 643.487 1824.3 645.984 1823.16ZM424.861 1923.5C416.655 1923.5 408.521 1921.29 403.811 1918L408.449 1907.59C412.873 1910.51 419.152 1912.51 424.932 1912.51C430.783 1912.51 433.066 1910.87 433.066 1908.44C433.066 1900.52 404.668 1906.3 404.668 1887.75C404.668 1878.83 411.946 1871.55 426.787 1871.55C433.28 1871.55 439.988 1873.05 444.911 1875.91L440.559 1886.39C435.778 1883.83 431.068 1882.54 426.716 1882.54C420.794 1882.54 418.653 1884.54 418.653 1887.04C418.653 1894.67 446.98 1888.96 446.98 1907.37C446.98 1916.08 439.702 1923.5 424.861 1923.5ZM478.694 1923.5C462.711 1923.5 450.938 1912.51 450.938 1897.53C450.938 1882.54 462.711 1871.55 478.694 1871.55C494.678 1871.55 506.451 1882.54 506.451 1897.53C506.451 1912.51 494.678 1923.5 478.694 1923.5ZM478.694 1911.8C486.258 1911.8 492.18 1906.16 492.18 1897.53C492.18 1888.89 486.258 1883.26 478.694 1883.26C471.131 1883.26 465.208 1888.89 465.208 1897.53C465.208 1906.16 471.131 1911.8 478.694 1911.8ZM539.038 1923.5C523.055 1923.5 511.282 1912.51 511.282 1897.53C511.282 1882.54 523.055 1871.55 539.038 1871.55C555.022 1871.55 566.795 1882.54 566.795 1897.53C566.795 1912.51 555.022 1923.5 539.038 1923.5ZM539.038 1911.8C546.602 1911.8 552.524 1906.16 552.524 1897.53C552.524 1888.89 546.602 1883.26 539.038 1883.26C531.475 1883.26 525.553 1888.89 525.553 1897.53C525.553 1906.16 531.475 1911.8 539.038 1911.8ZM607.874 1872.55H621.716V1922.5H610.086L588.037 1895.89V1922.5H574.195V1872.55H585.825L607.874 1899.17V1872.55Z" fill="white"/>
</svg>
