<svg width="804" height="1401" viewBox="0 0 804 1401" fill="none" xmlns="http://www.w3.org/2000/svg">
<path d="M101.68 670.436C99.519 635.914 141.173 617.004 165.755 641.37L323.674 797.722C342.421 816.253 336.748 847.858 312.76 858.772L168.564 924.251C144.577 935.165 117.077 918.633 115.403 892.322L101.68 670.436Z" fill="#C9345A"/>
<path d="M77.9085 756.611C43.6019 774.386 11.0781 730.084 38.3073 702.639L106.704 633.701C121.94 618.358 146.954 618.952 161.433 635.052L176.939 652.34C193.417 670.655 188.122 699.613 166.241 710.959L77.9085 756.611Z" fill="#C9345A"/>
<path d="M107.353 744.511C106.975 744.673 106.596 744.781 106.164 744.835C104.111 745.052 102.22 743.539 102.004 741.486C101.842 740.081 101.734 738.46 101.626 736.569C101.248 731.761 100.816 725.818 99.7351 720.686C98.2223 713.77 96.3314 712.204 95.5751 711.825C94.3865 711.231 92.4415 712.203 91.0909 713.122C89.3621 714.256 87.0389 713.824 85.8503 712.095C84.7158 710.367 85.148 708.043 86.8768 706.855C89.9023 704.856 94.4405 702.911 98.8707 705.018C106.488 708.746 108.055 721.766 109.082 735.921C109.19 737.758 109.352 739.325 109.46 740.567C109.73 742.35 108.811 743.863 107.353 744.511Z" fill="#B1294C"/>
<path d="M263.38 763.957C263.164 764.065 262.894 764.119 262.678 764.173C221.564 773.627 167.97 798.695 138.418 817.497C136.689 818.631 134.312 818.091 133.231 816.362C132.097 814.633 132.637 812.256 134.366 811.175C149.493 801.505 170.347 790.592 191.633 781.083C209.246 773.249 235.557 762.66 260.949 756.825C263.002 756.339 265.001 757.636 265.433 759.635C265.919 761.471 265.001 763.2 263.38 763.957Z" fill="#F1698B"/>
<path d="M41.0627 706.42C39.766 707.015 38.1453 706.798 37.0107 705.772C35.4439 704.367 35.3359 701.99 36.7406 700.477C39.9821 696.858 43.6019 692.698 47.3837 688.321C61.8087 671.681 79.7994 650.935 97.9522 636.997C108.163 629.163 117.24 624.3 125.776 622.193C135.987 619.654 145.117 621.167 153.005 626.732C154.68 627.92 155.112 630.297 153.923 631.972C152.735 633.647 150.358 634.079 148.683 632.891C121.886 613.981 80.5018 661.741 53.1645 693.292C49.3287 697.722 45.7629 701.882 42.4133 705.556C41.9811 705.88 41.5489 706.204 41.0627 706.42Z" fill="#F1698B"/>
<path d="M176.236 720.087C184.979 720.087 192.066 713 192.066 704.257C192.066 695.515 184.979 688.428 176.236 688.428C167.494 688.428 160.407 695.515 160.407 704.257C160.407 713 167.494 720.087 176.236 720.087Z" fill="#FFDDDD"/>
<path d="M113.846 681.216C117.765 678.286 118.567 672.734 115.638 668.815C112.708 664.896 107.156 664.094 103.237 667.023C99.3177 669.953 98.5156 675.505 101.445 679.424C104.375 683.343 109.927 684.145 113.846 681.216Z" fill="#FFDDDD"/>
<path d="M76.4547 750.43C76.9259 745.589 71.8428 741.133 65.1015 740.477C58.3601 739.821 52.5134 743.213 52.0422 748.053C51.571 752.894 56.6538 757.35 63.3951 758.007C70.1365 758.663 75.9835 755.271 76.4547 750.43Z" fill="#FFDDDD"/>
<path d="M388.829 772.821C385.966 781.627 378.24 788.434 368.407 789.623C354.955 791.244 342.691 781.681 341.07 768.174C340.314 761.961 341.988 755.964 345.284 751.21C299.416 735.705 243.661 734.084 200.116 739.378C164.296 743.755 113.566 758.396 72.1276 783.032C74.883 786.111 76.7739 790.055 77.3142 794.485C78.7188 805.993 70.5069 816.42 58.9993 817.825C50.4091 818.851 42.4132 814.583 38.3613 807.56C12.6448 830.791 -3.50904 859.749 0.650977 894.218C9.29517 965.262 108.055 973.96 226.805 959.535C345.608 945.11 439.398 913.073 430.754 841.974C427.08 811.503 411.358 789.029 388.829 772.821Z" fill="#C9345A"/>
<path d="M58.9993 817.769C70.5069 816.365 78.6649 805.938 77.3142 794.43C76.774 790 74.883 786.056 72.1277 782.977C59.8638 790.27 48.3562 798.428 38.3613 807.504C42.4673 814.528 50.4632 818.85 58.9993 817.769Z" fill="#FFDDDD"/>
<path d="M368.407 789.624C378.186 788.435 385.912 781.628 388.829 772.821C376.133 763.691 361.33 756.614 345.284 751.211C341.934 755.965 340.314 761.962 341.07 768.175C342.691 781.682 354.955 791.244 368.407 789.624Z" fill="#FFDDDD"/>
<path d="M334.101 1026.15C322.107 1015.45 310.221 997.407 303.846 986.494L170.888 975.148C158.138 982.172 138.418 998.866 142.524 1010.05C145.82 1019.13 137.392 1037.82 128.964 1050.95C126.262 1055.11 127.937 1060.51 132.907 1060.83C155.598 1062.29 200.71 1053.97 213.244 1052.46C227.994 1050.68 224.32 1040.52 247.821 1048.25C262.624 1053.16 304.171 1041.01 332.264 1034.58C335.776 1033.87 336.748 1028.53 334.101 1026.15Z" fill="#5B619B"/>
<path d="M388.667 841.541C395.475 897.728 320.432 928.847 224.536 940.463C128.693 952.079 48.3023 939.869 41.495 883.681C34.6877 827.494 109.082 790.594 204.924 778.978C300.767 767.309 381.806 785.3 388.667 841.541Z" fill="#E28EAE"/>
<path d="M129.611 916.313C123.56 866.392 159.11 820.956 209.084 814.905C259.058 808.854 304.44 844.404 310.491 894.378L315.299 933.979L134.42 955.914L129.611 916.313Z" fill="#FFD9E7"/>
<path d="M318.433 974.714C312.274 975.47 306.007 975.254 299.632 974.119C288.341 972.066 279.805 967.582 275.753 965.421C275.375 965.205 275.05 965.043 274.78 964.881L279.967 954.832C280.291 954.994 280.669 955.21 281.047 955.426C310.167 970.824 329.131 960.937 335.344 957.641L340.584 967.636C333.399 971.418 325.997 973.741 318.433 974.714Z" fill="#FFD9E7"/>
<path d="M129.341 970.555L121.778 978.929C129.017 985.466 138.58 989.194 149.439 989.68C160.569 990.166 169.159 987.195 171.536 986.276L167.484 975.741C163.648 977.2 157.057 978.713 149.98 978.388C141.605 978.01 134.69 975.417 129.341 970.555Z" fill="#E28EAE"/>
<path d="M169.915 956.615C170.779 938.3 184.772 923.226 202.979 921.011L237.826 916.797C256.033 914.582 273.213 925.82 278.454 943.432L287.044 972.336C293.689 994.703 278.616 1017.61 255.493 1020.42L210.597 1025.88C187.474 1028.69 167.322 1009.99 168.456 986.707L169.915 956.615Z" fill="#FFD9E7"/>
<path d="M308.817 994.434C313.031 1001.78 218.809 990.274 168.457 980.063C164.459 979.252 164.675 973.958 168.727 973.31L290.286 954.4C294.392 964.557 303.522 985.249 308.817 994.434Z" fill="#9096D1"/>
<path d="M108.649 924.741C104.975 894.325 126.64 866.609 157.057 862.935L271.43 849.051C301.847 845.377 329.562 867.041 333.236 897.458C336.91 927.875 315.245 955.59 284.829 959.264L225.508 966.449L170.455 973.149C140.038 976.823 112.377 955.158 108.649 924.741Z" fill="#FFD9E7"/>
<path d="M148.691 914.717C150.923 898.248 144.415 883.771 134.156 882.38C123.896 880.99 113.77 893.213 111.538 909.681C109.306 926.15 115.813 940.627 126.073 942.018C136.332 943.408 146.459 931.185 148.691 914.717Z" fill="#F1698B"/>
<path d="M319.942 918.462C329.571 914.657 332.426 899.042 326.318 883.586C320.211 868.13 307.453 858.684 297.824 862.489C288.195 866.294 285.341 881.909 291.449 897.365C297.556 912.821 310.314 922.267 319.942 918.462Z" fill="#F1698B"/>
<path d="M202.979 836.301C203.952 839.813 198.927 841.703 197.36 838.408L194.011 831.438C193.2 829.818 194.065 827.873 195.74 827.279L197.036 826.846C198.657 826.306 200.44 827.225 200.926 828.899L202.979 836.301Z" fill="#E28EAE"/>
<path d="M219.944 834.192C219.835 837.866 225.13 838.46 225.886 834.894L227.453 827.331C227.831 825.548 226.535 823.873 224.752 823.711L223.347 823.603C221.618 823.441 220.106 824.792 220.106 826.52L219.944 834.192Z" fill="#E28EAE"/>
<path d="M119.833 988.168C129.083 988.168 136.581 980.67 136.581 971.42C136.581 962.17 129.083 954.672 119.833 954.672C110.583 954.672 103.085 962.17 103.085 971.42C103.085 980.67 110.583 988.168 119.833 988.168Z" fill="#E28EAE"/>
<path d="M338.152 986.008C349.163 986.008 358.088 977.082 358.088 966.072C358.088 955.062 349.163 946.137 338.152 946.137C327.142 946.137 318.217 955.062 318.217 966.072C318.217 977.082 327.142 986.008 338.152 986.008Z" fill="#FFD9E7"/>
<g opacity="0.5">
<path fill-rule="evenodd" clip-rule="evenodd" d="M342.475 875.144C340.422 874.873 338.531 876.332 338.26 878.385C337.99 880.438 339.449 882.329 341.502 882.599L337.612 912.314C322.593 914.637 310.329 926.577 308.222 942.352C305.737 961.532 319.892 973.904 339.071 976.389C358.25 978.874 375.16 970.608 377.646 951.429C379.699 935.653 370.892 920.904 357.008 914.799L360.897 885.085L361.276 885.138C363.329 885.409 365.22 883.95 365.49 881.897C365.76 879.844 364.301 877.953 362.248 877.683L342.475 875.144Z" fill="#B7D6D6"/>
</g>
<g opacity="0.8">
<path d="M371.595 948.563C369.596 963.691 356.251 970.228 341.124 968.229C325.996 966.23 314.759 956.505 316.758 941.378C318.757 926.25 332.372 943.593 350.092 933.112C358.736 929.222 373.594 933.436 371.595 948.563Z" fill="#A977AB"/>
</g>
<path d="M353.766 941.004C357.824 941.004 361.114 937.714 361.114 933.656C361.114 929.598 357.824 926.309 353.766 926.309C349.709 926.309 346.419 929.598 346.419 933.656C346.419 937.714 349.709 941.004 353.766 941.004Z" fill="#CDABD9"/>
<path d="M331.832 954.293C334.219 954.293 336.154 952.358 336.154 949.971C336.154 947.584 334.219 945.648 331.832 945.648C329.445 945.648 327.51 947.584 327.51 949.971C327.51 952.358 329.445 954.293 331.832 954.293Z" fill="#CDABD9"/>
<path d="M322.053 933.115C321.62 933.169 321.188 933.061 320.81 932.845C319.946 932.305 319.675 931.116 320.216 930.252C321.782 927.767 330.643 915.503 350.632 920.905C351.659 921.176 352.253 922.202 351.983 923.229C351.713 924.255 350.687 924.849 349.66 924.579C332.21 919.879 324.7 930.198 323.403 932.305C323.079 932.737 322.593 933.007 322.053 933.115Z" fill="#FFF2F7"/>
<path d="M199.251 1046.25L188.014 1047.6C186.015 1031.12 187.744 1022.91 202.007 1006.75L210.489 1014.21C198.225 1028.2 197.685 1033.49 199.251 1046.25Z" fill="#FFD9E7"/>
<path d="M282.236 1036.19L270.998 1037.54C269.431 1024.79 267.648 1019.77 252.413 1009.18L258.842 999.889C276.563 1012.15 280.237 1019.72 282.236 1036.19Z" fill="#FFD9E7"/>
<path d="M151.168 1059.1C150.52 1053.65 154.41 1048.68 159.866 1047.97L198.927 1043.22L200.818 1058.56C201.142 1061.05 199.36 1063.26 196.928 1063.53L162.352 1067.75C156.787 1068.45 151.817 1064.56 151.168 1059.1Z" fill="#E28EAE"/>
<path d="M320.81 1038.52C320.162 1033.06 315.192 1029.17 309.681 1029.82L270.62 1034.57L272.511 1049.92C272.835 1052.4 275.05 1054.13 277.481 1053.81L312.058 1049.59C317.569 1048.95 321.459 1043.98 320.81 1038.52Z" fill="#E28EAE"/>
<path d="M244.255 739.05C244.039 739.104 243.823 739.104 243.607 739.104C206.545 737.591 155.868 747.964 127.018 758.5C125.29 759.148 123.399 758.013 122.75 756.068C122.102 754.069 122.967 751.963 124.695 751.368C139.499 745.966 159.434 740.779 179.478 737.159C196.064 734.134 220.592 730.73 243.553 731.649C245.39 731.703 246.903 733.485 246.903 735.538C246.903 737.321 245.768 738.78 244.255 739.05Z" fill="#F1698B"/>
<path d="M217.405 882.005C197.577 884.437 181.531 890.271 178.614 895.836C189.959 897.403 204.006 897.457 219.079 895.62C234.153 893.783 247.767 890.38 258.41 886.166C254.25 881.465 237.286 879.574 217.405 882.005Z" fill="#F1698B"/>
<path d="M196.334 884.924C199.197 884.599 201.25 881.952 200.872 879.089L200.602 876.928C197.36 878.116 193.957 879.089 190.391 879.737L190.445 880.385C190.823 883.195 193.417 885.248 196.334 884.924Z" fill="white"/>
<path d="M279.48 862.396C279.48 862.072 279.264 861.747 278.886 861.531C278.832 861.531 278.778 861.477 278.778 861.477C278.022 861.153 276.941 861.261 276.239 861.801C268.729 867.636 258.572 871.58 247.605 872.931C246.308 873.093 245.066 873.201 243.769 873.309L243.823 873.903C244.147 876.767 242.148 879.36 239.285 879.738C236.422 880.062 233.828 878.063 233.45 875.2L233.18 873.147C227.399 872.553 221.888 871.202 217.08 869.041C216.324 868.717 215.243 868.825 214.541 869.365C210.543 872.499 205.789 875.038 200.548 876.983L200.818 879.144C201.142 882.007 199.143 884.6 196.28 884.979C193.417 885.303 190.823 883.304 190.445 880.44L190.391 879.792C188.932 880.062 187.42 880.332 185.907 880.495C174.94 881.845 164.134 880.44 155.436 876.55C154.68 876.226 153.599 876.334 152.897 876.875C152.843 876.929 152.843 876.929 152.789 876.983C152.465 877.307 152.357 877.631 152.411 877.955C151.871 879.306 151.708 880.602 151.871 881.899C152.735 888.814 163.108 893.785 178.613 895.892C181.531 890.381 197.577 884.492 217.404 882.061C237.232 879.63 254.25 881.521 258.356 886.167C272.889 880.387 281.803 873.039 280.939 866.178C280.831 864.827 280.345 863.584 279.48 862.396Z" fill="#E28EAE"/>
<path d="M239.285 879.683C242.148 879.359 244.201 876.711 243.823 873.848L243.769 873.254C240.203 873.47 236.638 873.416 233.234 873.092L233.504 875.145C233.828 878.008 236.421 880.061 239.285 879.683Z" fill="white"/>
<path d="M176.722 854.507C176.128 849.752 180.504 846.457 186.285 845.754C192.066 845.052 197.09 847.213 197.63 851.967C197.792 853.318 197.576 854.669 197.036 855.857C199.251 856.236 201.25 856.83 202.925 857.64C203.843 855.425 204.221 853.048 203.951 850.671C202.925 842.027 193.956 838.029 183.583 839.325C173.264 840.568 165.485 846.565 166.565 855.209C166.835 857.64 167.808 859.855 169.212 861.746C171.319 860.017 174.237 858.505 177.749 857.424C177.208 856.506 176.884 855.587 176.722 854.507Z" fill="white"/>
<path d="M186.285 845.755C180.504 846.457 176.128 849.753 176.723 854.507C176.831 855.534 177.209 856.506 177.749 857.37C180.126 856.614 182.773 856.02 185.583 855.642C189.743 855.156 193.633 855.263 197.036 855.804C197.577 854.561 197.793 853.264 197.631 851.914C197.09 847.213 192.066 845.052 186.285 845.755Z" fill="#C9345A"/>
<path d="M229.074 848.186C228.48 843.432 232.856 840.137 238.637 839.434C244.418 838.732 249.442 840.893 249.982 845.647C250.09 846.674 249.982 847.646 249.712 848.619C253.494 848.835 256.844 849.645 259.383 850.833C260.301 848.618 260.679 846.241 260.409 843.864C259.383 835.22 250.414 831.222 240.041 832.519C229.722 833.761 221.943 839.758 223.023 848.402C223.293 850.833 224.266 853.049 225.67 854.94C227.021 853.859 228.696 852.833 230.641 851.968C229.776 850.834 229.236 849.537 229.074 848.186Z" fill="white"/>
<path d="M238.637 839.434C232.856 840.137 228.48 843.432 229.075 848.186C229.237 849.591 229.831 850.834 230.695 851.914C233.883 850.456 237.827 849.375 242.095 848.889C244.796 848.565 247.389 848.511 249.767 848.619C250.037 847.646 250.145 846.674 250.037 845.647C249.388 840.893 244.364 838.732 238.637 839.434Z" fill="#C9345A"/>
<path d="M240.581 1400.37H209.516L194.551 1317.38H255.546L240.581 1400.37Z" fill="#133F49"/>
<path d="M482.456 1400.37H451.391L436.48 1317.38H497.422L482.456 1400.37Z" fill="#133F49"/>
<path d="M118.698 1146.51H79.583C67.1029 1146.51 57 1136.4 57 1123.92C57 1111.44 67.1029 1101.34 79.583 1101.34H118.698C131.178 1101.34 141.281 1111.44 141.281 1123.92C141.281 1136.4 131.178 1146.51 118.698 1146.51Z" fill="#133F49"/>
<path d="M612.389 1146.51H573.274C560.794 1146.51 550.691 1136.4 550.691 1123.92C550.691 1111.44 560.794 1101.34 573.274 1101.34H612.389C624.869 1101.34 634.972 1111.44 634.972 1123.92C634.972 1136.4 624.869 1146.51 612.389 1146.51Z" fill="#133F49"/>
<path d="M345.986 1366.01C491.296 1366.01 609.094 1285.64 609.094 1186.48C609.094 1087.33 491.296 1006.96 345.986 1006.96C200.676 1006.96 82.8784 1087.33 82.8784 1186.48C82.8784 1285.64 200.676 1366.01 345.986 1366.01Z" fill="#0E2E38"/>
<path d="M554.365 1035.16C514.764 1015.17 436.318 1001.61 345.986 1001.61C255.654 1001.61 177.262 1015.22 137.607 1035.16H110.162V1064.76C110.162 1099.66 215.729 1127.92 345.986 1127.92C476.243 1127.92 581.81 1099.66 581.81 1064.76V1035.16H554.365Z" fill="#133F49"/>
<path d="M345.986 1098.31C476.228 1098.31 581.81 1070.04 581.81 1035.16C581.81 1000.28 476.228 972 345.986 972C215.744 972 110.162 1000.28 110.162 1035.16C110.162 1070.04 215.744 1098.31 345.986 1098.31Z" fill="#0E2E38"/>
<path d="M555.283 1035.16C555.283 1010.47 461.602 990.422 345.986 990.422C230.37 990.422 136.688 1010.47 136.688 1035.16C136.688 1042.39 144.738 1049.26 159.001 1055.25C157.921 1053.42 157.381 1051.53 157.381 1049.63C157.381 1026.02 241.823 1006.95 345.986 1006.95C450.148 1006.95 534.591 1026.08 534.591 1049.63C534.591 1051.53 534.051 1053.42 532.971 1055.25C547.234 1049.26 555.283 1042.39 555.283 1035.16Z" fill="#133F49"/>
<path d="M345.986 1006.96C241.824 1006.96 157.381 1026.08 157.381 1049.64C157.381 1051.53 157.921 1053.42 159.002 1055.25C193.47 1069.84 264.245 1079.89 345.986 1079.89C427.728 1079.89 498.502 1069.9 532.971 1055.25C534.051 1053.42 534.592 1051.53 534.592 1049.64C534.592 1026.08 450.149 1006.96 345.986 1006.96Z" fill="#CA6E91"/>
<path d="M355.063 1038.99C362.91 1038.99 369.272 1035.92 369.272 1032.13C369.272 1028.34 362.91 1025.27 355.063 1025.27C347.216 1025.27 340.854 1028.34 340.854 1032.13C340.854 1035.92 347.216 1038.99 355.063 1038.99Z" fill="#E57FA8"/>
<path d="M373.756 1039.97C378.262 1039.97 381.914 1037.81 381.914 1035.16C381.914 1032.5 378.262 1030.35 373.756 1030.35C369.251 1030.35 365.598 1032.5 365.598 1035.16C365.598 1037.81 369.251 1039.97 373.756 1039.97Z" fill="#E57FA8"/>
<path d="M361.492 1048.88C365.042 1048.88 367.921 1047.16 367.921 1045.04C367.921 1042.92 365.042 1041.21 361.492 1041.21C357.941 1041.21 355.062 1042.92 355.062 1045.04C355.062 1047.16 357.941 1048.88 361.492 1048.88Z" fill="#E57FA8"/>
<path d="M433.077 1062.98C436.627 1062.98 439.506 1061.26 439.506 1059.14C439.506 1057.03 436.627 1055.31 433.077 1055.31C429.526 1055.31 426.647 1057.03 426.647 1059.14C426.647 1061.26 429.526 1062.98 433.077 1062.98Z" fill="#E57FA8"/>
<path d="M444.584 1055.31C447.389 1055.31 449.662 1053.95 449.662 1052.28C449.662 1050.61 447.389 1049.26 444.584 1049.26C441.779 1049.26 439.505 1050.61 439.505 1052.28C439.505 1053.95 441.779 1055.31 444.584 1055.31Z" fill="#E57FA8"/>
<path d="M418.598 1028.89C421.402 1028.89 423.676 1027.53 423.676 1025.86C423.676 1024.19 421.402 1022.84 418.598 1022.84C415.793 1022.84 413.519 1024.19 413.519 1025.86C413.519 1027.53 415.793 1028.89 418.598 1028.89Z" fill="#E57FA8"/>
<path d="M492.668 1049.47C495.473 1049.47 497.746 1048.12 497.746 1046.45C497.746 1044.78 495.473 1043.42 492.668 1043.42C489.863 1043.42 487.589 1044.78 487.589 1046.45C487.589 1048.12 489.863 1049.47 492.668 1049.47Z" fill="#E57FA8"/>
<path d="M262.408 1057.53C270.255 1057.53 276.617 1054.45 276.617 1050.66C276.617 1046.87 270.255 1043.8 262.408 1043.8C254.56 1043.8 248.199 1046.87 248.199 1050.66C248.199 1054.45 254.56 1057.53 262.408 1057.53Z" fill="#E57FA8"/>
<path d="M280.723 1065.2C284.274 1065.2 287.152 1063.48 287.152 1061.36C287.152 1059.24 284.274 1057.52 280.723 1057.52C277.172 1057.52 274.294 1059.24 274.294 1061.36C274.294 1063.48 277.172 1065.2 280.723 1065.2Z" fill="#E57FA8"/>
<path d="M201.574 1046.83C204.379 1046.83 206.653 1045.47 206.653 1043.8C206.653 1042.13 204.379 1040.78 201.574 1040.78C198.769 1040.78 196.496 1042.13 196.496 1043.8C196.496 1045.47 198.769 1046.83 201.574 1046.83Z" fill="#E57FA8"/>
<path d="M208.922 1044.23C211.726 1044.23 214 1042.88 214 1041.21C214 1039.54 211.726 1038.18 208.922 1038.18C206.117 1038.18 203.843 1039.54 203.843 1041.21C203.843 1042.88 206.117 1044.23 208.922 1044.23Z" fill="#E57FA8"/>
<path d="M291.474 1026.68C295.024 1026.68 297.903 1024.96 297.903 1022.84C297.903 1020.72 295.024 1019 291.474 1019C287.923 1019 285.044 1020.72 285.044 1022.84C285.044 1024.96 287.923 1026.68 291.474 1026.68Z" fill="#E57FA8"/>
<path d="M347.823 1033.1C348.808 1033.1 349.606 1032.31 349.606 1031.32C349.606 1030.34 348.808 1029.54 347.823 1029.54C346.838 1029.54 346.04 1030.34 346.04 1031.32C346.04 1032.31 346.838 1033.1 347.823 1033.1Z" fill="#FFA1CC"/>
<path d="M363.977 1045.42C364.663 1045.42 365.22 1044.86 365.22 1044.18C365.22 1043.49 364.663 1042.94 363.977 1042.94C363.291 1042.94 362.734 1043.49 362.734 1044.18C362.734 1044.86 363.291 1045.42 363.977 1045.42Z" fill="#FFA1CC"/>
<path d="M378.024 1036.02C378.71 1036.02 379.266 1035.47 379.266 1034.78C379.266 1034.09 378.71 1033.54 378.024 1033.54C377.338 1033.54 376.781 1034.09 376.781 1034.78C376.781 1035.47 377.338 1036.02 378.024 1036.02Z" fill="#FFA1CC"/>
<path d="M420.867 1026.73C421.553 1026.73 422.109 1026.17 422.109 1025.49C422.109 1024.8 421.553 1024.24 420.867 1024.24C420.18 1024.24 419.624 1024.8 419.624 1025.49C419.624 1026.17 420.18 1026.73 420.867 1026.73Z" fill="#FFA1CC"/>
<path d="M430.267 1059.15C430.954 1059.15 431.51 1058.59 431.51 1057.9C431.51 1057.22 430.954 1056.66 430.267 1056.66C429.581 1056.66 429.025 1057.22 429.025 1057.9C429.025 1058.59 429.581 1059.15 430.267 1059.15Z" fill="#FFA1CC"/>
<path d="M447.015 1052.88C447.701 1052.88 448.258 1052.32 448.258 1051.64C448.258 1050.95 447.701 1050.39 447.015 1050.39C446.329 1050.39 445.772 1050.95 445.772 1051.64C445.772 1052.32 446.329 1052.88 447.015 1052.88Z" fill="#FFA1CC"/>
<path d="M493.91 1046.72C494.596 1046.72 495.153 1046.16 495.153 1045.48C495.153 1044.79 494.596 1044.23 493.91 1044.23C493.224 1044.23 492.667 1044.79 492.667 1045.48C492.667 1046.16 493.224 1046.72 493.91 1046.72Z" fill="#FFA1CC"/>
<path d="M252.197 1050.72C252.883 1050.72 253.439 1050.16 253.439 1049.47C253.439 1048.79 252.883 1048.23 252.197 1048.23C251.51 1048.23 250.954 1048.79 250.954 1049.47C250.954 1050.16 251.51 1050.72 252.197 1050.72Z" fill="#FFA1CC"/>
<path d="M276.617 1062.6C277.303 1062.6 277.859 1062.05 277.859 1061.36C277.859 1060.67 277.303 1060.12 276.617 1060.12C275.93 1060.12 275.374 1060.67 275.374 1061.36C275.374 1062.05 275.93 1062.6 276.617 1062.6Z" fill="#FFA1CC"/>
<path d="M295.094 1023.38C295.78 1023.38 296.336 1022.82 296.336 1022.14C296.336 1021.45 295.78 1020.89 295.094 1020.89C294.407 1020.89 293.851 1021.45 293.851 1022.14C293.851 1022.82 294.407 1023.38 295.094 1023.38Z" fill="#FFA1CC"/>
<path d="M198.765 1045.04C199.451 1045.04 200.008 1044.49 200.008 1043.8C200.008 1043.11 199.451 1042.56 198.765 1042.56C198.079 1042.56 197.522 1043.11 197.522 1043.8C197.522 1044.49 198.079 1045.04 198.765 1045.04Z" fill="#FFA1CC"/>
<path d="M211.299 1041.75C211.986 1041.75 212.542 1041.19 212.542 1040.51C212.542 1039.82 211.986 1039.26 211.299 1039.26C210.613 1039.26 210.057 1039.82 210.057 1040.51C210.057 1041.19 210.613 1041.75 211.299 1041.75Z" fill="#FFA1CC"/>
<path d="M139.984 1138.56C145.534 1138.56 150.033 1134.06 150.033 1128.51C150.033 1122.96 145.534 1118.46 139.984 1118.46C134.434 1118.46 129.935 1122.96 129.935 1128.51C129.935 1134.06 134.434 1138.56 139.984 1138.56Z" fill="#205966"/>
<path d="M126.91 1154.77C130.58 1154.77 133.555 1151.79 133.555 1148.12C133.555 1144.45 130.58 1141.48 126.91 1141.48C123.24 1141.48 120.265 1144.45 120.265 1148.12C120.265 1151.79 123.24 1154.77 126.91 1154.77Z" fill="#205966"/>
<path d="M804 310.5C804 336.881 799.974 360.746 793.014 382.937C729.135 586.6 719.318 838.797 540.982 956.08C482.79 994.351 398.908 1017.47 295.5 1045C804 719.5 122 692.5 100.5 310.5C100.5 142.882 346.382 0.5 514 0.5C681.618 0.5 804 164.5 804 310.5Z" fill="#CA6E91" fill-opacity="0.3"/>
</svg>
