<svg width="1901" height="1322" viewBox="0 0 1901 1322" fill="none" xmlns="http://www.w3.org/2000/svg">
<path d="M1400.85 130.85L1416 52.0996L1872.75 139.55L1844.55 286.4L1830.75 291.199L1841.4 300.199L1828.2 304.85L1839.15 314.449L1818 425.3L1807.65 428.9L1815.9 436.1L1786.35 590.449L1779.6 592.85L1784.55 597.05L1779.9 598.699L1784.1 602.3L1753.95 760.099L1465.95 705.05L1461.75 692.749L1453.35 702.349L1449.9 692.45L1442.85 700.55L1297.2 672.649L1398.6 143.3L1410.45 139.1L1400.85 130.85Z" fill="#D3BDAB"/>
<path d="M1871.55 463.549H1769.4V849.949H1871.55V463.549Z" fill="#FFB23E"/>
<path d="M156 324.949H53.8499V711.349H156V324.949Z" fill="#FFB23E"/>
<path d="M500.7 684.196L485.55 605.445L28.95 692.895L57 839.595L70.7999 844.395L60.3 853.546L73.5 858.196L62.3999 867.796L83.5499 978.495L94.0499 982.245L85.6499 989.296L115.2 1143.8L122.1 1146.05L117.15 1150.4L121.8 1152.05L117.45 1155.65L147.75 1313.45L435.6 1258.4L439.8 1246.1L448.2 1255.7L451.65 1245.8L458.7 1253.9L604.5 1226L503.1 696.645L491.1 692.446L500.7 684.196Z" fill="#D3BDAB"/>
<path d="M1847.1 104.902H72.9001V1273.85H1847.1V104.902Z" fill="#872C8B"/>
<path d="M1803.45 149.15H116.7V1229.45H1803.45V149.15Z" fill="#FFFACC"/>
<path d="M970.05 149.15H949.8V1229.45H970.05V149.15Z" fill="#F5EA83"/>
<path d="M1310.7 94.1007L1273.2 85.1007L1244.55 110.75L1241.55 72.5005L1208.25 53.1506L1243.8 38.4506L1251.9 0.800781L1276.95 30.0508L1315.2 26.1506L1294.95 59.0005L1310.7 94.1007Z" fill="#FBCCFF"/>
<path d="M1383.15 83.3025L1362 81.5022L1343.25 91.4023L1345.05 70.2522L1335.15 51.3524L1356.3 53.3025L1375.2 43.4023L1373.25 64.5525L1383.15 83.3025Z" fill="#FBCCFF"/>
<path d="M1333.95 161.151L1328.25 145.701L1315.2 135.951L1330.5 130.25L1340.4 117.051L1346.1 132.5L1359.15 142.25L1343.85 147.951L1333.95 161.151Z" fill="#FBCCFF"/>
<path d="M77.85 484.7L40.35 475.7L11.85 501.35L8.85005 463.1L-24.45 443.75L11.1 429.051L19.05 391.4L44.1 420.65L82.35 416.75L62.25 449.45L77.85 484.7Z" fill="#FBCCFF"/>
<path d="M56.8498 573.646L41.9998 558.496L21.2998 553.696L36.4498 538.847L41.2498 518.146L56.0998 533.297L76.6498 538.097L61.4998 552.946L56.8498 573.646Z" fill="#FBCCFF"/>
<path d="M120.75 407.45L112.2 398.6L100.2 395.9L108.9 387.35L111.75 375.5L120.3 384.2L132.15 386.9L123.45 395.45L120.75 407.45Z" fill="#FBCCFF"/>
<path d="M1896 1215.8L1858.65 1206.8L1830 1232.45L1827 1194.05L1793.7 1174.85L1829.25 1160.15L1837.35 1122.5L1862.25 1151.75L1900.5 1147.85L1880.4 1180.55L1896 1215.8Z" fill="#FBCCFF"/>
<path d="M1885.2 1287.05L1864.05 1285.1L1845.3 1295L1847.1 1273.85L1837.35 1255.1L1858.35 1256.9L1877.25 1247L1875.3 1268.15L1885.2 1287.05Z" fill="#FBCCFF"/>
<path d="M1763.85 1316.15L1749.6 1314.95L1736.85 1321.55L1738.2 1307.3L1731.45 1294.55L1745.85 1295.75L1758.45 1289.15L1757.25 1303.4L1763.85 1316.15Z" fill="#FBCCFF"/>
<path d="M207.15 1289.75L192 1274.9L171.15 1270.55L186 1255.4L190.35 1234.55L205.5 1249.4L226.35 1253.75L211.5 1268.9L207.15 1289.75Z" fill="#FBCCFF"/>
<path d="M274.95 1295.9L261.45 1301L252.9 1312.4L247.8 1298.9L236.4 1290.2L249.9 1285.25L258.6 1273.85L263.55 1287.35L274.95 1295.9Z" fill="#FBCCFF"/>
<path d="M1886.25 222.951L1869.75 236.151L1862.85 256.25L1849.65 239.75L1829.55 232.851L1846.2 219.651L1852.95 199.551L1866.15 216.201L1886.25 222.951Z" fill="#FBCCFF"/>
<path d="M1869.45 314.151L1863.75 298.851L1850.7 288.951L1866 283.25L1875.9 270.051L1881.6 285.5L1894.65 295.25L1879.35 301.101L1869.45 314.151Z" fill="#FBCCFF"/>
</svg>
