<svg width="1845" height="1262" viewBox="0 0 1845 1262" fill="none" xmlns="http://www.w3.org/2000/svg">
<path d="M1372.85 78.8476L1388 0.0976562L1844.75 87.5477L1816.55 234.398L1802.75 239.197L1813.4 248.197L1800.2 252.848L1811.15 262.447L1790 373.298L1779.65 376.898L1787.9 384.098L1758.35 538.447L1751.6 540.848L1756.55 545.048L1751.9 546.697L1756.1 550.298L1725.95 708.097L1437.95 653.048L1433.75 640.747L1425.35 650.347L1421.9 640.448L1414.85 648.548L1269.2 620.648L1370.6 91.2977L1382.45 87.0976L1372.85 78.8476Z" fill="#D3BDAB"/>
<path d="M1843.55 411.547H1741.4V797.947H1843.55V411.547Z" fill="#FFB23E"/>
<path d="M128 272.947H25.8499V659.347H128V272.947Z" fill="#FFB23E"/>
<path d="M472.7 632.194L457.55 553.443L0.949951 640.893L29 787.593L42.7999 792.393L32.3 801.544L45.5 806.194L34.3999 815.794L55.5499 926.493L66.0499 930.243L57.6499 937.294L87.2 1091.79L94.0999 1094.04L89.1499 1098.39L93.7999 1100.04L89.45 1103.64L119.75 1261.44L407.6 1206.39L411.8 1194.09L420.2 1203.69L423.65 1193.79L430.7 1201.89L576.5 1173.99L475.1 644.643L463.1 640.444L472.7 632.194Z" fill="#D3BDAB"/>
<path d="M1819.1 52.9004H44.9001V1221.85H1819.1V52.9004Z" fill="#872C8B"/>
</svg>
