<svg width="410" height="127" viewBox="0 0 410 127" fill="none" xmlns="http://www.w3.org/2000/svg">
<path d="M18.014 53.1108L81.8149 50.8809L81.4665 73.6807L17.377 69.731L18.004 53.1211L18.014 53.1108Z" fill="#623B17"/>
<path d="M81.0885 0.5L87.8369 0.669922L93.8586 48.3301L93.3809 79.6797L86.2842 126.54L78.0527 125.39L81.0885 0.5Z" fill="#623B17"/>
<path d="M11.1378 75.6104C17.289 75.6104 22.2756 69.2932 22.2756 61.5005C22.2756 53.7078 17.289 47.3906 11.1378 47.3906C4.98656 47.3906 0 53.7078 0 61.5005C0 69.2932 4.98656 75.6104 11.1378 75.6104Z" fill="#623B17"/>
<path d="M368.153 92.6016L368.84 47.9512L93.8689 48.3213L93.0527 77.2812L368.163 92.6016H368.153Z" fill="#FFB23E"/>
<path d="M368.879 47.9297L409.449 71.2998L368.133 92.5601L368.879 47.9297Z" fill="#FFB23E"/>
<path d="M368.163 75.1406L93.6602 65.8706V58.6406L368.183 67.0605L375.22 71.3306L368.163 75.1406Z" fill="#FFFBA6"/>
<path d="M90.0702 54L90.123 17.5L94.0811 46.5058L94.0348 78.5057L89.9993 103L90.0406 74.4999L90.0702 54Z" fill="#FFFBA6"/>
</svg>
