<svg width="471" height="378" viewBox="0 0 471 378" fill="none" xmlns="http://www.w3.org/2000/svg">
<path d="M533.793 32.4007C448.502 -2.44933 395.71 46.9207 379.964 75.9607C256.901 34.6207 209.383 113.371 201.003 157.911C174.198 157.911 145.662 193.841 134.753 211.811C64.6916 192.911 38.5442 250.691 34.2344 281.951C43.9787 362.281 117.494 357.261 153.028 344.711C187.755 386.651 262.942 379.901 296.196 371.291C330.316 381.921 378.441 366.861 398.238 358.001C445.148 369.811 479.716 362.921 491.143 358.001C589.83 397.571 637.855 358.741 649.54 334.371C742.136 366.851 768.333 299.181 769.856 261.281C755.235 180.361 683.551 182.281 649.54 193.361C648.316 175.051 618.068 162.111 603.088 157.921C605.526 75.2307 557.9 39.7909 533.793 32.4109V32.4007Z" fill="white" fill-opacity="0.3"/>
<path d="M500.41 12.43C415.12 -22.42 362.317 26.95 346.581 55.99C223.518 14.65 176.001 93.3997 167.62 137.94C140.816 137.94 112.279 173.87 101.37 191.84C31.3088 172.94 5.16136 230.72 0.851562 261.98C10.5959 342.31 84.1113 337.29 119.645 324.74C154.372 366.67 229.56 359.93 262.814 351.32C296.934 361.95 345.058 346.89 364.855 338.03C411.765 349.84 446.343 342.95 457.76 338.03C556.457 377.6 604.482 338.77 616.157 314.4C708.753 346.88 734.95 279.21 736.483 241.31C721.862 160.39 650.178 162.31 616.157 173.39C614.943 155.08 584.685 142.14 569.705 137.95C572.144 55.26 524.527 19.8197 500.41 12.4397V12.43Z" fill="white"/>
</svg>
