<svg width="791" height="461" viewBox="0 0 791 461" fill="none" xmlns="http://www.w3.org/2000/svg">
<path d="M413.645 1.18193C403.778 -2.53901 393.013 2.80978 389.425 13.0423C389.313 13.2749 389.313 13.5073 389.201 13.7398C359.488 18.7399 338.52 47.2283 341.996 78.6237L347.602 77.9262C344.463 50.368 362.515 25.2515 388.304 19.9027C388.416 27.926 393.126 35.3678 400.75 38.1585L470.493 64.2052L483.275 27.2283L413.645 1.18193ZM412.972 21.7633C411.851 25.0191 408.375 26.6469 405.235 25.4842C402.096 24.3214 400.526 20.7168 401.647 17.461C402.768 14.2052 406.244 12.5771 409.384 13.7398C412.523 15.0189 414.093 18.5075 412.972 21.7633Z" fill="#FFB23E"/>
<path d="M349.396 265.489C349.396 265.605 349.396 265.605 349.396 265.489L326.41 244.791L317.889 237.117L310.489 230.373C310.489 230.373 310.489 230.373 310.601 230.256C313.516 226.768 313.18 221.652 309.816 218.629C306.452 215.605 301.518 215.954 298.603 219.442C296.921 221.419 296.361 223.977 296.809 226.419C294.454 226.303 292.1 227.233 290.418 229.21C287.503 232.698 287.839 237.814 291.203 240.838C294.567 243.861 299.5 243.512 302.415 240.024C302.415 240.024 302.415 240.024 302.528 239.907L325.401 260.722L333.923 268.396L341.323 275.14C341.323 275.14 341.323 275.14 341.211 275.256C338.296 278.745 338.632 283.861 341.996 286.884C345.36 289.908 350.293 289.559 353.209 286.07C354.89 284.094 355.451 281.536 355.003 279.094C357.357 279.21 359.712 278.28 361.394 276.303C364.309 272.814 363.973 267.698 360.609 264.675C357.245 261.652 352.312 262.117 349.396 265.489Z" fill="#FFFACC"/>
<path d="M282.681 380.603C300.02 380.603 314.076 366.026 314.076 348.044C314.076 330.063 300.02 315.486 282.681 315.486C265.342 315.486 251.286 330.063 251.286 348.044C251.286 366.026 265.342 380.603 282.681 380.603Z" fill="#FFFACC"/>
<path d="M277.074 351.3C284.815 351.3 291.09 344.793 291.09 336.765C291.09 328.738 284.815 322.23 277.074 322.23C269.334 322.23 263.059 328.738 263.059 336.765C263.059 344.793 269.334 351.3 277.074 351.3Z" fill="#004561"/>
<path d="M276.918 336.544C280.881 334.888 283.269 331.421 282.251 328.8C281.232 326.179 277.194 325.397 273.23 327.052C269.267 328.708 266.879 332.176 267.897 334.797C268.916 337.418 272.954 338.2 276.918 336.544Z" fill="#0E708E"/>
<path d="M123.349 246.419C125.592 247.582 128.171 247.466 130.301 246.419C130.862 248.745 132.319 250.954 134.562 252.001C138.486 253.977 143.308 252.233 145.214 248.163C147.12 244.094 145.438 239.094 141.514 237.117H141.402L154.632 208.629L159.566 198.047C156.987 197.698 154.072 197.582 151.044 197.582C149.362 197.582 147.681 197.698 146.111 197.698L141.289 208.047L130.413 231.535H130.301C126.377 229.559 121.555 231.303 119.649 235.373C117.743 239.443 119.425 244.443 123.349 246.419Z" fill="#FFFACC"/>
<path opacity="0.83" d="M384.155 190.836C378.997 187.115 372.381 184.789 364.981 184.789H73.9021C66.6139 184.789 59.8863 187.115 54.7285 190.836H44.6372V209.324V240.487V381.766C44.6372 395.371 57.7559 406.301 73.79 406.301H364.869C381.015 406.301 394.022 395.254 394.022 381.766V240.487V209.324V190.836H384.155Z" fill="#A977AB"/>
<path d="M219.442 211.184C315.922 211.184 394.134 202.074 394.134 190.835C394.134 179.597 315.922 170.486 219.442 170.486C122.962 170.486 44.7495 179.597 44.7495 190.835C44.7495 202.074 122.962 211.184 219.442 211.184Z" fill="#C58FC9"/>
<path d="M184.907 142.929C182.665 141.766 180.086 141.882 177.955 142.929C177.395 140.603 175.937 138.394 173.695 137.347C169.77 135.37 164.949 137.115 163.043 141.184C161.136 145.254 162.818 150.254 166.743 152.231H166.855L153.624 180.719L148.69 191.301C151.269 191.65 154.185 191.766 157.212 191.766C158.894 191.766 160.576 191.649 162.146 191.649L166.967 181.301L177.843 157.812H177.955C181.88 159.789 186.701 158.045 188.607 153.975C190.513 149.789 188.832 144.905 184.907 142.929Z" fill="#FFFACC"/>
<path d="M358.927 110.373H79.8452C71.7721 110.373 65.2688 108.163 65.2688 105.489V56.0703H373.391V105.489C373.503 108.163 367 110.373 358.927 110.373Z" fill="#633A14"/>
<path d="M373.503 56.2983C373.503 53.1587 304.545 50.7168 219.441 50.7168C134.338 50.7168 65.3804 53.275 65.3804 56.2983C65.3804 59.3215 134.338 61.8797 219.441 61.8797C240.073 61.8797 259.695 61.7633 277.635 61.4144L293.893 76.8796L310.936 60.833C348.947 59.7865 373.503 58.1587 373.503 56.2983Z" fill="#FFB23E"/>
<path opacity="0.2" d="M380.903 424.667H58.0924C40.1522 424.667 25.688 409.318 25.688 390.365V149.086C25.688 130.132 40.1522 114.783 58.0924 114.783H380.903C398.843 114.783 413.307 130.132 413.307 149.086V390.365C413.307 409.202 398.843 424.667 380.903 424.667Z" fill="#89BEAA"/>
<path opacity="0.66" d="M373.279 114.672H65.7174C61.9051 114.672 58.8777 111.533 58.8777 107.579V89.7885C58.8777 85.835 61.9051 82.6953 65.7174 82.6953H373.279C377.091 82.6953 380.119 85.835 380.119 89.7885V107.579C380.119 111.533 376.979 114.672 373.279 114.672Z" fill="#89BEAA"/>
<path opacity="0.66" d="M69.1932 98.3934C71.3606 98.3934 73.1176 96.5713 73.1176 94.3237C73.1176 92.076 71.3606 90.2539 69.1932 90.2539C67.0258 90.2539 65.2688 92.076 65.2688 94.3237C65.2688 96.5713 67.0258 98.3934 69.1932 98.3934Z" fill="#A6DDC6"/>
<path opacity="0.66" d="M202.174 98.3903H85.4511C83.4329 98.3903 81.751 96.6461 81.751 94.5531V94.2045C81.751 92.1114 83.4329 90.3672 85.4511 90.3672H202.174C204.193 90.3672 205.874 92.1114 205.874 94.2045V94.5531C205.874 96.6461 204.193 98.3903 202.174 98.3903Z" fill="#A6DDC6"/>
<path d="M516.351 38.8633H504.242V425.375H516.351V38.8633Z" fill="#C9345A"/>
<path d="M574.657 38.8633H562.547V425.375H574.657V38.8633Z" fill="#C9345A"/>
<path d="M562.548 47.8164H516.24V416.538H562.548V47.8164Z" fill="white"/>
<path d="M504.355 91.0703H433.94V425.373H504.355V91.0703Z" fill="#DD5740"/>
<path d="M504.241 110.258H433.938V124.793H504.241V110.258Z" fill="#FFB23E"/>
<path d="M504.352 134.328H434.049V148.863H504.352V134.328Z" fill="#FFB23E"/>
<path d="M504.241 367.465H433.938V382H504.241V367.465Z" fill="#FFB23E"/>
<path d="M504.353 391.648H434.05V406.183H504.353V391.648Z" fill="#FFB23E"/>
<path d="M790.5 424.5H0V460.5H790.5V424.5Z" fill="#138699"/>
<path d="M682.957 55.9872L610.427 49.8672L581.502 418.53L654.032 424.65L682.957 55.9872Z" fill="#3C7C31"/>
<path d="M681.733 72.6161L609.204 66.4961L608.067 80.983L680.597 87.103L681.733 72.6161Z" fill="#FFB23E"/>
<path d="M656.504 393.542L583.974 387.422L582.837 401.909L655.367 408.029L656.504 393.542Z" fill="#FFB23E"/>
<path d="M645.514 238.404C647.121 217.922 642.469 200.815 635.125 200.195C627.78 199.575 620.523 215.677 618.916 236.16C617.309 256.642 621.96 273.749 629.305 274.368C636.65 274.988 643.907 258.886 645.514 238.404Z" fill="#FFB23E"/>
<path d="M747.55 129.949L732.691 132.266L773.791 415.712L788.649 413.395L747.55 129.949Z" fill="#A61E00"/>
<path d="M691.481 138.705L675.625 141.178L716.724 424.624L732.58 422.152L691.481 138.705Z" fill="#A61E00"/>
<path d="M733.751 139.439L692.503 145.871L731.518 414.944L772.766 408.512L733.751 139.439Z" fill="white"/>
<path d="M185.168 284.969H160.122V295.958H182.171V306.875H160.122V324H145.994V274.052H185.168V284.969ZM227.213 324L223.289 314.296H202.168L198.244 324H183.83L205.879 274.052H219.792L241.912 324H227.213ZM206.307 303.878H219.15L212.728 287.895L206.307 303.878ZM294.597 322.502L300.734 329.78C297.38 333.847 292.457 336.059 286.749 336.059C278.614 336.059 273.263 333.276 264.914 324.571C251.785 322.359 242.652 312.227 242.652 299.026C242.652 284.042 254.425 273.053 270.409 273.053C286.392 273.053 298.165 284.042 298.165 299.026C298.165 310.371 291.387 319.433 281.183 323.144C283.181 325.284 284.893 325.998 287.034 325.998C289.745 325.998 292.385 324.785 294.597 322.502ZM256.923 299.026C256.923 307.66 262.845 313.297 270.409 313.297C277.972 313.297 283.894 307.66 283.894 299.026C283.894 290.392 277.972 284.755 270.409 284.755C262.845 284.755 256.923 290.392 256.923 299.026Z" fill="white"/>
</svg>
