<svg width="178" height="296" viewBox="0 0 178 296" fill="none" xmlns="http://www.w3.org/2000/svg">
<path d="M157.79 267.989C156.128 278.499 169.466 290.858 176.333 295.728C230.918 242.698 334.582 34.8492 336.184 12.1992C337.796 -10.4508 311.42 6.31876 304.493 1.54876C302.233 8.11876 304.791 18.8092 308.514 22.0292C286.905 19.5392 282.983 10.5893 281.799 4.89935C275.3 9.68935 275.2 19.0086 278.007 22.8486C251.292 6.34856 230.549 13.4087 223.522 19.0087C258.11 26.3687 256.717 44.1693 251.7 52.1493C230.032 69.8193 189.243 43.3288 171.556 27.8788C169.426 42.3588 182.096 55.1387 188.695 59.7187C184.187 57.7887 177.936 58.6993 175.368 59.3993C183.699 61.9693 183.679 67.9588 182.624 70.6288C175.915 78.3088 161.682 70.4285 155.412 65.5185C141.009 53.8185 149.549 48.9186 155.611 47.9286C134.519 36.9886 118.007 44.0193 112.383 48.8993C78.303 71.9593 52.0858 54.7284 43.2373 43.2284C41.3362 55.4184 56.9928 66.5188 65.065 70.5488C61.223 76.8288 46.8703 77.4089 40.1816 76.9189C23.1714 74.2989 6.31042 53.5094 0 43.4394C2.40871 69.7994 39.246 93.2188 57.3611 101.629C57.2317 78.0488 75.7151 78.5384 84.9817 81.7284C116.952 90.0285 118.415 108.029 115.15 115.989C109.765 132.559 90.9835 122.639 82.2644 115.609C81.3686 117.219 85.4295 124.539 87.5695 127.999C100.399 148.159 121.889 158.439 131.036 161.059C128.896 158.649 130.588 154.028 131.703 152.018C139.904 146.678 150.614 152.209 154.944 155.649C166.938 164.789 167.614 179.079 166.45 185.079C161.135 189.629 149.38 183.408 144.164 179.728C142.044 178.538 140.432 172.859 139.894 170.179C137.107 168.919 129.851 169.439 126.567 169.859C115.797 171.049 114.304 177.539 114.911 180.639C124.934 176.589 135.724 183.159 140.671 187.569C147.18 191.529 154.267 204.109 156.994 209.909C155.78 215.859 156.457 236.979 156.954 246.799C145.528 239.779 140.004 242.309 138.67 244.439C152.545 248.309 157.203 261.749 157.8 267.989H157.79Z" fill="#C8355A"/>
<path d="M190.197 278.888C180.762 264.468 166.25 226.648 183.708 190.688C193.094 178.128 201.355 147.568 159.372 125.788C151.628 122.618 136.151 119.288 129.532 127.958C128.825 129.428 128.108 130.778 127.432 131.988C127.959 130.428 128.666 129.088 129.532 127.958C135.504 115.598 141.585 94.868 130.348 84.958C129.84 84.568 129.353 84.1876 128.895 83.8076C129.412 84.1676 129.89 84.558 130.348 84.958C143.098 94.758 170.589 108.498 189.54 92.7383C194.388 87.9983 203.475 75.4382 201.096 63.1582C213.419 72.5582 242.711 87.3679 261.294 71.3379C267.833 64.2279 278.892 46.8479 270.77 34.1279C283.221 40.3679 310.055 49.168 317.799 34.418C320.377 28.408 326.737 15.958 336.352 13.998C313.679 79.608 240.153 222.578 190.187 278.888H190.197Z" fill="#FBAA1D"/>
<path d="M43.4161 22.6498C31.074 17.5198 26.6049 23.9096 25.9082 27.7396C38.758 22.0196 48.4724 32.3594 51.7172 38.2494C56.0568 32.9294 47.9946 25.6298 43.4161 22.6498Z" fill="#C8355A"/>
</svg>
