<svg width="909" height="394" viewBox="0 0 909 394" fill="none" xmlns="http://www.w3.org/2000/svg">
<path d="M490.676 175.741C483.621 178.343 480.622 190.904 480.001 196.866C531.537 212.468 695.408 205.053 709.915 198.22C724.422 191.386 704.976 180.788 705.519 174.834C700.693 175.699 694.992 180.987 694.293 184.418C688.352 170.12 692.515 164.59 695.606 161.882C690.406 159.5 684.627 162.662 683.237 165.731C684.168 143.415 672.639 132.967 666.762 130.528C674.184 154.574 662.74 159.862 656.093 159.5C637.72 152.135 639.928 117.619 643.336 101.279C633.684 104.965 630.191 117.258 629.648 122.943C629.274 119.476 626.557 115.904 625.238 114.55C626.536 120.618 622.839 122.673 620.828 122.943C613.772 121.426 613.716 109.857 614.563 104.257C616.792 91.2556 622.761 94.8706 625.464 98.3017C624.906 81.4017 614.866 73.5686 609.92 71.7609C583.933 58.5472 585.486 36.2883 589.5 26.8104C581.337 29.8445 579.911 43.4195 580.222 49.8279C575.022 49.6081 569.702 40.889 567.691 36.5577C563.422 25.0736 570.4 7.40081 574.422 0C559.019 10.6121 557.333 41.6118 558.412 55.7825C572.891 47.5523 578.98 59.2135 580.222 66.0756C586.163 88.8238 575.579 95.9556 569.546 96.6786C557.481 99.0605 557.093 83.9539 558.412 76.0994C557.114 76.0994 554.002 81.1539 552.612 83.6846C544.632 98.6351 545.733 115.549 547.278 122.135C548.019 119.965 551.455 119.427 553.078 119.427C559.203 122.674 559.499 131.251 558.878 135.136C557.396 145.748 548.823 151.114 544.724 152.468C540.081 150.738 539.855 141.275 540.314 136.759C540.314 135.029 543.249 132.066 544.724 130.804C544.541 128.635 541.711 124.304 540.314 122.411C535.862 116.13 531.346 117.449 529.639 118.888C535.601 123.715 535.283 132.697 534.281 137.305C534.098 142.721 528.792 151.476 526.16 155.176C522.075 156.473 509.304 164.2 503.426 167.901C503.8 158.366 500.336 155.807 498.558 155.715C500.971 165.682 494.303 173.224 490.669 175.755L490.676 175.741Z" fill="#C8355A"/>
<path d="M495.172 199.659C500.788 188.806 519.07 166.703 547.258 165.129C558.237 166.618 579.919 161.195 578.819 127.558C578.099 121.646 574.79 110.878 567.162 109.758C566.012 109.822 564.933 109.85 563.959 109.843C565.102 109.63 566.168 109.609 567.162 109.758C576.843 109.198 591.717 105.809 593.932 95.4028C593.996 94.9491 594.066 94.5166 594.137 94.1055C594.087 94.5521 594.024 94.9845 593.932 95.4028C592.309 106.724 593.347 128.565 609.61 134.895C614.204 136.263 625.084 137.582 631.822 131.854C630.291 142.771 631.3 166.1 647.599 172.112C654.238 173.721 668.766 174.579 673.797 165.136C674.256 175.04 678.115 194.761 689.884 194.477C694.478 194.002 704.349 193.655 708.879 198.951C660.624 207.535 547.138 211.257 495.179 199.666L495.172 199.659Z" fill="#FBAA1D"/>
<path d="M525.039 203.772C528.955 198.2 544.139 185.418 563.783 184.61C571.431 185.376 586.538 182.59 585.769 165.315C585.268 162.28 582.961 156.744 577.647 156.17C576.843 156.205 576.095 156.22 575.418 156.212C576.215 156.099 576.956 156.092 577.647 156.17C584.393 155.879 594.751 154.143 596.296 148.798C596.338 148.564 596.388 148.344 596.437 148.131C596.402 148.358 596.36 148.585 596.296 148.798C595.167 154.61 595.887 165.832 607.218 169.079C610.422 169.781 618 170.454 622.699 167.519C621.633 173.126 622.339 185.107 633.692 188.197C638.32 189.027 648.446 189.466 651.945 184.61C652.263 189.693 654.958 199.83 663.15 199.681C666.353 199.433 673.226 199.256 676.387 201.978C642.766 206.387 561.243 209.726 525.032 203.772H525.039Z" fill="#FDD798"/>
<path d="M602.25 19.7917C601.15 10.3422 595.66 9.77536 593.057 10.6686C601.023 16.6799 598.01 26.2923 595.505 30.3472C600.282 31.2049 601.989 23.6693 602.243 19.7917H602.25Z" fill="#C8355A"/>
<path d="M278.086 190.553C282.926 192.337 284.983 200.954 285.409 205.044C250.057 215.747 137.647 210.66 127.696 205.972C117.744 201.285 131.084 194.015 130.711 189.93C134.021 190.524 137.932 194.151 138.411 196.505C142.487 186.697 139.631 182.904 137.511 181.046C141.078 179.412 145.042 181.581 145.996 183.686C145.357 168.378 153.266 161.211 157.297 159.538C152.206 176.033 160.056 179.66 164.616 179.412C177.219 174.36 175.704 150.683 173.366 139.474C179.988 142.003 182.383 150.435 182.756 154.335C183.013 151.957 184.876 149.506 185.781 148.577C184.891 152.74 187.427 154.15 188.806 154.335C193.646 153.294 193.685 145.358 193.104 141.517C191.575 132.598 187.48 135.078 185.626 137.432C186.009 125.839 192.896 120.466 196.289 119.226C214.115 110.162 213.05 94.8926 210.296 88.3911C215.896 90.4724 216.874 99.7844 216.661 104.18C220.228 104.03 223.877 98.0485 225.257 95.0774C228.185 87.1997 223.398 75.0767 220.639 70C231.205 77.2795 232.362 98.5444 231.621 108.265C221.69 102.619 217.513 110.619 216.661 115.326C212.586 130.93 219.846 135.822 223.984 136.318C232.26 137.952 232.527 127.59 231.621 122.202C232.512 122.202 234.647 125.669 235.6 127.405C241.074 137.661 240.319 149.263 239.259 153.78C238.751 152.292 236.394 151.923 235.281 151.923C231.079 154.15 230.876 160.034 231.302 162.699C232.318 169.978 238.199 173.659 241.011 174.588C244.196 173.402 244.351 166.91 244.036 163.812C244.036 162.626 242.023 160.593 241.011 159.728C241.137 158.24 243.078 155.269 244.036 153.97C247.09 149.662 250.188 150.566 251.359 151.553C247.269 154.865 247.487 161.026 248.175 164.187C248.3 167.902 251.94 173.908 253.745 176.446C256.548 177.336 265.308 182.636 269.34 185.174C269.084 178.634 271.46 176.879 272.68 176.815C271.024 183.652 275.598 188.826 278.091 190.562L278.086 190.553Z" fill="#C8355A"/>
<path d="M275.003 206.959C271.15 199.514 258.61 184.352 239.274 183.273C231.742 184.294 216.869 180.574 217.624 157.5C218.118 153.445 220.388 146.058 225.62 145.29C226.409 145.334 227.149 145.353 227.817 145.348C227.033 145.202 226.302 145.188 225.62 145.29C218.979 144.906 208.776 142.581 207.256 135.443C207.213 135.131 207.165 134.835 207.116 134.553C207.15 134.859 207.194 135.156 207.256 135.443C208.37 143.208 207.658 158.191 196.502 162.533C193.351 163.472 185.888 164.376 181.265 160.447C182.316 167.936 181.623 183.939 170.443 188.063C165.888 189.166 155.923 189.755 152.472 183.278C152.157 190.071 149.51 203.599 141.436 203.405C138.285 203.079 131.514 202.841 128.407 206.473C161.508 212.362 239.356 214.915 274.998 206.964L275.003 206.959Z" fill="#FBAA1D"/>
<path d="M254.515 209.781C251.828 205.959 241.413 197.191 227.938 196.637C222.691 197.162 212.329 195.251 212.856 183.401C213.2 181.319 214.783 177.522 218.427 177.128C218.979 177.152 219.492 177.162 219.957 177.157C219.41 177.079 218.901 177.074 218.427 177.128C213.8 176.928 206.695 175.737 205.635 172.071C205.606 171.91 205.572 171.759 205.538 171.613C205.562 171.769 205.591 171.925 205.635 172.071C206.409 176.058 205.916 183.756 198.142 185.983C195.945 186.464 190.747 186.926 187.523 184.913C188.254 188.759 187.77 196.977 179.982 199.098C176.807 199.667 169.862 199.968 167.461 196.637C167.243 200.124 165.394 207.077 159.775 206.975C157.578 206.805 152.864 206.683 150.695 208.551C173.758 211.575 229.68 213.866 254.52 209.781H254.515Z" fill="#FDD798"/>
<path d="M201.551 83.5762C202.306 77.0942 206.071 76.7054 207.857 77.3181C202.393 81.4417 204.46 88.0355 206.178 90.817C202.901 91.4054 201.73 86.2362 201.556 83.5762H201.551Z" fill="#C8355A"/>
<path d="M20.3629 232.461L2.20801 221.031L56.1153 221.441L20.3629 232.461Z" fill="#3B2412"/>
<path d="M2.76525 198.72L16.5407 185.74L883.825 182L883.427 218.44L837.831 223.49L889.519 228.24L882.412 311.33L848.79 325.7L882.203 330.06L881.705 374.96L12.9276 373.56L8.61782 371.22L9.22496 315.8L35.1136 300.34L6.9556 297.31L7.66229 232.9L18.82 232.98L55.1995 221.71L2.52637 221.31L2.7752 198.73L2.76525 198.72Z" fill="#E59F5E"/>
<path d="M18.5817 310.211L6.94629 297.291L35.1043 300.321L18.5718 310.201L18.5817 310.211Z" fill="#3B2412"/>
<path d="M27.3211 389.061L13.2471 373.041L882.015 374.961L897.622 393.041L27.3211 389.061Z" fill="#623B17"/>
<path d="M898.159 343.771L881.895 329.531L881.397 374.691L897.621 393.031L898.159 343.761V343.771Z" fill="#623B17"/>
<path d="M905.455 243.751L887.36 227.191L880.253 310.281L898.059 325.042L905.455 243.751Z" fill="#623B17"/>
<path d="M908.101 199.88L881.645 182.23L881.257 218.15L907.782 229.13L907.912 217.331L908.101 199.88Z" fill="#623B17"/>
<path d="M908.4 229.4L893.49 232.88L887.966 227.96L836.269 223.47L881.875 217.91L908.4 229.4Z" fill="#3B2412"/>
<g opacity="0.2">
<path opacity="0.2" d="M881.217 192.75C873.254 193.68 863.719 195.91 855.796 197.1C829.659 201.04 803.312 203.58 776.866 205.6C685.534 212.59 593.834 210.05 502.254 209.36C464.431 209.08 426.986 209.14 389.233 210.72C366.48 211.68 345.339 210.09 323.123 206.4C300.549 202.65 273.167 204.97 250.553 204.75C220.236 204.45 190.405 200.67 160.237 199.6C148.372 199.18 136.777 198.59 125.131 196.57C118.97 195.5 112.899 194.67 106.578 194.62C99.3621 194.57 92.5938 196.2 85.5568 196.27C71.8212 196.41 58.5733 197.61 45.0965 199.79C33.8293 201.61 24.085 203.96 12.5192 203.87C8.37858 203.84 8.55774 202.35 4.875 202.32" stroke="black" stroke-width="8" stroke-linecap="round"/>
<path opacity="0.2" d="M4.84615 212.671C6.65766 212.851 3.10431 212.491 4.84615 212.821C8.85735 213.591 13.9535 212.941 18.0741 212.971C23.7376 213.011 30.1475 213.751 35.7314 212.901C41.0066 212.101 45.7544 210.371 51.179 209.801C60.1867 208.851 69.2443 209.111 78.262 208.401C94.8741 207.091 106.808 211.391 123.46 210.351C139.256 209.361 158.108 213.831 173.924 213.951C191.879 214.091 212.085 210.97 229.692 214.37C260.179 220.26 286.595 223.871 317.53 228.701C352.009 234.081 386.527 239.971 420.886 245.861C457.056 252.061 494.202 257.271 531.219 257.551C548.757 257.681 566.304 257.071 583.902 257.041C609.552 257.001 632.564 241.321 656.302 234.961C675.632 229.791 694.603 222.081 714.33 218.211C744.698 212.251 775.693 217.771 806.339 218.001C813.147 218.051 822.772 218.791 828.465 215.001C832.467 212.341 841.126 209.541 846.372 209.251C852.931 208.901 859.062 206.631 865.82 206.681C871.076 206.721 876.341 206.761 881.596 206.801" stroke="black" stroke-width="8" stroke-linecap="round"/>
<path opacity="0.2" d="M10.2901 247.02C28.9327 247.16 39.1747 247.14 57.6083 244.53C83.278 240.9 109.017 237.59 134.737 234.15C156.455 231.25 177.248 227.73 199.324 227.9C219.44 228.05 240.282 226.91 260.109 230.17C290.636 235.18 320.247 242.45 351.093 246.04C356.378 246.66 361.902 246.92 367.227 247.32C371.965 247.67 375.727 250.17 380.236 251.04C382.077 251.39 383.959 254.87 383.998 256.25C384.138 260.4 380.485 262.24 376.036 262.93C367.257 264.29 360.389 260.89 351.919 259.48C344.394 258.23 335.396 258.34 327.772 258.95C319.899 259.57 312.075 261.4 304.302 262.59C294.329 264.12 283.191 262.93 273.098 262.86C247.976 262.67 223.232 265.91 198.169 265.92C183.339 265.92 168.28 267.12 153.479 267.9C142.819 268.46 131.88 268.34 121.29 269.47C116.124 270.02 111.068 271.29 105.852 271.52C84.1141 272.45 60.8531 275.37 40.1999 281.23C36.4973 282.28 8.23972 289.86 5.52246 285.25" stroke="black" stroke-width="8" stroke-linecap="round"/>
<path opacity="0.2" d="M33.9404 299.95C54.305 300.1 74.7093 299.35 95.1236 299.51C138.988 299.84 182.733 304.07 226.667 303.16C239.367 302.9 252.088 301.42 264.808 300.98C276.832 300.57 288.637 300.72 300.521 298.74C321.074 295.3 340.135 290.68 359.723 284.76C370.811 281.41 381.183 277.35 391.236 272.28C397.178 269.29 403.468 268.81 409.858 267.29C425.863 263.49 446.546 268.43 462.76 269.5C473.918 270.23 485.414 270.49 496.612 270.81C510.278 271.2 524.342 272.66 537.988 271.88C546.558 271.39 554.222 270.52 562.543 268.85C572.954 266.76 583.634 266.4 594.154 264.82C616.768 261.41 639.293 258.9 661.698 254.52C671.153 252.67 680.072 249.44 689.746 248.3C698.525 247.26 707.274 247.32 716.053 245.83C722.831 244.68 732.934 240.21 739.881 242.04C744.39 243.23 747.904 246.31 752.074 248.01C758.136 250.48 765.163 252.07 771.871 252.83C779.287 253.68 786.523 253.29 793.948 254.6C802.338 256.08 810.5 257.89 818.772 259.71C833.463 262.95 847.686 263.9 862.646 265.27C869.952 265.94 877.138 267.09 883.846 264.37" stroke="black" stroke-width="8" stroke-linecap="round"/>
<path opacity="0.2" d="M10.5791 333.501C51.338 333.811 87.5782 345.451 128.317 347.261C155.39 348.461 182.762 348.731 209.835 347.451C230.419 346.481 251.38 347.041 271.854 344.941C342.075 337.721 407.807 313.951 477.102 303.501C498.592 300.261 520.021 300.951 541.749 301.111C553.852 301.201 565.179 301.441 577.123 302.871C595.567 305.071 613.165 309.661 631.429 312.321C649.265 314.921 666.863 317.431 684.799 319.211C696.852 320.411 709.612 319.611 721.736 319.701C733.252 319.791 745.036 320.501 756.493 319.481C766.665 318.581 776.987 319.301 787.199 319.231C796.774 319.161 806.329 317.641 815.864 317.531C825.499 317.421 834.626 314.801 844.48 314.871C851.328 314.921 858.166 315.931 864.705 315.981" stroke="black" stroke-width="8" stroke-linecap="round"/>
<path opacity="0.2" d="M879.348 351.52C865.154 351.41 850.881 351.64 836.698 350.99C815.686 350.01 794.923 346.529 773.932 345.199C749.656 343.659 724.822 343.66 700.466 343.48C668.695 343.24 636.924 343 605.143 342.76C576.736 342.55 548.309 343.11 520.122 340.42C499.508 338.46 478.537 339.4 458.172 342.61C454.051 343.26 449.702 343.859 445.81 345.179C443.63 345.919 440.017 345.349 437.847 345.389C427.416 345.589 416.935 346.62 406.604 347.76C371.767 351.61 339.2 359.92 303.825 359.65C287.044 359.52 270.741 356.53 254.138 356.4C222.537 356.16 190.955 354.97 159.273 354.73C144.542 354.62 131.155 355.31 116.653 357.28C103.485 359.07 90.7642 359 77.4466 358.9C59.6401 358.77 39.813 360.599 23.1511 354.179C19.3987 352.729 15.3477 350.62 11.6451 348.83C9.64446 347.86 10.6199 349.249 9.80371 347.869" stroke="black" stroke-width="8" stroke-linecap="round"/>
<path opacity="0.2" d="M882.423 281.64C858.037 281.46 832.467 282.7 808.449 278.69C799.382 277.18 790.185 276.98 781.317 274.6C769.691 271.48 759.081 269.58 746.749 269.18C732.306 268.71 717.784 268.91 703.332 268.8C687.825 268.68 673.442 270.68 658.194 272.5C636.764 275.07 612.07 272.44 591.686 279.93C585.604 282.16 578.856 282.52 573.123 285.48C568.594 287.82 571.152 287.64 575.282 288C580.418 288.44 586.49 290.29 591.437 291.47C600.345 293.61 609.592 295.09 618.35 297.1C636.446 301.24 657.417 299.1 676.01 299.24C698.007 299.41 717.406 294.22 737.751 287.31C749.297 283.39 762.256 279.78 774.827 279.87C787.806 279.97 799.253 285.52 811.824 285.89C823.708 286.25 835.483 287.98 847.387 288.07C852.354 288.11 855.887 288.07 860.336 289.87C862.496 290.74 867.363 291.94 869.563 292.07C873.067 292.27 878.023 292.77 881.109 294.07" stroke="black" stroke-width="8" stroke-linecap="round"/>
<path opacity="0.2" d="M878.709 303.641C852.213 303.441 849.128 295.281 822.771 295.081C808.15 294.971 789.139 287.701 774.518 287.591C755.756 287.451 718.739 302.441 700.136 302.301C686.381 302.201 672.456 306.831 658.74 306.721C646.587 306.631 632.732 305.081 619.425 303.701C600.961 303.561 587.245 296.511 569.26 293.171C560.511 291.551 552.478 288.521 544.157 285.851C531.656 281.841 517.552 279.931 504.205 279.751C486.189 279.511 465.158 276.991 448.277 283.371C440.533 286.301 432.501 288.771 424.548 291.281C415.192 294.231 409.419 294.271 399.077 294.761C377.927 295.751 357.403 300.731 336.73 304.291C322.168 306.801 307.467 308.441 292.845 310.721C282.802 312.281 272.531 313.691 262.786 316.241C247.558 320.221 231.095 319.301 215.339 319.931C186.872 321.071 158.147 324.441 129.72 324.821C112.879 325.041 96.3166 326.341 79.4955 324.231C69.0843 322.921 59.6983 319.271 49.5658 317.511C42.5885 316.301 36.1885 313.681 29.5198 311.611C26.2252 310.591 22.8709 310.651 19.8252 308.931" stroke="black" stroke-width="8" stroke-linecap="round"/>
</g>
<path d="M898.059 324.781L885.568 333.411L882.194 330.051L848.472 325.691L880.561 310.281L898.059 324.781Z" fill="#3B2412"/>
<path d="M398.968 256.816H361.562V273.227H394.492V289.533H361.562V315.109H340.461V240.51H398.968V256.816ZM461.765 315.109L455.904 300.616H424.359L418.498 315.109H396.97L429.901 240.51H450.682L483.718 315.109H461.765ZM430.54 285.057H449.723L440.131 261.185L430.54 285.057ZM562.406 312.871L571.571 323.742C566.562 329.816 559.209 333.12 550.684 333.12C538.535 333.12 530.542 328.963 518.073 315.962C498.464 312.658 484.823 297.525 484.823 277.81C484.823 255.43 502.407 239.018 526.279 239.018C550.151 239.018 567.735 255.43 567.735 277.81C567.735 294.755 557.611 308.289 542.371 313.831C545.355 317.028 547.913 318.093 551.11 318.093C555.159 318.093 559.103 316.282 562.406 312.871ZM506.137 277.81C506.137 290.705 514.983 299.124 526.279 299.124C537.575 299.124 546.421 290.705 546.421 277.81C546.421 264.915 537.575 256.496 526.279 256.496C514.983 256.496 506.137 264.915 506.137 277.81Z" fill="#763417"/>
</svg>
