<svg width="909" height="212" viewBox="0 0 909 212" fill="none" xmlns="http://www.w3.org/2000/svg">
<path d="M20.5797 50.8521L2.4248 39.4219L56.3321 39.832L20.5797 50.8521Z" fill="#3B2412"/>
<path d="M2.98203 17.1011L16.7575 4.12109L884.042 0.380859L883.644 36.8208L838.048 41.8711L889.735 46.6211L882.629 129.711L849.006 144.081L882.42 148.441L881.922 193.341L13.1444 191.941L8.83461 189.601L9.44175 134.181L35.3304 118.721L7.17238 115.691L7.87909 51.2808L19.0368 51.3608L55.4163 40.0908L2.74316 39.6909L2.992 17.1108L2.98203 17.1011Z" fill="#E59F5E"/>
<path d="M18.7975 128.592L7.16211 115.672L35.3201 118.702L18.7876 128.582L18.7975 128.592Z" fill="#3B2412"/>
<path d="M27.5369 207.442L13.4629 191.422L882.231 193.342L897.837 211.422L27.5369 207.442Z" fill="#623B17"/>
<path d="M898.375 162.15L882.111 147.91L881.613 193.07L897.837 211.41L898.375 162.14V162.15Z" fill="#623B17"/>
<path d="M905.671 62.1304L887.575 45.5703L880.469 128.661L898.275 143.42L905.671 62.1304Z" fill="#623B17"/>
<path d="M908.319 18.271L881.863 0.621094L881.475 36.541L908 47.521L908.13 35.7212L908.319 18.271Z" fill="#623B17"/>
<path d="M908.617 47.7808L893.707 51.2607L888.183 46.3408L836.485 41.8511L882.092 36.291L908.617 47.7808Z" fill="#3B2412"/>
<g opacity="0.05">
<path d="M881.444 11.1406C873.481 12.0706 863.946 14.3007 856.023 15.4907C829.885 19.4307 803.539 21.9707 777.093 23.9907C685.761 30.9807 594.061 28.4405 502.48 27.7505C464.657 27.4705 427.213 27.5304 389.46 29.1104C366.707 30.0704 345.566 28.4805 323.35 24.7905C300.776 21.0405 273.394 23.3606 250.78 23.1406C220.462 22.8406 190.632 19.0607 160.463 17.9907C148.599 17.5707 137.003 16.9804 125.358 14.9604C119.197 13.8904 113.125 13.0603 106.805 13.0103C99.5887 12.9603 92.8204 14.5906 85.7834 14.6606C72.0478 14.8006 58.7999 16.0007 45.323 18.1807C34.0558 20.0007 24.3115 22.3503 12.7458 22.2603C8.60516 22.2303 8.7843 20.7404 5.10156 20.7104" stroke="black" stroke-width="8" stroke-linecap="round"/>
<path d="M5.06294 31.0511C6.87445 31.2311 3.32111 30.8715 5.06294 31.2015C9.07414 31.9715 14.1702 31.3214 18.2909 31.3514C23.9544 31.3914 30.3644 32.1311 35.9482 31.2811C41.2235 30.4811 45.9712 28.7515 51.3958 28.1815C60.4035 27.2315 69.4611 27.4911 78.4788 26.7811C95.091 25.4711 107.025 29.7713 123.677 28.7313C139.473 27.7413 158.325 32.2114 174.14 32.3314C192.096 32.4714 212.302 29.3513 229.909 32.7513C260.396 38.6413 286.812 42.2514 317.747 47.0814C352.226 52.4614 386.744 58.3515 421.103 64.2415C457.273 70.4415 494.419 75.6515 531.436 75.9315C548.973 76.0615 566.521 75.4512 584.119 75.4212C609.768 75.3812 632.78 59.7011 656.519 53.3411C675.849 48.1711 694.82 40.4611 714.547 36.5911C744.915 30.6311 775.91 36.1512 806.556 36.3812C813.364 36.4312 822.989 37.1712 828.682 33.3812C832.684 30.7212 841.343 27.9212 846.588 27.6312C853.148 27.2812 859.279 25.0114 866.037 25.0614C871.292 25.1014 876.558 25.1415 881.813 25.1815" stroke="black" stroke-width="8" stroke-linecap="round"/>
<path d="M10.5069 65.4009C29.1496 65.5409 39.3915 65.5211 57.8251 62.9111C83.4948 59.2811 109.234 55.9707 134.954 52.5307C156.672 49.6307 177.464 46.1107 199.541 46.2807C219.657 46.4307 240.499 45.2908 260.326 48.5508C290.853 53.5608 320.464 60.8309 351.309 64.4209C356.595 65.0409 362.119 65.3012 367.444 65.7012C372.182 66.0512 375.944 68.5509 380.453 69.4209C382.294 69.7709 384.175 73.2508 384.215 74.6308C384.355 78.7808 380.702 80.621 376.252 81.311C367.474 82.671 360.606 79.2708 352.136 77.8608C344.611 76.6108 335.613 76.721 327.989 77.331C320.116 77.951 312.292 79.7812 304.519 80.9712C294.545 82.5012 283.408 81.3112 273.315 81.2412C248.193 81.0512 223.449 84.2908 198.386 84.3008C183.556 84.3008 168.496 85.5007 153.696 86.2807C143.036 86.8407 132.097 86.7211 121.507 87.8511C116.341 88.4011 111.285 89.6709 106.069 89.9009C84.3308 90.8309 61.0699 93.7508 40.4167 99.6108C36.7141 100.661 8.45652 108.241 5.73926 103.631" stroke="black" stroke-width="8" stroke-linecap="round"/>
<path d="M34.1553 118.331C54.5198 118.481 74.9242 117.731 95.3385 117.891C139.203 118.221 182.948 122.451 226.882 121.541C239.582 121.281 252.303 119.801 265.023 119.361C277.047 118.951 288.851 119.101 300.736 117.121C321.289 113.681 340.35 109.061 359.938 103.141C371.026 99.7911 381.398 95.7311 391.45 90.6611C397.393 87.6711 403.683 87.1909 410.073 85.6709C426.078 81.8709 446.761 86.8108 462.975 87.8808C474.133 88.6108 485.629 88.8709 496.827 89.1909C510.492 89.5809 524.556 91.0407 538.203 90.2607C546.772 89.7707 554.436 88.9009 562.757 87.2309C573.169 85.1409 583.849 84.7811 594.369 83.2011C616.983 79.7911 639.508 77.2808 661.913 72.9008C671.368 71.0508 680.287 67.8211 689.961 66.6811C698.74 65.6411 707.489 65.7009 716.268 64.2109C723.046 63.0609 733.149 58.5909 740.096 60.4209C744.605 61.6109 748.119 64.6911 752.289 66.3911C758.351 68.8611 765.378 70.4509 772.086 71.2109C779.502 72.0609 786.738 71.6709 794.163 72.9809C802.553 74.4609 810.715 76.2708 818.986 78.0908C833.678 81.3308 847.901 82.2808 862.861 83.6508C870.166 84.3208 877.353 85.4709 884.061 82.7509" stroke="black" stroke-width="8" stroke-linecap="round"/>
<path d="M10.7959 151.882C51.5548 152.192 87.7949 163.832 128.534 165.642C155.607 166.842 182.979 167.112 210.052 165.832C230.635 164.862 251.597 165.422 272.071 163.322C342.292 156.102 408.024 132.332 477.319 121.882C498.808 118.642 520.238 119.332 541.966 119.492C554.069 119.582 565.396 119.822 577.34 121.252C595.784 123.452 613.381 128.042 631.646 130.702C649.482 133.302 667.08 135.812 685.015 137.592C697.069 138.792 709.829 137.992 721.952 138.082C733.468 138.172 745.253 138.882 756.709 137.862C766.882 136.962 777.203 137.682 787.415 137.612C796.991 137.542 806.546 136.022 816.081 135.912C825.716 135.802 834.843 133.182 844.697 133.252C851.545 133.302 858.383 134.312 864.922 134.362" stroke="black" stroke-width="8" stroke-linecap="round"/>
<path d="M879.563 169.91C865.369 169.8 851.096 170.03 836.913 169.38C815.901 168.4 795.138 164.92 774.147 163.59C749.871 162.05 725.037 162.05 700.681 161.87C668.91 161.63 637.139 161.39 605.358 161.15C576.951 160.94 548.524 161.5 520.336 158.81C499.723 156.85 478.751 157.79 458.387 161C454.266 161.65 449.917 162.25 446.025 163.57C443.845 164.31 440.232 163.74 438.062 163.78C427.631 163.98 417.15 165.01 406.819 166.15C371.982 170 339.415 178.31 304.04 178.04C287.259 177.91 270.955 174.92 254.353 174.79C222.751 174.55 191.169 173.36 159.488 173.12C144.757 173.01 131.37 173.7 116.868 175.67C103.699 177.46 90.9791 177.39 77.6615 177.29C59.855 177.16 40.0279 178.99 23.366 172.57C19.6136 171.12 15.5626 169.01 11.86 167.22C9.85934 166.25 10.8347 167.64 10.0186 166.26" stroke="black" stroke-width="8" stroke-linecap="round"/>
<path d="M882.637 100.021C858.252 99.8408 832.682 101.081 808.664 97.0706C799.597 95.5606 790.4 95.3607 781.531 92.9807C769.906 89.8607 759.296 87.9608 746.964 87.5608C732.521 87.0908 717.999 87.2909 703.547 87.1809C688.04 87.0609 673.657 89.0606 658.409 90.8806C636.979 93.4506 612.285 90.8208 591.9 98.3108C585.819 100.541 579.07 100.901 573.337 103.861C568.809 106.201 571.367 106.021 575.497 106.381C580.633 106.821 586.705 108.671 591.652 109.851C600.56 111.991 609.806 113.471 618.565 115.481C636.661 119.621 657.632 117.481 676.225 117.621C698.222 117.791 717.621 112.601 737.966 105.691C749.512 101.771 762.471 98.1608 775.042 98.2508C788.021 98.3508 799.467 103.901 812.038 104.271C823.923 104.631 835.698 106.361 847.602 106.451C852.568 106.491 856.102 106.451 860.551 108.251C862.711 109.121 867.578 110.321 869.778 110.451C873.281 110.651 878.238 111.151 881.324 112.451" stroke="black" stroke-width="8" stroke-linecap="round"/>
<path d="M878.936 122.022C852.44 121.822 849.354 113.662 822.998 113.462C808.376 113.352 789.366 106.082 774.744 105.972C755.982 105.832 718.966 120.822 700.363 120.682C686.607 120.582 672.683 125.212 658.967 125.102C646.814 125.012 632.959 123.462 619.651 122.082C601.188 121.942 587.472 114.892 569.486 111.552C560.737 109.932 552.705 106.902 544.384 104.232C531.883 100.222 517.779 98.3119 504.431 98.1319C486.416 97.8919 465.384 95.372 448.503 101.752C440.76 104.682 432.727 107.152 424.775 109.662C415.418 112.612 409.646 112.652 399.304 113.142C378.153 114.132 357.629 119.112 336.956 122.672C322.395 125.182 307.693 126.822 293.072 129.102C283.029 130.662 272.757 132.072 263.013 134.622C247.784 138.602 231.321 137.682 215.565 138.312C187.099 139.452 158.373 142.822 129.947 143.202C113.106 143.422 96.5432 144.722 79.7221 142.612C69.3109 141.302 59.9249 137.652 49.7924 135.892C42.8151 134.682 36.415 132.062 29.7463 129.992C26.4517 128.972 23.0975 129.032 20.0518 127.312" stroke="black" stroke-width="8" stroke-linecap="round"/>
</g>
<path d="M898.275 143.16L885.784 151.79L882.409 148.43L848.688 144.07L880.777 128.66L898.275 143.16Z" fill="#3B2412"/>
<path d="M88.004 134.031C105.595 134.031 119.855 119.968 119.855 102.621C119.855 85.2738 105.595 71.2109 88.004 71.2109C70.4134 71.2109 56.1533 85.2738 56.1533 102.621C56.1533 119.968 70.4134 134.031 88.004 134.031Z" fill="#D9D9D8"/>
<path d="M109.822 80.1016L60.8613 118.622L63.8075 122.771L113.355 83.6616L109.812 80.1016H109.822Z" fill="#757575"/>
<path d="M798.931 117.23C816.521 117.23 830.781 103.167 830.781 85.8198C830.781 68.4726 816.521 54.4102 798.931 54.4102C781.34 54.4102 767.08 68.4726 767.08 85.8198C767.08 103.167 781.34 117.23 798.931 117.23Z" fill="#D9D9D8"/>
<path d="M820.749 63.3008L771.788 101.821L774.734 105.971L824.282 66.8608L820.739 63.3008H820.749Z" fill="#757575"/>
<path d="M274.764 132.492C263.894 132.492 254.622 128.655 248.868 121.515L260.377 107.874C264.32 112.99 268.477 115.654 273.272 115.654C279.347 115.654 282.65 111.924 282.65 104.784V72.7062H256.86V56.401H303.538V103.505C303.538 122.901 293.52 132.492 274.764 132.492ZM345.808 131.959C326.945 131.959 313.198 119.49 313.198 102.013C313.198 84.642 326.945 72.2799 345.808 72.2799C364.884 72.2799 378.418 84.642 378.418 102.013C378.418 119.49 364.884 131.959 345.808 131.959ZM345.808 115.867C352.735 115.867 357.957 110.858 357.957 102.013C357.957 93.2742 352.735 88.372 345.808 88.372C338.988 88.372 333.659 93.2742 333.659 102.013C333.659 110.858 338.988 115.867 345.808 115.867ZM397.922 66.8449C390.463 66.8449 385.56 62.1558 385.56 56.0813C385.56 50.0068 390.463 45.3177 397.922 45.3177C405.382 45.3177 410.285 49.6871 410.285 55.7616C410.285 62.1558 405.382 66.8449 397.922 66.8449ZM387.798 131V73.2391H408.047V131H387.798ZM458.825 72.2799C472.359 72.2799 482.696 80.0595 482.696 97.9633V131H462.448V101.267C462.448 92.9545 458.825 89.4377 452.963 89.4377C446.463 89.4377 441.454 93.4874 441.454 103.079V131H421.205V73.2391H440.495V79.5267C445.077 74.731 451.578 72.2799 458.825 72.2799ZM561.804 132.492C539.744 132.492 526.742 120.023 526.742 97.7502V56.401H547.843V97.1107C547.843 109.899 553.172 115.014 562.017 115.014C570.756 115.014 576.084 109.899 576.084 97.1107V56.401H596.865V97.7502C596.865 120.023 583.864 132.492 561.804 132.492ZM631.195 131.959C621.391 131.959 611.266 129.508 605.618 125.991L611.693 112.137C617.021 115.441 624.801 117.466 631.834 117.466C638.655 117.466 640.893 115.974 640.893 113.523C640.893 105.743 606.79 114.588 606.79 91.4625C606.79 80.5924 616.808 72.2799 634.925 72.2799C643.024 72.2799 651.976 73.985 657.731 77.1822L651.656 90.9297C645.902 87.7326 640.147 86.6669 635.032 86.6669C628.211 86.6669 625.76 88.5851 625.76 90.7165C625.76 98.7093 659.756 90.0771 659.756 112.99C659.756 123.647 649.951 131.959 631.195 131.959Z" fill="#763417"/>
</svg>
