<svg width="411" height="127" viewBox="0 0 411 127" fill="none" xmlns="http://www.w3.org/2000/svg">
<path d="M18.764 53.4902L82.5649 51.2598L82.2165 74.0596L18.127 70.1104L18.754 53.4902H18.764Z" fill="#623B17"/>
<path d="M81.8385 0.869141L88.5869 1.03906L94.6086 48.6992L94.1309 80.0488L87.0342 126.909L78.8027 125.759L81.8385 0.869141Z" fill="#623B17"/>
<path d="M11.8878 75.9795C18.039 75.9795 23.0256 69.6629 23.0256 61.8701C23.0256 54.0774 18.039 47.7598 11.8878 47.7598C5.73656 47.7598 0.75 54.0774 0.75 61.8701C0.75 69.6629 5.73656 75.9795 11.8878 75.9795Z" fill="#623B17"/>
<path d="M368.903 92.9795L369.59 48.3301L94.6189 48.7002L93.8027 77.6602L368.913 92.9795H368.903Z" fill="#C8C8C8"/>
<path d="M369.629 48.3105L410.199 71.6807L368.883 92.9404L369.629 48.3105Z" fill="#C8C8C8"/>
<path d="M368.913 75.5098L94.4102 66.2402V59.0098L368.933 67.4297L375.97 71.7002L368.913 75.5098Z" fill="#DAD9D9"/>
</svg>
