<svg width="242" height="94" viewBox="0 0 242 94" fill="none" xmlns="http://www.w3.org/2000/svg">
<path opacity="0.11" d="M195.137 31.4515C192.823 31.4515 190.55 31.6226 188.327 31.9566C182.054 13.6735 164.728 0.523438 144.315 0.523438C121.018 0.523438 101.72 17.6495 98.3152 39.9982C90.7314 34.6209 81.4696 31.4596 71.4665 31.4596C52.894 31.4596 36.863 42.3447 29.4014 58.0858C28.5461 58.0043 27.6826 57.9554 26.811 57.9554C12.067 57.9554 0.117188 69.9078 0.117188 84.6549V88.7287C0.117188 91.4255 2.30026 93.609 4.99653 93.609H233.153C237.853 93.609 241.666 89.796 241.666 85.0948V77.9902C241.666 52.2847 220.837 31.4515 195.137 31.4515Z" fill="#EBF6F7"/>
</svg>
