<svg width="228" height="75" viewBox="0 0 228 75" fill="#fff" xmlns="http://www.w3.org/2000/svg">
<path d="M68.1864 2.14673H74.9482V12.6893H85.3961V2.13089H92.1579V28.0003H85.3961V18.0676H74.9482V28.0003H68.1864V2.14673Z"/>
<path d="M116.201 28.0003L114.425 23.43H103.232L101.425 28.0003H94.4805L105.594 2.13089H112.538L123.398 28.0003H116.209H116.201ZM105.269 18.2656H112.427L108.892 9.03785L105.269 18.2656Z"/>
<path d="M140.759 8.39625C139.609 7.7705 138.452 7.46159 137.318 7.46159C136.018 7.46159 134.829 7.79427 133.743 8.43585C132.673 9.09328 131.833 9.98042 131.207 11.1369C130.596 12.2854 130.287 13.5527 130.287 14.9547C130.287 16.3567 130.596 17.6319 131.207 18.7725C131.817 19.921 132.673 20.8082 133.743 21.4735C134.813 22.131 135.995 22.4636 137.318 22.4636C138.373 22.4636 139.49 22.2022 140.64 21.6557C141.789 21.1092 142.828 20.3725 143.731 19.4379L147.679 23.6834C146.276 25.1646 144.603 26.329 142.677 27.2003C140.751 28.0716 138.825 28.5151 136.93 28.5151C134.362 28.5151 132.055 27.9211 129.986 26.7409C127.909 25.5607 126.3 23.9448 125.111 21.9092C123.93 19.8735 123.335 17.5844 123.335 15.0497C123.335 12.5151 123.945 10.2814 125.142 8.25367C126.347 6.23386 128.004 4.6497 130.113 3.50118C132.221 2.35266 134.576 1.77444 137.192 1.77444C139.118 1.77444 141.012 2.17049 142.883 2.97841C144.762 3.78633 146.339 4.87148 147.64 6.24971L143.724 10.9705C142.899 9.88536 141.9 9.04576 140.743 8.42002L140.759 8.39625Z"/>
<path d="M175.472 28.0003H167.394L160.592 17.9646L157.35 21.5844V28.0003H150.588V2.14673H157.35V13.3626L167.061 2.14673H174.893L165.301 12.8002L175.472 28.0003Z"/>
<path d="M68.0913 47.6994H74.8531V73.5688H68.0913V47.6994Z"/>
<path d="M79.8788 47.6994H86.6406V67.8103H97.6037V73.5688H79.8788V47.6994Z"/>
<path d="M102.741 47.6994H109.502V67.8103H120.466V73.5688H102.741V47.6994Z"/>
<path d="M124.231 47.6994H130.993V73.5688H124.231V47.6994Z"/>
<path d="M154.401 47.6994H160.672V73.5688H154.766L143.034 58.1073V73.5688H136.716V47.6994H142.661L154.449 63.2717L154.417 47.6994H154.401Z"/>
<path d="M185.919 49.0301C188.044 50.1786 189.724 51.7786 190.937 53.7825C192.158 55.8024 192.76 58.0598 192.76 60.5786C192.76 63.0974 192.15 65.3945 190.937 67.438C189.716 69.4737 188.044 71.0895 185.919 72.2697C183.795 73.4499 181.409 74.044 178.777 74.044C176.145 74.044 173.759 73.4658 171.635 72.2856C169.51 71.1212 167.83 69.5054 166.617 67.4539C165.396 65.3945 164.794 63.1133 164.794 60.5786C164.794 58.0439 165.404 55.8103 166.617 53.7825C167.83 51.7548 169.51 50.1786 171.635 49.0301C173.759 47.8815 176.145 47.2875 178.777 47.2875C181.409 47.2875 183.779 47.8657 185.919 49.0301ZM175.273 54.0122C174.171 54.6697 173.315 55.5885 172.673 56.7608C172.031 57.9251 171.722 59.2083 171.722 60.6103C171.722 62.0123 172.055 63.343 172.713 64.5073C173.371 65.6717 174.227 66.5984 175.313 67.2717C176.399 67.945 177.588 68.2935 178.848 68.2935C180.109 68.2935 181.298 67.945 182.368 67.2717C183.438 66.5984 184.278 65.6796 184.905 64.5073C185.515 63.343 185.824 62.044 185.824 60.6103C185.824 59.1766 185.515 57.9331 184.905 56.7608C184.294 55.5964 183.438 54.6697 182.368 54.0122C181.298 53.3548 180.117 53.0063 178.848 53.0063C177.58 53.0063 176.383 53.339 175.273 54.0122Z"/>
<path d="M195.797 47.6994H202.558V73.5688H195.797V47.6994Z"/>
<path d="M220.664 53.4895C219.102 52.9826 217.786 52.7133 216.732 52.7133C215.892 52.7133 215.234 52.8637 214.758 53.1727C214.283 53.4816 214.037 53.9331 214.037 54.5192C214.037 55.0816 214.251 55.5568 214.663 55.937C215.075 56.3172 215.598 56.6261 216.209 56.8558C216.819 57.0855 217.739 57.4024 218.944 57.7588C220.735 58.2657 222.218 58.7964 223.391 59.3034C224.556 59.8103 225.563 60.6182 226.403 61.6875C227.243 62.7568 227.656 64.1509 227.656 65.8777C227.656 67.6044 227.196 69.0697 226.292 70.2816C225.388 71.5014 224.136 72.4203 222.543 73.0302C220.949 73.6401 219.181 73.949 217.247 73.949C215.107 73.949 212.967 73.5688 210.842 72.8321C208.718 72.0717 206.871 71.0579 205.325 69.7589L207.941 64.4757C209.241 65.6242 210.787 66.5826 212.586 67.3192C214.362 68.0559 215.963 68.4202 217.327 68.4202C218.333 68.4202 219.142 68.2381 219.713 67.8579C220.291 67.4935 220.585 66.9549 220.585 66.2262C220.585 65.6321 220.371 65.141 219.942 64.745C219.514 64.3489 218.967 64.04 218.317 63.8103C217.659 63.5806 216.756 63.3034 215.567 62.9866C213.791 62.4955 212.325 61.9964 211.175 61.4895C210.026 60.9826 209.019 60.2222 208.195 59.2004C207.37 58.1786 206.958 56.8162 206.958 55.1212C206.958 53.5291 207.386 52.1271 208.226 50.9073C209.082 49.7033 210.279 48.7687 211.849 48.1271C213.411 47.4697 215.226 47.137 217.295 47.137C219.174 47.137 221.013 47.3984 222.844 47.9291C224.675 48.4518 226.268 49.1647 227.648 50.0519L225.095 55.4459C223.716 54.638 222.249 53.9806 220.68 53.4578L220.664 53.4895Z"/>
<path d="M49.4705 0.665527V16.7686H35.5427V30.1072H14.4408V16.7686H0.322632L9.66866 0.665527H49.4705Z"/>
<path d="M49.4705 57.5053L40.4812 73.6084H0.322632V57.5053H14.4408V44.1667H35.5427V57.5053H49.4705Z"/>
<g opacity="0.94">
<path d="M49.4705 0.665527V16.7686H35.5427V30.1072H14.4408V16.7686H0.322632L9.66866 0.665527H49.4705Z"/>
<path d="M49.4705 57.5053L40.4812 73.6084H0.322632V57.5053H14.4408V44.1667H35.5427V57.5053H49.4705Z"/>
</g>
<path d="M49.4705 0.665527V16.7686H35.5427V30.1072H14.4408V16.7686H0.322632L9.66866 0.665527H49.4705Z"/>
<path d="M49.4705 57.5053L40.4812 73.6084H0.322632V57.5053H14.4408V44.1667H35.5427V57.5053H49.4705Z"/>
</svg>
