<svg width="1688" height="454" viewBox="0 0 1688 454" fill="none" xmlns="http://www.w3.org/2000/svg">
    <g filter="url(#filter0_d_1412_20)">
    <rect x="51" y="51" width="1586" height="352" fill="url(#paint0_linear_1412_20)"/>
    </g>
    <path d="M254.032 146.178L249.105 127.465L266.797 132.009L254.032 146.178Z" fill="#FE7098"/>
    <ellipse cx="82.0877" cy="96.6146" rx="82.0877" ry="96.6146" transform="matrix(-0.994152 -0.108874 0.0998999 -0.994907 315.521 342.81)" fill="url(#paint1_radial_1412_20)"/>
    <path d="M288.682 286.96C295.389 277.675 302.159 259.843 302.159 259.843C302.159 259.843 304.23 256.254 305.377 259.495C305.506 264.066 299.39 280.334 294.529 288.431C288.192 298.989 280.523 305.128 274.562 307.836C270.539 308.27 276.059 302.626 276.059 302.626C276.059 302.626 279.83 299.216 288.682 286.96Z" fill="#F0F3F9" fill-opacity="0.7"/>
    <path d="M305.16 250.268C304.802 248.729 305.299 247.288 306.318 246.301C307.019 245.607 308.251 245.671 308.608 247.21C308.966 248.748 307.921 250.398 307.057 251.273C306.417 251.793 305.517 251.807 305.16 250.268Z" fill="#D9D9D9"/>
    <path d="M442.942 145.598L436.141 127.46L454.207 130.251L442.942 145.598Z" fill="#FCDC8F"/>
    <ellipse cx="82.0681" cy="96.6386" rx="82.0681" ry="96.6386" transform="matrix(-1.00049 -0.0110577 -0.00149166 -0.999485 524.066 335.235)" fill="url(#paint2_radial_1412_20)"/>
    <path d="M491.696 282.289C497.427 272.394 502.355 253.989 502.355 253.989C502.355 253.989 504.052 250.215 505.523 253.328C506.115 257.863 501.679 274.649 497.663 283.182C492.428 294.306 485.42 301.166 479.763 304.443C475.804 305.269 480.724 299.113 480.724 299.113C480.724 299.113 484.13 295.351 491.696 282.289Z" fill="#F0F3F9" fill-opacity="0.7"/>
    <path d="M504.371 244.167C503.859 242.671 504.207 241.189 505.12 240.107C505.748 239.348 506.98 239.291 507.492 240.787C508.004 242.283 507.131 244.026 506.361 244.982C505.777 245.562 504.883 245.663 504.371 244.167Z" fill="#D9D9D9"/>
    <path d="M650.174 152.059L644.503 133.55L662.364 137.41L650.174 152.059Z" fill="#37DECD"/>
    <ellipse cx="82.0833" cy="96.62" rx="82.0833" ry="96.62" transform="matrix(-0.997785 -0.0705359 0.0601388 -0.997931 719.458 346.174)" fill="#37DECD"/>
    <path d="M690.412 291.4C696.743 281.864 702.796 263.785 702.796 263.785C702.796 263.785 704.722 260.119 705.999 263.314C706.31 267.876 700.847 284.368 696.313 292.645C690.402 303.438 682.983 309.869 677.135 312.803C673.132 313.392 678.423 307.54 678.423 307.54C678.423 307.54 682.055 303.987 690.412 291.4Z" fill="#F0F3F9" fill-opacity="0.7"/>
    <path d="M705.412 254.102C704.993 252.578 705.432 251.119 706.411 250.093C707.084 249.373 708.317 249.389 708.736 250.913C709.155 252.437 708.176 254.125 707.348 255.033C706.729 255.577 705.831 255.625 705.412 254.102Z" fill="#D9D9D9"/>
    <path d="M838.916 144.21L831.397 126.348L849.56 128.441L838.916 144.21Z" fill="#FE7098"/>
    <ellipse cx="82.053" cy="96.6572" rx="82.053" ry="96.6572" transform="matrix(-1.00034 0.0274579 -0.0413463 -0.998468 927.542 330.58)" fill="#FE7098"/>
    <path d="M893.085 278.921C898.417 268.813 902.607 250.232 902.607 250.232C902.607 250.232 904.152 246.396 905.746 249.449C906.518 253.959 902.755 270.902 899.083 279.583C894.296 290.9 887.566 298.024 882.045 301.517C878.121 302.494 882.792 296.153 882.792 296.153C882.792 296.153 886.046 292.263 893.085 278.921Z" fill="#F0F3F9" fill-opacity="0.7"/>
    <path d="M904.229 240.34C903.658 238.865 903.947 237.37 904.816 236.254C905.413 235.472 906.642 235.367 907.213 236.842C907.784 238.317 906.982 240.093 906.25 241.078C905.689 241.68 904.8 241.816 904.229 240.34Z" fill="#D9D9D9"/>
    <path d="M1056.88 146.178L1051.95 127.465L1069.65 132.009L1056.88 146.178Z" fill="#FCDC8F"/>
    <ellipse cx="82.0877" cy="96.6146" rx="82.0877" ry="96.6146" transform="matrix(-0.994152 -0.108874 0.0998999 -0.994907 1118.37 342.81)" fill="#FCDC8F"/>
    <path d="M1091.53 286.96C1098.24 277.675 1105.01 259.843 1105.01 259.843C1105.01 259.843 1107.08 256.254 1108.23 259.495C1108.36 264.066 1102.24 280.334 1097.38 288.431C1091.04 298.989 1083.37 305.128 1077.41 307.836C1073.39 308.27 1078.91 302.626 1078.91 302.626C1078.91 302.626 1082.68 299.216 1091.53 286.96Z" fill="#F0F3F9" fill-opacity="0.7"/>
    <path d="M1108.01 250.268C1107.65 248.729 1108.15 247.288 1109.17 246.301C1109.87 245.607 1111.1 245.671 1111.46 247.21C1111.81 248.748 1110.77 250.398 1109.91 251.273C1109.27 251.793 1108.37 251.807 1108.01 250.268Z" fill="#D9D9D9"/>
    <path d="M1245.79 145.598L1238.99 127.46L1257.06 130.251L1245.79 145.598Z" fill="#37DECD"/>
    <ellipse cx="82.0681" cy="96.6386" rx="82.0681" ry="96.6386" transform="matrix(-1.00049 -0.0110577 -0.00149166 -0.999485 1326.92 335.235)" fill="#37DECD"/>
    <path d="M1294.55 282.289C1300.28 272.394 1305.21 253.989 1305.21 253.989C1305.21 253.989 1306.9 250.215 1308.37 253.328C1308.97 257.863 1304.53 274.649 1300.51 283.182C1295.28 294.306 1288.27 301.166 1282.61 304.443C1278.65 305.269 1283.57 299.113 1283.57 299.113C1283.57 299.113 1286.98 295.351 1294.55 282.289Z" fill="#F0F3F9" fill-opacity="0.7"/>
    <path d="M1307.22 244.167C1306.71 242.671 1307.06 241.189 1307.97 240.107C1308.6 239.348 1309.83 239.291 1310.34 240.787C1310.85 242.283 1309.98 244.026 1309.21 244.982C1308.63 245.562 1307.73 245.663 1307.22 244.167Z" fill="#D9D9D9"/>
    <path d="M1453.02 152.059L1447.35 133.55L1465.21 137.41L1453.02 152.059Z" fill="#FE7098"/>
    <ellipse cx="82.0833" cy="96.62" rx="82.0833" ry="96.62" transform="matrix(-0.997785 -0.0705359 0.0601388 -0.997931 1522.31 346.174)" fill="#FE7098"/>
    <path d="M1493.26 291.4C1499.59 281.864 1505.65 263.785 1505.65 263.785C1505.65 263.785 1507.57 260.119 1508.85 263.314C1509.16 267.876 1503.7 284.368 1499.16 292.645C1493.25 303.438 1485.83 309.869 1479.98 312.803C1475.98 313.392 1481.27 307.54 1481.27 307.54C1481.27 307.54 1484.9 303.987 1493.26 291.4Z" fill="#F0F3F9" fill-opacity="0.7"/>
    <path d="M1508.26 254.102C1507.84 252.578 1508.28 251.119 1509.26 250.093C1509.93 249.373 1511.17 249.389 1511.59 250.913C1512 252.437 1511.03 254.125 1510.2 255.033C1509.58 255.577 1508.68 255.625 1508.26 254.102Z" fill="#D9D9D9"/>
    <rect x="51" y="107.258" width="1586.03" height="24.8836" fill="#C9D2E5"/>
    <defs>
    <filter id="filter0_d_1412_20" x="0" y="0" width="1688" height="454" filterUnits="userSpaceOnUse" color-interpolation-filters="sRGB">
    <feFlood flood-opacity="0" result="BackgroundImageFix"/>
    <feColorMatrix in="SourceAlpha" type="matrix" values="0 0 0 0 0 0 0 0 0 0 0 0 0 0 0 0 0 0 127 0" result="hardAlpha"/>
    <feMorphology radius="1" operator="dilate" in="SourceAlpha" result="effect1_dropShadow_1412_20"/>
    <feOffset/>
    <feGaussianBlur stdDeviation="25"/>
    <feComposite in2="hardAlpha" operator="out"/>
    <feColorMatrix type="matrix" values="0 0 0 0 0 0 0 0 0 0 0 0 0 0 0 0 0 0 0.15 0"/>
    <feBlend mode="normal" in2="BackgroundImageFix" result="effect1_dropShadow_1412_20"/>
    <feBlend mode="normal" in="SourceGraphic" in2="effect1_dropShadow_1412_20" result="shape"/>
    </filter>
    <linearGradient id="paint0_linear_1412_20" x1="844" y1="-47.3423" x2="844" y2="271.998" gradientUnits="userSpaceOnUse">
    <stop stop-color="#088BC1"/>
    <stop offset="1" stop-color="#10689A"/>
    </linearGradient>
    <radialGradient id="paint1_radial_1412_20" cx="0" cy="0" r="1" gradientUnits="userSpaceOnUse" gradientTransform="translate(82.0877 96.6146) rotate(90) scale(96.6146 82.0877)">
    <stop stop-color="#FEA3AA"/>
    <stop offset="1" stop-color="#FE7098"/>
    </radialGradient>
    <radialGradient id="paint2_radial_1412_20" cx="0" cy="0" r="1" gradientUnits="userSpaceOnUse" gradientTransform="translate(82.0681 96.6387) rotate(90.1229) scale(282.639 419.706)">
    <stop offset="0.0943042" stop-color="#FCDC8F"/>
    <stop offset="0.482912" stop-color="#FCDC8F"/>
    <stop offset="1" stop-color="#088BC1"/>
    </radialGradient>
    </defs>
    </svg>
    