<svg width="175" height="47" viewBox="0 0 275 47" fill="none" xmlns="http://www.w3.org/2000/svg">
    <path d="M48.4002 17.9441C48.4002 17.9441 42.9938 20.4751 38.9777 22.5162C34.9616 24.5572 30.8568 27.3578 26.3422 31.0619C21.8275 34.7661 18.9708 37.3582 15.5038 38.5927C12.0368 39.8272 8.89868 38.8862 6.2853 37.8712C3.67192 36.8562 0 34.4366 0 34.4366C0 34.4366 1.59295 34.0883 5.91642 29.2284C10.2399 24.3686 12.113 22.2227 16.2238 17.8037C20.3345 13.3846 25.0812 10.1292 31.2194 9.85842C37.3576 9.58767 42.5222 13.0908 44.3969 14.4107C45.8258 15.4861 47.1644 16.6676 48.4002 17.9441Z" fill="url(#paint0_linear_1502_20)"/>
    <path d="M69.2676 31.2186C69.2676 31.2186 63.5204 32.9278 59.227 34.3573C54.9335 35.7867 50.4286 37.9512 45.378 40.9521C40.3274 43.953 37.0918 46.095 33.4673 46.8072C29.8429 47.5194 26.8934 46.1297 24.4718 44.744C22.0502 43.3582 18.8075 40.4277 18.8075 40.4277C18.8075 40.4277 20.4382 40.3169 25.4835 36.147C30.5288 31.9772 32.7237 30.1314 37.4913 26.3659C42.2589 22.6004 47.465 20.078 53.577 20.7106C59.6889 21.3431 64.2329 25.5605 65.8746 27.1398C67.1153 28.4117 68.2497 29.7752 69.2676 31.2177V31.2186Z" fill="url(#paint1_linear_1502_20)"/>
    <path d="M56.146 17.6204C60.6168 17.6204 64.241 14.1452 64.241 9.85842C64.241 5.5716 60.6168 2.09645 56.146 2.09645C51.6753 2.09645 48.051 5.5716 48.051 9.85842C48.051 14.1452 51.6753 17.6204 56.146 17.6204Z" fill="url(#paint2_linear_1502_20)"/>
    <path d="M78.9864 42.2285V1.27965H93.9168C96.8918 1.27965 99.3454 1.77285 101.278 2.75925C103.21 3.73232 104.649 5.04529 105.594 6.69818C106.54 8.33773 107.012 10.1572 107.012 12.1567C107.012 13.9162 106.685 15.3692 106.032 16.5155C105.393 17.6619 104.545 18.5683 103.488 19.2348C102.445 19.9013 101.313 20.3945 100.089 20.7144V21.1143C101.396 21.1942 102.71 21.6341 104.03 22.4339C105.351 23.2337 106.456 24.38 107.346 25.873C108.236 27.3659 108.68 29.1921 108.68 31.3515C108.68 33.4043 108.194 35.2504 107.221 36.89C106.248 38.5295 104.711 39.8292 102.612 40.7889C100.513 41.7487 97.7815 42.2285 94.4173 42.2285H78.9864ZM84.1578 37.8297H94.4173C97.7954 37.8297 100.193 37.2032 101.611 35.9502C103.043 34.6839 103.759 33.151 103.759 31.3515C103.759 29.9652 103.391 28.6855 102.654 27.5125C101.917 26.3262 100.868 25.3798 99.5053 24.6733C98.1429 23.9535 96.5303 23.5936 94.6675 23.5936H84.1578V37.8297ZM84.1578 19.2748H93.75C95.307 19.2748 96.711 18.9815 97.9622 18.395C99.2273 17.8085 100.228 16.9821 100.965 15.9157C101.716 14.8493 102.091 13.5963 102.091 12.1567C102.091 10.3572 101.438 8.83093 100.131 7.57794C98.8241 6.31162 96.7528 5.67846 93.9168 5.67846H84.1578V19.2748Z" fill="#28A2F6"/>
    <path d="M121.432 1.27965V42.2285H116.511V1.27965H121.432Z" fill="#28A2F6"/>
    <path d="M150.63 29.6719V11.5169H155.552V42.2285H150.63V37.0299H150.297C149.546 38.5895 148.378 39.9158 146.794 41.0089C145.209 42.0886 143.207 42.6284 140.788 42.6284C138.786 42.6284 137.007 42.2085 135.45 41.3688C133.893 40.5157 132.669 39.236 131.78 37.5298C130.89 35.8103 130.445 33.6442 130.445 31.0316V11.5169H135.366V30.7117C135.366 32.951 136.02 34.7372 137.327 36.0702C138.647 37.4032 140.329 38.0697 142.373 38.0697C143.596 38.0697 144.84 37.7697 146.105 37.1699C147.384 36.5701 148.455 35.6503 149.317 34.4107C150.193 33.171 150.63 31.5914 150.63 29.6719Z" fill="#28A2F6"/>
    <path d="M177.994 42.8684C174.908 42.8684 172.246 42.2152 170.008 40.9089C167.783 39.5892 166.066 37.7497 164.857 35.3904C163.661 33.0177 163.064 30.2584 163.064 27.1126C163.064 23.9668 163.661 21.1942 164.857 18.7949C166.066 16.3822 167.749 14.5027 169.903 13.1564C172.072 11.7968 174.602 11.117 177.494 11.117C179.162 11.117 180.809 11.3836 182.436 11.9168C184.062 12.45 185.543 13.3164 186.877 14.5161C188.212 15.7024 189.275 17.2753 190.068 19.2348C190.86 21.1942 191.256 23.6069 191.256 26.4728V28.4723H166.567V24.3934H186.252C186.252 22.6605 185.89 21.1143 185.167 19.7546C184.458 18.395 183.444 17.322 182.123 16.5355C180.816 15.7491 179.273 15.3558 177.494 15.3558C175.534 15.3558 173.838 15.8224 172.406 16.7554C170.988 17.6752 169.896 18.8749 169.132 20.3545C168.367 21.8341 167.985 23.4203 167.985 25.1132V27.8324C167.985 30.1518 168.402 32.1179 169.236 33.7308C170.084 35.3304 171.259 36.5501 172.76 37.3898C174.262 38.2163 176.006 38.6295 177.994 38.6295C179.287 38.6295 180.455 38.4562 181.497 38.1097C182.554 37.7497 183.464 37.2166 184.229 36.5101C184.994 35.7903 185.584 34.8972 186.001 33.8308L190.756 35.1105C190.255 36.6567 189.414 38.0163 188.233 39.1894C187.051 40.349 185.591 41.2555 183.854 41.9086C182.116 42.5484 180.163 42.8684 177.994 42.8684Z" fill="#28A2F6"/>
    <path d="M199.41 42.2285V1.27965H204.581V19.5147H227.352V1.27965H232.523V42.2285H227.352V23.9135H204.581V42.2285H199.41Z" fill="#28A2F6"/>
    <path d="M242.209 42.2285V11.5169H247.131V42.2285H242.209ZM244.712 6.39826C243.753 6.39826 242.925 6.08501 242.23 5.45852C241.549 4.83202 241.208 4.07889 241.208 3.19913C241.208 2.31937 241.549 1.56624 242.23 0.939743C242.925 0.313248 243.753 0 244.712 0C245.671 0 246.491 0.313248 247.172 0.939743C247.867 1.56624 248.215 2.31937 248.215 3.19913C248.215 4.07889 247.867 4.83202 247.172 5.45852C246.491 6.08501 245.671 6.39826 244.712 6.39826Z" fill="#28A2F6"/>
    <path d="M261.065 1.27965V42.2285H256.144V1.27965H261.065Z" fill="#28A2F6"/>
    <path d="M275 1.27965V42.2285H270.079V1.27965H275Z" fill="#28A2F6"/>
    <defs>
    <linearGradient id="paint0_linear_1502_20" x1="137.5" y1="47.094" x2="137.5" y2="-0.188001" gradientUnits="userSpaceOnUse">
    <stop stop-color="#157EFB"/>
    <stop offset="1" stop-color="#2DACF4"/>
    </linearGradient>
    <linearGradient id="paint1_linear_1502_20" x1="0" y1="47" x2="15.6095" y2="-44.3322" gradientUnits="userSpaceOnUse">
    <stop stop-color="#157EFB"/>
    <stop offset="1" stop-color="#2DACF4"/>
    </linearGradient>
    <linearGradient id="paint2_linear_1502_20" x1="23.375" y1="10.34" x2="43.4031" y2="89.405" gradientUnits="userSpaceOnUse">
    <stop stop-color="#F28E26"/>
    <stop offset="1" stop-color="#FD644F"/>
    </linearGradient>
    </defs>
    </svg>
    