<svg width="1781" height="9389" viewBox="0 0 1781 9389" fill="none" xmlns="http://www.w3.org/2000/svg">
    <rect opacity="0.95" x="128" y="191" width="45" height="9196" fill="url(#paint0_linear_1402_32)"/>
    <rect opacity="0.95" x="1598" y="193" width="45" height="9196" fill="url(#paint1_linear_1402_32)"/>
    <path d="M291.318 28H1479.92C1493.94 28 1507.54 32.751 1518.51 41.4778L1619.14 121.52C1665.08 158.058 1639.24 232.042 1580.55 232.042H194.512C136.405 232.042 110.222 159.288 155.004 122.26L251.81 42.2179C262.925 33.0278 276.896 28 291.318 28Z" fill="#FE969A" stroke="#1D2644" stroke-width="16"/>
    <rect x="678.25" y="80" width="411.13" height="106.096" rx="20" fill="#FCDC8F"/>
    <path d="M759.897 158.842V109.842H780.057C784.397 109.842 788.107 110.542 791.187 111.942C794.314 113.342 796.717 115.348 798.397 117.962C800.077 120.575 800.917 123.678 800.917 127.272C800.917 130.865 800.077 133.968 798.397 136.582C796.717 139.195 794.314 141.202 791.187 142.602C788.107 144.002 784.397 144.702 780.057 144.702H764.937L768.997 140.432V158.842H759.897ZM768.997 141.412L764.937 137.002H779.637C783.651 137.002 786.661 136.162 788.667 134.482C790.721 132.755 791.747 130.352 791.747 127.272C791.747 124.145 790.721 121.742 788.667 120.062C786.661 118.382 783.651 117.542 779.637 117.542H764.937L768.997 113.062V141.412ZM810.005 158.842V109.842H830.165C834.505 109.842 838.215 110.542 841.295 111.942C844.421 113.342 846.825 115.348 848.505 117.962C850.185 120.575 851.025 123.678 851.025 127.272C851.025 130.865 850.185 133.968 848.505 136.582C846.825 139.148 844.421 141.132 841.295 142.532C838.215 143.885 834.505 144.562 830.165 144.562H815.045L819.105 140.432V158.842H810.005ZM842.065 158.842L829.675 141.062H839.405L851.865 158.842H842.065ZM819.105 141.412L815.045 137.072H829.745C833.758 137.072 836.768 136.208 838.775 134.482C840.828 132.755 841.855 130.352 841.855 127.272C841.855 124.145 840.828 121.742 838.775 120.062C836.768 118.382 833.758 117.542 829.745 117.542H815.045L819.105 113.062V141.412ZM861.206 158.842V109.842H870.306V158.842H861.206ZM879.849 158.842V152.752L911.489 114.112L912.539 117.542H880.339V109.842H920.729V115.932L889.089 154.572L887.969 151.142H921.639V158.842H879.849ZM938.375 130.212H962.735V137.702H938.375V130.212ZM939.075 151.212H966.725V158.842H929.975V109.842H965.745V117.472H939.075V151.212ZM992.06 159.542C988.233 159.542 984.57 159.005 981.07 157.932C977.57 156.812 974.793 155.388 972.74 153.662L975.89 146.592C977.85 148.132 980.277 149.415 983.17 150.442C986.063 151.468 989.027 151.982 992.06 151.982C994.627 151.982 996.703 151.702 998.29 151.142C999.877 150.582 1001.04 149.835 1001.79 148.902C1002.54 147.922 1002.91 146.825 1002.91 145.612C1002.91 144.118 1002.37 142.928 1001.3 142.042C1000.23 141.108 998.827 140.385 997.1 139.872C995.42 139.312 993.53 138.798 991.43 138.332C989.377 137.865 987.3 137.328 985.2 136.722C983.147 136.068 981.257 135.252 979.53 134.272C977.85 133.245 976.473 131.892 975.4 130.212C974.327 128.532 973.79 126.385 973.79 123.772C973.79 121.112 974.49 118.685 975.89 116.492C977.337 114.252 979.507 112.478 982.4 111.172C985.34 109.818 989.05 109.142 993.53 109.142C996.47 109.142 999.387 109.515 1002.28 110.262C1005.17 111.008 1007.69 112.082 1009.84 113.482L1006.97 120.552C1004.78 119.245 1002.51 118.288 1000.18 117.682C997.847 117.028 995.607 116.702 993.46 116.702C990.94 116.702 988.887 117.005 987.3 117.612C985.76 118.218 984.617 119.012 983.87 119.992C983.17 120.972 982.82 122.092 982.82 123.352C982.82 124.845 983.333 126.058 984.36 126.992C985.433 127.878 986.81 128.578 988.49 129.092C990.217 129.605 992.13 130.118 994.23 130.632C996.33 131.098 998.407 131.635 1000.46 132.242C1002.56 132.848 1004.45 133.642 1006.13 134.622C1007.86 135.602 1009.23 136.932 1010.26 138.612C1011.33 140.292 1011.87 142.415 1011.87 144.982C1011.87 147.595 1011.15 150.022 1009.7 152.262C1008.3 154.455 1006.13 156.228 1003.19 157.582C1000.25 158.888 996.54 159.542 992.06 159.542Z" fill="#1D2644"/>
    <g opacity="0.9">
    <ellipse cx="223.392" cy="60.0178" rx="23.8741" ry="18.199" fill="url(#paint2_radial_1402_32)"/>
    <ellipse cx="175.644" cy="101.837" rx="23.8741" ry="18.199" fill="url(#paint3_radial_1402_32)"/>
    <ellipse cx="131.874" cy="145.979" rx="23.8741" ry="18.199" fill="url(#paint4_radial_1402_32)"/>
    <ellipse cx="138.874" cy="209.199" rx="23.8741" ry="18.199" fill="url(#paint5_radial_1402_32)"/>
    <ellipse cx="275.616" cy="23.6199" rx="23.3767" ry="18.199" fill="url(#paint6_radial_1402_32)"/>
    <ellipse cx="337.788" cy="18.199" rx="23.8741" ry="18.199" fill="url(#paint7_radial_1402_32)"/>
    <ellipse cx="404.934" cy="18.199" rx="23.3767" ry="18.199" fill="url(#paint8_radial_1402_32)"/>
    <ellipse cx="471.584" cy="18.199" rx="23.3767" ry="18.199" fill="url(#paint9_radial_1402_32)"/>
    <ellipse cx="539.226" cy="18.199" rx="24.3715" ry="18.199" fill="url(#paint10_radial_1402_32)"/>
    <ellipse cx="607.865" cy="18.199" rx="24.3715" ry="18.199" fill="url(#paint11_radial_1402_32)"/>
    <ellipse cx="676.005" cy="18.199" rx="23.8741" ry="18.199" fill="url(#paint12_radial_1402_32)"/>
    <ellipse cx="743.648" cy="18.199" rx="23.8741" ry="18.199" fill="url(#paint13_radial_1402_32)"/>
    <ellipse cx="810.874" cy="18.199" rx="23.8741" ry="18.199" fill="url(#paint14_radial_1402_32)"/>
    <ellipse cx="873.874" cy="18.199" rx="23.8741" ry="18.199" fill="url(#paint15_radial_1402_32)"/>
    <ellipse cx="935.276" cy="21.199" rx="23.2765" ry="18.199" fill="url(#paint16_radial_1402_32)"/>
    <ellipse cx="1000.74" cy="21.199" rx="22.7915" ry="18.199" fill="url(#paint17_radial_1402_32)"/>
    <ellipse cx="1066.21" cy="21.199" rx="23.2765" ry="18.199" fill="url(#paint18_radial_1402_32)"/>
    <ellipse cx="1131.67" cy="21.199" rx="22.7915" ry="18.199" fill="url(#paint19_radial_1402_32)"/>
    <ellipse cx="1196.65" cy="21.199" rx="22.7915" ry="18.199" fill="url(#paint20_radial_1402_32)"/>
    <ellipse cx="1262.6" cy="21.199" rx="23.7614" ry="18.199" fill="url(#paint21_radial_1402_32)"/>
    <ellipse cx="1329.52" cy="21.199" rx="23.7614" ry="18.199" fill="url(#paint22_radial_1402_32)"/>
    <ellipse cx="1395.96" cy="21.199" rx="23.2765" ry="18.199" fill="url(#paint23_radial_1402_32)"/>
    <ellipse cx="1461.91" cy="21.199" rx="23.2765" ry="18.199" fill="url(#paint24_radial_1402_32)"/>
    <ellipse cx="1519.13" cy="43.6575" rx="23.2765" ry="18.199" fill="url(#paint25_radial_1402_32)"/>
    <ellipse cx="1565.68" cy="80.0554" rx="23.2765" ry="18.199" fill="url(#paint26_radial_1402_32)"/>
    <ellipse cx="192.803" cy="233.199" rx="22.803" ry="18.199" fill="url(#paint27_radial_1402_32)"/>
    <ellipse cx="192.803" cy="233.199" rx="22.803" ry="18.199" fill="url(#paint28_radial_1402_32)"/>
    <ellipse cx="256.936" cy="233.199" rx="22.328" ry="18.199" fill="url(#paint29_radial_1402_32)"/>
    <ellipse cx="321.07" cy="233.199" rx="22.803" ry="18.199" fill="url(#paint30_radial_1402_32)"/>
    <ellipse cx="385.203" cy="233.199" rx="22.328" ry="18.199" fill="url(#paint31_radial_1402_32)"/>
    <ellipse cx="448.862" cy="233.199" rx="22.328" ry="18.199" fill="url(#paint32_radial_1402_32)"/>
    <ellipse cx="513.47" cy="233.199" rx="23.2781" ry="18.199" fill="url(#paint33_radial_1402_32)"/>
    <ellipse cx="579.029" cy="233.199" rx="23.2781" ry="18.199" fill="url(#paint34_radial_1402_32)"/>
    <ellipse cx="644.113" cy="233.199" rx="22.803" ry="18.199" fill="url(#paint35_radial_1402_32)"/>
    <ellipse cx="708.721" cy="233.199" rx="22.803" ry="18.199" fill="url(#paint36_radial_1402_32)"/>
    <ellipse cx="779.803" cy="233.199" rx="22.803" ry="18.199" fill="url(#paint37_radial_1402_32)"/>
    <ellipse cx="850.803" cy="233.199" rx="22.803" ry="18.199" fill="url(#paint38_radial_1402_32)"/>
    <ellipse cx="920.942" cy="231.199" rx="22.9421" ry="18.199" fill="url(#paint39_radial_1402_32)"/>
    <ellipse cx="991.467" cy="231.618" rx="22.4641" ry="18.199" fill="url(#paint40_radial_1402_32)"/>
    <ellipse cx="1055.99" cy="231.618" rx="22.9421" ry="18.199" fill="url(#paint41_radial_1402_32)"/>
    <ellipse cx="1120.52" cy="231.618" rx="22.4641" ry="18.199" fill="url(#paint42_radial_1402_32)"/>
    <ellipse cx="1184.56" cy="231.618" rx="22.4641" ry="18.199" fill="url(#paint43_radial_1402_32)"/>
    <ellipse cx="1249.57" cy="231.618" rx="23.42" ry="18.199" fill="url(#paint44_radial_1402_32)"/>
    <ellipse cx="1315.52" cy="231.618" rx="23.42" ry="18.199" fill="url(#paint45_radial_1402_32)"/>
    <ellipse cx="1381" cy="231.618" rx="22.9421" ry="18.199" fill="url(#paint46_radial_1402_32)"/>
    <ellipse cx="1446.01" cy="231.618" rx="22.9421" ry="18.199" fill="url(#paint47_radial_1402_32)"/>
    <ellipse cx="1511.01" cy="231.618" rx="22.9421" ry="18.199" fill="url(#paint48_radial_1402_32)"/>
    <ellipse cx="1576.01" cy="231.618" rx="22.9421" ry="18.199" fill="url(#paint49_radial_1402_32)"/>
    <ellipse cx="1629.94" cy="214.199" rx="22.9421" ry="18.199" fill="url(#paint50_radial_1402_32)"/>
    <ellipse cx="1640.06" cy="165.018" rx="22.9421" ry="18.199" fill="url(#paint51_radial_1402_32)"/>
    <ellipse cx="1606.6" cy="123.199" rx="22.9421" ry="18.199" fill="url(#paint52_radial_1402_32)"/>
    </g>
    <defs>
    <linearGradient id="paint0_linear_1402_32" x1="150.5" y1="191" x2="150.5" y2="9387" gradientUnits="userSpaceOnUse">
    <stop offset="0.151042" stop-color="#1D2644"/>
    <stop offset="1" stop-color="#0D387C"/>
    </linearGradient>
    <linearGradient id="paint1_linear_1402_32" x1="1620.5" y1="193" x2="1620.5" y2="9389" gradientUnits="userSpaceOnUse">
    <stop offset="0.151042" stop-color="#1D2644"/>
    <stop offset="1" stop-color="#0D387C"/>
    </linearGradient>
    <radialGradient id="paint2_radial_1402_32" cx="0" cy="0" r="1" gradientUnits="userSpaceOnUse" gradientTransform="translate(223.392 60.0178) rotate(90.9996) scale(22.2531 29.3006)">
    <stop offset="0.140625" stop-color="#FCDC8F"/>
    <stop offset="1" stop-color="#F99557" stop-opacity="0.65"/>
    </radialGradient>
    <radialGradient id="paint3_radial_1402_32" cx="0" cy="0" r="1" gradientUnits="userSpaceOnUse" gradientTransform="translate(175.644 101.837) rotate(90.9996) scale(22.2531 29.3006)">
    <stop offset="0.140625" stop-color="#FCDC8F"/>
    <stop offset="1" stop-color="#F99557" stop-opacity="0.65"/>
    </radialGradient>
    <radialGradient id="paint4_radial_1402_32" cx="0" cy="0" r="1" gradientUnits="userSpaceOnUse" gradientTransform="translate(131.874 145.979) rotate(90.9996) scale(22.2531 29.3006)">
    <stop offset="0.140625" stop-color="#FCDC8F"/>
    <stop offset="1" stop-color="#F99557" stop-opacity="0.65"/>
    </radialGradient>
    <radialGradient id="paint5_radial_1402_32" cx="0" cy="0" r="1" gradientUnits="userSpaceOnUse" gradientTransform="translate(138.874 209.199) rotate(90.9996) scale(22.2531 29.3006)">
    <stop offset="0.140625" stop-color="#FCDC8F"/>
    <stop offset="1" stop-color="#F99557" stop-opacity="0.65"/>
    </radialGradient>
    <radialGradient id="paint6_radial_1402_32" cx="0" cy="0" r="1" gradientUnits="userSpaceOnUse" gradientTransform="translate(275.616 23.6199) rotate(90.9787) scale(22.253 28.6904)">
    <stop offset="0.140625" stop-color="#FCDC8F"/>
    <stop offset="1" stop-color="#F99557" stop-opacity="0.65"/>
    </radialGradient>
    <radialGradient id="paint7_radial_1402_32" cx="0" cy="0" r="1" gradientUnits="userSpaceOnUse" gradientTransform="translate(337.788 18.199) rotate(90.9996) scale(22.2531 29.3006)">
    <stop offset="0.140625" stop-color="#FCDC8F"/>
    <stop offset="1" stop-color="#F99557" stop-opacity="0.65"/>
    </radialGradient>
    <radialGradient id="paint8_radial_1402_32" cx="0" cy="0" r="1" gradientUnits="userSpaceOnUse" gradientTransform="translate(404.934 18.199) rotate(90.9787) scale(22.253 28.6904)">
    <stop offset="0.140625" stop-color="#FCDC8F"/>
    <stop offset="1" stop-color="#F99557" stop-opacity="0.65"/>
    </radialGradient>
    <radialGradient id="paint9_radial_1402_32" cx="0" cy="0" r="1" gradientUnits="userSpaceOnUse" gradientTransform="translate(471.584 18.199) rotate(90.9787) scale(22.253 28.6904)">
    <stop offset="0.140625" stop-color="#FCDC8F"/>
    <stop offset="1" stop-color="#F99557" stop-opacity="0.65"/>
    </radialGradient>
    <radialGradient id="paint10_radial_1402_32" cx="0" cy="0" r="1" gradientUnits="userSpaceOnUse" gradientTransform="translate(539.226 18.199) rotate(91.0204) scale(22.2533 29.9108)">
    <stop offset="0.140625" stop-color="#FCDC8F"/>
    <stop offset="1" stop-color="#F99557" stop-opacity="0.65"/>
    </radialGradient>
    <radialGradient id="paint11_radial_1402_32" cx="0" cy="0" r="1" gradientUnits="userSpaceOnUse" gradientTransform="translate(607.865 18.199) rotate(91.0204) scale(22.2533 29.9108)">
    <stop offset="0.140625" stop-color="#FCDC8F"/>
    <stop offset="1" stop-color="#F99557" stop-opacity="0.65"/>
    </radialGradient>
    <radialGradient id="paint12_radial_1402_32" cx="0" cy="0" r="1" gradientUnits="userSpaceOnUse" gradientTransform="translate(676.005 18.199) rotate(90.9996) scale(22.2531 29.3006)">
    <stop offset="0.140625" stop-color="#FCDC8F"/>
    <stop offset="1" stop-color="#F99557" stop-opacity="0.65"/>
    </radialGradient>
    <radialGradient id="paint13_radial_1402_32" cx="0" cy="0" r="1" gradientUnits="userSpaceOnUse" gradientTransform="translate(743.648 18.199) rotate(90.9996) scale(22.2531 29.3006)">
    <stop offset="0.140625" stop-color="#FCDC8F"/>
    <stop offset="1" stop-color="#F99557" stop-opacity="0.65"/>
    </radialGradient>
    <radialGradient id="paint14_radial_1402_32" cx="0" cy="0" r="1" gradientUnits="userSpaceOnUse" gradientTransform="translate(810.874 18.199) rotate(90.9996) scale(22.2531 29.3006)">
    <stop offset="0.140625" stop-color="#FCDC8F"/>
    <stop offset="1" stop-color="#F99557" stop-opacity="0.65"/>
    </radialGradient>
    <radialGradient id="paint15_radial_1402_32" cx="0" cy="0" r="1" gradientUnits="userSpaceOnUse" gradientTransform="translate(873.874 18.199) rotate(90.9996) scale(22.2531 29.3006)">
    <stop offset="0.140625" stop-color="#FCDC8F"/>
    <stop offset="1" stop-color="#F99557" stop-opacity="0.65"/>
    </radialGradient>
    <radialGradient id="paint16_radial_1402_32" cx="0" cy="0" r="1" gradientUnits="userSpaceOnUse" gradientTransform="translate(935.276 21.199) rotate(90.9745) scale(22.253 28.5673)">
    <stop offset="0.140625" stop-color="#FCDC8F"/>
    <stop offset="1" stop-color="#F99557" stop-opacity="0.65"/>
    </radialGradient>
    <radialGradient id="paint17_radial_1402_32" cx="0" cy="0" r="1" gradientUnits="userSpaceOnUse" gradientTransform="translate(1000.74 21.199) rotate(90.9542) scale(22.2528 27.9724)">
    <stop offset="0.140625" stop-color="#FCDC8F"/>
    <stop offset="1" stop-color="#F99557" stop-opacity="0.65"/>
    </radialGradient>
    <radialGradient id="paint18_radial_1402_32" cx="0" cy="0" r="1" gradientUnits="userSpaceOnUse" gradientTransform="translate(1066.21 21.199) rotate(90.9745) scale(22.253 28.5673)">
    <stop offset="0.140625" stop-color="#FCDC8F"/>
    <stop offset="1" stop-color="#F99557" stop-opacity="0.65"/>
    </radialGradient>
    <radialGradient id="paint19_radial_1402_32" cx="0" cy="0" r="1" gradientUnits="userSpaceOnUse" gradientTransform="translate(1131.67 21.199) rotate(90.9542) scale(22.2528 27.9724)">
    <stop offset="0.140625" stop-color="#FCDC8F"/>
    <stop offset="1" stop-color="#F99557" stop-opacity="0.65"/>
    </radialGradient>
    <radialGradient id="paint20_radial_1402_32" cx="0" cy="0" r="1" gradientUnits="userSpaceOnUse" gradientTransform="translate(1196.65 21.199) rotate(90.9542) scale(22.2528 27.9724)">
    <stop offset="0.140625" stop-color="#FCDC8F"/>
    <stop offset="1" stop-color="#F99557" stop-opacity="0.65"/>
    </radialGradient>
    <radialGradient id="paint21_radial_1402_32" cx="0" cy="0" r="1" gradientUnits="userSpaceOnUse" gradientTransform="translate(1262.6 21.199) rotate(90.9948) scale(22.2531 29.1623)">
    <stop offset="0.140625" stop-color="#FCDC8F"/>
    <stop offset="1" stop-color="#F99557" stop-opacity="0.65"/>
    </radialGradient>
    <radialGradient id="paint22_radial_1402_32" cx="0" cy="0" r="1" gradientUnits="userSpaceOnUse" gradientTransform="translate(1329.52 21.199) rotate(90.9948) scale(22.2531 29.1623)">
    <stop offset="0.140625" stop-color="#FCDC8F"/>
    <stop offset="1" stop-color="#F99557" stop-opacity="0.65"/>
    </radialGradient>
    <radialGradient id="paint23_radial_1402_32" cx="0" cy="0" r="1" gradientUnits="userSpaceOnUse" gradientTransform="translate(1395.96 21.199) rotate(90.9745) scale(22.253 28.5673)">
    <stop offset="0.140625" stop-color="#FCDC8F"/>
    <stop offset="1" stop-color="#F99557" stop-opacity="0.65"/>
    </radialGradient>
    <radialGradient id="paint24_radial_1402_32" cx="0" cy="0" r="1" gradientUnits="userSpaceOnUse" gradientTransform="translate(1461.91 21.199) rotate(90.9745) scale(22.253 28.5673)">
    <stop offset="0.140625" stop-color="#FCDC8F"/>
    <stop offset="1" stop-color="#F99557" stop-opacity="0.65"/>
    </radialGradient>
    <radialGradient id="paint25_radial_1402_32" cx="0" cy="0" r="1" gradientUnits="userSpaceOnUse" gradientTransform="translate(1519.13 43.6575) rotate(90.9745) scale(22.253 28.5673)">
    <stop offset="0.140625" stop-color="#FCDC8F"/>
    <stop offset="1" stop-color="#F99557" stop-opacity="0.65"/>
    </radialGradient>
    <radialGradient id="paint26_radial_1402_32" cx="0" cy="0" r="1" gradientUnits="userSpaceOnUse" gradientTransform="translate(1565.68 80.0554) rotate(90.9745) scale(22.253 28.5673)">
    <stop offset="0.140625" stop-color="#FCDC8F"/>
    <stop offset="1" stop-color="#F99557" stop-opacity="0.65"/>
    </radialGradient>
    <radialGradient id="paint27_radial_1402_32" cx="0" cy="0" r="1" gradientUnits="userSpaceOnUse" gradientTransform="translate(192.803 233.199) rotate(90.9547) scale(22.2528 27.9865)">
    <stop offset="0.140625" stop-color="#FCDC8F"/>
    <stop offset="1" stop-color="#F99557" stop-opacity="0.65"/>
    </radialGradient>
    <radialGradient id="paint28_radial_1402_32" cx="0" cy="0" r="1" gradientUnits="userSpaceOnUse" gradientTransform="translate(192.803 233.199) rotate(90.9547) scale(22.2528 27.9865)">
    <stop offset="0.140625" stop-color="#FCDC8F"/>
    <stop offset="1" stop-color="#F99557" stop-opacity="0.65"/>
    </radialGradient>
    <radialGradient id="paint29_radial_1402_32" cx="0" cy="0" r="1" gradientUnits="userSpaceOnUse" gradientTransform="translate(256.936 233.199) rotate(90.9348) scale(22.2527 27.4036)">
    <stop offset="0.140625" stop-color="#FCDC8F"/>
    <stop offset="1" stop-color="#F99557" stop-opacity="0.65"/>
    </radialGradient>
    <radialGradient id="paint30_radial_1402_32" cx="0" cy="0" r="1" gradientUnits="userSpaceOnUse" gradientTransform="translate(321.07 233.199) rotate(90.9547) scale(22.2528 27.9865)">
    <stop offset="0.140625" stop-color="#FCDC8F"/>
    <stop offset="1" stop-color="#F99557" stop-opacity="0.65"/>
    </radialGradient>
    <radialGradient id="paint31_radial_1402_32" cx="0" cy="0" r="1" gradientUnits="userSpaceOnUse" gradientTransform="translate(385.203 233.199) rotate(90.9348) scale(22.2527 27.4036)">
    <stop offset="0.140625" stop-color="#FCDC8F"/>
    <stop offset="1" stop-color="#F99557" stop-opacity="0.65"/>
    </radialGradient>
    <radialGradient id="paint32_radial_1402_32" cx="0" cy="0" r="1" gradientUnits="userSpaceOnUse" gradientTransform="translate(448.862 233.199) rotate(90.9348) scale(22.2527 27.4036)">
    <stop offset="0.140625" stop-color="#FCDC8F"/>
    <stop offset="1" stop-color="#F99557" stop-opacity="0.65"/>
    </radialGradient>
    <radialGradient id="paint33_radial_1402_32" cx="0" cy="0" r="1" gradientUnits="userSpaceOnUse" gradientTransform="translate(513.47 233.199) rotate(90.9746) scale(22.253 28.5693)">
    <stop offset="0.140625" stop-color="#FCDC8F"/>
    <stop offset="1" stop-color="#F99557" stop-opacity="0.65"/>
    </radialGradient>
    <radialGradient id="paint34_radial_1402_32" cx="0" cy="0" r="1" gradientUnits="userSpaceOnUse" gradientTransform="translate(579.029 233.199) rotate(90.9746) scale(22.253 28.5693)">
    <stop offset="0.140625" stop-color="#FCDC8F"/>
    <stop offset="1" stop-color="#F99557" stop-opacity="0.65"/>
    </radialGradient>
    <radialGradient id="paint35_radial_1402_32" cx="0" cy="0" r="1" gradientUnits="userSpaceOnUse" gradientTransform="translate(644.113 233.199) rotate(90.9547) scale(22.2528 27.9865)">
    <stop offset="0.140625" stop-color="#FCDC8F"/>
    <stop offset="1" stop-color="#F99557" stop-opacity="0.65"/>
    </radialGradient>
    <radialGradient id="paint36_radial_1402_32" cx="0" cy="0" r="1" gradientUnits="userSpaceOnUse" gradientTransform="translate(708.721 233.199) rotate(90.9547) scale(22.2528 27.9865)">
    <stop offset="0.140625" stop-color="#FCDC8F"/>
    <stop offset="1" stop-color="#F99557" stop-opacity="0.65"/>
    </radialGradient>
    <radialGradient id="paint37_radial_1402_32" cx="0" cy="0" r="1" gradientUnits="userSpaceOnUse" gradientTransform="translate(779.803 233.199) rotate(90.9547) scale(22.2528 27.9865)">
    <stop offset="0.140625" stop-color="#FCDC8F"/>
    <stop offset="1" stop-color="#F99557" stop-opacity="0.65"/>
    </radialGradient>
    <radialGradient id="paint38_radial_1402_32" cx="0" cy="0" r="1" gradientUnits="userSpaceOnUse" gradientTransform="translate(850.803 233.199) rotate(90.9547) scale(22.2528 27.9865)">
    <stop offset="0.140625" stop-color="#FCDC8F"/>
    <stop offset="1" stop-color="#F99557" stop-opacity="0.65"/>
    </radialGradient>
    <radialGradient id="paint39_radial_1402_32" cx="0" cy="0" r="1" gradientUnits="userSpaceOnUse" gradientTransform="translate(920.942 231.199) rotate(90.9605) scale(22.2529 28.1571)">
    <stop offset="0.140625" stop-color="#FCDC8F"/>
    <stop offset="1" stop-color="#F99557" stop-opacity="0.65"/>
    </radialGradient>
    <radialGradient id="paint40_radial_1402_32" cx="0" cy="0" r="1" gradientUnits="userSpaceOnUse" gradientTransform="translate(991.467 231.618) rotate(90.9405) scale(22.2527 27.5706)">
    <stop offset="0.140625" stop-color="#FCDC8F"/>
    <stop offset="1" stop-color="#F99557" stop-opacity="0.65"/>
    </radialGradient>
    <radialGradient id="paint41_radial_1402_32" cx="0" cy="0" r="1" gradientUnits="userSpaceOnUse" gradientTransform="translate(1055.99 231.618) rotate(90.9605) scale(22.2529 28.1571)">
    <stop offset="0.140625" stop-color="#FCDC8F"/>
    <stop offset="1" stop-color="#F99557" stop-opacity="0.65"/>
    </radialGradient>
    <radialGradient id="paint42_radial_1402_32" cx="0" cy="0" r="1" gradientUnits="userSpaceOnUse" gradientTransform="translate(1120.52 231.618) rotate(90.9405) scale(22.2527 27.5706)">
    <stop offset="0.140625" stop-color="#FCDC8F"/>
    <stop offset="1" stop-color="#F99557" stop-opacity="0.65"/>
    </radialGradient>
    <radialGradient id="paint43_radial_1402_32" cx="0" cy="0" r="1" gradientUnits="userSpaceOnUse" gradientTransform="translate(1184.56 231.618) rotate(90.9405) scale(22.2527 27.5706)">
    <stop offset="0.140625" stop-color="#FCDC8F"/>
    <stop offset="1" stop-color="#F99557" stop-opacity="0.65"/>
    </radialGradient>
    <radialGradient id="paint44_radial_1402_32" cx="0" cy="0" r="1" gradientUnits="userSpaceOnUse" gradientTransform="translate(1249.57 231.618) rotate(90.9805) scale(22.253 28.7435)">
    <stop offset="0.140625" stop-color="#FCDC8F"/>
    <stop offset="1" stop-color="#F99557" stop-opacity="0.65"/>
    </radialGradient>
    <radialGradient id="paint45_radial_1402_32" cx="0" cy="0" r="1" gradientUnits="userSpaceOnUse" gradientTransform="translate(1315.52 231.618) rotate(90.9805) scale(22.253 28.7435)">
    <stop offset="0.140625" stop-color="#FCDC8F"/>
    <stop offset="1" stop-color="#F99557" stop-opacity="0.65"/>
    </radialGradient>
    <radialGradient id="paint46_radial_1402_32" cx="0" cy="0" r="1" gradientUnits="userSpaceOnUse" gradientTransform="translate(1381 231.618) rotate(90.9605) scale(22.2529 28.1571)">
    <stop offset="0.140625" stop-color="#FCDC8F"/>
    <stop offset="1" stop-color="#F99557" stop-opacity="0.65"/>
    </radialGradient>
    <radialGradient id="paint47_radial_1402_32" cx="0" cy="0" r="1" gradientUnits="userSpaceOnUse" gradientTransform="translate(1446.01 231.618) rotate(90.9605) scale(22.2529 28.1571)">
    <stop offset="0.140625" stop-color="#FCDC8F"/>
    <stop offset="1" stop-color="#F99557" stop-opacity="0.65"/>
    </radialGradient>
    <radialGradient id="paint48_radial_1402_32" cx="0" cy="0" r="1" gradientUnits="userSpaceOnUse" gradientTransform="translate(1511.01 231.618) rotate(90.9605) scale(22.2529 28.1571)">
    <stop offset="0.140625" stop-color="#FCDC8F"/>
    <stop offset="1" stop-color="#F99557" stop-opacity="0.65"/>
    </radialGradient>
    <radialGradient id="paint49_radial_1402_32" cx="0" cy="0" r="1" gradientUnits="userSpaceOnUse" gradientTransform="translate(1576.01 231.618) rotate(90.9605) scale(22.2529 28.1571)">
    <stop offset="0.140625" stop-color="#FCDC8F"/>
    <stop offset="1" stop-color="#F99557" stop-opacity="0.65"/>
    </radialGradient>
    <radialGradient id="paint50_radial_1402_32" cx="0" cy="0" r="1" gradientUnits="userSpaceOnUse" gradientTransform="translate(1629.94 214.199) rotate(90.9605) scale(22.2529 28.1571)">
    <stop offset="0.140625" stop-color="#FCDC8F"/>
    <stop offset="1" stop-color="#F99557" stop-opacity="0.65"/>
    </radialGradient>
    <radialGradient id="paint51_radial_1402_32" cx="0" cy="0" r="1" gradientUnits="userSpaceOnUse" gradientTransform="translate(1640.06 165.018) rotate(90.9605) scale(22.2529 28.1571)">
    <stop offset="0.140625" stop-color="#FCDC8F"/>
    <stop offset="1" stop-color="#F99557" stop-opacity="0.65"/>
    </radialGradient>
    <radialGradient id="paint52_radial_1402_32" cx="0" cy="0" r="1" gradientUnits="userSpaceOnUse" gradientTransform="translate(1606.6 123.199) rotate(90.9605) scale(22.2529 28.1571)">
    <stop offset="0.140625" stop-color="#FCDC8F"/>
    <stop offset="1" stop-color="#F99557" stop-opacity="0.65"/>
    </radialGradient>
    </defs>
    </svg>
    