<svg width="169" height="62" viewBox="0 0 169 62" fill="none" xmlns="http://www.w3.org/2000/svg">
    <path d="M50.3591 1.23633H55.3387V10.097H63.0483V1.23633H68.0349V22.968H63.0483V14.6225H55.3387V22.968H50.3591V1.23633Z" fill="#111130"/>
    <path d="M85.7738 22.968L84.4645 19.1242H76.2117L74.8745 22.968H69.7556L77.9528 1.23633H83.0716L91.1086 22.968H85.7738ZM77.709 14.781H82.995L80.3764 7.02986L77.709 14.781Z" fill="#111130"/>
    <path d="M103.888 6.48299C103.114 5.98198 102.243 5.7095 101.353 5.69044C100.43 5.67051 99.5204 5.94506 98.7274 6.48299C97.9371 7.0333 97.2922 7.81649 96.8609 8.74968C96.4124 9.74268 96.1785 10.843 96.1785 11.9595C96.1785 13.076 96.4124 14.1763 96.8609 15.1693C97.2906 16.1017 97.936 16.8828 98.7274 17.4281C99.5204 17.966 100.43 18.2406 101.353 18.2206C102.204 18.1999 103.041 17.9672 103.804 17.5391C104.66 17.0796 105.436 16.4487 106.096 15.6766L109.007 19.2906C107.958 20.5431 106.704 21.55 105.316 22.2547C103.844 23.0336 102.232 23.4058 100.61 23.3411C98.9886 23.2764 97.4032 22.7765 95.9834 21.8822C94.4845 20.9216 93.2426 19.5165 92.3897 17.8164C91.5091 16.0633 91.057 14.0738 91.0804 12.0546C91.0542 10.0707 91.5065 8.11659 92.3881 6.40482C93.2698 4.69305 94.547 3.28917 96.0809 2.34588C97.6829 1.36525 99.4784 0.866048 101.297 0.89552C102.736 0.904224 104.158 1.24672 105.476 1.90206C106.791 2.53201 107.977 3.46579 108.958 4.64428L106.075 8.60702C105.479 7.73863 104.735 7.01617 103.888 6.48299V6.48299Z" fill="#111130"/>
    <path d="M129.489 22.968H123.528L118.513 14.5353L116.117 17.5708V22.968H111.131V1.23633H116.117V10.6597L123.284 1.23633H129.057L121.974 10.1921L129.489 22.968Z" fill="#111130"/>
    <path d="M50.2832 39.5085H55.2697V61.2403H50.2832V39.5085Z" fill="#111130"/>
    <path d="M58.9746 39.5085H63.9472V56.4057H72.0399V61.2403H58.9746V39.5085Z" fill="#111130"/>
    <path d="M75.8354 39.5085H80.822V56.4057H88.9146V61.2403H75.8354V39.5085Z" fill="#111130"/>
    <path d="M91.6931 39.5085H96.6796V61.2403H91.6931V39.5085Z" fill="#111130"/>
    <path d="M113.945 39.5085H118.576V61.2403H114.217L105.56 48.2583V61.2403H100.901V39.5085H105.288L113.973 52.5777L113.945 39.5085Z" fill="#111130"/>
    <path d="M137.199 40.6262C138.724 41.5453 140.004 42.914 140.904 44.589C141.808 46.3127 142.273 48.2882 142.248 50.2953C142.276 52.301 141.82 54.2771 140.93 56.0084C140.04 57.7397 138.749 59.1601 137.199 60.115C135.585 61.123 133.768 61.6365 131.927 61.605C130.088 61.6342 128.273 61.1266 126.655 60.1309C125.116 59.1916 123.834 57.7875 122.95 56.073C122.046 54.3233 121.581 52.3249 121.606 50.2953C121.583 48.3146 122.04 46.3651 122.925 44.6597C123.811 42.9544 125.091 41.5591 126.627 40.6262C128.257 39.6678 130.065 39.1677 131.899 39.1677C133.734 39.1677 135.541 39.6678 137.171 40.6262H137.199ZM129.35 44.8109C128.541 45.3726 127.879 46.172 127.435 47.1251C126.964 48.1178 126.725 49.2309 126.738 50.3587C126.715 51.5004 126.955 52.6291 127.435 53.632C127.885 54.5822 128.545 55.3826 129.35 55.9541C130.133 56.5193 131.042 56.8164 131.969 56.8101C132.889 56.8173 133.792 56.5199 134.566 55.9541C135.362 55.3868 136.007 54.5842 136.433 53.632C136.882 52.6234 137.115 51.5089 137.115 50.3785C137.115 49.2482 136.882 48.1337 136.433 47.1251C136.007 46.1752 135.362 45.3751 134.566 44.8109C133.783 44.2747 132.883 44.0001 131.969 44.0183C131.048 44.0032 130.142 44.2775 129.35 44.8109Z" fill="#111130"/>
    <path d="M144.484 39.5085H149.471V61.2403H144.484V39.5085Z" fill="#111130"/>
    <path d="M162.842 44.3748C161.912 43.9914 160.934 43.7722 159.945 43.725C159.438 43.6956 158.933 43.8302 158.49 44.1133C158.32 44.2306 158.18 44.3975 158.086 44.5968C157.992 44.7961 157.946 45.0205 157.953 45.2467C157.952 45.4724 157.993 45.696 158.073 45.9024C158.154 46.1088 158.272 46.2933 158.42 46.4434C158.752 46.7891 159.14 47.0583 159.562 47.236C160.015 47.4341 160.69 47.6877 161.582 48.0285C162.699 48.3816 163.795 48.8185 164.862 49.3362C165.739 49.7774 166.504 50.4646 167.084 51.3334C167.735 52.3527 168.061 53.5937 168.01 54.8524C168.04 56.1789 167.686 57.4798 167 58.5536C166.285 59.6119 165.318 60.415 164.214 60.8678C162.967 61.4057 161.642 61.6745 160.307 61.6604C158.695 61.6566 157.096 61.3376 155.579 60.7172C154.094 60.1446 152.713 59.269 151.504 58.1335L153.441 53.6952C154.454 54.7018 155.61 55.5057 156.86 56.0729C157.956 56.6404 159.139 56.9581 160.342 57.0081C160.957 57.0433 161.567 56.8812 162.104 56.5405C162.308 56.3991 162.475 56.1981 162.588 55.9584C162.701 55.7186 162.755 55.4489 162.745 55.1773C162.751 54.9423 162.711 54.7088 162.628 54.4936C162.545 54.2783 162.421 54.0869 162.264 53.933C161.916 53.5802 161.508 53.3106 161.067 53.1404C160.586 52.9423 159.91 52.7125 159.04 52.443C157.933 52.11 156.849 51.6889 155.794 51.1828C154.938 50.755 154.185 50.0968 153.601 49.2649C152.957 48.2756 152.634 47.0627 152.688 45.8331C152.666 44.5605 153.003 43.3133 153.649 42.2746C154.32 41.2046 155.249 40.3787 156.324 39.8969C157.602 39.3329 158.965 39.0635 160.335 39.1044C161.719 39.1044 163.095 39.3286 164.423 39.7701C165.675 40.1663 166.869 40.767 167.968 41.5534L166.088 46.0788C165.062 45.3814 163.974 44.8102 162.842 44.3748V44.3748Z" fill="#111130"/>
    <path d="M10.4188 24.7276H25.9773V13.5288H36.2568V0H6.90175L0 13.5288H10.4188V24.7276Z" fill="#111130"/>
    <path d="M25.9773 36.5447H10.4188V47.7434H0V61.2722H29.6267L36.2568 47.7434H25.9773V36.5447Z" fill="#111130"/>
    </svg>
    