<svg width="416" height="381" viewBox="0 0 416 381" fill="none" xmlns="http://www.w3.org/2000/svg">
    <rect x="0.000244141" y="0.920898" width="415.755" height="379.69" rx="20" fill="white" fill-opacity="0.95"/>
    <path d="M118.051 209.474H130.686V212.484H118.051V209.474ZM118.401 222.389H114.901V197.889H132.191V200.934H118.401V222.389ZM136.628 222.389V203.839H139.988V222.389H136.628ZM138.308 200.269C137.655 200.269 137.106 200.059 136.663 199.639C136.243 199.219 136.033 198.705 136.033 198.099C136.033 197.469 136.243 196.944 136.663 196.524C137.106 196.104 137.655 195.894 138.308 195.894C138.961 195.894 139.498 196.104 139.918 196.524C140.361 196.92 140.583 197.422 140.583 198.029C140.583 198.659 140.373 199.195 139.953 199.639C139.533 200.059 138.985 200.269 138.308 200.269ZM146.403 222.389V203.839H149.623V208.879L149.308 207.619C149.822 206.335 150.685 205.355 151.898 204.679C153.112 204.002 154.605 203.664 156.378 203.664V206.919C156.238 206.895 156.098 206.884 155.958 206.884C155.842 206.884 155.725 206.884 155.608 206.884C153.812 206.884 152.388 207.42 151.338 208.494C150.288 209.567 149.763 211.119 149.763 213.149V222.389H146.403ZM166.045 222.599C164.505 222.599 163.035 222.389 161.635 221.969C160.258 221.549 159.173 221.035 158.38 220.429L159.78 217.769C160.573 218.305 161.553 218.76 162.72 219.134C163.886 219.507 165.076 219.694 166.29 219.694C167.853 219.694 168.973 219.472 169.65 219.029C170.35 218.585 170.7 217.967 170.7 217.174C170.7 216.59 170.49 216.135 170.07 215.809C169.65 215.482 169.09 215.237 168.39 215.074C167.713 214.91 166.955 214.77 166.115 214.654C165.275 214.514 164.435 214.35 163.595 214.164C162.755 213.954 161.985 213.674 161.285 213.324C160.585 212.95 160.025 212.449 159.605 211.819C159.185 211.165 158.975 210.302 158.975 209.229C158.975 208.109 159.29 207.129 159.92 206.289C160.55 205.449 161.436 204.807 162.58 204.364C163.746 203.897 165.123 203.664 166.71 203.664C167.923 203.664 169.148 203.815 170.385 204.119C171.645 204.399 172.671 204.807 173.465 205.344L172.03 208.004C171.19 207.444 170.315 207.059 169.405 206.849C168.495 206.639 167.585 206.534 166.675 206.534C165.205 206.534 164.108 206.779 163.385 207.269C162.661 207.735 162.3 208.342 162.3 209.089C162.3 209.719 162.51 210.209 162.93 210.559C163.373 210.885 163.933 211.142 164.61 211.329C165.31 211.515 166.08 211.679 166.92 211.819C167.76 211.935 168.6 212.099 169.44 212.309C170.28 212.495 171.038 212.764 171.715 213.114C172.415 213.464 172.975 213.954 173.395 214.584C173.838 215.214 174.06 216.054 174.06 217.104C174.06 218.224 173.733 219.192 173.08 220.009C172.426 220.825 171.505 221.467 170.315 221.934C169.125 222.377 167.701 222.599 166.045 222.599ZM184.629 222.599C182.762 222.599 181.315 222.097 180.289 221.094C179.262 220.09 178.749 218.655 178.749 216.789V199.779H182.109V216.649C182.109 217.652 182.354 218.422 182.844 218.959C183.357 219.495 184.08 219.764 185.014 219.764C186.064 219.764 186.939 219.472 187.639 218.889L188.689 221.304C188.175 221.747 187.557 222.074 186.834 222.284C186.134 222.494 185.399 222.599 184.629 222.599ZM175.599 206.604V203.839H187.429V206.604H175.599ZM202.64 222.389V197.889H212.195C214.342 197.889 216.174 198.227 217.69 198.904C219.207 199.58 220.374 200.56 221.19 201.844C222.007 203.127 222.415 204.655 222.415 206.429C222.415 208.202 222.007 209.73 221.19 211.014C220.374 212.274 219.207 213.254 217.69 213.954C216.174 214.63 214.342 214.969 212.195 214.969H204.565L206.14 213.324V222.389H202.64ZM206.14 213.674L204.565 211.924H212.09C214.33 211.924 216.022 211.445 217.165 210.489C218.332 209.532 218.915 208.179 218.915 206.429C218.915 204.679 218.332 203.325 217.165 202.369C216.022 201.412 214.33 200.934 212.09 200.934H204.565L206.14 199.184V213.674ZM227.409 222.389V196.419H230.769V222.389H227.409ZM248.7 222.389V218.469L248.525 217.734V211.049C248.525 209.625 248.105 208.529 247.265 207.759C246.448 206.965 245.211 206.569 243.555 206.569C242.458 206.569 241.385 206.755 240.335 207.129C239.285 207.479 238.398 207.957 237.675 208.564L236.275 206.044C237.231 205.274 238.375 204.69 239.705 204.294C241.058 203.874 242.47 203.664 243.94 203.664C246.483 203.664 248.443 204.282 249.82 205.519C251.196 206.755 251.885 208.645 251.885 211.189V222.389H248.7ZM242.61 222.599C241.233 222.599 240.02 222.365 238.97 221.899C237.943 221.432 237.15 220.79 236.59 219.974C236.03 219.134 235.75 218.189 235.75 217.139C235.75 216.135 235.983 215.225 236.45 214.409C236.94 213.592 237.721 212.939 238.795 212.449C239.891 211.959 241.361 211.714 243.205 211.714H249.085V214.129H243.345C241.665 214.129 240.533 214.409 239.95 214.969C239.366 215.529 239.075 216.205 239.075 216.999C239.075 217.909 239.436 218.644 240.16 219.204C240.883 219.74 241.886 220.009 243.17 220.009C244.43 220.009 245.526 219.729 246.46 219.169C247.416 218.609 248.105 217.792 248.525 216.719L249.19 219.029C248.746 220.125 247.965 221 246.845 221.654C245.725 222.284 244.313 222.599 242.61 222.599ZM266.188 222.599C264.298 222.599 262.606 222.19 261.113 221.374C259.643 220.557 258.488 219.437 257.648 218.014C256.808 216.59 256.388 214.957 256.388 213.114C256.388 211.27 256.808 209.637 257.648 208.214C258.488 206.79 259.643 205.682 261.113 204.889C262.606 204.072 264.298 203.664 266.188 203.664C267.868 203.664 269.361 204.002 270.668 204.679C271.998 205.332 273.024 206.312 273.748 207.619L271.193 209.264C270.586 208.354 269.839 207.689 268.953 207.269C268.089 206.825 267.156 206.604 266.153 206.604C264.939 206.604 263.854 206.872 262.898 207.409C261.941 207.945 261.183 208.704 260.623 209.684C260.063 210.64 259.783 211.784 259.783 213.114C259.783 214.444 260.063 215.599 260.623 216.579C261.183 217.559 261.941 218.317 262.898 218.854C263.854 219.39 264.939 219.659 266.153 219.659C267.156 219.659 268.089 219.449 268.953 219.029C269.839 218.585 270.586 217.909 271.193 216.999L273.748 218.609C273.024 219.892 271.998 220.884 270.668 221.584C269.361 222.26 267.868 222.599 266.188 222.599ZM286.084 222.599C284.101 222.599 282.351 222.19 280.834 221.374C279.341 220.557 278.174 219.437 277.334 218.014C276.518 216.59 276.109 214.957 276.109 213.114C276.109 211.27 276.506 209.637 277.299 208.214C278.116 206.79 279.224 205.682 280.624 204.889C282.048 204.072 283.646 203.664 285.419 203.664C287.216 203.664 288.803 204.06 290.179 204.854C291.556 205.647 292.629 206.767 293.399 208.214C294.193 209.637 294.589 211.305 294.589 213.219C294.589 213.359 294.578 213.522 294.554 213.709C294.554 213.895 294.543 214.07 294.519 214.234H278.734V211.819H292.769L291.404 212.659C291.428 211.469 291.183 210.407 290.669 209.474C290.156 208.54 289.444 207.817 288.534 207.304C287.648 206.767 286.609 206.499 285.419 206.499C284.253 206.499 283.214 206.767 282.304 207.304C281.394 207.817 280.683 208.552 280.169 209.509C279.656 210.442 279.399 211.515 279.399 212.729V213.289C279.399 214.525 279.679 215.634 280.239 216.614C280.823 217.57 281.628 218.317 282.654 218.854C283.681 219.39 284.859 219.659 286.189 219.659C287.286 219.659 288.278 219.472 289.164 219.099C290.074 218.725 290.868 218.165 291.544 217.419L293.399 219.589C292.559 220.569 291.509 221.315 290.249 221.829C289.013 222.342 287.624 222.599 286.084 222.599ZM300.06 208.459C299.407 208.459 298.847 208.237 298.38 207.794C297.913 207.327 297.68 206.744 297.68 206.044C297.68 205.344 297.913 204.772 298.38 204.329C298.847 203.885 299.407 203.664 300.06 203.664C300.69 203.664 301.227 203.885 301.67 204.329C302.137 204.772 302.37 205.344 302.37 206.044C302.37 206.744 302.137 207.327 301.67 207.794C301.227 208.237 300.69 208.459 300.06 208.459ZM300.06 222.599C299.407 222.599 298.847 222.377 298.38 221.934C297.913 221.467 297.68 220.884 297.68 220.184C297.68 219.484 297.913 218.912 298.38 218.469C298.847 218.025 299.407 217.804 300.06 217.804C300.69 217.804 301.227 218.025 301.67 218.469C302.137 218.912 302.37 219.484 302.37 220.184C302.37 220.884 302.137 221.467 301.67 221.934C301.227 222.377 300.69 222.599 300.06 222.599ZM177.99 269.589V236.689H180.23V269.589H177.99ZM178.865 265.669C176.998 265.669 175.213 265.389 173.51 264.829C171.807 264.245 170.465 263.499 169.485 262.589L170.78 259.859C171.713 260.675 172.903 261.352 174.35 261.889C175.797 262.425 177.302 262.694 178.865 262.694C180.288 262.694 181.443 262.53 182.33 262.204C183.217 261.877 183.87 261.434 184.29 260.874C184.71 260.29 184.92 259.637 184.92 258.914C184.92 258.074 184.64 257.397 184.08 256.884C183.543 256.37 182.832 255.962 181.945 255.659C181.082 255.332 180.125 255.052 179.075 254.819C178.025 254.585 176.963 254.317 175.89 254.014C174.84 253.687 173.872 253.279 172.985 252.789C172.122 252.299 171.422 251.645 170.885 250.829C170.348 249.989 170.08 248.915 170.08 247.609C170.08 246.349 170.407 245.194 171.06 244.144C171.737 243.07 172.763 242.219 174.14 241.589C175.54 240.935 177.313 240.609 179.46 240.609C180.883 240.609 182.295 240.795 183.695 241.169C185.095 241.542 186.308 242.079 187.335 242.779L186.18 245.579C185.13 244.879 184.022 244.377 182.855 244.074C181.688 243.747 180.557 243.584 179.46 243.584C178.083 243.584 176.952 243.759 176.065 244.109C175.178 244.459 174.525 244.925 174.105 245.509C173.708 246.092 173.51 246.745 173.51 247.469C173.51 248.332 173.778 249.02 174.315 249.534C174.875 250.047 175.587 250.455 176.45 250.759C177.337 251.062 178.305 251.342 179.355 251.599C180.405 251.832 181.455 252.1 182.505 252.404C183.578 252.707 184.547 253.104 185.41 253.594C186.297 254.084 187.008 254.737 187.545 255.554C188.082 256.37 188.35 257.42 188.35 258.704C188.35 259.94 188.012 261.095 187.335 262.169C186.658 263.219 185.608 264.07 184.185 264.724C182.785 265.354 181.012 265.669 178.865 265.669ZM199.378 265.669C197.652 265.669 195.972 265.4 194.338 264.864C192.728 264.327 191.41 263.604 190.383 262.694L191.993 259.929C192.81 260.699 193.872 261.329 195.178 261.819C196.485 262.309 197.873 262.554 199.343 262.554C201.21 262.554 202.645 262.157 203.648 261.364C204.652 260.57 205.153 259.509 205.153 258.179C205.153 257.269 204.932 256.475 204.488 255.799C204.045 255.122 203.275 254.609 202.178 254.259C201.105 253.885 199.623 253.699 197.733 253.699H192.168L193.463 240.889H207.288V243.934H194.758L196.578 242.219L195.563 252.334L193.743 250.654H198.468C200.918 250.654 202.89 250.969 204.383 251.599C205.877 252.229 206.962 253.104 207.638 254.224C208.315 255.32 208.653 256.592 208.653 258.039C208.653 259.439 208.315 260.722 207.638 261.889C206.962 263.032 205.935 263.954 204.558 264.654C203.205 265.33 201.478 265.669 199.378 265.669ZM221.576 265.669C219.663 265.669 217.948 265.179 216.431 264.199C214.938 263.219 213.748 261.795 212.861 259.929C211.998 258.062 211.566 255.799 211.566 253.139C211.566 250.479 211.998 248.215 212.861 246.349C213.748 244.482 214.938 243.059 216.431 242.079C217.948 241.099 219.663 240.609 221.576 240.609C223.466 240.609 225.169 241.099 226.686 242.079C228.203 243.059 229.393 244.482 230.256 246.349C231.119 248.215 231.551 250.479 231.551 253.139C231.551 255.799 231.119 258.062 230.256 259.929C229.393 261.795 228.203 263.219 226.686 264.199C225.169 265.179 223.466 265.669 221.576 265.669ZM221.576 262.554C222.859 262.554 223.979 262.204 224.936 261.504C225.916 260.804 226.674 259.754 227.211 258.354C227.771 256.954 228.051 255.215 228.051 253.139C228.051 251.062 227.771 249.324 227.211 247.924C226.674 246.524 225.916 245.474 224.936 244.774C223.979 244.074 222.859 243.724 221.576 243.724C220.293 243.724 219.161 244.074 218.181 244.774C217.201 245.474 216.431 246.524 215.871 247.924C215.334 249.324 215.066 251.062 215.066 253.139C215.066 255.215 215.334 256.954 215.871 258.354C216.431 259.754 217.201 260.804 218.181 261.504C219.161 262.204 220.293 262.554 221.576 262.554ZM244.921 265.669C243.007 265.669 241.292 265.179 239.776 264.199C238.282 263.219 237.092 261.795 236.206 259.929C235.342 258.062 234.911 255.799 234.911 253.139C234.911 250.479 235.342 248.215 236.206 246.349C237.092 244.482 238.282 243.059 239.776 242.079C241.292 241.099 243.007 240.609 244.921 240.609C246.811 240.609 248.514 241.099 250.031 242.079C251.547 243.059 252.737 244.482 253.601 246.349C254.464 248.215 254.896 250.479 254.896 253.139C254.896 255.799 254.464 258.062 253.601 259.929C252.737 261.795 251.547 263.219 250.031 264.199C248.514 265.179 246.811 265.669 244.921 265.669ZM244.921 262.554C246.204 262.554 247.324 262.204 248.281 261.504C249.261 260.804 250.019 259.754 250.556 258.354C251.116 256.954 251.396 255.215 251.396 253.139C251.396 251.062 251.116 249.324 250.556 247.924C250.019 246.524 249.261 245.474 248.281 244.774C247.324 244.074 246.204 243.724 244.921 243.724C243.637 243.724 242.506 244.074 241.526 244.774C240.546 245.474 239.776 246.524 239.216 247.924C238.679 249.324 238.411 251.062 238.411 253.139C238.411 255.215 238.679 256.954 239.216 258.354C239.776 259.754 240.546 260.804 241.526 261.504C242.506 262.204 243.637 262.554 244.921 262.554ZM94.817 320.669C92.9504 320.669 91.1654 320.389 89.462 319.829C87.7587 319.245 86.417 318.499 85.437 317.589L86.732 314.859C87.6654 315.675 88.8554 316.352 90.302 316.889C91.7487 317.425 93.2537 317.694 94.817 317.694C96.2404 317.694 97.3954 317.53 98.282 317.204C99.1687 316.877 99.822 316.434 100.242 315.874C100.662 315.29 100.872 314.637 100.872 313.914C100.872 313.074 100.592 312.397 100.032 311.884C99.4954 311.37 98.7837 310.962 97.897 310.659C97.0337 310.332 96.077 310.052 95.027 309.819C93.977 309.585 92.9154 309.317 91.842 309.014C90.792 308.687 89.8237 308.279 88.937 307.789C88.0737 307.299 87.3737 306.645 86.837 305.829C86.3004 304.989 86.032 303.915 86.032 302.609C86.032 301.349 86.3587 300.194 87.012 299.144C87.6887 298.07 88.7154 297.219 90.092 296.589C91.492 295.935 93.2654 295.609 95.412 295.609C96.8354 295.609 98.247 295.795 99.647 296.169C101.047 296.542 102.26 297.079 103.287 297.779L102.132 300.579C101.082 299.879 99.9737 299.377 98.807 299.074C97.6404 298.747 96.5087 298.584 95.412 298.584C94.0354 298.584 92.9037 298.759 92.017 299.109C91.1304 299.459 90.477 299.925 90.057 300.509C89.6604 301.092 89.462 301.745 89.462 302.469C89.462 303.332 89.7304 304.02 90.267 304.534C90.827 305.047 91.5387 305.455 92.402 305.759C93.2887 306.062 94.257 306.342 95.307 306.599C96.357 306.832 97.407 307.1 98.457 307.404C99.5304 307.707 100.499 308.104 101.362 308.594C102.249 309.084 102.96 309.737 103.497 310.554C104.034 311.37 104.302 312.42 104.302 313.704C104.302 314.94 103.964 316.095 103.287 317.169C102.61 318.219 101.56 319.07 100.137 319.724C98.737 320.354 96.9637 320.669 94.817 320.669ZM117.185 320.599C115.202 320.599 113.452 320.19 111.935 319.374C110.442 318.557 109.275 317.437 108.435 316.014C107.619 314.59 107.21 312.957 107.21 311.114C107.21 309.27 107.607 307.637 108.4 306.214C109.217 304.79 110.325 303.682 111.725 302.889C113.149 302.072 114.747 301.664 116.52 301.664C118.317 301.664 119.904 302.06 121.28 302.854C122.657 303.647 123.73 304.767 124.5 306.214C125.294 307.637 125.69 309.305 125.69 311.219C125.69 311.359 125.679 311.522 125.655 311.709C125.655 311.895 125.644 312.07 125.62 312.234H109.835V309.819H123.87L122.505 310.659C122.529 309.469 122.284 308.407 121.77 307.474C121.257 306.54 120.545 305.817 119.635 305.304C118.749 304.767 117.71 304.499 116.52 304.499C115.354 304.499 114.315 304.767 113.405 305.304C112.495 305.817 111.784 306.552 111.27 307.509C110.757 308.442 110.5 309.515 110.5 310.729V311.289C110.5 312.525 110.78 313.634 111.34 314.614C111.924 315.57 112.729 316.317 113.755 316.854C114.782 317.39 115.96 317.659 117.29 317.659C118.387 317.659 119.379 317.472 120.265 317.099C121.175 316.725 121.969 316.165 122.645 315.419L124.5 317.589C123.66 318.569 122.61 319.315 121.35 319.829C120.114 320.342 118.725 320.599 117.185 320.599ZM138.441 320.599C136.551 320.599 134.859 320.19 133.366 319.374C131.896 318.557 130.741 317.437 129.901 316.014C129.061 314.59 128.641 312.957 128.641 311.114C128.641 309.27 129.061 307.637 129.901 306.214C130.741 304.79 131.896 303.682 133.366 302.889C134.859 302.072 136.551 301.664 138.441 301.664C140.121 301.664 141.614 302.002 142.921 302.679C144.251 303.332 145.278 304.312 146.001 305.619L143.446 307.264C142.839 306.354 142.093 305.689 141.206 305.269C140.343 304.825 139.409 304.604 138.406 304.604C137.193 304.604 136.108 304.872 135.151 305.409C134.194 305.945 133.436 306.704 132.876 307.684C132.316 308.64 132.036 309.784 132.036 311.114C132.036 312.444 132.316 313.599 132.876 314.579C133.436 315.559 134.194 316.317 135.151 316.854C136.108 317.39 137.193 317.659 138.406 317.659C139.409 317.659 140.343 317.449 141.206 317.029C142.093 316.585 142.839 315.909 143.446 314.999L146.001 316.609C145.278 317.892 144.251 318.884 142.921 319.584C141.614 320.26 140.121 320.599 138.441 320.599ZM158.023 320.599C156.156 320.599 154.499 320.19 153.053 319.374C151.606 318.557 150.463 317.437 149.623 316.014C148.783 314.567 148.363 312.934 148.363 311.114C148.363 309.27 148.783 307.637 149.623 306.214C150.463 304.79 151.606 303.682 153.053 302.889C154.499 302.072 156.156 301.664 158.023 301.664C159.866 301.664 161.511 302.072 162.958 302.889C164.428 303.682 165.571 304.79 166.388 306.214C167.228 307.614 167.648 309.247 167.648 311.114C167.648 312.957 167.228 314.59 166.388 316.014C165.571 317.437 164.428 318.557 162.958 319.374C161.511 320.19 159.866 320.599 158.023 320.599ZM158.023 317.659C159.213 317.659 160.274 317.39 161.208 316.854C162.164 316.317 162.911 315.559 163.448 314.579C163.984 313.575 164.253 312.42 164.253 311.114C164.253 309.784 163.984 308.64 163.448 307.684C162.911 306.704 162.164 305.945 161.208 305.409C160.274 304.872 159.213 304.604 158.023 304.604C156.833 304.604 155.771 304.872 154.838 305.409C153.904 305.945 153.158 306.704 152.598 307.684C152.038 308.64 151.758 309.784 151.758 311.114C151.758 312.42 152.038 313.575 152.598 314.579C153.158 315.559 153.904 316.317 154.838 316.854C155.771 317.39 156.833 317.659 158.023 317.659ZM182.199 301.664C183.716 301.664 185.046 301.955 186.189 302.539C187.356 303.122 188.266 304.009 188.919 305.199C189.573 306.389 189.899 307.894 189.899 309.714V320.389H186.539V310.099C186.539 308.302 186.096 306.949 185.209 306.039C184.346 305.129 183.121 304.674 181.534 304.674C180.344 304.674 179.306 304.907 178.419 305.374C177.533 305.84 176.844 306.529 176.354 307.439C175.888 308.349 175.654 309.48 175.654 310.834V320.389H172.294V301.839H175.514V306.844L174.989 305.514C175.596 304.3 176.529 303.355 177.789 302.679C179.049 302.002 180.519 301.664 182.199 301.664ZM203.783 320.599C201.986 320.599 200.376 320.202 198.953 319.409C197.553 318.615 196.444 317.507 195.628 316.084C194.811 314.66 194.403 313.004 194.403 311.114C194.403 309.224 194.811 307.579 195.628 306.179C196.444 304.755 197.553 303.647 198.953 302.854C200.376 302.06 201.986 301.664 203.783 301.664C205.346 301.664 206.758 302.014 208.018 302.714C209.278 303.414 210.281 304.464 211.028 305.864C211.798 307.264 212.183 309.014 212.183 311.114C212.183 313.214 211.809 314.964 211.063 316.364C210.339 317.764 209.348 318.825 208.088 319.549C206.828 320.249 205.393 320.599 203.783 320.599ZM204.063 317.659C205.229 317.659 206.279 317.39 207.213 316.854C208.169 316.317 208.916 315.559 209.453 314.579C210.013 313.575 210.293 312.42 210.293 311.114C210.293 309.784 210.013 308.64 209.453 307.684C208.916 306.704 208.169 305.945 207.213 305.409C206.279 304.872 205.229 304.604 204.063 304.604C202.873 304.604 201.811 304.872 200.878 305.409C199.944 305.945 199.198 306.704 198.638 307.684C198.078 308.64 197.798 309.784 197.798 311.114C197.798 312.42 198.078 313.575 198.638 314.579C199.198 315.559 199.944 316.317 200.878 316.854C201.811 317.39 202.873 317.659 204.063 317.659ZM210.398 320.389V315.384L210.608 311.079L210.258 306.774V294.419H213.618V320.389H210.398ZM229.865 320.389V295.889H239.42C241.566 295.889 243.398 296.227 244.915 296.904C246.431 297.58 247.598 298.56 248.415 299.844C249.231 301.127 249.64 302.655 249.64 304.429C249.64 306.202 249.231 307.73 248.415 309.014C247.598 310.274 246.431 311.254 244.915 311.954C243.398 312.63 241.566 312.969 239.42 312.969H231.79L233.365 311.324V320.389H229.865ZM233.365 311.674L231.79 309.924H239.315C241.555 309.924 243.246 309.445 244.39 308.489C245.556 307.532 246.14 306.179 246.14 304.429C246.14 302.679 245.556 301.325 244.39 300.369C243.246 299.412 241.555 298.934 239.315 298.934H231.79L233.365 297.184V311.674ZM254.633 320.389V294.419H257.993V320.389H254.633ZM275.924 320.389V316.469L275.749 315.734V309.049C275.749 307.625 275.329 306.529 274.489 305.759C273.672 304.965 272.435 304.569 270.779 304.569C269.682 304.569 268.609 304.755 267.559 305.129C266.509 305.479 265.622 305.957 264.899 306.564L263.499 304.044C264.455 303.274 265.599 302.69 266.929 302.294C268.282 301.874 269.694 301.664 271.164 301.664C273.707 301.664 275.667 302.282 277.044 303.519C278.42 304.755 279.109 306.645 279.109 309.189V320.389H275.924ZM269.834 320.599C268.457 320.599 267.244 320.365 266.194 319.899C265.167 319.432 264.374 318.79 263.814 317.974C263.254 317.134 262.974 316.189 262.974 315.139C262.974 314.135 263.207 313.225 263.674 312.409C264.164 311.592 264.945 310.939 266.019 310.449C267.115 309.959 268.585 309.714 270.429 309.714H276.309V312.129H270.569C268.889 312.129 267.757 312.409 267.174 312.969C266.59 313.529 266.299 314.205 266.299 314.999C266.299 315.909 266.66 316.644 267.384 317.204C268.107 317.74 269.11 318.009 270.394 318.009C271.654 318.009 272.75 317.729 273.684 317.169C274.64 316.609 275.329 315.792 275.749 314.719L276.414 317.029C275.97 318.125 275.189 319 274.069 319.654C272.949 320.284 271.537 320.599 269.834 320.599ZM293.412 320.599C291.522 320.599 289.83 320.19 288.337 319.374C286.867 318.557 285.712 317.437 284.872 316.014C284.032 314.59 283.612 312.957 283.612 311.114C283.612 309.27 284.032 307.637 284.872 306.214C285.712 304.79 286.867 303.682 288.337 302.889C289.83 302.072 291.522 301.664 293.412 301.664C295.092 301.664 296.585 302.002 297.892 302.679C299.222 303.332 300.248 304.312 300.972 305.619L298.417 307.264C297.81 306.354 297.063 305.689 296.177 305.269C295.313 304.825 294.38 304.604 293.377 304.604C292.163 304.604 291.078 304.872 290.122 305.409C289.165 305.945 288.407 306.704 287.847 307.684C287.287 308.64 287.007 309.784 287.007 311.114C287.007 312.444 287.287 313.599 287.847 314.579C288.407 315.559 289.165 316.317 290.122 316.854C291.078 317.39 292.163 317.659 293.377 317.659C294.38 317.659 295.313 317.449 296.177 317.029C297.063 316.585 297.81 315.909 298.417 314.999L300.972 316.609C300.248 317.892 299.222 318.884 297.892 319.584C296.585 320.26 295.092 320.599 293.412 320.599ZM313.308 320.599C311.325 320.599 309.575 320.19 308.058 319.374C306.565 318.557 305.398 317.437 304.558 316.014C303.742 314.59 303.333 312.957 303.333 311.114C303.333 309.27 303.73 307.637 304.523 306.214C305.34 304.79 306.448 303.682 307.848 302.889C309.272 302.072 310.87 301.664 312.643 301.664C314.44 301.664 316.027 302.06 317.403 302.854C318.78 303.647 319.853 304.767 320.623 306.214C321.417 307.637 321.813 309.305 321.813 311.219C321.813 311.359 321.802 311.522 321.778 311.709C321.778 311.895 321.767 312.07 321.743 312.234H305.958V309.819H319.993L318.628 310.659C318.652 309.469 318.407 308.407 317.893 307.474C317.38 306.54 316.668 305.817 315.758 305.304C314.872 304.767 313.833 304.499 312.643 304.499C311.477 304.499 310.438 304.767 309.528 305.304C308.618 305.817 307.907 306.552 307.393 307.509C306.88 308.442 306.623 309.515 306.623 310.729V311.289C306.623 312.525 306.903 313.634 307.463 314.614C308.047 315.57 308.852 316.317 309.878 316.854C310.905 317.39 312.083 317.659 313.413 317.659C314.51 317.659 315.502 317.472 316.388 317.099C317.298 316.725 318.092 316.165 318.768 315.419L320.623 317.589C319.783 318.569 318.733 319.315 317.473 319.829C316.237 320.342 314.848 320.599 313.308 320.599ZM327.284 306.459C326.631 306.459 326.071 306.237 325.604 305.794C325.137 305.327 324.904 304.744 324.904 304.044C324.904 303.344 325.137 302.772 325.604 302.329C326.071 301.885 326.631 301.664 327.284 301.664C327.914 301.664 328.451 301.885 328.894 302.329C329.361 302.772 329.594 303.344 329.594 304.044C329.594 304.744 329.361 305.327 328.894 305.794C328.451 306.237 327.914 306.459 327.284 306.459ZM327.284 320.599C326.631 320.599 326.071 320.377 325.604 319.934C325.137 319.467 324.904 318.884 324.904 318.184C324.904 317.484 325.137 316.912 325.604 316.469C326.071 316.025 326.631 315.804 327.284 315.804C327.914 315.804 328.451 316.025 328.894 316.469C329.361 316.912 329.594 317.484 329.594 318.184C329.594 318.884 329.361 319.467 328.894 319.934C328.451 320.377 327.914 320.599 327.284 320.599ZM179.613 367.589V334.689H181.853V367.589H179.613ZM180.488 363.669C178.622 363.669 176.837 363.389 175.133 362.829C173.43 362.245 172.088 361.499 171.108 360.589L172.403 357.859C173.337 358.675 174.527 359.352 175.973 359.889C177.42 360.425 178.925 360.694 180.488 360.694C181.912 360.694 183.067 360.53 183.953 360.204C184.84 359.877 185.493 359.434 185.913 358.874C186.333 358.29 186.543 357.637 186.543 356.914C186.543 356.074 186.263 355.397 185.703 354.884C185.167 354.37 184.455 353.962 183.568 353.659C182.705 353.332 181.748 353.052 180.698 352.819C179.648 352.585 178.587 352.317 177.513 352.014C176.463 351.687 175.495 351.279 174.608 350.789C173.745 350.299 173.045 349.645 172.508 348.829C171.972 347.989 171.703 346.915 171.703 345.609C171.703 344.349 172.03 343.194 172.683 342.144C173.36 341.07 174.387 340.219 175.763 339.589C177.163 338.935 178.937 338.609 181.083 338.609C182.507 338.609 183.918 338.795 185.318 339.169C186.718 339.542 187.932 340.079 188.958 340.779L187.803 343.579C186.753 342.879 185.645 342.377 184.478 342.074C183.312 341.747 182.18 341.584 181.083 341.584C179.707 341.584 178.575 341.759 177.688 342.109C176.802 342.459 176.148 342.925 175.728 343.509C175.332 344.092 175.133 344.745 175.133 345.469C175.133 346.332 175.402 347.02 175.938 347.534C176.498 348.047 177.21 348.455 178.073 348.759C178.96 349.062 179.928 349.342 180.978 349.599C182.028 349.832 183.078 350.1 184.128 350.404C185.202 350.707 186.17 351.104 187.033 351.594C187.92 352.084 188.632 352.737 189.168 353.554C189.705 354.37 189.973 355.42 189.973 356.704C189.973 357.94 189.635 359.095 188.958 360.169C188.282 361.219 187.232 362.07 185.808 362.724C184.408 363.354 182.635 363.669 180.488 363.669ZM192.707 363.389V361.009L202.682 351.384C203.568 350.544 204.222 349.809 204.642 349.179C205.085 348.525 205.377 347.93 205.517 347.394C205.68 346.834 205.762 346.297 205.762 345.784C205.762 344.524 205.318 343.532 204.432 342.809C203.545 342.085 202.25 341.724 200.547 341.724C199.24 341.724 198.062 341.945 197.012 342.389C195.962 342.809 195.052 343.474 194.282 344.384L191.902 342.319C192.835 341.129 194.083 340.219 195.647 339.589C197.233 338.935 198.972 338.609 200.862 338.609C202.565 338.609 204.047 338.889 205.307 339.449C206.567 339.985 207.535 340.767 208.212 341.794C208.912 342.82 209.262 344.034 209.262 345.434C209.262 346.227 209.157 347.009 208.947 347.779C208.737 348.549 208.34 349.365 207.757 350.229C207.173 351.092 206.333 352.06 205.237 353.134L196.347 361.709L195.507 360.344H210.312V363.389H192.707ZM221.099 363.669C219.373 363.669 217.693 363.4 216.059 362.864C214.449 362.327 213.131 361.604 212.104 360.694L213.714 357.929C214.531 358.699 215.593 359.329 216.899 359.819C218.206 360.309 219.594 360.554 221.064 360.554C222.931 360.554 224.366 360.157 225.369 359.364C226.373 358.57 226.874 357.509 226.874 356.179C226.874 355.269 226.653 354.475 226.209 353.799C225.766 353.122 224.996 352.609 223.899 352.259C222.826 351.885 221.344 351.699 219.454 351.699H213.889L215.184 338.889H229.009V341.934H216.479L218.299 340.219L217.284 350.334L215.464 348.654H220.189C222.639 348.654 224.611 348.969 226.104 349.599C227.598 350.229 228.683 351.104 229.359 352.224C230.036 353.32 230.374 354.592 230.374 356.039C230.374 357.439 230.036 358.722 229.359 359.889C228.683 361.032 227.656 361.954 226.279 362.654C224.926 363.33 223.199 363.669 221.099 363.669ZM243.297 363.669C241.384 363.669 239.669 363.179 238.152 362.199C236.659 361.219 235.469 359.795 234.582 357.929C233.719 356.062 233.287 353.799 233.287 351.139C233.287 348.479 233.719 346.215 234.582 344.349C235.469 342.482 236.659 341.059 238.152 340.079C239.669 339.099 241.384 338.609 243.297 338.609C245.187 338.609 246.89 339.099 248.407 340.079C249.924 341.059 251.114 342.482 251.977 344.349C252.84 346.215 253.272 348.479 253.272 351.139C253.272 353.799 252.84 356.062 251.977 357.929C251.114 359.795 249.924 361.219 248.407 362.199C246.89 363.179 245.187 363.669 243.297 363.669ZM243.297 360.554C244.58 360.554 245.7 360.204 246.657 359.504C247.637 358.804 248.395 357.754 248.932 356.354C249.492 354.954 249.772 353.215 249.772 351.139C249.772 349.062 249.492 347.324 248.932 345.924C248.395 344.524 247.637 343.474 246.657 342.774C245.7 342.074 244.58 341.724 243.297 341.724C242.014 341.724 240.882 342.074 239.902 342.774C238.922 343.474 238.152 344.524 237.592 345.924C237.055 347.324 236.787 349.062 236.787 351.139C236.787 353.215 237.055 354.954 237.592 356.354C238.152 357.754 238.922 358.804 239.902 359.504C240.882 360.204 242.014 360.554 243.297 360.554Z" fill="#233C79"/>
    <path d="M71.5941 136.136V111.636H83.5641C86.6441 111.636 88.9541 112.219 90.4941 113.386C92.0574 114.552 92.8391 116.092 92.8391 118.006C92.8391 119.289 92.5241 120.409 91.8941 121.366C91.2641 122.299 90.4008 123.022 89.3041 123.536C88.2074 124.049 86.9474 124.306 85.5241 124.306L86.1891 122.871C87.7291 122.871 89.0941 123.127 90.2841 123.641C91.4741 124.131 92.3958 124.866 93.0491 125.846C93.7258 126.826 94.0641 128.027 94.0641 129.451C94.0641 131.551 93.2358 133.196 91.5791 134.386C89.9224 135.552 87.4841 136.136 84.2641 136.136H71.5941ZM77.2291 131.866H83.8441C85.3141 131.866 86.4224 131.632 87.1691 131.166C87.9391 130.676 88.3241 129.906 88.3241 128.856C88.3241 127.829 87.9391 127.071 87.1691 126.581C86.4224 126.067 85.3141 125.811 83.8441 125.811H76.8091V121.681H82.8641C84.2408 121.681 85.2908 121.447 86.0141 120.981C86.7608 120.491 87.1341 119.756 87.1341 118.776C87.1341 117.819 86.7608 117.107 86.0141 116.641C85.2908 116.151 84.2408 115.906 82.8641 115.906H77.2291V131.866ZM107.317 136.416C105.17 136.416 103.28 135.996 101.647 135.156C100.037 134.316 98.7884 133.172 97.9018 131.726C97.0151 130.256 96.5718 128.587 96.5718 126.721C96.5718 124.831 97.0034 123.162 97.8668 121.716C98.7534 120.246 99.9551 119.102 101.472 118.286C102.988 117.446 104.703 117.026 106.617 117.026C108.46 117.026 110.117 117.422 111.587 118.216C113.08 118.986 114.258 120.106 115.122 121.576C115.985 123.022 116.417 124.761 116.417 126.791C116.417 127.001 116.405 127.246 116.382 127.526C116.358 127.782 116.335 128.027 116.312 128.261H101.017V125.076H113.442L111.342 126.021C111.342 125.041 111.143 124.189 110.747 123.466C110.35 122.742 109.802 122.182 109.102 121.786C108.402 121.366 107.585 121.156 106.652 121.156C105.718 121.156 104.89 121.366 104.167 121.786C103.467 122.182 102.918 122.754 102.522 123.501C102.125 124.224 101.927 125.087 101.927 126.091V126.931C101.927 127.957 102.148 128.867 102.592 129.661C103.058 130.431 103.7 131.026 104.517 131.446C105.357 131.842 106.337 132.041 107.457 132.041C108.46 132.041 109.335 131.889 110.082 131.586C110.852 131.282 111.552 130.827 112.182 130.221L115.087 133.371C114.223 134.351 113.138 135.109 111.832 135.646C110.525 136.159 109.02 136.416 107.317 136.416ZM128.907 143.206C127.134 143.206 125.419 142.984 123.762 142.541C122.129 142.121 120.764 141.479 119.667 140.616L121.837 136.696C122.63 137.349 123.634 137.862 124.847 138.236C126.084 138.632 127.297 138.831 128.487 138.831C130.424 138.831 131.824 138.399 132.687 137.536C133.574 136.672 134.017 135.389 134.017 133.686V130.851L134.367 126.126L134.297 121.366V117.306H139.477V132.986C139.477 136.486 138.567 139.064 136.747 140.721C134.927 142.377 132.314 143.206 128.907 143.206ZM128.067 135.226C126.317 135.226 124.73 134.852 123.307 134.106C121.907 133.336 120.775 132.274 119.912 130.921C119.072 129.544 118.652 127.946 118.652 126.126C118.652 124.282 119.072 122.684 119.912 121.331C120.775 119.954 121.907 118.892 123.307 118.146C124.73 117.399 126.317 117.026 128.067 117.026C129.654 117.026 131.054 117.352 132.267 118.006C133.48 118.636 134.425 119.627 135.102 120.981C135.779 122.311 136.117 124.026 136.117 126.126C136.117 128.202 135.779 129.917 135.102 131.271C134.425 132.601 133.48 133.592 132.267 134.246C131.054 134.899 129.654 135.226 128.067 135.226ZM129.152 130.746C130.109 130.746 130.96 130.559 131.707 130.186C132.454 129.789 133.037 129.241 133.457 128.541C133.877 127.841 134.087 127.036 134.087 126.126C134.087 125.192 133.877 124.387 133.457 123.711C133.037 123.011 132.454 122.474 131.707 122.101C130.96 121.704 130.109 121.506 129.152 121.506C128.195 121.506 127.344 121.704 126.597 122.101C125.85 122.474 125.255 123.011 124.812 123.711C124.392 124.387 124.182 125.192 124.182 126.126C124.182 127.036 124.392 127.841 124.812 128.541C125.255 129.241 125.85 129.789 126.597 130.186C127.344 130.559 128.195 130.746 129.152 130.746ZM144.559 136.136V117.306H150.019V136.136H144.559ZM147.289 114.681C146.285 114.681 145.469 114.389 144.839 113.806C144.209 113.222 143.894 112.499 143.894 111.636C143.894 110.772 144.209 110.049 144.839 109.466C145.469 108.882 146.285 108.591 147.289 108.591C148.292 108.591 149.109 108.871 149.739 109.431C150.369 109.967 150.684 110.667 150.684 111.531C150.684 112.441 150.369 113.199 149.739 113.806C149.132 114.389 148.315 114.681 147.289 114.681ZM166.531 117.026C168.024 117.026 169.354 117.329 170.521 117.936C171.711 118.519 172.644 119.429 173.321 120.666C173.998 121.879 174.336 123.442 174.336 125.356V136.136H168.876V126.196C168.876 124.679 168.538 123.559 167.861 122.836C167.208 122.112 166.274 121.751 165.061 121.751C164.198 121.751 163.416 121.937 162.716 122.311C162.039 122.661 161.503 123.209 161.106 123.956C160.733 124.702 160.546 125.659 160.546 126.826V136.136H155.086V117.306H160.301V122.521L159.321 120.946C159.998 119.686 160.966 118.717 162.226 118.041C163.486 117.364 164.921 117.026 166.531 117.026ZM190.73 117.026C192.224 117.026 193.554 117.329 194.72 117.936C195.91 118.519 196.844 119.429 197.52 120.666C198.197 121.879 198.535 123.442 198.535 125.356V136.136H193.075V126.196C193.075 124.679 192.737 123.559 192.06 122.836C191.407 122.112 190.474 121.751 189.26 121.751C188.397 121.751 187.615 121.937 186.915 122.311C186.239 122.661 185.702 123.209 185.305 123.956C184.932 124.702 184.745 125.659 184.745 126.826V136.136H179.285V117.306H184.5V122.521L183.52 120.946C184.197 119.686 185.165 118.717 186.425 118.041C187.685 117.364 189.12 117.026 190.73 117.026ZM212.966 136.416C210.82 136.416 208.93 135.996 207.296 135.156C205.686 134.316 204.438 133.172 203.551 131.726C202.665 130.256 202.221 128.587 202.221 126.721C202.221 124.831 202.653 123.162 203.516 121.716C204.403 120.246 205.605 119.102 207.121 118.286C208.638 117.446 210.353 117.026 212.266 117.026C214.11 117.026 215.766 117.422 217.236 118.216C218.73 118.986 219.908 120.106 220.771 121.576C221.635 123.022 222.066 124.761 222.066 126.791C222.066 127.001 222.055 127.246 222.031 127.526C222.008 127.782 221.985 128.027 221.961 128.261H206.666V125.076H219.091L216.991 126.021C216.991 125.041 216.793 124.189 216.396 123.466C216 122.742 215.451 122.182 214.751 121.786C214.051 121.366 213.235 121.156 212.301 121.156C211.368 121.156 210.54 121.366 209.816 121.786C209.116 122.182 208.568 122.754 208.171 123.501C207.775 124.224 207.576 125.087 207.576 126.091V126.931C207.576 127.957 207.798 128.867 208.241 129.661C208.708 130.431 209.35 131.026 210.166 131.446C211.006 131.842 211.986 132.041 213.106 132.041C214.11 132.041 214.985 131.889 215.731 131.586C216.501 131.282 217.201 130.827 217.831 130.221L220.736 133.371C219.873 134.351 218.788 135.109 217.481 135.646C216.175 136.159 214.67 136.416 212.966 136.416ZM225.701 136.136V117.306H230.916V122.626L230.181 121.086C230.741 119.756 231.64 118.752 232.876 118.076C234.113 117.376 235.618 117.026 237.391 117.026V122.066C237.158 122.042 236.948 122.031 236.761 122.031C236.575 122.007 236.376 121.996 236.166 121.996C234.673 121.996 233.46 122.427 232.526 123.291C231.616 124.131 231.161 125.449 231.161 127.246V136.136H225.701ZM256.147 136.136V116.256H248.307V111.636H269.657V116.256H261.817V136.136H256.147ZM271.912 136.136V117.306H277.127V122.626L276.392 121.086C276.952 119.756 277.851 118.752 279.087 118.076C280.324 117.376 281.829 117.026 283.602 117.026V122.066C283.369 122.042 283.159 122.031 282.972 122.031C282.786 122.007 282.587 121.996 282.377 121.996C280.884 121.996 279.671 122.427 278.737 123.291C277.827 124.131 277.372 125.449 277.372 127.246V136.136H271.912ZM297.168 136.136V132.461L296.818 131.656V125.076C296.818 123.909 296.457 122.999 295.733 122.346C295.033 121.692 293.948 121.366 292.478 121.366C291.475 121.366 290.483 121.529 289.503 121.856C288.547 122.159 287.73 122.579 287.053 123.116L285.093 119.301C286.12 118.577 287.357 118.017 288.803 117.621C290.25 117.224 291.72 117.026 293.213 117.026C296.083 117.026 298.312 117.702 299.898 119.056C301.485 120.409 302.278 122.521 302.278 125.391V136.136H297.168ZM291.428 136.416C289.958 136.416 288.698 136.171 287.648 135.681C286.598 135.167 285.793 134.479 285.233 133.616C284.673 132.752 284.393 131.784 284.393 130.711C284.393 129.591 284.662 128.611 285.198 127.771C285.758 126.931 286.633 126.277 287.823 125.811C289.013 125.321 290.565 125.076 292.478 125.076H297.483V128.261H293.073C291.79 128.261 290.903 128.471 290.413 128.891C289.947 129.311 289.713 129.836 289.713 130.466C289.713 131.166 289.982 131.726 290.518 132.146C291.078 132.542 291.837 132.741 292.793 132.741C293.703 132.741 294.52 132.531 295.243 132.111C295.967 131.667 296.492 131.026 296.818 130.186L297.658 132.706C297.262 133.919 296.538 134.841 295.488 135.471C294.438 136.101 293.085 136.416 291.428 136.416ZM316.457 136.416C314.427 136.416 312.618 136.007 311.032 135.191C309.445 134.351 308.197 133.196 307.287 131.726C306.4 130.256 305.957 128.587 305.957 126.721C305.957 124.831 306.4 123.162 307.287 121.716C308.197 120.246 309.445 119.102 311.032 118.286C312.618 117.446 314.427 117.026 316.457 117.026C318.44 117.026 320.167 117.446 321.637 118.286C323.107 119.102 324.192 120.281 324.892 121.821L320.657 124.096C320.167 123.209 319.548 122.556 318.802 122.136C318.078 121.716 317.285 121.506 316.422 121.506C315.488 121.506 314.648 121.716 313.902 122.136C313.155 122.556 312.56 123.151 312.117 123.921C311.697 124.691 311.487 125.624 311.487 126.721C311.487 127.817 311.697 128.751 312.117 129.521C312.56 130.291 313.155 130.886 313.902 131.306C314.648 131.726 315.488 131.936 316.422 131.936C317.285 131.936 318.078 131.737 318.802 131.341C319.548 130.921 320.167 130.256 320.657 129.346L324.892 131.656C324.192 133.172 323.107 134.351 321.637 135.191C320.167 136.007 318.44 136.416 316.457 136.416ZM332.448 132.286L332.588 125.636L341.373 117.306H347.883L339.448 125.881L336.613 128.191L332.448 132.286ZM327.933 136.136V110.166H333.393V136.136H327.933ZM341.968 136.136L335.598 128.226L339.028 123.991L348.583 136.136H341.968ZM128.279 178.956C127.079 177.136 126.149 175.036 125.489 172.656C124.849 170.256 124.529 167.676 124.529 164.916C124.529 162.156 124.849 159.576 125.489 157.176C126.149 154.756 127.079 152.656 128.279 150.876H132.749C131.489 153.136 130.569 155.416 129.989 157.716C129.409 159.996 129.119 162.396 129.119 164.916C129.119 167.436 129.409 169.846 129.989 172.146C130.569 174.426 131.489 176.696 132.749 178.956H128.279ZM142.452 173.496C140.772 173.496 139.162 173.276 137.622 172.836C136.082 172.376 134.842 171.786 133.902 171.066L135.552 167.406C136.452 168.046 137.512 168.576 138.732 168.996C139.972 169.396 141.222 169.596 142.482 169.596C143.442 169.596 144.212 169.506 144.792 169.326C145.392 169.126 145.832 168.856 146.112 168.516C146.392 168.176 146.532 167.786 146.532 167.346C146.532 166.786 146.312 166.346 145.872 166.026C145.432 165.686 144.852 165.416 144.132 165.216C143.412 164.996 142.612 164.796 141.732 164.616C140.872 164.416 140.002 164.176 139.122 163.896C138.262 163.616 137.472 163.256 136.752 162.816C136.032 162.376 135.442 161.796 134.982 161.076C134.542 160.356 134.322 159.436 134.322 158.316C134.322 157.116 134.642 156.026 135.282 155.046C135.942 154.046 136.922 153.256 138.222 152.676C139.542 152.076 141.192 151.776 143.172 151.776C144.492 151.776 145.792 151.936 147.072 152.256C148.352 152.556 149.482 153.016 150.462 153.636L148.962 157.326C147.982 156.766 147.002 156.356 146.022 156.096C145.042 155.816 144.082 155.676 143.142 155.676C142.202 155.676 141.432 155.786 140.832 156.006C140.232 156.226 139.802 156.516 139.542 156.876C139.282 157.216 139.152 157.616 139.152 158.076C139.152 158.616 139.372 159.056 139.812 159.396C140.252 159.716 140.832 159.976 141.552 160.176C142.272 160.376 143.062 160.576 143.922 160.776C144.802 160.976 145.672 161.206 146.532 161.466C147.412 161.726 148.212 162.076 148.932 162.516C149.652 162.956 150.232 163.536 150.672 164.256C151.132 164.976 151.362 165.886 151.362 166.986C151.362 168.166 151.032 169.246 150.372 170.226C149.712 171.206 148.722 171.996 147.402 172.596C146.102 173.196 144.452 173.496 142.452 173.496ZM160.953 173.376C159.053 173.376 157.573 172.896 156.513 171.936C155.453 170.956 154.923 169.506 154.923 167.586V153.426H159.603V167.526C159.603 168.206 159.783 168.736 160.143 169.116C160.503 169.476 160.993 169.656 161.613 169.656C162.353 169.656 162.983 169.456 163.503 169.056L164.763 172.356C164.283 172.696 163.703 172.956 163.023 173.136C162.363 173.296 161.673 173.376 160.953 173.376ZM152.433 160.956V157.356H163.623V160.956H152.433ZM177.29 173.136V169.986L176.99 169.296V163.656C176.99 162.656 176.68 161.876 176.06 161.316C175.46 160.756 174.53 160.476 173.27 160.476C172.41 160.476 171.56 160.616 170.72 160.896C169.9 161.156 169.2 161.516 168.62 161.976L166.94 158.706C167.82 158.086 168.88 157.606 170.12 157.266C171.36 156.926 172.62 156.756 173.9 156.756C176.36 156.756 178.27 157.336 179.63 158.496C180.99 159.656 181.67 161.466 181.67 163.926V173.136H177.29ZM172.37 173.376C171.11 173.376 170.03 173.166 169.13 172.746C168.23 172.306 167.54 171.716 167.06 170.976C166.58 170.236 166.34 169.406 166.34 168.486C166.34 167.526 166.57 166.686 167.03 165.966C167.51 165.246 168.26 164.686 169.28 164.286C170.3 163.866 171.63 163.656 173.27 163.656H177.56V166.386H173.78C172.68 166.386 171.92 166.566 171.5 166.926C171.1 167.286 170.9 167.736 170.9 168.276C170.9 168.876 171.13 169.356 171.59 169.716C172.07 170.056 172.72 170.226 173.54 170.226C174.32 170.226 175.02 170.046 175.64 169.686C176.26 169.306 176.71 168.756 176.99 168.036L177.71 170.196C177.37 171.236 176.75 172.026 175.85 172.566C174.95 173.106 173.79 173.376 172.37 173.376ZM186.475 173.136V156.636C186.475 154.816 187.015 153.366 188.095 152.286C189.175 151.186 190.715 150.636 192.715 150.636C193.395 150.636 194.045 150.706 194.665 150.846C195.305 150.986 195.845 151.206 196.285 151.506L195.055 154.896C194.795 154.716 194.505 154.576 194.185 154.476C193.865 154.376 193.525 154.326 193.165 154.326C192.485 154.326 191.955 154.526 191.575 154.926C191.215 155.306 191.035 155.886 191.035 156.666V158.166L191.155 160.176V173.136H186.475ZM183.985 160.956V157.356H195.175V160.956H183.985ZM198.311 173.136V156.636C198.311 154.816 198.851 153.366 199.931 152.286C201.011 151.186 202.551 150.636 204.551 150.636C205.231 150.636 205.881 150.706 206.501 150.846C207.141 150.986 207.681 151.206 208.121 151.506L206.891 154.896C206.631 154.716 206.341 154.576 206.021 154.476C205.701 154.376 205.361 154.326 205.001 154.326C204.321 154.326 203.791 154.526 203.411 154.926C203.051 155.306 202.871 155.886 202.871 156.666V158.166L202.991 160.176V173.136H198.311ZM195.821 160.956V157.356H207.011V160.956H195.821ZM218.169 173.136V152.136H227.259C229.139 152.136 230.759 152.446 232.119 153.066C233.479 153.666 234.529 154.536 235.269 155.676C236.009 156.816 236.379 158.176 236.379 159.756C236.379 161.316 236.009 162.666 235.269 163.806C234.529 164.946 233.479 165.826 232.119 166.446C230.759 167.046 229.139 167.346 227.259 167.346H220.869L223.029 165.156V173.136H218.169ZM223.029 165.696L220.869 163.386H226.989C228.489 163.386 229.609 163.066 230.349 162.426C231.089 161.786 231.459 160.896 231.459 159.756C231.459 158.596 231.089 157.696 230.349 157.056C229.609 156.416 228.489 156.096 226.989 156.096H220.869L223.029 153.786V165.696ZM239.811 173.136V156.996H244.491V173.136H239.811ZM242.151 154.746C241.291 154.746 240.591 154.496 240.051 153.996C239.511 153.496 239.241 152.876 239.241 152.136C239.241 151.396 239.511 150.776 240.051 150.276C240.591 149.776 241.291 149.526 242.151 149.526C243.011 149.526 243.711 149.766 244.251 150.246C244.791 150.706 245.061 151.306 245.061 152.046C245.061 152.826 244.791 153.476 244.251 153.996C243.731 154.496 243.031 154.746 242.151 154.746ZM256.635 173.376C254.895 173.376 253.345 173.026 251.985 172.326C250.625 171.606 249.555 170.616 248.775 169.356C248.015 168.096 247.635 166.666 247.635 165.066C247.635 163.446 248.015 162.016 248.775 160.776C249.555 159.516 250.625 158.536 251.985 157.836C253.345 157.116 254.895 156.756 256.635 156.756C258.335 156.756 259.815 157.116 261.075 157.836C262.335 158.536 263.265 159.546 263.865 160.866L260.235 162.816C259.815 162.056 259.285 161.496 258.645 161.136C258.025 160.776 257.345 160.596 256.605 160.596C255.805 160.596 255.085 160.776 254.445 161.136C253.805 161.496 253.295 162.006 252.915 162.666C252.555 163.326 252.375 164.126 252.375 165.066C252.375 166.006 252.555 166.806 252.915 167.466C253.295 168.126 253.805 168.636 254.445 168.996C255.085 169.356 255.805 169.536 256.605 169.536C257.345 169.536 258.025 169.366 258.645 169.026C259.285 168.666 259.815 168.096 260.235 167.316L263.865 169.296C263.265 170.596 262.335 171.606 261.075 172.326C259.815 173.026 258.335 173.376 256.635 173.376ZM270.342 169.836L270.462 164.136L277.992 156.996H283.572L276.342 164.346L273.912 166.326L270.342 169.836ZM266.472 173.136V150.876H271.152V173.136H266.472ZM278.502 173.136L273.042 166.356L275.982 162.726L284.172 173.136H278.502ZM288.886 178.956H284.416C285.716 176.696 286.646 174.426 287.206 172.146C287.786 169.846 288.076 167.436 288.076 164.916C288.076 162.396 287.786 159.996 287.206 157.716C286.646 155.416 285.716 153.136 284.416 150.876H288.886C290.126 152.656 291.066 154.756 291.706 157.176C292.346 159.576 292.666 162.156 292.666 164.916C292.666 167.676 292.346 170.256 291.706 172.656C291.066 175.036 290.126 177.136 288.886 178.956Z" fill="#233C79"/>
    <path d="M174.359 41.2363H179.339V50.097H187.048V41.2363H192.035V62.968H187.048V54.6225H179.339V62.968H174.359V41.2363Z" fill="#111130"/>
    <path d="M209.774 62.968L208.465 59.1242H200.212L198.874 62.968H193.756L201.953 41.2363H207.072L215.109 62.968H209.774ZM201.709 54.781H206.995L204.376 47.0299L201.709 54.781Z" fill="#111130"/>
    <path d="M227.888 46.483C227.114 45.982 226.243 45.7095 225.353 45.6904C224.43 45.6705 223.52 45.9451 222.727 46.483C221.937 47.0333 221.292 47.8165 220.861 48.7497C220.412 49.7427 220.179 50.843 220.179 51.9595C220.179 53.076 220.412 54.1763 220.861 55.1693C221.291 56.1017 221.936 56.8828 222.727 57.4281C223.52 57.966 224.43 58.2406 225.353 58.2206C226.204 58.1999 227.041 57.9672 227.804 57.5391C228.66 57.0796 229.436 56.4487 230.096 55.6766L233.007 59.2906C231.958 60.5431 230.704 61.55 229.316 62.2547C227.844 63.0336 226.232 63.4058 224.61 63.3411C222.989 63.2764 221.403 62.7765 219.983 61.8822C218.485 60.9216 217.243 59.5165 216.39 57.8164C215.509 56.0633 215.057 54.0738 215.08 52.0546C215.054 50.0707 215.506 48.1166 216.388 46.4048C217.27 44.6931 218.547 43.2892 220.081 42.3459C221.683 41.3652 223.478 40.866 225.297 40.8955C226.736 40.9042 228.158 41.2467 229.476 41.9021C230.791 42.532 231.977 43.4658 232.958 44.6443L230.075 48.607C229.479 47.7386 228.735 47.0162 227.888 46.483V46.483Z" fill="#111130"/>
    <path d="M253.489 62.968H247.528L242.513 54.5353L240.117 57.5708V62.968H235.131V41.2363H240.117V50.6597L247.284 41.2363H253.057L245.974 50.1921L253.489 62.968Z" fill="#111130"/>
    <path d="M174.283 79.5085H179.27V101.24H174.283V79.5085Z" fill="#111130"/>
    <path d="M182.975 79.5085H187.947V96.4057H196.04V101.24H182.975V79.5085Z" fill="#111130"/>
    <path d="M199.835 79.5085H204.822V96.4057H212.915V101.24H199.835V79.5085Z" fill="#111130"/>
    <path d="M215.693 79.5085H220.68V101.24H215.693V79.5085Z" fill="#111130"/>
    <path d="M237.945 79.5085H242.576V101.24H238.217L229.56 88.2583V101.24H224.901V79.5085H229.288L237.973 92.5777L237.945 79.5085Z" fill="#111130"/>
    <path d="M261.199 80.6262C262.724 81.5453 264.004 82.914 264.904 84.589C265.808 86.3127 266.273 88.2882 266.248 90.2953C266.276 92.301 265.82 94.2771 264.93 96.0084C264.04 97.7397 262.749 99.1601 261.199 100.115C259.585 101.123 257.768 101.636 255.927 101.605C254.088 101.634 252.273 101.127 250.655 100.131C249.116 99.1916 247.834 97.7875 246.95 96.073C246.046 94.3233 245.581 92.3249 245.606 90.2953C245.583 88.3146 246.04 86.3651 246.925 84.6597C247.811 82.9544 249.091 81.5591 250.627 80.6262C252.257 79.6678 254.065 79.1677 255.899 79.1677C257.734 79.1677 259.541 79.6678 261.171 80.6262H261.199ZM253.35 84.8109C252.541 85.3726 251.879 86.172 251.435 87.1251C250.964 88.1178 250.725 89.2309 250.738 90.3587C250.715 91.5004 250.955 92.6291 251.435 93.632C251.885 94.5822 252.545 95.3826 253.35 95.9541C254.133 96.5193 255.042 96.8164 255.969 96.8101C256.889 96.8173 257.792 96.5199 258.566 95.9541C259.362 95.3868 260.007 94.5842 260.433 93.632C260.882 92.6234 261.115 91.5089 261.115 90.3785C261.115 89.2482 260.882 88.1337 260.433 87.1251C260.007 86.1752 259.362 85.3751 258.566 84.8109C257.783 84.2747 256.883 84.0001 255.969 84.0183C255.048 84.0032 254.142 84.2775 253.35 84.8109Z" fill="#111130"/>
    <path d="M268.484 79.5085H273.471V101.24H268.484V79.5085Z" fill="#111130"/>
    <path d="M286.842 84.3748C285.912 83.9914 284.934 83.7722 283.945 83.725C283.438 83.6956 282.933 83.8302 282.49 84.1133C282.32 84.2306 282.18 84.3975 282.086 84.5968C281.992 84.7961 281.946 85.0205 281.953 85.2467C281.952 85.4724 281.993 85.696 282.073 85.9024C282.154 86.1088 282.272 86.2933 282.42 86.4434C282.752 86.7891 283.14 87.0583 283.562 87.236C284.015 87.4341 284.69 87.6877 285.582 88.0285C286.699 88.3816 287.795 88.8185 288.862 89.3362C289.739 89.7774 290.504 90.4646 291.084 91.3334C291.735 92.3527 292.061 93.5937 292.01 94.8524C292.04 96.1789 291.686 97.4798 291 98.5536C290.285 99.6119 289.318 100.415 288.214 100.868C286.967 101.406 285.642 101.675 284.307 101.66C282.695 101.657 281.096 101.338 279.579 100.717C278.094 100.145 276.713 99.269 275.504 98.1335L277.441 93.6952C278.454 94.7018 279.61 95.5057 280.86 96.0729C281.956 96.6404 283.139 96.9581 284.342 97.0081C284.957 97.0433 285.567 96.8812 286.104 96.5405C286.308 96.3991 286.475 96.1981 286.588 95.9584C286.701 95.7186 286.755 95.4489 286.745 95.1773C286.751 94.9423 286.711 94.7088 286.628 94.4936C286.545 94.2783 286.421 94.0869 286.264 93.933C285.916 93.5802 285.508 93.3106 285.067 93.1404C284.586 92.9423 283.91 92.7125 283.04 92.443C281.933 92.11 280.849 91.6889 279.794 91.1828C278.938 90.755 278.185 90.0968 277.601 89.2649C276.957 88.2756 276.634 87.0627 276.688 85.8331C276.666 84.5605 277.003 83.3133 277.649 82.2746C278.32 81.2046 279.249 80.3787 280.324 79.8969C281.602 79.3329 282.965 79.0635 284.335 79.1044C285.719 79.1044 287.095 79.3286 288.423 79.7701C289.675 80.1663 290.869 80.767 291.968 81.5534L290.088 86.0788C289.062 85.3814 287.974 84.8102 286.842 84.3748V84.3748Z" fill="#111130"/>
    <path d="M134.419 64.7276H149.977V53.5288H160.257V40H130.902L124 53.5288H134.419V64.7276Z" fill="#111130"/>
    <path d="M149.977 76.5447H134.419V87.7434H124V101.272H153.627L160.257 87.7434H149.977V76.5447Z" fill="#111130"/>
    </svg>
    