<svg width="95" height="106" viewBox="0 0 95 106" fill="none" xmlns="http://www.w3.org/2000/svg">
<ellipse cx="47.5" cy="91.5" rx="47.5" ry="14.5" fill="#0D387C"/>
<path d="M14.4133 30.6621C15.9976 13.295 30.5608 0 48 0C65.4392 0 80.0024 13.2951 81.5867 30.6622L87 90H9L14.4133 30.6621Z" fill="#C9D2E5"/>
<ellipse cx="48.0507" cy="89.6497" rx="39.0507" ry="11.9207" fill="#C9D2E5"/>
<path d="M83.5001 11.0001C87.5002 27.0001 79.1911 34.6364 71.6205 37.3628C64.0499 40.0892 58.2653 33.5055 54.8571 24.0418C51.449 14.5781 59.8166 10.1567 67.3872 7.43029C74.9579 4.70391 81.1252 1.5 83.5001 11.0001Z" fill="#FCDC8F"/>
<path d="M81.9437 5.97677C82.6915 8.03504 81.447 10.3759 79.1641 11.2053C76.8813 12.0347 74.4244 11.0385 73.6766 8.98023C72.9289 6.92197 74.3391 6.20831 76.622 5.37893C78.9049 4.54955 81.1959 3.91851 81.9437 5.97677Z" fill="#0D387C"/>
<circle cx="39.4182" cy="19.3318" r="9.86545" fill="white"/>
<circle cx="39.4185" cy="19.3316" r="8.2212" fill="#0D387C"/>
<circle cx="41.0628" cy="15.221" r="4.1106" fill="white"/>
<circle cx="36.1299" cy="25.0865" r="2.46636" fill="white"/>
<path d="M51.1567 31.981L38.9998 37.0839" stroke="#0D387C" stroke-width="2" stroke-linecap="round"/>
<path d="M52.6495 34.4413L42.2275 42.5168" stroke="#0D387C" stroke-width="2" stroke-linecap="round"/>
<path d="M54.6361 36.3795L46.6593 46.8773" stroke="#0D387C" stroke-width="2" stroke-linecap="round"/>
<circle cx="80.5" cy="5.5" r="0.5" fill="#C9D2E5"/>
<path d="M78.9258 6.23818C78.9258 6.51433 78.7019 6.73818 78.4258 6.73818C78.1496 6.73818 74.9258 7.51433 74.9258 7.23818C74.9258 6.96204 78.1496 5.73818 78.4258 5.73818C78.7019 5.73818 78.9258 5.96204 78.9258 6.23818Z" fill="#C9D2E5"/>
</svg>
