<svg width="82" height="102" viewBox="0 0 82 102" fill="none" xmlns="http://www.w3.org/2000/svg">
<path d="M5.41328 30.6621C6.99764 13.295 21.5608 0 39 0V0C56.4392 0 71.0024 13.2951 72.5867 30.6622L78 90H0L5.41328 30.6621Z" fill="#F99557"/>
<ellipse cx="39.0507" cy="89.6497" rx="39.0507" ry="11.9207" fill="#F99557"/>
<path d="M74.5001 11.0001C78.5002 27.0001 70.1911 34.6364 62.6205 37.3628C55.0499 40.0892 49.2653 33.5055 45.8571 24.0418C42.449 14.5781 50.8166 10.1567 58.3872 7.43029C65.9579 4.70391 72.1252 1.5 74.5001 11.0001Z" fill="#FCDC8F"/>
<path d="M72.9437 5.97677C73.6915 8.03504 72.447 10.3759 70.1641 11.2053C67.8813 12.0347 65.4244 11.0385 64.6766 8.98023C63.9289 6.92197 65.3391 6.20831 67.622 5.37893C69.9049 4.54955 72.1959 3.91851 72.9437 5.97677Z" fill="#0D387C"/>
<circle cx="30.4182" cy="19.3318" r="9.86545" fill="white"/>
<circle cx="30.4185" cy="19.3316" r="8.2212" fill="#0D387C"/>
<circle cx="32.0628" cy="15.221" r="4.1106" fill="white"/>
<circle cx="27.1304" cy="25.0865" r="2.46636" fill="white"/>
<path d="M42.1567 31.981L29.9998 37.0839" stroke="#0D387C" stroke-width="2" stroke-linecap="round"/>
<path d="M43.65 34.4413L33.228 42.5168" stroke="#0D387C" stroke-width="2" stroke-linecap="round"/>
<path d="M45.6361 36.3795L37.6593 46.8773" stroke="#0D387C" stroke-width="2" stroke-linecap="round"/>
<circle cx="71.5" cy="5.5" r="0.5" fill="#C9D2E5"/>
<path d="M69.9258 6.23818C69.9258 6.51433 69.7019 6.73818 69.4258 6.73818C69.1496 6.73818 65.9258 7.51433 65.9258 7.23818C65.9258 6.96204 69.1496 5.73818 69.4258 5.73818C69.7019 5.73818 69.9258 5.96204 69.9258 6.23818Z" fill="#C9D2E5"/>
</svg>
