<svg width="95" height="106" viewBox="0 0 95 106" fill="none" xmlns="http://www.w3.org/2000/svg">
<ellipse cx="47.5" cy="91.5" rx="47.5" ry="14.5" fill="#0D387C"/>
<path d="M13.4133 30.6621C14.9976 13.295 29.5608 0 47 0C64.4392 0 79.0024 13.2951 80.5867 30.6622L86 90H8L13.4133 30.6621Z" fill="#088BC1"/>
<ellipse cx="47.0507" cy="89.6497" rx="39.0507" ry="11.9207" fill="#088BC1"/>
<path d="M82.5 11.0001C86.5 27.0001 78.191 34.6364 70.6204 37.3628C63.0498 40.0892 57.2652 33.5055 53.857 24.0418C50.4489 14.5781 58.8165 10.1567 66.3871 7.43029C73.9577 4.70391 80.125 1.5 82.5 11.0001Z" fill="#FCDC8F"/>
<path d="M80.9438 5.97677C81.6916 8.03504 80.4471 10.3759 78.1642 11.2053C75.8813 12.0347 73.4245 11.0385 72.6767 8.98023C71.9289 6.92197 73.3392 6.20831 75.6221 5.37893C77.905 4.54955 80.196 3.91851 80.9438 5.97677Z" fill="#0D387C"/>
<circle cx="38.4184" cy="19.3318" r="9.86545" fill="white"/>
<circle cx="38.4185" cy="19.3316" r="8.2212" fill="#0D387C"/>
<circle cx="40.0628" cy="15.221" r="4.1106" fill="white"/>
<circle cx="35.1299" cy="25.0865" r="2.46636" fill="white"/>
<path d="M50.157 31.981L38 37.0839" stroke="#0D387C" stroke-width="2" stroke-linecap="round"/>
<path d="M51.6497 34.4413L41.2277 42.5168" stroke="#0D387C" stroke-width="2" stroke-linecap="round"/>
<path d="M53.6358 36.3795L45.659 46.8773" stroke="#0D387C" stroke-width="2" stroke-linecap="round"/>
<circle cx="79.5" cy="5.5" r="0.5" fill="#C9D2E5"/>
<path d="M77.926 6.23818C77.926 6.51433 77.7022 6.73818 77.426 6.73818C77.1499 6.73818 73.926 7.51433 73.926 7.23818C73.926 6.96204 77.1499 5.73818 77.426 5.73818C77.7022 5.73818 77.926 5.96204 77.926 6.23818Z" fill="#C9D2E5"/>
</svg>
