<svg width="237" height="223" viewBox="0 0 237 223" fill="none" xmlns="http://www.w3.org/2000/svg">
<path d="M201.515 52.2303C173.218 40.7803 141.038 54.5503 129.642 82.9803L109.874 132.31L95.3724 168.5C87.36 188.49 96.9948 211.21 116.892 219.26C136.788 227.31 159.402 217.63 167.415 197.64C173.695 181.98 169.127 164.63 157.292 153.99L160.258 155.19C188.556 166.64 220.735 152.87 232.131 124.44C243.528 96.0102 229.822 63.6803 201.525 52.2303H201.515Z" fill="#CB6E91"/>
<path d="M109.894 76.3504C121.291 47.9204 107.585 15.5904 79.2875 4.14044C50.9902 -7.30956 18.811 6.46044 7.41444 34.8904C-3.98214 63.3204 9.72362 95.6504 38.021 107.1L40.9871 108.3C25.1115 107.73 9.853 117.06 3.5824 132.72C-4.43005 152.71 5.2048 175.43 25.1015 183.48C44.9983 191.53 67.6123 181.85 75.6247 161.86L90.1267 125.67L109.894 76.3404V76.3504Z" fill="#CB6E91"/>
<path d="M137.003 66.7499C139.266 61.1041 136.544 54.6846 130.925 52.4116C125.305 50.1386 118.916 52.8727 116.654 58.5185L68.3359 179.093C66.0735 184.739 68.7949 191.159 74.4143 193.432C80.0338 195.705 86.4233 192.97 88.6857 187.325L137.003 66.7499Z" fill="#0F4041"/>
<path d="M70.5088 26.1186C86.713 32.6731 94.573 51.2139 88.0491 67.494L76.2281 96.993L46.8667 85.1166C30.6626 78.5621 22.8026 60.0212 29.3264 43.7411C35.8503 27.461 54.3047 19.5642 70.5088 26.1186Z" fill="#F5E983"/>
<path d="M169.018 133.212L139.656 121.336L151.477 91.837C158.001 75.5569 176.456 67.66 192.66 74.2145C208.864 80.7689 216.724 99.3099 210.2 115.59C203.676 131.87 185.222 139.767 169.018 133.212Z" fill="#F5E983"/>
<path d="M118.921 153.557L139.88 162.034C151.449 166.714 157.059 179.946 152.401 191.57C147.743 203.193 134.573 208.829 123.004 204.149C111.434 199.47 105.825 186.237 110.483 174.614L118.921 153.557Z" fill="#F5E983"/>
<path d="M31.1062 168.342C19.5371 163.663 13.9276 150.43 18.5854 138.807C23.2431 127.184 36.4137 121.548 47.9828 126.228L68.942 134.705L60.5038 155.763C55.846 167.386 42.6753 173.022 31.1062 168.342Z" fill="#F5E983"/>
</svg>
