<svg width="74" height="76" viewBox="0 0 74 76" fill="none" xmlns="http://www.w3.org/2000/svg">
<path d="M14.548 52.4497L5.79675 58.2625C4.90257 58.8564 4.65695 60.0661 5.24812 60.9645L5.70377 61.6569C6.29494 62.5553 7.49898 62.8021 8.39316 62.2081L17.1444 56.3953C18.0386 55.8013 18.2842 54.5917 17.693 53.6933L17.2374 53.0009C16.6462 52.1025 15.4421 51.8557 14.548 52.4497Z" fill="#0F4041"/>
<path d="M13.216 38.6283L2.93696 36.5216C1.88666 36.3064 0.861451 36.9873 0.647192 38.0426L0.482074 38.8558C0.267815 39.911 0.945641 40.9409 1.99594 41.1561L12.275 43.2629C13.3253 43.4781 14.3505 42.7973 14.5647 41.7421L14.7298 40.9289C14.9441 39.8736 14.2663 38.8436 13.216 38.6283Z" fill="#0F4041"/>
<path d="M24.8032 62.5794L22.7063 72.9068C22.492 73.962 23.1697 74.9919 24.22 75.2071L25.0296 75.3731C26.0799 75.5883 27.1049 74.9074 27.3192 73.8522L29.4161 63.5249C29.6304 62.4696 28.9527 61.4398 27.9024 61.2245L27.0929 61.0586C26.0426 60.8433 25.0175 61.5242 24.8032 62.5794Z" fill="#0F4041"/>
<path d="M59.1142 28.981L67.8653 23.1682C68.7594 22.5743 69.0051 21.3644 68.4139 20.4661L67.9583 19.7737C67.3672 18.8754 66.163 18.6286 65.2688 19.2225L56.5177 25.0353C55.6235 25.6292 55.3778 26.8391 55.969 27.7374L56.4246 28.4298C57.0158 29.3281 58.22 29.5749 59.1142 28.981Z" fill="#0F4041"/>
<path d="M60.449 42.7984L70.7282 44.9052C71.7785 45.1204 72.8036 44.4394 73.0178 43.3842L73.183 42.571C73.3972 41.5158 72.7195 40.4859 71.6692 40.2706L61.3901 38.1639C60.3398 37.9486 59.3147 38.6295 59.1004 39.6847L58.9353 40.4979C58.7211 41.5532 59.3987 42.5831 60.449 42.7984Z" fill="#0F4041"/>
<path d="M48.8618 18.8551L50.9587 8.52779C51.173 7.47257 50.4953 6.44269 49.445 6.22743L48.6356 6.06154C47.5853 5.84627 46.5601 6.52713 46.3458 7.58236L44.2489 17.9097C44.0346 18.9649 44.7125 19.9948 45.7628 20.2101L46.5722 20.376C47.6225 20.5912 48.6476 19.9104 48.8618 18.8551Z" fill="#0F4041"/>
<path d="M20.3648 20.8607C19.8373 21.2107 19.1305 21.0607 18.7821 20.5307C15.9355 16.2007 10.1127 15.0107 5.81288 17.8707C5.28536 18.2207 4.5787 18.0707 4.23033 17.5407C3.88197 17.0107 4.03135 16.3006 4.55887 15.9506C9.91377 12.3906 17.1598 13.8707 20.7032 19.2607C21.0515 19.7907 20.9022 20.5007 20.3746 20.8507L20.3648 20.8607Z" fill="#0F4041"/>
<path d="M24.7937 17.2608C24.2662 17.6108 23.5595 17.4608 23.2112 16.9308C19.6678 11.5508 21.1408 4.27071 26.5057 0.71071C27.0332 0.36071 27.7398 0.510788 28.0882 1.04079C28.4366 1.57079 28.2873 2.28075 27.7598 2.63075C23.45 5.49075 22.2655 11.3408 25.1122 15.6608C25.4605 16.1908 25.3113 16.9007 24.7838 17.2507L24.7937 17.2608Z" fill="#0F4041"/>
<path d="M29.6813 29.8404C36.4795 25.3304 40.4807 18.1604 41.2372 10.6104C34.1106 9.52041 26.5759 10.9705 20.0963 15.2805C13.6067 19.5905 9.32676 25.9804 7.53516 33.0004C14.7513 35.2604 22.8832 34.3604 29.6813 29.8504V29.8404Z" fill="#0F4041"/>
<path d="M19.121 25.3407C20.5172 25.3407 21.649 24.2036 21.649 22.8008C21.649 21.398 20.5172 20.2607 19.121 20.2607C17.7247 20.2607 16.5928 21.398 16.5928 22.8008C16.5928 24.2036 17.7247 25.3407 19.121 25.3407Z" fill="white"/>
<path d="M27.6111 20.2401C29.0073 20.2401 30.1393 19.1029 30.1393 17.7001C30.1393 16.2973 29.0073 15.1602 27.6111 15.1602C26.2148 15.1602 25.083 16.2973 25.083 17.7001C25.083 19.1029 26.2148 20.2401 27.6111 20.2401Z" fill="white"/>
<path d="M61.8101 23.8206C56.923 16.4006 49.3486 11.8506 41.2366 10.6006C40.4801 18.1606 36.4789 25.3206 29.6808 29.8306C22.8826 34.3406 14.7508 35.2406 7.53458 32.9806C5.50409 40.9706 6.69844 49.7507 11.5855 57.1707C20.7526 71.1007 39.435 74.9306 53.3 65.7206C55.5296 64.2406 57.5003 62.5006 59.2023 60.5806C57.1818 60.5806 55.2011 59.6107 54.0067 57.8007C52.1255 54.9407 52.9019 51.0806 55.7585 49.1906C58.6151 47.3006 62.4471 48.0806 64.3283 50.9506C64.4676 51.1606 64.5871 51.3806 64.6966 51.5906C68.1703 42.7306 67.4337 32.3607 61.8101 23.8107V23.8206Z" fill="#C9375B"/>
<path d="M55.7585 49.2003C52.9119 51.0903 52.1256 54.9504 54.0067 57.8104C55.2012 59.6304 57.1818 60.6003 59.2024 60.5903C61.5812 57.9003 63.4226 54.8503 64.6966 51.5903C64.5871 51.3703 64.4677 51.1603 64.3284 50.9503C62.4472 48.0903 58.6052 47.3003 55.7585 49.1903V49.2003Z" fill="#83213D"/>
<path d="M18.3345 52.5001C21.6108 52.5001 24.2667 49.8318 24.2667 46.5402C24.2667 43.2485 21.6108 40.5801 18.3345 40.5801C15.0582 40.5801 12.4023 43.2485 12.4023 46.5402C12.4023 49.8318 15.0582 52.5001 18.3345 52.5001Z" fill="#83213D"/>
<path d="M30.9447 65.5C33.0171 65.5 34.6971 63.8121 34.6971 61.73C34.6971 59.6479 33.0171 57.96 30.9447 57.96C28.8723 57.96 27.1924 59.6479 27.1924 61.73C27.1924 63.8121 28.8723 65.5 30.9447 65.5Z" fill="#83213D"/>
<path d="M47.8364 47.6104C49.9088 47.6104 51.5888 45.9224 51.5888 43.8403C51.5888 41.7582 49.9088 40.0703 47.8364 40.0703C45.764 40.0703 44.084 41.7582 44.084 43.8403C44.084 45.9224 45.764 47.6104 47.8364 47.6104Z" fill="#83213D"/>
<path d="M51.1509 32.5607C54.4272 32.5607 57.0831 29.8922 57.0831 26.6006C57.0831 23.309 54.4272 20.6406 51.1509 20.6406C47.8746 20.6406 45.2188 23.309 45.2188 26.6006C45.2188 29.8922 47.8746 32.5607 51.1509 32.5607Z" fill="#83213D"/>
<path d="M31.7015 41.8202C32.9713 41.8202 34.0008 40.786 34.0008 39.5103C34.0008 38.2345 32.9713 37.2002 31.7015 37.2002C30.4317 37.2002 29.4023 38.2345 29.4023 39.5103C29.4023 40.786 30.4317 41.8202 31.7015 41.8202Z" fill="#83213D"/>
</svg>
