<svg width="325" height="76" viewBox="0 0 325 76" fill="none" xmlns="http://www.w3.org/2000/svg">
<path d="M275.719 6.22063L274.578 47.6242C199.445 40.9751 123.432 66.343 48.3109 59.2537L49.4516 17.8502C124.573 24.9394 200.585 -0.428512 275.719 6.22063Z" stroke="#CAD2E5" stroke-width="5" stroke-miterlimit="10"/>
<path d="M62.1003 59.7639L61.8253 69.712C42.897 68.8747 24.0185 66.2351 5.21803 60.7709C9.42333 56.7417 13.6323 52.5785 17.8446 48.2955C13.9334 41.685 10.0257 34.9524 6.12152 28.0881C20.3373 32.2195 34.5978 34.7351 48.8906 36.0779L48.2621 58.8151C52.8716 59.2479 57.4871 59.561 62.103 59.764L62.1003 59.7639Z" stroke="#CAD2E5" stroke-width="5" stroke-miterlimit="10"/>
<path d="M306.11 47.7149C310.035 53.8524 314.809 59.4772 318.727 65.8708C299.265 60.214 279.718 57.5856 260.12 56.8485C260.212 53.5328 260.304 50.2171 260.395 46.8991C265.167 47.0786 269.934 47.3706 274.699 47.7919L275.328 25.0514C290.135 26.3584 304.905 28.9031 319.63 33.1834C315.412 37.6872 311.189 42.325 306.963 47.0826L306.11 47.7149Z" stroke="#CAD2E5" stroke-width="5" stroke-miterlimit="10"/>
<path d="M71.3766 33.3614L71.0211 45.2851C70.0341 45.2684 69.0496 45.2517 68.0628 45.2254L68.3523 35.5157C67.5014 35.4941 66.648 35.4701 65.7973 35.4413L65.8633 33.2273C67.7006 33.2871 69.5384 33.3326 71.3792 33.3614L71.3766 33.3614Z" fill="#CAD2E5" stroke="#CAD2E5" stroke-miterlimit="10"/>
<path d="M73.506 39.3905C73.6238 35.4486 76.0401 33.2396 79.1977 33.2163C82.3759 33.1909 84.6405 35.3665 84.5226 39.3083C84.4048 43.2478 82.004 45.5433 78.8283 45.5687C75.6708 45.592 73.3882 43.33 73.506 39.3905ZM81.529 39.3655C81.6102 36.6522 80.615 35.5428 79.1278 35.5536C77.6586 35.5647 76.5967 36.6897 76.5156 39.403C76.4345 42.1163 77.429 43.2425 78.8982 43.2314C80.3855 43.2206 81.448 42.0764 81.529 39.3655Z" fill="#CAD2E5" stroke="#CAD2E5" stroke-miterlimit="10"/>
<path d="M88.6082 33.6912C87.5789 33.7241 86.5496 33.7547 85.5206 33.778C85.5374 33.2152 85.5542 32.6524 85.5711 32.0896C88.3746 32.0219 91.1765 31.9207 93.9817 31.7956L93.9312 33.484C92.9015 33.5313 91.872 33.5738 90.8425 33.6115C90.77 36.0352 90.6976 38.4566 90.6252 40.8803C89.8795 40.9084 89.1364 40.9342 88.3909 40.9599L88.6082 33.6912Z" fill="#CAD2E5" stroke="#CAD2E5" stroke-miterlimit="10"/>
<path d="M104.083 31.2687L103.816 40.2286C103.069 40.2783 102.326 40.3256 101.579 40.3729L101.689 36.6989C100.228 36.7892 98.7636 36.8747 97.3025 36.9507L97.1926 40.6247C96.4466 40.6648 95.7031 40.7026 94.9572 40.7379L95.2251 31.7779C95.971 31.7426 96.7145 31.7049 97.4606 31.6648L97.3549 35.1975C98.8161 35.1191 100.28 35.036 101.742 34.9457L101.847 31.413C102.593 31.3657 103.337 31.3184 104.083 31.2687Z" fill="#CAD2E5" stroke="#CAD2E5" stroke-miterlimit="10"/>
<path d="M123.843 30.962C123.724 34.9422 123.605 38.9248 123.486 42.905C122.491 43.0032 121.498 43.099 120.503 43.1948L120.65 38.2974C118.699 38.4825 116.748 38.6603 114.794 38.8262L114.648 43.7236C113.653 43.8099 112.661 43.8913 111.667 43.9728L112.024 32.0298C113.018 31.9483 114.01 31.8669 115.005 31.7807L114.864 36.4888C116.815 36.3206 118.766 36.1451 120.72 35.9601L120.86 31.2519C121.855 31.1585 122.848 31.0602 123.843 30.962Z" fill="#CAD2E5" stroke="#CAD2E5" stroke-miterlimit="10"/>
<path d="M135.184 39.1878C133.186 39.4106 131.188 39.6286 129.193 39.8395C128.787 40.7343 128.381 41.6266 127.972 42.5213C126.953 42.6288 125.933 42.7315 124.911 42.8341C126.948 38.6577 128.984 34.4741 131.021 30.2834C132.005 30.1777 132.988 30.0721 133.971 29.9616C135.775 33.7329 137.582 37.4994 139.386 41.2635C138.34 41.3849 137.297 41.5039 136.251 41.6205C135.897 40.8088 135.542 39.9995 135.184 39.1878ZM134.307 37.1922C133.67 35.7427 133.035 34.2908 132.397 32.8413C131.668 34.4404 130.942 36.0395 130.213 37.6386C131.577 37.4938 132.941 37.3442 134.307 37.1946L134.307 37.1922Z" fill="#CAD2E5" stroke="#CAD2E5" stroke-miterlimit="10"/>
<path d="M139.966 35.3094C140.073 31.7088 143.136 28.7885 147.154 28.3052C149.385 28.0385 151.225 28.5609 152.401 29.7768C151.745 30.4009 151.09 31.0249 150.434 31.649C149.595 30.8319 148.523 30.4878 147.232 30.641C144.817 30.9309 143.055 32.7012 142.988 34.9554C142.92 37.2097 144.589 38.5776 147.003 38.2877C148.294 38.1321 149.395 37.5228 150.29 36.4786C150.913 36.9469 151.536 37.4152 152.158 37.8835C150.901 39.4154 149.015 40.3925 146.767 40.6637C142.766 41.145 139.858 38.9099 139.966 35.3094Z" fill="#CAD2E5" stroke="#CAD2E5" stroke-miterlimit="10"/>
<path d="M159.012 34.3531C158.419 34.9828 157.825 35.6102 157.229 36.2398L157.139 39.2598C156.151 39.3821 155.16 39.5043 154.172 39.6266L154.529 27.6833C155.517 27.561 156.508 27.4388 157.496 27.3165L157.329 32.8966C159.288 30.802 161.248 28.705 163.21 26.608C164.315 26.4709 165.422 26.3339 166.526 26.1968C164.691 28.1929 162.858 30.1866 161.023 32.1827C162.843 34.1543 164.662 36.1283 166.482 38.0999C165.321 38.2432 164.159 38.3889 163 38.5322C161.671 37.1392 160.342 35.7461 159.012 34.3531Z" fill="#CAD2E5" stroke="#CAD2E5" stroke-miterlimit="10"/>
<path d="M168.224 26.0447C169.207 25.9229 170.188 25.7986 171.171 25.6768C171.053 29.6472 170.936 33.62 170.818 37.5904C169.835 37.7122 168.855 37.834 167.872 37.9583L168.224 26.0447Z" fill="#CAD2E5" stroke="#CAD2E5" stroke-miterlimit="10"/>
<path d="M186.628 23.8613C184.646 28.0596 182.665 32.2604 180.683 36.4659C179.699 36.5836 178.715 36.7012 177.732 36.8188C175.995 33.0588 174.258 29.3011 172.518 25.5458C173.595 25.4129 174.669 25.2824 175.746 25.152C176.971 27.8388 178.196 30.5257 179.418 33.2149C180.831 30.2106 182.244 27.2086 183.657 24.2067C184.646 24.0915 185.637 23.9764 186.626 23.8612L186.628 23.8613Z" fill="#CAD2E5" stroke="#CAD2E5" stroke-miterlimit="10"/>
<path d="M197.44 32.4307C197.418 33.1704 197.396 33.9076 197.374 34.6472C194.05 34.9933 190.726 35.3586 187.401 35.7382L187.757 23.8014C191.002 23.4324 194.247 23.0753 197.493 22.7351L197.427 24.9515C195.17 25.1864 192.912 25.4308 190.654 25.6824L190.577 28.2746C192.571 28.0521 194.565 27.8368 196.556 27.6262C196.535 28.3419 196.514 29.0575 196.492 29.7756C194.498 29.9862 192.504 30.2015 190.513 30.4241L190.43 33.1863C192.768 32.9265 195.105 32.6739 197.44 32.4283L197.44 32.4307Z" fill="#CAD2E5" stroke="#CAD2E5" stroke-miterlimit="10"/>
<path d="M208.028 33.6726C207.232 32.6384 206.438 31.6043 205.642 30.5725C205.593 30.5764 205.543 30.5828 205.494 30.5868C204.628 30.668 203.763 30.7516 202.899 30.8352L202.8 34.1617C201.805 34.2575 200.812 34.3581 199.817 34.4587L200.174 22.5154C202.035 22.3265 203.894 22.1446 205.755 21.97C209.197 21.6472 211.302 23.1252 211.222 25.8027C211.168 27.5941 210.153 28.9906 208.458 29.8054C209.384 30.9999 210.309 32.1944 211.235 33.3913C210.168 33.4811 209.101 33.5758 208.031 33.6727L208.028 33.6726ZM205.519 24.2399C204.71 24.3173 203.899 24.3946 203.09 24.472L202.965 28.6343C203.774 28.5545 204.586 28.4772 205.395 28.4022C207.217 28.2317 208.163 27.366 208.201 26.068C208.241 24.7556 207.344 24.0671 205.519 24.2399Z" fill="#CAD2E5" stroke="#CAD2E5" stroke-miterlimit="10"/>
<path d="M212.429 32.1718C212.788 31.4496 213.144 30.7297 213.503 30.0075C214.566 30.6531 216.17 31.0371 217.717 30.9219C219.483 30.7913 220.217 30.2 220.239 29.4649C220.306 27.2141 212.772 29.3219 212.904 24.8993C212.965 22.8711 214.782 21.0284 218.443 20.7573C220.062 20.6385 221.707 20.8843 222.881 21.5079C222.553 22.2258 222.225 22.9462 221.899 23.6666C220.723 23.1149 219.5 22.893 218.359 22.9767C216.593 23.1073 215.893 23.7759 215.87 24.5254C215.805 26.7091 223.338 24.6636 223.206 29.0623C223.147 31.0593 221.312 32.8705 217.633 33.1389C215.59 33.2889 213.546 32.8926 212.431 32.1694L212.429 32.1718Z" fill="#CAD2E5" stroke="#CAD2E5" stroke-miterlimit="10"/>
<path d="M233.763 29.5097C231.769 29.5911 229.774 29.6846 227.782 29.7924C227.376 30.6657 226.971 31.5414 226.563 32.4171C225.544 32.4743 224.526 32.5362 223.505 32.5981C225.54 28.493 227.574 24.3999 229.608 20.3188C230.59 20.2682 231.571 20.2224 232.553 20.1791C234.353 24.0803 236.156 27.9936 237.955 31.9213C236.912 31.9516 235.871 31.9868 234.828 32.0268C234.474 31.1862 234.12 30.3479 233.763 29.5097ZM232.888 27.4492C232.252 25.9515 231.618 24.4586 230.981 22.9633C230.253 24.5219 229.528 26.0805 228.8 27.6415C230.162 27.571 231.524 27.5077 232.888 27.4492Z" fill="#CAD2E5" stroke="#CAD2E5" stroke-miterlimit="10"/>
<path d="M247.552 31.8089C246.758 30.7027 245.966 29.6013 245.171 28.4999C245.122 28.499 245.073 28.5006 245.024 28.5022C244.161 28.5115 243.297 28.5257 242.435 28.5423L242.336 31.8693C241.343 31.8884 240.352 31.91 239.359 31.9364L239.716 19.9914C241.574 19.9413 243.428 19.908 245.285 19.8842C248.719 19.8464 250.819 21.5211 250.739 24.1989C250.685 25.9905 249.672 27.2986 247.981 27.9674C248.905 29.2436 249.828 30.5245 250.751 31.8102C249.686 31.8042 248.622 31.8054 247.555 31.8089L247.552 31.8089ZM245.05 22.1377C244.242 22.148 243.433 22.1607 242.625 22.1758L242.501 26.3387C243.308 26.3236 244.118 26.3109 244.925 26.3006C246.743 26.2786 247.684 25.4941 247.726 24.1959C247.765 22.8834 246.87 22.1158 245.05 22.1353L245.05 22.1377Z" fill="#CAD2E5" stroke="#CAD2E5" stroke-miterlimit="10"/>
<path d="M259.029 27.7675L258.903 32.0021C257.911 31.971 256.921 31.9471 255.928 31.9255L256.056 27.6574C254.473 25.0627 252.891 22.48 251.307 19.9093C252.359 19.915 253.414 19.9257 254.466 19.9411C255.558 21.729 256.649 23.5218 257.741 25.3217C258.938 23.582 260.135 21.8471 261.332 20.1194C262.306 20.1551 263.277 20.1954 264.251 20.2431C262.51 22.7384 260.768 25.2458 259.027 27.7675L259.029 27.7675Z" fill="#CAD2E5" stroke="#CAD2E5" stroke-miterlimit="10"/>
</svg>
