<?xml version="1.0" encoding="UTF-8" standalone="no"?>
<!-- Created with Inkscape (http://www.inkscape.org/) -->

<svg
   version="1.1"
   id="svg18"
   width="1249.6667"
   height="362.37332"
   viewBox="0 0 1249.6667 362.37332"
   sodipodi:docname="BATS LOGO MAIN_FINAL_V3_REDBLACK_FOR_PARTNERS.eps"
   xmlns:inkscape="http://www.inkscape.org/namespaces/inkscape"
   xmlns:sodipodi="http://sodipodi.sourceforge.net/DTD/sodipodi-0.dtd"
   xmlns="http://www.w3.org/2000/svg"
   xmlns:svg="http://www.w3.org/2000/svg">
  <defs
     id="defs22" />
  <sodipodi:namedview
     id="namedview20"
     pagecolor="#ffffff"
     bordercolor="#999999"
     borderopacity="1"
     inkscape:showpageshadow="0"
     inkscape:pageopacity="0"
     inkscape:pagecheckerboard="0"
     inkscape:deskcolor="#d1d1d1"
     showgrid="false" />
  <g
     id="g26"
     inkscape:groupmode="layer"
     inkscape:label="Page 1"
     transform="matrix(1.3333333,0,0,-1.3333333,0,362.37333)">
    <g
       id="g28"
       transform="scale(0.1)">
      <path
         d="m 4179.62,857.031 c 190.16,0 380.22,0 570.29,0 -39.52,217.319 -74.31,439.269 -115.26,655.229 -145.52,-200.28 -292.38,-418.24 -433.78,-618.78 -7.44,-10.64 -24.19,-20.21 -21.25,-36.449 z m 297.29,1107.079 c 295.14,0 590.48,0 885.64,0 83.31,-476.72 156.66,-974.278 239.64,-1461.891 27.09,-159.481 41.96,-324.668 115.34,-451.9885 70.7,105.6285 102.99,237.3515 136.49,369.9805 100.6,399.488 201.21,820.669 303.25,1216.319 -232.42,-5.07 -504.59,29.5 -633.9,-78.82 42.53,133.43 108.16,269.92 157.74,406.4 635.92,0 1271.85,0 1907.9,0 -30.98,-112.7 -63.67,-223.52 -97.15,-333.58 2.02,-8.11 15.95,25.65 21.29,36.43 51.52,105.11 129.94,197.07 239.61,248.63 130.11,61.28 308.18,48.52 506.46,48.52 366.54,0 754.75,0 1113.28,0 -10.37,-129.18 -21.74,-257.29 -33.46,-385.14 -15.54,-1.61 -31.76,8.24 -48.51,15.14 -48.77,20.21 -110.3,39.48 -181.93,42.42 -195.1,8.22 -395.9,0 -600.61,0 -90.22,0 -227.12,14.35 -279.08,-18.23 -28.96,-18.06 -36.95,-56.73 -48.47,-102.99 -9.73,-39.2 -34.17,-91.97 -21.25,-124.38 17.4,-43.73 157.34,-30.32 236.52,-30.32 242.43,0 576.53,32.3 728.02,-63.77 49.18,-31.22 92.11,-86.27 100.06,-163.75 12.66,-121.58 -31.72,-238.801 -57.53,-342.731 C 9084.29,459.949 9036.29,127.969 8720.38,35.082 8611.39,3.05859 8481.04,7.69922 8347.24,7.69922 c -401.78,0 -791.96,0 -1198.13,0 11.7,131.98078 23.39,263.81278 33.35,397.37078 113.13,-86.531 326.82,-72.84 539.99,-72.84 107.92,0 195.22,0 306.33,0 98.49,0 245.35,-11.949 288.12,27.391 25.51,23.5 29.5,68.309 42.53,118.289 11.04,42.77 36.55,98.36 21.14,130.34 -17.96,37.5 -150.71,27.441 -224.46,27.441 -91.57,0 -173.72,0 -248.67,0 -282.54,0 -593.01,-46.332 -594.46,230.411 -0.81,139.538 42.26,250.498 72.71,373.198 30.01,121.04 58.2,238.4 94.09,348.7 -119.87,86.52 -378.21,34.29 -570.32,48.53 C 6810.78,1258.43 6716.51,879.648 6618.29,490 6580.43,339.68 6525.95,169.551 6560.63,7.69922 5959.53,9.44141 5366.95,2.39063 4765.04,4.80859 c -2.41,14.43361 16.75,27.62111 27.37,42.36331 11.14,15.6367 23.38,34.9375 30.27,51.5586 52.03,125.4685 -4.77,299.4295 -24.31,430.7495 -243.58,0 -495.17,0 -749.13,0 -38.02,0 -83.06,7.579 -106.19,0 -22.59,-7.46 -56.49,-72.98 -78.82,-103.128 C 3835.79,388.051 3805.1,353.648 3785.3,326.25 3723.9,241.191 3634.19,128.941 3691.34,7.69922 3571.45,2.26172 3423.67,4.80859 3281.88,4.80859 c -36.96,0 -110.97,-10.80859 -136.5,0 -13.56,5.57031 -1.85,6.65231 12.1,21.08201 56.48,59.0078 121.86,124.5314 172.9,185.1604 61.4,72.808 120.8,155.621 175.97,230.437 343.53,466.633 690.94,954.872 1028.23,1410.462 -18.47,38.28 -40.66,72.55 -57.67,112.16"
         style="fill:#ce1c30;fill-opacity:1;fill-rule:nonzero;stroke:none"
         id="path30" />
      <path
         d="m 5773.02,7.69922 c -15.14,0 -30.28,0 -45.42,0 4.37,14.90238 17.52,20.88278 21.21,36.38278 12.66,-7.4531 17.33,-23.0937 24.21,-36.38278"
         style="fill:#ce1c30;fill-opacity:1;fill-rule:nonzero;stroke:none"
         id="path32" />
      <path
         d="m 484.098,2717.85 c 14.906,-87.4 34.14,-183.48 53.543,-255.05 -54.668,-43.64 -283.95,-300.85 -288.75,-300.85 -48.055,0 -161.0238,38.13 -248.891,52.21 312.719,-249.64 474.496,-410.43 738.746,-410.43 192.192,0 222.488,6.45 222.488,239.47 0,290.68 -160.722,409.48 -477.136,674.65"
         style="fill:#231f20;fill-opacity:1;fill-rule:nonzero;stroke:none"
         id="path34" />
      <path
         d="m 1701.28,1991.88 h 799.32 c -226.73,280 -568.96,451.21 -952.06,451.21 -222.89,0 -431.95,-57.43 -612.548,-160.65 22.883,-53.03 36.86,-109.81 42.278,-175.29 0.269,-2.97 0.597,-5.76 0.828,-8.76 0.324,-4.71 0.687,-9.32 0.922,-14.12 0.14,-2.48 -0.801,-4.94 -0.688,-7.45 0.496,-11.04 -0.227,-22.17 -0.227,-33.62 0,-0.02 0,-1.32 0,-1.32 h 1.067 c 0,-40 -0.438,-79.11 -3.551,-109.7 -9.816,-106.36 -41.078,-136.36 -126.828,-144.87 -30.031,-3.55 -66.391,-3.75 -111.18,-3.75 -34.59,0 -67.437,2.9 -99.238,8.16 -1.371,0.21 -2.707,0.48 -4.074,0.7 -3.563,0.62 -7.082,1.31 -10.617,1.99 -49.071,8.84 -95.649,23.24 -141.383,43.02 -108.559,-183.9 -170.992,-398.24 -170.992,-627.28 0,-557.42 369.121,-1028.209 876.091,-1182.4508 4.85,7.793 11.07,15.9102 15.56,23.0899 6.39,10.2812 12.42,20.9531 18.28,31.7304 l -218.41,624.4295 377.82,-47.898 -430.642,623.119 467.752,103.18 2.12,460.15 239.82,-141.7 c 17.81,90.51 26.93,182.27 12.62,281.04 -0.25,4.34 -0.53,7.04 3.13,7.04 5.45,0 10.97,0 16.43,0 2.95,1.32 5.69,0.81 7.3,0.99 l 1.1,-0.99"
         style="fill:#231f20;fill-opacity:1;fill-rule:nonzero;stroke:none"
         id="path36" />
      <path
         d="m 980.02,2084.07 c 0.125,-2.5 0.277,-4.83 0.378,-7.35 0.008,-0.22 0.008,-0.46 0.016,-0.68 -0.012,0.26 -0.008,0.55 -0.016,0.82 -0.113,2.5 -0.238,5 -0.378,7.48 -0.235,4.8 -0.598,9.48 -0.922,14.2 -0.231,2.99 -0.559,5.92 -0.828,8.89 0.261,-3.16 0.605,-6.24 0.828,-9.44 0.363,-4.69 0.656,-9.16 0.922,-13.92"
         style="fill:#231f20;fill-opacity:1;fill-rule:nonzero;stroke:none"
         id="path38" />
      <path
         d="m 981.055,2045.3 c 0,-44.77 -1.067,-81.72 -3.903,-112.45 3.114,30.56 4.082,66.94 4.082,110.29 0,11.21 -0.339,22.08 -0.82,32.9 0.387,-10.07 0.641,-20.27 0.641,-30.74"
         style="fill:#231f20;fill-opacity:1;fill-rule:nonzero;stroke:none"
         id="path40" />
      <path
         d="m 979.332,2076.86 c 0.012,-0.27 -0.523,-0.56 -0.516,-0.82 0.481,-10.82 0.289,-21.69 0.289,-32.9 0,0.02 0,0.04 0,0.06 0,11.45 0.723,22.62 0.227,33.66"
         style="fill:#231f20;fill-opacity:1;fill-rule:nonzero;stroke:none"
         id="path42" />
      <path
         d="m 639.441,1791.8 c 31.801,-5.26 64.715,-8.07 99.305,-8.07 44.789,0 81.281,0.36 111.313,3.91 -30.047,-2.99 -66.692,-3.33 -111.45,-3.33 -34.511,0 -67.394,2.58 -99.168,7.49"
         style="fill:#231f20;fill-opacity:1;fill-rule:nonzero;stroke:none"
         id="path44" />
      <path
         d="m 2433.45,340.148 c -20.38,1.102 -40.01,2.082 -57.78,2.082 17.77,0 37.4,-0.98 57.78,-2.082"
         style="fill:#ce1c30;fill-opacity:1;fill-rule:nonzero;stroke:none"
         id="path46" />
      <path
         d="m 2149.41,542.25 c 16.23,66.422 32.49,132.801 49.96,198.012 -17.47,-65.211 -33.73,-131.59 -49.96,-198.012"
         style="fill:#ce1c30;fill-opacity:1;fill-rule:nonzero;stroke:none"
         id="path48" />
      <path
         d="m 2312.41,1193.31 c -0.11,-0.43 -0.23,-0.94 -0.34,-1.41 0.11,0.47 0.23,0.98 0.34,1.41 v 0"
         style="fill:#ce1c30;fill-opacity:1;fill-rule:nonzero;stroke:none"
         id="path50" />
      <path
         d="m 2548.74,869.23 c -21.06,0 -41.88,-0.05 -62.57,-0.128 20.69,0.078 41.52,0.128 62.57,0.128 v 0"
         style="fill:#ce1c30;fill-opacity:1;fill-rule:nonzero;stroke:none"
         id="path52" />
      <path
         d="m 2513.87,337.121 c 45.76,0 89.17,4.731 119.62,23.301 -30.44,-18.563 -73.87,-23.301 -119.62,-23.301 v 0"
         style="fill:#ce1c30;fill-opacity:1;fill-rule:nonzero;stroke:none"
         id="path54" />
      <path
         d="m 2984.52,1589.57 c -0.69,-23.91 -7.74,-50 -12.88,-69.05 -1.22,-4.49 -2.34,-8.63 -3.25,-12.29 -4.36,-17.52 -8.09,-32.28 -11.5,-45.78 -5.55,-22.01 -10.35,-41.01 -15.71,-63.23 -3.2,-13.08 -6.12,-26.83 -9.21,-41.4 -14.7,-69.16 -29.89,-140.69 -79.35,-168.5 -27.21,-15.35 -67.29,-22.5 -126.14,-22.5 -26.13,0 -52.7,1.46 -78.39,2.72 -22.81,1.12 -44.35,2.34 -63.11,2.34 h -272.99 l -26.39,-0.83 0.48,0.83 h -0.13 l 6.71,25.87 c 19.99,74.95 39.12,152.82 57.62,227.78 18.49,74.92 37.6,154.4 57.62,229.49 l 3.96,16.86 h 15.37 272.97 c 14.73,0 34.74,-0.87 55.93,0.15 27.07,1.3 57.75,1.86 86.92,1.86 72.44,0 110.63,-9.56 127.64,-30.88 8.74,-10.88 13.39,-25.57 13.83,-43.23 0.17,-3.41 0.17,-7.13 0,-10.21 z M 2789.96,808.648 c -0.86,-23.957 -8.58,-49.918 -15.4,-72.816 -2.4,-8.07 -4.66,-15.691 -6.33,-22.262 -7.08,-28.109 -12.04,-49.629 -16.84,-70.449 -4.31,-18.699 -8.38,-36.359 -13.57,-56.93 -3.97,-15.871 -7.65,-33.812 -11.55,-52.793 -15.36,-74.828 -32.77,-159.636 -82.37,-190.046 -29.33,-17.891 -70.65,-26.231 -130.03,-26.231 -25.24,0 -50.81,1.219 -75.54,2.559 -22.47,1.218 -43.69,2.199 -62.66,2.199 h -276.03 l -24.67,-0.488 0.29,0.488 h -1.62 l 6.67,26.16 c 16.77,63.281 32.77,129.262 48.24,192.57 27.13,111.063 55.19,226.153 88.59,333.832 l 4.41,14.34 14.88,-0.07 c 23.8,-0.223 49.03,-0.289 77.13,-0.289 38.11,0 76.3,0.207 114.92,0.398 39.53,0.2 79.5,0.399 120.26,0.399 35.24,0 67.03,-0.137 97.21,-0.449 61.76,-0.731 110.6,-3.309 130.78,-29 8.37,-10.758 12.83,-24.579 13.23,-41.071 0.15,-3.32 0.15,-6.66 0,-10.051 z m 441.18,1163.232 c -512.86,0 -1035.43,0 -1528.74,0 -3.6,0 -3.33,-3.67 -3.08,-7.94 27.26,-188.43 -31.88,-358.4 -72.82,-521.2 -82.93,-329.07 -166.12,-654.541 -248.65,-982.388 -37.48,-148.442 -71.91,-286.704 -139.54,-395.1098 -9.42,-15.1836 -26.98,-33.3633 -21.27,-43.3633 510.46,0 1064.27,0 1595.46,0 264.47,0 456.64,63.9297 555.11,240.5701 46.93,84.391 68.2,198.18 93.98,302.383 11.81,47.527 24.99,101.93 39.45,160.129 12.76,51.559 30.18,120.711 9.05,172.648 -45.05,110.971 -215.42,101.411 -345.8,133.291 126.11,10.88 255.42,29.58 342.75,84.87 92.5,58.61 132.76,164.65 163.86,282.1 32.56,122.81 83.99,250.6 57.69,378.04 -38.56,185.66 -265.41,195.97 -497.45,195.97"
         style="fill:#ce1c30;fill-opacity:1;fill-rule:nonzero;stroke:none"
         id="path56" />
      <path
         d="m 2584.98,1191.88 c -98.34,0 -185.93,0 -272.99,0 v 0 c 87.06,0 174.65,0 272.99,0 40.43,0 92.56,-4.9 141.5,-4.9 45.51,0 88.27,4.02 116.32,19.84 -28.04,-15.82 -70.81,-19.8 -116.32,-19.8 -48.95,0 -101.07,4.86 -141.5,4.86"
         style="fill:#ce1c30;fill-opacity:1;fill-rule:nonzero;stroke:none"
         id="path58" />
      <path
         d="m 2715.05,1648.47 c 9.12,0.25 19.26,0.69 30.08,1.19 -10.82,-0.5 -20.96,-0.94 -30.08,-1.19"
         style="fill:#ce1c30;fill-opacity:1;fill-rule:nonzero;stroke:none"
         id="path60" />
      <path
         d="m 2765.71,1650.64 c 21.63,1.03 44.85,2 67.52,2.24 -22.67,-0.24 -45.89,-1.21 -67.52,-2.24"
         style="fill:#ce1c30;fill-opacity:1;fill-rule:nonzero;stroke:none"
         id="path62" />
      <path
         d="m 2951.99,1633.31 c 1.15,-1.04 2.19,-2.13 3.11,-3.28 -0.92,1.15 -1.96,2.24 -3.11,3.28"
         style="fill:#ce1c30;fill-opacity:1;fill-rule:nonzero;stroke:none"
         id="path64" />
      <path
         d="m 2843.05,1652.98 v 0 c 1.6,0 3.18,-0.02 4.76,-0.03 -1.58,0.01 -3.16,0.03 -4.76,0.03"
         style="fill:#ce1c30;fill-opacity:1;fill-rule:nonzero;stroke:none"
         id="path66" />
      <path
         d="m 2769.97,809.359 c -1.05,-29.597 -14.75,-65.66 -21.13,-90.898 -13.54,-53.711 -19.54,-84.262 -30.43,-127.422 -19.13,-76.598 -31.37,-197.789 -84.92,-230.617 -30.45,-18.57 -73.86,-23.301 -119.62,-23.301 v 0 0 c -26.74,0 -54.22,1.438 -80.42,2.848 -20.38,1.101 -40.01,1.91 -57.78,1.91 -100.88,0 -176.56,0 -276.56,0 v -0.859 c 0,0.539 0.78,0.859 0.91,0.859 -0.13,0 -0.91,0 -0.91,0 v 1.031 c 10,21.801 11.7,44.238 17.27,66.231 11.13,44 22.07,88.558 32.9,132.851 16.23,66.418 32.55,132.93 50.02,198.137 11.64,43.473 23.85,86.492 36.91,128.582 25.79,-0.231 51.57,-0.289 77.34,-0.289 56.97,0 114.16,0.437 172.62,0.66 20.68,0.078 41.51,0.137 62.56,0.137 l 0.01,0.011 v 0 c 31.8,0 64.06,-0.121 96.98,-0.46 45.05,-0.532 99.66,-1.469 115.22,-21.282 6.11,-7.847 8.78,-18.047 9.03,-29.496 0.14,-2.793 0.14,-5.582 0,-8.633 z m -124.02,79.411 c -30.18,0.312 -61.97,0.46 -97.21,0.46 -40.76,0 -80.73,-0.199 -120.26,-0.39 -38.62,-0.199 -76.81,-0.391 -114.92,-0.391 -28.1,0 -53.33,0.11 -77.13,0.321 l -14.88,0.14 -4.41,-14.211 C 2183.74,767.02 2155.68,652.18 2128.55,541.121 2113.08,477.82 2097.08,411.32 2080.31,348.039 l -6.67,-26.16 h 1.62 l -0.29,-0.488 24.67,0.488 h 276.03 c 18.97,0 40.19,-0.981 62.66,-2.199 24.73,-1.34 50.3,-2.641 75.54,-2.641 59.38,0 100.7,8.371 130.03,26.262 49.6,30.41 67.01,115.25 82.37,190.07 3.9,18.988 7.58,36.938 11.55,52.809 5.19,20.57 9.26,38.242 13.57,56.929 4.8,20.821 9.76,42.352 16.84,70.461 1.67,6.571 3.93,14.192 6.33,22.262 6.82,22.898 14.54,48.859 15.4,72.816 0.15,3.383 0.15,6.731 0,10.051 -0.4,16.492 -4.86,30.313 -13.23,41.071 -20.18,25.691 -69.02,28.281 -130.78,29"
         style="fill:#ce1c30;fill-opacity:1;fill-rule:nonzero;stroke:none"
         id="path68" />
      <path
         d="m 2964.53,1590.15 c -0.1,-3.37 -0.34,-6.81 -0.7,-10.29 -0.72,-6.95 -1.91,-14.04 -3.34,-21.01 -2.13,-10.46 -4.8,-20.64 -7.22,-29.63 -1.62,-6 -3.12,-11.47 -4.28,-16.16 -11.56,-46.37 -18.61,-73.34 -27.24,-109.09 -17.67,-72.31 -27.91,-168.53 -78.95,-197.23 -28.05,-15.82 -70.81,-19.76 -116.32,-19.76 -48.94,0 -101.07,4.9 -141.5,4.9 -98.34,0 -185.87,0 -275.87,0 v -0.16 0 c 0,0.11 1.49,-0.57 1.52,-0.46 0.11,0.47 1.67,0.62 1.78,0.62 -0.14,0 -0.27,0 -0.42,0 40.01,150 75.24,310 115.24,460 89.84,0 174.75,0 272.97,0 4.54,0 9.55,-1.73 14.85,-1.59 9.12,0.26 19.26,-0.22 30.08,0.29 6.64,0.31 13.51,0.18 20.58,0.52 21.63,1.03 42.88,1.77 65.54,2.01 3.28,0.03 7.86,-0.01 7.86,-0.01 v -0.06 0 c 0,0 5.14,-0.05 6.73,-0.06 46.06,-0.27 88.41,-4.56 105.16,-19.65 1.16,-1.05 2.69,-2.15 3.6,-3.29 3.26,-4.06 5.8,-8.81 7.31,-14.08 1.51,-5.27 2.36,-11.05 2.5,-17.16 0.15,-2.8 0.27,-5.73 0.12,-8.65 z m 6.16,52.41 c -17.01,21.31 -55.2,30.42 -127.64,30.42 -29.17,0 -59.85,0.35 -86.92,-0.95 -21.19,-1.02 -41.2,-0.15 -55.93,-0.15 h -272.97 -15.37 l -3.96,-16.68 c -20.02,-75.09 -39.13,-153.48 -57.62,-228.4 -18.5,-74.96 -37.63,-153.65 -57.62,-228.59 l -6.71,-26.33 h 0.13 l -0.48,-0.83 26.39,0.83 h 272.99 c 18.76,0 40.3,-1.22 63.11,-2.34 25.69,-1.26 52.26,-2.64 78.39,-2.64 58.85,0 98.93,7.11 126.14,22.46 49.46,27.81 64.65,99.32 79.35,168.48 3.09,14.57 6.01,28.31 9.21,41.39 5.36,22.22 10.16,41.22 15.71,63.22 3.41,13.51 7.14,28.26 11.5,45.78 0.91,3.66 2.03,7.8 3.25,12.29 5.14,19.05 12.19,45.14 12.88,69.05 0.17,3.08 0.17,6.57 0,9.98 -0.44,17.66 -5.09,32.13 -13.83,43.01"
         style="fill:#ce1c30;fill-opacity:1;fill-rule:nonzero;stroke:none"
         id="path70" />
      <path
         d="m 2500.6,1991.88 h -799.32 l -1.1,0.99 c -1.61,-0.18 -4.35,0.33 -7.3,-0.99 263.68,0 535.46,0 809.57,0 -0.61,0.75 -1.24,0 -1.85,0"
         style="fill:#ffffff;fill-opacity:1;fill-rule:nonzero;stroke:none"
         id="path72" />
      <path
         d="m 2513.87,337.121 v 0 c -26.73,0 -54.22,1.609 -80.42,3.027 26.2,-1.418 53.68,-3.027 80.42,-3.027"
         style="fill:#ffffff;fill-opacity:1;fill-rule:nonzero;stroke:none"
         id="path74" />
      <path
         d="m 2099.64,342.23 v 0 c 0.11,0.54 0.25,1.18 0.38,1.719 -0.13,-0.539 -0.27,-1.179 -0.38,-1.719"
         style="fill:#ffffff;fill-opacity:1;fill-rule:nonzero;stroke:none"
         id="path76" />
      <path
         d="m 2548.74,869.23 v 0 c 31.79,0 64.07,-0.121 96.98,-0.46 -32.92,0.339 -65.18,0.46 -96.98,0.46"
         style="fill:#ffffff;fill-opacity:1;fill-rule:nonzero;stroke:none"
         id="path78" />
      <path
         d="m 2099.64,343.949 v 0 c 5.78,21.801 11.43,43.711 17,65.711 -5.57,-22 -11.22,-43.91 -17,-65.711"
         style="fill:#ffffff;fill-opacity:1;fill-rule:nonzero;stroke:none"
         id="path80" />
      <path
         d="m 2486.17,869.102 c -58.45,-0.223 -115.64,-0.653 -172.6,-0.653 -25.78,0 -51.53,0.09 -77.32,0.321 25.79,-0.231 51.53,-0.321 77.31,-0.321 56.97,0 114.15,0.43 172.61,0.653"
         style="fill:#ffffff;fill-opacity:1;fill-rule:nonzero;stroke:none"
         id="path82" />
      <path
         d="m 2964.53,1598.8 c 0.15,-2.81 0.15,-5.73 0,-8.65 -0.1,-3.37 -0.34,-6.81 -0.7,-10.29 0.36,3.48 0.6,6.92 0.7,10.29 0.15,2.92 0.15,5.84 0,8.65 -0.13,6.11 -0.86,11.89 -2.37,17.15 1.51,-5.26 2.24,-11.04 2.37,-17.15"
         style="fill:#ffffff;fill-opacity:1;fill-rule:nonzero;stroke:none"
         id="path84" />
      <path
         d="m 2847.81,1652.95 c 46.05,-0.27 87.43,-4.55 104.18,-19.64 -16.75,15.1 -58.12,19.37 -104.18,19.64"
         style="fill:#ffffff;fill-opacity:1;fill-rule:nonzero;stroke:none"
         id="path86" />
      <path
         d="m 2843.05,1652.98 c -3.24,0 -6.55,-0.07 -9.82,-0.1 3.27,0.03 6.58,0.1 9.82,0.1 v 0"
         style="fill:#ffffff;fill-opacity:1;fill-rule:nonzero;stroke:none"
         id="path88" />
      <path
         d="m 2963.83,1579.86 c -0.72,-6.95 -1.91,-14.04 -3.34,-21.01 1.43,6.97 2.62,14.06 3.34,21.01"
         style="fill:#ffffff;fill-opacity:1;fill-rule:nonzero;stroke:none"
         id="path90" />
      <path
         d="m 2311.99,1191.57 v 0 c 0.03,0.1 0.05,0.22 0.08,0.33 -0.03,-0.11 -0.05,-0.23 -0.08,-0.33"
         style="fill:#ffffff;fill-opacity:1;fill-rule:nonzero;stroke:none"
         id="path92" />
      <path
         d="m 2745.13,1649.66 c 6.64,0.31 13.51,0.64 20.58,0.98 -7.07,-0.34 -13.94,-0.67 -20.58,-0.98"
         style="fill:#ffffff;fill-opacity:1;fill-rule:nonzero;stroke:none"
         id="path94" />
      <path
         d="m 2700.2,1648.23 c 4.54,0 9.55,0.09 14.85,0.24 -5.3,-0.15 -10.31,-0.24 -14.85,-0.24"
         style="fill:#ffffff;fill-opacity:1;fill-rule:nonzero;stroke:none"
         id="path96" />
      <path
         d="m 2960.49,1558.85 c -2.13,-10.46 -4.8,-20.64 -7.22,-29.63 2.42,8.99 5.09,19.17 7.22,29.63"
         style="fill:#ffffff;fill-opacity:1;fill-rule:nonzero;stroke:none"
         id="path98" />
      <path
         d="m 2440.27,1627.56 c -7.19,-26.99 -14.1,-54.26 -21.05,-81.5 l 323.11,-285.21 c 2.97,-1.14 5.97,-2.62 9.01,-4.9 18.15,-13.83 35.9,-28.47 52.9,-43.94 -1.44,146.07 -28.28,286.05 -76.21,415.79 -5.27,-0.14 -10.26,-0.24 -14.77,-0.24 -98.24,0 -183.15,0 -272.99,0"
         style="fill:#231f20;fill-opacity:1;fill-rule:nonzero;stroke:none"
         id="path100" />
    </g>
  </g>
</svg>
