<svg width="1624" height="402" viewBox="0 0 1624 402" fill="none" xmlns="http://www.w3.org/2000/svg">
<path d="M434.074 200.27C301.107 216.345 143.768 187.986 15.13 105.889" stroke="#1D2644" stroke-width="5"/>
<ellipse cx="9.07578" cy="10.6817" rx="9.07578" ry="10.6817" transform="matrix(0.983609 0.180312 -0.139944 0.990159 104.967 148.545)" fill="url(#paint0_radial_0_1)"/>
<ellipse cx="9.07578" cy="10.6817" rx="9.07578" ry="10.6817" transform="matrix(0.983609 0.180312 -0.139944 0.990159 76.9567 136.049)" fill="url(#paint1_radial_0_1)"/>
<ellipse cx="9.07578" cy="10.6817" rx="9.07578" ry="10.6817" transform="matrix(0.983609 0.180312 -0.139944 0.990159 49.3746 121.114)" fill="url(#paint2_radial_0_1)"/>
<ellipse cx="9.07578" cy="10.6817" rx="9.07578" ry="10.6817" transform="matrix(0.983609 0.180312 -0.139944 0.990159 24.9233 106.315)" fill="url(#paint3_radial_0_1)"/>
<ellipse cx="9.26888" cy="10.6817" rx="9.26888" ry="10.6817" transform="matrix(0.983609 0.180312 -0.139944 0.990159 135.651 160.711)" fill="url(#paint4_radial_0_1)"/>
<ellipse cx="9.07578" cy="10.6817" rx="9.07578" ry="10.6817" transform="matrix(0.983609 0.180312 -0.139944 0.990159 166.49 170.269)" fill="url(#paint5_radial_0_1)"/>
<ellipse cx="9.07578" cy="10.6817" rx="9.07578" ry="10.6817" transform="matrix(0.983609 0.180312 -0.139944 0.990159 197.486 177.219)" fill="url(#paint6_radial_0_1)"/>
<ellipse cx="9.46198" cy="10.6817" rx="9.46198" ry="10.6817" transform="matrix(0.983609 0.180312 -0.139944 0.990159 229.447 185.531)" fill="url(#paint7_radial_0_1)"/>
<ellipse cx="9.46198" cy="10.6817" rx="9.46198" ry="10.6817" transform="matrix(0.983609 0.180312 -0.139944 0.990159 261.564 191.235)" fill="url(#paint8_radial_0_1)"/>
<ellipse cx="9.26888" cy="10.6817" rx="9.26888" ry="10.6817" transform="matrix(0.983609 0.180312 -0.139944 0.990159 294.879 194.389)" fill="url(#paint9_radial_0_1)"/>
<ellipse cx="9.26888" cy="10.6817" rx="9.26888" ry="10.6817" transform="matrix(0.983609 0.180312 -0.139944 0.990159 327.229 196.181)" fill="url(#paint10_radial_0_1)"/>
<ellipse cx="9.26888" cy="10.6817" rx="9.26888" ry="10.6817" transform="matrix(0.983609 0.180312 -0.139944 0.990159 360.179 197.232)" fill="url(#paint11_radial_0_1)"/>
<ellipse cx="9.26888" cy="10.6817" rx="9.26888" ry="10.6817" transform="matrix(0.983609 0.180312 -0.139944 0.990159 393.129 197.216)" fill="url(#paint12_radial_0_1)"/>
<path d="M441.663 275.468C303.763 320.347 143.181 315.557 2.61189 263.937" stroke="#1D2644" stroke-width="5"/>
<ellipse cx="9.0511" cy="10.7022" rx="9.0511" ry="10.7022" transform="matrix(0.999864 0.0164904 -0.0245391 0.999699 101.139 282.444)" fill="url(#paint13_radial_0_1)"/>
<ellipse cx="9.0511" cy="10.7022" rx="9.0511" ry="10.7022" transform="matrix(0.999864 0.0164904 -0.0245391 0.999699 74.1676 277.525)" fill="url(#paint14_radial_0_1)"/>
<ellipse cx="9.0511" cy="10.7022" rx="9.0511" ry="10.7022" transform="matrix(0.999864 0.0164904 -0.0245391 0.999699 46.1522 272.562)" fill="url(#paint15_radial_0_1)"/>
<ellipse cx="9.0511" cy="10.7022" rx="9.0511" ry="10.7022" transform="matrix(0.999864 0.0164904 -0.0245391 0.999699 18.4076 261.366)" fill="url(#paint16_radial_0_1)"/>
<ellipse cx="9.24368" cy="10.7022" rx="9.24368" ry="10.7022" transform="matrix(0.999864 0.0164904 -0.0245391 0.999699 134.263 287.533)" fill="url(#paint17_radial_0_1)"/>
<ellipse cx="9.0511" cy="10.7022" rx="9.0511" ry="10.7022" transform="matrix(0.999864 0.0164904 -0.0245391 0.999699 165.978 291.908)" fill="url(#paint18_radial_0_1)"/>
<ellipse cx="9.0511" cy="10.7022" rx="9.0511" ry="10.7022" transform="matrix(0.999864 0.0164904 -0.0245391 0.999699 197.546 293.68)" fill="url(#paint19_radial_0_1)"/>
<ellipse cx="9.43625" cy="10.7022" rx="9.43625" ry="10.7022" transform="matrix(0.999864 0.0164904 -0.0245391 0.999699 230.23 296.639)" fill="url(#paint20_radial_0_1)"/>
<ellipse cx="9.43625" cy="10.7022" rx="9.43625" ry="10.7022" transform="matrix(0.999864 0.0164904 -0.0245391 0.999699 262.768 296.995)" fill="url(#paint21_radial_0_1)"/>
<ellipse cx="9.24368" cy="10.7022" rx="9.24368" ry="10.7022" transform="matrix(0.999864 0.0164904 -0.0245391 0.999699 296.201 294.633)" fill="url(#paint22_radial_0_1)"/>
<ellipse cx="9.24368" cy="10.7022" rx="9.24368" ry="10.7022" transform="matrix(0.999864 0.0164904 -0.0245391 0.999699 328.519 291.084)" fill="url(#paint23_radial_0_1)"/>
<ellipse cx="9.24368" cy="10.7022" rx="9.24368" ry="10.7022" transform="matrix(0.999864 0.0164904 -0.0245391 0.999699 361.345 286.703)" fill="url(#paint24_radial_0_1)"/>
<ellipse cx="9.24368" cy="10.7022" rx="9.24368" ry="10.7022" transform="matrix(0.999864 0.0164904 -0.0245391 0.999699 394.05 281.268)" fill="url(#paint25_radial_0_1)"/>
<path d="M932.122 192.38C932.122 192.38 1178.63 169.747 1300.32 140.948C1428.15 110.695 1610.03 63.8734 1610.03 63.8734" stroke="#1D2644" stroke-width="5"/>
<ellipse cx="9.15189" cy="10.6178" rx="9.15189" ry="10.6178" transform="matrix(0.973198 -0.229969 0.15162 0.988439 1064.77 171.725)" fill="url(#paint26_radial_0_1)"/>
<ellipse cx="9.34661" cy="10.6178" rx="9.34661" ry="10.6178" transform="matrix(0.973198 -0.229969 0.15162 0.988439 1095.96 167.583)" fill="url(#paint27_radial_0_1)"/>
<ellipse cx="9.15189" cy="10.6178" rx="9.15189" ry="10.6178" transform="matrix(0.973198 -0.229969 0.15162 0.988439 1127.44 165.099)" fill="url(#paint28_radial_0_1)"/>
<ellipse cx="9.15189" cy="10.6178" rx="9.15189" ry="10.6178" transform="matrix(0.973198 -0.229969 0.15162 0.988439 1160.42 160.863)" fill="url(#paint29_radial_0_1)"/>
<ellipse cx="9.54133" cy="10.6178" rx="9.54133" ry="10.6178" transform="matrix(0.973198 -0.229969 0.15162 0.988439 1193.01 155.62)" fill="url(#paint30_radial_0_1)"/>
<ellipse cx="9.54133" cy="10.6178" rx="9.54133" ry="10.6178" transform="matrix(0.973198 -0.229969 0.15162 0.988439 1225.25 152.079)" fill="url(#paint31_radial_0_1)"/>
<ellipse cx="9.34661" cy="10.6178" rx="9.34661" ry="10.6178" transform="matrix(0.973198 -0.229969 0.15162 0.988439 1256.88 145.855)" fill="url(#paint32_radial_0_1)"/>
<ellipse cx="9.34661" cy="10.6178" rx="9.34661" ry="10.6178" transform="matrix(0.973198 -0.229969 0.15162 0.988439 1288.57 138.491)" fill="url(#paint33_radial_0_1)"/>
<ellipse cx="9.34661" cy="10.6178" rx="9.34661" ry="10.6178" transform="matrix(0.973198 -0.229969 0.15162 0.988439 1320.31 129.881)" fill="url(#paint34_radial_0_1)"/>
<ellipse cx="9.34661" cy="10.6178" rx="9.34661" ry="10.6178" transform="matrix(0.973198 -0.229969 0.15162 0.988439 1352.11 120.024)" fill="url(#paint35_radial_0_1)"/>
<ellipse cx="9.34661" cy="10.6178" rx="9.34661" ry="10.6178" transform="matrix(0.973198 -0.229969 0.15162 0.988439 1383.8 112.659)" fill="url(#paint36_radial_0_1)"/>
<ellipse cx="9.34661" cy="10.6178" rx="9.34661" ry="10.6178" transform="matrix(0.973198 -0.229969 0.15162 0.988439 1415.49 105.295)" fill="url(#paint37_radial_0_1)"/>
<ellipse cx="9.34661" cy="10.6178" rx="9.34661" ry="10.6178" transform="matrix(0.973198 -0.229969 0.15162 0.988439 1447.23 96.6848)" fill="url(#paint38_radial_0_1)"/>
<ellipse cx="9.34661" cy="10.6178" rx="9.34661" ry="10.6178" transform="matrix(0.973198 -0.229969 0.15162 0.988439 1479.03 86.8279)" fill="url(#paint39_radial_0_1)"/>
<ellipse cx="9.34661" cy="10.6178" rx="9.34661" ry="10.6178" transform="matrix(0.973198 -0.229969 0.15162 0.988439 1510.77 78.2173)" fill="url(#paint40_radial_0_1)"/>
<ellipse cx="9.34661" cy="10.6178" rx="9.34661" ry="10.6178" transform="matrix(0.973198 -0.229969 0.15162 0.988439 1542.46 70.853)" fill="url(#paint41_radial_0_1)"/>
<ellipse cx="9.34661" cy="10.6178" rx="9.34661" ry="10.6178" transform="matrix(0.973198 -0.229969 0.15162 0.988439 1574.2 62.2424)" fill="url(#paint42_radial_0_1)"/>
<path d="M933.464 237.454C933.464 237.454 1179.95 251.305 1303.46 240.619C1433.2 229.393 1618.18 209.663 1618.18 209.663" stroke="#1D2644" stroke-width="5"/>
<ellipse cx="9.17788" cy="10.5958" rx="9.17788" ry="10.5958" transform="matrix(0.984892 -0.0848805 0.0479275 1.00721 1066.98 236.48)" fill="url(#paint43_radial_0_1)"/>
<ellipse cx="9.37316" cy="10.5958" rx="9.37316" ry="10.5958" transform="matrix(0.984892 -0.0848805 0.0479275 1.00721 1098.3 236.963)" fill="url(#paint44_radial_0_1)"/>
<ellipse cx="9.17788" cy="10.5958" rx="9.17788" ry="10.5958" transform="matrix(0.984892 -0.0848805 0.0479275 1.00721 1129.74 239.135)" fill="url(#paint45_radial_0_1)"/>
<ellipse cx="9.17788" cy="10.5958" rx="9.17788" ry="10.5958" transform="matrix(0.984892 -0.0848805 0.0479275 1.00721 1162.84 239.787)" fill="url(#paint46_radial_0_1)"/>
<ellipse cx="9.56843" cy="10.5958" rx="9.56843" ry="10.5958" transform="matrix(0.984892 -0.0848805 0.0479275 1.00721 1195.66 239.381)" fill="url(#paint47_radial_0_1)"/>
<ellipse cx="9.56843" cy="10.5958" rx="9.56843" ry="10.5958" transform="matrix(0.984892 -0.0848805 0.0479275 1.00721 1227.95 240.614)" fill="url(#paint48_radial_0_1)"/>
<ellipse cx="9.37316" cy="10.5958" rx="9.37316" ry="10.5958" transform="matrix(0.984892 -0.0848805 0.0479275 1.00721 1259.93 239.092)" fill="url(#paint49_radial_0_1)"/>
<ellipse cx="9.37316" cy="10.5958" rx="9.37316" ry="10.5958" transform="matrix(0.984892 -0.0848805 0.0479275 1.00721 1292.08 236.444)" fill="url(#paint50_radial_0_1)"/>
<ellipse cx="9.37316" cy="10.5958" rx="9.37316" ry="10.5958" transform="matrix(0.984892 -0.0848805 0.0479275 1.00721 1324.41 232.564)" fill="url(#paint51_radial_0_1)"/>
<ellipse cx="9.37316" cy="10.5958" rx="9.37316" ry="10.5958" transform="matrix(0.984892 -0.0848805 0.0479275 1.00721 1356.92 227.453)" fill="url(#paint52_radial_0_1)"/>
<ellipse cx="9.37316" cy="10.5958" rx="9.37316" ry="10.5958" transform="matrix(0.984892 -0.0848805 0.0479275 1.00721 1389.07 224.804)" fill="url(#paint53_radial_0_1)"/>
<ellipse cx="9.37316" cy="10.5958" rx="9.37316" ry="10.5958" transform="matrix(0.984892 -0.0848805 0.0479275 1.00721 1421.22 222.156)" fill="url(#paint54_radial_0_1)"/>
<ellipse cx="9.37316" cy="10.5958" rx="9.37316" ry="10.5958" transform="matrix(0.984892 -0.0848805 0.0479275 1.00721 1453.55 218.276)" fill="url(#paint55_radial_0_1)"/>
<ellipse cx="9.37316" cy="10.5958" rx="9.37316" ry="10.5958" transform="matrix(0.984892 -0.0848805 0.0479275 1.00721 1486.06 213.165)" fill="url(#paint56_radial_0_1)"/>
<ellipse cx="9.37316" cy="10.5958" rx="9.37316" ry="10.5958" transform="matrix(0.984892 -0.0848805 0.0479275 1.00721 1518.39 209.285)" fill="url(#paint57_radial_0_1)"/>
<ellipse cx="9.37316" cy="10.5958" rx="9.37316" ry="10.5958" transform="matrix(0.984892 -0.0848805 0.0479275 1.00721 1550.54 206.637)" fill="url(#paint58_radial_0_1)"/>
<ellipse cx="9.37316" cy="10.5958" rx="9.37316" ry="10.5958" transform="matrix(0.984892 -0.0848805 0.0479275 1.00721 1582.86 202.757)" fill="url(#paint59_radial_0_1)"/>
<defs>
<radialGradient id="paint0_radial_0_1" cx="0" cy="0" r="1" gradientUnits="userSpaceOnUse" gradientTransform="translate(9.07578 10.6817) rotate(90.6474) scale(13.06 11.1397)">
<stop offset="0.140625" stop-color="#FCDC8F"/>
<stop offset="1" stop-color="#F99557" stop-opacity="0.65"/>
</radialGradient>
<radialGradient id="paint1_radial_0_1" cx="0" cy="0" r="1" gradientUnits="userSpaceOnUse" gradientTransform="translate(9.07578 10.6817) rotate(90.6474) scale(13.06 11.1397)">
<stop offset="0.140625" stop-color="#FCDC8F"/>
<stop offset="1" stop-color="#F99557" stop-opacity="0.65"/>
</radialGradient>
<radialGradient id="paint2_radial_0_1" cx="0" cy="0" r="1" gradientUnits="userSpaceOnUse" gradientTransform="translate(9.07578 10.6817) rotate(90.6474) scale(13.06 11.1397)">
<stop offset="0.140625" stop-color="#FCDC8F"/>
<stop offset="1" stop-color="#F99557" stop-opacity="0.65"/>
</radialGradient>
<radialGradient id="paint3_radial_0_1" cx="0" cy="0" r="1" gradientUnits="userSpaceOnUse" gradientTransform="translate(9.07578 10.6817) rotate(90.6474) scale(13.06 11.1397)">
<stop offset="0.140625" stop-color="#FCDC8F"/>
<stop offset="1" stop-color="#F99557" stop-opacity="0.65"/>
</radialGradient>
<radialGradient id="paint4_radial_0_1" cx="0" cy="0" r="1" gradientUnits="userSpaceOnUse" gradientTransform="translate(9.26888 10.6817) rotate(90.6612) scale(13.0601 11.3766)">
<stop offset="0.140625" stop-color="#FCDC8F"/>
<stop offset="1" stop-color="#F99557" stop-opacity="0.65"/>
</radialGradient>
<radialGradient id="paint5_radial_0_1" cx="0" cy="0" r="1" gradientUnits="userSpaceOnUse" gradientTransform="translate(9.07578 10.6817) rotate(90.6474) scale(13.06 11.1397)">
<stop offset="0.140625" stop-color="#FCDC8F"/>
<stop offset="1" stop-color="#F99557" stop-opacity="0.65"/>
</radialGradient>
<radialGradient id="paint6_radial_0_1" cx="0" cy="0" r="1" gradientUnits="userSpaceOnUse" gradientTransform="translate(9.07578 10.6817) rotate(90.6474) scale(13.06 11.1397)">
<stop offset="0.140625" stop-color="#FCDC8F"/>
<stop offset="1" stop-color="#F99557" stop-opacity="0.65"/>
</radialGradient>
<radialGradient id="paint7_radial_0_1" cx="0" cy="0" r="1" gradientUnits="userSpaceOnUse" gradientTransform="translate(9.46198 10.6817) rotate(90.675) scale(13.0601 11.6136)">
<stop offset="0.140625" stop-color="#FCDC8F"/>
<stop offset="1" stop-color="#F99557" stop-opacity="0.65"/>
</radialGradient>
<radialGradient id="paint8_radial_0_1" cx="0" cy="0" r="1" gradientUnits="userSpaceOnUse" gradientTransform="translate(9.46198 10.6817) rotate(90.675) scale(13.0601 11.6136)">
<stop offset="0.140625" stop-color="#FCDC8F"/>
<stop offset="1" stop-color="#F99557" stop-opacity="0.65"/>
</radialGradient>
<radialGradient id="paint9_radial_0_1" cx="0" cy="0" r="1" gradientUnits="userSpaceOnUse" gradientTransform="translate(9.26888 10.6817) rotate(90.6612) scale(13.0601 11.3766)">
<stop offset="0.140625" stop-color="#FCDC8F"/>
<stop offset="1" stop-color="#F99557" stop-opacity="0.65"/>
</radialGradient>
<radialGradient id="paint10_radial_0_1" cx="0" cy="0" r="1" gradientUnits="userSpaceOnUse" gradientTransform="translate(9.26888 10.6817) rotate(90.6612) scale(13.0601 11.3766)">
<stop offset="0.140625" stop-color="#FCDC8F"/>
<stop offset="1" stop-color="#F99557" stop-opacity="0.65"/>
</radialGradient>
<radialGradient id="paint11_radial_0_1" cx="0" cy="0" r="1" gradientUnits="userSpaceOnUse" gradientTransform="translate(9.26888 10.6817) rotate(90.6612) scale(13.0601 11.3766)">
<stop offset="0.140625" stop-color="#FCDC8F"/>
<stop offset="1" stop-color="#F99557" stop-opacity="0.65"/>
</radialGradient>
<radialGradient id="paint12_radial_0_1" cx="0" cy="0" r="1" gradientUnits="userSpaceOnUse" gradientTransform="translate(9.26888 10.6817) rotate(90.6612) scale(13.0601 11.3766)">
<stop offset="0.140625" stop-color="#FCDC8F"/>
<stop offset="1" stop-color="#F99557" stop-opacity="0.65"/>
</radialGradient>
<radialGradient id="paint13_radial_0_1" cx="0" cy="0" r="1" gradientUnits="userSpaceOnUse" gradientTransform="translate(9.0511 10.7022) rotate(90.6444) scale(13.0851 11.1094)">
<stop offset="0.140625" stop-color="#FCDC8F"/>
<stop offset="1" stop-color="#F99557" stop-opacity="0.65"/>
</radialGradient>
<radialGradient id="paint14_radial_0_1" cx="0" cy="0" r="1" gradientUnits="userSpaceOnUse" gradientTransform="translate(9.0511 10.7022) rotate(90.6444) scale(13.0851 11.1094)">
<stop offset="0.140625" stop-color="#FCDC8F"/>
<stop offset="1" stop-color="#F99557" stop-opacity="0.65"/>
</radialGradient>
<radialGradient id="paint15_radial_0_1" cx="0" cy="0" r="1" gradientUnits="userSpaceOnUse" gradientTransform="translate(9.0511 10.7022) rotate(90.6444) scale(13.0851 11.1094)">
<stop offset="0.140625" stop-color="#FCDC8F"/>
<stop offset="1" stop-color="#F99557" stop-opacity="0.65"/>
</radialGradient>
<radialGradient id="paint16_radial_0_1" cx="0" cy="0" r="1" gradientUnits="userSpaceOnUse" gradientTransform="translate(9.0511 10.7022) rotate(90.6444) scale(13.0851 11.1094)">
<stop offset="0.140625" stop-color="#FCDC8F"/>
<stop offset="1" stop-color="#F99557" stop-opacity="0.65"/>
</radialGradient>
<radialGradient id="paint17_radial_0_1" cx="0" cy="0" r="1" gradientUnits="userSpaceOnUse" gradientTransform="translate(9.24368 10.7022) rotate(90.6582) scale(13.0851 11.3457)">
<stop offset="0.140625" stop-color="#FCDC8F"/>
<stop offset="1" stop-color="#F99557" stop-opacity="0.65"/>
</radialGradient>
<radialGradient id="paint18_radial_0_1" cx="0" cy="0" r="1" gradientUnits="userSpaceOnUse" gradientTransform="translate(9.0511 10.7022) rotate(90.6444) scale(13.0851 11.1094)">
<stop offset="0.140625" stop-color="#FCDC8F"/>
<stop offset="1" stop-color="#F99557" stop-opacity="0.65"/>
</radialGradient>
<radialGradient id="paint19_radial_0_1" cx="0" cy="0" r="1" gradientUnits="userSpaceOnUse" gradientTransform="translate(9.0511 10.7022) rotate(90.6444) scale(13.0851 11.1094)">
<stop offset="0.140625" stop-color="#FCDC8F"/>
<stop offset="1" stop-color="#F99557" stop-opacity="0.65"/>
</radialGradient>
<radialGradient id="paint20_radial_0_1" cx="0" cy="0" r="1" gradientUnits="userSpaceOnUse" gradientTransform="translate(9.43626 10.7022) rotate(90.6719) scale(13.0852 11.582)">
<stop offset="0.140625" stop-color="#FCDC8F"/>
<stop offset="1" stop-color="#F99557" stop-opacity="0.65"/>
</radialGradient>
<radialGradient id="paint21_radial_0_1" cx="0" cy="0" r="1" gradientUnits="userSpaceOnUse" gradientTransform="translate(9.43626 10.7022) rotate(90.6719) scale(13.0852 11.582)">
<stop offset="0.140625" stop-color="#FCDC8F"/>
<stop offset="1" stop-color="#F99557" stop-opacity="0.65"/>
</radialGradient>
<radialGradient id="paint22_radial_0_1" cx="0" cy="0" r="1" gradientUnits="userSpaceOnUse" gradientTransform="translate(9.24368 10.7022) rotate(90.6582) scale(13.0851 11.3457)">
<stop offset="0.140625" stop-color="#FCDC8F"/>
<stop offset="1" stop-color="#F99557" stop-opacity="0.65"/>
</radialGradient>
<radialGradient id="paint23_radial_0_1" cx="0" cy="0" r="1" gradientUnits="userSpaceOnUse" gradientTransform="translate(9.24368 10.7022) rotate(90.6582) scale(13.0851 11.3457)">
<stop offset="0.140625" stop-color="#FCDC8F"/>
<stop offset="1" stop-color="#F99557" stop-opacity="0.65"/>
</radialGradient>
<radialGradient id="paint24_radial_0_1" cx="0" cy="0" r="1" gradientUnits="userSpaceOnUse" gradientTransform="translate(9.24368 10.7022) rotate(90.6582) scale(13.0851 11.3457)">
<stop offset="0.140625" stop-color="#FCDC8F"/>
<stop offset="1" stop-color="#F99557" stop-opacity="0.65"/>
</radialGradient>
<radialGradient id="paint25_radial_0_1" cx="0" cy="0" r="1" gradientUnits="userSpaceOnUse" gradientTransform="translate(9.24368 10.7022) rotate(90.6582) scale(13.0851 11.3457)">
<stop offset="0.140625" stop-color="#FCDC8F"/>
<stop offset="1" stop-color="#F99557" stop-opacity="0.65"/>
</radialGradient>
<radialGradient id="paint26_radial_0_1" cx="0" cy="0" r="1" gradientUnits="userSpaceOnUse" gradientTransform="translate(9.15189 10.6178) rotate(90.6568) scale(12.982 11.233)">
<stop offset="0.140625" stop-color="#FCDC8F"/>
<stop offset="1" stop-color="#F99557" stop-opacity="0.65"/>
</radialGradient>
<radialGradient id="paint27_radial_0_1" cx="0" cy="0" r="1" gradientUnits="userSpaceOnUse" gradientTransform="translate(9.34661 10.6178) rotate(90.6708) scale(12.982 11.472)">
<stop offset="0.140625" stop-color="#FCDC8F"/>
<stop offset="1" stop-color="#F99557" stop-opacity="0.65"/>
</radialGradient>
<radialGradient id="paint28_radial_0_1" cx="0" cy="0" r="1" gradientUnits="userSpaceOnUse" gradientTransform="translate(9.15189 10.6178) rotate(90.6568) scale(12.982 11.233)">
<stop offset="0.140625" stop-color="#FCDC8F"/>
<stop offset="1" stop-color="#F99557" stop-opacity="0.65"/>
</radialGradient>
<radialGradient id="paint29_radial_0_1" cx="0" cy="0" r="1" gradientUnits="userSpaceOnUse" gradientTransform="translate(9.15189 10.6178) rotate(90.6568) scale(12.982 11.233)">
<stop offset="0.140625" stop-color="#FCDC8F"/>
<stop offset="1" stop-color="#F99557" stop-opacity="0.65"/>
</radialGradient>
<radialGradient id="paint30_radial_0_1" cx="0" cy="0" r="1" gradientUnits="userSpaceOnUse" gradientTransform="translate(9.54133 10.6178) rotate(90.6847) scale(12.982 11.711)">
<stop offset="0.140625" stop-color="#FCDC8F"/>
<stop offset="1" stop-color="#F99557" stop-opacity="0.65"/>
</radialGradient>
<radialGradient id="paint31_radial_0_1" cx="0" cy="0" r="1" gradientUnits="userSpaceOnUse" gradientTransform="translate(9.54133 10.6178) rotate(90.6847) scale(12.982 11.711)">
<stop offset="0.140625" stop-color="#FCDC8F"/>
<stop offset="1" stop-color="#F99557" stop-opacity="0.65"/>
</radialGradient>
<radialGradient id="paint32_radial_0_1" cx="0" cy="0" r="1" gradientUnits="userSpaceOnUse" gradientTransform="translate(9.34661 10.6178) rotate(90.6708) scale(12.982 11.472)">
<stop offset="0.140625" stop-color="#FCDC8F"/>
<stop offset="1" stop-color="#F99557" stop-opacity="0.65"/>
</radialGradient>
<radialGradient id="paint33_radial_0_1" cx="0" cy="0" r="1" gradientUnits="userSpaceOnUse" gradientTransform="translate(9.34661 10.6178) rotate(90.6708) scale(12.982 11.472)">
<stop offset="0.140625" stop-color="#FCDC8F"/>
<stop offset="1" stop-color="#F99557" stop-opacity="0.65"/>
</radialGradient>
<radialGradient id="paint34_radial_0_1" cx="0" cy="0" r="1" gradientUnits="userSpaceOnUse" gradientTransform="translate(9.34661 10.6178) rotate(90.6708) scale(12.982 11.472)">
<stop offset="0.140625" stop-color="#FCDC8F"/>
<stop offset="1" stop-color="#F99557" stop-opacity="0.65"/>
</radialGradient>
<radialGradient id="paint35_radial_0_1" cx="0" cy="0" r="1" gradientUnits="userSpaceOnUse" gradientTransform="translate(9.34661 10.6178) rotate(90.6708) scale(12.982 11.472)">
<stop offset="0.140625" stop-color="#FCDC8F"/>
<stop offset="1" stop-color="#F99557" stop-opacity="0.65"/>
</radialGradient>
<radialGradient id="paint36_radial_0_1" cx="0" cy="0" r="1" gradientUnits="userSpaceOnUse" gradientTransform="translate(9.34661 10.6178) rotate(90.6708) scale(12.982 11.472)">
<stop offset="0.140625" stop-color="#FCDC8F"/>
<stop offset="1" stop-color="#F99557" stop-opacity="0.65"/>
</radialGradient>
<radialGradient id="paint37_radial_0_1" cx="0" cy="0" r="1" gradientUnits="userSpaceOnUse" gradientTransform="translate(9.34661 10.6178) rotate(90.6708) scale(12.982 11.472)">
<stop offset="0.140625" stop-color="#FCDC8F"/>
<stop offset="1" stop-color="#F99557" stop-opacity="0.65"/>
</radialGradient>
<radialGradient id="paint38_radial_0_1" cx="0" cy="0" r="1" gradientUnits="userSpaceOnUse" gradientTransform="translate(9.34661 10.6178) rotate(90.6708) scale(12.982 11.472)">
<stop offset="0.140625" stop-color="#FCDC8F"/>
<stop offset="1" stop-color="#F99557" stop-opacity="0.65"/>
</radialGradient>
<radialGradient id="paint39_radial_0_1" cx="0" cy="0" r="1" gradientUnits="userSpaceOnUse" gradientTransform="translate(9.34661 10.6178) rotate(90.6708) scale(12.982 11.472)">
<stop offset="0.140625" stop-color="#FCDC8F"/>
<stop offset="1" stop-color="#F99557" stop-opacity="0.65"/>
</radialGradient>
<radialGradient id="paint40_radial_0_1" cx="0" cy="0" r="1" gradientUnits="userSpaceOnUse" gradientTransform="translate(9.34661 10.6178) rotate(90.6708) scale(12.982 11.472)">
<stop offset="0.140625" stop-color="#FCDC8F"/>
<stop offset="1" stop-color="#F99557" stop-opacity="0.65"/>
</radialGradient>
<radialGradient id="paint41_radial_0_1" cx="0" cy="0" r="1" gradientUnits="userSpaceOnUse" gradientTransform="translate(9.34661 10.6178) rotate(90.6708) scale(12.982 11.472)">
<stop offset="0.140625" stop-color="#FCDC8F"/>
<stop offset="1" stop-color="#F99557" stop-opacity="0.65"/>
</radialGradient>
<radialGradient id="paint42_radial_0_1" cx="0" cy="0" r="1" gradientUnits="userSpaceOnUse" gradientTransform="translate(9.34661 10.6178) rotate(90.6708) scale(12.982 11.472)">
<stop offset="0.140625" stop-color="#FCDC8F"/>
<stop offset="1" stop-color="#F99557" stop-opacity="0.65"/>
</radialGradient>
<radialGradient id="paint43_radial_0_1" cx="0" cy="0" r="1" gradientUnits="userSpaceOnUse" gradientTransform="translate(9.17788 10.5958) rotate(90.66) scale(12.955 11.2649)">
<stop offset="0.140625" stop-color="#FCDC8F"/>
<stop offset="1" stop-color="#F99557" stop-opacity="0.65"/>
</radialGradient>
<radialGradient id="paint44_radial_0_1" cx="0" cy="0" r="1" gradientUnits="userSpaceOnUse" gradientTransform="translate(9.37316 10.5958) rotate(90.6741) scale(12.9551 11.5046)">
<stop offset="0.140625" stop-color="#FCDC8F"/>
<stop offset="1" stop-color="#F99557" stop-opacity="0.65"/>
</radialGradient>
<radialGradient id="paint45_radial_0_1" cx="0" cy="0" r="1" gradientUnits="userSpaceOnUse" gradientTransform="translate(9.17788 10.5958) rotate(90.66) scale(12.955 11.2649)">
<stop offset="0.140625" stop-color="#FCDC8F"/>
<stop offset="1" stop-color="#F99557" stop-opacity="0.65"/>
</radialGradient>
<radialGradient id="paint46_radial_0_1" cx="0" cy="0" r="1" gradientUnits="userSpaceOnUse" gradientTransform="translate(9.17788 10.5958) rotate(90.66) scale(12.955 11.2649)">
<stop offset="0.140625" stop-color="#FCDC8F"/>
<stop offset="1" stop-color="#F99557" stop-opacity="0.65"/>
</radialGradient>
<radialGradient id="paint47_radial_0_1" cx="0" cy="0" r="1" gradientUnits="userSpaceOnUse" gradientTransform="translate(9.56843 10.5958) rotate(90.6881) scale(12.9551 11.7442)">
<stop offset="0.140625" stop-color="#FCDC8F"/>
<stop offset="1" stop-color="#F99557" stop-opacity="0.65"/>
</radialGradient>
<radialGradient id="paint48_radial_0_1" cx="0" cy="0" r="1" gradientUnits="userSpaceOnUse" gradientTransform="translate(9.56843 10.5958) rotate(90.6881) scale(12.9551 11.7442)">
<stop offset="0.140625" stop-color="#FCDC8F"/>
<stop offset="1" stop-color="#F99557" stop-opacity="0.65"/>
</radialGradient>
<radialGradient id="paint49_radial_0_1" cx="0" cy="0" r="1" gradientUnits="userSpaceOnUse" gradientTransform="translate(9.37316 10.5958) rotate(90.6741) scale(12.9551 11.5046)">
<stop offset="0.140625" stop-color="#FCDC8F"/>
<stop offset="1" stop-color="#F99557" stop-opacity="0.65"/>
</radialGradient>
<radialGradient id="paint50_radial_0_1" cx="0" cy="0" r="1" gradientUnits="userSpaceOnUse" gradientTransform="translate(9.37316 10.5958) rotate(90.6741) scale(12.9551 11.5046)">
<stop offset="0.140625" stop-color="#FCDC8F"/>
<stop offset="1" stop-color="#F99557" stop-opacity="0.65"/>
</radialGradient>
<radialGradient id="paint51_radial_0_1" cx="0" cy="0" r="1" gradientUnits="userSpaceOnUse" gradientTransform="translate(9.37316 10.5958) rotate(90.6741) scale(12.9551 11.5046)">
<stop offset="0.140625" stop-color="#FCDC8F"/>
<stop offset="1" stop-color="#F99557" stop-opacity="0.65"/>
</radialGradient>
<radialGradient id="paint52_radial_0_1" cx="0" cy="0" r="1" gradientUnits="userSpaceOnUse" gradientTransform="translate(9.37316 10.5958) rotate(90.6741) scale(12.9551 11.5046)">
<stop offset="0.140625" stop-color="#FCDC8F"/>
<stop offset="1" stop-color="#F99557" stop-opacity="0.65"/>
</radialGradient>
<radialGradient id="paint53_radial_0_1" cx="0" cy="0" r="1" gradientUnits="userSpaceOnUse" gradientTransform="translate(9.37316 10.5958) rotate(90.6741) scale(12.9551 11.5046)">
<stop offset="0.140625" stop-color="#FCDC8F"/>
<stop offset="1" stop-color="#F99557" stop-opacity="0.65"/>
</radialGradient>
<radialGradient id="paint54_radial_0_1" cx="0" cy="0" r="1" gradientUnits="userSpaceOnUse" gradientTransform="translate(9.37316 10.5958) rotate(90.6741) scale(12.9551 11.5046)">
<stop offset="0.140625" stop-color="#FCDC8F"/>
<stop offset="1" stop-color="#F99557" stop-opacity="0.65"/>
</radialGradient>
<radialGradient id="paint55_radial_0_1" cx="0" cy="0" r="1" gradientUnits="userSpaceOnUse" gradientTransform="translate(9.37316 10.5958) rotate(90.6741) scale(12.9551 11.5046)">
<stop offset="0.140625" stop-color="#FCDC8F"/>
<stop offset="1" stop-color="#F99557" stop-opacity="0.65"/>
</radialGradient>
<radialGradient id="paint56_radial_0_1" cx="0" cy="0" r="1" gradientUnits="userSpaceOnUse" gradientTransform="translate(9.37316 10.5958) rotate(90.6741) scale(12.9551 11.5046)">
<stop offset="0.140625" stop-color="#FCDC8F"/>
<stop offset="1" stop-color="#F99557" stop-opacity="0.65"/>
</radialGradient>
<radialGradient id="paint57_radial_0_1" cx="0" cy="0" r="1" gradientUnits="userSpaceOnUse" gradientTransform="translate(9.37316 10.5958) rotate(90.6741) scale(12.9551 11.5046)">
<stop offset="0.140625" stop-color="#FCDC8F"/>
<stop offset="1" stop-color="#F99557" stop-opacity="0.65"/>
</radialGradient>
<radialGradient id="paint58_radial_0_1" cx="0" cy="0" r="1" gradientUnits="userSpaceOnUse" gradientTransform="translate(9.37316 10.5958) rotate(90.6741) scale(12.9551 11.5046)">
<stop offset="0.140625" stop-color="#FCDC8F"/>
<stop offset="1" stop-color="#F99557" stop-opacity="0.65"/>
</radialGradient>
<radialGradient id="paint59_radial_0_1" cx="0" cy="0" r="1" gradientUnits="userSpaceOnUse" gradientTransform="translate(9.37316 10.5958) rotate(90.6741) scale(12.9551 11.5046)">
<stop offset="0.140625" stop-color="#FCDC8F"/>
<stop offset="1" stop-color="#F99557" stop-opacity="0.65"/>
</radialGradient>
</defs>
</svg>
