<svg width="222" height="160" viewBox="0 0 222 160" fill="none" xmlns="http://www.w3.org/2000/svg">
<path d="M194.638 114.351C194.622 125.06 190.185 133.84 182.766 138.955C175.363 144.233 164.98 145.843 153.421 146.002C141.861 145.843 131.477 144.233 124.074 138.955C116.656 133.842 112.218 125.061 112.203 114.351C112.218 103.643 116.656 94.8621 124.074 89.7476C131.477 84.4696 141.861 82.8593 153.421 82.7004C164.981 82.8593 175.363 84.4696 182.766 89.7476C190.185 94.8605 194.622 103.641 194.638 114.35V114.351Z" fill="#CE892F"/>
<path d="M197.049 36.4865C207.986 36.4865 216.852 28.3188 216.852 18.2433C216.852 8.1678 207.986 0 197.049 0C186.111 0 177.245 8.1678 177.245 18.2433C177.245 28.3188 186.111 36.4865 197.049 36.4865Z" fill="#CE892F"/>
<path d="M196.555 32.0089C203.633 32.0089 209.371 26.7229 209.371 20.2023C209.371 13.6817 203.633 8.39575 196.555 8.39575C189.476 8.39575 183.738 13.6817 183.738 20.2023C183.738 26.7229 189.476 32.0089 196.555 32.0089Z" fill="#FCB867"/>
<path d="M111.047 36.4865C121.984 36.4865 130.85 28.3188 130.85 18.2433C130.85 8.1678 121.984 0 111.047 0C100.109 0 91.2432 8.1678 91.2432 18.2433C91.2432 28.3188 100.109 36.4865 111.047 36.4865Z" fill="#CE892F"/>
<path d="M111.539 32.0089C118.617 32.0089 124.355 26.7229 124.355 20.2023C124.355 13.6817 118.617 8.39575 111.539 8.39575C104.461 8.39575 98.7227 13.6817 98.7227 20.2023C98.7227 26.7229 104.461 32.0089 111.539 32.0089Z" fill="#FCB867"/>
<path d="M178.141 92.5962C162.131 94.2907 145.962 94.2907 129.952 92.5962C120.228 91.6151 111.508 85.6129 105.239 78.4395C98.9672 71.1431 95.1464 62.6756 95.1396 53.8873C95.1464 45.0989 98.9672 36.6314 105.239 29.335C111.508 22.1632 120.228 16.161 129.952 15.1783C145.962 13.4839 162.131 13.4839 178.141 15.1783C187.865 16.1595 196.585 22.1632 202.853 29.335C209.126 36.6314 212.946 45.0989 212.953 53.8873C212.948 62.6756 209.126 71.1431 202.853 78.4395C196.585 85.6113 187.865 91.6135 178.141 92.5962Z" fill="#CE892F"/>
<path d="M175.113 68.6154C175.108 73.543 172.802 77.6483 169.002 80.1386C165.206 82.6927 159.917 83.6302 154.047 83.6925C148.177 83.6302 142.889 82.6927 139.092 80.1386C135.291 77.6483 132.986 73.543 132.98 68.6154C132.986 63.6878 135.291 59.5826 139.092 57.0923C142.887 54.5382 148.177 53.6006 154.047 53.5383C159.917 53.5991 165.206 54.5382 169.002 57.0923C172.802 59.5826 175.108 63.6878 175.113 68.6154Z" fill="#FCB867"/>
<path d="M124.355 66.0068C127.988 66.0068 130.934 63.2937 130.934 59.947C130.934 56.6003 127.988 53.8872 124.355 53.8872C120.722 53.8872 117.777 56.6003 117.777 59.947C117.777 63.2937 120.722 66.0068 124.355 66.0068Z" fill="#6C421A"/>
<path d="M183.738 66.0068C187.371 66.0068 190.316 63.2937 190.316 59.947C190.316 56.6003 187.371 53.8872 183.738 53.8872C180.105 53.8872 177.16 56.6003 177.16 59.947C177.16 63.2937 180.105 66.0068 183.738 66.0068Z" fill="#6C421A"/>
<path d="M154.047 66.0067C157.68 66.0067 160.625 64.152 160.625 61.8641C160.625 59.5762 157.68 57.7214 154.047 57.7214C150.414 57.7214 147.469 59.5762 147.469 61.8641C147.469 64.152 150.414 66.0067 154.047 66.0067Z" fill="#6C421A"/>
<path d="M153.422 65.2981C153.422 65.2981 151.724 75.6594 144.139 73.6068" stroke="#6C421A" stroke-width="3" stroke-miterlimit="10" stroke-linecap="round"/>
<path d="M154.047 65.2981C154.047 65.2981 155.744 75.6594 163.33 73.6068" stroke="#6C421A" stroke-width="3" stroke-miterlimit="10" stroke-linecap="round"/>
<path d="M158.049 95.1067C158.257 98.5719 157.41 101.07 153.422 101.043C149.435 101.07 148.587 98.5719 148.795 95.1067C148.587 91.6415 149.435 89.1434 153.422 89.1699C157.408 89.1434 158.257 91.6415 158.049 95.1067Z" fill="#EE3A25"/>
<path d="M170.057 100.537C169.95 100.687 169.785 100.905 169.565 101.128C167.92 102.805 165.852 102.201 163.148 100.983C161.148 100.083 158.558 98.7401 155.577 96.7093V93.6225C156.864 92.3237 159.459 90.0655 163.21 89.1123C165.868 88.438 167.854 87.2154 169.303 88.913C169.519 89.1668 169.677 89.4191 169.776 89.5967C169.886 89.8132 170.045 90.148 170.214 90.5825C171.245 93.2488 171.704 97.3945 170.468 99.8661C170.37 100.064 170.236 100.298 170.059 100.537H170.057Z" fill="#EE3A25"/>
<path d="M136.786 100.537C136.893 100.687 137.059 100.905 137.278 101.128C138.923 102.805 140.991 102.201 143.696 100.983C145.696 100.083 148.286 98.7401 151.266 96.7093C151.266 95.6799 151.266 94.652 151.266 93.6225C149.98 92.3237 147.385 90.0655 143.633 89.1123C140.976 88.438 138.989 87.2154 137.54 88.913C137.324 89.1668 137.167 89.4191 137.067 89.5967C136.957 89.8132 136.798 90.148 136.629 90.5825C135.598 93.2488 135.14 97.3945 136.376 99.8661C136.474 100.064 136.607 100.298 136.785 100.537H136.786Z" fill="#EE3A25"/>
<path d="M103.036 115.709L129.261 99.8813C133.31 97.4378 134.442 92.4335 131.789 88.7037C129.137 84.974 123.704 83.9312 119.656 86.3747L93.4304 102.202C89.3817 104.645 88.2498 109.65 90.9023 113.38C93.5547 117.109 98.9871 118.152 103.036 115.709Z" fill="#CE892F"/>
<path d="M124.766 150.946L135.642 144.382C139.691 141.938 140.822 136.934 138.17 133.204C135.518 129.474 130.085 128.432 126.036 130.875L115.16 137.439C111.112 139.883 109.98 144.887 112.632 148.617C115.285 152.346 120.717 153.389 124.766 150.946Z" fill="#CE892F"/>
<path d="M192.986 137.466L182.11 130.902C178.061 128.458 172.629 129.501 169.977 133.231C167.324 136.961 168.456 141.965 172.505 144.408L183.381 150.972C187.43 153.416 192.862 152.373 195.514 148.643C198.167 144.914 197.035 139.909 192.986 137.466Z" fill="#CE892F"/>
<path d="M214.177 102.223L187.952 86.3957C183.903 83.9522 178.471 84.995 175.818 88.7248C173.166 92.4545 174.298 97.4589 178.347 99.9024L204.572 115.73C208.62 118.173 214.053 117.13 216.705 113.401C219.358 109.671 218.226 104.666 214.177 102.223Z" fill="#CE892F"/>
<path d="M89.0353 126.395C89.0228 134.955 85.3819 141.974 79.2958 146.063C73.2221 150.282 64.7032 151.569 55.2203 151.696C45.736 151.569 37.2184 150.282 31.1448 146.063C25.0586 141.976 21.4178 134.956 21.4053 126.395C21.4178 117.834 25.0586 110.815 31.1448 106.726C37.2184 102.507 45.7374 101.22 55.2203 101.093C64.7045 101.22 73.2221 102.507 79.2972 106.726C85.3833 110.814 89.0242 117.833 89.0367 126.393L89.0353 126.395Z" fill="#FEA3AA"/>
<path d="M75.5004 109.003C62.3655 110.358 49.1003 110.358 35.9654 109.003C27.986 108.219 20.8332 103.42 15.6902 97.6864C10.5445 91.8536 7.40846 85.0846 7.4043 78.0592C7.40846 71.0337 10.5445 64.2647 15.6902 58.432C20.8332 52.6988 27.9874 47.9006 35.9654 47.115C49.1003 45.7605 62.3655 45.7605 75.5004 47.115C83.4798 47.8994 90.6325 52.6988 95.7755 58.432C100.921 64.2647 104.057 71.0337 104.061 78.0592C104.057 85.0846 100.921 91.8536 95.7755 97.6864C90.6325 103.42 83.4784 108.218 75.5004 109.003Z" fill="#FEA3AA"/>
<path d="M31.3734 87.7478C34.3539 87.7478 36.7702 85.579 36.7702 82.9036C36.7702 80.2282 34.3539 78.0593 31.3734 78.0593C28.3928 78.0593 25.9766 80.2282 25.9766 82.9036C25.9766 85.579 28.3928 87.7478 31.3734 87.7478Z" fill="#6C421A"/>
<path d="M80.0921 87.7478C83.0727 87.7478 85.4889 85.579 85.4889 82.9036C85.4889 80.2282 83.0727 78.0593 80.0921 78.0593C77.1115 78.0593 74.6953 80.2282 74.6953 82.9036C74.6953 85.579 77.1115 87.7478 80.0921 87.7478Z" fill="#6C421A"/>
<path d="M55.7328 87.7476C58.7133 87.7476 61.1296 86.2649 61.1296 84.4359C61.1296 82.6069 58.7133 81.1243 55.7328 81.1243C52.7522 81.1243 50.3359 82.6069 50.3359 84.4359C50.3359 86.2649 52.7522 87.7476 55.7328 87.7476Z" fill="#6C421A"/>
<path d="M55.2195 87.1814C55.2195 87.1814 53.827 95.4643 47.6035 93.8234" stroke="#6C421A" stroke-width="3" stroke-miterlimit="10" stroke-linecap="round"/>
<path d="M55.7334 87.1814C55.7334 87.1814 57.1259 95.4643 63.3494 93.8234" stroke="#6C421A" stroke-width="3" stroke-miterlimit="10" stroke-linecap="round"/>
<path d="M13.8956 127.497L35.4113 114.844C38.733 112.891 39.6617 108.891 37.4855 105.909C35.3094 102.927 30.8525 102.094 27.5308 104.047L6.01507 116.7C2.69339 118.653 1.76476 122.653 3.9409 125.635C6.11703 128.617 10.5739 129.45 13.8956 127.497Z" fill="#FEA3AA"/>
<path d="M31.7227 155.665L40.6457 150.417C43.9674 148.464 44.896 144.464 42.7199 141.482C40.5438 138.5 36.0869 137.667 32.7652 139.62L23.8422 144.867C20.5205 146.821 19.5918 150.821 21.768 153.803C23.9441 156.784 28.401 157.618 31.7227 155.665Z" fill="#FEA3AA"/>
<path d="M87.666 144.889L78.743 139.641C75.4213 137.688 70.9644 138.522 68.7883 141.503C66.6121 144.485 67.5408 148.485 70.8625 150.439L79.7855 155.686C83.1072 157.639 87.5641 156.806 89.7402 153.824C91.9163 150.842 90.9877 146.842 87.666 144.889Z" fill="#FEA3AA"/>
<path d="M105.054 116.716L83.5379 104.064C80.2162 102.11 75.7593 102.944 73.5832 105.925C71.4071 108.907 72.3357 112.908 75.6574 114.861L97.1732 127.513C100.495 129.467 104.952 128.633 107.128 125.652C109.304 122.67 108.375 118.669 105.054 116.716Z" fill="#FEA3AA"/>
<path d="M49.61 29.023C49.61 23.8028 44.8955 19.571 39.0799 19.571C33.2643 19.571 28.5498 23.8028 28.5498 29.023V55.6669C28.5498 60.8871 33.2643 65.1189 39.0799 65.1189C44.8955 65.1189 49.61 60.8871 49.61 55.6669V29.023Z" fill="#FEA3AA"/>
<path d="M82.9157 29.023C82.9157 23.8028 78.2012 19.571 72.3855 19.571C66.5699 19.571 61.8555 23.8028 61.8555 29.023V55.6669C61.8555 60.8871 66.5699 65.1189 72.3855 65.1189C78.2012 65.1189 82.9157 60.8871 82.9157 55.6669V29.023Z" fill="#FEA3AA"/>
</svg>
