<svg width="1551" height="931" viewBox="0 0 1551 931" fill="none" xmlns="http://www.w3.org/2000/svg">
<path d="M-300.664 260.631L-1.91084 927.098L1550.99 930.804L1552.76 189.018C1388.63 194.616 1182.11 200.257 949.004 148.263C671.916 86.4604 437.964 13.9955 177.246 3.07368C-300.001 -16.9189 -186.984 128.921 -300.664 260.631Z" fill="url(#paint0_linear_0_1)"/>
<g style="mix-blend-mode:hard-light" opacity="0.13">
<path d="M1306.19 773.508C1321.56 773.544 1334.04 762.949 1334.07 749.843C1334.1 736.737 1321.67 726.083 1306.31 726.046C1290.94 726.01 1278.45 736.605 1278.42 749.711C1278.39 762.817 1290.82 773.471 1306.19 773.508Z" fill="#B7CADF"/>
</g>
<g style="mix-blend-mode:hard-light" opacity="0.13">
<path d="M678.692 848.334C703.292 848.393 723.266 835.655 723.303 819.884C723.341 804.113 703.429 791.281 678.828 791.222C654.228 791.163 634.255 803.901 634.217 819.672C634.179 835.443 654.091 848.275 678.692 848.334Z" fill="#B7CADF"/>
</g>
<g style="mix-blend-mode:hard-light" opacity="0.13">
<path d="M129.348 380.664C139.605 380.689 147.932 375.379 147.948 368.803C147.963 362.228 139.662 356.878 129.405 356.853C119.149 356.829 110.822 362.139 110.806 368.715C110.79 375.29 119.092 380.64 129.348 380.664Z" fill="white"/>
</g>
<g style="mix-blend-mode:hard-light" opacity="0.3">
<path d="M1389.08 579.823C1422.71 579.904 1450.04 553.106 1450.12 519.969C1450.2 486.832 1423 459.904 1389.37 459.824C1355.73 459.743 1328.4 486.541 1328.32 519.678C1328.24 552.815 1355.45 579.743 1389.08 579.823Z" fill="#EA7794"/>
</g>
<g style="mix-blend-mode:hard-light" opacity="0.13">
<path d="M691.365 540.12C703.665 540.15 713.652 533.781 713.671 525.896C713.689 518.01 703.733 511.594 691.433 511.564C679.133 511.535 669.146 517.904 669.127 525.789C669.109 533.675 679.065 540.091 691.365 540.12Z" fill="#A84C8E"/>
</g>
<g style="mix-blend-mode:hard-light" opacity="0.13">
<path d="M858.47 677.137C874.871 677.176 888.186 668.685 888.211 658.171C888.236 647.657 874.961 639.102 858.561 639.063C842.161 639.023 828.845 647.515 828.82 658.029C828.795 668.543 842.07 677.098 858.47 677.137Z" fill="#ED9363"/>
</g>
<g style="mix-blend-mode:hard-light" opacity="0.13">
<path d="M73.8707 852.677C90.2711 852.716 103.587 844.224 103.612 833.71C103.637 823.196 90.3619 814.641 73.9616 814.602C57.5613 814.563 44.2458 823.055 44.2207 833.569C44.1956 844.083 57.4704 852.638 73.8707 852.677Z" fill="#ED9363"/>
</g>
<g style="mix-blend-mode:hard-light" opacity="0.13">
<path d="M1240.8 919.547C1253.1 919.576 1263.08 913.207 1263.1 905.322C1263.12 897.436 1253.17 891.02 1240.87 890.991C1228.57 890.961 1218.58 897.33 1218.56 905.215C1218.54 913.101 1228.5 919.517 1240.8 919.547Z" fill="#A84C8E"/>
</g>
<g style="mix-blend-mode:soft-light" opacity="0.77">
<path d="M1334.03 666.468C1340.26 666.483 1345.32 663.257 1345.33 659.262C1345.34 655.267 1340.3 652.017 1334.07 652.002C1327.83 651.987 1322.78 655.213 1322.77 659.208C1322.76 663.203 1327.8 666.453 1334.03 666.468Z" fill="white"/>
</g>
<g style="mix-blend-mode:soft-light" opacity="0.3">
<path d="M698.186 565.8C704.417 565.814 709.476 562.588 709.485 558.594C709.495 554.599 704.451 551.348 698.22 551.334C691.989 551.319 686.93 554.545 686.92 558.54C686.911 562.534 691.955 565.785 698.186 565.8Z" fill="white"/>
</g>
<g style="mix-blend-mode:soft-light" opacity="0.26">
<path d="M409.472 856.385C416.949 856.403 423.02 852.531 423.032 847.737C423.043 842.944 416.991 839.043 409.514 839.025C402.036 839.008 395.965 842.879 395.954 847.673C395.942 852.466 401.995 856.367 409.472 856.385Z" fill="white"/>
</g>
<g style="mix-blend-mode:soft-light" opacity="0.37">
<path d="M275.391 510.555C282.868 510.573 288.939 506.701 288.95 501.908C288.962 497.114 282.91 493.214 275.432 493.196C267.955 493.178 261.884 497.05 261.873 501.843C261.861 506.637 267.913 510.537 275.391 510.555Z" fill="white"/>
</g>
<g style="mix-blend-mode:soft-light" opacity="0.69">
<path d="M1190.67 895.167C1196.9 895.182 1201.96 891.955 1201.97 887.961C1201.98 883.966 1196.94 880.716 1190.71 880.701C1184.48 880.686 1179.42 883.912 1179.41 887.907C1179.4 891.902 1184.44 895.152 1190.67 895.167Z" fill="white"/>
</g>
<g style="mix-blend-mode:soft-light" opacity="0.52">
<path d="M918.304 775.562C920.796 775.568 922.82 774.278 922.823 772.68C922.827 771.082 920.81 769.782 918.317 769.776C915.825 769.77 913.801 771.06 913.797 772.658C913.794 774.256 915.811 775.556 918.304 775.562Z" fill="white"/>
</g>
<g style="mix-blend-mode:soft-light" opacity="0.69">
<path d="M287.494 691.831C289.987 691.837 292.01 690.547 292.014 688.949C292.018 687.351 290 686.051 287.508 686.045C285.016 686.039 282.992 687.33 282.988 688.927C282.984 690.525 285.002 691.825 287.494 691.831Z" fill="white"/>
</g>
<g style="mix-blend-mode:soft-light">
<path d="M175.632 770.492C178.124 770.497 180.148 769.207 180.152 767.609C180.156 766.011 178.138 764.711 175.646 764.705C173.153 764.699 171.13 765.99 171.126 767.588C171.122 769.185 173.14 770.486 175.632 770.492Z" fill="white"/>
</g>
<g style="mix-blend-mode:soft-light" opacity="0.19">
<path d="M246.324 592.626C250.063 592.635 253.099 590.699 253.104 588.302C253.11 585.905 250.084 583.955 246.345 583.946C242.606 583.937 239.571 585.873 239.565 588.27C239.56 590.667 242.586 592.617 246.324 592.626Z" fill="white"/>
</g>
<g style="mix-blend-mode:soft-light" opacity="0.86">
<path d="M74.5452 570.141C78.2839 570.15 81.3193 568.214 81.325 565.817C81.3308 563.42 78.3046 561.47 74.5659 561.461C70.8272 561.452 67.7918 563.388 67.7861 565.785C67.7804 568.181 70.8065 570.132 74.5452 570.141Z" fill="white"/>
</g>
<g style="mix-blend-mode:soft-light" opacity="0.77">
<path d="M538.119 693.876C541.858 693.885 544.894 691.95 544.899 689.553C544.905 687.156 541.879 685.206 538.14 685.197C534.401 685.188 531.366 687.124 531.36 689.52C531.355 691.917 534.381 693.868 538.119 693.876Z" fill="white"/>
</g>
<g style="mix-blend-mode:soft-light" opacity="0.64">
<path d="M1065.56 729.767C1069.3 729.776 1072.33 727.84 1072.34 725.443C1072.34 723.047 1069.32 721.096 1065.58 721.087C1061.84 721.079 1058.81 723.014 1058.8 725.411C1058.79 727.808 1061.82 729.758 1065.56 729.767Z" fill="white"/>
</g>
<g style="mix-blend-mode:soft-light" opacity="0.89">
<path d="M866.222 908.729C869.96 908.738 872.996 906.802 873.001 904.405C873.007 902.009 869.981 900.058 866.242 900.049C862.504 900.04 859.468 901.976 859.463 904.373C859.457 906.77 862.483 908.72 866.222 908.729Z" fill="white"/>
</g>
<g style="mix-blend-mode:soft-light">
<path d="M978.048 608.94C981.786 608.949 984.822 607.013 984.827 604.616C984.833 602.219 981.807 600.269 978.068 600.26C974.33 600.251 971.294 602.187 971.288 604.584C971.283 606.981 974.309 608.931 978.048 608.94Z" fill="white"/>
</g>
<g style="mix-blend-mode:soft-light">
<path d="M940.868 840.359C944.607 840.368 947.643 838.433 947.648 836.036C947.654 833.639 944.628 831.689 940.889 831.68C937.151 831.671 934.115 833.607 934.109 836.003C934.104 838.4 937.13 840.35 940.868 840.359Z" fill="white"/>
</g>
<path opacity="0.5" d="M1551.23 831.404L0.383667 827.703L0.148538 926.207L1550.99 929.909L1551.23 831.404Z" fill="url(#paint1_linear_0_1)"/>
<path d="M1038.76 841.136C943.549 843.947 912.041 846.634 912.036 849.021C912.033 850.236 920.245 850.922 919.994 852.136C919.172 856.127 828.218 853.884 826.988 858.351C826.237 861.113 860.552 863.987 859.867 867.442C859.227 870.696 828.175 871.938 814.07 872.483C763.542 874.417 727.58 871.77 726.808 873.562C725.969 875.513 768.63 879.304 768.081 882.673C767.119 888.66 631.192 886.498 629.482 893.93C628.456 898.368 676.444 901.521 676.657 906.917C676.892 912.487 626.171 919.512 462.216 928.191C654.333 928.621 846.429 929.05 1038.55 929.48C1003.47 914.916 980.012 901.479 988.087 893.498C998.853 882.877 1061.85 885.602 1061.92 882.608C1062 879.686 1002.18 877.807 1002.19 875.087C1002.2 871.76 1092.35 870.355 1092.42 866.869C1092.5 863.831 1024.33 861.73 1024.48 858.794C1024.64 855.626 1104.55 854.37 1104.56 851C1104.56 849.351 1085.49 848.654 1085.41 846.744C1085.32 844.748 1106.02 842.888 1129.83 841.368L1038.73 841.15L1038.76 841.136Z" fill="#FBDB8F"/>
<path d="M1218.63 874.389C1218.63 874.389 1240.83 875.715 1258.63 871.172C1258.63 871.172 1277.03 876.322 1297.98 873.001C1297.98 873.001 1311.3 877.185 1327.17 877.02C1327.17 877.02 1301.87 877.9 1297.7 874.578C1297.7 874.578 1267.48 878.108 1258.17 872.776C1258.17 872.776 1236 877.222 1218.63 874.374L1218.63 874.389Z" fill="#FBDB8F"/>
<path d="M569.423 889.865C569.423 889.865 496.43 887.839 484.28 892.208C475.156 895.47 440.537 887.764 378.617 888.368L378.625 885.056C389.885 885.083 401.528 885.284 412.876 885.875C462.965 888.483 473.655 890.765 497.918 888.624C522.248 886.512 569.423 889.851 569.423 889.851L569.423 889.865Z" fill="#FBDB8F"/>
<path d="M619.866 835.963L-15.3948 839.623L-15.0837 709.271C-11.1972 709.37 -5.03918 709.439 2.7589 709.693C9.34579 709.835 17.1437 710.143 25.8754 710.508C36.626 710.913 48.8147 711.503 61.9871 712.403C142.284 717.423 259.005 730.688 307.179 765.294C383.923 820.406 498.095 791.686 537.16 803.915C576.225 816.144 561.381 828.607 619.841 835.963L619.866 835.963Z" fill="#1D2644"/>
<path d="M539.416 804.177L978.766 800.713L979.044 817.687L527.101 821.248L539.416 804.177Z" fill="#1D2644"/>
<path d="M948.7 817.955L912.347 818.241L912.605 833.758L948.959 833.472L948.7 817.955Z" fill="#1D2644"/>
<path d="M825.816 801.931C544.494 801.367 513.906 735.268 410.163 700.21C306.419 665.151 195.584 758.315 158.816 694.665C143.689 668.521 113.838 652.482 83.9478 642.791C81.5732 642.012 79.2965 641.288 76.9464 640.563C75.6733 640.2 74.3267 639.837 73.0536 639.475C70.5319 638.749 68.0836 638.096 65.6349 637.569C63.7008 637.025 61.742 636.553 59.8076 636.135C56.0124 635.244 52.3884 634.463 48.8377 633.753C37.7204 631.551 27.5321 630.16 19.2781 629.241C14.8205 628.727 10.8525 628.376 7.66816 628.152C5.39028 627.931 3.45512 627.819 1.96082 627.761" stroke="#1D2644" stroke-width="1.75516" stroke-miterlimit="10"/>
<path d="M825.646 791.015C544.325 790.451 515.21 722.63 411.467 687.499C307.724 652.44 209.729 744.215 164.033 674.592C147.312 649.019 111.113 634.188 76.6883 625.529C73.0646 624.639 69.4407 623.804 65.8902 623.022C64.1271 622.658 62.3397 622.24 60.5765 621.948C56.9525 621.167 53.4016 620.529 49.8752 619.945C27.8108 616.044 9.39099 614.598 1.72382 614.166" stroke="#1D2644" stroke-width="1.75516" stroke-miterlimit="10"/>
<path d="M839.778 751.244L884.142 750.896C892.3 750.831 899.019 755.652 899.119 761.639L899.842 805.078L825.86 805.66L825.138 762.221C825.038 756.233 831.596 751.309 839.753 751.245L839.778 751.244Z" fill="#1D2644"/>
<path d="M890.633 774.885C913.39 774.706 932.087 788.117 932.365 804.821L891.136 805.145L890.633 774.885Z" fill="#1D2644"/>
<path d="M662.569 744.744L683.073 744.583C688.781 744.538 693.492 747.918 693.562 752.107L694.454 805.723L653.226 806.047L652.334 752.431C652.264 748.242 656.861 744.789 662.569 744.744V744.744Z" fill="#1D2644"/>
<path d="M618.857 789.264L577.628 789.588L577.933 807.946L619.162 807.622L618.857 789.264Z" fill="#1D2644"/>
<path d="M784.065 764.628L710.083 765.209L710.771 806.545L784.752 805.964L784.065 764.628Z" fill="#1D2644"/>
<path d="M19.2783 629.24L20.8449 722.151" stroke="#1D2644" stroke-width="1.87217" stroke-miterlimit="10"/>
<path d="M99.2868 816.162L96.4561 647.261" stroke="#1D2644" stroke-width="2.64443" stroke-miterlimit="10"/>
<path d="M176.044 815.554L174.31 710.757" stroke="#1D2644" stroke-width="2.64443" stroke-miterlimit="10"/>
<path d="M252.899 814.947L251.14 710.15" stroke="#1D2644" stroke-width="2.64443" stroke-miterlimit="10"/>
<path d="M329.754 814.339L327.738 694.078" stroke="#1D2644" stroke-width="2.64443" stroke-miterlimit="10"/>
<path d="M406.511 813.731L404.606 698.469" stroke="#1D2644" stroke-width="2.64443" stroke-miterlimit="10"/>
<path d="M483.366 813.142L482.015 732.189" stroke="#1D2644" stroke-width="2.64443" stroke-miterlimit="10"/>
<path d="M560.221 812.534L559.448 766.915" stroke="#1D2644" stroke-width="2.64443" stroke-miterlimit="10"/>
<path d="M637.076 811.926L636.669 787.255" stroke="#1D2644" stroke-width="2.64443" stroke-miterlimit="10"/>
<path d="M713.833 811.318L713.596 797.454" stroke="#1D2644" stroke-width="2.64443" stroke-miterlimit="10"/>
<path d="M710.097 765.206L746.832 750.046L784.061 764.609L710.097 765.206Z" fill="#1D2644"/>
<path d="M619.866 836.028C619.866 836.028 616.827 836.111 611.359 836.333C552.621 838.506 209.558 851.787 213.571 867.685C217.96 885.012 23.0983 876.63 38.2015 891.579C50.8298 904.009 2.77502 906.172 -13.6304 906.476L-15.3204 808.428L619.866 836.01L619.866 836.028Z" fill="#1D2644"/>
<path d="M479.82 718.104L490.892 708.259L525.56 728.228L519.534 738.193L479.82 718.104Z" fill="#1D2644"/>
<path d="M78.2567 645.815C81.5311 645.823 84.1901 643.881 84.1958 641.478C84.2016 639.075 81.5518 637.12 78.2775 637.112C75.0031 637.104 72.3441 639.046 72.3384 641.45C72.3326 643.853 74.9824 645.807 78.2567 645.815Z" fill="#F6A1AA"/>
<path d="M103.604 557.302C103.732 565.466 94.8225 572.169 83.6997 572.251L75.8109 572.322L78.62 740L40.6361 744.369L53.3938 572.502L43.4715 572.586C32.3487 572.668 23.2017 566.119 23.0742 557.955C22.9467 549.791 31.8559 543.088 42.9786 543.007L46.2616 542.978C48.2833 537.607 54.9321 533.595 62.8945 533.542C70.8568 533.489 77.7317 537.372 79.9239 542.717L83.2068 542.689C94.3296 542.608 103.477 549.157 103.604 557.32L103.604 557.302Z" fill="#1D2644"/>
<path d="M63.1445 551.938C67.3524 551.948 70.7696 549.452 70.777 546.364C70.7844 543.275 67.3791 540.764 63.1712 540.754C58.9632 540.743 55.546 543.239 55.5387 546.327C55.5313 549.416 58.9365 551.928 63.1445 551.938Z" fill="#F16F97"/>
<path d="M63.2938 571.537L66.5277 571.545L64.7617 705.84C64.7295 709.058 62.7388 711.661 60.3625 711.637C57.8881 711.631 55.935 708.785 56.1144 705.459L63.2938 571.555L63.2938 571.537Z" fill="#FBDB8F"/>
<path d="M117.145 662.99C120.419 662.998 123.078 661.056 123.084 658.653C123.09 656.249 120.44 654.295 117.166 654.287C113.891 654.279 111.232 656.221 111.226 658.624C111.221 661.028 113.87 662.982 117.145 662.99Z" fill="#FBDB8F"/>
<path d="M19.2678 633.592C22.5421 633.6 25.2012 631.658 25.2069 629.255C25.2126 626.851 22.5629 624.897 19.2885 624.889C16.0142 624.881 13.3552 626.823 13.3494 629.226C13.3437 631.63 15.9934 633.584 19.2678 633.592Z" fill="#FBDB8F"/>
<path d="M150.202 690.436C153.476 690.443 156.135 688.502 156.141 686.098C156.147 683.695 153.497 681.741 150.223 681.733C146.948 681.725 144.289 683.667 144.284 686.07C144.278 688.473 146.928 690.428 150.202 690.436Z" fill="#F6A1AA"/>
<path d="M189.013 719.334C192.287 719.342 194.946 717.4 194.952 714.997C194.958 712.594 192.308 710.639 189.034 710.631C185.759 710.624 183.1 712.565 183.094 714.969C183.089 717.372 185.738 719.326 189.013 719.334Z" fill="#FBDB8F"/>
<path d="M239.538 716.092C242.812 716.1 245.471 714.158 245.477 711.755C245.483 709.352 242.833 707.397 239.559 707.39C236.284 707.382 233.625 709.324 233.619 711.727C233.614 714.13 236.263 716.085 239.538 716.092Z" fill="#F6A1AA"/>
<path d="M289.154 703.427C292.429 703.435 295.088 701.493 295.093 699.09C295.099 696.686 292.449 694.732 289.175 694.724C285.901 694.716 283.242 696.658 283.236 699.061C283.23 701.464 285.88 703.419 289.154 703.427Z" fill="#FBDB8F"/>
<path d="M342.942 698.304C346.216 698.312 348.875 696.37 348.881 693.967C348.886 691.564 346.237 689.609 342.962 689.602C339.688 689.594 337.029 691.536 337.023 693.939C337.018 696.342 339.667 698.296 342.942 698.304Z" fill="#F6A1AA"/>
<path d="M405.723 702.5C408.997 702.508 411.656 700.566 411.662 698.163C411.668 695.76 409.018 693.805 405.744 693.797C402.469 693.79 399.81 695.731 399.805 698.135C399.799 700.538 402.449 702.492 405.723 702.5Z" fill="#FBDB8F"/>
<path d="M461.574 725.882C464.848 725.89 467.507 723.948 467.513 721.545C467.519 719.142 464.869 717.187 461.594 717.179C458.32 717.171 455.661 719.113 455.655 721.516C455.65 723.92 458.299 725.874 461.574 725.882Z" fill="#F6A1AA"/>
<path d="M515.354 754.672C518.629 754.68 521.288 752.738 521.294 750.335C521.299 747.932 518.65 745.978 515.375 745.97C512.101 745.962 509.442 747.904 509.436 750.307C509.43 752.71 512.08 754.665 515.354 754.672Z" fill="#FBDB8F"/>
<path d="M559.437 771.266C562.711 771.273 565.37 769.332 565.376 766.929C565.382 764.525 562.732 762.571 559.458 762.563C556.183 762.555 553.524 764.497 553.519 766.9C553.513 769.303 556.163 771.258 559.437 771.266Z" fill="#F6A1AA"/>
<path d="M618.761 787.284C622.035 787.292 624.694 785.35 624.7 782.947C624.705 780.544 622.056 778.589 618.781 778.582C615.507 778.574 612.848 780.516 612.842 782.919C612.836 785.322 615.486 787.276 618.761 787.284Z" fill="#FBDB8F"/>
<path d="M618.186 760.834C626.71 760.854 633.633 755.799 633.648 749.543C633.663 743.286 626.765 738.198 618.24 738.178C609.716 738.158 602.794 743.213 602.779 749.469C602.764 755.725 609.662 760.813 618.186 760.834Z" fill="#FBDB8F"/>
<path d="M746.291 730.626C754.815 730.646 761.737 725.591 761.752 719.335C761.767 713.078 754.869 707.99 746.345 707.97C737.82 707.95 730.898 713.005 730.883 719.261C730.868 725.517 737.766 730.605 746.291 730.626Z" fill="#FBDB8F"/>
<path d="M962.425 759.66C970.949 759.68 977.872 754.625 977.887 748.369C977.902 742.113 971.004 737.024 962.479 737.004C953.955 736.984 947.033 742.039 947.018 748.295C947.003 754.551 953.901 759.64 962.425 759.66Z" fill="#FBDB8F"/>
<path d="M810.012 802.574C813.287 802.582 815.946 800.64 815.951 798.237C815.957 795.834 813.307 793.879 810.033 793.872C806.759 793.864 804.1 795.806 804.094 798.209C804.088 800.612 806.738 802.566 810.012 802.574Z" fill="#F6A1AA"/>
<path d="M618.203 753.857C621.478 753.865 624.137 751.923 624.143 749.52C624.148 747.117 621.499 745.162 618.224 745.154C614.95 745.146 612.291 747.088 612.285 749.492C612.279 751.895 614.929 753.849 618.203 753.857Z" fill="#1D2644"/>
<path d="M620.274 749.518L616.232 749.549L617.177 806.348L621.219 806.316L620.274 749.518Z" fill="#1D2644"/>
<path d="M746.329 725.124C749.603 725.131 752.262 723.19 752.268 720.786C752.273 718.383 749.624 716.429 746.349 716.421C743.075 716.413 740.416 718.355 740.41 720.758C740.404 723.161 743.054 725.116 746.329 725.124Z" fill="#1D2644"/>
<path d="M748.397 720.788L744.355 720.819L745.3 777.618L749.342 777.586L748.397 720.788Z" fill="#1D2644"/>
<path d="M365.555 539.548L358.402 539.604L362.752 801.067L369.905 801.01L365.555 539.548Z" fill="#1D2644"/>
<path d="M962.464 753.995C965.738 754.003 968.397 752.061 968.403 749.658C968.409 747.255 965.759 745.3 962.485 745.292C959.21 745.285 956.551 747.226 956.545 749.63C956.54 752.033 959.189 753.987 962.464 753.995Z" fill="#1D2644"/>
<path d="M964.537 749.652L960.495 749.684L961.44 806.482L965.482 806.451L964.537 749.652Z" fill="#1D2644"/>
<path d="M372.793 539.497L373.286 569.112C373.286 569.112 384.396 533.447 414.903 541.018C445.411 548.588 475.83 521.384 475.83 521.384C475.83 521.384 422.117 526.111 414.002 518.36C405.887 510.608 369.836 515.899 372.818 539.497L372.793 539.497Z" fill="#1D2644"/>
<path d="M160.8 612.64C164.088 612.647 166.758 610.698 166.763 608.284C166.769 605.871 164.108 603.909 160.821 603.901C157.533 603.893 154.863 605.843 154.857 608.256C154.851 610.669 157.512 612.632 160.8 612.64Z" fill="#FBDB8F"/>
<path d="M280.567 544.581C283.855 544.589 286.525 542.639 286.53 540.226C286.536 537.813 283.876 535.85 280.588 535.842C277.3 535.834 274.63 537.784 274.624 540.197C274.618 542.611 277.279 544.573 280.567 544.581Z" fill="#FBDB8F"/>
<path d="M114.554 114.863C117.842 114.871 120.512 112.921 120.518 110.508C120.524 108.095 117.863 106.132 114.575 106.125C111.287 106.117 108.617 108.067 108.611 110.48C108.606 112.893 111.266 114.855 114.554 114.863Z" fill="#FBDB8F"/>
<path d="M234.321 46.8036C237.609 46.8115 240.279 44.8617 240.285 42.4485C240.291 40.0354 237.63 38.0728 234.342 38.065C231.054 38.0571 228.384 40.007 228.379 42.4201C228.373 44.8332 231.033 46.7958 234.321 46.8036Z" fill="#CAD2E5" fill-opacity="0.3"/>
<path d="M849.446 724.327C852.734 724.334 855.404 722.385 855.41 719.971C855.416 717.558 852.755 715.596 849.467 715.588C846.179 715.58 843.509 717.53 843.504 719.943C843.498 722.356 846.159 724.319 849.446 724.327Z" fill="#FBDB8F"/>
<path d="M1442.41 818.802C1445.69 818.81 1448.36 816.86 1448.37 814.447C1448.38 812.034 1445.71 810.071 1442.43 810.064C1439.14 810.056 1436.47 812.006 1436.46 814.419C1436.46 816.832 1439.12 818.794 1442.41 818.802Z" fill="#FBDB8F"/>
<path d="M276.395 650.208C279.682 650.216 282.352 648.266 282.358 645.853C282.364 643.44 279.703 641.477 276.415 641.469C273.128 641.461 270.457 643.411 270.452 645.824C270.446 648.238 273.107 650.2 276.395 650.208Z" fill="#FBDB8F"/>
<path d="M1089.2 591.835L1100.19 601.508L1115.13 598.739L1108.46 611.282L1115.97 623.411L1100.86 621.464L1090.56 631.747L1087.89 618.021L1074 612.236L1087.47 605.676L1089.2 591.835Z" fill="#F16F97"/>
<path d="M479.023 631.362L475.89 640.237L484.105 647.18L471.634 647.743L465.172 655.603L460.586 647.051L448.391 644.973L458.033 639.134L456.952 629.997L467.5 634.931L479.023 631.362Z" fill="#F16F97"/>
<path d="M673.356 751.723C678.037 751.734 681.839 748.958 681.847 745.522C681.855 742.086 678.067 739.292 673.385 739.28C668.704 739.269 664.902 742.046 664.894 745.482C664.886 748.918 668.674 751.712 673.356 751.723Z" fill="#1D2644"/>
<path d="M480.772 452.349C484.047 452.356 486.706 450.415 486.712 448.011C486.717 445.608 484.068 443.654 480.793 443.646C477.519 443.638 474.86 445.58 474.854 447.983C474.848 450.386 477.498 452.341 480.772 452.349Z" fill="#CAD2E5"/>
<path d="M1144.61 735.406C1147.88 735.414 1150.54 733.472 1150.55 731.069C1150.55 728.665 1147.9 726.711 1144.63 726.703C1141.36 726.695 1138.7 728.637 1138.69 731.04C1138.69 733.443 1141.33 735.398 1144.61 735.406Z" fill="#CAD2E5"/>
<path d="M1323.08 801.577C1326.35 801.585 1329.01 799.643 1329.02 797.24C1329.02 794.837 1326.37 792.882 1323.1 792.875C1319.83 792.867 1317.17 794.809 1317.16 797.212C1317.15 799.615 1319.8 801.569 1323.08 801.577Z" fill="#CAD2E5"/>
<path d="M944.864 624.437C948.138 624.445 950.798 622.503 950.803 620.1C950.809 617.697 948.159 615.742 944.885 615.734C941.611 615.727 938.951 617.668 938.946 620.072C938.94 622.475 941.59 624.429 944.864 624.437Z" fill="#CAD2E5"/>
<path d="M926.307 444.494C929.581 444.502 932.24 442.56 932.246 440.157C932.252 437.754 929.602 435.799 926.328 435.791C923.053 435.784 920.394 437.726 920.389 440.129C920.383 442.532 923.033 444.486 926.307 444.494Z" fill="#CAD2E5"/>
<path d="M743.796 585.064C754.769 585.09 763.68 578.583 763.7 570.529C763.719 562.476 754.839 555.926 743.866 555.899C732.893 555.873 723.982 562.381 723.962 570.434C723.943 578.488 732.823 585.038 743.796 585.064Z" fill="#CAD2E5"/>
<defs>
<linearGradient id="paint0_linear_0_1" x1="711.999" y1="270.721" x2="707.593" y2="2116.47" gradientUnits="userSpaceOnUse">
<stop stop-color="#0D387C"/>
<stop offset="0.09" stop-color="#0D387C"/>
<stop offset="0.276042" stop-color="#10689A"/>
<stop offset="0.37" stop-color="#356A96"/>
<stop offset="0.38" stop-color="#396C97"/>
<stop offset="1" stop-color="#ECA1A6"/>
</linearGradient>
<linearGradient id="paint1_linear_0_1" x1="773.94" y1="972.863" x2="775.331" y2="787.504" gradientUnits="userSpaceOnUse">
<stop stop-color="#CAD2E5" stop-opacity="0.3"/>
<stop offset="1" stop-color="#233C79"/>
</linearGradient>
</defs>
</svg>
