<svg width="1101" height="495" viewBox="0 0 1101 495" fill="none" xmlns="http://www.w3.org/2000/svg">
<rect x="89" y="0.828613" width="925" height="361.088" fill="url(#paint0_linear_0_1)"/>
<path d="M90.5 190.669C90.5 190.669 106 307.117 308 307.117C493.801 307.117 544.182 204.369 544.182 204.369C544.182 204.369 654.689 312.988 792.407 312.988C906.238 312.988 1004.65 204.369 1004.65 204.369" stroke="black" stroke-width="2"/>
<ellipse cx="12.6278" cy="11.8231" rx="12.6278" ry="11.8231" transform="matrix(0.971523 -0.236944 0.242059 0.970261 85.8164 209.465)" fill="url(#paint1_radial_0_1)"/>
<ellipse cx="12.8965" cy="11.8231" rx="12.8965" ry="11.8231" transform="matrix(0.971523 -0.236944 0.242059 0.970261 101.785 241.03)" fill="url(#paint2_radial_0_1)"/>
<ellipse cx="12.6278" cy="11.8231" rx="12.6278" ry="11.8231" transform="matrix(0.971523 -0.236944 0.242059 0.970261 132.311 263.795)" fill="url(#paint3_radial_0_1)"/>
<ellipse cx="12.6278" cy="11.8231" rx="12.6278" ry="11.8231" transform="matrix(0.971523 -0.236944 0.242059 0.970261 162.842 279.774)" fill="url(#paint4_radial_0_1)"/>
<ellipse cx="13.1652" cy="11.8231" rx="13.1652" ry="11.8231" transform="matrix(0.971523 -0.236944 0.242059 0.970261 199.2 291.732)" fill="url(#paint5_radial_0_1)"/>
<ellipse cx="13.1652" cy="11.8231" rx="13.1652" ry="11.8231" transform="matrix(0.971523 -0.236944 0.242059 0.970261 237.016 299.286)" fill="url(#paint6_radial_0_1)"/>
<ellipse cx="12.8965" cy="11.8231" rx="12.8965" ry="11.8231" transform="matrix(0.971523 -0.236944 0.242059 0.970261 271.93 301.256)" fill="url(#paint7_radial_0_1)"/>
<ellipse cx="12.8965" cy="11.8231" rx="12.8965" ry="11.8231" transform="matrix(0.971523 -0.236944 0.242059 0.970261 306.844 300.581)" fill="url(#paint8_radial_0_1)"/>
<ellipse cx="12.8965" cy="11.8231" rx="12.8965" ry="11.8231" transform="matrix(0.971523 -0.236944 0.242059 0.970261 347.583 297.032)" fill="url(#paint9_radial_0_1)"/>
<ellipse cx="12.8965" cy="11.8231" rx="12.8965" ry="11.8231" transform="matrix(0.971523 -0.236944 0.242059 0.970261 388.324 290.723)" fill="url(#paint10_radial_0_1)"/>
<ellipse cx="12.8965" cy="11.8231" rx="12.8965" ry="11.8231" transform="matrix(0.971523 -0.236944 0.242059 0.970261 523.71 208.025)" fill="url(#paint11_radial_0_1)"/>
<ellipse cx="12.8965" cy="11.8231" rx="12.8965" ry="11.8231" transform="matrix(0.971523 -0.236944 0.242059 0.970261 497.496 233.384)" fill="url(#paint12_radial_0_1)"/>
<ellipse cx="12.8965" cy="11.8231" rx="12.8965" ry="11.8231" transform="matrix(0.971523 -0.236944 0.242059 0.970261 466.917 258.828)" fill="url(#paint13_radial_0_1)"/>
<ellipse cx="12.8965" cy="11.8231" rx="12.8965" ry="11.8231" transform="matrix(0.971523 -0.236944 0.242059 0.970261 429.073 277.509)" fill="url(#paint14_radial_0_1)"/>
<ellipse cx="12.709" cy="12.4593" rx="12.709" ry="12.4593" transform="matrix(0.971523 -0.236944 0.242059 0.970261 552 222.134)" fill="url(#paint15_radial_0_1)"/>
<ellipse cx="12.9794" cy="12.4593" rx="12.9794" ry="12.4593" transform="matrix(0.971523 -0.236944 0.242059 0.970261 580.611 240.822)" fill="url(#paint16_radial_0_1)"/>
<ellipse cx="12.709" cy="12.4593" rx="12.709" ry="12.4593" transform="matrix(0.971523 -0.236944 0.242059 0.970261 611.437 259.561)" fill="url(#paint17_radial_0_1)"/>
<ellipse cx="12.709" cy="12.4593" rx="12.709" ry="12.4593" transform="matrix(0.971523 -0.236944 0.242059 0.970261 643.729 275.526)" fill="url(#paint18_radial_0_1)"/>
<ellipse cx="13.2498" cy="12.4593" rx="13.2498" ry="12.4593" transform="matrix(0.971523 -0.236944 0.242059 0.970261 676.023 290.295)" fill="url(#paint19_radial_0_1)"/>
<ellipse cx="13.2498" cy="12.4593" rx="13.2498" ry="12.4593" transform="matrix(0.971523 -0.236944 0.242059 0.970261 708.316 301.906)" fill="url(#paint20_radial_0_1)"/>
<ellipse cx="12.9794" cy="12.4593" rx="12.9794" ry="12.4593" transform="matrix(0.971523 -0.236944 0.242059 0.970261 744.494 308.66)" fill="url(#paint21_radial_0_1)"/>
<ellipse cx="12.9794" cy="12.4593" rx="12.9794" ry="12.4593" transform="matrix(0.971523 -0.236944 0.242059 0.970261 779.723 308.332)" fill="url(#paint22_radial_0_1)"/>
<ellipse cx="12.9794" cy="12.4593" rx="12.9794" ry="12.4593" transform="matrix(0.971523 -0.236944 0.242059 0.970261 820.792 305.045)" fill="url(#paint23_radial_0_1)"/>
<ellipse cx="12.9794" cy="12.4593" rx="12.9794" ry="12.4593" transform="matrix(0.971523 -0.236944 0.242059 0.970261 859.508 293.07)" fill="url(#paint24_radial_0_1)"/>
<ellipse cx="12.9794" cy="12.4593" rx="12.9794" ry="12.4593" transform="matrix(0.971523 -0.236944 0.242059 0.970261 984.277 210.344)" fill="url(#paint25_radial_0_1)"/>
<ellipse cx="12.9794" cy="12.4593" rx="12.9794" ry="12.4593" transform="matrix(0.971523 -0.236944 0.242059 0.970261 953.452 233.565)" fill="url(#paint26_radial_0_1)"/>
<ellipse cx="12.9794" cy="12.4593" rx="12.9794" ry="12.4593" transform="matrix(0.971523 -0.236944 0.242059 0.970261 928.498 256.786)" fill="url(#paint27_radial_0_1)"/>
<ellipse cx="12.9794" cy="12.4593" rx="12.9794" ry="12.4593" transform="matrix(0.971523 -0.236944 0.242059 0.970261 896.205 275.654)" fill="url(#paint28_radial_0_1)"/>
<line y1="-5" x2="202.439" y2="-5" transform="matrix(-0.0967344 -0.99531 0.996614 -0.0822248 846.019 461.688)" stroke="#FCDC8F" stroke-width="10"/>
<line y1="-5" x2="220.097" y2="-5" transform="matrix(0.712292 -0.701884 0.724913 0.68884 753.235 443.744)" stroke="#FCDC8F" stroke-width="10"/>
<line y1="-5" x2="223.75" y2="-5" transform="matrix(0.999957 -0.00923169 0.00985914 0.999951 720.667 368.551)" stroke="#FCDC8F" stroke-width="10"/>
<line y1="-5" x2="221.313" y2="-5" transform="matrix(0.820984 0.570951 -0.596252 0.802797 741.691 304.339)" stroke="#FCDC8F" stroke-width="10"/>
<path fill-rule="evenodd" clip-rule="evenodd" d="M831.5 495C911.857 495 977 435.197 977 361.427C977 287.656 911.857 227.854 831.5 227.854C751.143 227.854 686 287.656 686 361.427C686 435.197 751.143 495 831.5 495ZM832.025 460.155C892.366 460.155 941.282 415.736 941.282 360.943C941.282 306.15 892.366 261.731 832.025 261.731C771.685 261.731 722.769 306.15 722.769 360.943C722.769 415.736 771.685 460.155 832.025 460.155Z" fill="#1D2644"/>
<g filter="url(#filter0_d_0_1)">
<path d="M87.5539 141.889C88.4465 141.16 89.5633 140.762 90.7154 140.762H1009.8C1010.96 140.762 1012.08 141.164 1012.97 141.899L1078.21 195.505C1081.84 198.485 1079.73 204.368 1075.04 204.368H25.0339C20.332 204.368 18.2298 198.468 21.8725 195.495L87.5539 141.889Z" fill="url(#paint29_linear_0_1)"/>
</g>
<defs>
<filter id="filter0_d_0_1" x="0.0239258" y="130.762" width="1100.02" height="103.606" filterUnits="userSpaceOnUse" color-interpolation-filters="sRGB">
<feFlood flood-opacity="0" result="BackgroundImageFix"/>
<feColorMatrix in="SourceAlpha" type="matrix" values="0 0 0 0 0 0 0 0 0 0 0 0 0 0 0 0 0 0 127 0" result="hardAlpha"/>
<feOffset dy="10"/>
<feGaussianBlur stdDeviation="10"/>
<feComposite in2="hardAlpha" operator="out"/>
<feColorMatrix type="matrix" values="0 0 0 0 0 0 0 0 0 0 0 0 0 0 0 0 0 0 0.1 0"/>
<feBlend mode="normal" in2="BackgroundImageFix" result="effect1_dropShadow_0_1"/>
<feBlend mode="normal" in="SourceGraphic" in2="effect1_dropShadow_0_1" result="shape"/>
</filter>
<linearGradient id="paint0_linear_0_1" x1="551.5" y1="0.828613" x2="551.979" y2="578.178" gradientUnits="userSpaceOnUse">
<stop offset="0.441305" stop-color="#FCDC8F"/>
<stop offset="1" stop-color="#0D387C"/>
</linearGradient>
<radialGradient id="paint1_radial_0_1" cx="0" cy="0" r="1" gradientUnits="userSpaceOnUse" gradientTransform="translate(12.6278 11.8231) rotate(90.8138) scale(14.4561 15.4988)">
<stop offset="0.182292" stop-color="#FFEFC8"/>
<stop offset="1" stop-color="#F99B57" stop-opacity="0.65"/>
</radialGradient>
<radialGradient id="paint2_radial_0_1" cx="0" cy="0" r="1" gradientUnits="userSpaceOnUse" gradientTransform="translate(12.8965 11.8231) rotate(90.8312) scale(14.4562 15.8285)">
<stop offset="0.182292" stop-color="#FFEFC8"/>
<stop offset="1" stop-color="#F99B57" stop-opacity="0.65"/>
</radialGradient>
<radialGradient id="paint3_radial_0_1" cx="0" cy="0" r="1" gradientUnits="userSpaceOnUse" gradientTransform="translate(12.6278 11.8231) rotate(90.8138) scale(14.4561 15.4988)">
<stop offset="0.182292" stop-color="#FFEFC8"/>
<stop offset="1" stop-color="#F99B57" stop-opacity="0.65"/>
</radialGradient>
<radialGradient id="paint4_radial_0_1" cx="0" cy="0" r="1" gradientUnits="userSpaceOnUse" gradientTransform="translate(12.6278 11.8231) rotate(90.8138) scale(14.4561 15.4988)">
<stop offset="0.182292" stop-color="#FFEFC8"/>
<stop offset="1" stop-color="#F99B57" stop-opacity="0.65"/>
</radialGradient>
<radialGradient id="paint5_radial_0_1" cx="0" cy="0" r="1" gradientUnits="userSpaceOnUse" gradientTransform="translate(13.1652 11.8231) rotate(90.8485) scale(14.4562 16.1582)">
<stop offset="0.182292" stop-color="#FFEFC8"/>
<stop offset="1" stop-color="#F99B57" stop-opacity="0.65"/>
</radialGradient>
<radialGradient id="paint6_radial_0_1" cx="0" cy="0" r="1" gradientUnits="userSpaceOnUse" gradientTransform="translate(13.1652 11.8231) rotate(90.8485) scale(14.4562 16.1582)">
<stop offset="0.182292" stop-color="#FFEFC8"/>
<stop offset="1" stop-color="#F99B57" stop-opacity="0.65"/>
</radialGradient>
<radialGradient id="paint7_radial_0_1" cx="0" cy="0" r="1" gradientUnits="userSpaceOnUse" gradientTransform="translate(12.8965 11.8231) rotate(90.8312) scale(14.4562 15.8285)">
<stop offset="0.182292" stop-color="#FFEFC8"/>
<stop offset="1" stop-color="#F99B57" stop-opacity="0.65"/>
</radialGradient>
<radialGradient id="paint8_radial_0_1" cx="0" cy="0" r="1" gradientUnits="userSpaceOnUse" gradientTransform="translate(12.8965 11.8231) rotate(90.8312) scale(14.4562 15.8285)">
<stop offset="0.182292" stop-color="#FFEFC8"/>
<stop offset="1" stop-color="#F99B57" stop-opacity="0.65"/>
</radialGradient>
<radialGradient id="paint9_radial_0_1" cx="0" cy="0" r="1" gradientUnits="userSpaceOnUse" gradientTransform="translate(12.8965 11.8231) rotate(90.8312) scale(14.4562 15.8285)">
<stop offset="0.182292" stop-color="#FFEFC8"/>
<stop offset="1" stop-color="#F99B57" stop-opacity="0.65"/>
</radialGradient>
<radialGradient id="paint10_radial_0_1" cx="0" cy="0" r="1" gradientUnits="userSpaceOnUse" gradientTransform="translate(12.8965 11.8231) rotate(90.8312) scale(14.4562 15.8285)">
<stop offset="0.182292" stop-color="#FFEFC8"/>
<stop offset="1" stop-color="#F99B57" stop-opacity="0.65"/>
</radialGradient>
<radialGradient id="paint11_radial_0_1" cx="0" cy="0" r="1" gradientUnits="userSpaceOnUse" gradientTransform="translate(12.8965 11.8231) rotate(90.8312) scale(14.4562 15.8285)">
<stop offset="0.182292" stop-color="#FFEFC8"/>
<stop offset="1" stop-color="#F99B57" stop-opacity="0.65"/>
</radialGradient>
<radialGradient id="paint12_radial_0_1" cx="0" cy="0" r="1" gradientUnits="userSpaceOnUse" gradientTransform="translate(12.8965 11.8231) rotate(90.8312) scale(14.4562 15.8285)">
<stop offset="0.182292" stop-color="#FFEFC8"/>
<stop offset="1" stop-color="#F99B57" stop-opacity="0.65"/>
</radialGradient>
<radialGradient id="paint13_radial_0_1" cx="0" cy="0" r="1" gradientUnits="userSpaceOnUse" gradientTransform="translate(12.8965 11.8231) rotate(90.8312) scale(14.4562 15.8285)">
<stop offset="0.182292" stop-color="#FFEFC8"/>
<stop offset="1" stop-color="#F99B57" stop-opacity="0.65"/>
</radialGradient>
<radialGradient id="paint14_radial_0_1" cx="0" cy="0" r="1" gradientUnits="userSpaceOnUse" gradientTransform="translate(12.8965 11.8231) rotate(90.8312) scale(14.4562 15.8285)">
<stop offset="0.182292" stop-color="#FFEFC8"/>
<stop offset="1" stop-color="#F99B57" stop-opacity="0.65"/>
</radialGradient>
<radialGradient id="paint15_radial_0_1" cx="0" cy="0" r="1" gradientUnits="userSpaceOnUse" gradientTransform="translate(12.709 12.4593) rotate(90.7773) scale(15.2339 15.5986)">
<stop offset="0.182292" stop-color="#FFEFC8"/>
<stop offset="1" stop-color="#F99B57" stop-opacity="0.65"/>
</radialGradient>
<radialGradient id="paint16_radial_0_1" cx="0" cy="0" r="1" gradientUnits="userSpaceOnUse" gradientTransform="translate(12.9794 12.4593) rotate(90.7938) scale(15.2339 15.9304)">
<stop offset="0.182292" stop-color="#FFEFC8"/>
<stop offset="1" stop-color="#F99B57" stop-opacity="0.65"/>
</radialGradient>
<radialGradient id="paint17_radial_0_1" cx="0" cy="0" r="1" gradientUnits="userSpaceOnUse" gradientTransform="translate(12.709 12.4593) rotate(90.7773) scale(15.2339 15.5986)">
<stop offset="0.182292" stop-color="#FFEFC8"/>
<stop offset="1" stop-color="#F99B57" stop-opacity="0.65"/>
</radialGradient>
<radialGradient id="paint18_radial_0_1" cx="0" cy="0" r="1" gradientUnits="userSpaceOnUse" gradientTransform="translate(12.709 12.4593) rotate(90.7773) scale(15.2339 15.5986)">
<stop offset="0.182292" stop-color="#FFEFC8"/>
<stop offset="1" stop-color="#F99B57" stop-opacity="0.65"/>
</radialGradient>
<radialGradient id="paint19_radial_0_1" cx="0" cy="0" r="1" gradientUnits="userSpaceOnUse" gradientTransform="translate(13.2498 12.4593) rotate(90.8103) scale(15.234 16.2622)">
<stop offset="0.182292" stop-color="#FFEFC8"/>
<stop offset="1" stop-color="#F99B57" stop-opacity="0.65"/>
</radialGradient>
<radialGradient id="paint20_radial_0_1" cx="0" cy="0" r="1" gradientUnits="userSpaceOnUse" gradientTransform="translate(13.2498 12.4593) rotate(90.8103) scale(15.234 16.2622)">
<stop offset="0.182292" stop-color="#FFEFC8"/>
<stop offset="1" stop-color="#F99B57" stop-opacity="0.65"/>
</radialGradient>
<radialGradient id="paint21_radial_0_1" cx="0" cy="0" r="1" gradientUnits="userSpaceOnUse" gradientTransform="translate(12.9794 12.4593) rotate(90.7938) scale(15.2339 15.9304)">
<stop offset="0.182292" stop-color="#FFEFC8"/>
<stop offset="1" stop-color="#F99B57" stop-opacity="0.65"/>
</radialGradient>
<radialGradient id="paint22_radial_0_1" cx="0" cy="0" r="1" gradientUnits="userSpaceOnUse" gradientTransform="translate(12.9794 12.4593) rotate(90.7938) scale(15.2339 15.9304)">
<stop offset="0.182292" stop-color="#FFEFC8"/>
<stop offset="1" stop-color="#F99B57" stop-opacity="0.65"/>
</radialGradient>
<radialGradient id="paint23_radial_0_1" cx="0" cy="0" r="1" gradientUnits="userSpaceOnUse" gradientTransform="translate(12.9794 12.4593) rotate(90.7938) scale(15.2339 15.9304)">
<stop offset="0.182292" stop-color="#FFEFC8"/>
<stop offset="1" stop-color="#F99B57" stop-opacity="0.65"/>
</radialGradient>
<radialGradient id="paint24_radial_0_1" cx="0" cy="0" r="1" gradientUnits="userSpaceOnUse" gradientTransform="translate(12.9794 12.4593) rotate(90.7938) scale(15.2339 15.9304)">
<stop offset="0.182292" stop-color="#FFEFC8"/>
<stop offset="1" stop-color="#F99B57" stop-opacity="0.65"/>
</radialGradient>
<radialGradient id="paint25_radial_0_1" cx="0" cy="0" r="1" gradientUnits="userSpaceOnUse" gradientTransform="translate(12.9794 12.4593) rotate(90.7938) scale(15.2339 15.9304)">
<stop offset="0.182292" stop-color="#FFEFC8"/>
<stop offset="1" stop-color="#F99B57" stop-opacity="0.65"/>
</radialGradient>
<radialGradient id="paint26_radial_0_1" cx="0" cy="0" r="1" gradientUnits="userSpaceOnUse" gradientTransform="translate(12.9794 12.4593) rotate(90.7938) scale(15.2339 15.9304)">
<stop offset="0.182292" stop-color="#FFEFC8"/>
<stop offset="1" stop-color="#F99B57" stop-opacity="0.65"/>
</radialGradient>
<radialGradient id="paint27_radial_0_1" cx="0" cy="0" r="1" gradientUnits="userSpaceOnUse" gradientTransform="translate(12.9794 12.4593) rotate(90.7938) scale(15.2339 15.9304)">
<stop offset="0.182292" stop-color="#FFEFC8"/>
<stop offset="1" stop-color="#F99B57" stop-opacity="0.65"/>
</radialGradient>
<radialGradient id="paint28_radial_0_1" cx="0" cy="0" r="1" gradientUnits="userSpaceOnUse" gradientTransform="translate(12.9794 12.4593) rotate(90.7938) scale(15.2339 15.9304)">
<stop offset="0.182292" stop-color="#FFEFC8"/>
<stop offset="1" stop-color="#F99B57" stop-opacity="0.65"/>
</radialGradient>
<linearGradient id="paint29_linear_0_1" x1="550" y1="-141.882" x2="550" y2="204.368" gradientUnits="userSpaceOnUse">
<stop stop-color="#0D387C"/>
<stop offset="1" stop-color="#FBDB8F"/>
</linearGradient>
</defs>
</svg>
