<svg width="1392" height="808" viewBox="0 0 1392 808" fill="none" xmlns="http://www.w3.org/2000/svg">
<g filter="url(#filter0_d_0_1)">
<path fill-rule="evenodd" clip-rule="evenodd" d="M16.146 213.561C31.4055 213.234 45.3735 207.886 55.2029 197.324C67.1032 184.536 70.5409 166.681 66.3857 148.596L1256.55 24.8298C1259.26 40.8814 1267.67 54.5341 1281.32 62.2838C1289.48 66.9168 1298.63 68.9403 1308.06 68.6359L1309.94 86.7836L1304.04 87.3978C1298.16 88.0085 1293.9 93.2642 1294.51 99.1368C1295.12 105.009 1300.38 109.275 1306.25 108.664L1312.16 108.05L1314.15 127.19L1306.15 128.021C1300.28 128.632 1296.01 133.888 1296.62 139.76C1297.23 145.633 1302.49 149.898 1308.36 149.288L1316.36 148.456L1318.46 168.659L1310.97 169.437C1305.4 170.017 1301.34 175.01 1301.92 180.589C1302.5 186.168 1307.5 190.22 1313.08 189.64L1320.56 188.862L1322.66 209.065L1313.62 210.005C1307.75 210.616 1303.48 215.872 1304.09 221.744C1304.7 227.617 1309.96 231.882 1315.83 231.271L1324.87 230.331L1326.86 249.471L1317.82 250.411C1311.95 251.022 1307.68 256.278 1308.29 262.15C1308.9 268.023 1314.16 272.288 1320.03 271.678L1329.07 270.737L1331.17 290.94L1322.65 291.827C1317.07 292.407 1313.02 297.4 1313.6 302.979C1314.18 308.558 1319.17 312.61 1324.75 312.03L1333.27 311.143L1335.38 331.346L1327.38 332.178C1321.51 332.789 1317.24 338.044 1317.85 343.917C1318.46 349.789 1323.72 354.055 1329.59 353.444L1337.59 352.613L1339.69 372.816L1331.69 373.647C1325.82 374.258 1321.55 379.514 1322.16 385.386C1322.78 391.259 1328.03 395.524 1333.9 394.914L1341.9 394.082L1343.34 407.905L1336.39 408.628C1330.51 409.239 1326.25 414.494 1326.86 420.367C1327.47 426.24 1332.72 430.505 1338.6 429.894L1345.55 429.172L1347.65 449.375L1338.08 450.37C1332.5 450.95 1328.45 455.943 1329.03 461.522C1329.61 467.101 1334.6 471.153 1340.18 470.573L1349.75 469.578L1351.37 485.121L1343.37 485.952C1337.5 486.563 1333.23 491.819 1333.84 497.691C1334.45 503.564 1339.71 507.829 1345.58 507.219L1353.58 506.387L1356.32 532.769C1336.23 533.398 1318.47 541.646 1308.72 556.899C1303.38 565.269 1301.06 574.784 1301.45 584.585L115.256 707.938C115.157 696.914 111.803 686.502 104.873 677.932C94.9654 665.678 79.5648 659.433 62.4848 659.167L61.1085 645.932L63.3568 645.698C69.2293 645.087 73.4949 639.831 72.8842 633.959C72.2735 628.086 67.0178 623.821 61.1453 624.432L58.897 624.665L57.2806 609.122L59.0159 608.942C64.5948 608.361 68.6471 603.369 68.0669 597.79C67.4868 592.211 62.4939 588.158 56.915 588.739L55.1797 588.919L53.0788 568.716L56.3717 568.374C62.2442 567.763 66.5098 562.507 65.8991 556.635C65.2884 550.762 60.0327 546.497 54.1602 547.107L50.8673 547.45L49.4298 533.627L51.678 533.393C57.5506 532.782 61.8161 527.526 61.2054 521.654C60.5947 515.781 55.3391 511.516 49.4665 512.126L47.2183 512.36L45.1174 492.157L47.3656 491.923C53.2382 491.313 57.5037 486.057 56.893 480.185C56.2823 474.312 51.0267 470.046 45.1541 470.657L42.9059 470.891L40.805 450.688L43.5849 450.399C49.1638 449.819 53.2161 444.826 52.6359 439.247C52.0558 433.668 47.0629 429.616 41.484 430.196L38.704 430.485L36.6031 410.282L37.8067 410.157C43.6793 409.546 47.9448 404.29 47.3341 398.418C46.7235 392.545 41.4678 388.28 35.5952 388.89L34.3916 389.016L32.4013 369.876L33.6049 369.751C39.4774 369.14 43.743 363.884 43.1323 358.012C42.5216 352.139 37.2659 347.874 31.3934 348.484L30.1898 348.61L28.0888 328.407L31.9134 328.009C37.4923 327.429 41.5446 322.436 40.9644 316.857C40.3843 311.278 35.3914 307.226 29.8125 307.806L25.9879 308.204L23.887 288.001L26.1352 287.767C32.0078 287.156 36.2733 281.9 35.6626 276.028C35.052 270.155 29.7963 265.89 23.9237 266.5L21.6755 266.734L19.6851 247.595L24.0228 247.143C29.8954 246.533 34.1609 241.277 33.5503 235.405C32.9396 229.532 27.6839 225.266 21.8113 225.877L17.4737 226.328L16.146 213.561Z" fill="#FFE198"/>
</g>
<g filter="url(#filter1_d_0_1)">
<path fill-rule="evenodd" clip-rule="evenodd" d="M24.3564 238.869C39.8388 239.248 54.2561 234.551 64.732 224.454C77.4151 212.23 81.767 194.551 78.4341 176.292L1290.76 107.678C1292.72 123.838 1300.58 137.866 1314.04 146.239C1322.09 151.245 1331.27 153.69 1340.83 153.821L1341.87 172.038L1335.69 172.388C1329.8 172.721 1325.29 177.77 1325.62 183.665C1325.96 189.56 1331 194.069 1336.9 193.735L1343.07 193.385L1344.16 212.598L1335.86 213.068C1329.96 213.402 1325.46 218.451 1325.79 224.346C1326.12 230.241 1331.17 234.749 1337.07 234.415L1345.37 233.945L1346.52 254.225L1338.74 254.665C1333.14 254.982 1328.86 259.779 1329.18 265.379C1329.5 270.979 1334.29 275.262 1339.89 274.945L1347.66 274.505L1348.81 294.785L1339.45 295.315C1333.55 295.649 1329.04 300.698 1329.38 306.593C1329.71 312.488 1334.76 316.996 1340.65 316.663L1350.02 316.133L1351.11 335.345L1341.74 335.875C1335.85 336.209 1331.34 341.258 1331.67 347.153C1332.01 353.048 1337.05 357.556 1342.95 357.223L1352.32 356.693L1353.46 376.973L1344.63 377.473C1339.03 377.79 1334.74 382.586 1335.06 388.187C1335.38 393.787 1340.18 398.07 1345.78 397.753L1354.61 397.253L1355.76 417.533L1347.46 418.002C1341.56 418.336 1337.05 423.385 1337.39 429.28C1337.72 435.175 1342.77 439.683 1348.67 439.35L1356.97 438.88L1358.12 459.16L1349.81 459.63C1343.92 459.963 1339.41 465.013 1339.74 470.908C1340.08 476.802 1345.13 481.311 1351.02 480.977L1359.32 480.507L1360.11 494.383L1352.87 494.793C1346.98 495.126 1342.47 500.176 1342.8 506.07C1343.13 511.965 1348.18 516.474 1354.08 516.14L1361.32 515.73L1362.46 536.01L1352.56 536.571C1346.96 536.888 1342.68 541.684 1343 547.285C1343.32 552.885 1348.11 557.168 1353.71 556.851L1363.61 556.29L1364.5 571.893L1356.19 572.363C1350.3 572.696 1345.79 577.746 1346.12 583.64C1346.46 589.535 1351.51 594.044 1357.4 593.71L1365.7 593.24L1367.2 619.722C1346.81 619.422 1328.4 626.841 1317.79 641.627C1311.96 649.742 1309.15 659.141 1309.07 668.95L100.79 737.335C101.226 726.318 98.3313 715.761 91.724 706.879C82.2774 694.179 66.9712 687.228 49.6725 686.173L48.9206 672.887L51.3682 672.748C57.2631 672.415 61.7714 667.366 61.4377 661.471C61.1041 655.576 56.0549 651.067 50.16 651.401L47.7124 651.54L46.8293 635.937L48.7465 635.829C54.3467 635.512 58.6296 630.715 58.3126 625.115C57.9956 619.515 53.1989 615.232 47.5987 615.549L45.6815 615.657L44.5337 595.377L48.0454 595.178C53.9403 594.845 58.4486 589.796 58.115 583.901C57.7813 578.006 52.7321 573.497 46.8372 573.831L43.3255 574.03L42.5402 560.154L44.9878 560.016C50.8827 559.682 55.391 554.633 55.0573 548.738C54.7237 542.843 49.6745 538.335 43.7796 538.668L41.332 538.807L40.1842 518.527L42.6318 518.388C48.5267 518.055 53.035 513.005 52.7013 507.11C52.3677 501.216 47.3185 496.707 41.4236 497.041L38.976 497.179L37.8282 476.899L40.8095 476.731C46.4097 476.414 50.6926 471.617 50.3756 466.017C50.0586 460.417 45.2619 456.134 39.6617 456.451L36.6804 456.619L35.5326 436.339L36.9161 436.261C42.811 435.928 47.3193 430.878 46.9857 424.983C46.6521 419.088 41.6028 414.58 35.7079 414.914L34.3244 414.992L33.2371 395.78L34.6205 395.701C40.5154 395.368 45.0237 390.318 44.6901 384.423C44.3565 378.529 39.3072 374.02 33.4123 374.354L32.0289 374.432L30.8811 354.152L34.9264 353.923C40.5266 353.606 44.8095 348.809 44.4925 343.209C44.1756 337.609 39.3788 333.326 33.7786 333.643L29.7333 333.872L28.5855 313.592L31.033 313.454C36.928 313.12 41.4363 308.071 41.1026 302.176C40.769 296.281 35.7198 291.773 29.8248 292.106L27.3773 292.245L26.2899 273.032L30.8658 272.773C36.7607 272.44 41.269 267.39 40.9354 261.496C40.6018 255.601 35.5525 251.092 29.6576 251.426L25.0817 251.685L24.3564 238.869Z" fill="#FFE198"/>
</g>
<g filter="url(#filter2_d_0_1)">
<path fill-rule="evenodd" clip-rule="evenodd" d="M20.9987 253.718C36.6 255.061 51.4164 250.907 62.5641 240.731C76.0605 228.413 81.4614 209.75 79.1411 190H1306.39C1307.45 207.42 1314.58 222.915 1327.68 232.694C1335.52 238.541 1344.64 241.714 1354.29 242.435V262H1348.69C1342.36 262 1337.23 267.132 1337.23 273.464C1337.23 279.795 1342.36 284.927 1348.69 284.927H1354.29V305.562H1346.54C1340.21 305.562 1335.08 310.695 1335.08 317.026C1335.08 323.357 1340.21 328.489 1346.54 328.489H1354.29V350.27H1347.04C1341.03 350.27 1336.15 355.146 1336.15 361.161C1336.15 367.176 1341.03 372.051 1347.04 372.051H1354.29V393.833H1345.46C1339.13 393.833 1334 398.965 1334 405.296C1334 411.627 1339.13 416.76 1345.46 416.76H1354.29V437.395H1345.46C1339.13 437.395 1334 442.527 1334 448.858C1334 455.19 1339.13 460.322 1345.46 460.322H1354.29V482.103H1345.97C1339.95 482.103 1335.08 486.979 1335.08 492.993C1335.08 499.008 1339.95 503.884 1345.97 503.884H1354.29V525.665H1346.54C1340.21 525.665 1335.08 530.798 1335.08 537.129C1335.08 543.46 1340.21 548.592 1346.54 548.592H1354.29V570.373H1346.54C1340.21 570.373 1335.08 575.506 1335.08 581.837C1335.08 588.168 1340.21 593.301 1346.54 593.301H1354.29V608.204H1347.62C1341.29 608.204 1336.15 613.336 1336.15 619.667C1336.15 625.999 1341.29 631.131 1347.62 631.131H1354.29V652.912H1344.89C1338.87 652.912 1334 657.788 1334 663.803C1334 669.817 1338.87 674.693 1344.89 674.693H1354.29V691.45H1346.54C1340.21 691.45 1335.08 696.583 1335.08 702.914C1335.08 709.245 1340.21 714.378 1346.54 714.378H1354.29V742.82C1333.73 741.263 1314.73 748.09 1303.17 763.277C1296.83 771.611 1293.45 781.503 1292.81 792H69.6581C70.7269 780.231 68.4093 768.754 62.2494 758.844C53.4423 744.676 38.3941 736.307 20.9987 734.129V719.86H22.8178C29.149 719.86 34.2815 714.727 34.2815 708.396C34.2815 702.065 29.149 696.932 22.8178 696.932H20.9987V680.175H22.3138C28.3284 680.175 33.2043 675.299 33.2043 669.285C33.2043 663.27 28.3284 658.394 22.3138 658.394H20.9987V636.613H23.895C30.2262 636.613 35.3587 631.481 35.3587 625.149C35.3587 618.818 30.2262 613.686 23.895 613.686H20.9987V598.783H22.8178C29.149 598.783 34.2815 593.65 34.2815 587.319C34.2815 580.988 29.149 575.855 22.8178 575.855H20.9987V554.074H22.8178C29.149 554.074 34.2815 548.942 34.2815 542.611C34.2815 536.28 29.149 531.147 22.8178 531.147H20.9987V509.366H23.391C29.4056 509.366 34.2815 504.49 34.2815 498.476C34.2815 492.461 29.4056 487.585 23.391 487.585H20.9987V465.804H21.7406C28.0718 465.804 33.2043 460.672 33.2043 454.34C33.2043 448.009 28.0718 442.877 21.7406 442.877H20.9987V422.242H21.7406C28.0718 422.242 33.2043 417.109 33.2043 410.778C33.2043 404.447 28.0718 399.315 21.7406 399.315H20.9987V377.534H24.4682C30.4828 377.534 35.3587 372.658 35.3587 366.643C35.3587 360.628 30.4828 355.753 24.4682 355.753H20.9987V333.971H22.8178C29.149 333.971 34.2815 328.839 34.2815 322.508C34.2815 316.177 29.149 311.044 22.8178 311.044H20.9987V290.409H24.9723C31.3035 290.409 36.436 285.277 36.436 278.946C36.436 272.615 31.3035 267.482 24.9723 267.482H20.9987V253.718Z" fill="#FFE198"/>
</g>
<defs>
<filter id="filter0_d_0_1" x="0.145996" y="0.829803" width="1380.18" height="723.108" filterUnits="userSpaceOnUse" color-interpolation-filters="sRGB">
<feFlood flood-opacity="0" result="BackgroundImageFix"/>
<feColorMatrix in="SourceAlpha" type="matrix" values="0 0 0 0 0 0 0 0 0 0 0 0 0 0 0 0 0 0 127 0" result="hardAlpha"/>
<feOffset dx="4" dy="-4"/>
<feGaussianBlur stdDeviation="10"/>
<feComposite in2="hardAlpha" operator="out"/>
<feColorMatrix type="matrix" values="0 0 0 0 0 0 0 0 0 0 0 0 0 0 0 0 0 0 0.3 0"/>
<feBlend mode="normal" in2="BackgroundImageFix" result="effect1_dropShadow_0_1"/>
<feBlend mode="normal" in="SourceGraphic" in2="effect1_dropShadow_0_1" result="shape"/>
</filter>
<filter id="filter1_d_0_1" x="8.35638" y="83.6776" width="1382.85" height="669.658" filterUnits="userSpaceOnUse" color-interpolation-filters="sRGB">
<feFlood flood-opacity="0" result="BackgroundImageFix"/>
<feColorMatrix in="SourceAlpha" type="matrix" values="0 0 0 0 0 0 0 0 0 0 0 0 0 0 0 0 0 0 127 0" result="hardAlpha"/>
<feOffset dx="4" dy="-4"/>
<feGaussianBlur stdDeviation="10"/>
<feComposite in2="hardAlpha" operator="out"/>
<feColorMatrix type="matrix" values="0 0 0 0 0 0 0 0 0 0 0 0 0 0 0 0 0 0 0.3 0"/>
<feBlend mode="normal" in2="BackgroundImageFix" result="effect1_dropShadow_0_1"/>
<feBlend mode="normal" in="SourceGraphic" in2="effect1_dropShadow_0_1" result="shape"/>
</filter>
<filter id="filter2_d_0_1" x="4.99866" y="166" width="1373.29" height="642" filterUnits="userSpaceOnUse" color-interpolation-filters="sRGB">
<feFlood flood-opacity="0" result="BackgroundImageFix"/>
<feColorMatrix in="SourceAlpha" type="matrix" values="0 0 0 0 0 0 0 0 0 0 0 0 0 0 0 0 0 0 127 0" result="hardAlpha"/>
<feOffset dx="4" dy="-4"/>
<feGaussianBlur stdDeviation="10"/>
<feComposite in2="hardAlpha" operator="out"/>
<feColorMatrix type="matrix" values="0 0 0 0 0 0 0 0 0 0 0 0 0 0 0 0 0 0 0.3 0"/>
<feBlend mode="normal" in2="BackgroundImageFix" result="effect1_dropShadow_0_1"/>
<feBlend mode="normal" in="SourceGraphic" in2="effect1_dropShadow_0_1" result="shape"/>
</filter>
</defs>
</svg>
