<svg width="604" height="862" viewBox="0 0 604 862" fill="none" xmlns="http://www.w3.org/2000/svg">
<rect x="263.311" y="239.317" width="20" height="624.194" transform="rotate(-4.3042 263.311 239.317)" fill="#C9D2E5"/>
<g opacity="0.95">
<path d="M90.1097 57.6192C51.4588 84.5917 44.1859 103.089 21.5652 144.785C8.82823 168.262 4.65253 200.485 3.19514 224.488L115.132 229.13C115.132 229.13 108.745 178.589 118.463 148.804C142.856 74.0397 248 10.3161 248 10.3161C217.444 12.8234 144.642 19.5636 90.1097 57.6192Z" fill="#B73C94"/>
<path d="M90.1097 57.6192C51.4588 84.5917 44.1859 103.089 21.5652 144.785C8.82823 168.262 4.65253 200.485 3.19514 224.488L115.132 229.13C115.132 229.13 108.745 178.589 118.463 148.804C142.856 74.0397 248 10.3161 248 10.3161C217.444 12.8234 144.642 19.5636 90.1097 57.6192Z" fill="url(#paint0_linear_0_1)" fill-opacity="0.2"/>
<path fill-rule="evenodd" clip-rule="evenodd" d="M355.982 207.754C356.154 207.71 356.323 207.702 356.489 207.728L355.982 207.754ZM233.137 220.45C233.24 220.43 233.348 220.422 233.461 220.426L233.137 220.45ZM115.132 229.13L3.19514 224.488C2.94575 228.595 2.53632 232.787 2.13539 236.893C0.556078 253.064 -0.891444 267.886 8.0933 270.853C39.003 281.06 77.8226 277.888 102.122 274.753C110.59 273.66 111.583 256.398 112.33 243.428C112.791 235.42 113.158 229.049 115.132 229.13Z" fill="#B73C94"/>
<path fill-rule="evenodd" clip-rule="evenodd" d="M355.982 207.754C356.154 207.71 356.323 207.702 356.489 207.728L355.982 207.754ZM233.137 220.45C233.24 220.43 233.348 220.422 233.461 220.426L233.137 220.45ZM115.132 229.13L3.19514 224.488C2.94575 228.595 2.53632 232.787 2.13539 236.893C0.556078 253.064 -0.891444 267.886 8.0933 270.853C39.003 281.06 77.8226 277.888 102.122 274.753C110.59 273.66 111.583 256.398 112.33 243.428C112.791 235.42 113.158 229.049 115.132 229.13Z" fill="url(#paint1_linear_0_1)" fill-opacity="0.2"/>
<path d="M233.461 220.426L355.982 207.754C355.982 207.754 344.308 156.043 331.215 125.055C310.644 76.3691 257.5 8.31609 257.5 8.31609C257.5 8.31609 223.01 82.9949 221.002 132.32C219.588 167.074 233.461 220.426 233.461 220.426Z" fill="#B73C94"/>
<path d="M233.461 220.426L355.982 207.754C355.982 207.754 344.308 156.043 331.215 125.055C310.644 76.3691 257.5 8.31609 257.5 8.31609C257.5 8.31609 223.01 82.9949 221.002 132.32C219.588 167.074 233.461 220.426 233.461 220.426Z" fill="url(#paint2_linear_0_1)" fill-opacity="0.2"/>
<path d="M355.982 207.754L233.461 220.426C236.389 220.548 238.178 228.89 240.235 238.486C243.021 251.479 246.301 266.772 253.57 267.073C280.137 268.175 313.573 262.574 343.374 257.582C345.465 257.232 347.538 256.885 349.589 256.543C355.678 255.529 354.892 240.634 354.203 227.559C353.671 217.467 353.196 208.459 355.982 207.754Z" fill="#B73C94"/>
<path d="M355.982 207.754L233.461 220.426C236.389 220.548 238.178 228.89 240.235 238.486C243.021 251.479 246.301 266.772 253.57 267.073C280.137 268.175 313.573 262.574 343.374 257.582C345.465 257.232 347.538 256.885 349.589 256.543C355.678 255.529 354.892 240.634 354.203 227.559C353.671 217.467 353.196 208.459 355.982 207.754Z" fill="url(#paint3_linear_0_1)" fill-opacity="0.2"/>
<path d="M118.463 148.804C108.745 178.589 115.132 229.13 115.132 229.13L233.137 220.45C233.24 220.43 233.348 220.422 233.461 220.426C233.461 220.426 219.588 167.074 221.002 132.32C223.01 82.9949 257.5 8.31609 257.5 8.31609L248 10.3161C248 10.3161 142.856 74.0397 118.463 148.804Z" fill="#B73C94"/>
<path d="M118.463 148.804C108.745 178.589 115.132 229.13 115.132 229.13L233.137 220.45C233.24 220.43 233.348 220.422 233.461 220.426C233.461 220.426 219.588 167.074 221.002 132.32C223.01 82.9949 257.5 8.31609 257.5 8.31609L248 10.3161C248 10.3161 142.856 74.0397 118.463 148.804Z" fill="url(#paint4_linear_0_1)" fill-opacity="0.2"/>
<path d="M129.099 275.872C171.381 275.258 204.31 274.769 222.889 270.805C231.979 268.865 231.508 251.11 231.14 237.22C230.903 228.274 230.708 220.931 233.137 220.45L115.132 229.13C117.169 229.215 117.881 236.518 118.741 245.327C120.063 258.873 121.731 275.979 129.099 275.872Z" fill="#B73C94"/>
<path d="M129.099 275.872C171.381 275.258 204.31 274.769 222.889 270.805C231.979 268.865 231.508 251.11 231.14 237.22C230.903 228.274 230.708 220.931 233.137 220.45L115.132 229.13C117.169 229.215 117.881 236.518 118.741 245.327C120.063 258.873 121.731 275.979 129.099 275.872Z" fill="url(#paint5_linear_0_1)" fill-opacity="0.2"/>
<path d="M331.215 125.055C344.308 156.043 355.982 207.754 355.982 207.754C356.154 207.71 356.323 207.702 356.489 207.728L483.429 201.203C483.429 201.203 465.297 148.466 445.376 119.729C398.554 52.1862 269.5 8.31609 269.5 8.31609C267.853 8.48014 265.664 8.39809 263.48 8.3162C261.302 8.23452 259.127 8.15301 257.5 8.31609C257.5 8.31609 310.644 76.3691 331.215 125.055Z" fill="#B73C94"/>
<path d="M331.215 125.055C344.308 156.043 355.982 207.754 355.982 207.754C356.154 207.71 356.323 207.702 356.489 207.728L483.429 201.203C483.429 201.203 465.297 148.466 445.376 119.729C398.554 52.1862 269.5 8.31609 269.5 8.31609C267.853 8.48014 265.664 8.39809 263.48 8.3162C261.302 8.23452 259.127 8.15301 257.5 8.31609C257.5 8.31609 310.644 76.3691 331.215 125.055Z" fill="url(#paint6_linear_0_1)" fill-opacity="0.2"/>
<path d="M380.208 254.31C411.911 255.625 443.299 253.424 471.585 247.091C477.077 245.861 478.292 231.847 479.352 219.621C480.171 210.178 480.897 201.801 483.429 201.203L356.489 207.728C358.802 208.083 360.613 214.934 362.819 223.278C366.361 236.677 370.921 253.925 380.208 254.31Z" fill="#B73C94"/>
<path d="M380.208 254.31C411.911 255.625 443.299 253.424 471.585 247.091C477.077 245.861 478.292 231.847 479.352 219.621C480.171 210.178 480.897 201.801 483.429 201.203L356.489 207.728C358.802 208.083 360.613 214.934 362.819 223.278C366.361 236.677 370.921 253.925 380.208 254.31Z" fill="url(#paint7_linear_0_1)" fill-opacity="0.2"/>
<path d="M483.429 201.203L593.966 168.526C593.966 168.526 546.001 122.952 511.247 99.3805C427.164 42.353 269.5 8.31609 269.5 8.31609C269.5 8.31609 398.554 52.1862 445.376 119.729C465.297 148.466 483.429 201.203 483.429 201.203Z" fill="#B73C94"/>
<path d="M483.429 201.203L593.966 168.526C593.966 168.526 546.001 122.952 511.247 99.3805C427.164 42.353 269.5 8.31609 269.5 8.31609C269.5 8.31609 398.554 52.1862 445.376 119.729C465.297 148.466 483.429 201.203 483.429 201.203Z" fill="url(#paint8_linear_0_1)" fill-opacity="0.2"/>
<path d="M597.258 217.761C605.95 211.866 602.963 192.025 593.966 168.526L483.429 201.203C485.197 200.786 486.31 204.614 487.882 210.022C491.478 222.392 497.478 243.033 519.222 240.079C524.286 239.391 528.887 238.79 533.103 238.24L533.117 238.238L533.121 238.237L533.14 238.235L533.145 238.234C565.511 234.009 575.158 232.749 597.258 217.761Z" fill="#B73C94"/>
<path d="M597.258 217.761C605.95 211.866 602.963 192.025 593.966 168.526L483.429 201.203C485.197 200.786 486.31 204.614 487.882 210.022C491.478 222.392 497.478 243.033 519.222 240.079C524.286 239.391 528.887 238.79 533.103 238.24L533.117 238.238L533.121 238.237L533.14 238.235L533.145 238.234C565.511 234.009 575.158 232.749 597.258 217.761Z" fill="url(#paint9_linear_0_1)" fill-opacity="0.2"/>
<path d="M568.056 117.124C541.622 74.6003 492.042 30.7665 419.267 13.8943C366.682 1.70303 317.241 3.56035 269.5 8.31609C269.5 8.31609 427.164 42.353 511.247 99.3805C546.001 122.952 593.966 168.526 593.966 168.526C587.642 152.008 578.349 133.682 568.056 117.124Z" fill="#B73C94"/>
<path d="M568.056 117.124C541.622 74.6003 492.042 30.7665 419.267 13.8943C366.682 1.70303 317.241 3.56035 269.5 8.31609C269.5 8.31609 427.164 42.353 511.247 99.3805C546.001 122.952 593.966 168.526 593.966 168.526C587.642 152.008 578.349 133.682 568.056 117.124Z" fill="url(#paint10_linear_0_1)" fill-opacity="0.2"/>
</g>
<g opacity="0.95">
<path d="M233.275 219.791L355.022 207.373C355.022 207.373 343.4 156.491 330.377 125.999C309.915 78.0894 257.077 11.1124 257.077 11.1124C257.077 11.1124 222.834 84.5725 220.859 133.101C219.468 167.294 233.275 219.791 233.275 219.791Z" fill="#FCDC8F"/>
<path d="M233.275 219.791L355.022 207.373C355.022 207.373 343.4 156.491 330.377 125.999C309.915 78.0894 257.077 11.1124 257.077 11.1124C257.077 11.1124 222.834 84.5725 220.859 133.101C219.468 167.294 233.275 219.791 233.275 219.791Z" fill="url(#paint11_linear_0_1)" fill-opacity="0.2"/>
</g>
<g opacity="0.95">
<path d="M356.263 207.078L232.921 219.947C235.869 220.07 237.668 228.519 239.737 238.239C242.538 251.399 245.835 266.889 253.153 267.193C279.896 268.302 313.557 262.62 343.558 257.556C345.663 257.201 347.749 256.848 349.814 256.502C355.944 255.473 355.157 240.385 354.467 227.14C353.934 216.918 353.458 207.794 356.263 207.078Z" fill="#FCDC8F"/>
<path d="M356.263 207.078L232.921 219.947C235.869 220.07 237.668 228.519 239.737 238.239C242.538 251.399 245.835 266.889 253.153 267.193C279.896 268.302 313.557 262.62 343.558 257.556C345.663 257.201 347.749 256.848 349.814 256.502C355.944 255.473 355.157 240.385 354.467 227.14C353.934 216.918 353.458 207.794 356.263 207.078Z" fill="url(#paint12_linear_0_1)" fill-opacity="0.2"/>
</g>
<g opacity="0.95">
<path d="M118.463 148.804C108.745 178.589 115.131 229.13 115.131 229.13L233.137 220.45C233.24 220.43 233.348 220.422 233.46 220.426C233.46 220.426 219.588 167.074 221.002 132.32C223.01 82.9949 257.5 8.31606 257.5 8.31606L248 10.3161C248 10.3161 142.856 74.0397 118.463 148.804Z" fill="#F99557"/>
<path d="M118.463 148.804C108.745 178.589 115.131 229.13 115.131 229.13L233.137 220.45C233.24 220.43 233.348 220.422 233.46 220.426C233.46 220.426 219.588 167.074 221.002 132.32C223.01 82.9949 257.5 8.31606 257.5 8.31606L248 10.3161C248 10.3161 142.856 74.0397 118.463 148.804Z" fill="url(#paint13_linear_0_1)" fill-opacity="0.2"/>
</g>
<g opacity="0.95">
<path d="M129.099 275.872C171.381 275.258 204.31 274.769 222.889 270.805C231.979 268.865 231.508 251.11 231.14 237.22C230.903 228.274 230.708 220.931 233.138 220.45L115.132 229.13C117.169 229.215 117.882 236.518 118.741 245.327C120.063 258.873 121.732 275.979 129.099 275.872Z" fill="#F99557"/>
<path d="M129.099 275.872C171.381 275.258 204.31 274.769 222.889 270.805C231.979 268.865 231.508 251.11 231.14 237.22C230.903 228.274 230.708 220.931 233.138 220.45L115.132 229.13C117.169 229.215 117.882 236.518 118.741 245.327C120.063 258.873 121.732 275.979 129.099 275.872Z" fill="url(#paint14_linear_0_1)" fill-opacity="0.2"/>
</g>
<path opacity="0.95" d="M329.613 124.745C342.858 155.674 354.68 207.282 354.68 207.282C354.853 207.239 355.024 207.231 355.192 207.257L483.446 200.812C483.446 200.812 451 147.816 430 118.316C375.052 41.1279 267.196 8.22054 267.196 8.22054C265.532 8.38339 263.321 8.30038 261.114 8.21753C258.913 8.1349 256.716 8.05243 255.072 8.21432C255.072 8.21432 308.803 76.1513 329.613 124.745Z" fill="#37DECD"/>
<g opacity="0.95">
<path d="M378.893 254.256C411.01 255.588 442.808 253.33 471.466 246.853C477.03 245.596 478.265 231.286 479.343 218.801C480.176 209.158 480.914 200.605 483.48 199.993L354.881 206.698C357.223 207.059 359.056 214.054 361.288 222.574C364.872 236.254 369.485 253.865 378.893 254.256Z" fill="#37DECD"/>
<path d="M378.893 254.256C411.01 255.588 442.808 253.33 471.466 246.853C477.03 245.596 478.265 231.286 479.343 218.801C480.176 209.158 480.914 200.605 483.48 199.993L354.881 206.698C357.223 207.059 359.056 214.054 361.288 222.574C364.872 236.254 369.485 253.865 378.893 254.256Z" fill="url(#paint15_linear_0_1)" fill-opacity="0.2"/>
</g>
<g opacity="0.95">
<path d="M483.43 201.203L593.966 168.526C593.966 168.526 546.002 122.952 511.247 99.3805C427.164 42.353 269.5 8.3161 269.5 8.3161C269.5 8.3161 377.678 49.7729 424.5 117.316C444.421 146.052 483.43 201.203 483.43 201.203Z" fill="#088BC1"/>
<path d="M483.43 201.203L593.966 168.526C593.966 168.526 546.002 122.952 511.247 99.3805C427.164 42.353 269.5 8.3161 269.5 8.3161C269.5 8.3161 377.678 49.7729 424.5 117.316C444.421 146.052 483.43 201.203 483.43 201.203Z" fill="url(#paint16_linear_0_1)" fill-opacity="0.2"/>
</g>
<g opacity="0.95">
<path d="M597.258 217.761C605.95 211.866 602.963 192.025 593.966 168.526L483.429 201.203C485.197 200.786 486.31 204.614 487.882 210.022C491.478 222.392 497.478 243.033 519.221 240.079C524.286 239.391 528.887 238.79 533.103 238.24L533.117 238.238L533.121 238.237L533.14 238.235L533.145 238.234C565.511 234.009 575.157 232.749 597.258 217.761Z" fill="#088BC1"/>
<path d="M597.258 217.761C605.95 211.866 602.963 192.025 593.966 168.526L483.429 201.203C485.197 200.786 486.31 204.614 487.882 210.022C491.478 222.392 497.478 243.033 519.221 240.079C524.286 239.391 528.887 238.79 533.103 238.24L533.117 238.238L533.121 238.237L533.14 238.235L533.145 238.234C565.511 234.009 575.157 232.749 597.258 217.761Z" fill="url(#paint17_linear_0_1)" fill-opacity="0.2"/>
</g>
<g opacity="0.95">
<path d="M568.056 117.124C541.623 74.6004 492.043 30.7665 419.267 13.8943C366.682 1.70307 317.241 3.56039 269.5 8.31613C269.5 8.31613 427.164 42.3531 511.247 99.3805C546.002 122.952 593.966 168.526 593.966 168.526C587.642 152.008 578.349 133.682 568.056 117.124Z" fill="#B73C94"/>
<path d="M568.056 117.124C541.623 74.6004 492.043 30.7665 419.267 13.8943C366.682 1.70307 317.241 3.56039 269.5 8.31613C269.5 8.31613 427.164 42.3531 511.247 99.3805C546.002 122.952 593.966 168.526 593.966 168.526C587.642 152.008 578.349 133.682 568.056 117.124Z" fill="url(#paint18_linear_0_1)" fill-opacity="0.2"/>
</g>
<g opacity="0.95">
<path d="M90.1101 57.6192C51.4591 84.5917 44.1863 103.089 21.5655 144.785C8.82857 168.262 4.65287 200.485 3.19548 224.488L115.132 229.13C115.132 229.13 108.746 178.589 118.464 148.804C142.857 74.0397 248 10.3161 248 10.3161C217.444 12.8234 144.643 19.5636 90.1101 57.6192Z" fill="#FE7098"/>
<path d="M90.1101 57.6192C51.4591 84.5917 44.1863 103.089 21.5655 144.785C8.82857 168.262 4.65287 200.485 3.19548 224.488L115.132 229.13C115.132 229.13 108.746 178.589 118.464 148.804C142.857 74.0397 248 10.3161 248 10.3161C217.444 12.8234 144.643 19.5636 90.1101 57.6192Z" fill="url(#paint19_linear_0_1)" fill-opacity="0.2"/>
</g>
<g opacity="0.95">
<path fill-rule="evenodd" clip-rule="evenodd" d="M355.983 207.754C356.155 207.71 356.324 207.702 356.49 207.728L355.983 207.754ZM233.138 220.45C233.241 220.43 233.349 220.422 233.461 220.427L233.138 220.45ZM115.132 229.13L3.19577 224.488C2.94637 228.595 2.53695 232.787 2.13602 236.893C0.556702 253.064 -0.89082 267.886 8.09392 270.853C39.0036 281.06 77.8233 277.888 102.122 274.753C110.59 273.66 111.584 256.398 112.331 243.428C112.792 235.42 113.159 229.049 115.132 229.13Z" fill="#FE7098"/>
<path fill-rule="evenodd" clip-rule="evenodd" d="M355.983 207.754C356.155 207.71 356.324 207.702 356.49 207.728L355.983 207.754ZM233.138 220.45C233.241 220.43 233.349 220.422 233.461 220.427L233.138 220.45ZM115.132 229.13L3.19577 224.488C2.94637 228.595 2.53695 232.787 2.13602 236.893C0.556702 253.064 -0.89082 267.886 8.09392 270.853C39.0036 281.06 77.8233 277.888 102.122 274.753C110.59 273.66 111.584 256.398 112.331 243.428C112.792 235.42 113.159 229.049 115.132 229.13Z" fill="url(#paint20_linear_0_1)" fill-opacity="0.2"/>
</g>
<rect x="178" y="389.533" width="207.168" height="92.4902" rx="20" transform="rotate(-3.51914 178 389.533)" fill="#0D387C"/>
<path d="M227.358 448.09C225.175 448.207 223.068 448.014 221.038 447.509C219.006 446.978 217.378 446.251 216.154 445.329L217.733 441.198C218.899 442.016 220.323 442.674 222.006 443.171C223.688 443.668 225.395 443.869 227.126 443.776C228.59 443.697 229.767 443.473 230.655 443.105C231.543 442.737 232.186 442.275 232.583 441.719C232.979 441.137 233.158 440.5 233.121 439.807C233.075 438.955 232.732 438.293 232.092 437.82C231.451 437.32 230.63 436.951 229.629 436.711C228.653 436.443 227.559 436.208 226.346 436.007C225.16 435.804 223.959 435.561 222.742 435.28C221.55 434.97 220.447 434.562 219.431 434.056C218.441 433.522 217.614 432.792 216.95 431.867C216.286 430.941 215.913 429.733 215.833 428.242C215.751 426.724 216.076 425.318 216.807 424.023C217.564 422.7 218.748 421.622 220.358 420.787C221.994 419.924 224.09 419.424 226.647 419.286C228.324 419.196 230 419.319 231.674 419.656C233.348 419.993 234.819 420.528 236.087 421.261L234.666 425.383C233.375 424.705 232.054 424.229 230.704 423.955C229.352 423.654 228.064 423.536 226.839 423.602C225.401 423.68 224.239 423.916 223.352 424.311C222.492 424.704 221.864 425.192 221.468 425.775C221.099 426.355 220.934 427.005 220.973 427.724C221.019 428.576 221.349 429.253 221.963 429.754C222.603 430.227 223.41 430.584 224.385 430.825C225.386 431.065 226.493 431.299 227.707 431.527C228.92 431.729 230.121 431.971 231.312 432.254C232.528 432.535 233.631 432.93 234.62 433.438C235.635 433.944 236.462 434.66 237.099 435.587C237.764 436.513 238.135 437.708 238.214 439.172C238.294 440.663 237.956 442.07 237.2 443.393C236.468 444.688 235.285 445.766 233.649 446.629C232.012 447.465 229.915 447.952 227.358 448.09ZM243.789 446.803L242.282 418.844L247.474 418.564L248.982 446.523L243.789 446.803ZM260.456 429.521L274.356 428.771L274.587 433.045L260.687 433.795L260.456 429.521ZM261.502 441.482L277.279 440.631L277.514 444.985L256.544 446.115L255.037 418.156L275.447 417.056L275.682 421.409L260.464 422.23L261.502 441.482ZM283.302 444.673L281.795 416.713L294.896 416.007C298.251 415.826 300.843 416.354 302.672 417.59C304.5 418.8 305.473 420.51 305.593 422.721C305.673 424.212 305.396 425.509 304.761 426.611C304.124 427.687 303.236 428.549 302.096 429.198C300.981 429.819 299.745 430.166 298.387 430.239L299.028 428.763C300.599 428.678 302.026 428.895 303.31 429.413C304.591 429.905 305.621 430.677 306.399 431.73C307.203 432.782 307.649 434.12 307.737 435.744C307.866 438.141 307.048 440.054 305.282 441.485C303.517 442.915 300.823 443.728 297.202 443.923L283.302 444.673ZM288.275 440.319L296.663 439.866C298.607 439.761 300.081 439.362 301.085 438.666C302.089 437.971 302.553 436.918 302.476 435.507C302.402 434.122 301.828 433.138 300.755 432.555C299.681 431.946 298.172 431.693 296.228 431.798L287.44 432.272L287.223 428.238L294.972 427.82C296.782 427.722 298.15 427.328 299.074 426.637C300.025 425.945 300.466 424.96 300.397 423.682C300.326 422.377 299.781 421.432 298.762 420.846C297.769 420.258 296.367 420.013 294.556 420.111L287.207 420.507L288.275 440.319ZM317.6 426.439L331.5 425.69L331.73 429.964L317.83 430.713L317.6 426.439ZM318.645 438.401L334.422 437.55L334.657 441.904L313.688 443.034L312.18 415.075L332.59 413.974L332.825 418.328L317.607 419.149L318.645 438.401ZM340.446 441.591L338.938 413.632L344.131 413.352L345.401 436.918L360.02 436.13L360.257 440.523L340.446 441.591Z" fill="white"/>
<rect x="207.075" y="529.542" width="174.522" height="89.5127" rx="20" transform="rotate(-2.00662 207.075 529.542)" fill="#0D387C"/>
<path d="M278.646 588.379C276.487 588.443 274.464 588.157 272.578 587.52C270.717 586.855 269.087 585.889 267.689 584.624C266.291 583.358 265.179 581.857 264.353 580.121C263.555 578.384 263.124 576.463 263.061 574.357C262.998 572.251 263.314 570.308 264.008 568.526C264.728 566.744 265.749 565.18 267.069 563.833C268.417 562.486 269.999 561.438 271.818 560.69C273.636 559.916 275.637 559.496 277.823 559.431C280.249 559.358 282.447 559.72 284.418 560.515C286.415 561.282 288.104 562.459 289.486 564.045L285.442 568.008C284.45 566.943 283.359 566.162 282.171 565.664C280.981 565.139 279.693 564.897 278.307 564.939C277.001 564.978 275.808 565.227 274.728 565.686C273.648 566.145 272.72 566.786 271.944 567.61C271.168 568.433 270.57 569.398 270.15 570.504C269.756 571.61 269.579 572.829 269.618 574.162C269.658 575.495 269.907 576.701 270.366 577.781C270.852 578.86 271.507 579.788 272.33 580.564C273.154 581.34 274.118 581.924 275.224 582.318C276.329 582.712 277.535 582.89 278.841 582.851C280.227 582.81 281.499 582.505 282.656 581.937C283.812 581.342 284.853 580.471 285.779 579.323L290.052 583.037C288.767 584.703 287.152 585.991 285.205 586.903C283.284 587.814 281.098 588.306 278.646 588.379ZM294.56 587.425L293.726 559.437L300.203 559.244L301.038 587.231L294.56 587.425ZM313.218 571.462L326.652 571.061L326.807 576.259L313.373 576.659L313.218 571.462ZM314.157 586.84L307.68 587.033L306.845 559.046L327.996 558.415L328.151 563.613L313.477 564.051L314.157 586.84Z" fill="#FBDB8F"/>
<defs>
<linearGradient id="paint0_linear_0_1" x1="310.265" y1="255.57" x2="302.326" y2="197.933" gradientUnits="userSpaceOnUse">
<stop/>
<stop offset="1" stop-opacity="0"/>
</linearGradient>
<linearGradient id="paint1_linear_0_1" x1="310.265" y1="255.57" x2="302.326" y2="197.933" gradientUnits="userSpaceOnUse">
<stop/>
<stop offset="1" stop-opacity="0"/>
</linearGradient>
<linearGradient id="paint2_linear_0_1" x1="310.265" y1="255.57" x2="302.326" y2="197.933" gradientUnits="userSpaceOnUse">
<stop/>
<stop offset="1" stop-opacity="0"/>
</linearGradient>
<linearGradient id="paint3_linear_0_1" x1="310.265" y1="255.57" x2="302.326" y2="197.933" gradientUnits="userSpaceOnUse">
<stop/>
<stop offset="1" stop-opacity="0"/>
</linearGradient>
<linearGradient id="paint4_linear_0_1" x1="310.265" y1="255.57" x2="302.326" y2="197.933" gradientUnits="userSpaceOnUse">
<stop/>
<stop offset="1" stop-opacity="0"/>
</linearGradient>
<linearGradient id="paint5_linear_0_1" x1="310.265" y1="255.57" x2="302.326" y2="197.933" gradientUnits="userSpaceOnUse">
<stop/>
<stop offset="1" stop-opacity="0"/>
</linearGradient>
<linearGradient id="paint6_linear_0_1" x1="310.265" y1="255.57" x2="302.326" y2="197.933" gradientUnits="userSpaceOnUse">
<stop/>
<stop offset="1" stop-opacity="0"/>
</linearGradient>
<linearGradient id="paint7_linear_0_1" x1="310.265" y1="255.57" x2="302.326" y2="197.933" gradientUnits="userSpaceOnUse">
<stop/>
<stop offset="1" stop-opacity="0"/>
</linearGradient>
<linearGradient id="paint8_linear_0_1" x1="310.265" y1="255.57" x2="302.326" y2="197.933" gradientUnits="userSpaceOnUse">
<stop/>
<stop offset="1" stop-opacity="0"/>
</linearGradient>
<linearGradient id="paint9_linear_0_1" x1="310.265" y1="255.57" x2="302.326" y2="197.933" gradientUnits="userSpaceOnUse">
<stop/>
<stop offset="1" stop-opacity="0"/>
</linearGradient>
<linearGradient id="paint10_linear_0_1" x1="310.265" y1="255.57" x2="302.326" y2="197.933" gradientUnits="userSpaceOnUse">
<stop/>
<stop offset="1" stop-opacity="0"/>
</linearGradient>
<linearGradient id="paint11_linear_0_1" x1="309.611" y1="254.4" x2="301.896" y2="197.662" gradientUnits="userSpaceOnUse">
<stop/>
<stop offset="1" stop-opacity="0"/>
</linearGradient>
<linearGradient id="paint12_linear_0_1" x1="310.228" y1="255.526" x2="302.125" y2="197.162" gradientUnits="userSpaceOnUse">
<stop/>
<stop offset="1" stop-opacity="0"/>
</linearGradient>
<linearGradient id="paint13_linear_0_1" x1="310.265" y1="255.57" x2="302.326" y2="197.933" gradientUnits="userSpaceOnUse">
<stop/>
<stop offset="1" stop-opacity="0"/>
</linearGradient>
<linearGradient id="paint14_linear_0_1" x1="310.265" y1="255.57" x2="302.326" y2="197.933" gradientUnits="userSpaceOnUse">
<stop/>
<stop offset="1" stop-opacity="0"/>
</linearGradient>
<linearGradient id="paint15_linear_0_1" x1="308.037" y1="255.566" x2="299.851" y2="196.737" gradientUnits="userSpaceOnUse">
<stop/>
<stop offset="1" stop-opacity="0"/>
</linearGradient>
<linearGradient id="paint16_linear_0_1" x1="310.265" y1="255.57" x2="302.326" y2="197.933" gradientUnits="userSpaceOnUse">
<stop/>
<stop offset="1" stop-opacity="0"/>
</linearGradient>
<linearGradient id="paint17_linear_0_1" x1="310.265" y1="255.57" x2="302.326" y2="197.933" gradientUnits="userSpaceOnUse">
<stop/>
<stop offset="1" stop-opacity="0"/>
</linearGradient>
<linearGradient id="paint18_linear_0_1" x1="310.265" y1="255.571" x2="302.326" y2="197.933" gradientUnits="userSpaceOnUse">
<stop/>
<stop offset="1" stop-opacity="0"/>
</linearGradient>
<linearGradient id="paint19_linear_0_1" x1="310.265" y1="255.57" x2="302.327" y2="197.933" gradientUnits="userSpaceOnUse">
<stop/>
<stop offset="1" stop-opacity="0"/>
</linearGradient>
<linearGradient id="paint20_linear_0_1" x1="310.265" y1="255.57" x2="302.327" y2="197.933" gradientUnits="userSpaceOnUse">
<stop/>
<stop offset="1" stop-opacity="0"/>
</linearGradient>
</defs>
</svg>
