<svg width="1440" height="900" viewBox="0 0 1440 900" fill="none" xmlns="http://www.w3.org/2000/svg">
<g clip-path="url(#clip0_202_1207)">
<rect width="1440" height="900" fill="white"/>
<rect width="1440" height="468" fill="#0D387C"/>
<circle cx="179.5" cy="172.5" r="118.5" fill="#FCDC8F"/>
<rect y="450" width="1471" height="494" fill="#10689A"/>
<path d="M145.26 473.285C172.435 462.756 122.45 453.375 94.0605 450L1150.78 450C1166 450 1218.5 464.891 1218.5 488.176C1218.5 505.893 1088 507.901 1088 527.12C1088 576.179 1304.63 632.23 1311.52 655.515C1318.42 678.8 1216.51 681.837 1248.02 698.035C1273.22 710.994 1344.51 728.745 1377 736H238.797H2C88.1529 702.422 211.789 676.042 211.789 627.36C211.789 606.643 109.814 595.784 55.6609 584.142C1.5077 572.499 161.998 556.301 185.136 543.14C208.275 529.979 51.7225 516.818 16.2768 506.694C-19.169 496.57 111.291 486.446 145.26 473.285Z" fill="url(#paint0_radial_202_1207)"/>
<rect x="-85" y="734" width="1604" height="193" fill="#0D387C"/>
<path d="M-27.5 453.5H333.5L217.5 425.5L132 409.5L86.7108 365.72C77.0041 356.337 65.4981 349.017 52.8861 344.2L-27.5 313.5V453.5Z" fill="#1D2644"/>
<path d="M1407.11 315.544L1505 273L1563 450.5H1158.5L1349.5 384.5L1350.68 380.293C1358.79 351.319 1379.52 327.538 1407.11 315.544Z" fill="#1D2644"/>
<path d="M1415.33 483.235C1454.97 471.147 1364.38 455.708 1316.5 450L1583 451L1570.49 657C1527.78 651.292 1433.45 637.861 1397.81 629.802C1353.27 619.729 1474.39 600.086 1506.42 592.531C1538.46 584.976 1392.81 555.259 1306.72 538.134C1220.64 521.01 1365.78 498.345 1415.33 483.235Z" fill="url(#paint1_radial_202_1207)"/>
<path d="M8 797L94.5797 734H111L8 797Z" fill="#1D2644"/>
<path d="M1424 782L1336 734H1349L1424 782Z" fill="#1D2644"/>
<path d="M1300.62 137.923L1298.22 151.518L1310.41 158.001L1296.74 159.919L1294.34 173.513L1288.29 161.105L1274.62 163.023L1284.55 153.436L1278.5 141.027L1290.69 147.511L1300.62 137.923Z" fill="#C9D2E5"/>
<path d="M758.87 20.3789L764.129 23.9185L769.121 20.0105L767.38 26.106L772.639 29.6456L766.304 29.8733L764.563 35.9689L762.388 30.014L756.053 30.2417L761.044 26.3338L758.87 20.3789Z" fill="#FCDC8F"/>
<path d="M1278.7 376.167L1282.76 383.154L1290.65 381.458L1285.26 387.473L1289.32 394.46L1281.93 391.19L1276.54 397.205L1277.36 389.169L1269.98 385.899L1277.88 384.203L1278.7 376.167Z" fill="#FCDC8F"/>
<circle cx="1376.5" cy="63.5" r="7.5" fill="#FCDC8F"/>
<circle cx="437" cy="72" r="12" fill="#C9D2E5"/>
<circle cx="43" cy="35" r="4" fill="#C9D2E5"/>
<circle cx="82" cy="307" r="6" fill="#C9D2E5"/>
</g>
<defs>
<radialGradient id="paint0_radial_202_1207" cx="0" cy="0" r="1" gradientUnits="userSpaceOnUse" gradientTransform="translate(333 449.738) rotate(91.0624) scale(350.554 1620.83)">
<stop stop-color="#FCDC8F"/>
<stop offset="0.927083" stop-color="#FCDC8F" stop-opacity="0"/>
</radialGradient>
<radialGradient id="paint1_radial_202_1207" cx="0" cy="0" r="1" gradientUnits="userSpaceOnUse" gradientTransform="translate(1471.89 412.218) rotate(99.3692) scale(248.092 365.035)">
<stop stop-color="#0D387C"/>
<stop offset="1" stop-color="#0D387C" stop-opacity="0"/>
</radialGradient>
<clipPath id="clip0_202_1207">
<rect width="1440" height="900" fill="white"/>
</clipPath>
</defs>
</svg>
