<svg width="1360" height="854" viewBox="0 0 1360 854" fill="none" xmlns="http://www.w3.org/2000/svg">
<path d="M145 50C145 22.3858 167.386 0 195 0H1165C1192.61 0 1215 22.3858 1215 50V640H145V50Z" fill="#FEA3AA"/>
<path d="M0 737H1360V780C1360 782.761 1357.76 785 1355 785H5C2.23858 785 0 782.761 0 780V737Z" fill="#FEA3AA"/>
<rect x="23" y="785" width="1314" height="69" fill="#FE7098"/>
<path d="M145 640H1215L1360 737H0L145 640Z" fill="#FCDC8F"/>
<path d="M183 69C183 52.4315 196.431 39 213 39H1147C1163.57 39 1177 52.4315 1177 69V601H183V69Z" fill="#1D2644"/>
<circle cx="540" cy="20" r="9" transform="rotate(-90 540 20)" fill="#C9D2E5"/>
<circle cx="540" cy="20" r="5.82353" transform="rotate(-90 540 20)" fill="white" fill-opacity="0.5"/>
<circle cx="586.588" cy="20" r="9" transform="rotate(-90 586.588 20)" fill="#FCDC8F"/>
<circle cx="586.588" cy="20" r="5.82353" transform="rotate(-90 586.588 20)" fill="white" fill-opacity="0.5"/>
<circle cx="633.177" cy="20" r="9" transform="rotate(-90 633.177 20)" fill="#C9D2E5"/>
<circle cx="633.177" cy="20" r="5.82353" transform="rotate(-90 633.177 20)" fill="white" fill-opacity="0.5"/>
<circle cx="679.765" cy="20" r="9" transform="rotate(-90 679.765 20)" fill="#FCDC8F"/>
<circle cx="679.765" cy="20" r="5.82353" transform="rotate(-90 679.765 20)" fill="white" fill-opacity="0.5"/>
<circle cx="726.353" cy="20" r="9" transform="rotate(-90 726.353 20)" fill="#C9D2E5"/>
<circle cx="726.353" cy="20" r="5.82353" transform="rotate(-90 726.353 20)" fill="white" fill-opacity="0.5"/>
<circle cx="772.941" cy="20" r="9" transform="rotate(-90 772.941 20)" fill="#FCDC8F"/>
<circle cx="772.941" cy="20" r="5.82353" transform="rotate(-90 772.941 20)" fill="white" fill-opacity="0.5"/>
<circle cx="819.529" cy="20" r="9" transform="rotate(-90 819.529 20)" fill="#C9D2E5"/>
<circle cx="819.53" cy="20" r="5.82353" transform="rotate(-90 819.53 20)" fill="white" fill-opacity="0.5"/>
<ellipse cx="301.5" cy="678.5" rx="47.5" ry="14.5" fill="#0D387C"/>
<ellipse cx="552.5" cy="678.5" rx="47.5" ry="14.5" fill="#0D387C"/>
<ellipse cx="803.5" cy="678.5" rx="47.5" ry="14.5" fill="#0D387C"/>
<ellipse cx="1054.5" cy="678.5" rx="47.5" ry="14.5" fill="#0D387C"/>
<path d="M248.492 721V709.8H253.34C254.343 709.8 255.207 709.965 255.932 710.296C256.657 710.616 257.217 711.08 257.612 711.688C258.007 712.296 258.204 713.021 258.204 713.864C258.204 714.696 258.007 715.416 257.612 716.024C257.217 716.632 256.657 717.101 255.932 717.432C255.207 717.752 254.343 717.912 253.34 717.912H249.932L251.084 716.744V721H248.492ZM251.084 717.032L249.932 715.8H253.196C253.996 715.8 254.593 715.629 254.988 715.288C255.383 714.947 255.58 714.472 255.58 713.864C255.58 713.245 255.383 712.765 254.988 712.424C254.593 712.083 253.996 711.912 253.196 711.912H249.932L251.084 710.68V717.032ZM264.135 721.128C263.154 721.128 262.29 720.936 261.543 720.552C260.807 720.168 260.236 719.645 259.831 718.984C259.426 718.312 259.223 717.549 259.223 716.696C259.223 715.832 259.42 715.069 259.815 714.408C260.22 713.736 260.77 713.213 261.463 712.84C262.156 712.456 262.94 712.264 263.815 712.264C264.658 712.264 265.415 712.445 266.087 712.808C266.77 713.16 267.308 713.672 267.703 714.344C268.098 715.005 268.295 715.8 268.295 716.728C268.295 716.824 268.29 716.936 268.279 717.064C268.268 717.181 268.258 717.293 268.247 717.4H261.255V715.944H266.935L265.975 716.376C265.975 715.928 265.884 715.539 265.703 715.208C265.522 714.877 265.271 714.621 264.951 714.44C264.631 714.248 264.258 714.152 263.831 714.152C263.404 714.152 263.026 714.248 262.695 714.44C262.375 714.621 262.124 714.883 261.943 715.224C261.762 715.555 261.671 715.949 261.671 716.408V716.792C261.671 717.261 261.772 717.677 261.975 718.04C262.188 718.392 262.482 718.664 262.855 718.856C263.239 719.037 263.687 719.128 264.199 719.128C264.658 719.128 265.058 719.059 265.399 718.92C265.751 718.781 266.071 718.573 266.359 718.296L267.687 719.736C267.292 720.184 266.796 720.531 266.199 720.776C265.602 721.011 264.914 721.128 264.135 721.128ZM269.957 721V712.392H272.341V714.824L272.005 714.12C272.261 713.512 272.671 713.053 273.237 712.744C273.802 712.424 274.49 712.264 275.301 712.264V714.568C275.194 714.557 275.098 714.552 275.013 714.552C274.927 714.541 274.837 714.536 274.741 714.536C274.058 714.536 273.503 714.733 273.077 715.128C272.661 715.512 272.453 716.115 272.453 716.936V721H269.957ZM279.743 721.128C279.007 721.128 278.298 721.043 277.615 720.872C276.943 720.691 276.41 720.467 276.015 720.2L276.847 718.408C277.242 718.653 277.706 718.856 278.239 719.016C278.783 719.165 279.317 719.24 279.839 719.24C280.415 719.24 280.821 719.171 281.055 719.032C281.301 718.893 281.423 718.701 281.423 718.456C281.423 718.253 281.327 718.104 281.135 718.008C280.954 717.901 280.709 717.821 280.399 717.768C280.09 717.715 279.749 717.661 279.375 717.608C279.013 717.555 278.645 717.485 278.271 717.4C277.898 717.304 277.557 717.165 277.247 716.984C276.938 716.803 276.687 716.557 276.495 716.248C276.314 715.939 276.223 715.539 276.223 715.048C276.223 714.504 276.378 714.024 276.687 713.608C277.007 713.192 277.466 712.867 278.063 712.632C278.661 712.387 279.375 712.264 280.207 712.264C280.794 712.264 281.391 712.328 281.999 712.456C282.607 712.584 283.114 712.771 283.519 713.016L282.687 714.792C282.271 714.547 281.85 714.381 281.423 714.296C281.007 714.2 280.602 714.152 280.207 714.152C279.653 714.152 279.247 714.227 278.991 714.376C278.735 714.525 278.607 714.717 278.607 714.952C278.607 715.165 278.698 715.325 278.879 715.432C279.071 715.539 279.322 715.624 279.631 715.688C279.941 715.752 280.277 715.811 280.639 715.864C281.013 715.907 281.386 715.976 281.759 716.072C282.133 716.168 282.469 716.307 282.767 716.488C283.077 716.659 283.327 716.899 283.519 717.208C283.711 717.507 283.807 717.901 283.807 718.392C283.807 718.925 283.647 719.4 283.327 719.816C283.007 720.221 282.543 720.541 281.935 720.776C281.338 721.011 280.607 721.128 279.743 721.128ZM289.443 721.128C288.526 721.128 287.71 720.936 286.995 720.552C286.291 720.168 285.731 719.645 285.315 718.984C284.91 718.312 284.707 717.549 284.707 716.696C284.707 715.832 284.91 715.069 285.315 714.408C285.731 713.736 286.291 713.213 286.995 712.84C287.71 712.456 288.526 712.264 289.443 712.264C290.35 712.264 291.161 712.456 291.875 712.84C292.59 713.213 293.15 713.731 293.555 714.392C293.961 715.053 294.163 715.821 294.163 716.696C294.163 717.549 293.961 718.312 293.555 718.984C293.15 719.645 292.59 720.168 291.875 720.552C291.161 720.936 290.35 721.128 289.443 721.128ZM289.443 719.08C289.859 719.08 290.233 718.984 290.563 718.792C290.894 718.6 291.155 718.328 291.347 717.976C291.539 717.613 291.635 717.187 291.635 716.696C291.635 716.195 291.539 715.768 291.347 715.416C291.155 715.064 290.894 714.792 290.563 714.6C290.233 714.408 289.859 714.312 289.443 714.312C289.027 714.312 288.654 714.408 288.323 714.6C287.993 714.792 287.726 715.064 287.523 715.416C287.331 715.768 287.235 716.195 287.235 716.696C287.235 717.187 287.331 717.613 287.523 717.976C287.726 718.328 287.993 718.6 288.323 718.792C288.654 718.984 289.027 719.08 289.443 719.08ZM301.064 712.264C301.746 712.264 302.354 712.403 302.888 712.68C303.432 712.947 303.858 713.363 304.168 713.928C304.477 714.483 304.632 715.197 304.632 716.072V721H302.136V716.456C302.136 715.763 301.981 715.251 301.672 714.92C301.373 714.589 300.946 714.424 300.392 714.424C299.997 714.424 299.64 714.509 299.32 714.68C299.01 714.84 298.765 715.091 298.584 715.432C298.413 715.773 298.328 716.211 298.328 716.744V721H295.832V712.392H298.216V714.776L297.768 714.056C298.077 713.48 298.52 713.037 299.096 712.728C299.672 712.419 300.328 712.264 301.064 712.264ZM312.174 721V719.32L312.014 718.952V715.944C312.014 715.411 311.849 714.995 311.518 714.696C311.198 714.397 310.702 714.248 310.03 714.248C309.572 714.248 309.118 714.323 308.67 714.472C308.233 714.611 307.86 714.803 307.55 715.048L306.654 713.304C307.124 712.973 307.689 712.717 308.35 712.536C309.012 712.355 309.684 712.264 310.366 712.264C311.678 712.264 312.697 712.573 313.422 713.192C314.148 713.811 314.51 714.776 314.51 716.088V721H312.174ZM309.55 721.128C308.878 721.128 308.302 721.016 307.822 720.792C307.342 720.557 306.974 720.243 306.718 719.848C306.462 719.453 306.334 719.011 306.334 718.52C306.334 718.008 306.457 717.56 306.702 717.176C306.958 716.792 307.358 716.493 307.902 716.28C308.446 716.056 309.156 715.944 310.03 715.944H312.318V717.4H310.302C309.716 717.4 309.31 717.496 309.086 717.688C308.873 717.88 308.766 718.12 308.766 718.408C308.766 718.728 308.889 718.984 309.134 719.176C309.39 719.357 309.737 719.448 310.174 719.448C310.59 719.448 310.964 719.352 311.294 719.16C311.625 718.957 311.865 718.664 312.014 718.28L312.398 719.432C312.217 719.987 311.886 720.408 311.406 720.696C310.926 720.984 310.308 721.128 309.55 721.128ZM316.769 721V709.128H319.265V721H316.769ZM326.289 721V709.8H328.881V721H326.289ZM336.595 712.264C337.278 712.264 337.886 712.403 338.419 712.68C338.963 712.947 339.39 713.363 339.699 713.928C340.008 714.483 340.163 715.197 340.163 716.072V721H337.667V716.456C337.667 715.763 337.512 715.251 337.203 714.92C336.904 714.589 336.478 714.424 335.923 714.424C335.528 714.424 335.171 714.509 334.851 714.68C334.542 714.84 334.296 715.091 334.115 715.432C333.944 715.773 333.859 716.211 333.859 716.744V721H331.363V712.392H333.747V714.776L333.299 714.056C333.608 713.48 334.051 713.037 334.627 712.728C335.203 712.419 335.859 712.264 336.595 712.264ZM342.729 721V712.2C342.729 711.229 343.017 710.456 343.593 709.88C344.169 709.293 344.991 709 346.057 709C346.42 709 346.767 709.037 347.097 709.112C347.439 709.187 347.727 709.304 347.961 709.464L347.305 711.272C347.167 711.176 347.012 711.101 346.841 711.048C346.671 710.995 346.489 710.968 346.297 710.968C345.935 710.968 345.652 711.075 345.449 711.288C345.257 711.491 345.161 711.8 345.161 712.216V713.016L345.225 714.088V721H342.729ZM341.401 714.504V712.584H347.369V714.504H341.401ZM352.6 721.128C351.682 721.128 350.866 720.936 350.152 720.552C349.448 720.168 348.888 719.645 348.472 718.984C348.066 718.312 347.864 717.549 347.864 716.696C347.864 715.832 348.066 715.069 348.472 714.408C348.888 713.736 349.448 713.213 350.152 712.84C350.866 712.456 351.682 712.264 352.6 712.264C353.506 712.264 354.317 712.456 355.032 712.84C355.746 713.213 356.306 713.731 356.712 714.392C357.117 715.053 357.32 715.821 357.32 716.696C357.32 717.549 357.117 718.312 356.712 718.984C356.306 719.645 355.746 720.168 355.032 720.552C354.317 720.936 353.506 721.128 352.6 721.128ZM352.6 719.08C353.016 719.08 353.389 718.984 353.72 718.792C354.05 718.6 354.312 718.328 354.504 717.976C354.696 717.613 354.792 717.187 354.792 716.696C354.792 716.195 354.696 715.768 354.504 715.416C354.312 715.064 354.05 714.792 353.72 714.6C353.389 714.408 353.016 714.312 352.6 714.312C352.184 714.312 351.81 714.408 351.48 714.6C351.149 714.792 350.882 715.064 350.68 715.416C350.488 715.768 350.392 716.195 350.392 716.696C350.392 717.187 350.488 717.613 350.68 717.976C350.882 718.328 351.149 718.6 351.48 718.792C351.81 718.984 352.184 719.08 352.6 719.08Z" fill="#10689A"/>
<path d="M514.822 714.456H520.39V716.168H514.822V714.456ZM514.982 719.256H521.302V721H512.902V709.8H521.078V711.544H514.982V719.256ZM526.967 721.112C526.146 721.112 525.404 720.931 524.743 720.568C524.092 720.195 523.58 719.683 523.207 719.032C522.834 718.381 522.647 717.613 522.647 716.728C522.647 715.843 522.834 715.075 523.207 714.424C523.58 713.773 524.092 713.267 524.743 712.904C525.404 712.541 526.146 712.36 526.967 712.36C527.682 712.36 528.322 712.52 528.887 712.84C529.452 713.149 529.9 713.624 530.231 714.264C530.562 714.904 530.727 715.725 530.727 716.728C530.727 717.72 530.567 718.541 530.247 719.192C529.927 719.832 529.484 720.312 528.919 720.632C528.354 720.952 527.703 721.112 526.967 721.112ZM527.207 719.4C527.687 719.4 528.114 719.293 528.487 719.08C528.871 718.867 529.175 718.557 529.399 718.152C529.634 717.747 529.751 717.272 529.751 716.728C529.751 716.173 529.634 715.699 529.399 715.304C529.175 714.899 528.871 714.589 528.487 714.376C528.114 714.163 527.687 714.056 527.207 714.056C526.727 714.056 526.295 714.163 525.911 714.376C525.538 714.589 525.234 714.899 524.999 715.304C524.775 715.699 524.663 716.173 524.663 716.728C524.663 717.272 524.775 717.747 524.999 718.152C525.234 718.557 525.538 718.867 525.911 719.08C526.295 719.293 526.727 719.4 527.207 719.4ZM529.799 721V718.984L529.879 716.712L529.719 714.44V709.128H531.703V721H529.799ZM537.951 721.112C537.226 721.112 536.586 720.979 536.031 720.712C535.477 720.435 535.045 720.019 534.735 719.464C534.426 718.899 534.271 718.189 534.271 717.336V712.456H536.271V717.064C536.271 717.832 536.442 718.408 536.783 718.792C537.135 719.165 537.631 719.352 538.271 719.352C538.741 719.352 539.146 719.256 539.487 719.064C539.839 718.872 540.111 718.584 540.303 718.2C540.506 717.816 540.607 717.341 540.607 716.776V712.456H542.607V721H540.703V718.696L541.039 719.4C540.751 719.955 540.33 720.381 539.775 720.68C539.221 720.968 538.613 721.112 537.951 721.112ZM549.146 721.112C548.25 721.112 547.45 720.925 546.746 720.552C546.053 720.168 545.509 719.645 545.114 718.984C544.719 718.323 544.522 717.571 544.522 716.728C544.522 715.875 544.719 715.123 545.114 714.472C545.509 713.811 546.053 713.293 546.746 712.92C547.45 712.547 548.25 712.36 549.146 712.36C549.978 712.36 550.709 712.531 551.338 712.872C551.978 713.203 552.463 713.693 552.794 714.344L551.258 715.24C551.002 714.835 550.687 714.536 550.314 714.344C549.951 714.152 549.557 714.056 549.13 714.056C548.639 714.056 548.197 714.163 547.802 714.376C547.407 714.589 547.098 714.899 546.874 715.304C546.65 715.699 546.538 716.173 546.538 716.728C546.538 717.283 546.65 717.763 546.874 718.168C547.098 718.563 547.407 718.867 547.802 719.08C548.197 719.293 548.639 719.4 549.13 719.4C549.557 719.4 549.951 719.304 550.314 719.112C550.687 718.92 551.002 718.621 551.258 718.216L552.794 719.112C552.463 719.752 551.978 720.248 551.338 720.6C550.709 720.941 549.978 721.112 549.146 721.112ZM559.787 721V719.272L559.675 718.904V715.88C559.675 715.293 559.499 714.84 559.147 714.52C558.795 714.189 558.262 714.024 557.547 714.024C557.067 714.024 556.592 714.099 556.123 714.248C555.664 714.397 555.275 714.605 554.955 714.872L554.171 713.416C554.63 713.064 555.174 712.803 555.803 712.632C556.443 712.451 557.104 712.36 557.787 712.36C559.024 712.36 559.979 712.659 560.651 713.256C561.334 713.843 561.675 714.755 561.675 715.992V721H559.787ZM557.099 721.112C556.459 721.112 555.899 721.005 555.419 720.792C554.939 720.568 554.566 720.264 554.299 719.88C554.043 719.485 553.915 719.043 553.915 718.552C553.915 718.072 554.027 717.64 554.251 717.256C554.486 716.872 554.864 716.568 555.387 716.344C555.91 716.12 556.603 716.008 557.467 716.008H559.947V717.336H557.611C556.928 717.336 556.47 717.448 556.235 717.672C556 717.885 555.883 718.152 555.883 718.472C555.883 718.835 556.027 719.123 556.315 719.336C556.603 719.549 557.003 719.656 557.515 719.656C558.006 719.656 558.443 719.544 558.827 719.32C559.222 719.096 559.504 718.765 559.675 718.328L560.011 719.528C559.819 720.029 559.472 720.419 558.971 720.696C558.48 720.973 557.856 721.112 557.099 721.112ZM567.458 721.112C566.519 721.112 565.794 720.872 565.282 720.392C564.77 719.901 564.514 719.181 564.514 718.232V710.568H566.514V718.184C566.514 718.589 566.615 718.904 566.818 719.128C567.031 719.352 567.324 719.464 567.698 719.464C568.146 719.464 568.519 719.347 568.818 719.112L569.378 720.536C569.143 720.728 568.855 720.872 568.514 720.968C568.172 721.064 567.82 721.112 567.458 721.112ZM563.106 714.12V712.52H568.802V714.12H563.106ZM571.023 721V712.456H573.023V721H571.023ZM572.031 711.048C571.658 711.048 571.348 710.931 571.103 710.696C570.868 710.461 570.751 710.179 570.751 709.848C570.751 709.507 570.868 709.224 571.103 709C571.348 708.765 571.658 708.648 572.031 708.648C572.404 708.648 572.708 708.76 572.943 708.984C573.188 709.197 573.311 709.469 573.311 709.8C573.311 710.152 573.194 710.451 572.959 710.696C572.724 710.931 572.415 711.048 572.031 711.048ZM579.488 721.112C578.613 721.112 577.835 720.925 577.152 720.552C576.469 720.168 575.931 719.645 575.536 718.984C575.141 718.323 574.944 717.571 574.944 716.728C574.944 715.875 575.141 715.123 575.536 714.472C575.931 713.811 576.469 713.293 577.152 712.92C577.835 712.547 578.613 712.36 579.488 712.36C580.373 712.36 581.157 712.547 581.84 712.92C582.533 713.293 583.072 713.805 583.456 714.456C583.851 715.107 584.048 715.864 584.048 716.728C584.048 717.571 583.851 718.323 583.456 718.984C583.072 719.645 582.533 720.168 581.84 720.552C581.157 720.925 580.373 721.112 579.488 721.112ZM579.488 719.4C579.979 719.4 580.416 719.293 580.8 719.08C581.184 718.867 581.483 718.557 581.696 718.152C581.92 717.747 582.032 717.272 582.032 716.728C582.032 716.173 581.92 715.699 581.696 715.304C581.483 714.899 581.184 714.589 580.8 714.376C580.416 714.163 579.984 714.056 579.504 714.056C579.013 714.056 578.576 714.163 578.192 714.376C577.819 714.589 577.52 714.899 577.296 715.304C577.072 715.699 576.96 716.173 576.96 716.728C576.96 717.272 577.072 717.747 577.296 718.152C577.52 718.557 577.819 718.867 578.192 719.08C578.576 719.293 579.008 719.4 579.488 719.4ZM590.808 712.36C591.491 712.36 592.099 712.493 592.632 712.76C593.176 713.027 593.603 713.437 593.912 713.992C594.222 714.536 594.376 715.24 594.376 716.104V721H592.376V716.36C592.376 715.603 592.195 715.037 591.832 714.664C591.48 714.291 590.984 714.104 590.344 714.104C589.875 714.104 589.459 714.2 589.096 714.392C588.734 714.584 588.451 714.872 588.248 715.256C588.056 715.629 587.96 716.104 587.96 716.68V721H585.96V712.456H587.864V714.76L587.528 714.056C587.827 713.512 588.259 713.096 588.824 712.808C589.4 712.509 590.062 712.36 590.808 712.36Z" fill="#0D387C"/>
<path d="M741.965 721V709.8H746.573C747.565 709.8 748.413 709.96 749.117 710.28C749.832 710.6 750.381 711.059 750.765 711.656C751.149 712.253 751.341 712.963 751.341 713.784C751.341 714.605 751.149 715.315 750.765 715.912C750.381 716.509 749.832 716.968 749.117 717.288C748.413 717.608 747.565 717.768 746.573 717.768H743.117L744.045 716.792V721H741.965ZM744.045 717.016L743.117 716.008H746.477C747.394 716.008 748.082 715.816 748.541 715.432C749.01 715.037 749.245 714.488 749.245 713.784C749.245 713.069 749.01 712.52 748.541 712.136C748.082 711.752 747.394 711.56 746.477 711.56H743.117L744.045 710.536V717.016ZM753.148 721V712.456H755.052V714.808L754.828 714.12C755.084 713.544 755.484 713.107 756.028 712.808C756.583 712.509 757.271 712.36 758.092 712.36V714.264C758.007 714.243 757.927 714.232 757.852 714.232C757.777 714.221 757.703 714.216 757.628 714.216C756.871 714.216 756.268 714.44 755.82 714.888C755.372 715.325 755.148 715.981 755.148 716.856V721H753.148ZM759.789 721V712.456H761.789V721H759.789ZM760.797 711.048C760.423 711.048 760.114 710.931 759.869 710.696C759.634 710.461 759.517 710.179 759.517 709.848C759.517 709.507 759.634 709.224 759.869 709C760.114 708.765 760.423 708.648 760.797 708.648C761.17 708.648 761.474 708.76 761.709 708.984C761.954 709.197 762.077 709.469 762.077 709.8C762.077 710.152 761.959 710.451 761.725 710.696C761.49 710.931 761.181 711.048 760.797 711.048ZM768.254 721.112C767.379 721.112 766.6 720.925 765.918 720.552C765.235 720.168 764.696 719.645 764.302 718.984C763.907 718.323 763.71 717.571 763.71 716.728C763.71 715.875 763.907 715.123 764.302 714.472C764.696 713.811 765.235 713.293 765.918 712.92C766.6 712.547 767.379 712.36 768.254 712.36C769.139 712.36 769.923 712.547 770.606 712.92C771.299 713.293 771.838 713.805 772.222 714.456C772.616 715.107 772.814 715.864 772.814 716.728C772.814 717.571 772.616 718.323 772.222 718.984C771.838 719.645 771.299 720.168 770.606 720.552C769.923 720.925 769.139 721.112 768.254 721.112ZM768.254 719.4C768.744 719.4 769.182 719.293 769.566 719.08C769.95 718.867 770.248 718.557 770.462 718.152C770.686 717.747 770.798 717.272 770.798 716.728C770.798 716.173 770.686 715.699 770.462 715.304C770.248 714.899 769.95 714.589 769.566 714.376C769.182 714.163 768.75 714.056 768.27 714.056C767.779 714.056 767.342 714.163 766.958 714.376C766.584 714.589 766.286 714.899 766.062 715.304C765.838 715.699 765.726 716.173 765.726 716.728C765.726 717.272 765.838 717.747 766.062 718.152C766.286 718.557 766.584 718.867 766.958 719.08C767.342 719.293 767.774 719.4 768.254 719.4ZM774.726 721V712.456H776.63V714.808L776.406 714.12C776.662 713.544 777.062 713.107 777.606 712.808C778.161 712.509 778.849 712.36 779.67 712.36V714.264C779.585 714.243 779.505 714.232 779.43 714.232C779.355 714.221 779.281 714.216 779.206 714.216C778.449 714.216 777.846 714.44 777.398 714.888C776.95 715.325 776.726 715.981 776.726 716.856V721H774.726ZM787.979 714.456H793.547V716.168H787.979V714.456ZM788.139 719.256H794.459V721H786.059V709.8H794.235V711.544H788.139V719.256ZM795.277 721L799.037 716.104L799.005 717.176L795.421 712.456H797.645L800.157 715.816H799.309L801.837 712.456H803.997L800.381 717.176L800.397 716.104L804.141 721H801.885L799.245 717.432L800.077 717.544L797.485 721H795.277ZM810.353 721.112C809.659 721.112 809.025 720.952 808.449 720.632C807.883 720.312 807.43 719.832 807.089 719.192C806.758 718.541 806.593 717.72 806.593 716.728C806.593 715.725 806.753 714.904 807.073 714.264C807.403 713.624 807.851 713.149 808.417 712.84C808.982 712.52 809.627 712.36 810.353 712.36C811.195 712.36 811.937 712.541 812.577 712.904C813.227 713.267 813.739 713.773 814.113 714.424C814.497 715.075 814.689 715.843 814.689 716.728C814.689 717.613 814.497 718.387 814.113 719.048C813.739 719.699 813.227 720.205 812.577 720.568C811.937 720.931 811.195 721.112 810.353 721.112ZM805.617 724.104V712.456H807.521V714.472L807.457 716.744L807.617 719.016V724.104H805.617ZM810.129 719.4C810.609 719.4 811.035 719.293 811.409 719.08C811.793 718.867 812.097 718.557 812.321 718.152C812.545 717.747 812.657 717.272 812.657 716.728C812.657 716.173 812.545 715.699 812.321 715.304C812.097 714.899 811.793 714.589 811.409 714.376C811.035 714.163 810.609 714.056 810.129 714.056C809.649 714.056 809.217 714.163 808.833 714.376C808.449 714.589 808.145 714.899 807.921 715.304C807.697 715.699 807.585 716.173 807.585 716.728C807.585 717.272 807.697 717.747 807.921 718.152C808.145 718.557 808.449 718.867 808.833 719.08C809.217 719.293 809.649 719.4 810.129 719.4ZM820.601 721.112C819.652 721.112 818.82 720.925 818.105 720.552C817.401 720.168 816.852 719.645 816.457 718.984C816.073 718.323 815.881 717.571 815.881 716.728C815.881 715.875 816.068 715.123 816.441 714.472C816.825 713.811 817.348 713.293 818.009 712.92C818.681 712.547 819.444 712.36 820.297 712.36C821.129 712.36 821.871 712.541 822.521 712.904C823.172 713.267 823.684 713.779 824.057 714.44C824.431 715.101 824.617 715.88 824.617 716.776C824.617 716.861 824.612 716.957 824.601 717.064C824.601 717.171 824.596 717.272 824.585 717.368H817.465V716.04H823.529L822.745 716.456C822.756 715.965 822.655 715.533 822.441 715.16C822.228 714.787 821.935 714.493 821.561 714.28C821.199 714.067 820.777 713.96 820.297 713.96C819.807 713.96 819.375 714.067 819.001 714.28C818.639 714.493 818.351 714.792 818.137 715.176C817.935 715.549 817.833 715.992 817.833 716.504V716.824C817.833 717.336 817.951 717.789 818.185 718.184C818.42 718.579 818.751 718.883 819.177 719.096C819.604 719.309 820.095 719.416 820.649 719.416C821.129 719.416 821.561 719.341 821.945 719.192C822.329 719.043 822.671 718.808 822.969 718.488L824.041 719.72C823.657 720.168 823.172 720.515 822.585 720.76C822.009 720.995 821.348 721.112 820.601 721.112ZM826.539 721V712.456H828.443V714.808L828.219 714.12C828.475 713.544 828.875 713.107 829.419 712.808C829.973 712.509 830.661 712.36 831.483 712.36V714.264C831.397 714.243 831.317 714.232 831.243 714.232C831.168 714.221 831.093 714.216 831.019 714.216C830.261 714.216 829.659 714.44 829.211 714.888C828.763 715.325 828.539 715.981 828.539 716.856V721H826.539ZM833.179 721V712.456H835.179V721H833.179ZM834.187 711.048C833.814 711.048 833.505 710.931 833.259 710.696C833.025 710.461 832.907 710.179 832.907 709.848C832.907 709.507 833.025 709.224 833.259 709C833.505 708.765 833.814 708.648 834.187 708.648C834.561 708.648 834.865 708.76 835.099 708.984C835.345 709.197 835.467 709.469 835.467 709.8C835.467 710.152 835.35 710.451 835.115 710.696C834.881 710.931 834.571 711.048 834.187 711.048ZM841.82 721.112C840.871 721.112 840.039 720.925 839.324 720.552C838.62 720.168 838.071 719.645 837.676 718.984C837.292 718.323 837.1 717.571 837.1 716.728C837.1 715.875 837.287 715.123 837.66 714.472C838.044 713.811 838.567 713.293 839.228 712.92C839.9 712.547 840.663 712.36 841.516 712.36C842.348 712.36 843.09 712.541 843.74 712.904C844.391 713.267 844.903 713.779 845.276 714.44C845.65 715.101 845.836 715.88 845.836 716.776C845.836 716.861 845.831 716.957 845.82 717.064C845.82 717.171 845.815 717.272 845.804 717.368H838.684V716.04H844.748L843.964 716.456C843.975 715.965 843.874 715.533 843.66 715.16C843.447 714.787 843.154 714.493 842.78 714.28C842.418 714.067 841.996 713.96 841.516 713.96C841.026 713.96 840.594 714.067 840.22 714.28C839.858 714.493 839.57 714.792 839.356 715.176C839.154 715.549 839.052 715.992 839.052 716.504V716.824C839.052 717.336 839.17 717.789 839.404 718.184C839.639 718.579 839.97 718.883 840.396 719.096C840.823 719.309 841.314 719.416 841.868 719.416C842.348 719.416 842.78 719.341 843.164 719.192C843.548 719.043 843.89 718.808 844.188 718.488L845.26 719.72C844.876 720.168 844.391 720.515 843.804 720.76C843.228 720.995 842.567 721.112 841.82 721.112ZM852.605 712.36C853.288 712.36 853.896 712.493 854.429 712.76C854.973 713.027 855.4 713.437 855.709 713.992C856.019 714.536 856.173 715.24 856.173 716.104V721H854.173V716.36C854.173 715.603 853.992 715.037 853.629 714.664C853.277 714.291 852.781 714.104 852.141 714.104C851.672 714.104 851.256 714.2 850.893 714.392C850.531 714.584 850.248 714.872 850.045 715.256C849.853 715.629 849.757 716.104 849.757 716.68V721H847.757V712.456H849.661V714.76L849.325 714.056C849.624 713.512 850.056 713.096 850.621 712.808C851.197 712.509 851.859 712.36 852.605 712.36ZM862.646 721.112C861.75 721.112 860.95 720.925 860.246 720.552C859.553 720.168 859.009 719.645 858.614 718.984C858.219 718.323 858.022 717.571 858.022 716.728C858.022 715.875 858.219 715.123 858.614 714.472C859.009 713.811 859.553 713.293 860.246 712.92C860.95 712.547 861.75 712.36 862.646 712.36C863.478 712.36 864.209 712.531 864.838 712.872C865.478 713.203 865.963 713.693 866.294 714.344L864.758 715.24C864.502 714.835 864.187 714.536 863.814 714.344C863.451 714.152 863.057 714.056 862.63 714.056C862.139 714.056 861.697 714.163 861.302 714.376C860.907 714.589 860.598 714.899 860.374 715.304C860.15 715.699 860.038 716.173 860.038 716.728C860.038 717.283 860.15 717.763 860.374 718.168C860.598 718.563 860.907 718.867 861.302 719.08C861.697 719.293 862.139 719.4 862.63 719.4C863.057 719.4 863.451 719.304 863.814 719.112C864.187 718.92 864.502 718.621 864.758 718.216L866.294 719.112C865.963 719.752 865.478 720.248 864.838 720.6C864.209 720.941 863.478 721.112 862.646 721.112ZM871.914 721.112C870.965 721.112 870.133 720.925 869.418 720.552C868.714 720.168 868.165 719.645 867.77 718.984C867.386 718.323 867.194 717.571 867.194 716.728C867.194 715.875 867.381 715.123 867.754 714.472C868.138 713.811 868.661 713.293 869.322 712.92C869.994 712.547 870.757 712.36 871.61 712.36C872.442 712.36 873.183 712.541 873.834 712.904C874.485 713.267 874.997 713.779 875.37 714.44C875.743 715.101 875.93 715.88 875.93 716.776C875.93 716.861 875.925 716.957 875.914 717.064C875.914 717.171 875.909 717.272 875.898 717.368H868.778V716.04H874.842L874.058 716.456C874.069 715.965 873.967 715.533 873.754 715.16C873.541 714.787 873.247 714.493 872.874 714.28C872.511 714.067 872.09 713.96 871.61 713.96C871.119 713.96 870.687 714.067 870.314 714.28C869.951 714.493 869.663 714.792 869.45 715.176C869.247 715.549 869.146 715.992 869.146 716.504V716.824C869.146 717.336 869.263 717.789 869.498 718.184C869.733 718.579 870.063 718.883 870.49 719.096C870.917 719.309 871.407 719.416 871.962 719.416C872.442 719.416 872.874 719.341 873.258 719.192C873.642 719.043 873.983 718.808 874.282 718.488L875.354 719.72C874.97 720.168 874.485 720.515 873.898 720.76C873.322 720.995 872.661 721.112 871.914 721.112Z" fill="#0D387C"/>
<path d="M1017.77 709.8H1019.85V721H1017.77V709.8ZM1011.98 721H1009.9V709.8H1011.98V721ZM1017.93 716.2H1011.81V714.424H1017.93V716.2ZM1027.93 721V719.272L1027.82 718.904V715.88C1027.82 715.293 1027.64 714.84 1027.29 714.52C1026.94 714.189 1026.4 714.024 1025.69 714.024C1025.21 714.024 1024.73 714.099 1024.26 714.248C1023.8 714.397 1023.42 714.605 1023.1 714.872L1022.31 713.416C1022.77 713.064 1023.31 712.803 1023.94 712.632C1024.58 712.451 1025.24 712.36 1025.93 712.36C1027.16 712.36 1028.12 712.659 1028.79 713.256C1029.47 713.843 1029.82 714.755 1029.82 715.992V721H1027.93ZM1025.24 721.112C1024.6 721.112 1024.04 721.005 1023.56 720.792C1023.08 720.568 1022.71 720.264 1022.44 719.88C1022.18 719.485 1022.06 719.043 1022.06 718.552C1022.06 718.072 1022.17 717.64 1022.39 717.256C1022.63 716.872 1023 716.568 1023.53 716.344C1024.05 716.12 1024.74 716.008 1025.61 716.008H1028.09V717.336H1025.75C1025.07 717.336 1024.61 717.448 1024.38 717.672C1024.14 717.885 1024.02 718.152 1024.02 718.472C1024.02 718.835 1024.17 719.123 1024.46 719.336C1024.74 719.549 1025.14 719.656 1025.66 719.656C1026.15 719.656 1026.58 719.544 1026.97 719.32C1027.36 719.096 1027.64 718.765 1027.82 718.328L1028.15 719.528C1027.96 720.029 1027.61 720.419 1027.11 720.696C1026.62 720.973 1026 721.112 1025.24 721.112ZM1036.32 721.112C1035.42 721.112 1034.62 720.925 1033.92 720.552C1033.22 720.168 1032.68 719.645 1032.29 718.984C1031.89 718.323 1031.69 717.571 1031.69 716.728C1031.69 715.875 1031.89 715.123 1032.29 714.472C1032.68 713.811 1033.22 713.293 1033.92 712.92C1034.62 712.547 1035.42 712.36 1036.32 712.36C1037.15 712.36 1037.88 712.531 1038.51 712.872C1039.15 713.203 1039.64 713.693 1039.97 714.344L1038.43 715.24C1038.17 714.835 1037.86 714.536 1037.49 714.344C1037.12 714.152 1036.73 714.056 1036.3 714.056C1035.81 714.056 1035.37 714.163 1034.97 714.376C1034.58 714.589 1034.27 714.899 1034.05 715.304C1033.82 715.699 1033.71 716.173 1033.71 716.728C1033.71 717.283 1033.82 717.763 1034.05 718.168C1034.27 718.563 1034.58 718.867 1034.97 719.08C1035.37 719.293 1035.81 719.4 1036.3 719.4C1036.73 719.4 1037.12 719.304 1037.49 719.112C1037.86 718.92 1038.17 718.621 1038.43 718.216L1039.97 719.112C1039.64 719.752 1039.15 720.248 1038.51 720.6C1037.88 720.941 1037.15 721.112 1036.32 721.112ZM1043.25 719.096L1043.3 716.584L1047.76 712.456H1050.16L1046.37 716.264L1045.31 717.144L1043.25 719.096ZM1041.62 721V709.128H1043.62V721H1041.62ZM1048.06 721L1044.94 717.144L1046.21 715.544L1050.5 721H1048.06ZM1051.98 721V709.8H1054.06V721H1051.98ZM1056.9 721V709.128H1058.9V721H1056.9ZM1061.52 721V709.128H1063.52V721H1061.52ZM1066.15 721V712.456H1068.15V721H1066.15ZM1067.16 711.048C1066.78 711.048 1066.47 710.931 1066.23 710.696C1065.99 710.461 1065.88 710.179 1065.88 709.848C1065.88 709.507 1065.99 709.224 1066.23 709C1066.47 708.765 1066.78 708.648 1067.16 708.648C1067.53 708.648 1067.83 708.76 1068.07 708.984C1068.31 709.197 1068.44 709.469 1068.44 709.8C1068.44 710.152 1068.32 710.451 1068.08 710.696C1067.85 710.931 1067.54 711.048 1067.16 711.048ZM1075.62 712.36C1076.3 712.36 1076.91 712.493 1077.44 712.76C1077.99 713.027 1078.42 713.437 1078.72 713.992C1079.03 714.536 1079.19 715.24 1079.19 716.104V721H1077.19V716.36C1077.19 715.603 1077.01 715.037 1076.64 714.664C1076.29 714.291 1075.8 714.104 1075.16 714.104C1074.69 714.104 1074.27 714.2 1073.91 714.392C1073.55 714.584 1073.26 714.872 1073.06 715.256C1072.87 715.629 1072.77 716.104 1072.77 716.68V721H1070.77V712.456H1072.68V714.76L1072.34 714.056C1072.64 713.512 1073.07 713.096 1073.64 712.808C1074.21 712.509 1074.87 712.36 1075.62 712.36ZM1085.58 721.112C1084.71 721.112 1083.93 720.925 1083.25 720.552C1082.56 720.168 1082.02 719.645 1081.63 718.984C1081.24 718.323 1081.04 717.571 1081.04 716.728C1081.04 715.875 1081.24 715.123 1081.63 714.472C1082.02 713.811 1082.56 713.293 1083.25 712.92C1083.93 712.547 1084.71 712.36 1085.58 712.36C1086.47 712.36 1087.25 712.547 1087.93 712.92C1088.63 713.293 1089.17 713.805 1089.55 714.456C1089.94 715.107 1090.14 715.864 1090.14 716.728C1090.14 717.571 1089.94 718.323 1089.55 718.984C1089.17 719.645 1088.63 720.168 1087.93 720.552C1087.25 720.925 1086.47 721.112 1085.58 721.112ZM1085.58 719.4C1086.07 719.4 1086.51 719.293 1086.89 719.08C1087.28 718.867 1087.58 718.557 1087.79 718.152C1088.01 717.747 1088.13 717.272 1088.13 716.728C1088.13 716.173 1088.01 715.699 1087.79 715.304C1087.58 714.899 1087.28 714.589 1086.89 714.376C1086.51 714.163 1086.08 714.056 1085.6 714.056C1085.11 714.056 1084.67 714.163 1084.29 714.376C1083.91 714.589 1083.61 714.899 1083.39 715.304C1083.17 715.699 1083.05 716.173 1083.05 716.728C1083.05 717.272 1083.17 717.747 1083.39 718.152C1083.61 718.557 1083.91 718.867 1084.29 719.08C1084.67 719.293 1085.1 719.4 1085.58 719.4ZM1092.05 721V712.456H1094.05V721H1092.05ZM1093.06 711.048C1092.69 711.048 1092.38 710.931 1092.13 710.696C1091.9 710.461 1091.78 710.179 1091.78 709.848C1091.78 709.507 1091.9 709.224 1092.13 709C1092.38 708.765 1092.69 708.648 1093.06 708.648C1093.44 708.648 1093.74 708.76 1093.97 708.984C1094.22 709.197 1094.34 709.469 1094.34 709.8C1094.34 710.152 1094.22 710.451 1093.99 710.696C1093.76 710.931 1093.45 711.048 1093.06 711.048ZM1099.32 721.112C1098.6 721.112 1097.92 721.021 1097.26 720.84C1096.6 720.648 1096.09 720.419 1095.7 720.152L1096.47 718.632C1096.86 718.877 1097.31 719.08 1097.85 719.24C1098.38 719.4 1098.91 719.48 1099.45 719.48C1100.08 719.48 1100.53 719.395 1100.81 719.224C1101.1 719.053 1101.24 718.824 1101.24 718.536C1101.24 718.301 1101.14 718.125 1100.95 718.008C1100.76 717.88 1100.51 717.784 1100.2 717.72C1099.89 717.656 1099.54 717.597 1099.16 717.544C1098.79 717.491 1098.41 717.421 1098.02 717.336C1097.65 717.24 1097.31 717.107 1097 716.936C1096.69 716.755 1096.44 716.515 1096.25 716.216C1096.06 715.917 1095.96 715.523 1095.96 715.032C1095.96 714.488 1096.11 714.019 1096.42 713.624C1096.73 713.219 1097.16 712.909 1097.72 712.696C1098.28 712.472 1098.95 712.36 1099.72 712.36C1100.3 712.36 1100.88 712.424 1101.46 712.552C1102.05 712.68 1102.54 712.861 1102.92 713.096L1102.15 714.616C1101.75 714.371 1101.34 714.205 1100.92 714.12C1100.51 714.024 1100.11 713.976 1099.7 713.976C1099.1 713.976 1098.64 714.067 1098.34 714.248C1098.06 714.429 1097.91 714.659 1097.91 714.936C1097.91 715.192 1098.01 715.384 1098.2 715.512C1098.39 715.64 1098.64 715.741 1098.95 715.816C1099.26 715.891 1099.6 715.955 1099.98 716.008C1100.36 716.051 1100.74 716.12 1101.11 716.216C1101.48 716.312 1101.83 716.445 1102.14 716.616C1102.46 716.776 1102.71 717.005 1102.9 717.304C1103.1 717.603 1103.19 717.992 1103.19 718.472C1103.19 719.005 1103.03 719.469 1102.71 719.864C1102.4 720.259 1101.96 720.568 1101.38 720.792C1100.81 721.005 1100.12 721.112 1099.32 721.112Z" fill="#0D387C"/>
</svg>
