<svg width="1360" height="854" viewBox="0 0 1360 854" fill="none" xmlns="http://www.w3.org/2000/svg">
<path d="M145 50C145 22.3858 167.386 0 195 0H1165C1192.61 0 1215 22.3858 1215 50V640H145V50Z" fill="#FEA3AA"/>
<path d="M0 737H1360V780C1360 782.761 1357.76 785 1355 785H5C2.23858 785 0 782.761 0 780V737Z" fill="#FEA3AA"/>
<rect x="23" y="785" width="1314" height="69" fill="#FE7098"/>
<path d="M145 640H1215L1360 737H0L145 640Z" fill="#FCDC8F"/>
<path d="M183 69C183 52.4315 196.431 39 213 39H1147C1163.57 39 1177 52.4315 1177 69V601H183V69Z" fill="#1D2644"/>
<circle cx="540" cy="20" r="9" transform="rotate(-90 540 20)" fill="#C9D2E5"/>
<circle cx="540" cy="20" r="5.82353" transform="rotate(-90 540 20)" fill="white" fill-opacity="0.5"/>
<circle cx="586.588" cy="20" r="9" transform="rotate(-90 586.588 20)" fill="#FCDC8F"/>
<circle cx="586.588" cy="20" r="5.82353" transform="rotate(-90 586.588 20)" fill="white" fill-opacity="0.5"/>
<circle cx="633.177" cy="20" r="9" transform="rotate(-90 633.177 20)" fill="#C9D2E5"/>
<circle cx="633.177" cy="20" r="5.82353" transform="rotate(-90 633.177 20)" fill="white" fill-opacity="0.5"/>
<circle cx="679.765" cy="20" r="9" transform="rotate(-90 679.765 20)" fill="#FCDC8F"/>
<circle cx="679.765" cy="20" r="5.82353" transform="rotate(-90 679.765 20)" fill="white" fill-opacity="0.5"/>
<circle cx="726.353" cy="20" r="9" transform="rotate(-90 726.353 20)" fill="#C9D2E5"/>
<circle cx="726.353" cy="20" r="5.82353" transform="rotate(-90 726.353 20)" fill="white" fill-opacity="0.5"/>
<circle cx="772.941" cy="20" r="9" transform="rotate(-90 772.941 20)" fill="#FCDC8F"/>
<circle cx="772.941" cy="20" r="5.82353" transform="rotate(-90 772.941 20)" fill="white" fill-opacity="0.5"/>
<circle cx="819.529" cy="20" r="9" transform="rotate(-90 819.529 20)" fill="#C9D2E5"/>
<circle cx="819.53" cy="20" r="5.82353" transform="rotate(-90 819.53 20)" fill="white" fill-opacity="0.5"/>
</svg>
