<svg width="280" height="125" viewBox="0 0 280 125" fill="none" xmlns="http://www.w3.org/2000/svg">
<ellipse cx="219" cy="111.183" rx="61" ry="13.6998" fill="white" fill-opacity="0.61"/>
<path d="M249.489 109.824C228.183 112.159 206.636 112.159 185.331 109.824C175.729 108.777 169.372 101.444 171.05 94.1154C172.727 86.7705 180.754 82.016 189.049 82.9134C207.885 84.9779 226.935 84.9779 245.771 82.9134C254.066 82.016 262.093 86.7705 263.771 94.1154C265.448 101.444 259.092 108.777 249.489 109.824V109.824Z" fill="#FED6A4"/>
<path d="M259.191 99.5874C230.975 103.535 202.24 103.535 174.023 99.5874C169.101 98.901 165.855 94.9369 166.748 90.9043C167.641 86.8679 172.05 84.2397 176.618 84.8764C203.115 88.5835 230.1 88.5835 256.598 84.8764C261.166 84.2397 265.574 86.8679 266.468 90.9043C267.36 94.9369 264.114 98.901 259.192 99.5874H259.191Z" fill="#D36857"/>
<path d="M249.489 116.156C228.183 118.491 206.636 118.491 185.331 116.156C175.729 115.109 169.372 107.776 171.05 100.448C172.727 93.1027 180.754 88.3483 189.049 89.2457C207.885 91.3102 226.935 91.3102 245.771 89.2457C254.066 88.3483 262.093 93.1027 263.771 100.448C265.448 107.776 259.092 115.109 249.489 116.156V116.156Z" fill="#FDC477"/>
<ellipse cx="61" cy="109.226" rx="61" ry="13.6998" fill="white" fill-opacity="0.61"/>
<path d="M59.7756 48.5554C35.4876 48.5554 15.6299 65.1367 14.2085 86.0571C14.1207 87.3534 15.0359 88.4605 16.2013 88.4605H103.351C104.516 88.4605 105.432 87.3534 105.344 86.0571C103.923 65.1379 84.0648 48.5554 59.7768 48.5554H59.7756Z" fill="#FDC477"/>
<path d="M101.062 94.9507H18.4874C16.1204 94.9507 14.2017 96.8771 14.2017 99.2534C14.2017 101.63 16.1204 103.556 18.4874 103.556H101.062C103.429 103.556 105.348 101.63 105.348 99.2534C105.348 96.8771 103.429 94.9507 101.062 94.9507Z" fill="#6D481D"/>
<path d="M42.1857 88.4592H17.8112C16.6005 88.4592 15.6191 89.4447 15.6191 90.6603V90.6913C15.6191 91.9069 16.6005 92.8923 17.8112 92.8923H42.1857C43.3964 92.8923 44.3778 91.9069 44.3778 90.6913V90.6603C44.3778 89.4447 43.3964 88.4592 42.1857 88.4592Z" fill="#E24445"/>
<path d="M71.8005 88.4592H47.426C46.2153 88.4592 45.2339 89.4447 45.2339 90.6603V90.6913C45.2339 91.9069 46.2153 92.8923 47.426 92.8923H71.8005C73.0112 92.8923 73.9926 91.9069 73.9926 90.6913V90.6603C73.9926 89.4447 73.0112 88.4592 71.8005 88.4592Z" fill="#3B9946"/>
<path d="M101.335 88.4592H76.9601C75.7495 88.4592 74.7681 89.4447 74.7681 90.6603V90.6913C74.7681 91.9069 75.7495 92.8923 76.9601 92.8923H101.335C102.545 92.8923 103.527 91.9069 103.527 90.6913V90.6603C103.527 89.4447 102.545 88.4592 101.335 88.4592Z" fill="#E24445"/>
<path d="M102.502 92.8926H16.6435C16.0778 92.8926 15.6191 93.3531 15.6191 93.9211V93.9223C15.6191 94.4903 16.0778 94.9508 16.6435 94.9508H102.502C103.068 94.9508 103.526 94.4903 103.526 93.9223V93.9211C103.526 93.3531 103.068 92.8926 102.502 92.8926Z" fill="#FFC83B"/>
<path d="M101.239 103.556H17.9075C15.7495 103.556 14 105.313 14 107.48V108.238C14 110.405 15.7495 112.161 17.9075 112.161H101.239C103.397 112.161 105.146 110.405 105.146 108.238V107.48C105.146 105.313 103.397 103.556 101.239 103.556Z" fill="#FDC477"/>
<path d="M111.743 33.9478V92.6103C111.743 91.2036 113.023 89.8909 115.237 88.7785V37.3661H118.692V87.43C120.154 86.9808 121.805 86.5916 123.605 86.274V42.3064H127.059V85.7774C129.029 85.5538 131.122 85.4105 133.297 85.3601V42.3064H136.752V85.3611C138.806 85.4085 140.787 85.5383 142.66 85.7416V41.2173H146.114V86.216C148.018 86.5383 149.761 86.942 151.297 87.4106V40.619H154.751V88.7476C157.003 89.8667 158.306 91.1901 158.306 92.6093V33.9478H111.74H111.743Z" fill="#F05253"/>
<path d="M127.06 92.6104V99.4433C129.029 99.6669 131.122 99.8102 133.298 99.8605V92.6104H127.06Z" fill="#F05253"/>
<path d="M118.693 92.6104V97.7907C120.155 98.2399 121.806 98.6291 123.606 98.9466V92.6104H118.693V92.6104Z" fill="#F05253"/>
<path d="M111.743 92.6104C111.743 94.017 113.023 95.3298 115.237 96.4421V92.6104H111.743Z" fill="#F05253"/>
<path d="M136.754 92.6104V99.8605C138.809 99.8131 140.789 99.6834 142.662 99.4801V92.6104H136.754V92.6104Z" fill="#F05253"/>
<path d="M146.116 92.6104V99.0037C148.019 98.6814 149.762 98.2777 151.298 97.8091V92.6104H146.116Z" fill="#F05253"/>
<path d="M123.605 92.6104V86.2742C121.805 86.5907 120.154 86.9809 118.692 87.4301V92.6104H123.605Z" fill="#F05253"/>
<path d="M151.298 92.6104V87.4117C149.762 86.9431 148.019 86.5394 146.116 86.217V92.6104H151.298V92.6104Z" fill="#F05253"/>
<path d="M115.237 88.7786C113.023 89.8909 111.743 91.2037 111.743 92.6103H115.237V88.7786Z" fill="#F05253"/>
<path d="M142.662 92.6105V85.7408C140.789 85.5375 138.81 85.4078 136.754 85.3604V92.6105H142.662Z" fill="#F05253"/>
<path d="M133.298 92.6105V85.3604C131.122 85.4097 129.028 85.553 127.06 85.7776V92.6105H133.298Z" fill="#F05253"/>
<path d="M118.693 37.3662H115.238V88.7786C116.217 88.2868 117.378 87.8347 118.693 87.43V37.3662Z" fill="#FEE443"/>
<path d="M115.237 92.6104V96.4421C116.216 96.9339 117.377 97.386 118.692 97.7907V92.6104H115.237Z" fill="#FEE443"/>
<path d="M118.693 92.6105V87.4302C117.378 87.8339 116.217 88.287 115.238 88.7788V92.6105H118.693Z" fill="#FEE443"/>
<path d="M127.061 42.3066H123.606V86.2743C124.706 86.0807 125.86 85.9141 127.061 85.7776V42.3066Z" fill="#FEE443"/>
<path d="M123.605 92.6104V98.9466C124.705 99.1402 125.859 99.3068 127.059 99.4433V92.6104H123.605Z" fill="#FEE443"/>
<path d="M127.061 92.6103V85.7773C125.859 85.9138 124.705 86.0804 123.606 86.274V92.6103H127.061Z" fill="#FEE443"/>
<path d="M136.753 85.3604V42.3066H133.299V85.3613C133.869 85.3488 134.446 85.341 135.027 85.341C135.608 85.341 136.184 85.3478 136.754 85.3613L136.753 85.3604Z" fill="#FEE443"/>
<path d="M133.298 92.6104V99.8605C133.869 99.8731 134.445 99.8809 135.026 99.8809C135.607 99.8809 136.183 99.8741 136.754 99.8605V92.6104H133.299H133.298Z" fill="#FEE443"/>
<path d="M136.754 92.6103V85.3602C136.183 85.3476 135.607 85.3398 135.026 85.3398C134.445 85.3398 133.869 85.3466 133.298 85.3602V92.6103H136.753H136.754Z" fill="#FEE443"/>
<path d="M146.116 41.2175H142.662V85.7408C143.861 85.8706 145.015 86.0303 146.116 86.2162V41.2175Z" fill="#FEE443"/>
<path d="M142.662 92.6104V99.4801C143.861 99.3503 145.015 99.1906 146.116 99.0047V92.6113H142.662V92.6104Z" fill="#FEE443"/>
<path d="M146.116 92.6102V86.2168C145.015 86.03 143.86 85.8712 142.662 85.7415V92.6112H146.116V92.6102Z" fill="#FEE443"/>
<path d="M154.754 96.4721C157.006 95.353 158.309 94.0296 158.309 92.6104H154.754V96.4721Z" fill="#F05253"/>
<path d="M154.754 88.7478V92.6096H158.309C158.309 91.1903 157.005 89.8669 154.754 88.7478Z" fill="#F05253"/>
<path d="M154.754 40.6191H151.3V87.4117C152.612 87.8125 153.773 88.2607 154.754 88.7487V40.6191Z" fill="#FEE443"/>
<path d="M151.299 92.6104V97.8091C152.611 97.4083 153.773 96.9601 154.753 96.4721V92.6104H151.299V92.6104Z" fill="#FEE443"/>
<path d="M154.754 92.6104V88.7486C153.773 88.2607 152.612 87.8124 151.3 87.4116V92.6104H154.754V92.6104Z" fill="#FEE443"/>
<path d="M135.026 41.2173C148.198 41.2173 158.876 37.9626 158.876 33.9478C158.876 29.9329 148.198 26.6782 135.026 26.6782C121.854 26.6782 111.176 29.9329 111.176 33.9478C111.176 37.9626 121.854 41.2173 135.026 41.2173Z" fill="#67BDEA"/>
<path d="M160.152 31.4675H109.9V38.9568H160.152V31.4675Z" fill="#D7DDE0"/>
<path d="M135.026 44.8555C148.903 44.8555 160.152 42.2145 160.152 38.9568C160.152 35.699 148.903 33.0581 135.026 33.0581C121.149 33.0581 109.9 35.699 109.9 38.9568C109.9 42.2145 121.149 44.8555 135.026 44.8555Z" fill="#D7DDE0"/>
<path d="M135.026 37.3662C148.903 37.3662 160.152 34.7253 160.152 31.4675C160.152 28.2098 148.903 25.5688 135.026 25.5688C121.149 25.5688 109.9 28.2098 109.9 31.4675C109.9 34.7253 121.149 37.3662 135.026 37.3662Z" fill="#DDE4E8"/>
<path d="M136.249 0.605957H133.803C133.524 0.605957 133.298 0.833945 133.298 1.11518V30.9581C133.298 31.2393 133.524 31.4673 133.803 31.4673H136.249C136.527 31.4673 136.753 31.2393 136.753 30.9581V1.11518C136.753 0.833945 136.527 0.605957 136.249 0.605957Z" fill="#FFE094"/>
<path d="M134.025 3.18696L135.483 0.89061C135.648 0.630188 136.136 0.531441 136.568 0.668913L162.911 9.12728C163.343 9.26572 163.56 9.59197 163.395 9.85143L161.936 12.1478C161.771 12.4082 161.283 12.5069 160.852 12.3695L134.508 3.91111C134.077 3.77267 133.86 3.44642 134.025 3.18696V3.18696Z" fill="#FFE094"/>
<path d="M162.188 11.0048C162.627 10.2479 162.808 9.53048 162.592 9.40227C162.375 9.27406 161.843 9.78364 161.404 10.5405C160.964 11.2973 160.783 12.0148 161 12.143C161.216 12.2712 161.748 11.7616 162.188 11.0048Z" fill="#BCA46F"/>
</svg>
