<svg width="1512" height="756" viewBox="0 0 1512 756" fill="none" xmlns="http://www.w3.org/2000/svg">
<rect opacity="0.6" x="-4" y="122" width="1509" height="634" fill="url(#paint0_linear_0_1)"/>
<path opacity="0.5" d="M315.535 154.004H3.9259V163.309H315.535V154.004Z" fill="url(#paint1_linear_0_1)"/>
<path opacity="0.5" d="M414.827 307.962H103.218V317.267H414.827V307.962Z" fill="url(#paint2_linear_0_1)"/>
<path opacity="0.5" d="M1525 223.37H612.356V232.675H1525V223.37Z" fill="url(#paint3_linear_0_1)"/>
<path opacity="0.5" d="M1395.07 254.669H482.431V263.974H1395.07V254.669Z" fill="url(#paint4_linear_0_1)"/>
<rect x="-26" y="95" width="1479" height="51" fill="#0D387C"/>
<rect x="-4" y="100" width="60" height="279" fill="url(#paint5_linear_0_1)"/>
<rect x="723.5" y="100" width="60" height="279" fill="url(#paint6_linear_0_1)"/>
<rect x="1451" y="100" width="60" height="279" fill="url(#paint7_linear_0_1)"/>
<path opacity="0.149" d="M587.38 278.785C608.119 278.785 624.932 261.506 624.932 240.193C624.932 218.879 608.119 201.6 587.38 201.6C566.64 201.6 549.827 218.879 549.827 240.193C549.827 261.506 566.64 278.785 587.38 278.785Z" fill="#F99557"/>
<path opacity="0.149" d="M778.895 278.785C804.819 278.785 825.835 257.187 825.835 230.544C825.835 203.902 804.819 182.304 778.895 182.304C752.971 182.304 731.955 203.902 731.955 230.544C731.955 257.187 752.971 278.785 778.895 278.785Z" fill="#C9D2E5"/>
<path opacity="0.0509804" d="M383.66 342.462C414.769 342.462 439.988 316.544 439.988 284.573C439.988 252.603 414.769 226.685 383.66 226.685C352.55 226.685 327.331 252.603 327.331 284.573C327.331 316.544 352.55 342.462 383.66 342.462Z" fill="#C9D2E5"/>
<path opacity="0.0509804" d="M485.989 243.087C498.951 243.087 509.459 232.288 509.459 218.967C509.459 205.646 498.951 194.847 485.989 194.847C473.027 194.847 462.519 205.646 462.519 218.967C462.519 232.288 473.027 243.087 485.989 243.087Z" fill="white"/>
<path opacity="0.0705882" d="M158.233 322.201C223.044 322.201 275.583 268.206 275.583 201.6C275.583 134.995 223.044 81 158.233 81C93.4222 81 40.8827 134.995 40.8827 201.6C40.8827 268.206 93.4222 322.201 158.233 322.201Z" fill="#FE7098"/>
<path opacity="0.149" d="M1140.33 230.544C1155.89 230.544 1168.5 217.586 1168.5 201.6C1168.5 185.615 1155.89 172.656 1140.33 172.656C1124.78 172.656 1112.17 185.615 1112.17 201.6C1112.17 217.586 1124.78 230.544 1140.33 230.544Z" fill="#B73C94"/>
<path opacity="0.0509804" d="M932.859 240.193C953.598 240.193 970.411 222.914 970.411 201.6C970.411 180.287 953.598 163.008 932.859 163.008C912.119 163.008 895.307 180.287 895.307 201.6C895.307 222.914 912.119 240.193 932.859 240.193Z" fill="#F99557"/>
<path opacity="0.149" d="M1053.96 303.87C1074.7 303.87 1091.52 286.591 1091.52 265.277C1091.52 243.964 1074.7 226.685 1053.96 226.685C1033.22 226.685 1016.41 243.964 1016.41 265.277C1016.41 286.591 1033.22 303.87 1053.96 303.87Z" fill="#F99557"/>
<path opacity="0.149" d="M667.178 147.571C682.732 147.571 695.342 134.613 695.342 118.627C695.342 102.642 682.732 89.6832 667.178 89.6832C651.623 89.6832 639.014 102.642 639.014 118.627C639.014 134.613 651.623 147.571 667.178 147.571Z" fill="#B73C94"/>
<path opacity="0.0392157" d="M1389.05 398C1456.45 398 1511.09 341.846 1511.09 272.576C1511.09 203.306 1456.45 147.151 1389.05 147.151C1321.64 147.151 1267 203.306 1267 272.576C1267 341.846 1321.64 398 1389.05 398Z" fill="#FCDC8F"/>
<g opacity="0.8">
<path opacity="0.5294" d="M1508.38 175.22C1504.21 175.248 1500.83 178.794 1500.83 183.141C1500.84 187.488 1504.22 190.99 1508.4 190.963C1512.58 190.935 1515.96 187.389 1515.95 183.042C1515.95 178.695 1512.56 175.193 1508.38 175.22Z" fill="white" fill-opacity="0.8"/>
<path opacity="0.5294" d="M1191.66 329.438C1187.48 329.465 1184.1 333.012 1184.11 337.359C1184.11 341.706 1187.5 345.208 1191.67 345.18C1195.85 345.153 1199.23 341.607 1199.23 337.26C1199.22 332.912 1195.84 329.411 1191.66 329.438Z" fill="white" fill-opacity="0.8"/>
<path opacity="0.5294" d="M1120.1 2.4907C1115.92 2.51811 1112.54 6.06438 1112.55 10.4115C1112.55 14.7587 1115.94 18.2605 1120.12 18.2331C1124.29 18.2057 1127.68 14.6594 1127.67 10.3123C1127.67 5.96513 1124.28 2.46329 1120.1 2.4907Z" fill="white" fill-opacity="0.8"/>
<path opacity="0.5294" d="M1319.57 107.254C1315.4 107.282 1312.02 110.828 1312.02 115.175C1312.02 119.522 1315.41 123.024 1319.59 122.997C1323.77 122.969 1327.15 119.423 1327.14 115.076C1327.14 110.729 1323.75 107.227 1319.57 107.254Z" fill="white" fill-opacity="0.8"/>
<path opacity="0.5294" d="M1128.06 165.142C1124.84 165.163 1122.24 167.891 1122.24 171.235C1122.25 174.579 1124.85 177.273 1128.07 177.252C1131.28 177.231 1133.88 174.503 1133.88 171.159C1133.87 167.815 1131.27 165.121 1128.06 165.142Z" fill="white" fill-opacity="0.8"/>
<path opacity="0.5294" d="M1287.71 374.139C1284.5 374.16 1281.9 376.888 1281.9 380.232C1281.91 383.576 1284.51 386.27 1287.73 386.249C1290.94 386.228 1293.54 383.5 1293.54 380.156C1293.53 376.812 1290.93 374.118 1287.71 374.139Z" fill="white" fill-opacity="0.8"/>
<path opacity="0.5294" d="M1419.25 21.8517C1416.04 21.8728 1413.44 24.6007 1413.44 27.9447C1413.45 31.2886 1416.05 33.9824 1419.27 33.9613C1422.48 33.9402 1425.08 31.2123 1425.08 27.8683C1425.07 24.5244 1422.47 21.8306 1419.25 21.8517Z" fill="white" fill-opacity="0.8"/>
<path opacity="0.5294" d="M1441.39 188.305C1439.78 188.316 1438.48 189.68 1438.48 191.351C1438.48 193.023 1439.79 194.37 1441.39 194.36C1443 194.349 1444.3 192.985 1444.3 191.313C1444.3 189.641 1442.99 188.294 1441.39 188.305Z" fill="white" fill-opacity="0.8"/>
<path opacity="0.5294" d="M1425.86 340.901C1424.25 340.912 1422.95 342.276 1422.95 343.948C1422.95 345.62 1424.26 346.967 1425.86 346.956C1427.47 346.946 1428.77 345.582 1428.77 343.91C1428.76 342.238 1427.46 340.891 1425.86 340.901Z" fill="white" fill-opacity="0.8"/>
<path opacity="0.5294" d="M1312.86 443.71C1311.25 443.721 1309.95 445.085 1309.95 446.757C1309.95 448.429 1311.26 449.776 1312.86 449.765C1314.47 449.755 1315.77 448.391 1315.77 446.719C1315.77 445.047 1314.46 443.7 1312.86 443.71Z" fill="white" fill-opacity="0.8"/>
<path opacity="0.5294" d="M1281.47 201.411C1279.86 201.421 1278.56 202.785 1278.56 204.457C1278.57 206.129 1279.87 207.476 1281.48 207.465C1283.08 207.455 1284.38 206.091 1284.38 204.419C1284.38 202.747 1283.08 201.4 1281.47 201.411Z" fill="white" fill-opacity="0.8"/>
<path opacity="0.5294" d="M1151.75 259.816C1150.15 259.827 1148.84 261.191 1148.85 262.863C1148.85 264.535 1150.15 265.882 1151.76 265.871C1153.36 265.861 1154.66 264.497 1154.66 262.825C1154.66 261.153 1153.36 259.806 1151.75 259.816Z" fill="white" fill-opacity="0.8"/>
<path opacity="0.5294" d="M1191.04 86.6036C1189.44 86.6141 1188.14 87.9781 1188.14 89.6501C1188.14 91.322 1189.44 92.6689 1191.05 92.6584C1192.66 92.6478 1193.96 91.2839 1193.96 89.6119C1193.95 87.9399 1192.65 86.5931 1191.04 86.6036Z" fill="white" fill-opacity="0.8"/>
<path opacity="0.5294" d="M1174.45 418.875C1172.85 418.886 1171.54 420.249 1171.55 421.921C1171.55 423.593 1172.85 424.94 1174.46 424.93C1176.06 424.919 1177.37 423.555 1177.36 421.883C1177.36 420.211 1176.06 418.864 1174.45 418.875Z" fill="white" fill-opacity="0.8"/>
<path opacity="0.5294" d="M892.528 44.3239C890.922 44.3344 889.621 45.6984 889.623 47.3703C889.625 49.0423 890.928 50.3892 892.535 50.3786C894.141 50.3681 895.442 49.0042 895.44 47.3322C895.438 45.6602 894.135 44.3133 892.528 44.3239Z" fill="white" fill-opacity="0.8"/>
<path opacity="0.5294" d="M890.413 359.423C888.806 359.434 887.506 360.798 887.507 362.47C887.509 364.142 888.812 365.489 890.419 365.478C892.025 365.467 893.326 364.104 893.324 362.432C893.322 360.76 892.019 359.413 890.413 359.423Z" fill="white" fill-opacity="0.8"/>
<path opacity="0.5294" d="M779.924 304.25C778.318 304.261 777.017 305.625 777.019 307.297C777.021 308.969 778.324 310.316 779.931 310.305C781.537 310.295 782.838 308.931 782.836 307.259C782.834 305.587 781.531 304.24 779.924 304.25Z" fill="white" fill-opacity="0.8"/>
<path opacity="0.5294" d="M761.964 182.507C760.358 182.517 759.057 183.881 759.059 185.553C759.06 187.225 760.364 188.572 761.97 188.561C763.576 188.551 764.877 187.187 764.875 185.515C764.874 183.843 763.57 182.496 761.964 182.507Z" fill="white" fill-opacity="0.8"/>
<path opacity="0.5294" d="M427.402 171.942C425.795 171.953 424.495 173.317 424.496 174.989C424.498 176.66 425.802 178.007 427.408 177.997C429.014 177.986 430.315 176.622 430.313 174.95C430.312 173.278 429.008 171.931 427.402 171.942Z" fill="white" fill-opacity="0.8"/>
<path opacity="0.5294" d="M417.212 416.89C415.606 416.901 414.305 418.265 414.307 419.937C414.309 421.608 415.612 422.955 417.218 422.945C418.825 422.934 420.125 421.57 420.124 419.898C420.122 418.226 418.818 416.879 417.212 416.89Z" fill="white" fill-opacity="0.8"/>
<path opacity="0.5294" d="M279.58 376.532C277.974 376.543 276.673 377.907 276.675 379.579C276.676 381.251 277.98 382.598 279.586 382.587C281.192 382.577 282.493 381.213 282.491 379.541C282.49 377.869 281.186 376.522 279.58 376.532Z" fill="white" fill-opacity="0.8"/>
<path opacity="0.5294" d="M293.66 200.667C292.054 200.678 290.753 202.042 290.755 203.713C290.756 205.385 292.06 206.732 293.666 206.722C295.272 206.711 296.573 205.347 296.571 203.675C296.57 202.003 295.266 200.656 293.66 200.667Z" fill="white" fill-opacity="0.8"/>
<path opacity="0.5294" d="M256.065 31.1415C254.459 31.152 253.158 32.516 253.16 34.188C253.162 35.86 254.465 37.2068 256.071 37.1963C257.678 37.1857 258.978 35.8218 258.977 34.1498C258.975 32.4778 257.671 31.131 256.065 31.1415Z" fill="white" fill-opacity="0.8"/>
<path opacity="0.5294" d="M125.389 31.8449C123.783 31.8555 122.482 33.2194 122.484 34.8914C122.485 36.5634 123.789 37.9102 125.395 37.8997C127.002 37.8892 128.302 36.5252 128.301 34.8532C128.299 33.1813 126.995 31.8344 125.389 31.8449Z" fill="white" fill-opacity="0.8"/>
<path opacity="0.5294" d="M75.7761 397.997C74.1698 398.008 72.869 399.372 72.8707 401.044C72.8724 402.716 74.176 404.063 75.7822 404.052C77.3885 404.041 78.6893 402.677 78.6876 401.006C78.6859 399.334 77.3824 397.987 75.7761 397.997Z" fill="white" fill-opacity="0.8"/>
<path opacity="0.5294" d="M2.75307 135.554C1.14679 135.565 -0.15398 136.929 -0.152276 138.601C-0.150573 140.273 1.15296 141.62 2.75924 141.609C4.36552 141.599 5.66628 140.235 5.66458 138.563C5.66288 136.891 4.35935 135.544 2.75307 135.554Z" fill="white" fill-opacity="0.8"/>
<path opacity="0.5294" d="M22.9693 415.982C21.363 415.992 20.0622 417.356 20.0639 419.028C20.0656 420.7 21.3691 422.047 22.9754 422.036C24.5817 422.026 25.8825 420.662 25.8808 418.99C25.8791 417.318 24.5755 415.971 22.9693 415.982Z" fill="white" fill-opacity="0.8"/>
<path opacity="0.5294" d="M743.311 14.2161C740.098 14.2372 737.497 16.9651 737.5 20.309C737.503 23.653 740.11 26.3467 743.323 26.3256C746.535 26.3045 749.137 23.5766 749.134 20.2327C749.13 16.8887 746.523 14.195 743.311 14.2161Z" fill="white" fill-opacity="0.8"/>
<path opacity="0.5294" d="M892.971 219.266C889.758 219.287 887.156 222.015 887.16 225.359C887.163 228.703 889.77 231.397 892.983 231.376C896.195 231.355 898.797 228.627 898.794 225.283C898.79 221.939 896.183 219.245 892.971 219.266Z" fill="white" fill-opacity="0.8"/>
<path opacity="0.5294" d="M401.873 319.746C398.661 319.767 396.059 322.495 396.062 325.839C396.066 329.183 398.673 331.877 401.885 331.856C405.098 331.834 407.7 329.107 407.696 325.763C407.693 322.419 405.086 319.725 401.873 319.746Z" fill="white" fill-opacity="0.8"/>
<path opacity="0.5294" d="M273.162 131.071C269.95 131.092 267.348 133.82 267.352 137.164C267.355 140.508 269.962 143.202 273.175 143.181C276.387 143.16 278.989 140.432 278.985 137.088C278.982 133.744 276.375 131.05 273.162 131.071Z" fill="white" fill-opacity="0.8"/>
<path opacity="0.5294" d="M88.6557 204.805C85.4431 204.826 82.8416 207.554 82.845 210.898C82.8484 214.242 85.4554 216.936 88.668 216.915C91.8806 216.893 94.4821 214.166 94.4787 210.822C94.4753 207.478 91.8682 204.784 88.6557 204.805Z" fill="white" fill-opacity="0.8"/>
<path opacity="0.5294" d="M16.1553 12.069C12.9427 12.0901 10.3412 14.818 10.3446 18.162C10.348 21.5059 12.9551 24.1997 16.1676 24.1786C19.3802 24.1575 21.9817 21.4296 21.9783 18.0856C21.9749 14.7417 19.3679 12.048 16.1553 12.069Z" fill="white" fill-opacity="0.8"/>
<path opacity="0.5294" d="M408.751 49.9648C404.575 49.9922 401.193 53.5385 401.197 57.8856C401.202 62.2328 404.591 65.7346 408.767 65.7072C412.943 65.6798 416.325 62.1335 416.321 57.7864C416.317 53.4392 412.927 49.9374 408.751 49.9648Z" fill="white" fill-opacity="0.8"/>
<path opacity="0.5294" d="M293.822 262.622C289.646 262.65 286.264 266.196 286.268 270.543C286.272 274.89 289.662 278.392 293.838 278.365C298.014 278.337 301.396 274.791 301.392 270.444C301.387 266.097 297.998 262.595 293.822 262.622Z" fill="white" fill-opacity="0.8"/>
<path opacity="0.5294" d="M133.685 327.254C129.509 327.281 126.127 330.828 126.131 335.175C126.136 339.522 129.525 343.024 133.701 342.996C137.877 342.969 141.259 339.423 141.255 335.075C141.251 330.728 137.861 327.226 133.685 327.254Z" fill="white" fill-opacity="0.8"/>
<path opacity="0.5294" d="M75.0012 85.3437C70.8249 85.3711 67.4429 88.9173 67.4473 93.2645C67.4517 97.6116 70.8409 101.113 75.0173 101.086C79.1936 101.059 82.5756 97.5124 82.5711 93.1652C82.5667 88.8181 79.1775 85.3163 75.0012 85.3437Z" fill="white" fill-opacity="0.8"/>
<path opacity="0.5294" d="M3.12139 279.948C-1.05494 279.975 -4.43693 283.522 -4.4325 287.869C-4.42807 292.216 -1.0389 295.718 3.13743 295.69C7.31376 295.663 10.6957 292.117 10.6913 287.77C10.6869 283.422 7.29772 279.921 3.12139 279.948Z" fill="white" fill-opacity="0.8"/>
</g>
<defs>
<linearGradient id="paint0_linear_0_1" x1="750.5" y1="122" x2="750.5" y2="1331.33" gradientUnits="userSpaceOnUse">
<stop offset="0.00388808" stop-color="#FEA3AA" stop-opacity="0.47"/>
<stop offset="0.395833" stop-color="#37DECD" stop-opacity="0"/>
</linearGradient>
<linearGradient id="paint1_linear_0_1" x1="159.752" y1="153.962" x2="159.752" y2="163.281" gradientUnits="userSpaceOnUse">
<stop stop-color="#CAD3E6" stop-opacity="0"/>
<stop offset="0.5" stop-color="#CAD3E6" stop-opacity="0.6706"/>
<stop offset="1" stop-color="#CAD3E6" stop-opacity="0"/>
</linearGradient>
<linearGradient id="paint2_linear_0_1" x1="259.045" y1="307.92" x2="259.045" y2="317.238" gradientUnits="userSpaceOnUse">
<stop stop-color="#CAD3E6" stop-opacity="0"/>
<stop offset="0.5" stop-color="#CAD3E6" stop-opacity="0.6706"/>
<stop offset="1" stop-color="#CAD3E6" stop-opacity="0"/>
</linearGradient>
<linearGradient id="paint3_linear_0_1" x1="1068.74" y1="223.328" x2="1068.74" y2="232.646" gradientUnits="userSpaceOnUse">
<stop stop-color="#CAD3E6" stop-opacity="0"/>
<stop offset="0.5" stop-color="#CAD3E6" stop-opacity="0.6706"/>
<stop offset="1" stop-color="#CAD3E6" stop-opacity="0"/>
</linearGradient>
<linearGradient id="paint4_linear_0_1" x1="938.817" y1="254.627" x2="938.817" y2="263.945" gradientUnits="userSpaceOnUse">
<stop stop-color="#CAD3E6" stop-opacity="0"/>
<stop offset="0.5" stop-color="#CAD3E6" stop-opacity="0.6706"/>
<stop offset="1" stop-color="#CAD3E6" stop-opacity="0"/>
</linearGradient>
<linearGradient id="paint5_linear_0_1" x1="26" y1="208" x2="26" y2="379" gradientUnits="userSpaceOnUse">
<stop stop-color="#0D387C"/>
<stop offset="1" stop-color="#0D387C" stop-opacity="0"/>
</linearGradient>
<linearGradient id="paint6_linear_0_1" x1="753.5" y1="208" x2="753.5" y2="379" gradientUnits="userSpaceOnUse">
<stop stop-color="#0D387C"/>
<stop offset="1" stop-color="#0D387C" stop-opacity="0"/>
</linearGradient>
<linearGradient id="paint7_linear_0_1" x1="1481" y1="208" x2="1481" y2="379" gradientUnits="userSpaceOnUse">
<stop stop-color="#0D387C"/>
<stop offset="1" stop-color="#0D387C" stop-opacity="0"/>
</linearGradient>
</defs>
</svg>
