<svg width="209" height="137" viewBox="0 0 209 137" fill="none" xmlns="http://www.w3.org/2000/svg">
<path d="M170.763 133.354L144.521 117.478C143.182 116.668 141.496 116.488 140.016 116.996L111.008 126.956C107.278 128.235 103.415 125.109 104.471 121.665L112.675 94.8699C113.095 93.5027 112.725 92.0204 111.692 90.9101L91.4189 69.1409C88.8126 66.342 90.8629 62.1721 94.888 62.0843L126.2 61.3985C127.798 61.3642 129.255 60.6287 130.096 59.4327L146.574 36.02C148.692 33.0101 153.822 33.5593 155.255 36.9495L166.403 63.3199C166.971 64.6668 168.24 65.6925 169.794 66.066L200.251 73.3652C204.167 74.3031 205.288 78.8126 202.148 80.9962L177.726 97.9801C176.479 98.8462 175.805 100.217 175.926 101.642L178.272 129.566C178.575 133.156 174.137 135.394 170.763 133.354Z" fill="#EF5B9B"/>
<path d="M166.945 125.493L144.75 112.067C143.616 111.382 142.193 111.229 140.94 111.659L116.405 120.082C113.252 121.166 109.983 118.521 110.876 115.607L117.816 92.9438C118.171 91.7875 117.86 90.5348 116.984 89.5945L99.8369 71.1824C97.6319 68.8155 99.3663 65.289 102.77 65.2139L129.255 64.6346C130.607 64.6046 131.84 63.9837 132.552 62.972L146.489 43.1688C148.28 40.6228 152.619 41.0873 153.832 43.9551L163.26 66.2598C163.742 67.3993 164.815 68.2671 166.13 68.5826L191.892 74.7559C195.204 75.5499 196.152 79.3637 193.496 81.2101L172.839 95.5747C171.785 96.3083 171.215 97.4668 171.317 98.6719L173.302 122.291C173.558 125.328 169.804 127.219 166.951 125.494L166.945 125.493Z" fill="#F498BC"/>
<path d="M149.201 52.4831C150.086 52.5778 150.871 52.0168 150.955 51.23C151.039 50.4432 150.391 49.7286 149.506 49.6339C148.621 49.5392 147.836 50.1002 147.752 50.887C147.668 51.6738 148.316 52.3884 149.201 52.4831Z" fill="#EF5B9B"/>
<path d="M148.35 60.4325C149.234 60.5272 150.02 59.9661 150.104 59.1793C150.188 58.3926 149.54 57.678 148.655 57.5832C147.77 57.4885 146.985 58.0496 146.901 58.8364C146.816 59.6232 147.465 60.3378 148.35 60.4325Z" fill="#EF5B9B"/>
<path d="M147.499 68.3818C148.384 68.4765 149.169 67.9155 149.253 67.1287C149.338 66.3419 148.689 65.6273 147.804 65.5326C146.92 65.4379 146.134 65.9989 146.05 66.7857C145.966 67.5725 146.615 68.2871 147.499 68.3818Z" fill="#EF5B9B"/>
<path d="M186.595 80.3938C187.48 80.4885 188.265 79.9275 188.349 79.1407C188.433 78.3539 187.785 77.6393 186.9 77.5446C186.015 77.4499 185.23 78.0109 185.146 78.7977C185.062 79.5845 185.71 80.2991 186.595 80.3938Z" fill="#EF5B9B"/>
<path d="M177.841 81.98C178.725 82.0747 179.511 81.5136 179.595 80.7268C179.679 79.94 179.03 79.2254 178.146 79.1307C177.261 79.036 176.476 79.5971 176.391 80.3839C176.307 81.1706 176.956 81.8852 177.841 81.98Z" fill="#EF5B9B"/>
<path d="M169.089 83.5646C169.974 83.6593 170.759 83.0983 170.843 82.3115C170.928 81.5247 170.279 80.8101 169.394 80.7154C168.51 80.6207 167.724 81.1817 167.64 81.9685C167.556 82.7553 168.205 83.4699 169.089 83.5646Z" fill="#EF5B9B"/>
<path d="M116.286 75.3895C117.17 75.4842 117.956 74.9232 118.04 74.1364C118.124 73.3496 117.476 72.635 116.591 72.5403C115.706 72.4456 114.921 73.0066 114.837 73.7934C114.752 74.5802 115.401 75.2948 116.286 75.3895Z" fill="#EF5B9B"/>
<path d="M124.506 78.7912C125.391 78.8859 126.176 78.3249 126.26 77.5381C126.345 76.7513 125.696 76.0367 124.811 75.942C123.927 75.8473 123.141 76.4083 123.057 77.1951C122.973 77.9819 123.622 78.6965 124.506 78.7912Z" fill="#EF5B9B"/>
<path d="M128.915 103.415C129.799 103.51 130.585 102.949 130.669 102.162C130.753 101.375 130.104 100.661 129.22 100.566C128.335 100.471 127.55 101.032 127.466 101.819C127.381 102.606 128.03 103.321 128.915 103.415Z" fill="#EF5B9B"/>
<path d="M123.332 109.559C124.216 109.654 125.002 109.093 125.086 108.306C125.17 107.519 124.521 106.805 123.637 106.71C122.752 106.615 121.967 107.176 121.883 107.963C121.798 108.75 122.447 109.465 123.332 109.559Z" fill="#EF5B9B"/>
<path d="M117.749 115.703C118.634 115.798 119.419 115.237 119.503 114.45C119.588 113.664 118.939 112.949 118.054 112.854C117.17 112.76 116.384 113.321 116.3 114.107C116.216 114.894 116.865 115.609 117.749 115.703Z" fill="#EF5B9B"/>
<path d="M159.62 107.072C160.505 107.167 161.29 106.606 161.375 105.819C161.459 105.032 160.81 104.317 159.925 104.223C159.041 104.128 158.255 104.689 158.171 105.476C158.087 106.263 158.736 106.977 159.62 107.072Z" fill="#EF5B9B"/>
<path d="M163.776 114.259C164.66 114.353 165.446 113.792 165.53 113.006C165.614 112.219 164.965 111.504 164.081 111.41C163.196 111.315 162.411 111.876 162.326 112.663C162.242 113.449 162.891 114.164 163.776 114.259Z" fill="#EF5B9B"/>
<path d="M167.931 121.445C168.816 121.54 169.601 120.979 169.685 120.192C169.769 119.406 169.121 118.691 168.236 118.596C167.351 118.502 166.566 119.063 166.482 119.849C166.398 120.636 167.046 121.351 167.931 121.445Z" fill="#EF5B9B"/>
<path d="M108.669 72.0505C109.553 72.1452 110.339 71.5842 110.423 70.7974C110.507 70.0106 109.858 69.296 108.974 69.2013C108.089 69.1066 107.304 69.6676 107.22 70.4544C107.135 71.2412 107.784 71.9558 108.669 72.0505Z" fill="#EF5B9B"/>
<path d="M59.5244 129.224V105.917C59.5244 103.832 57.8375 102.141 55.7566 102.141C53.6757 102.141 51.9888 103.832 51.9888 105.917V129.224C51.9888 131.309 53.6757 133 55.7566 133C57.8375 133 59.5244 131.309 59.5244 129.224Z" fill="#FEE443"/>
<path d="M74.335 129.224V105.917C74.335 103.832 72.6481 102.141 70.5672 102.141C68.4863 102.141 66.7994 103.832 66.7994 105.917V129.224C66.7994 131.309 68.4863 133 70.5672 133C72.6481 133 74.335 131.309 74.335 129.224Z" fill="#FEE443"/>
<path d="M68.7413 103.314C70.7551 103.664 72.6711 102.312 73.0207 100.294C73.3704 98.2759 72.0213 96.3559 70.0075 96.0055L6.96494 85.0359C4.95115 84.6855 3.0352 86.0375 2.68555 88.0556C2.3359 90.0737 3.68496 91.9938 5.69874 92.3442L68.7413 103.314Z" fill="#EAEAEA"/>
<path d="M62.6383 94.6936C66.8892 95.4332 70.9335 92.5797 71.6715 88.32C72.4095 84.0603 69.5618 80.0076 65.3109 79.2679L10.3695 69.708C6.11866 68.9683 2.07437 71.8219 1.33635 76.0816C0.598334 80.3413 3.44606 84.394 7.69694 85.1337L62.6383 94.6936Z" fill="#EAEAEA"/>
<path d="M71.7861 114.399C89.535 114.399 103.923 99.9795 103.923 82.1925C103.923 64.4055 89.535 49.9862 71.7861 49.9862C54.0373 49.9862 39.6489 64.4055 39.6489 82.1925C39.6489 99.9795 54.0373 114.399 71.7861 114.399Z" fill="#EAEAEA"/>
<path d="M78.6609 61.3127C95.5557 61.3127 109.252 47.5874 109.252 30.6564C109.252 13.7253 95.5557 0 78.6609 0C61.7662 0 48.0703 13.7253 48.0703 30.6564C48.0703 47.5874 61.7662 61.3127 78.6609 61.3127Z" fill="#EAEAEA"/>
<path d="M80.4475 32.9727H72.3383C61.4784 32.9727 52.6748 41.7952 52.6748 52.6784V69.947C52.6748 80.8302 61.4784 89.6527 72.3383 89.6527H80.4475C91.3073 89.6527 100.111 80.8302 100.111 69.947V52.6784C100.111 41.7952 91.3073 32.9727 80.4475 32.9727Z" fill="#EAEAEA"/>
<path d="M72.0592 110.794C74.073 111.145 75.9889 109.793 76.3386 107.775C76.6882 105.756 75.3392 103.836 73.3254 103.486L10.2828 92.5164C8.26903 92.166 6.35307 93.518 6.00342 95.5361C5.65377 97.5542 7.00283 99.4743 9.01661 99.8247L72.0592 110.794Z" fill="#EAEAEA"/>
<path d="M57.8113 116.401C82.0114 116.401 101.629 104.891 101.629 90.6913C101.629 76.492 82.0114 64.9812 57.8113 64.9812C33.6112 64.9812 13.9932 76.492 13.9932 90.6913C13.9932 104.891 33.6112 116.401 57.8113 116.401Z" fill="#EAEAEA"/>
<path d="M64.2099 113.919C73.2961 115.5 81.9408 109.4 83.5184 100.294C85.0961 91.1882 79.0092 82.5249 69.923 80.9439L32.4919 74.4308C23.4057 72.8498 14.7609 78.9498 13.1833 88.0555C11.6057 97.1613 17.6926 105.825 26.7788 107.406L64.2099 113.919Z" fill="#EAEAEA"/>
<path d="M121.301 25.8016H102.608C100.308 25.8016 98.4424 27.6708 98.4424 29.9766V33.218C98.4424 35.5237 100.308 37.3929 102.608 37.3929H121.301C123.602 37.3929 125.467 35.5237 125.467 33.218V29.9766C125.467 27.6708 123.602 25.8016 121.301 25.8016Z" fill="#FCC844"/>
<path d="M83.7657 31.5985C86.3416 31.5985 88.4298 29.5058 88.4298 26.9244C88.4298 24.3429 86.3416 22.2503 83.7657 22.2503C81.1898 22.2503 79.1016 24.3429 79.1016 26.9244C79.1016 29.5058 81.1898 31.5985 83.7657 31.5985Z" fill="#6C421A"/>
<path d="M125.467 24.6801H102.21C100.129 24.6801 98.4424 26.3706 98.4424 28.456C98.4424 30.5413 100.129 32.2319 102.21 32.2319H125.467C127.548 32.2319 129.235 30.5413 129.235 28.456C129.235 26.3706 127.548 24.6801 125.467 24.6801Z" fill="#FEE443"/>
<path d="M12.7482 84.0096C12.6435 81.5469 12.7202 75.512 16.4198 69.2624C19.3961 64.2343 23.3112 61.4421 25.4009 60.1619L46.7645 51.1908C55.2353 47.6333 65.0689 51.6691 68.6187 60.157C72.1686 68.6461 68.1414 78.5008 59.6717 82.0582L38.3082 91.0294C35.8836 91.6152 31.1805 92.4072 25.5361 91.0635C18.859 89.4746 14.5664 85.7792 12.7494 84.0109L12.7482 84.0096Z" fill="#A5A4A4"/>
</svg>
