<svg width="1454" height="858" viewBox="0 0 1454 858" fill="none" xmlns="http://www.w3.org/2000/svg">
<path opacity="0.149" d="M53.671 692.276C82.9259 692.276 106.642 671.915 106.642 646.798C106.642 621.681 82.9259 601.319 53.671 601.319C24.416 601.319 0.700195 621.681 0.700195 646.798C0.700195 671.915 24.416 692.276 53.671 692.276Z" fill="#FCDC8F"/>
<path opacity="0.0509804" d="M1341.07 225.303C1376.18 225.303 1404.64 200.869 1404.64 170.728C1404.64 140.588 1376.18 116.154 1341.07 116.154C1305.97 116.154 1277.51 140.588 1277.51 170.728C1277.51 200.869 1305.97 225.303 1341.07 225.303Z" fill="#B73C94"/>
<path opacity="0.0509804" d="M896.224 134.891C910.851 134.891 922.709 124.711 922.709 112.152C922.709 99.5935 910.851 89.4128 896.224 89.4128C881.596 89.4128 869.738 99.5935 869.738 112.152C869.738 124.711 881.596 134.891 896.224 134.891Z" fill="white"/>
<path opacity="0.0705882" d="M138.954 227.577C212.091 227.577 271.381 176.673 271.381 113.88C271.381 51.0875 212.091 0.183899 138.954 0.183899C65.8164 0.183899 6.52686 51.0875 6.52686 113.88C6.52686 176.673 65.8164 227.577 138.954 227.577Z" fill="#FE7098"/>
<path opacity="0.149" d="M1140.74 93.4149C1158.29 93.4149 1172.52 81.198 1172.52 66.1278C1172.52 51.0575 1158.29 38.8406 1140.74 38.8406C1123.18 38.8406 1108.96 51.0575 1108.96 66.1278C1108.96 81.198 1123.18 93.4149 1140.74 93.4149Z" fill="#FCDC8F"/>
<path opacity="0.0509804" d="M511.974 222.21C535.378 222.21 554.351 205.921 554.351 185.827C554.351 165.734 535.378 149.444 511.974 149.444C488.57 149.444 469.598 165.734 469.598 185.827C469.598 205.921 488.57 222.21 511.974 222.21Z" fill="white"/>
<path opacity="0.149" d="M1411.52 858C1434.93 858 1453.9 841.711 1453.9 821.617C1453.9 801.524 1434.93 785.234 1411.52 785.234C1388.12 785.234 1369.15 801.524 1369.15 821.617C1369.15 841.711 1388.12 858 1411.52 858Z" fill="white"/>
<path opacity="0.149" d="M333.992 440.052C351.545 440.052 365.775 427.835 365.775 412.765C365.775 397.695 351.545 385.478 333.992 385.478C316.439 385.478 302.21 397.695 302.21 412.765C302.21 427.835 316.439 440.052 333.992 440.052Z" fill="white"/>
<path opacity="0.0392157" d="M1372 625C1417.23 625 1453.9 592.317 1453.9 552C1453.9 511.683 1417.23 479 1372 479C1326.77 479 1290.1 511.683 1290.1 552C1290.1 592.317 1326.77 625 1372 625Z" fill="#B73C94"/>
</svg>
