<svg width="1172" height="369" viewBox="0 0 1172 369" fill="none" xmlns="http://www.w3.org/2000/svg">
<rect x="91" width="1000" height="369" fill="url(#paint0_linear_0_1)"/>
<path d="M925.156 228.003C850.513 228.003 790.003 286.052 790.003 357.66C790.003 429.268 850.513 487.317 925.156 487.317C999.8 487.317 1060.31 429.268 1060.31 357.66C1060.31 286.052 999.8 228.003 925.156 228.003V228.003ZM925.156 419.861C889.348 419.861 860.319 392.012 860.319 357.66C860.319 323.308 889.348 295.46 925.156 295.46C960.965 295.46 989.994 323.308 989.994 357.66C989.994 392.012 960.965 419.861 925.156 419.861V419.861Z" fill="#EAEAEA"/>
<path d="M860.319 357.66H790C790 393.468 805.13 425.886 829.593 449.348L879.315 401.649C867.579 390.393 860.316 374.839 860.316 357.66H860.319Z" fill="#CF5A57"/>
<path d="M925.156 295.46V228C887.83 228 854.038 242.515 829.581 265.983L879.303 313.683C891.036 302.424 907.249 295.457 925.156 295.457V295.46Z" fill="#CF5A57"/>
<path d="M989.992 357.66H1060.31C1060.31 321.86 1045.19 289.448 1020.73 265.986L971.011 313.686C982.738 324.942 989.995 340.487 989.995 357.66H989.992Z" fill="#CF5A57"/>
<path d="M102.036 174.73C102.036 174.73 118.704 305.273 335.919 305.274C535.715 305.274 589.891 190.088 589.891 190.088C589.891 190.088 708.721 311.856 856.813 311.856C979.218 311.856 1085.04 190.088 1085.04 190.088" stroke="black" stroke-width="2"/>
<ellipse cx="13.6119" cy="13.223" rx="13.6119" ry="13.223" transform="matrix(0.969164 -0.246418 0.232733 0.972541 97 195.802)" fill="url(#paint1_radial_0_1)"/>
<ellipse cx="13.9016" cy="13.223" rx="13.9016" ry="13.223" transform="matrix(0.969164 -0.246418 0.232733 0.972541 114.171 231.188)" fill="url(#paint2_radial_0_1)"/>
<ellipse cx="13.6119" cy="13.223" rx="13.6119" ry="13.223" transform="matrix(0.969164 -0.246418 0.232733 0.972541 146.996 256.708)" fill="url(#paint3_radial_0_1)"/>
<ellipse cx="13.6119" cy="13.223" rx="13.6119" ry="13.223" transform="matrix(0.969164 -0.246418 0.232733 0.972541 179.828 274.621)" fill="url(#paint4_radial_0_1)"/>
<ellipse cx="14.1912" cy="13.223" rx="14.1912" ry="13.223" transform="matrix(0.969164 -0.246418 0.232733 0.972541 218.924 288.027)" fill="url(#paint5_radial_0_1)"/>
<ellipse cx="14.1912" cy="13.223" rx="14.1912" ry="13.223" transform="matrix(0.969164 -0.246418 0.232733 0.972541 259.588 296.495)" fill="url(#paint6_radial_0_1)"/>
<ellipse cx="13.9016" cy="13.223" rx="13.9016" ry="13.223" transform="matrix(0.969164 -0.246418 0.232733 0.972541 297.132 298.703)" fill="url(#paint7_radial_0_1)"/>
<ellipse cx="13.9016" cy="13.223" rx="13.9016" ry="13.223" transform="matrix(0.969164 -0.246418 0.232733 0.972541 334.676 297.947)" fill="url(#paint8_radial_0_1)"/>
<ellipse cx="13.9016" cy="13.223" rx="13.9016" ry="13.223" transform="matrix(0.969164 -0.246418 0.232733 0.972541 378.483 293.969)" fill="url(#paint9_radial_0_1)"/>
<ellipse cx="13.9016" cy="13.223" rx="13.9016" ry="13.223" transform="matrix(0.969164 -0.246418 0.232733 0.972541 422.293 286.895)" fill="url(#paint10_radial_0_1)"/>
<ellipse cx="13.9016" cy="13.223" rx="13.9016" ry="13.223" transform="matrix(0.969164 -0.246418 0.232733 0.972541 567.877 194.187)" fill="url(#paint11_radial_0_1)"/>
<ellipse cx="13.9016" cy="13.223" rx="13.9016" ry="13.223" transform="matrix(0.969164 -0.246418 0.232733 0.972541 539.688 222.616)" fill="url(#paint12_radial_0_1)"/>
<ellipse cx="13.9016" cy="13.223" rx="13.9016" ry="13.223" transform="matrix(0.969164 -0.246418 0.232733 0.972541 506.807 251.14)" fill="url(#paint13_radial_0_1)"/>
<ellipse cx="13.9016" cy="13.223" rx="13.9016" ry="13.223" transform="matrix(0.969164 -0.246418 0.232733 0.972541 466.111 272.082)" fill="url(#paint14_radial_0_1)"/>
<ellipse cx="13.6995" cy="13.9346" rx="13.6995" ry="13.9346" transform="matrix(0.969164 -0.246418 0.232733 0.972541 598.298 210.004)" fill="url(#paint15_radial_0_1)"/>
<ellipse cx="13.991" cy="13.9346" rx="13.991" ry="13.9346" transform="matrix(0.969164 -0.246418 0.232733 0.972541 629.064 230.954)" fill="url(#paint16_radial_0_1)"/>
<ellipse cx="13.6995" cy="13.9346" rx="13.6995" ry="13.9346" transform="matrix(0.969164 -0.246418 0.232733 0.972541 662.211 251.961)" fill="url(#paint17_radial_0_1)"/>
<ellipse cx="13.6995" cy="13.9346" rx="13.6995" ry="13.9346" transform="matrix(0.969164 -0.246418 0.232733 0.972541 696.937 269.859)" fill="url(#paint18_radial_0_1)"/>
<ellipse cx="14.2825" cy="13.9346" rx="14.2825" ry="13.9346" transform="matrix(0.969164 -0.246418 0.232733 0.972541 731.663 286.416)" fill="url(#paint19_radial_0_1)"/>
<ellipse cx="14.2825" cy="13.9346" rx="14.2825" ry="13.9346" transform="matrix(0.969164 -0.246418 0.232733 0.972541 766.389 299.432)" fill="url(#paint20_radial_0_1)"/>
<ellipse cx="13.991" cy="13.9346" rx="13.991" ry="13.9346" transform="matrix(0.969164 -0.246418 0.232733 0.972541 805.291 307.004)" fill="url(#paint21_radial_0_1)"/>
<ellipse cx="13.991" cy="13.9346" rx="13.991" ry="13.9346" transform="matrix(0.969164 -0.246418 0.232733 0.972541 843.174 306.635)" fill="url(#paint22_radial_0_1)"/>
<ellipse cx="13.991" cy="13.9346" rx="13.991" ry="13.9346" transform="matrix(0.969164 -0.246418 0.232733 0.972541 887.337 302.951)" fill="url(#paint23_radial_0_1)"/>
<ellipse cx="13.991" cy="13.9346" rx="13.991" ry="13.9346" transform="matrix(0.969164 -0.246418 0.232733 0.972541 928.968 289.526)" fill="url(#paint24_radial_0_1)"/>
<ellipse cx="13.991" cy="13.9346" rx="13.991" ry="13.9346" transform="matrix(0.969164 -0.246418 0.232733 0.972541 1063.14 196.787)" fill="url(#paint25_radial_0_1)"/>
<ellipse cx="13.991" cy="13.9346" rx="13.991" ry="13.9346" transform="matrix(0.969164 -0.246418 0.232733 0.972541 1029.99 222.819)" fill="url(#paint26_radial_0_1)"/>
<ellipse cx="13.991" cy="13.9346" rx="13.991" ry="13.9346" transform="matrix(0.969164 -0.246418 0.232733 0.972541 1003.16 248.851)" fill="url(#paint27_radial_0_1)"/>
<ellipse cx="13.991" cy="13.9346" rx="13.991" ry="13.9346" transform="matrix(0.969164 -0.246418 0.232733 0.972541 968.43 270.002)" fill="url(#paint28_radial_0_1)"/>
<g filter="url(#filter0_d_0_1)">
<path d="M91.9549 143.989C92.8178 143.347 93.8649 143 94.9406 143H1077.61C1078.69 143 1079.74 143.351 1080.61 143.999L1149.99 195.999C1153.84 198.881 1151.8 205 1146.99 205H25.0896C20.2755 205 18.2424 198.864 22.1039 195.989L91.9549 143.989Z" fill="url(#paint29_linear_0_1)"/>
</g>
<path d="M97.9437 142.112C98.2964 141.827 98.7357 141.67 99.1894 141.667L1068.39 136.004C1068.87 136.002 1069.33 136.168 1069.69 136.473L1132.79 189.468C1134.22 190.669 1133.38 193 1131.51 193H40.655C38.7696 193 37.9314 190.63 39.3976 189.445L97.9437 142.112Z" fill="url(#paint30_linear_0_1)"/>
<defs>
<filter id="filter0_d_0_1" x="0.0800781" y="133" width="1171.92" height="102" filterUnits="userSpaceOnUse" color-interpolation-filters="sRGB">
<feFlood flood-opacity="0" result="BackgroundImageFix"/>
<feColorMatrix in="SourceAlpha" type="matrix" values="0 0 0 0 0 0 0 0 0 0 0 0 0 0 0 0 0 0 127 0" result="hardAlpha"/>
<feOffset dy="10"/>
<feGaussianBlur stdDeviation="10"/>
<feComposite in2="hardAlpha" operator="out"/>
<feColorMatrix type="matrix" values="0 0 0 0 0 0 0 0 0 0 0 0 0 0 0 0 0 0 0.1 0"/>
<feBlend mode="normal" in2="BackgroundImageFix" result="effect1_dropShadow_0_1"/>
<feBlend mode="normal" in="SourceGraphic" in2="effect1_dropShadow_0_1" result="shape"/>
</filter>
<linearGradient id="paint0_linear_0_1" x1="591" y1="-3.73539e-08" x2="591.463" y2="590" gradientUnits="userSpaceOnUse">
<stop offset="0.364583" stop-color="#3FC0DD"/>
<stop offset="1" stop-color="#0D387C"/>
</linearGradient>
<radialGradient id="paint1_radial_0_1" cx="0" cy="0" r="1" gradientUnits="userSpaceOnUse" gradientTransform="translate(13.6119 13.223) rotate(90.7844) scale(16.1677 16.7069)">
<stop offset="0.182292" stop-color="#FFEFC8"/>
<stop offset="1" stop-color="#F99B57" stop-opacity="0.65"/>
</radialGradient>
<radialGradient id="paint2_radial_0_1" cx="0" cy="0" r="1" gradientUnits="userSpaceOnUse" gradientTransform="translate(13.9016 13.223) rotate(90.8011) scale(16.1678 17.0623)">
<stop offset="0.182292" stop-color="#FFEFC8"/>
<stop offset="1" stop-color="#F99B57" stop-opacity="0.65"/>
</radialGradient>
<radialGradient id="paint3_radial_0_1" cx="0" cy="0" r="1" gradientUnits="userSpaceOnUse" gradientTransform="translate(13.6119 13.223) rotate(90.7844) scale(16.1677 16.7069)">
<stop offset="0.182292" stop-color="#FFEFC8"/>
<stop offset="1" stop-color="#F99B57" stop-opacity="0.65"/>
</radialGradient>
<radialGradient id="paint4_radial_0_1" cx="0" cy="0" r="1" gradientUnits="userSpaceOnUse" gradientTransform="translate(13.6119 13.223) rotate(90.7844) scale(16.1677 16.7069)">
<stop offset="0.182292" stop-color="#FFEFC8"/>
<stop offset="1" stop-color="#F99B57" stop-opacity="0.65"/>
</radialGradient>
<radialGradient id="paint5_radial_0_1" cx="0" cy="0" r="1" gradientUnits="userSpaceOnUse" gradientTransform="translate(14.1912 13.223) rotate(90.8178) scale(16.1678 17.4176)">
<stop offset="0.182292" stop-color="#FFEFC8"/>
<stop offset="1" stop-color="#F99B57" stop-opacity="0.65"/>
</radialGradient>
<radialGradient id="paint6_radial_0_1" cx="0" cy="0" r="1" gradientUnits="userSpaceOnUse" gradientTransform="translate(14.1912 13.223) rotate(90.8178) scale(16.1678 17.4176)">
<stop offset="0.182292" stop-color="#FFEFC8"/>
<stop offset="1" stop-color="#F99B57" stop-opacity="0.65"/>
</radialGradient>
<radialGradient id="paint7_radial_0_1" cx="0" cy="0" r="1" gradientUnits="userSpaceOnUse" gradientTransform="translate(13.9016 13.223) rotate(90.8011) scale(16.1678 17.0623)">
<stop offset="0.182292" stop-color="#FFEFC8"/>
<stop offset="1" stop-color="#F99B57" stop-opacity="0.65"/>
</radialGradient>
<radialGradient id="paint8_radial_0_1" cx="0" cy="0" r="1" gradientUnits="userSpaceOnUse" gradientTransform="translate(13.9016 13.223) rotate(90.8011) scale(16.1678 17.0623)">
<stop offset="0.182292" stop-color="#FFEFC8"/>
<stop offset="1" stop-color="#F99B57" stop-opacity="0.65"/>
</radialGradient>
<radialGradient id="paint9_radial_0_1" cx="0" cy="0" r="1" gradientUnits="userSpaceOnUse" gradientTransform="translate(13.9016 13.223) rotate(90.8011) scale(16.1678 17.0623)">
<stop offset="0.182292" stop-color="#FFEFC8"/>
<stop offset="1" stop-color="#F99B57" stop-opacity="0.65"/>
</radialGradient>
<radialGradient id="paint10_radial_0_1" cx="0" cy="0" r="1" gradientUnits="userSpaceOnUse" gradientTransform="translate(13.9016 13.223) rotate(90.8011) scale(16.1678 17.0623)">
<stop offset="0.182292" stop-color="#FFEFC8"/>
<stop offset="1" stop-color="#F99B57" stop-opacity="0.65"/>
</radialGradient>
<radialGradient id="paint11_radial_0_1" cx="0" cy="0" r="1" gradientUnits="userSpaceOnUse" gradientTransform="translate(13.9016 13.223) rotate(90.8011) scale(16.1678 17.0623)">
<stop offset="0.182292" stop-color="#FFEFC8"/>
<stop offset="1" stop-color="#F99B57" stop-opacity="0.65"/>
</radialGradient>
<radialGradient id="paint12_radial_0_1" cx="0" cy="0" r="1" gradientUnits="userSpaceOnUse" gradientTransform="translate(13.9016 13.223) rotate(90.8011) scale(16.1678 17.0623)">
<stop offset="0.182292" stop-color="#FFEFC8"/>
<stop offset="1" stop-color="#F99B57" stop-opacity="0.65"/>
</radialGradient>
<radialGradient id="paint13_radial_0_1" cx="0" cy="0" r="1" gradientUnits="userSpaceOnUse" gradientTransform="translate(13.9016 13.223) rotate(90.8011) scale(16.1678 17.0623)">
<stop offset="0.182292" stop-color="#FFEFC8"/>
<stop offset="1" stop-color="#F99B57" stop-opacity="0.65"/>
</radialGradient>
<radialGradient id="paint14_radial_0_1" cx="0" cy="0" r="1" gradientUnits="userSpaceOnUse" gradientTransform="translate(13.9016 13.223) rotate(90.8011) scale(16.1678 17.0623)">
<stop offset="0.182292" stop-color="#FFEFC8"/>
<stop offset="1" stop-color="#F99B57" stop-opacity="0.65"/>
</radialGradient>
<radialGradient id="paint15_radial_0_1" cx="0" cy="0" r="1" gradientUnits="userSpaceOnUse" gradientTransform="translate(13.6995 13.9346) rotate(90.7491) scale(17.0377 16.8145)">
<stop offset="0.182292" stop-color="#FFEFC8"/>
<stop offset="1" stop-color="#F99B57" stop-opacity="0.65"/>
</radialGradient>
<radialGradient id="paint16_radial_0_1" cx="0" cy="0" r="1" gradientUnits="userSpaceOnUse" gradientTransform="translate(13.991 13.9346) rotate(90.7651) scale(17.0377 17.1722)">
<stop offset="0.182292" stop-color="#FFEFC8"/>
<stop offset="1" stop-color="#F99B57" stop-opacity="0.65"/>
</radialGradient>
<radialGradient id="paint17_radial_0_1" cx="0" cy="0" r="1" gradientUnits="userSpaceOnUse" gradientTransform="translate(13.6995 13.9346) rotate(90.7491) scale(17.0377 16.8145)">
<stop offset="0.182292" stop-color="#FFEFC8"/>
<stop offset="1" stop-color="#F99B57" stop-opacity="0.65"/>
</radialGradient>
<radialGradient id="paint18_radial_0_1" cx="0" cy="0" r="1" gradientUnits="userSpaceOnUse" gradientTransform="translate(13.6995 13.9346) rotate(90.7491) scale(17.0377 16.8145)">
<stop offset="0.182292" stop-color="#FFEFC8"/>
<stop offset="1" stop-color="#F99B57" stop-opacity="0.65"/>
</radialGradient>
<radialGradient id="paint19_radial_0_1" cx="0" cy="0" r="1" gradientUnits="userSpaceOnUse" gradientTransform="translate(14.2825 13.9346) rotate(90.781) scale(17.0378 17.5299)">
<stop offset="0.182292" stop-color="#FFEFC8"/>
<stop offset="1" stop-color="#F99B57" stop-opacity="0.65"/>
</radialGradient>
<radialGradient id="paint20_radial_0_1" cx="0" cy="0" r="1" gradientUnits="userSpaceOnUse" gradientTransform="translate(14.2825 13.9346) rotate(90.781) scale(17.0378 17.5299)">
<stop offset="0.182292" stop-color="#FFEFC8"/>
<stop offset="1" stop-color="#F99B57" stop-opacity="0.65"/>
</radialGradient>
<radialGradient id="paint21_radial_0_1" cx="0" cy="0" r="1" gradientUnits="userSpaceOnUse" gradientTransform="translate(13.991 13.9346) rotate(90.7651) scale(17.0377 17.1722)">
<stop offset="0.182292" stop-color="#FFEFC8"/>
<stop offset="1" stop-color="#F99B57" stop-opacity="0.65"/>
</radialGradient>
<radialGradient id="paint22_radial_0_1" cx="0" cy="0" r="1" gradientUnits="userSpaceOnUse" gradientTransform="translate(13.991 13.9346) rotate(90.7651) scale(17.0377 17.1722)">
<stop offset="0.182292" stop-color="#FFEFC8"/>
<stop offset="1" stop-color="#F99B57" stop-opacity="0.65"/>
</radialGradient>
<radialGradient id="paint23_radial_0_1" cx="0" cy="0" r="1" gradientUnits="userSpaceOnUse" gradientTransform="translate(13.991 13.9346) rotate(90.7651) scale(17.0377 17.1722)">
<stop offset="0.182292" stop-color="#FFEFC8"/>
<stop offset="1" stop-color="#F99B57" stop-opacity="0.65"/>
</radialGradient>
<radialGradient id="paint24_radial_0_1" cx="0" cy="0" r="1" gradientUnits="userSpaceOnUse" gradientTransform="translate(13.991 13.9346) rotate(90.7651) scale(17.0377 17.1722)">
<stop offset="0.182292" stop-color="#FFEFC8"/>
<stop offset="1" stop-color="#F99B57" stop-opacity="0.65"/>
</radialGradient>
<radialGradient id="paint25_radial_0_1" cx="0" cy="0" r="1" gradientUnits="userSpaceOnUse" gradientTransform="translate(13.991 13.9346) rotate(90.7651) scale(17.0377 17.1722)">
<stop offset="0.182292" stop-color="#FFEFC8"/>
<stop offset="1" stop-color="#F99B57" stop-opacity="0.65"/>
</radialGradient>
<radialGradient id="paint26_radial_0_1" cx="0" cy="0" r="1" gradientUnits="userSpaceOnUse" gradientTransform="translate(13.991 13.9346) rotate(90.7651) scale(17.0377 17.1722)">
<stop offset="0.182292" stop-color="#FFEFC8"/>
<stop offset="1" stop-color="#F99B57" stop-opacity="0.65"/>
</radialGradient>
<radialGradient id="paint27_radial_0_1" cx="0" cy="0" r="1" gradientUnits="userSpaceOnUse" gradientTransform="translate(13.991 13.9346) rotate(90.7651) scale(17.0377 17.1722)">
<stop offset="0.182292" stop-color="#FFEFC8"/>
<stop offset="1" stop-color="#F99B57" stop-opacity="0.65"/>
</radialGradient>
<radialGradient id="paint28_radial_0_1" cx="0" cy="0" r="1" gradientUnits="userSpaceOnUse" gradientTransform="translate(13.991 13.9346) rotate(90.7651) scale(17.0377 17.1722)">
<stop offset="0.182292" stop-color="#FFEFC8"/>
<stop offset="1" stop-color="#F99B57" stop-opacity="0.65"/>
</radialGradient>
<linearGradient id="paint29_linear_0_1" x1="586" y1="-132.507" x2="586" y2="205" gradientUnits="userSpaceOnUse">
<stop stop-color="#B73C94"/>
<stop offset="1" stop-color="#088BC1"/>
</linearGradient>
<linearGradient id="paint30_linear_0_1" x1="572.105" y1="-75.1878" x2="572.105" y2="195.551" gradientUnits="userSpaceOnUse">
<stop stop-color="#1D2644" stop-opacity="0.62"/>
<stop offset="1" stop-color="#1D2644" stop-opacity="0.07"/>
</linearGradient>
</defs>
</svg>
