<svg width="1172" height="890" viewBox="0 0 1172 890" fill="none" xmlns="http://www.w3.org/2000/svg">
<rect x="91" y="521" width="1000" height="369" fill="url(#paint0_linear_0_1)"/>
<path d="M96 64H1086V659H96V64Z" fill="#CAD2E5" stroke="#5FC5BF" stroke-width="10"/>
<path d="M925.156 749.003C850.513 749.003 790.003 807.052 790.003 878.66C790.003 950.268 850.513 1008.32 925.156 1008.32C999.8 1008.32 1060.31 950.268 1060.31 878.66C1060.31 807.052 999.8 749.003 925.156 749.003V749.003ZM925.156 940.861C889.348 940.861 860.319 913.012 860.319 878.66C860.319 844.308 889.348 816.46 925.156 816.46C960.965 816.46 989.994 844.308 989.994 878.66C989.994 913.012 960.965 940.861 925.156 940.861V940.861Z" fill="#EAEAEA"/>
<path d="M860.319 878.66H790C790 914.468 805.13 946.886 829.593 970.348L879.315 922.649C867.579 911.393 860.316 895.839 860.316 878.66H860.319Z" fill="#CF5A57"/>
<path d="M925.156 816.46V749C887.83 749 854.038 763.515 829.581 786.983L879.303 834.683C891.036 823.424 907.249 816.457 925.156 816.457V816.46Z" fill="#CF5A57"/>
<path d="M989.992 878.66H1060.31C1060.31 842.86 1045.19 810.448 1020.73 786.986L971.011 834.686C982.738 845.942 989.995 861.487 989.995 878.66H989.992Z" fill="#CF5A57"/>
<path d="M102.036 695.73C102.036 695.73 118.704 826.273 335.919 826.274C535.715 826.274 589.891 711.088 589.891 711.088C589.891 711.088 708.721 832.856 856.813 832.856C979.218 832.856 1085.04 711.088 1085.04 711.088" stroke="black" stroke-width="2"/>
<ellipse cx="13.6119" cy="13.223" rx="13.6119" ry="13.223" transform="matrix(0.969164 -0.246418 0.232733 0.972541 97 716.802)" fill="url(#paint1_radial_0_1)"/>
<ellipse cx="13.9016" cy="13.223" rx="13.9016" ry="13.223" transform="matrix(0.969164 -0.246418 0.232733 0.972541 114.171 752.188)" fill="url(#paint2_radial_0_1)"/>
<ellipse cx="13.6119" cy="13.223" rx="13.6119" ry="13.223" transform="matrix(0.969164 -0.246418 0.232733 0.972541 146.996 777.708)" fill="url(#paint3_radial_0_1)"/>
<ellipse cx="13.6119" cy="13.223" rx="13.6119" ry="13.223" transform="matrix(0.969164 -0.246418 0.232733 0.972541 179.828 795.621)" fill="url(#paint4_radial_0_1)"/>
<ellipse cx="14.1912" cy="13.223" rx="14.1912" ry="13.223" transform="matrix(0.969164 -0.246418 0.232733 0.972541 218.924 809.027)" fill="url(#paint5_radial_0_1)"/>
<ellipse cx="14.1912" cy="13.223" rx="14.1912" ry="13.223" transform="matrix(0.969164 -0.246418 0.232733 0.972541 259.588 817.495)" fill="url(#paint6_radial_0_1)"/>
<ellipse cx="13.9016" cy="13.223" rx="13.9016" ry="13.223" transform="matrix(0.969164 -0.246418 0.232733 0.972541 297.132 819.703)" fill="url(#paint7_radial_0_1)"/>
<ellipse cx="13.9016" cy="13.223" rx="13.9016" ry="13.223" transform="matrix(0.969164 -0.246418 0.232733 0.972541 334.676 818.947)" fill="url(#paint8_radial_0_1)"/>
<ellipse cx="13.9016" cy="13.223" rx="13.9016" ry="13.223" transform="matrix(0.969164 -0.246418 0.232733 0.972541 378.483 814.969)" fill="url(#paint9_radial_0_1)"/>
<ellipse cx="13.9016" cy="13.223" rx="13.9016" ry="13.223" transform="matrix(0.969164 -0.246418 0.232733 0.972541 422.293 807.895)" fill="url(#paint10_radial_0_1)"/>
<ellipse cx="13.9016" cy="13.223" rx="13.9016" ry="13.223" transform="matrix(0.969164 -0.246418 0.232733 0.972541 567.877 715.187)" fill="url(#paint11_radial_0_1)"/>
<ellipse cx="13.9016" cy="13.223" rx="13.9016" ry="13.223" transform="matrix(0.969164 -0.246418 0.232733 0.972541 539.688 743.616)" fill="url(#paint12_radial_0_1)"/>
<ellipse cx="13.9016" cy="13.223" rx="13.9016" ry="13.223" transform="matrix(0.969164 -0.246418 0.232733 0.972541 506.807 772.14)" fill="url(#paint13_radial_0_1)"/>
<ellipse cx="13.9016" cy="13.223" rx="13.9016" ry="13.223" transform="matrix(0.969164 -0.246418 0.232733 0.972541 466.111 793.082)" fill="url(#paint14_radial_0_1)"/>
<ellipse cx="13.6995" cy="13.9346" rx="13.6995" ry="13.9346" transform="matrix(0.969164 -0.246418 0.232733 0.972541 598.298 731.004)" fill="url(#paint15_radial_0_1)"/>
<ellipse cx="13.991" cy="13.9346" rx="13.991" ry="13.9346" transform="matrix(0.969164 -0.246418 0.232733 0.972541 629.064 751.954)" fill="url(#paint16_radial_0_1)"/>
<ellipse cx="13.6995" cy="13.9346" rx="13.6995" ry="13.9346" transform="matrix(0.969164 -0.246418 0.232733 0.972541 662.211 772.961)" fill="url(#paint17_radial_0_1)"/>
<ellipse cx="13.6995" cy="13.9346" rx="13.6995" ry="13.9346" transform="matrix(0.969164 -0.246418 0.232733 0.972541 696.937 790.859)" fill="url(#paint18_radial_0_1)"/>
<ellipse cx="14.2825" cy="13.9346" rx="14.2825" ry="13.9346" transform="matrix(0.969164 -0.246418 0.232733 0.972541 731.663 807.416)" fill="url(#paint19_radial_0_1)"/>
<ellipse cx="14.2825" cy="13.9346" rx="14.2825" ry="13.9346" transform="matrix(0.969164 -0.246418 0.232733 0.972541 766.389 820.432)" fill="url(#paint20_radial_0_1)"/>
<ellipse cx="13.991" cy="13.9346" rx="13.991" ry="13.9346" transform="matrix(0.969164 -0.246418 0.232733 0.972541 805.291 828.004)" fill="url(#paint21_radial_0_1)"/>
<ellipse cx="13.991" cy="13.9346" rx="13.991" ry="13.9346" transform="matrix(0.969164 -0.246418 0.232733 0.972541 843.174 827.635)" fill="url(#paint22_radial_0_1)"/>
<ellipse cx="13.991" cy="13.9346" rx="13.991" ry="13.9346" transform="matrix(0.969164 -0.246418 0.232733 0.972541 887.337 823.951)" fill="url(#paint23_radial_0_1)"/>
<ellipse cx="13.991" cy="13.9346" rx="13.991" ry="13.9346" transform="matrix(0.969164 -0.246418 0.232733 0.972541 928.968 810.526)" fill="url(#paint24_radial_0_1)"/>
<ellipse cx="13.991" cy="13.9346" rx="13.991" ry="13.9346" transform="matrix(0.969164 -0.246418 0.232733 0.972541 1063.14 717.787)" fill="url(#paint25_radial_0_1)"/>
<ellipse cx="13.991" cy="13.9346" rx="13.991" ry="13.9346" transform="matrix(0.969164 -0.246418 0.232733 0.972541 1029.99 743.819)" fill="url(#paint26_radial_0_1)"/>
<ellipse cx="13.991" cy="13.9346" rx="13.991" ry="13.9346" transform="matrix(0.969164 -0.246418 0.232733 0.972541 1003.16 769.851)" fill="url(#paint27_radial_0_1)"/>
<ellipse cx="13.991" cy="13.9346" rx="13.991" ry="13.9346" transform="matrix(0.969164 -0.246418 0.232733 0.972541 968.43 791.002)" fill="url(#paint28_radial_0_1)"/>
<g filter="url(#filter0_d_0_1)">
<path d="M91.9549 664.989C92.8178 664.347 93.8649 664 94.9406 664H1077.61C1078.69 664 1079.74 664.351 1080.61 664.999L1149.99 716.999C1153.84 719.881 1151.8 726 1146.99 726H25.0896C20.2755 726 18.2424 719.864 22.1039 716.989L91.9549 664.989Z" fill="url(#paint29_linear_0_1)"/>
</g>
<path d="M97.9437 663.112C98.2964 662.827 98.7357 662.67 99.1894 662.667L1068.39 657.004C1068.87 657.002 1069.33 657.168 1069.69 657.473L1132.79 710.468C1134.22 711.669 1133.38 714 1131.51 714H40.655C38.7696 714 37.9314 711.63 39.3976 710.445L97.9437 663.112Z" fill="url(#paint30_linear_0_1)"/>
<rect x="65" width="1048" height="115" rx="10" fill="#1D2644"/>
<path d="M1058.86 608.149H1053.57V634.983H1058.86V608.149Z" fill="#F05253"/>
<path d="M1017.82 609.685H1012.53V636.519H1017.82V609.685Z" fill="#F05253"/>
<g filter="url(#filter1_d_0_1)">
<path d="M1094 655.841C1094.01 663.631 1087.5 670.214 1076.94 675.481C1066.39 680.646 1051.78 684.494 1035.69 684.426C1019.6 684.494 1005 680.644 994.443 675.481C983.883 670.214 977.377 663.629 977.39 655.841C977.413 648.124 983.816 639.521 994.327 632.241C1004.83 625.063 1019.44 619.204 1035.69 619.336C1051.95 619.204 1066.56 625.063 1077.06 632.241C1087.57 639.521 1093.97 648.124 1094 655.841Z" fill="#F05253"/>
<path d="M1070.1 639.204H1001.28C988.087 639.204 977.39 650.709 977.39 664.9C977.39 679.092 988.087 690.596 1001.28 690.596H1070.1C1083.3 690.596 1094 679.092 1094 664.9C1094 650.709 1083.3 639.204 1070.1 639.204Z" fill="#F05253"/>
</g>
<path d="M1084.37 670.173C1095.82 663.353 1110.22 667.805 1116.57 680.128" stroke="#F05253" stroke-width="15" stroke-miterlimit="10" stroke-linecap="round"/>
<path d="M1080.17 680.567C1093.05 677.974 1105.2 685.875 1107.35 698.232" stroke="#F05253" stroke-width="15" stroke-miterlimit="10" stroke-linecap="round"/>
<path d="M1066.26 680.409C1079.17 682.764 1088.13 694.068 1086.3 705.68" stroke="#F05253" stroke-width="15" stroke-miterlimit="10" stroke-linecap="round"/>
<path d="M986.808 668.271C975.352 661.45 960.949 665.902 954.607 678.226" stroke="#F05253" stroke-width="15" stroke-miterlimit="10" stroke-linecap="round"/>
<path d="M991.001 678.665C978.13 676.072 965.974 683.973 963.822 696.33" stroke="#F05253" stroke-width="15" stroke-miterlimit="10" stroke-linecap="round"/>
<path d="M1004.92 678.507C992.005 680.862 983.041 692.166 984.873 703.778" stroke="#F05253" stroke-width="15" stroke-miterlimit="10" stroke-linecap="round"/>
<path d="M1084.34 647.044C1097.44 647.044 1108.04 635.649 1108.04 621.564" stroke="#F05253" stroke-width="18" stroke-miterlimit="10" stroke-linecap="round"/>
<path d="M987.042 647.044C973.948 647.044 963.351 635.649 963.351 621.564" stroke="#F05253" stroke-width="18" stroke-miterlimit="10" stroke-linecap="round"/>
<path d="M971.717 588L962.697 606.763L953.879 588.804C949.135 592.538 946 598.994 946 606.333C946 617.889 953.767 627.255 963.35 627.255C972.932 627.255 980.7 617.887 980.7 606.333C980.7 598.437 977.07 591.562 971.715 588H971.717Z" fill="#F05253"/>
<path d="M1115.72 588L1106.7 606.763L1097.88 588.804C1093.14 592.538 1090 598.994 1090 606.333C1090 617.889 1097.77 627.255 1107.35 627.255C1116.93 627.255 1124.7 617.887 1124.7 606.333C1124.7 598.437 1121.07 591.562 1115.72 588H1115.72Z" fill="#F05253"/>
<path d="M1015.17 616.596C1019.63 616.596 1023.24 612.713 1023.24 607.923C1023.24 603.133 1019.63 599.25 1015.17 599.25C1010.72 599.25 1007.11 603.133 1007.11 607.923C1007.11 612.713 1010.72 616.596 1015.17 616.596Z" fill="#6C421A"/>
<path d="M1056.21 616.505C1060.67 616.505 1064.28 612.622 1064.28 607.832C1064.28 603.042 1060.67 599.159 1056.21 599.159C1051.76 599.159 1048.15 603.042 1048.15 607.832C1048.15 612.622 1051.76 616.505 1056.21 616.505Z" fill="#6C421A"/>
<path d="M254.763 702.354L228.521 686.478C227.182 685.668 225.496 685.488 224.016 685.996L195.008 695.956C191.278 697.235 187.415 694.109 188.471 690.665L196.675 663.87C197.095 662.503 196.725 661.02 195.692 659.91L175.419 638.141C172.813 635.342 174.863 631.172 178.888 631.084L210.2 630.399C211.798 630.364 213.255 629.629 214.096 628.433L230.574 605.02C232.692 602.01 237.822 602.559 239.255 605.949L250.403 632.32C250.971 633.667 252.24 634.692 253.794 635.066L284.251 642.365C288.167 643.303 289.288 647.813 286.148 649.996L261.726 666.98C260.479 667.846 259.805 669.217 259.926 670.642L262.272 698.566C262.575 702.156 258.137 704.394 254.763 702.354V702.354Z" fill="#EF5B9B"/>
<path d="M250.945 694.493L228.75 681.067C227.616 680.382 226.193 680.229 224.94 680.659L200.405 689.082C197.252 690.166 193.983 687.521 194.876 684.607L201.816 661.944C202.171 660.788 201.86 659.535 200.984 658.595L183.837 640.182C181.632 637.815 183.366 634.289 186.77 634.214L213.255 633.635C214.607 633.605 215.84 632.984 216.552 631.972L230.489 612.169C232.28 609.623 236.619 610.087 237.832 612.955L247.26 635.26C247.742 636.399 248.815 637.267 250.13 637.583L275.892 643.756C279.204 644.55 280.152 648.364 277.496 650.21L256.839 664.575C255.785 665.308 255.215 666.467 255.317 667.672L257.302 691.291C257.558 694.328 253.804 696.219 250.951 694.494L250.945 694.493Z" fill="#F498BC"/>
<path d="M233.201 621.483C234.086 621.578 234.871 621.017 234.955 620.23C235.039 619.443 234.391 618.729 233.506 618.634C232.621 618.539 231.836 619.1 231.752 619.887C231.668 620.674 232.316 621.388 233.201 621.483Z" fill="#EF5B9B"/>
<path d="M232.35 629.432C233.234 629.527 234.02 628.966 234.104 628.179C234.188 627.393 233.54 626.678 232.655 626.583C231.77 626.489 230.985 627.05 230.901 627.836C230.816 628.623 231.465 629.338 232.35 629.432Z" fill="#EF5B9B"/>
<path d="M231.499 637.382C232.384 637.477 233.169 636.915 233.253 636.129C233.338 635.342 232.689 634.627 231.804 634.533C230.92 634.438 230.134 634.999 230.05 635.786C229.966 636.573 230.615 637.287 231.499 637.382Z" fill="#EF5B9B"/>
<path d="M270.595 649.394C271.48 649.488 272.265 648.927 272.349 648.141C272.433 647.354 271.785 646.639 270.9 646.545C270.015 646.45 269.23 647.011 269.146 647.798C269.062 648.584 269.71 649.299 270.595 649.394Z" fill="#EF5B9B"/>
<path d="M261.841 650.98C262.725 651.075 263.511 650.514 263.595 649.727C263.679 648.94 263.03 648.225 262.146 648.131C261.261 648.036 260.476 648.597 260.391 649.384C260.307 650.171 260.956 650.885 261.841 650.98Z" fill="#EF5B9B"/>
<path d="M253.089 652.565C253.974 652.659 254.759 652.098 254.843 651.311C254.928 650.525 254.279 649.81 253.394 649.715C252.51 649.621 251.724 650.182 251.64 650.968C251.556 651.755 252.205 652.47 253.089 652.565Z" fill="#EF5B9B"/>
<path d="M200.286 644.39C201.17 644.484 201.956 643.923 202.04 643.136C202.124 642.35 201.476 641.635 200.591 641.54C199.706 641.446 198.921 642.007 198.837 642.793C198.752 643.58 199.401 644.295 200.286 644.39Z" fill="#EF5B9B"/>
<path d="M208.506 647.791C209.391 647.886 210.176 647.325 210.26 646.538C210.345 645.751 209.696 645.037 208.811 644.942C207.927 644.847 207.141 645.408 207.057 646.195C206.973 646.982 207.622 647.697 208.506 647.791Z" fill="#EF5B9B"/>
<path d="M212.915 672.415C213.799 672.51 214.585 671.949 214.669 671.162C214.753 670.375 214.104 669.661 213.22 669.566C212.335 669.471 211.55 670.032 211.466 670.819C211.381 671.606 212.03 672.321 212.915 672.415Z" fill="#EF5B9B"/>
<path d="M207.332 678.559C208.216 678.654 209.002 678.093 209.086 677.306C209.17 676.519 208.521 675.805 207.637 675.71C206.752 675.615 205.967 676.176 205.883 676.963C205.798 677.75 206.447 678.465 207.332 678.559Z" fill="#EF5B9B"/>
<path d="M201.749 684.703C202.634 684.798 203.419 684.237 203.503 683.45C203.588 682.664 202.939 681.949 202.054 681.854C201.17 681.76 200.384 682.321 200.3 683.107C200.216 683.894 200.865 684.609 201.749 684.703Z" fill="#EF5B9B"/>
<path d="M243.62 676.072C244.505 676.167 245.29 675.606 245.375 674.819C245.459 674.032 244.81 673.317 243.925 673.223C243.041 673.128 242.255 673.689 242.171 674.476C242.087 675.263 242.736 675.977 243.62 676.072Z" fill="#EF5B9B"/>
<path d="M247.776 683.259C248.66 683.353 249.446 682.792 249.53 682.006C249.614 681.219 248.965 680.504 248.081 680.41C247.196 680.315 246.411 680.876 246.326 681.663C246.242 682.449 246.891 683.164 247.776 683.259Z" fill="#EF5B9B"/>
<path d="M251.931 690.445C252.816 690.54 253.601 689.979 253.685 689.192C253.769 688.406 253.121 687.691 252.236 687.596C251.351 687.502 250.566 688.063 250.482 688.849C250.398 689.636 251.046 690.351 251.931 690.445Z" fill="#EF5B9B"/>
<path d="M192.669 641.051C193.553 641.145 194.339 640.584 194.423 639.797C194.507 639.011 193.858 638.296 192.974 638.201C192.089 638.107 191.304 638.668 191.22 639.454C191.135 640.241 191.784 640.956 192.669 641.051Z" fill="#EF5B9B"/>
<path d="M143.524 698.224V674.917C143.524 672.832 141.838 671.141 139.757 671.141C137.676 671.141 135.989 672.832 135.989 674.917V698.224C135.989 700.309 137.676 702 139.757 702C141.838 702 143.524 700.309 143.524 698.224Z" fill="#FEE443"/>
<path d="M158.335 698.224V674.917C158.335 672.832 156.648 671.141 154.567 671.141C152.486 671.141 150.799 672.832 150.799 674.917V698.224C150.799 700.309 152.486 702 154.567 702C156.648 702 158.335 700.309 158.335 698.224Z" fill="#FEE443"/>
<path d="M152.741 672.314C154.755 672.664 156.671 671.312 157.021 669.294C157.37 667.276 156.021 665.356 154.008 665.005L90.9649 654.036C88.9512 653.686 87.0352 655.037 86.6855 657.056C86.3359 659.074 87.685 660.994 89.6987 661.344L152.741 672.314Z" fill="#EAEAEA"/>
<path d="M146.638 663.694C150.889 664.433 154.933 661.58 155.672 657.32C156.41 653.06 153.562 649.008 149.311 648.268L94.3695 638.708C90.1187 637.968 86.0744 640.822 85.3364 645.082C84.5983 649.341 87.4461 653.394 91.6969 654.134L146.638 663.694Z" fill="#EAEAEA"/>
<path d="M155.786 683.399C173.535 683.399 187.923 668.979 187.923 651.192C187.923 633.405 173.535 618.986 155.786 618.986C138.037 618.986 123.649 633.405 123.649 651.192C123.649 668.979 138.037 683.399 155.786 683.399Z" fill="#EAEAEA"/>
<path d="M162.661 630.313C179.556 630.313 193.252 616.587 193.252 599.656C193.252 582.725 179.556 569 162.661 569C145.766 569 132.07 582.725 132.07 599.656C132.07 616.587 145.766 630.313 162.661 630.313Z" fill="#EAEAEA"/>
<path d="M164.447 601.973H156.338C145.478 601.973 136.675 610.795 136.675 621.678V638.947C136.675 649.83 145.478 658.653 156.338 658.653H164.447C175.307 658.653 184.111 649.83 184.111 638.947V621.678C184.111 610.795 175.307 601.973 164.447 601.973Z" fill="#EAEAEA"/>
<path d="M156.059 679.794C158.073 680.145 159.989 678.793 160.339 676.775C160.688 674.756 159.339 672.836 157.325 672.486L94.2828 661.516C92.269 661.166 90.3531 662.518 90.0034 664.536C89.6538 666.554 91.0028 668.474 93.0166 668.825L156.059 679.794Z" fill="#EAEAEA"/>
<path d="M141.811 685.401C166.011 685.401 185.629 673.891 185.629 659.691C185.629 645.492 166.011 633.981 141.811 633.981C117.611 633.981 97.9932 645.492 97.9932 659.691C97.9932 673.891 117.611 685.401 141.811 685.401Z" fill="#EAEAEA"/>
<path d="M148.21 682.919C157.296 684.5 165.941 678.4 167.518 669.294C169.096 660.188 163.009 651.525 153.923 649.944L116.492 643.431C107.406 641.85 98.7609 647.95 97.1833 657.056C95.6057 666.161 101.693 674.825 110.779 676.406L148.21 682.919Z" fill="#EAEAEA"/>
<path d="M205.301 594.802H186.608C184.308 594.802 182.442 596.671 182.442 598.977V602.218C182.442 604.524 184.308 606.393 186.608 606.393H205.301C207.602 606.393 209.467 604.524 209.467 602.218V598.977C209.467 596.671 207.602 594.802 205.301 594.802Z" fill="#FCC844"/>
<path d="M167.766 600.598C170.342 600.598 172.43 598.506 172.43 595.924C172.43 593.343 170.342 591.25 167.766 591.25C165.19 591.25 163.102 593.343 163.102 595.924C163.102 598.506 165.19 600.598 167.766 600.598Z" fill="#6C421A"/>
<path d="M209.467 593.68H186.21C184.129 593.68 182.442 595.371 182.442 597.456C182.442 599.541 184.129 601.232 186.21 601.232H209.467C211.548 601.232 213.235 599.541 213.235 597.456C213.235 595.371 211.548 593.68 209.467 593.68Z" fill="#FEE443"/>
<path d="M96.7482 653.01C96.6435 650.547 96.7202 644.512 100.42 638.262C103.396 633.234 107.311 630.442 109.401 629.162L130.764 620.191C139.235 616.633 149.069 620.669 152.619 629.157C156.169 637.646 152.141 647.501 143.672 651.058L122.308 660.029C119.884 660.615 115.181 661.407 109.536 660.064C102.859 658.475 98.5664 654.779 96.7494 653.011L96.7482 653.01Z" fill="#A5A4A4"/>
<defs>
<filter id="filter0_d_0_1" x="0.0800781" y="654" width="1171.92" height="102" filterUnits="userSpaceOnUse" color-interpolation-filters="sRGB">
<feFlood flood-opacity="0" result="BackgroundImageFix"/>
<feColorMatrix in="SourceAlpha" type="matrix" values="0 0 0 0 0 0 0 0 0 0 0 0 0 0 0 0 0 0 127 0" result="hardAlpha"/>
<feOffset dy="10"/>
<feGaussianBlur stdDeviation="10"/>
<feComposite in2="hardAlpha" operator="out"/>
<feColorMatrix type="matrix" values="0 0 0 0 0 0 0 0 0 0 0 0 0 0 0 0 0 0 0.1 0"/>
<feBlend mode="normal" in2="BackgroundImageFix" result="effect1_dropShadow_0_1"/>
<feBlend mode="normal" in="SourceGraphic" in2="effect1_dropShadow_0_1" result="shape"/>
</filter>
<filter id="filter1_d_0_1" x="973.39" y="619.334" width="124.606" height="79.2628" filterUnits="userSpaceOnUse" color-interpolation-filters="sRGB">
<feFlood flood-opacity="0" result="BackgroundImageFix"/>
<feColorMatrix in="SourceAlpha" type="matrix" values="0 0 0 0 0 0 0 0 0 0 0 0 0 0 0 0 0 0 127 0" result="hardAlpha"/>
<feOffset dy="4"/>
<feGaussianBlur stdDeviation="2"/>
<feComposite in2="hardAlpha" operator="out"/>
<feColorMatrix type="matrix" values="0 0 0 0 0 0 0 0 0 0 0 0 0 0 0 0 0 0 0.1 0"/>
<feBlend mode="normal" in2="BackgroundImageFix" result="effect1_dropShadow_0_1"/>
<feBlend mode="normal" in="SourceGraphic" in2="effect1_dropShadow_0_1" result="shape"/>
</filter>
<linearGradient id="paint0_linear_0_1" x1="591" y1="521" x2="591.463" y2="1111" gradientUnits="userSpaceOnUse">
<stop offset="0.364583" stop-color="#3FC0DD"/>
<stop offset="1" stop-color="#0D387C"/>
</linearGradient>
<radialGradient id="paint1_radial_0_1" cx="0" cy="0" r="1" gradientUnits="userSpaceOnUse" gradientTransform="translate(13.6119 13.223) rotate(90.7844) scale(16.1677 16.7069)">
<stop offset="0.182292" stop-color="#FFEFC8"/>
<stop offset="1" stop-color="#F99B57" stop-opacity="0.65"/>
</radialGradient>
<radialGradient id="paint2_radial_0_1" cx="0" cy="0" r="1" gradientUnits="userSpaceOnUse" gradientTransform="translate(13.9016 13.223) rotate(90.8011) scale(16.1678 17.0623)">
<stop offset="0.182292" stop-color="#FFEFC8"/>
<stop offset="1" stop-color="#F99B57" stop-opacity="0.65"/>
</radialGradient>
<radialGradient id="paint3_radial_0_1" cx="0" cy="0" r="1" gradientUnits="userSpaceOnUse" gradientTransform="translate(13.6119 13.223) rotate(90.7844) scale(16.1677 16.7069)">
<stop offset="0.182292" stop-color="#FFEFC8"/>
<stop offset="1" stop-color="#F99B57" stop-opacity="0.65"/>
</radialGradient>
<radialGradient id="paint4_radial_0_1" cx="0" cy="0" r="1" gradientUnits="userSpaceOnUse" gradientTransform="translate(13.6119 13.223) rotate(90.7844) scale(16.1677 16.7069)">
<stop offset="0.182292" stop-color="#FFEFC8"/>
<stop offset="1" stop-color="#F99B57" stop-opacity="0.65"/>
</radialGradient>
<radialGradient id="paint5_radial_0_1" cx="0" cy="0" r="1" gradientUnits="userSpaceOnUse" gradientTransform="translate(14.1912 13.223) rotate(90.8178) scale(16.1678 17.4176)">
<stop offset="0.182292" stop-color="#FFEFC8"/>
<stop offset="1" stop-color="#F99B57" stop-opacity="0.65"/>
</radialGradient>
<radialGradient id="paint6_radial_0_1" cx="0" cy="0" r="1" gradientUnits="userSpaceOnUse" gradientTransform="translate(14.1912 13.223) rotate(90.8178) scale(16.1678 17.4176)">
<stop offset="0.182292" stop-color="#FFEFC8"/>
<stop offset="1" stop-color="#F99B57" stop-opacity="0.65"/>
</radialGradient>
<radialGradient id="paint7_radial_0_1" cx="0" cy="0" r="1" gradientUnits="userSpaceOnUse" gradientTransform="translate(13.9016 13.223) rotate(90.8011) scale(16.1678 17.0623)">
<stop offset="0.182292" stop-color="#FFEFC8"/>
<stop offset="1" stop-color="#F99B57" stop-opacity="0.65"/>
</radialGradient>
<radialGradient id="paint8_radial_0_1" cx="0" cy="0" r="1" gradientUnits="userSpaceOnUse" gradientTransform="translate(13.9016 13.223) rotate(90.8011) scale(16.1678 17.0623)">
<stop offset="0.182292" stop-color="#FFEFC8"/>
<stop offset="1" stop-color="#F99B57" stop-opacity="0.65"/>
</radialGradient>
<radialGradient id="paint9_radial_0_1" cx="0" cy="0" r="1" gradientUnits="userSpaceOnUse" gradientTransform="translate(13.9016 13.223) rotate(90.8011) scale(16.1678 17.0623)">
<stop offset="0.182292" stop-color="#FFEFC8"/>
<stop offset="1" stop-color="#F99B57" stop-opacity="0.65"/>
</radialGradient>
<radialGradient id="paint10_radial_0_1" cx="0" cy="0" r="1" gradientUnits="userSpaceOnUse" gradientTransform="translate(13.9016 13.223) rotate(90.8011) scale(16.1678 17.0623)">
<stop offset="0.182292" stop-color="#FFEFC8"/>
<stop offset="1" stop-color="#F99B57" stop-opacity="0.65"/>
</radialGradient>
<radialGradient id="paint11_radial_0_1" cx="0" cy="0" r="1" gradientUnits="userSpaceOnUse" gradientTransform="translate(13.9016 13.223) rotate(90.8011) scale(16.1678 17.0623)">
<stop offset="0.182292" stop-color="#FFEFC8"/>
<stop offset="1" stop-color="#F99B57" stop-opacity="0.65"/>
</radialGradient>
<radialGradient id="paint12_radial_0_1" cx="0" cy="0" r="1" gradientUnits="userSpaceOnUse" gradientTransform="translate(13.9016 13.223) rotate(90.8011) scale(16.1678 17.0623)">
<stop offset="0.182292" stop-color="#FFEFC8"/>
<stop offset="1" stop-color="#F99B57" stop-opacity="0.65"/>
</radialGradient>
<radialGradient id="paint13_radial_0_1" cx="0" cy="0" r="1" gradientUnits="userSpaceOnUse" gradientTransform="translate(13.9016 13.223) rotate(90.8011) scale(16.1678 17.0623)">
<stop offset="0.182292" stop-color="#FFEFC8"/>
<stop offset="1" stop-color="#F99B57" stop-opacity="0.65"/>
</radialGradient>
<radialGradient id="paint14_radial_0_1" cx="0" cy="0" r="1" gradientUnits="userSpaceOnUse" gradientTransform="translate(13.9016 13.223) rotate(90.8011) scale(16.1678 17.0623)">
<stop offset="0.182292" stop-color="#FFEFC8"/>
<stop offset="1" stop-color="#F99B57" stop-opacity="0.65"/>
</radialGradient>
<radialGradient id="paint15_radial_0_1" cx="0" cy="0" r="1" gradientUnits="userSpaceOnUse" gradientTransform="translate(13.6995 13.9346) rotate(90.7491) scale(17.0377 16.8145)">
<stop offset="0.182292" stop-color="#FFEFC8"/>
<stop offset="1" stop-color="#F99B57" stop-opacity="0.65"/>
</radialGradient>
<radialGradient id="paint16_radial_0_1" cx="0" cy="0" r="1" gradientUnits="userSpaceOnUse" gradientTransform="translate(13.991 13.9346) rotate(90.7651) scale(17.0377 17.1722)">
<stop offset="0.182292" stop-color="#FFEFC8"/>
<stop offset="1" stop-color="#F99B57" stop-opacity="0.65"/>
</radialGradient>
<radialGradient id="paint17_radial_0_1" cx="0" cy="0" r="1" gradientUnits="userSpaceOnUse" gradientTransform="translate(13.6995 13.9346) rotate(90.7491) scale(17.0377 16.8145)">
<stop offset="0.182292" stop-color="#FFEFC8"/>
<stop offset="1" stop-color="#F99B57" stop-opacity="0.65"/>
</radialGradient>
<radialGradient id="paint18_radial_0_1" cx="0" cy="0" r="1" gradientUnits="userSpaceOnUse" gradientTransform="translate(13.6995 13.9346) rotate(90.7491) scale(17.0377 16.8145)">
<stop offset="0.182292" stop-color="#FFEFC8"/>
<stop offset="1" stop-color="#F99B57" stop-opacity="0.65"/>
</radialGradient>
<radialGradient id="paint19_radial_0_1" cx="0" cy="0" r="1" gradientUnits="userSpaceOnUse" gradientTransform="translate(14.2825 13.9346) rotate(90.781) scale(17.0378 17.5299)">
<stop offset="0.182292" stop-color="#FFEFC8"/>
<stop offset="1" stop-color="#F99B57" stop-opacity="0.65"/>
</radialGradient>
<radialGradient id="paint20_radial_0_1" cx="0" cy="0" r="1" gradientUnits="userSpaceOnUse" gradientTransform="translate(14.2825 13.9346) rotate(90.781) scale(17.0378 17.5299)">
<stop offset="0.182292" stop-color="#FFEFC8"/>
<stop offset="1" stop-color="#F99B57" stop-opacity="0.65"/>
</radialGradient>
<radialGradient id="paint21_radial_0_1" cx="0" cy="0" r="1" gradientUnits="userSpaceOnUse" gradientTransform="translate(13.991 13.9346) rotate(90.7651) scale(17.0377 17.1722)">
<stop offset="0.182292" stop-color="#FFEFC8"/>
<stop offset="1" stop-color="#F99B57" stop-opacity="0.65"/>
</radialGradient>
<radialGradient id="paint22_radial_0_1" cx="0" cy="0" r="1" gradientUnits="userSpaceOnUse" gradientTransform="translate(13.991 13.9346) rotate(90.7651) scale(17.0377 17.1722)">
<stop offset="0.182292" stop-color="#FFEFC8"/>
<stop offset="1" stop-color="#F99B57" stop-opacity="0.65"/>
</radialGradient>
<radialGradient id="paint23_radial_0_1" cx="0" cy="0" r="1" gradientUnits="userSpaceOnUse" gradientTransform="translate(13.991 13.9346) rotate(90.7651) scale(17.0377 17.1722)">
<stop offset="0.182292" stop-color="#FFEFC8"/>
<stop offset="1" stop-color="#F99B57" stop-opacity="0.65"/>
</radialGradient>
<radialGradient id="paint24_radial_0_1" cx="0" cy="0" r="1" gradientUnits="userSpaceOnUse" gradientTransform="translate(13.991 13.9346) rotate(90.7651) scale(17.0377 17.1722)">
<stop offset="0.182292" stop-color="#FFEFC8"/>
<stop offset="1" stop-color="#F99B57" stop-opacity="0.65"/>
</radialGradient>
<radialGradient id="paint25_radial_0_1" cx="0" cy="0" r="1" gradientUnits="userSpaceOnUse" gradientTransform="translate(13.991 13.9346) rotate(90.7651) scale(17.0377 17.1722)">
<stop offset="0.182292" stop-color="#FFEFC8"/>
<stop offset="1" stop-color="#F99B57" stop-opacity="0.65"/>
</radialGradient>
<radialGradient id="paint26_radial_0_1" cx="0" cy="0" r="1" gradientUnits="userSpaceOnUse" gradientTransform="translate(13.991 13.9346) rotate(90.7651) scale(17.0377 17.1722)">
<stop offset="0.182292" stop-color="#FFEFC8"/>
<stop offset="1" stop-color="#F99B57" stop-opacity="0.65"/>
</radialGradient>
<radialGradient id="paint27_radial_0_1" cx="0" cy="0" r="1" gradientUnits="userSpaceOnUse" gradientTransform="translate(13.991 13.9346) rotate(90.7651) scale(17.0377 17.1722)">
<stop offset="0.182292" stop-color="#FFEFC8"/>
<stop offset="1" stop-color="#F99B57" stop-opacity="0.65"/>
</radialGradient>
<radialGradient id="paint28_radial_0_1" cx="0" cy="0" r="1" gradientUnits="userSpaceOnUse" gradientTransform="translate(13.991 13.9346) rotate(90.7651) scale(17.0377 17.1722)">
<stop offset="0.182292" stop-color="#FFEFC8"/>
<stop offset="1" stop-color="#F99B57" stop-opacity="0.65"/>
</radialGradient>
<linearGradient id="paint29_linear_0_1" x1="586" y1="388.493" x2="586" y2="726" gradientUnits="userSpaceOnUse">
<stop stop-color="#B73C94"/>
<stop offset="1" stop-color="#088BC1"/>
</linearGradient>
<linearGradient id="paint30_linear_0_1" x1="572.105" y1="445.812" x2="572.105" y2="716.551" gradientUnits="userSpaceOnUse">
<stop stop-color="#1D2644" stop-opacity="0.62"/>
<stop offset="1" stop-color="#1D2644" stop-opacity="0.07"/>
</linearGradient>
</defs>
</svg>
