<svg width="604" height="862" viewBox="0 0 604 862" fill="none" xmlns="http://www.w3.org/2000/svg">
<rect x="263.311" y="239.398" width="20" height="624.194" transform="rotate(-4.3042 263.311 239.398)" fill="#C9D2E5"/>
<g opacity="0.95">
<path d="M90.1097 57.7003C51.4588 84.6729 44.1859 103.17 21.5652 144.866C8.82823 168.343 4.65253 200.567 3.19514 224.569L115.132 229.212C115.132 229.212 108.745 178.67 118.463 148.885C142.856 74.1209 248 10.3973 248 10.3973C217.444 12.9045 144.642 19.6448 90.1097 57.7003Z" fill="#B73C94"/>
<path d="M90.1097 57.7003C51.4588 84.6729 44.1859 103.17 21.5652 144.866C8.82823 168.343 4.65253 200.567 3.19514 224.569L115.132 229.212C115.132 229.212 108.745 178.67 118.463 148.885C142.856 74.1209 248 10.3973 248 10.3973C217.444 12.9045 144.642 19.6448 90.1097 57.7003Z" fill="url(#paint0_linear_0_1)" fill-opacity="0.2"/>
<path fill-rule="evenodd" clip-rule="evenodd" d="M355.982 207.835C356.154 207.791 356.323 207.783 356.489 207.809L355.982 207.835ZM233.137 220.531C233.24 220.511 233.348 220.503 233.461 220.508L233.137 220.531ZM115.132 229.212L3.19514 224.569C2.94575 228.676 2.53632 232.868 2.13539 236.974C0.556078 253.145 -0.891444 267.967 8.0933 270.934C39.003 281.141 77.8226 277.969 102.122 274.834C110.59 273.741 111.583 256.479 112.33 243.509C112.791 235.501 113.158 229.13 115.132 229.212Z" fill="#B73C94"/>
<path fill-rule="evenodd" clip-rule="evenodd" d="M355.982 207.835C356.154 207.791 356.323 207.783 356.489 207.809L355.982 207.835ZM233.137 220.531C233.24 220.511 233.348 220.503 233.461 220.508L233.137 220.531ZM115.132 229.212L3.19514 224.569C2.94575 228.676 2.53632 232.868 2.13539 236.974C0.556078 253.145 -0.891444 267.967 8.0933 270.934C39.003 281.141 77.8226 277.969 102.122 274.834C110.59 273.741 111.583 256.479 112.33 243.509C112.791 235.501 113.158 229.13 115.132 229.212Z" fill="url(#paint1_linear_0_1)" fill-opacity="0.2"/>
<path d="M233.461 220.508L355.982 207.835C355.982 207.835 344.308 156.124 331.215 125.136C310.644 76.4503 257.5 8.39727 257.5 8.39727C257.5 8.39727 223.01 83.0761 221.002 132.402C219.588 167.155 233.461 220.508 233.461 220.508Z" fill="#B73C94"/>
<path d="M233.461 220.508L355.982 207.835C355.982 207.835 344.308 156.124 331.215 125.136C310.644 76.4503 257.5 8.39727 257.5 8.39727C257.5 8.39727 223.01 83.0761 221.002 132.402C219.588 167.155 233.461 220.508 233.461 220.508Z" fill="url(#paint2_linear_0_1)" fill-opacity="0.2"/>
<path d="M355.982 207.835L233.461 220.508C236.389 220.629 238.178 228.971 240.235 238.567C243.021 251.56 246.301 266.853 253.57 267.154C280.137 268.256 313.573 262.655 343.374 257.664C345.465 257.313 347.538 256.966 349.589 256.624C355.678 255.61 354.892 240.715 354.203 227.64C353.671 217.548 353.196 208.541 355.982 207.835Z" fill="#B73C94"/>
<path d="M355.982 207.835L233.461 220.508C236.389 220.629 238.178 228.971 240.235 238.567C243.021 251.56 246.301 266.853 253.57 267.154C280.137 268.256 313.573 262.655 343.374 257.664C345.465 257.313 347.538 256.966 349.589 256.624C355.678 255.61 354.892 240.715 354.203 227.64C353.671 217.548 353.196 208.541 355.982 207.835Z" fill="url(#paint3_linear_0_1)" fill-opacity="0.2"/>
<path d="M118.463 148.885C108.745 178.67 115.132 229.212 115.132 229.212L233.137 220.531C233.24 220.511 233.348 220.503 233.461 220.508C233.461 220.508 219.588 167.155 221.002 132.402C223.01 83.0761 257.5 8.39727 257.5 8.39727L248 10.3973C248 10.3973 142.856 74.1209 118.463 148.885Z" fill="#B73C94"/>
<path d="M118.463 148.885C108.745 178.67 115.132 229.212 115.132 229.212L233.137 220.531C233.24 220.511 233.348 220.503 233.461 220.508C233.461 220.508 219.588 167.155 221.002 132.402C223.01 83.0761 257.5 8.39727 257.5 8.39727L248 10.3973C248 10.3973 142.856 74.1209 118.463 148.885Z" fill="url(#paint4_linear_0_1)" fill-opacity="0.2"/>
<path d="M129.099 275.953C171.381 275.339 204.31 274.85 222.889 270.886C231.979 268.947 231.508 251.191 231.14 237.301C230.903 228.355 230.708 221.012 233.137 220.531L115.132 229.212C117.169 229.296 117.881 236.6 118.741 245.409C120.063 258.954 121.731 276.06 129.099 275.953Z" fill="#B73C94"/>
<path d="M129.099 275.953C171.381 275.339 204.31 274.85 222.889 270.886C231.979 268.947 231.508 251.191 231.14 237.301C230.903 228.355 230.708 221.012 233.137 220.531L115.132 229.212C117.169 229.296 117.881 236.6 118.741 245.409C120.063 258.954 121.731 276.06 129.099 275.953Z" fill="url(#paint5_linear_0_1)" fill-opacity="0.2"/>
<path d="M331.215 125.136C344.308 156.124 355.982 207.835 355.982 207.835C356.154 207.791 356.323 207.783 356.489 207.809L483.429 201.285C483.429 201.285 465.297 148.547 445.376 119.811C398.554 52.2674 269.5 8.39727 269.5 8.39727C267.853 8.56132 265.664 8.47927 263.48 8.39738C261.302 8.3157 259.127 8.23419 257.5 8.39727C257.5 8.39727 310.644 76.4503 331.215 125.136Z" fill="#B73C94"/>
<path d="M331.215 125.136C344.308 156.124 355.982 207.835 355.982 207.835C356.154 207.791 356.323 207.783 356.489 207.809L483.429 201.285C483.429 201.285 465.297 148.547 445.376 119.811C398.554 52.2674 269.5 8.39727 269.5 8.39727C267.853 8.56132 265.664 8.47927 263.48 8.39738C261.302 8.3157 259.127 8.23419 257.5 8.39727C257.5 8.39727 310.644 76.4503 331.215 125.136Z" fill="url(#paint6_linear_0_1)" fill-opacity="0.2"/>
<path d="M380.208 254.391C411.911 255.706 443.299 253.505 471.585 247.172C477.077 245.943 478.292 231.929 479.352 219.702C480.171 210.259 480.897 201.882 483.429 201.285L356.489 207.809C358.802 208.164 360.613 215.015 362.819 223.359C366.361 236.758 370.921 254.006 380.208 254.391Z" fill="#B73C94"/>
<path d="M380.208 254.391C411.911 255.706 443.299 253.505 471.585 247.172C477.077 245.943 478.292 231.929 479.352 219.702C480.171 210.259 480.897 201.882 483.429 201.285L356.489 207.809C358.802 208.164 360.613 215.015 362.819 223.359C366.361 236.758 370.921 254.006 380.208 254.391Z" fill="url(#paint7_linear_0_1)" fill-opacity="0.2"/>
<path d="M483.429 201.285L593.966 168.607C593.966 168.607 546.001 123.033 511.247 99.4617C427.164 42.4342 269.5 8.39727 269.5 8.39727C269.5 8.39727 398.554 52.2674 445.376 119.811C465.297 148.547 483.429 201.285 483.429 201.285Z" fill="#B73C94"/>
<path d="M483.429 201.285L593.966 168.607C593.966 168.607 546.001 123.033 511.247 99.4617C427.164 42.4342 269.5 8.39727 269.5 8.39727C269.5 8.39727 398.554 52.2674 445.376 119.811C465.297 148.547 483.429 201.285 483.429 201.285Z" fill="url(#paint8_linear_0_1)" fill-opacity="0.2"/>
<path d="M597.258 217.842C605.95 211.947 602.963 192.106 593.966 168.607L483.429 201.285C485.197 200.867 486.31 204.695 487.882 210.103C491.478 222.474 497.478 243.115 519.222 240.16C524.286 239.472 528.887 238.871 533.103 238.321L533.117 238.319L533.121 238.319L533.14 238.316L533.145 238.315C565.511 234.09 575.158 232.83 597.258 217.842Z" fill="#B73C94"/>
<path d="M597.258 217.842C605.95 211.947 602.963 192.106 593.966 168.607L483.429 201.285C485.197 200.867 486.31 204.695 487.882 210.103C491.478 222.474 497.478 243.115 519.222 240.16C524.286 239.472 528.887 238.871 533.103 238.321L533.117 238.319L533.121 238.319L533.14 238.316L533.145 238.315C565.511 234.09 575.158 232.83 597.258 217.842Z" fill="url(#paint9_linear_0_1)" fill-opacity="0.2"/>
<path d="M568.056 117.205C541.622 74.6815 492.042 30.8477 419.267 13.9755C366.682 1.78421 317.241 3.64153 269.5 8.39727C269.5 8.39727 427.164 42.4342 511.247 99.4617C546.001 123.033 593.966 168.607 593.966 168.607C587.642 152.089 578.349 133.763 568.056 117.205Z" fill="#B73C94"/>
<path d="M568.056 117.205C541.622 74.6815 492.042 30.8477 419.267 13.9755C366.682 1.78421 317.241 3.64153 269.5 8.39727C269.5 8.39727 427.164 42.4342 511.247 99.4617C546.001 123.033 593.966 168.607 593.966 168.607C587.642 152.089 578.349 133.763 568.056 117.205Z" fill="url(#paint10_linear_0_1)" fill-opacity="0.2"/>
</g>
<g opacity="0.95">
<path d="M233.275 219.873L355.022 207.454C355.022 207.454 343.4 156.573 330.377 126.08C309.915 78.1705 257.077 11.1936 257.077 11.1936C257.077 11.1936 222.834 84.6536 220.859 133.183C219.468 167.375 233.275 219.873 233.275 219.873Z" fill="#FCDC8F"/>
<path d="M233.275 219.873L355.022 207.454C355.022 207.454 343.4 156.573 330.377 126.08C309.915 78.1705 257.077 11.1936 257.077 11.1936C257.077 11.1936 222.834 84.6536 220.859 133.183C219.468 167.375 233.275 219.873 233.275 219.873Z" fill="url(#paint11_linear_0_1)" fill-opacity="0.2"/>
</g>
<g opacity="0.95">
<path d="M356.263 207.16L232.921 220.029C235.869 220.151 237.668 228.6 239.737 238.32C242.538 251.48 245.835 266.971 253.153 267.274C279.896 268.383 313.557 262.701 343.558 257.637C345.663 257.282 347.749 256.929 349.814 256.583C355.944 255.554 355.157 240.466 354.467 227.222C353.934 216.999 353.458 207.875 356.263 207.16Z" fill="#FCDC8F"/>
<path d="M356.263 207.16L232.921 220.029C235.869 220.151 237.668 228.6 239.737 238.32C242.538 251.48 245.835 266.971 253.153 267.274C279.896 268.383 313.557 262.701 343.558 257.637C345.663 257.282 347.749 256.929 349.814 256.583C355.944 255.554 355.157 240.466 354.467 227.222C353.934 216.999 353.458 207.875 356.263 207.16Z" fill="url(#paint12_linear_0_1)" fill-opacity="0.2"/>
</g>
<g opacity="0.95">
<path d="M118.463 148.885C108.745 178.67 115.131 229.212 115.131 229.212L233.137 220.531C233.24 220.511 233.348 220.503 233.46 220.508C233.46 220.508 219.588 167.155 221.002 132.401C223.01 83.0761 257.5 8.39723 257.5 8.39723L248 10.3972C248 10.3972 142.856 74.1209 118.463 148.885Z" fill="#F99557"/>
<path d="M118.463 148.885C108.745 178.67 115.131 229.212 115.131 229.212L233.137 220.531C233.24 220.511 233.348 220.503 233.46 220.508C233.46 220.508 219.588 167.155 221.002 132.401C223.01 83.0761 257.5 8.39723 257.5 8.39723L248 10.3972C248 10.3972 142.856 74.1209 118.463 148.885Z" fill="url(#paint13_linear_0_1)" fill-opacity="0.2"/>
</g>
<g opacity="0.95">
<path d="M129.099 275.953C171.381 275.339 204.31 274.85 222.889 270.886C231.979 268.947 231.508 251.191 231.14 237.301C230.903 228.355 230.708 221.012 233.138 220.531L115.132 229.212C117.169 229.296 117.882 236.6 118.741 245.409C120.063 258.954 121.732 276.06 129.099 275.953Z" fill="#F99557"/>
<path d="M129.099 275.953C171.381 275.339 204.31 274.85 222.889 270.886C231.979 268.947 231.508 251.191 231.14 237.301C230.903 228.355 230.708 221.012 233.138 220.531L115.132 229.212C117.169 229.296 117.882 236.6 118.741 245.409C120.063 258.954 121.732 276.06 129.099 275.953Z" fill="url(#paint14_linear_0_1)" fill-opacity="0.2"/>
</g>
<path opacity="0.95" d="M329.613 124.827C342.858 155.755 354.68 207.364 354.68 207.364C354.853 207.32 355.024 207.312 355.192 207.338L483.446 200.893C483.446 200.893 451 147.897 430 118.397C375.052 41.2091 267.196 8.30172 267.196 8.30172C265.532 8.46457 263.321 8.38156 261.114 8.29871C258.913 8.21607 256.716 8.13361 255.072 8.29549C255.072 8.29549 308.803 76.2325 329.613 124.827Z" fill="#37DECD"/>
<g opacity="0.95">
<path d="M378.893 254.337C411.01 255.669 442.808 253.411 471.466 246.935C477.03 245.677 478.265 231.367 479.343 218.882C480.176 209.239 480.914 200.686 483.48 200.074L354.881 206.779C357.223 207.141 359.056 214.136 361.288 222.655C364.872 236.336 369.485 253.947 378.893 254.337Z" fill="#37DECD"/>
<path d="M378.893 254.337C411.01 255.669 442.808 253.411 471.466 246.935C477.03 245.677 478.265 231.367 479.343 218.882C480.176 209.239 480.914 200.686 483.48 200.074L354.881 206.779C357.223 207.141 359.056 214.136 361.288 222.655C364.872 236.336 369.485 253.947 378.893 254.337Z" fill="url(#paint15_linear_0_1)" fill-opacity="0.2"/>
</g>
<g opacity="0.95">
<path d="M483.43 201.285L593.966 168.607C593.966 168.607 546.002 123.033 511.247 99.4617C427.164 42.4342 269.5 8.39728 269.5 8.39728C269.5 8.39728 377.678 49.8541 424.5 117.397C444.421 146.134 483.43 201.285 483.43 201.285Z" fill="#088BC1"/>
<path d="M483.43 201.285L593.966 168.607C593.966 168.607 546.002 123.033 511.247 99.4617C427.164 42.4342 269.5 8.39728 269.5 8.39728C269.5 8.39728 377.678 49.8541 424.5 117.397C444.421 146.134 483.43 201.285 483.43 201.285Z" fill="url(#paint16_linear_0_1)" fill-opacity="0.2"/>
</g>
<g opacity="0.95">
<path d="M597.258 217.842C605.95 211.947 602.963 192.106 593.966 168.607L483.429 201.285C485.197 200.867 486.31 204.695 487.882 210.103C491.478 222.474 497.478 243.115 519.221 240.16C524.286 239.472 528.887 238.871 533.103 238.321L533.117 238.319L533.121 238.319L533.14 238.316L533.145 238.315C565.511 234.09 575.157 232.83 597.258 217.842Z" fill="#088BC1"/>
<path d="M597.258 217.842C605.95 211.947 602.963 192.106 593.966 168.607L483.429 201.285C485.197 200.867 486.31 204.695 487.882 210.103C491.478 222.474 497.478 243.115 519.221 240.16C524.286 239.472 528.887 238.871 533.103 238.321L533.117 238.319L533.121 238.319L533.14 238.316L533.145 238.315C565.511 234.09 575.157 232.83 597.258 217.842Z" fill="url(#paint17_linear_0_1)" fill-opacity="0.2"/>
</g>
<g opacity="0.95">
<path d="M568.056 117.205C541.623 74.6816 492.043 30.8477 419.267 13.9755C366.682 1.78425 317.241 3.64157 269.5 8.39731C269.5 8.39731 427.164 42.4342 511.247 99.4617C546.002 123.033 593.966 168.607 593.966 168.607C587.642 152.089 578.349 133.763 568.056 117.205Z" fill="#B73C94"/>
<path d="M568.056 117.205C541.623 74.6816 492.043 30.8477 419.267 13.9755C366.682 1.78425 317.241 3.64157 269.5 8.39731C269.5 8.39731 427.164 42.4342 511.247 99.4617C546.002 123.033 593.966 168.607 593.966 168.607C587.642 152.089 578.349 133.763 568.056 117.205Z" fill="url(#paint18_linear_0_1)" fill-opacity="0.2"/>
</g>
<g opacity="0.95">
<path d="M90.1101 57.7003C51.4591 84.6729 44.1863 103.17 21.5655 144.866C8.82857 168.343 4.65287 200.567 3.19548 224.569L115.132 229.212C115.132 229.212 108.746 178.67 118.464 148.885C142.857 74.1209 248 10.3973 248 10.3973C217.444 12.9045 144.643 19.6448 90.1101 57.7003Z" fill="#FE7098"/>
<path d="M90.1101 57.7003C51.4591 84.6729 44.1863 103.17 21.5655 144.866C8.82857 168.343 4.65287 200.567 3.19548 224.569L115.132 229.212C115.132 229.212 108.746 178.67 118.464 148.885C142.857 74.1209 248 10.3973 248 10.3973C217.444 12.9045 144.643 19.6448 90.1101 57.7003Z" fill="url(#paint19_linear_0_1)" fill-opacity="0.2"/>
</g>
<g opacity="0.95">
<path fill-rule="evenodd" clip-rule="evenodd" d="M355.983 207.835C356.155 207.791 356.324 207.783 356.49 207.809L355.983 207.835ZM233.138 220.531C233.241 220.511 233.349 220.503 233.461 220.508L233.138 220.531ZM115.132 229.212L3.19577 224.569C2.94637 228.676 2.53695 232.868 2.13602 236.974C0.556702 253.145 -0.89082 267.967 8.09392 270.934C39.0036 281.141 77.8233 277.969 102.122 274.834C110.59 273.742 111.584 256.479 112.331 243.509C112.792 235.501 113.159 229.13 115.132 229.212Z" fill="#FE7098"/>
<path fill-rule="evenodd" clip-rule="evenodd" d="M355.983 207.835C356.155 207.791 356.324 207.783 356.49 207.809L355.983 207.835ZM233.138 220.531C233.241 220.511 233.349 220.503 233.461 220.508L233.138 220.531ZM115.132 229.212L3.19577 224.569C2.94637 228.676 2.53695 232.868 2.13602 236.974C0.556702 253.145 -0.89082 267.967 8.09392 270.934C39.0036 281.141 77.8233 277.969 102.122 274.834C110.59 273.742 111.584 256.479 112.331 243.509C112.792 235.501 113.159 229.13 115.132 229.212Z" fill="url(#paint20_linear_0_1)" fill-opacity="0.2"/>
</g>
<rect x="172" y="392.373" width="235.83" height="147.527" rx="20" transform="rotate(-3.51914 172 392.373)" fill="#10689A"/>
<path d="M218.551 450.601L217.044 422.642L222.236 422.362L223.744 450.321L218.551 450.601ZM241.766 427.718C243.47 427.626 245.006 427.877 246.373 428.471C247.767 429.064 248.888 430.031 249.735 431.374C250.58 432.691 251.061 434.427 251.177 436.584L251.836 448.806L246.844 449.076L246.219 437.492C246.117 435.602 245.588 434.215 244.633 433.332C243.704 432.447 242.44 432.048 240.843 432.134C239.671 432.197 238.645 432.493 237.766 433.021C236.886 433.549 236.22 434.306 235.765 435.292C235.336 436.25 235.161 437.448 235.238 438.886L235.82 449.67L230.827 449.939L229.677 428.61L234.43 428.354L234.74 434.106L233.806 432.393C234.479 430.995 235.501 429.899 236.874 429.103C238.271 428.28 239.902 427.819 241.766 427.718ZM267.251 448.256C265.201 448.366 263.325 448.013 261.626 447.197C259.951 446.353 258.604 445.143 257.585 443.569C256.565 441.995 255.996 440.103 255.876 437.893C255.757 435.683 256.12 433.741 256.964 432.066C257.809 430.391 259.019 429.058 260.594 428.065C262.196 427.07 264.022 426.518 266.073 426.407C267.857 426.311 269.476 426.624 270.93 427.347C272.383 428.043 273.566 429.168 274.477 430.721C275.389 432.274 275.912 434.302 276.047 436.805C276.181 439.282 275.892 441.354 275.181 443.021C274.468 444.662 273.427 445.92 272.059 446.795C270.691 447.67 269.088 448.157 267.251 448.256ZM267.62 443.95C268.818 443.885 269.869 443.561 270.772 442.978C271.702 442.394 272.419 441.581 272.924 440.539C273.455 439.496 273.684 438.295 273.611 436.937C273.536 435.552 273.179 434.383 272.54 433.429C271.927 432.448 271.126 431.716 270.139 431.236C269.178 430.753 268.099 430.544 266.9 430.609C265.702 430.674 264.638 430.998 263.708 431.582C262.805 432.165 262.087 432.978 261.556 434.022C261.05 435.037 260.834 436.237 260.909 437.622C260.982 438.98 261.326 440.15 261.94 441.131C262.58 442.112 263.381 442.843 264.341 443.325C265.329 443.806 266.421 444.014 267.62 443.95ZM274.306 447.595L274.034 442.562L273.928 436.88L273.223 431.229L272.508 417.969L277.461 417.702L279.059 447.339L274.306 447.595ZM285.63 446.984L284.48 425.655L289.473 425.386L290.623 446.715L285.63 446.984ZM286.807 422.005C285.875 422.055 285.087 421.804 284.443 421.251C283.825 420.697 283.494 420.007 283.45 419.181C283.404 418.329 283.659 417.608 284.214 417.017C284.795 416.398 285.552 416.064 286.484 416.013C287.416 415.963 288.19 416.202 288.806 416.729C289.447 417.229 289.79 417.891 289.834 418.717C289.882 419.596 289.629 420.357 289.076 421.001C288.522 421.618 287.765 421.953 286.807 422.005ZM310.317 445.653L310.084 441.339L309.755 440.436L309.348 432.887C309.269 431.422 308.769 430.314 307.847 429.563C306.924 428.785 305.57 428.444 303.786 428.54C302.588 428.605 301.413 428.855 300.261 429.291C299.136 429.725 298.192 430.297 297.429 431.006L295.276 427.477C296.374 426.536 297.697 425.811 299.245 425.3C300.818 424.761 302.457 424.446 304.161 424.354C307.25 424.187 309.673 424.804 311.431 426.205C313.214 427.578 314.189 429.808 314.356 432.897L315.03 445.399L310.317 445.653ZM303.622 446.295C302.024 446.381 300.611 446.19 299.385 445.722C298.156 445.227 297.183 444.519 296.466 443.596C295.774 442.645 295.395 441.557 295.328 440.332C295.264 439.134 295.485 438.041 295.993 437.052C296.527 436.062 297.431 435.252 298.706 434.622C299.981 433.993 301.696 433.62 303.853 433.504L310.044 433.17L310.223 436.485L304.391 436.799C302.687 436.891 301.557 437.233 301.002 437.823C300.444 438.387 300.187 439.069 300.231 439.868C300.279 440.773 300.678 441.473 301.425 441.967C302.173 442.46 303.186 442.673 304.464 442.604C305.689 442.538 306.766 442.199 307.694 441.588C308.649 440.976 309.31 440.113 309.677 438.998L310.678 441.948C310.266 443.226 309.453 444.244 308.239 445.004C307.051 445.762 305.512 446.193 303.622 446.295ZM332.377 422.832C334.081 422.74 335.617 422.991 336.984 423.585C338.378 424.178 339.498 425.145 340.345 426.489C341.191 427.805 341.672 429.542 341.788 431.698L342.447 443.921L337.454 444.19L336.83 432.607C336.728 430.716 336.199 429.329 335.243 428.446C334.314 427.561 333.051 427.162 331.453 427.248C330.282 427.312 329.256 427.607 328.377 428.135C327.497 428.663 326.83 429.42 326.376 430.406C325.947 431.364 325.771 432.562 325.849 434L326.43 444.784L321.437 445.053L320.287 423.724L325.04 423.468L325.351 429.22L324.417 427.508C325.089 426.109 326.112 425.013 327.484 424.218C328.882 423.395 330.513 422.933 332.377 422.832ZM361.921 442.871L361.689 438.557L361.36 437.653L360.953 430.104C360.874 428.64 360.373 427.532 359.451 426.78C358.528 426.002 357.175 425.661 355.39 425.757C354.192 425.822 353.017 426.072 351.866 426.508C350.741 426.943 349.797 427.514 349.034 428.223L346.881 424.694C347.979 423.754 349.301 423.028 350.849 422.517C352.423 421.978 354.061 421.663 355.766 421.571C358.854 421.405 361.278 422.022 363.036 423.422C364.819 424.795 365.794 427.026 365.96 430.115L366.635 442.616L361.921 442.871ZM355.226 443.512C353.629 443.598 352.216 443.407 350.989 442.939C349.761 442.445 348.788 441.736 348.071 440.813C347.378 439.863 346.999 438.775 346.933 437.55C346.869 436.352 347.09 435.258 347.598 434.269C348.132 433.279 349.036 432.469 350.311 431.84C351.585 431.21 353.301 430.837 355.458 430.721L361.649 430.387L361.828 433.702L355.996 434.017C354.292 434.109 353.162 434.45 352.606 435.041C352.049 435.605 351.792 436.286 351.835 437.085C351.884 437.991 352.282 438.69 353.03 439.184C353.778 439.678 354.791 439.89 356.069 439.821C357.294 439.755 358.37 439.417 359.299 438.806C360.254 438.194 360.915 437.33 361.282 436.215L362.282 439.166C361.871 440.443 361.058 441.462 359.843 442.221C358.656 442.98 357.117 443.41 355.226 443.512ZM227.33 499.479C224.987 499.606 223.144 499.104 221.801 497.975C220.457 496.819 219.721 495.056 219.593 492.686L218.561 473.554L223.554 473.285L224.579 492.297C224.634 493.309 224.929 494.081 225.465 494.613C226.028 495.143 226.775 495.383 227.707 495.333C228.826 495.273 229.742 494.93 230.456 494.304L232.045 497.783C231.485 498.294 230.786 498.692 229.947 498.978C229.108 499.263 228.235 499.431 227.33 499.479ZM215.525 482.611L215.309 478.616L229.529 477.85L229.744 481.844L215.525 482.611ZM245.114 498.52C242.931 498.638 240.962 498.277 239.207 497.437C237.451 496.57 236.036 495.338 234.962 493.74C233.888 492.142 233.294 490.292 233.18 488.188C233.066 486.058 233.457 484.154 234.355 482.477C235.251 480.772 236.526 479.409 238.18 478.385C239.834 477.361 241.753 476.79 243.936 476.672C246.146 476.553 248.128 476.914 249.883 477.754C251.664 478.592 253.078 479.798 254.124 481.371C255.197 482.942 255.791 484.806 255.907 486.963C256.021 489.066 255.629 490.97 254.733 492.674C253.864 494.377 252.589 495.754 250.91 496.806C249.256 497.83 247.324 498.401 245.114 498.52ZM244.884 494.247C246.109 494.181 247.186 493.856 248.116 493.271C249.046 492.687 249.75 491.875 250.228 490.834C250.732 489.792 250.948 488.592 250.875 487.234C250.8 485.849 250.457 484.679 249.844 483.724C249.257 482.741 248.47 482.009 247.483 481.528C246.495 481.047 245.403 480.839 244.204 480.904C242.979 480.97 241.902 481.295 240.972 481.879C240.069 482.462 239.365 483.275 238.86 484.317C238.354 485.332 238.138 486.532 238.213 487.917C238.286 489.275 238.63 490.445 239.244 491.426C239.857 492.408 240.645 493.14 241.605 493.622C242.593 494.103 243.685 494.311 244.884 494.247ZM284.819 496.5C280.984 496.707 277.917 495.79 275.617 493.751C273.344 491.711 272.098 488.653 271.878 484.579L271.027 468.802L276.22 468.522L277.06 484.1C277.215 486.975 277.94 489.033 279.235 490.271C280.557 491.509 282.35 492.066 284.613 491.944C286.877 491.822 288.586 491.076 289.74 489.705C290.895 488.334 291.394 486.211 291.239 483.335L290.399 467.758L295.512 467.482L296.363 483.259C296.582 487.333 295.659 490.507 293.591 492.782C291.551 495.055 288.627 496.294 284.819 496.5ZM304.291 495.049L302.784 467.09L307.976 466.81L309.484 494.769L304.291 495.049ZM329.09 494.113C325.256 494.319 322.189 493.403 319.889 491.364C317.616 489.323 316.37 486.266 316.15 482.192L315.299 466.415L320.492 466.135L321.332 481.712C321.487 484.588 322.212 486.645 323.507 487.884C324.829 489.121 326.621 489.679 328.885 489.557C331.148 489.435 332.857 488.689 334.012 487.318C335.166 485.947 335.666 483.824 335.511 480.948L334.671 465.37L339.784 465.095L340.634 480.872C340.854 484.946 339.93 488.12 337.863 490.395C335.822 492.668 332.898 493.907 329.09 494.113ZM361.526 492.364C359.396 492.479 357.393 492.239 355.518 491.646C353.669 491.025 352.031 490.112 350.604 488.907C349.202 487.674 348.081 486.199 347.241 484.481C346.4 482.764 345.924 480.867 345.812 478.79C345.7 476.713 345.97 474.776 346.62 472.978C347.271 471.18 348.241 469.606 349.53 468.255C350.818 466.877 352.349 465.793 354.122 465.003C355.894 464.186 357.858 463.72 360.015 463.603C362.305 463.48 364.417 463.766 366.351 464.463C368.283 465.134 369.943 466.206 371.331 467.68L368.146 471.016C367.075 469.979 365.9 469.228 364.62 468.763C363.338 468.271 361.965 468.065 360.5 468.144C359.036 468.223 357.704 468.535 356.505 469.08C355.332 469.624 354.317 470.36 353.459 471.287C352.628 472.213 351.992 473.289 351.55 474.515C351.136 475.739 350.967 477.07 351.045 478.508C351.122 479.946 351.433 481.251 351.977 482.423C352.547 483.594 353.296 484.596 354.222 485.427C355.174 486.257 356.263 486.879 357.487 487.294C358.738 487.707 360.095 487.874 361.56 487.795C363.024 487.716 364.368 487.377 365.591 486.777C366.812 486.15 367.899 485.25 368.85 484.077L372.378 487.092C371.155 488.68 369.62 489.924 367.772 490.825C365.925 491.726 363.842 492.239 361.526 492.364Z" fill="white"/>
<rect width="228.262" height="87.5962" rx="10" transform="matrix(0.999981 0.00623849 -0.0215036 0.999769 189.884 570.897)" fill="#0D387C"/>
<path d="M253.636 607.512L254.048 593.518L260.608 593.546C262.288 593.553 263.558 593.892 264.419 594.562C265.279 595.219 265.693 596.1 265.661 597.206C265.639 597.953 265.447 598.592 265.084 599.123C264.722 599.641 264.244 600.046 263.648 600.337C263.067 600.614 262.436 600.751 261.756 600.749L262.137 600.03C262.924 600.034 263.626 600.183 264.244 600.479C264.863 600.762 265.344 601.177 265.688 601.725C266.045 602.273 266.211 602.953 266.188 603.766C266.152 604.966 265.665 605.897 264.725 606.559C263.785 607.222 262.409 607.549 260.596 607.541L253.636 607.512ZM256.296 605.484L260.496 605.502C261.469 605.506 262.22 605.349 262.75 605.031C263.279 604.714 263.554 604.202 263.575 603.495C263.596 602.802 263.351 602.295 262.84 601.973C262.33 601.637 261.588 601.468 260.615 601.463L256.215 601.445L256.274 599.426L260.154 599.442C261.061 599.446 261.759 599.289 262.248 598.971C262.751 598.653 263.012 598.175 263.031 597.535C263.05 596.882 262.818 596.394 262.334 596.072C261.863 595.751 261.175 595.588 260.268 595.584L256.588 595.568L256.296 605.484ZM273.126 607.735C272.22 607.731 271.425 607.561 270.741 607.225C270.058 606.875 269.533 606.353 269.167 605.658C268.801 604.95 268.634 604.063 268.665 602.997L268.845 596.9L271.345 596.91L271.175 602.668C271.147 603.628 271.339 604.348 271.752 604.83C272.178 605.298 272.791 605.534 273.591 605.537C274.178 605.54 274.688 605.422 275.122 605.184C275.569 604.946 275.919 604.588 276.173 604.109C276.441 603.63 276.585 603.038 276.606 602.331L276.765 596.933L279.265 596.944L278.95 607.619L276.57 607.609L276.655 604.731L277.049 605.612C276.669 606.304 276.126 606.834 275.422 607.205C274.718 607.562 273.953 607.738 273.126 607.735ZM285.519 607.787C284.626 607.784 283.769 607.667 282.949 607.437C282.143 607.193 281.505 606.904 281.035 606.569L282.051 604.674C282.522 604.982 283.088 605.238 283.748 605.441C284.409 605.643 285.073 605.746 285.74 605.749C286.526 605.752 287.096 605.648 287.449 605.436C287.815 605.225 288.004 604.939 288.014 604.579C288.023 604.286 287.909 604.065 287.674 603.918C287.438 603.757 287.129 603.635 286.744 603.554C286.36 603.472 285.929 603.397 285.451 603.328C284.986 603.26 284.515 603.171 284.038 603.063C283.575 602.941 283.154 602.772 282.773 602.557C282.393 602.329 282.089 602.028 281.86 601.654C281.631 601.279 281.525 600.786 281.543 600.173C281.563 599.493 281.774 598.907 282.175 598.416C282.577 597.911 283.128 597.527 283.829 597.263C284.544 596.987 285.382 596.85 286.342 596.854C287.062 596.857 287.786 596.94 288.515 597.103C289.243 597.266 289.843 597.496 290.315 597.791L289.299 599.686C288.801 599.377 288.294 599.168 287.777 599.06C287.274 598.938 286.769 598.875 286.262 598.873C285.502 598.87 284.932 598.981 284.552 599.206C284.185 599.431 283.997 599.717 283.987 600.063C283.977 600.383 284.09 600.623 284.326 600.784C284.561 600.945 284.871 601.073 285.254 601.168C285.638 601.263 286.063 601.345 286.527 601.414C287.006 601.469 287.477 601.558 287.94 601.68C288.403 601.801 288.825 601.97 289.205 602.185C289.599 602.386 289.911 602.674 290.14 603.048C290.369 603.423 290.474 603.91 290.457 604.509C290.437 605.176 290.22 605.755 289.805 606.246C289.404 606.738 288.839 607.122 288.111 607.398C287.383 607.662 286.519 607.792 285.519 607.787ZM301.34 607.855C300.446 607.851 299.59 607.734 298.77 607.504C297.963 607.26 297.325 606.971 296.855 606.636L297.871 604.741C298.342 605.049 298.908 605.305 299.569 605.508C300.229 605.711 300.893 605.813 301.56 605.816C302.346 605.819 302.916 605.715 303.269 605.503C303.635 605.292 303.824 605.006 303.834 604.646C303.843 604.353 303.73 604.133 303.494 603.985C303.259 603.824 302.949 603.703 302.564 603.621C302.18 603.539 301.749 603.464 301.271 603.396C300.806 603.327 300.335 603.238 299.859 603.13C299.396 603.008 298.974 602.839 298.593 602.625C298.213 602.396 297.909 602.095 297.68 601.721C297.451 601.347 297.345 600.853 297.363 600.24C297.384 599.56 297.594 598.975 297.995 598.483C298.397 597.978 298.948 597.594 299.649 597.331C300.364 597.054 301.202 596.917 302.162 596.921C302.882 596.924 303.606 597.008 304.335 597.171C305.063 597.334 305.663 597.563 306.135 597.858L305.119 599.753C304.621 599.444 304.114 599.236 303.597 599.127C303.094 599.005 302.589 598.943 302.082 598.94C301.322 598.937 300.752 599.048 300.372 599.273C300.006 599.498 299.817 599.784 299.807 600.13C299.798 600.45 299.911 600.691 300.146 600.852C300.381 601.013 300.691 601.141 301.075 601.235C301.459 601.33 301.883 601.412 302.348 601.481C302.826 601.536 303.297 601.625 303.76 601.747C304.223 601.869 304.645 602.037 305.025 602.252C305.419 602.454 305.731 602.741 305.96 603.116C306.189 603.49 306.294 603.977 306.277 604.577C306.257 605.243 306.04 605.822 305.626 606.313C305.224 606.805 304.66 607.189 303.931 607.466C303.203 607.729 302.34 607.859 301.34 607.855ZM313.352 607.906C312.166 607.901 311.133 607.663 310.253 607.193C309.387 606.709 308.72 606.053 308.251 605.225C307.795 604.396 307.583 603.456 307.614 602.403C307.645 601.337 307.906 600.398 308.397 599.587C308.901 598.763 309.574 598.119 310.414 597.656C311.268 597.193 312.228 596.964 313.295 596.969C314.335 596.973 315.255 597.204 316.055 597.66C316.855 598.117 317.476 598.759 317.918 599.588C318.36 600.416 318.565 601.39 318.532 602.509C318.529 602.616 318.519 602.736 318.501 602.869C318.498 603.002 318.487 603.129 318.47 603.249L309.57 603.211L309.619 601.552L317.199 601.584L316.204 602.1C316.235 601.487 316.125 600.946 315.872 600.479C315.619 600.011 315.263 599.643 314.804 599.374C314.359 599.106 313.836 598.97 313.236 598.968C312.622 598.965 312.079 599.096 311.604 599.361C311.143 599.625 310.772 599.997 310.491 600.476C310.224 600.941 310.081 601.494 310.062 602.133L310.05 602.533C310.032 603.173 310.161 603.74 310.44 604.234C310.719 604.729 311.121 605.11 311.647 605.379C312.172 605.648 312.782 605.784 313.475 605.787C314.075 605.789 314.618 605.698 315.103 605.514C315.589 605.329 316.024 605.038 316.409 604.64L317.704 606.185C317.207 606.742 316.588 607.173 315.845 607.476C315.117 607.766 314.286 607.91 313.352 607.906ZM327.065 607.824L327.129 605.665L327.002 605.204L327.113 601.426C327.135 600.693 326.932 600.126 326.503 599.724C326.076 599.309 325.415 599.1 324.522 599.096C323.922 599.093 323.326 599.184 322.734 599.368C322.155 599.552 321.66 599.81 321.251 600.142L320.324 598.318C320.91 597.881 321.6 597.557 322.393 597.347C323.2 597.124 324.03 597.014 324.883 597.018C326.43 597.025 327.612 597.403 328.43 598.153C329.262 598.889 329.655 600.031 329.609 601.577L329.425 607.834L327.065 607.824ZM323.701 607.95C322.901 607.946 322.205 607.81 321.613 607.541C321.021 607.258 320.565 606.877 320.246 606.395C319.941 605.901 319.797 605.347 319.815 604.734C319.833 604.134 319.989 603.595 320.283 603.117C320.59 602.638 321.075 602.26 321.736 601.983C322.398 601.706 323.269 601.57 324.349 601.574L327.449 601.587L327.4 603.247L324.48 603.234C323.626 603.231 323.049 603.368 322.747 603.647C322.446 603.912 322.29 604.245 322.278 604.645C322.265 605.098 322.434 605.458 322.786 605.726C323.138 605.994 323.634 606.13 324.274 606.133C324.888 606.135 325.439 605.998 325.927 605.72C326.428 605.442 326.794 605.03 327.023 604.485L327.399 605.986C327.141 606.611 326.693 607.096 326.056 607.44C325.433 607.784 324.647 607.954 323.701 607.95ZM336.649 608.005C335.476 608 334.578 607.696 333.956 607.093C333.334 606.478 333.04 605.577 333.075 604.391L333.357 594.815L335.857 594.825L335.577 604.341C335.562 604.848 335.677 605.241 335.922 605.522C336.181 605.803 336.543 605.945 337.01 605.947C337.57 605.949 338.041 605.805 338.423 605.513L339.07 607.295C338.77 607.534 338.405 607.712 337.974 607.83C337.544 607.948 337.102 608.007 336.649 608.005ZM331.467 599.245L331.526 597.246L338.645 597.276L338.587 599.276L331.467 599.245ZM344.406 608.038C343.512 608.034 342.656 607.917 341.836 607.687C341.029 607.443 340.391 607.154 339.921 606.819L340.937 604.924C341.408 605.232 341.974 605.488 342.635 605.691C343.295 605.893 343.959 605.996 344.626 605.999C345.412 606.002 345.982 605.898 346.335 605.686C346.701 605.475 346.89 605.189 346.9 604.829C346.909 604.536 346.796 604.316 346.56 604.168C346.325 604.007 346.015 603.886 345.63 603.804C345.246 603.722 344.815 603.647 344.337 603.579C343.872 603.51 343.402 603.421 342.925 603.313C342.462 603.191 342.04 603.022 341.659 602.807C341.279 602.579 340.975 602.278 340.746 601.904C340.517 601.53 340.411 601.036 340.43 600.423C340.45 599.743 340.66 599.158 341.061 598.666C341.463 598.161 342.014 597.777 342.716 597.514C343.43 597.237 344.268 597.1 345.228 597.104C345.948 597.107 346.672 597.191 347.401 597.354C348.129 597.517 348.729 597.746 349.201 598.041L348.185 599.936C347.687 599.627 347.18 599.419 346.663 599.31C346.16 599.188 345.655 599.126 345.148 599.123C344.388 599.12 343.818 599.231 343.438 599.456C343.072 599.681 342.883 599.967 342.873 600.313C342.864 600.633 342.977 600.874 343.212 601.035C343.447 601.196 343.757 601.324 344.141 601.418C344.525 601.513 344.949 601.595 345.414 601.664C345.892 601.719 346.363 601.808 346.826 601.93C347.289 602.052 347.711 602.22 348.091 602.435C348.485 602.637 348.797 602.924 349.026 603.299C349.255 603.673 349.36 604.16 349.343 604.76C349.323 605.426 349.106 606.005 348.692 606.496C348.29 606.988 347.726 607.372 346.997 607.649C346.27 607.912 345.406 608.042 344.406 608.038ZM247.179 631.477L247.243 629.318L247.116 628.858L247.227 625.079C247.249 624.346 247.046 623.779 246.618 623.377C246.19 622.962 245.529 622.753 244.636 622.749C244.036 622.746 243.44 622.837 242.848 623.021C242.269 623.205 241.774 623.463 241.365 623.795L240.438 621.971C241.025 621.534 241.714 621.21 242.507 621C243.314 620.777 244.144 620.668 244.997 620.671C246.544 620.678 247.726 621.056 248.544 621.806C249.376 622.542 249.769 623.684 249.723 625.23L249.539 631.487L247.179 631.477ZM243.815 631.603C243.015 631.599 242.319 631.463 241.727 631.194C241.135 630.912 240.679 630.53 240.36 630.049C240.055 629.554 239.911 629 239.929 628.387C239.947 627.787 240.103 627.248 240.397 626.77C240.704 626.291 241.189 625.913 241.85 625.636C242.512 625.359 243.383 625.223 244.463 625.227L247.563 625.241L247.514 626.9L244.594 626.887C243.741 626.884 243.163 627.021 242.862 627.3C242.56 627.565 242.404 627.898 242.392 628.298C242.379 628.751 242.548 629.111 242.9 629.38C243.252 629.648 243.748 629.783 244.388 629.786C245.002 629.788 245.553 629.651 246.041 629.373C246.542 629.095 246.908 628.683 247.137 628.138L247.513 629.639C247.255 630.264 246.807 630.749 246.17 631.093C245.547 631.437 244.761 631.607 243.815 631.603ZM252.747 631.501L253.062 620.825L255.442 620.835L255.355 623.774L255.101 622.913C255.442 622.195 255.958 621.651 256.649 621.28C257.353 620.91 258.219 620.727 259.245 620.732L259.175 623.111C259.069 623.084 258.97 623.07 258.876 623.069C258.784 623.056 258.69 623.049 258.597 623.048C257.65 623.044 256.889 623.321 256.312 623.878C255.736 624.422 255.432 625.241 255.4 626.334L255.247 631.511L252.747 631.501ZM265.966 631.697C264.78 631.692 263.746 631.454 262.867 630.984C262.001 630.5 261.334 629.844 260.865 629.016C260.409 628.188 260.197 627.247 260.228 626.194C260.259 625.128 260.52 624.189 261.011 623.378C261.515 622.554 262.187 621.91 263.028 621.448C263.882 620.985 264.842 620.755 265.908 620.76C266.948 620.764 267.868 620.995 268.668 621.451C269.468 621.908 270.09 622.551 270.532 623.379C270.974 624.207 271.179 625.181 271.146 626.301C271.143 626.407 271.132 626.527 271.115 626.66C271.111 626.794 271.101 626.92 271.084 627.04L262.184 627.002L262.233 625.343L269.813 625.375L268.818 625.891C268.849 625.278 268.738 624.737 268.485 624.27C268.232 623.802 267.877 623.434 267.418 623.166C266.972 622.897 266.45 622.762 265.85 622.759C265.236 622.757 264.692 622.887 264.218 623.152C263.757 623.417 263.386 623.788 263.105 624.267C262.838 624.732 262.695 625.285 262.676 625.925L262.664 626.324C262.645 626.964 262.775 627.531 263.054 628.026C263.333 628.52 263.735 628.902 264.26 629.17C264.786 629.439 265.395 629.575 266.089 629.578C266.689 629.581 267.231 629.49 267.717 629.305C268.202 629.12 268.638 628.829 269.023 628.431L270.317 629.976C269.821 630.534 269.202 630.964 268.459 631.268C267.731 631.558 266.9 631.701 265.966 631.697ZM279.259 631.613L279.591 620.338C279.624 619.219 279.977 618.327 280.65 617.664C281.337 616.987 282.294 616.651 283.52 616.656C283.96 616.658 284.372 616.706 284.756 616.801C285.153 616.896 285.482 617.044 285.743 617.245L285.008 619.122C284.825 618.974 284.615 618.867 284.377 618.799C284.14 618.718 283.894 618.677 283.641 618.676C283.121 618.674 282.723 618.819 282.448 619.111C282.173 619.39 282.027 619.815 282.01 620.389L281.975 621.588L282.022 622.708L281.759 631.624L279.259 631.613ZM277.752 623.01L277.811 621.01L284.931 621.041L284.872 623.04L277.752 623.01ZM286.379 631.644L286.693 620.968L289.193 620.979L288.879 631.654L286.379 631.644ZM288.005 619.214C287.539 619.212 287.156 619.064 286.858 618.77C286.574 618.475 286.437 618.121 286.45 617.708C286.462 617.282 286.619 616.929 286.921 616.651C287.236 616.359 287.627 616.214 288.094 616.216C288.56 616.218 288.936 616.359 289.221 616.64C289.52 616.908 289.663 617.249 289.651 617.662C289.638 618.102 289.481 618.474 289.178 618.779C288.876 619.071 288.485 619.216 288.005 619.214ZM292.161 631.668L292.598 616.835L295.098 616.845L294.661 631.679L292.161 631.668ZM297.942 631.693L298.379 616.859L300.879 616.87L300.442 631.703L297.942 631.693ZM308.739 631.879C307.553 631.874 306.519 631.636 305.64 631.166C304.774 630.682 304.107 630.026 303.638 629.198C303.182 628.369 302.97 627.429 303.001 626.376C303.032 625.31 303.293 624.371 303.784 623.56C304.288 622.736 304.961 622.092 305.801 621.629C306.655 621.166 307.615 620.937 308.682 620.942C309.722 620.946 310.641 621.177 311.441 621.633C312.241 622.09 312.863 622.732 313.305 623.561C313.747 624.389 313.952 625.363 313.919 626.482C313.916 626.589 313.906 626.709 313.888 626.842C313.884 626.975 313.874 627.102 313.857 627.222L304.957 627.184L305.006 625.525L312.586 625.557L311.591 626.072C311.622 625.459 311.511 624.919 311.258 624.452C311.005 623.984 310.65 623.616 310.191 623.347C309.745 623.079 309.223 622.943 308.623 622.941C308.009 622.938 307.465 623.069 306.991 623.334C306.53 623.598 306.159 623.97 305.878 624.449C305.611 624.914 305.468 625.467 305.449 626.106L305.437 626.506C305.418 627.146 305.548 627.713 305.827 628.207C306.106 628.702 306.508 629.083 307.034 629.352C307.559 629.621 308.168 629.757 308.862 629.76C309.462 629.762 310.004 629.671 310.49 629.487C310.975 629.302 311.411 629.011 311.796 628.613L313.09 630.158C312.594 630.715 311.975 631.146 311.232 631.449C310.504 631.739 309.673 631.883 308.739 631.879ZM320.681 631.929C319.654 631.925 318.734 631.694 317.921 631.238C317.121 630.768 316.5 630.125 316.057 629.31C315.614 628.496 315.409 627.535 315.442 626.429C315.475 625.323 315.736 624.364 316.227 623.553C316.717 622.742 317.376 622.112 318.203 621.662C319.043 621.212 319.976 620.99 321.003 620.994C321.896 620.998 322.69 621.201 323.385 621.604C324.08 621.994 324.623 622.589 325.013 623.39C325.402 624.192 325.579 625.219 325.542 626.472C325.505 627.711 325.275 628.737 324.851 629.548C324.428 630.346 323.857 630.943 323.138 631.34C322.42 631.737 321.601 631.933 320.681 631.929ZM321.044 629.792C321.644 629.794 322.181 629.663 322.655 629.398C323.143 629.134 323.535 628.749 323.83 628.244C324.138 627.739 324.302 627.146 324.322 626.466C324.342 625.773 324.213 625.18 323.934 624.685C323.669 624.178 323.301 623.79 322.829 623.521C322.37 623.253 321.84 623.117 321.24 623.114C320.64 623.112 320.096 623.243 319.609 623.507C319.134 623.772 318.743 624.157 318.434 624.662C318.14 625.154 317.982 625.746 317.962 626.439C317.942 627.119 318.064 627.713 318.33 628.22C318.608 628.728 318.977 629.116 319.435 629.385C319.908 629.653 320.444 629.789 321.044 629.792ZM324.225 631.804L324.299 629.286L324.483 626.447L324.366 623.608L324.562 616.97L327.042 616.981L326.605 631.815L324.225 631.804ZM339.938 632.011C339.032 632.007 338.236 631.837 337.553 631.501C336.87 631.152 336.345 630.63 335.979 629.935C335.613 629.227 335.446 628.34 335.477 627.274L335.657 621.176L338.157 621.187L337.987 626.944C337.959 627.904 338.151 628.625 338.564 629.106C338.99 629.575 339.603 629.81 340.403 629.814C340.99 629.816 341.5 629.698 341.934 629.46C342.381 629.222 342.731 628.864 342.985 628.385C343.253 627.907 343.397 627.314 343.418 626.608L343.577 621.21L346.077 621.221L345.762 631.896L343.382 631.886L343.467 629.007L343.861 629.888C343.481 630.58 342.938 631.111 342.234 631.481C341.53 631.838 340.765 632.015 339.938 632.011ZM354.951 632.075C354.085 632.071 353.297 631.868 352.589 631.465C351.894 631.062 351.345 630.46 350.942 629.659C350.553 628.844 350.376 627.817 350.413 626.577C350.45 625.325 350.68 624.299 351.104 623.501C351.54 622.703 352.118 622.113 352.836 621.729C353.554 621.332 354.367 621.136 355.274 621.14C356.327 621.144 357.247 621.375 358.034 621.831C358.834 622.288 359.455 622.924 359.898 623.739C360.354 624.554 360.565 625.514 360.533 626.62C360.5 627.727 360.232 628.692 359.727 629.516C359.237 630.327 358.578 630.957 357.751 631.407C356.938 631.857 356.005 632.079 354.951 632.075ZM348.921 635.788L349.35 621.234L351.73 621.245L351.656 623.763L351.492 626.602L351.609 629.442L351.421 635.799L348.921 635.788ZM354.734 629.935C355.334 629.937 355.872 629.806 356.346 629.542C356.834 629.277 357.225 628.892 357.52 628.387C357.815 627.882 357.973 627.289 357.993 626.61C358.013 625.917 357.891 625.323 357.625 624.829C357.36 624.321 356.991 623.933 356.519 623.664C356.061 623.396 355.531 623.26 354.931 623.258C354.331 623.255 353.787 623.386 353.299 623.651C352.812 623.915 352.42 624.3 352.125 624.805C351.831 625.297 351.673 625.89 351.653 626.583C351.633 627.262 351.755 627.856 352.02 628.364C352.285 628.871 352.654 629.259 353.126 629.528C353.598 629.797 354.134 629.932 354.734 629.935ZM363.043 627.331L362.839 617.973L365.799 617.985L365.023 627.339L363.043 627.331ZM363.902 632.113C363.436 632.111 363.053 631.956 362.756 631.648C362.458 631.34 362.316 630.973 362.328 630.547C362.341 630.12 362.505 629.761 362.82 629.469C363.136 629.164 363.527 629.012 363.994 629.014C364.46 629.016 364.836 629.171 365.12 629.479C365.405 629.773 365.541 630.134 365.528 630.56C365.516 630.987 365.358 631.353 365.056 631.658C364.753 631.963 364.369 632.115 363.902 632.113Z" fill="white"/>
<defs>
<linearGradient id="paint0_linear_0_1" x1="310.265" y1="255.652" x2="302.326" y2="198.014" gradientUnits="userSpaceOnUse">
<stop/>
<stop offset="1" stop-opacity="0"/>
</linearGradient>
<linearGradient id="paint1_linear_0_1" x1="310.265" y1="255.652" x2="302.326" y2="198.014" gradientUnits="userSpaceOnUse">
<stop/>
<stop offset="1" stop-opacity="0"/>
</linearGradient>
<linearGradient id="paint2_linear_0_1" x1="310.265" y1="255.652" x2="302.326" y2="198.014" gradientUnits="userSpaceOnUse">
<stop/>
<stop offset="1" stop-opacity="0"/>
</linearGradient>
<linearGradient id="paint3_linear_0_1" x1="310.265" y1="255.652" x2="302.326" y2="198.014" gradientUnits="userSpaceOnUse">
<stop/>
<stop offset="1" stop-opacity="0"/>
</linearGradient>
<linearGradient id="paint4_linear_0_1" x1="310.265" y1="255.652" x2="302.326" y2="198.014" gradientUnits="userSpaceOnUse">
<stop/>
<stop offset="1" stop-opacity="0"/>
</linearGradient>
<linearGradient id="paint5_linear_0_1" x1="310.265" y1="255.652" x2="302.326" y2="198.014" gradientUnits="userSpaceOnUse">
<stop/>
<stop offset="1" stop-opacity="0"/>
</linearGradient>
<linearGradient id="paint6_linear_0_1" x1="310.265" y1="255.652" x2="302.326" y2="198.014" gradientUnits="userSpaceOnUse">
<stop/>
<stop offset="1" stop-opacity="0"/>
</linearGradient>
<linearGradient id="paint7_linear_0_1" x1="310.265" y1="255.652" x2="302.326" y2="198.014" gradientUnits="userSpaceOnUse">
<stop/>
<stop offset="1" stop-opacity="0"/>
</linearGradient>
<linearGradient id="paint8_linear_0_1" x1="310.265" y1="255.652" x2="302.326" y2="198.014" gradientUnits="userSpaceOnUse">
<stop/>
<stop offset="1" stop-opacity="0"/>
</linearGradient>
<linearGradient id="paint9_linear_0_1" x1="310.265" y1="255.652" x2="302.326" y2="198.014" gradientUnits="userSpaceOnUse">
<stop/>
<stop offset="1" stop-opacity="0"/>
</linearGradient>
<linearGradient id="paint10_linear_0_1" x1="310.265" y1="255.652" x2="302.326" y2="198.014" gradientUnits="userSpaceOnUse">
<stop/>
<stop offset="1" stop-opacity="0"/>
</linearGradient>
<linearGradient id="paint11_linear_0_1" x1="309.611" y1="254.481" x2="301.896" y2="197.743" gradientUnits="userSpaceOnUse">
<stop/>
<stop offset="1" stop-opacity="0"/>
</linearGradient>
<linearGradient id="paint12_linear_0_1" x1="310.228" y1="255.608" x2="302.125" y2="197.244" gradientUnits="userSpaceOnUse">
<stop/>
<stop offset="1" stop-opacity="0"/>
</linearGradient>
<linearGradient id="paint13_linear_0_1" x1="310.265" y1="255.652" x2="302.326" y2="198.014" gradientUnits="userSpaceOnUse">
<stop/>
<stop offset="1" stop-opacity="0"/>
</linearGradient>
<linearGradient id="paint14_linear_0_1" x1="310.265" y1="255.652" x2="302.326" y2="198.014" gradientUnits="userSpaceOnUse">
<stop/>
<stop offset="1" stop-opacity="0"/>
</linearGradient>
<linearGradient id="paint15_linear_0_1" x1="308.037" y1="255.647" x2="299.851" y2="196.818" gradientUnits="userSpaceOnUse">
<stop/>
<stop offset="1" stop-opacity="0"/>
</linearGradient>
<linearGradient id="paint16_linear_0_1" x1="310.265" y1="255.652" x2="302.326" y2="198.014" gradientUnits="userSpaceOnUse">
<stop/>
<stop offset="1" stop-opacity="0"/>
</linearGradient>
<linearGradient id="paint17_linear_0_1" x1="310.265" y1="255.652" x2="302.326" y2="198.014" gradientUnits="userSpaceOnUse">
<stop/>
<stop offset="1" stop-opacity="0"/>
</linearGradient>
<linearGradient id="paint18_linear_0_1" x1="310.265" y1="255.652" x2="302.326" y2="198.014" gradientUnits="userSpaceOnUse">
<stop/>
<stop offset="1" stop-opacity="0"/>
</linearGradient>
<linearGradient id="paint19_linear_0_1" x1="310.265" y1="255.652" x2="302.327" y2="198.014" gradientUnits="userSpaceOnUse">
<stop/>
<stop offset="1" stop-opacity="0"/>
</linearGradient>
<linearGradient id="paint20_linear_0_1" x1="310.265" y1="255.652" x2="302.327" y2="198.014" gradientUnits="userSpaceOnUse">
<stop/>
<stop offset="1" stop-opacity="0"/>
</linearGradient>
</defs>
</svg>
