<svg width="524" height="831" viewBox="0 0 524 831" fill="none" xmlns="http://www.w3.org/2000/svg">
<path d="M184.311 235.501L204.255 234L251.102 856.433L231.158 857.934L184.311 235.501Z" fill="#C9D2E5"/>
<path d="M11.11 53.8031C-27.541 80.7756 -34.8138 99.2731 -57.4346 140.968C-70.1715 164.446 -74.3472 196.669 -75.8046 220.672L36.1318 225.314C36.1318 225.314 29.7456 174.773 39.4635 144.988C63.8565 70.2236 169 6.50002 169 6.50002C138.444 9.00728 65.6426 15.7475 11.11 53.8031Z" fill="#B73C94"/>
<path d="M11.11 53.8031C-27.541 80.7756 -34.8138 99.2731 -57.4346 140.968C-70.1715 164.446 -74.3472 196.669 -75.8046 220.672L36.1318 225.314C36.1318 225.314 29.7456 174.773 39.4635 144.988C63.8565 70.2236 169 6.50002 169 6.50002C138.444 9.00728 65.6426 15.7475 11.11 53.8031Z" fill="url(#paint0_linear_1469_22)" fill-opacity="0.2"/>
<path fill-rule="evenodd" clip-rule="evenodd" d="M276.983 203.938C277.154 203.894 277.323 203.886 277.49 203.912L276.983 203.938ZM154.138 216.634C154.241 216.614 154.348 216.606 154.461 216.61L154.138 216.634ZM36.1318 225.314L-75.8046 220.672C-76.054 224.779 -76.4634 228.971 -76.8644 233.076C-78.4437 249.248 -79.8912 264.07 -70.9064 267.037C-39.9968 277.244 -1.17711 274.072 23.122 270.937C31.5898 269.844 32.5836 252.582 33.3303 239.612C33.7913 231.604 34.1581 225.232 36.1318 225.314Z" fill="#B73C94"/>
<path fill-rule="evenodd" clip-rule="evenodd" d="M276.983 203.938C277.154 203.894 277.323 203.886 277.49 203.912L276.983 203.938ZM154.138 216.634C154.241 216.614 154.348 216.606 154.461 216.61L154.138 216.634ZM36.1318 225.314L-75.8046 220.672C-76.054 224.779 -76.4634 228.971 -76.8644 233.076C-78.4437 249.248 -79.8912 264.07 -70.9064 267.037C-39.9968 277.244 -1.17711 274.072 23.122 270.937C31.5898 269.844 32.5836 252.582 33.3303 239.612C33.7913 231.604 34.1581 225.232 36.1318 225.314Z" fill="url(#paint1_linear_1469_22)" fill-opacity="0.2"/>
<path d="M154.461 216.61L276.983 203.938C276.983 203.938 265.309 152.227 252.216 121.239C231.645 72.553 178.5 4.5 178.5 4.5C178.5 4.5 144.01 79.1788 142.003 128.504C140.588 163.258 154.461 216.61 154.461 216.61Z" fill="#B73C94"/>
<path d="M154.461 216.61L276.983 203.938C276.983 203.938 265.309 152.227 252.216 121.239C231.645 72.553 178.5 4.5 178.5 4.5C178.5 4.5 144.01 79.1788 142.003 128.504C140.588 163.258 154.461 216.61 154.461 216.61Z" fill="url(#paint2_linear_1469_22)" fill-opacity="0.2"/>
<path d="M276.983 203.938L154.461 216.61C157.389 216.732 159.178 225.073 161.236 234.669C164.022 247.663 167.301 262.956 174.57 263.257C201.137 264.359 234.573 258.758 264.375 253.766C266.465 253.416 268.538 253.069 270.589 252.727C276.678 251.713 275.893 236.818 275.203 223.743C274.671 213.651 274.196 204.643 276.983 203.938Z" fill="#B73C94"/>
<path d="M276.983 203.938L154.461 216.61C157.389 216.732 159.178 225.073 161.236 234.669C164.022 247.663 167.301 262.956 174.57 263.257C201.137 264.359 234.573 258.758 264.375 253.766C266.465 253.416 268.538 253.069 270.589 252.727C276.678 251.713 275.893 236.818 275.203 223.743C274.671 213.651 274.196 204.643 276.983 203.938Z" fill="url(#paint3_linear_1469_22)" fill-opacity="0.2"/>
<path d="M39.4635 144.988C29.7456 174.773 36.1318 225.314 36.1318 225.314L154.138 216.634C154.241 216.614 154.348 216.606 154.461 216.61C154.461 216.61 140.588 163.258 142.003 128.504C144.01 79.1788 178.5 4.5 178.5 4.5L169 6.50002C169 6.50002 63.8565 70.2236 39.4635 144.988Z" fill="#B73C94"/>
<path d="M39.4635 144.988C29.7456 174.773 36.1318 225.314 36.1318 225.314L154.138 216.634C154.241 216.614 154.348 216.606 154.461 216.61C154.461 216.61 140.588 163.258 142.003 128.504C144.01 79.1788 178.5 4.5 178.5 4.5L169 6.50002C169 6.50002 63.8565 70.2236 39.4635 144.988Z" fill="url(#paint4_linear_1469_22)" fill-opacity="0.2"/>
<path d="M50.0988 272.056C92.3813 271.442 125.31 270.953 143.889 266.989C152.979 265.049 152.508 247.294 152.14 233.403C151.903 224.458 151.708 217.115 154.138 216.634L36.1318 225.314C38.1692 225.399 38.8817 232.702 39.7412 241.511C41.0628 255.057 42.7317 272.163 50.0988 272.056Z" fill="#B73C94"/>
<path d="M50.0988 272.056C92.3813 271.442 125.31 270.953 143.889 266.989C152.979 265.049 152.508 247.294 152.14 233.403C151.903 224.458 151.708 217.115 154.138 216.634L36.1318 225.314C38.1692 225.399 38.8817 232.702 39.7412 241.511C41.0628 255.057 42.7317 272.163 50.0988 272.056Z" fill="url(#paint5_linear_1469_22)" fill-opacity="0.2"/>
<path d="M252.216 121.239C265.309 152.227 276.983 203.938 276.983 203.938C277.154 203.894 277.323 203.886 277.49 203.912L404.43 197.387C404.43 197.387 386.297 144.65 366.376 115.913C319.554 48.3701 190.5 4.50001 190.5 4.50001C188.853 4.66406 186.665 4.582 184.48 4.50012C182.302 4.41844 180.128 4.33693 178.5 4.5C178.5 4.5 231.645 72.553 252.216 121.239Z" fill="#B73C94"/>
<path d="M252.216 121.239C265.309 152.227 276.983 203.938 276.983 203.938C277.154 203.894 277.323 203.886 277.49 203.912L404.43 197.387C404.43 197.387 386.297 144.65 366.376 115.913C319.554 48.3701 190.5 4.50001 190.5 4.50001C188.853 4.66406 186.665 4.582 184.48 4.50012C182.302 4.41844 180.128 4.33693 178.5 4.5C178.5 4.5 231.645 72.553 252.216 121.239Z" fill="url(#paint6_linear_1469_22)" fill-opacity="0.2"/>
<path d="M301.208 250.494C332.912 251.809 364.299 249.608 392.586 243.275C398.077 242.045 399.292 228.031 400.352 215.805C401.171 206.362 401.897 197.985 404.43 197.387L277.49 203.912C279.802 204.266 281.613 211.118 283.819 219.462C287.361 232.86 291.921 250.109 301.208 250.494Z" fill="#B73C94"/>
<path d="M301.208 250.494C332.912 251.809 364.299 249.608 392.586 243.275C398.077 242.045 399.292 228.031 400.352 215.805C401.171 206.362 401.897 197.985 404.43 197.387L277.49 203.912C279.802 204.266 281.613 211.118 283.819 219.462C287.361 232.86 291.921 250.109 301.208 250.494Z" fill="url(#paint7_linear_1469_22)" fill-opacity="0.2"/>
<path d="M404.43 197.387L514.966 164.71C514.966 164.71 467.002 119.136 432.247 95.5644C348.164 38.5369 190.5 4.50001 190.5 4.50001C190.5 4.50001 319.554 48.3701 366.376 115.913C386.297 144.65 404.43 197.387 404.43 197.387Z" fill="#B73C94"/>
<path d="M404.43 197.387L514.966 164.71C514.966 164.71 467.002 119.136 432.247 95.5644C348.164 38.5369 190.5 4.50001 190.5 4.50001C190.5 4.50001 319.554 48.3701 366.376 115.913C386.297 144.65 404.43 197.387 404.43 197.387Z" fill="url(#paint8_linear_1469_22)" fill-opacity="0.2"/>
<path d="M518.258 213.945C526.951 208.05 523.963 188.208 514.966 164.71L404.43 197.387C406.198 196.97 407.31 200.798 408.882 206.206C412.478 218.576 418.478 239.217 440.222 236.263C445.286 235.575 449.887 234.974 454.103 234.424L454.117 234.422L454.121 234.421L454.141 234.419L454.145 234.418C486.511 230.192 496.158 228.933 518.258 213.945Z" fill="#B73C94"/>
<path d="M518.258 213.945C526.951 208.05 523.963 188.208 514.966 164.71L404.43 197.387C406.198 196.97 407.31 200.798 408.882 206.206C412.478 218.576 418.478 239.217 440.222 236.263C445.286 235.575 449.887 234.974 454.103 234.424L454.117 234.422L454.121 234.421L454.141 234.419L454.145 234.418C486.511 230.192 496.158 228.933 518.258 213.945Z" fill="url(#paint9_linear_1469_22)" fill-opacity="0.2"/>
<path d="M489.056 113.308C462.623 70.7842 413.043 26.9504 340.267 10.0782C287.682 -2.11306 238.241 -0.255732 190.5 4.50001C190.5 4.50001 348.164 38.5369 432.247 95.5644C467.002 119.136 514.966 164.71 514.966 164.71C508.642 148.191 499.349 129.866 489.056 113.308Z" fill="#B73C94"/>
<path d="M489.056 113.308C462.623 70.7842 413.043 26.9504 340.267 10.0782C287.682 -2.11306 238.241 -0.255732 190.5 4.50001C190.5 4.50001 348.164 38.5369 432.247 95.5644C467.002 119.136 514.966 164.71 514.966 164.71C508.642 148.191 499.349 129.866 489.056 113.308Z" fill="url(#paint10_linear_1469_22)" fill-opacity="0.2"/>
<path d="M154.275 215.975L276.022 203.557C276.022 203.557 264.4 152.675 251.376 122.182C230.915 74.2733 178.077 7.29627 178.077 7.29627C178.077 7.29627 143.834 80.7564 141.859 129.285C140.468 163.478 154.275 215.975 154.275 215.975Z" fill="#FCDC8F"/>
<path d="M154.275 215.975L276.022 203.557C276.022 203.557 264.4 152.675 251.376 122.182C230.915 74.2733 178.077 7.29627 178.077 7.29627C178.077 7.29627 143.834 80.7564 141.859 129.285C140.468 163.478 154.275 215.975 154.275 215.975Z" fill="url(#paint11_linear_1469_22)" fill-opacity="0.2"/>
<path d="M277.263 203.262L153.921 216.131C156.869 216.254 158.668 224.703 160.736 234.422C163.538 247.583 166.835 263.073 174.153 263.377C200.896 264.486 234.557 258.804 264.558 253.74C266.663 253.384 268.749 253.032 270.814 252.686C276.944 251.657 276.157 236.569 275.467 223.324C274.934 213.102 274.458 203.978 277.263 203.262Z" fill="#FCDC8F"/>
<path d="M277.263 203.262L153.921 216.131C156.869 216.254 158.668 224.703 160.736 234.422C163.538 247.583 166.835 263.073 174.153 263.377C200.896 264.486 234.557 258.804 264.558 253.74C266.663 253.384 268.749 253.032 270.814 252.686C276.944 251.657 276.157 236.569 275.467 223.324C274.934 213.102 274.458 203.978 277.263 203.262Z" fill="url(#paint12_linear_1469_22)" fill-opacity="0.2"/>
<path d="M39.4635 144.988C29.7456 174.773 36.1318 225.314 36.1318 225.314L154.138 216.634C154.241 216.614 154.348 216.606 154.461 216.61C154.461 216.61 140.588 163.258 142.003 128.504C144.01 79.1788 178.5 4.5 178.5 4.5L169 6.50002C169 6.50002 63.8565 70.2236 39.4635 144.988Z" fill="#F99557"/>
<path d="M39.4635 144.988C29.7456 174.773 36.1318 225.314 36.1318 225.314L154.138 216.634C154.241 216.614 154.348 216.606 154.461 216.61C154.461 216.61 140.588 163.258 142.003 128.504C144.01 79.1788 178.5 4.5 178.5 4.5L169 6.50002C169 6.50002 63.8565 70.2236 39.4635 144.988Z" fill="url(#paint13_linear_1469_22)" fill-opacity="0.2"/>
<path d="M50.0988 272.056C92.3813 271.442 125.31 270.953 143.889 266.989C152.979 265.049 152.508 247.294 152.14 233.403C151.903 224.458 151.708 217.115 154.138 216.634L36.1318 225.314C38.1692 225.399 38.8817 232.702 39.7412 241.511C41.0628 255.057 42.7317 272.163 50.0988 272.056Z" fill="#F99557"/>
<path d="M50.0988 272.056C92.3813 271.442 125.31 270.953 143.889 266.989C152.979 265.049 152.508 247.294 152.14 233.403C151.903 224.458 151.708 217.115 154.138 216.634L36.1318 225.314C38.1692 225.399 38.8817 232.702 39.7412 241.511C41.0628 255.057 42.7317 272.163 50.0988 272.056Z" fill="url(#paint14_linear_1469_22)" fill-opacity="0.2"/>
<path d="M250.613 120.929C263.858 151.858 275.68 203.466 275.68 203.466C275.853 203.423 276.024 203.415 276.192 203.441L404.446 196.996C404.446 196.996 372 144 351 114.5C296.053 37.3118 188.196 4.40443 188.196 4.40443C186.532 4.56728 184.321 4.48426 182.114 4.40142C179.913 4.31878 177.716 4.23631 176.072 4.3982C176.072 4.3982 229.803 72.3352 250.613 120.929Z" fill="#37DECD"/>
<path d="M299.893 250.44C332.01 251.772 363.808 249.514 392.466 243.037C398.03 241.78 399.265 227.47 400.343 214.985C401.176 205.342 401.914 196.788 404.48 196.177L275.881 202.882C278.223 203.243 280.056 210.238 282.288 218.758C285.872 232.438 290.485 250.049 299.893 250.44Z" fill="#37DECD"/>
<path d="M299.893 250.44C332.01 251.772 363.808 249.514 392.466 243.037C398.03 241.78 399.265 227.47 400.343 214.985C401.176 205.342 401.914 196.788 404.48 196.177L275.881 202.882C278.223 203.243 280.056 210.238 282.288 218.758C285.872 232.438 290.485 250.049 299.893 250.44Z" fill="url(#paint15_linear_1469_22)" fill-opacity="0.2"/>
<path d="M404.43 197.387L514.966 164.71C514.966 164.71 467.002 119.136 432.247 95.5644C348.164 38.5369 190.5 4.50001 190.5 4.50001C190.5 4.50001 298.678 45.9568 345.5 113.5C365.421 142.236 404.43 197.387 404.43 197.387Z" fill="#088BC1"/>
<path d="M404.43 197.387L514.966 164.71C514.966 164.71 467.002 119.136 432.247 95.5644C348.164 38.5369 190.5 4.50001 190.5 4.50001C190.5 4.50001 298.678 45.9568 345.5 113.5C365.421 142.236 404.43 197.387 404.43 197.387Z" fill="url(#paint16_linear_1469_22)" fill-opacity="0.2"/>
<path d="M518.258 213.945C526.951 208.05 523.963 188.208 514.966 164.71L404.43 197.387C406.198 196.97 407.31 200.798 408.882 206.206C412.478 218.576 418.478 239.217 440.222 236.263C445.286 235.575 449.887 234.974 454.103 234.424L454.117 234.422L454.121 234.421L454.141 234.419L454.145 234.418C486.511 230.192 496.158 228.933 518.258 213.945Z" fill="#088BC1"/>
<path d="M518.258 213.945C526.951 208.05 523.963 188.208 514.966 164.71L404.43 197.387C406.198 196.97 407.31 200.798 408.882 206.206C412.478 218.576 418.478 239.217 440.222 236.263C445.286 235.575 449.887 234.974 454.103 234.424L454.117 234.422L454.121 234.421L454.141 234.419L454.145 234.418C486.511 230.192 496.158 228.933 518.258 213.945Z" fill="url(#paint17_linear_1469_22)" fill-opacity="0.2"/>
<path d="M489.056 113.308C462.623 70.7842 413.043 26.9504 340.267 10.0782C287.682 -2.11306 238.241 -0.255732 190.5 4.50001C190.5 4.50001 348.164 38.5369 432.247 95.5644C467.002 119.136 514.966 164.71 514.966 164.71C508.642 148.191 499.349 129.866 489.056 113.308Z" fill="#B73C94"/>
<path d="M489.056 113.308C462.623 70.7842 413.043 26.9504 340.267 10.0782C287.682 -2.11306 238.241 -0.255732 190.5 4.50001C190.5 4.50001 348.164 38.5369 432.247 95.5644C467.002 119.136 514.966 164.71 514.966 164.71C508.642 148.191 499.349 129.866 489.056 113.308Z" fill="url(#paint18_linear_1469_22)" fill-opacity="0.2"/>
<path d="M11.11 53.8031C-27.541 80.7756 -34.8138 99.2731 -57.4346 140.968C-70.1715 164.446 -74.3472 196.669 -75.8046 220.672L36.1318 225.314C36.1318 225.314 29.7456 174.773 39.4635 144.988C63.8565 70.2236 169 6.50002 169 6.50002C138.444 9.00728 65.6426 15.7475 11.11 53.8031Z" fill="#FE7098"/>
<path d="M11.11 53.8031C-27.541 80.7756 -34.8138 99.2731 -57.4346 140.968C-70.1715 164.446 -74.3472 196.669 -75.8046 220.672L36.1318 225.314C36.1318 225.314 29.7456 174.773 39.4635 144.988C63.8565 70.2236 169 6.50002 169 6.50002C138.444 9.00728 65.6426 15.7475 11.11 53.8031Z" fill="url(#paint19_linear_1469_22)" fill-opacity="0.2"/>
<path fill-rule="evenodd" clip-rule="evenodd" d="M276.983 203.938C277.154 203.894 277.323 203.886 277.49 203.912L276.983 203.938ZM154.138 216.634C154.241 216.614 154.348 216.606 154.461 216.61L154.138 216.634ZM36.1318 225.314L-75.8046 220.672C-76.054 224.779 -76.4634 228.971 -76.8644 233.076C-78.4437 249.248 -79.8912 264.07 -70.9064 267.037C-39.9968 277.244 -1.17711 274.072 23.122 270.937C31.5898 269.844 32.5836 252.582 33.3303 239.612C33.7913 231.604 34.1581 225.232 36.1318 225.314Z" fill="#FE7098"/>
<path fill-rule="evenodd" clip-rule="evenodd" d="M276.983 203.938C277.154 203.894 277.323 203.886 277.49 203.912L276.983 203.938ZM154.138 216.634C154.241 216.614 154.348 216.606 154.461 216.61L154.138 216.634ZM36.1318 225.314L-75.8046 220.672C-76.054 224.779 -76.4634 228.971 -76.8644 233.076C-78.4437 249.248 -79.8912 264.07 -70.9064 267.037C-39.9968 277.244 -1.17711 274.072 23.122 270.937C31.5898 269.844 32.5836 252.582 33.3303 239.612C33.7913 231.604 34.1581 225.232 36.1318 225.314Z" fill="url(#paint20_linear_1469_22)" fill-opacity="0.2"/>
<path d="M94.2278 408.438C93.5498 397.413 101.938 387.926 112.962 387.248L308.423 375.228C319.448 374.55 328.935 382.937 329.613 393.962L336.213 501.287C336.891 512.312 328.503 521.799 317.479 522.477L122.018 534.497C110.993 535.175 101.506 526.787 100.828 515.763L94.2278 408.438Z" fill="#10689A"/>
<path d="M139.551 446.704L138.044 418.745L143.236 418.465L144.744 446.424L139.551 446.704Z" fill="white"/>
<path d="M162.766 423.821C164.471 423.729 166.006 423.98 167.374 424.574C168.768 425.166 169.888 426.134 170.735 427.477C171.58 428.793 172.061 430.53 172.177 432.687L172.836 444.909L167.844 445.178L167.219 433.595C167.117 431.705 166.588 430.318 165.633 429.435C164.704 428.55 163.441 428.151 161.843 428.237C160.671 428.3 159.646 428.596 158.766 429.124C157.887 429.652 157.22 430.409 156.766 431.395C156.336 432.353 156.161 433.551 156.238 434.988L156.82 445.773L151.827 446.042L150.677 424.713L155.43 424.457L155.74 430.208L154.807 428.496C155.479 427.098 156.501 426.001 157.874 425.206C159.272 424.383 160.902 423.921 162.766 423.821Z" fill="white"/>
<path d="M188.251 444.358C186.201 444.469 184.326 444.116 182.626 443.3C180.951 442.455 179.604 441.246 178.585 439.672C177.565 438.098 176.996 436.206 176.877 433.996C176.757 431.786 177.12 429.843 177.964 428.169C178.809 426.494 180.019 425.16 181.594 424.168C183.196 423.173 185.023 422.621 187.073 422.51C188.857 422.414 190.476 422.727 191.931 423.45C193.384 424.146 194.566 425.271 195.477 426.824C196.389 428.377 196.912 430.405 197.047 432.908C197.181 435.385 196.892 437.456 196.181 439.124C195.468 440.765 194.428 442.022 193.059 442.897C191.691 443.772 190.088 444.259 188.251 444.358ZM188.62 440.052C189.818 439.988 190.869 439.664 191.772 439.081C192.702 438.497 193.419 437.684 193.924 436.642C194.455 435.598 194.684 434.398 194.611 433.04C194.536 431.655 194.179 430.486 193.54 429.532C192.927 428.55 192.126 427.819 191.139 427.338C190.178 426.856 189.099 426.647 187.9 426.712C186.702 426.776 185.638 427.101 184.708 427.685C183.805 428.268 183.088 429.081 182.556 430.124C182.05 431.14 181.835 432.34 181.909 433.724C181.983 435.082 182.326 436.252 182.94 437.234C183.58 438.214 184.381 438.946 185.341 439.428C186.329 439.909 187.421 440.117 188.62 440.052ZM195.306 443.698L195.034 438.665L194.928 432.982L194.223 427.332L193.508 414.071L198.461 413.804L200.059 443.441L195.306 443.698Z" fill="white"/>
<path d="M206.63 443.087L205.48 421.758L210.473 421.489L211.623 442.818L206.63 443.087ZM207.807 418.107C206.875 418.158 206.087 417.906 205.443 417.354C204.826 416.799 204.495 416.109 204.45 415.284C204.404 414.432 204.659 413.71 205.215 413.12C205.795 412.501 206.552 412.166 207.484 412.116C208.416 412.066 209.19 412.304 209.806 412.832C210.447 413.332 210.79 413.994 210.834 414.82C210.882 415.698 210.629 416.46 210.076 417.104C209.522 417.721 208.766 418.056 207.807 418.107Z" fill="white"/>
<path d="M231.317 441.756L231.084 437.442L230.755 436.539L230.348 428.99C230.269 427.525 229.769 426.417 228.847 425.665C227.924 424.887 226.57 424.546 224.786 424.643C223.588 424.707 222.413 424.958 221.261 425.394C220.136 425.828 219.192 426.4 218.43 427.108L216.276 423.579C217.374 422.639 218.697 421.913 220.245 421.402C221.818 420.864 223.457 420.548 225.161 420.456C228.25 420.29 230.673 420.907 232.431 422.308C234.214 423.68 235.189 425.911 235.356 429L236.03 441.502L231.317 441.756ZM224.622 442.397C223.024 442.483 221.612 442.293 220.385 441.825C219.156 441.33 218.183 440.621 217.466 439.699C216.774 438.748 216.395 437.66 216.329 436.435C216.264 435.237 216.485 434.143 216.993 433.155C217.527 432.164 218.431 431.355 219.706 430.725C220.981 430.095 222.696 429.723 224.853 429.606L231.044 429.272L231.223 432.588L225.392 432.902C223.687 432.994 222.557 433.335 222.002 433.926C221.445 434.49 221.188 435.172 221.231 435.971C221.28 436.876 221.678 437.575 222.425 438.069C223.173 438.563 224.186 438.775 225.464 438.707C226.689 438.64 227.766 438.302 228.694 437.691C229.649 437.079 230.31 436.215 230.678 435.101L231.678 438.051C231.266 439.328 230.453 440.347 229.239 441.107C228.051 441.865 226.512 442.295 224.622 442.397Z" fill="white"/>
<path d="M253.377 418.935C255.081 418.843 256.617 419.094 257.984 419.688C259.378 420.28 260.499 421.248 261.345 422.591C262.191 423.908 262.672 425.644 262.788 427.801L263.447 440.023L258.454 440.293L257.83 428.709C257.728 426.819 257.199 425.432 256.243 424.549C255.314 423.664 254.051 423.265 252.453 423.351C251.282 423.414 250.256 423.71 249.377 424.238C248.497 424.766 247.83 425.523 247.376 426.509C246.947 427.467 246.771 428.665 246.849 430.103L247.43 440.887L242.438 441.156L241.287 419.827L246.041 419.571L246.351 425.323L245.417 423.61C246.09 422.212 247.112 421.115 248.484 420.32C249.882 419.497 251.513 419.035 253.377 418.935Z" fill="white"/>
<path d="M282.922 438.973L282.689 434.66L282.36 433.756L281.953 426.207C281.874 424.742 281.373 423.634 280.452 422.883C279.528 422.105 278.175 421.764 276.391 421.86C275.192 421.925 274.017 422.175 272.866 422.611C271.741 423.045 270.797 423.617 270.034 424.326L267.881 420.797C268.979 419.856 270.302 419.131 271.85 418.62C273.423 418.081 275.062 417.766 276.766 417.674C279.855 417.507 282.278 418.124 284.036 419.525C285.819 420.898 286.794 423.128 286.961 426.217L287.635 438.719L282.922 438.973ZM276.226 439.615C274.629 439.701 273.216 439.51 271.989 439.042C270.761 438.547 269.788 437.839 269.071 436.916C268.379 435.965 267.999 434.877 267.933 433.653C267.869 432.454 268.09 431.361 268.598 430.372C269.132 429.382 270.036 428.572 271.311 427.942C272.585 427.313 274.301 426.94 276.458 426.824L282.649 426.49L282.828 429.805L276.996 430.119C275.292 430.211 274.162 430.553 273.606 431.143C273.049 431.708 272.792 432.389 272.835 433.188C272.884 434.093 273.282 434.793 274.03 435.287C274.778 435.78 275.791 435.993 277.069 435.924C278.294 435.858 279.37 435.519 280.299 434.909C281.254 434.296 281.915 433.433 282.282 432.318L283.283 435.268C282.871 436.546 282.058 437.564 280.844 438.324C279.656 439.083 278.117 439.513 276.226 439.615Z" fill="white"/>
<path d="M148.33 495.582C145.987 495.709 144.144 495.207 142.801 494.078C141.457 492.922 140.721 491.159 140.593 488.789L139.561 469.657L144.554 469.387L145.579 488.4C145.634 489.412 145.929 490.184 146.465 490.715C147.028 491.246 147.775 491.486 148.707 491.436C149.826 491.376 150.742 491.032 151.456 490.406L153.046 493.886C152.486 494.397 151.786 494.795 150.947 495.081C150.108 495.366 149.235 495.533 148.33 495.582ZM136.525 478.713L136.309 474.719L150.529 473.952L150.744 477.947L136.525 478.713Z" fill="white"/>
<path d="M166.114 494.623C163.931 494.741 161.962 494.38 160.207 493.54C158.451 492.673 157.036 491.441 155.962 489.843C154.888 488.245 154.294 486.394 154.181 484.291C154.066 482.161 154.457 480.257 155.355 478.579C156.251 476.875 157.526 475.511 159.18 474.487C160.834 473.463 162.753 472.893 164.936 472.775C167.146 472.656 169.129 473.016 170.883 473.856C172.664 474.695 174.078 475.901 175.124 477.473C176.197 479.044 176.791 480.908 176.908 483.065C177.021 485.169 176.63 487.073 175.733 488.777C174.864 490.479 173.589 491.857 171.91 492.909C170.256 493.933 168.324 494.504 166.114 494.623ZM165.884 490.349C167.109 490.283 168.186 489.958 169.116 489.374C170.046 488.79 170.75 487.977 171.228 486.937C171.732 485.895 171.948 484.695 171.875 483.337C171.8 481.952 171.457 480.782 170.844 479.827C170.257 478.844 169.47 478.112 168.483 477.631C167.495 477.15 166.403 476.942 165.204 477.007C163.98 477.073 162.902 477.398 161.972 477.982C161.069 478.565 160.365 479.377 159.86 480.419C159.354 481.435 159.139 482.635 159.213 484.019C159.287 485.377 159.63 486.547 160.244 487.529C160.858 488.511 161.645 489.243 162.605 489.725C163.593 490.206 164.686 490.414 165.884 490.349Z" fill="white"/>
<path d="M205.819 492.602C201.985 492.809 198.917 491.893 196.618 489.854C194.344 487.813 193.098 484.756 192.878 480.682L192.028 464.905L197.22 464.625L198.06 480.202C198.215 483.078 198.94 485.135 200.236 486.374C201.557 487.611 203.35 488.169 205.613 488.047C207.877 487.925 209.586 487.178 210.74 485.808C211.895 484.437 212.395 482.314 212.239 479.438L211.4 463.86L216.512 463.585L217.363 479.362C217.583 483.436 216.659 486.61 214.592 488.885C212.551 491.158 209.627 492.397 205.819 492.602Z" fill="white"/>
<path d="M225.292 491.152L223.784 463.193L228.977 462.913L230.484 490.872L225.292 491.152Z" fill="white"/>
<path d="M250.091 490.215C246.256 490.422 243.189 489.506 240.889 487.467C238.616 485.426 237.37 482.369 237.15 478.295L236.299 462.518L241.492 462.238L242.332 477.815C242.487 480.691 243.212 482.748 244.507 483.987C245.829 485.224 247.622 485.782 249.885 485.66C252.148 485.538 253.857 484.791 255.012 483.42C256.166 482.05 256.666 479.926 256.511 477.051L255.671 461.473L260.784 461.197L261.634 476.975C261.854 481.049 260.93 484.223 258.863 486.498C256.823 488.771 253.898 490.01 250.091 490.215Z" fill="white"/>
<path d="M282.526 488.466C280.396 488.581 278.393 488.342 276.519 487.749C274.669 487.127 273.031 486.214 271.604 485.009C270.202 483.776 269.081 482.301 268.241 480.584C267.4 478.867 266.924 476.97 266.812 474.893C266.7 472.816 266.97 470.878 267.621 469.081C268.271 467.283 269.241 465.709 270.53 464.357C271.818 462.979 273.349 461.895 275.122 461.105C276.894 460.289 278.858 459.822 281.015 459.706C283.305 459.583 285.417 459.869 287.351 460.566C289.283 461.236 290.943 462.309 292.331 463.783L289.146 467.119C288.075 466.082 286.9 465.331 285.62 464.866C284.338 464.374 282.965 464.167 281.5 464.246C280.036 464.325 278.704 464.638 277.505 465.183C276.333 465.727 275.317 466.463 274.459 467.39C273.628 468.316 272.992 469.392 272.55 470.618C272.136 471.842 271.967 473.173 272.045 474.611C272.122 476.049 272.433 477.354 272.977 478.526C273.547 479.697 274.296 480.698 275.222 481.53C276.175 482.359 277.263 482.982 278.487 483.396C279.738 483.81 281.096 483.977 282.56 483.898C284.025 483.819 285.368 483.479 286.591 482.879C287.812 482.253 288.899 481.353 289.85 480.18L293.378 483.194C292.155 484.783 290.62 486.027 288.772 486.928C286.925 487.829 284.843 488.341 282.526 488.466Z" fill="white"/>
<path d="M110.669 576.998C110.788 571.476 115.361 567.028 120.884 567.062L329.142 568.362C334.665 568.396 339.045 572.9 338.927 578.422L337.473 646.002C337.354 651.524 332.781 655.972 327.258 655.938L119 654.638C113.477 654.604 109.097 650.1 109.215 644.578L110.669 576.998Z" fill="#0D387C"/>
<path d="M174.636 603.615L175.048 589.621L181.608 589.649C183.288 589.656 184.558 589.994 185.419 590.664C186.279 591.321 186.694 592.203 186.661 593.309C186.639 594.055 186.447 594.694 186.084 595.226C185.722 595.744 185.244 596.149 184.648 596.439C184.067 596.717 183.436 596.854 182.756 596.851L183.137 596.133C183.924 596.136 184.626 596.286 185.244 596.582C185.863 596.864 186.344 597.28 186.688 597.828C187.045 598.376 187.212 599.056 187.188 599.869C187.152 601.069 186.665 602 185.725 602.662C184.786 603.324 183.409 603.652 181.596 603.644L174.636 603.615ZM177.296 601.587L181.496 601.604C182.469 601.608 183.221 601.452 183.75 601.134C184.279 600.816 184.555 600.304 184.575 599.598C184.596 598.905 184.351 598.397 183.84 598.075C183.33 597.74 182.588 597.57 181.615 597.566L177.215 597.547L177.274 595.528L181.154 595.545C182.061 595.549 182.759 595.392 183.249 595.074C183.751 594.756 184.012 594.277 184.031 593.638C184.05 592.985 183.818 592.497 183.334 592.175C182.863 591.853 182.175 591.69 181.268 591.686L177.588 591.671L177.296 601.587Z" fill="white"/>
<path d="M194.126 603.837C193.22 603.834 192.425 603.663 191.741 603.327C191.058 602.978 190.533 602.456 190.167 601.761C189.801 601.053 189.634 600.166 189.665 599.1L189.845 593.002L192.345 593.013L192.175 598.771C192.147 599.73 192.339 600.451 192.752 600.932C193.178 601.401 193.791 601.637 194.591 601.64C195.178 601.642 195.688 601.525 196.122 601.287C196.569 601.049 196.919 600.69 197.174 600.211C197.441 599.733 197.585 599.14 197.606 598.434L197.765 593.036L200.265 593.047L199.951 603.722L197.57 603.712L197.655 600.833L198.049 601.715C197.669 602.406 197.127 602.937 196.422 603.307C195.718 603.664 194.953 603.841 194.126 603.837Z" fill="white"/>
<path d="M206.52 603.89C205.626 603.886 204.77 603.769 203.95 603.539C203.143 603.296 202.505 603.007 202.035 602.671L203.051 600.776C203.522 601.085 204.088 601.34 204.749 601.543C205.409 601.746 206.073 601.849 206.74 601.852C207.526 601.855 208.096 601.751 208.449 601.539C208.815 601.327 209.004 601.041 209.014 600.682C209.023 600.388 208.91 600.168 208.674 600.02C208.439 599.859 208.129 599.738 207.744 599.657C207.36 599.575 206.929 599.5 206.451 599.431C205.986 599.362 205.515 599.274 205.039 599.165C204.576 599.043 204.154 598.875 203.773 598.66C203.393 598.432 203.089 598.131 202.86 597.756C202.631 597.382 202.525 596.889 202.543 596.275C202.564 595.596 202.774 595.01 203.175 594.519C203.577 594.014 204.128 593.63 204.829 593.366C205.544 593.089 206.382 592.953 207.342 592.957C208.062 592.96 208.786 593.043 209.515 593.206C210.243 593.369 210.843 593.598 211.315 593.893L210.299 595.789C209.801 595.48 209.294 595.271 208.777 595.162C208.274 595.04 207.769 594.978 207.262 594.976C206.502 594.973 205.932 595.084 205.552 595.309C205.186 595.534 204.997 595.819 204.987 596.166C204.978 596.486 205.091 596.726 205.326 596.887C205.561 597.048 205.871 597.176 206.255 597.271C206.639 597.366 207.063 597.448 207.528 597.516C208.006 597.572 208.477 597.66 208.94 597.782C209.403 597.904 209.825 598.073 210.205 598.287C210.599 598.489 210.911 598.777 211.14 599.151C211.369 599.525 211.474 600.012 211.457 600.612C211.437 601.278 211.22 601.857 210.806 602.349C210.404 602.84 209.84 603.224 209.111 603.501C208.383 603.765 207.52 603.894 206.52 603.89Z" fill="white"/>
<path d="M222.34 603.957C221.446 603.953 220.59 603.836 219.77 603.606C218.964 603.363 218.325 603.074 217.855 602.739L218.871 600.843C219.342 601.152 219.908 601.408 220.569 601.61C221.229 601.813 221.893 601.916 222.56 601.919C223.347 601.922 223.916 601.818 224.269 601.606C224.636 601.394 224.824 601.109 224.835 600.749C224.843 600.456 224.73 600.235 224.494 600.088C224.259 599.927 223.949 599.805 223.565 599.724C223.18 599.642 222.749 599.567 222.271 599.498C221.806 599.43 221.336 599.341 220.859 599.232C220.396 599.11 219.974 598.942 219.594 598.727C219.214 598.499 218.909 598.198 218.68 597.824C218.451 597.449 218.346 596.956 218.364 596.343C218.384 595.663 218.594 595.077 218.996 594.586C219.397 594.081 219.948 593.697 220.65 593.433C221.365 593.156 222.202 593.02 223.162 593.024C223.882 593.027 224.606 593.11 225.335 593.273C226.064 593.436 226.664 593.665 227.135 593.961L226.119 595.856C225.621 595.547 225.114 595.338 224.597 595.23C224.094 595.107 223.589 595.045 223.083 595.043C222.323 595.04 221.753 595.151 221.372 595.376C221.006 595.601 220.817 595.887 220.807 596.233C220.798 596.553 220.911 596.793 221.146 596.954C221.381 597.115 221.691 597.243 222.075 597.338C222.459 597.433 222.883 597.515 223.348 597.583C223.826 597.639 224.297 597.727 224.76 597.849C225.223 597.971 225.645 598.14 226.025 598.355C226.419 598.556 226.731 598.844 226.96 599.218C227.189 599.592 227.295 600.079 227.277 600.679C227.257 601.346 227.04 601.925 226.626 602.416C226.224 602.907 225.66 603.292 224.932 603.568C224.204 603.832 223.34 603.961 222.34 603.957Z" fill="white"/>
<path d="M234.353 604.008C233.166 604.003 232.133 603.766 231.253 603.295C230.387 602.812 229.72 602.156 229.251 601.327C228.795 600.499 228.583 599.558 228.614 598.506C228.646 597.439 228.907 596.501 229.397 595.69C229.902 594.866 230.574 594.222 231.414 593.759C232.268 593.296 233.228 593.067 234.295 593.071C235.335 593.076 236.255 593.306 237.055 593.763C237.855 594.22 238.476 594.862 238.918 595.69C239.361 596.519 239.565 597.492 239.532 598.612C239.529 598.719 239.519 598.838 239.502 598.972C239.498 599.105 239.487 599.232 239.47 599.351L230.57 599.314L230.619 597.654L238.199 597.687L237.204 598.202C237.235 597.589 237.125 597.049 236.872 596.581C236.619 596.114 236.263 595.746 235.804 595.477C235.359 595.209 234.836 595.073 234.236 595.071C233.623 595.068 233.079 595.199 232.604 595.463C232.143 595.728 231.772 596.1 231.491 596.578C231.224 597.044 231.081 597.596 231.062 598.236L231.051 598.636C231.032 599.276 231.162 599.843 231.44 600.337C231.719 600.831 232.121 601.213 232.647 601.482C233.172 601.751 233.782 601.886 234.475 601.889C235.075 601.892 235.618 601.801 236.103 601.616C236.589 601.432 237.024 601.141 237.409 600.742L238.704 602.287C238.207 602.845 237.588 603.276 236.846 603.579C236.117 603.869 235.286 604.012 234.353 604.008Z" fill="white"/>
<path d="M248.065 603.927L248.129 601.767L248.002 601.307L248.114 597.529C248.135 596.796 247.932 596.228 247.504 595.827C247.076 595.412 246.415 595.202 245.522 595.198C244.922 595.196 244.326 595.287 243.734 595.471C243.155 595.655 242.661 595.913 242.251 596.244L241.324 594.421C241.911 593.983 242.6 593.66 243.393 593.45C244.2 593.227 245.03 593.117 245.883 593.121C247.43 593.127 248.612 593.505 249.43 594.255C250.262 594.992 250.655 596.133 250.609 597.679L250.425 603.937L248.065 603.927ZM244.701 604.052C243.901 604.049 243.205 603.913 242.613 603.643C242.021 603.361 241.566 602.979 241.246 602.498C240.941 602.004 240.797 601.45 240.815 600.837C240.833 600.237 240.989 599.698 241.283 599.219C241.59 598.741 242.075 598.363 242.737 598.086C243.398 597.809 244.269 597.672 245.349 597.677L248.449 597.69L248.4 599.349L245.48 599.337C244.627 599.333 244.049 599.471 243.748 599.749C243.446 600.015 243.29 600.347 243.278 600.747C243.265 601.2 243.434 601.561 243.786 601.829C244.138 602.097 244.635 602.233 245.275 602.235C245.888 602.238 246.439 602.1 246.927 601.822C247.428 601.545 247.794 601.133 248.023 600.587L248.399 602.089C248.141 602.714 247.693 603.199 247.056 603.542C246.433 603.886 245.648 604.056 244.701 604.052Z" fill="white"/>
<path d="M257.649 604.107C256.476 604.102 255.578 603.799 254.956 603.196C254.334 602.58 254.04 601.679 254.075 600.493L254.358 590.917L256.858 590.928L256.577 600.444C256.562 600.95 256.677 601.344 256.922 601.625C257.181 601.906 257.543 602.047 258.01 602.049C258.57 602.052 259.041 601.907 259.423 601.616L260.07 603.398C259.77 603.636 259.405 603.815 258.975 603.933C258.544 604.051 258.103 604.109 257.649 604.107ZM252.467 595.348L252.526 593.349L259.646 593.379L259.587 595.378L252.467 595.348Z" fill="white"/>
<path d="M265.406 604.14C264.512 604.136 263.656 604.019 262.836 603.789C262.03 603.546 261.391 603.257 260.921 602.922L261.937 601.026C262.408 601.335 262.974 601.591 263.635 601.793C264.295 601.996 264.959 602.099 265.626 602.102C266.413 602.105 266.982 602.001 267.335 601.789C267.702 601.577 267.89 601.292 267.901 600.932C267.909 600.639 267.796 600.418 267.56 600.271C267.325 600.11 267.015 599.988 266.631 599.907C266.246 599.825 265.815 599.75 265.337 599.681C264.872 599.613 264.402 599.524 263.925 599.415C263.462 599.293 263.04 599.125 262.66 598.91C262.28 598.682 261.975 598.381 261.746 598.007C261.517 597.632 261.412 597.139 261.43 596.526C261.45 595.846 261.66 595.26 262.062 594.769C262.463 594.264 263.014 593.88 263.716 593.616C264.431 593.339 265.268 593.203 266.228 593.207C266.948 593.21 267.672 593.293 268.401 593.456C269.13 593.619 269.73 593.848 270.201 594.144L269.185 596.039C268.687 595.73 268.18 595.521 267.663 595.413C267.16 595.29 266.655 595.228 266.149 595.226C265.389 595.223 264.819 595.334 264.439 595.559C264.072 595.784 263.883 596.07 263.873 596.416C263.864 596.736 263.977 596.976 264.212 597.137C264.447 597.298 264.757 597.426 265.141 597.521C265.525 597.616 265.949 597.698 266.414 597.766C266.892 597.822 267.363 597.91 267.826 598.032C268.289 598.154 268.711 598.323 269.091 598.538C269.485 598.739 269.797 599.027 270.026 599.401C270.255 599.775 270.361 600.262 270.343 600.862C270.323 601.529 270.106 602.107 269.692 602.599C269.29 603.09 268.726 603.474 267.998 603.751C267.27 604.015 266.406 604.144 265.406 604.14Z" fill="white"/>
<path d="M168.179 627.58L168.243 625.421L168.116 624.96L168.228 621.182C168.249 620.449 168.046 619.882 167.618 619.48C167.19 619.065 166.529 618.855 165.636 618.852C165.036 618.849 164.44 618.94 163.848 619.124C163.269 619.308 162.775 619.566 162.365 619.897L161.438 618.074C162.025 617.637 162.714 617.313 163.507 617.103C164.314 616.88 165.144 616.77 165.997 616.774C167.544 616.78 168.726 617.159 169.544 617.909C170.376 618.645 170.769 619.786 170.723 621.332L170.539 627.59L168.179 627.58ZM164.815 627.705C164.015 627.702 163.319 627.566 162.727 627.297C162.135 627.014 161.68 626.632 161.36 626.151C161.055 625.657 160.911 625.103 160.929 624.49C160.947 623.89 161.103 623.351 161.397 622.872C161.704 622.394 162.189 622.016 162.851 621.739C163.512 621.462 164.383 621.326 165.463 621.33L168.563 621.343L168.514 623.003L165.594 622.99C164.741 622.987 164.163 623.124 163.862 623.403C163.56 623.668 163.404 624.001 163.392 624.4C163.379 624.853 163.548 625.214 163.9 625.482C164.253 625.75 164.749 625.886 165.389 625.888C166.002 625.891 166.553 625.753 167.041 625.476C167.543 625.198 167.908 624.786 168.137 624.241L168.513 625.742C168.255 626.367 167.807 626.852 167.17 627.196C166.547 627.539 165.762 627.709 164.815 627.705Z" fill="white"/>
<path d="M173.747 627.603L174.062 616.928L176.442 616.938L176.355 619.877L176.101 619.016C176.442 618.298 176.958 617.753 177.649 617.383C178.353 617.013 179.219 616.83 180.246 616.834L180.175 619.213C180.07 619.186 179.97 619.172 179.877 619.172C179.784 619.158 179.691 619.151 179.597 619.151C178.651 619.147 177.889 619.423 177.313 619.981C176.736 620.525 176.432 621.343 176.4 622.436L176.247 627.614L173.747 627.603Z" fill="white"/>
<path d="M186.966 627.8C185.78 627.794 184.747 627.557 183.867 627.087C183.001 626.603 182.334 625.947 181.865 625.119C181.409 624.29 181.197 623.35 181.228 622.297C181.259 621.231 181.52 620.292 182.011 619.481C182.515 618.657 183.188 618.013 184.028 617.55C184.882 617.087 185.842 616.858 186.909 616.863C187.949 616.867 188.869 617.098 189.669 617.554C190.469 618.011 191.09 618.653 191.532 619.481C191.974 620.31 192.179 621.284 192.146 622.403C192.143 622.51 192.133 622.63 192.115 622.763C192.111 622.896 192.101 623.023 192.084 623.143L183.184 623.105L183.233 621.446L190.813 621.478L189.818 621.993C189.849 621.38 189.738 620.84 189.486 620.373C189.233 619.905 188.877 619.537 188.418 619.268C187.972 619 187.45 618.864 186.85 618.862C186.236 618.859 185.692 618.99 185.218 619.255C184.757 619.519 184.386 619.891 184.105 620.37C183.838 620.835 183.695 621.388 183.676 622.027L183.664 622.427C183.645 623.067 183.775 623.634 184.054 624.128C184.333 624.623 184.735 625.004 185.261 625.273C185.786 625.542 186.395 625.678 187.089 625.681C187.689 625.683 188.232 625.592 188.717 625.408C189.203 625.223 189.638 624.932 190.023 624.534L191.318 626.079C190.821 626.636 190.202 627.067 189.459 627.37C188.731 627.66 187.9 627.803 186.966 627.8Z" fill="white"/>
<path d="M200.259 627.716L200.591 616.441C200.624 615.321 200.977 614.43 201.65 613.766C202.337 613.089 203.294 612.754 204.52 612.759C204.96 612.761 205.372 612.809 205.756 612.904C206.153 612.999 206.482 613.147 206.743 613.348L206.008 615.224C205.826 615.077 205.615 614.969 205.377 614.902C205.14 614.821 204.894 614.78 204.641 614.779C204.121 614.776 203.723 614.921 203.448 615.213C203.173 615.492 203.027 615.918 203.01 616.491L202.975 617.691L203.022 618.811L202.759 627.727L200.259 627.716ZM198.752 619.112L198.811 617.113L205.931 617.143L205.872 619.143L198.752 619.112ZM207.379 627.746L207.694 617.071L210.194 617.082L209.879 627.757L207.379 627.746ZM209.005 615.317C208.539 615.315 208.156 615.167 207.858 614.872C207.574 614.578 207.438 614.224 207.45 613.811C207.462 613.384 207.619 613.032 207.921 612.753C208.236 612.461 208.627 612.316 209.094 612.318C209.561 612.32 209.936 612.462 210.221 612.743C210.52 613.011 210.664 613.351 210.651 613.764C210.638 614.204 210.481 614.577 210.178 614.882C209.876 615.174 209.485 615.319 209.005 615.317Z" fill="white"/>
<path d="M213.161 627.771L213.598 612.937L216.098 612.948L215.661 627.781L213.161 627.771Z" fill="white"/>
<path d="M218.942 627.795L219.38 612.962L221.88 612.973L221.442 627.806L218.942 627.795Z" fill="white"/>
<path d="M229.739 627.981C228.553 627.976 227.52 627.739 226.64 627.268C225.774 626.785 225.107 626.129 224.638 625.3C224.182 624.472 223.97 623.531 224.001 622.479C224.032 621.412 224.293 620.474 224.784 619.663C225.288 618.838 225.961 618.195 226.801 617.732C227.655 617.269 228.615 617.04 229.682 617.044C230.722 617.049 231.642 617.279 232.442 617.736C233.242 618.192 233.863 618.835 234.305 619.663C234.747 620.492 234.952 621.465 234.919 622.585C234.916 622.692 234.906 622.811 234.888 622.945C234.885 623.078 234.874 623.205 234.857 623.324L225.957 623.287L226.006 621.627L233.586 621.66L232.591 622.175C232.622 621.562 232.511 621.022 232.259 620.554C232.006 620.087 231.65 619.719 231.191 619.45C230.746 619.182 230.223 619.046 229.623 619.043C229.009 619.041 228.466 619.172 227.991 619.436C227.53 619.701 227.159 620.073 226.878 620.551C226.611 621.017 226.468 621.569 226.449 622.209L226.437 622.609C226.418 623.249 226.548 623.816 226.827 624.31C227.106 624.804 227.508 625.186 228.034 625.455C228.559 625.724 229.169 625.859 229.862 625.862C230.462 625.865 231.005 625.774 231.49 625.589C231.976 625.405 232.411 625.113 232.796 624.715L234.091 626.26C233.594 626.818 232.975 627.249 232.232 627.552C231.504 627.842 230.673 627.985 229.739 627.981Z" fill="white"/>
<path d="M241.681 628.032C240.654 628.028 239.734 627.797 238.921 627.34C238.121 626.871 237.5 626.228 237.057 625.413C236.615 624.598 236.41 623.638 236.442 622.531C236.475 621.425 236.736 620.467 237.227 619.656C237.718 618.845 238.376 618.214 239.203 617.765C240.043 617.315 240.976 617.092 242.003 617.097C242.896 617.101 243.69 617.304 244.385 617.707C245.081 618.096 245.623 618.692 246.013 619.493C246.403 620.294 246.579 621.322 246.542 622.574C246.506 623.814 246.275 624.839 245.851 625.65C245.428 626.448 244.857 627.046 244.138 627.443C243.42 627.839 242.601 628.036 241.681 628.032ZM242.044 625.894C242.644 625.897 243.181 625.766 243.656 625.501C244.143 625.237 244.535 624.852 244.83 624.347C245.138 623.841 245.302 623.249 245.322 622.569C245.343 621.876 245.213 621.282 244.935 620.788C244.669 620.28 244.301 619.892 243.829 619.624C243.37 619.355 242.841 619.22 242.241 619.217C241.641 619.215 241.097 619.346 240.609 619.61C240.134 619.875 239.743 620.259 239.435 620.765C239.14 621.257 238.983 621.849 238.962 622.542C238.942 623.222 239.065 623.816 239.33 624.323C239.608 624.831 239.977 625.219 240.436 625.487C240.908 625.756 241.444 625.892 242.044 625.894ZM245.225 627.907L245.299 625.388L245.483 622.55L245.366 619.71L245.562 613.073L248.042 613.084L247.605 627.917L245.225 627.907Z" fill="white"/>
<path d="M260.938 628.114C260.032 628.11 259.237 627.94 258.553 627.604C257.87 627.254 257.345 626.732 256.979 626.038C256.613 625.33 256.446 624.443 256.477 623.376L256.657 617.279L259.157 617.29L258.987 623.047C258.959 624.007 259.151 624.727 259.564 625.209C259.99 625.677 260.603 625.913 261.403 625.916C261.99 625.919 262.5 625.801 262.934 625.563C263.381 625.325 263.731 624.967 263.986 624.488C264.253 624.009 264.397 623.417 264.418 622.71L264.577 617.313L267.077 617.323L266.762 627.999L264.382 627.988L264.467 625.11L264.861 625.991C264.481 626.683 263.939 627.213 263.234 627.584C262.53 627.941 261.765 628.117 260.938 628.114Z" fill="white"/>
<path d="M275.952 628.178C275.085 628.174 274.297 627.971 273.589 627.568C272.894 627.165 272.345 626.563 271.942 625.761C271.553 624.947 271.376 623.919 271.413 622.68C271.45 621.427 271.68 620.402 272.104 619.604C272.541 618.806 273.118 618.215 273.836 617.832C274.555 617.435 275.367 617.238 276.274 617.242C277.327 617.247 278.247 617.477 279.034 617.934C279.834 618.39 280.455 619.026 280.898 619.841C281.354 620.656 281.565 621.617 281.533 622.723C281.5 623.829 281.232 624.794 280.727 625.619C280.237 626.43 279.578 627.06 278.751 627.51C277.938 627.959 277.005 628.182 275.952 628.178ZM269.921 631.891L270.35 617.337L272.73 617.347L272.656 619.866L272.492 622.705L272.609 625.544L272.421 631.901L269.921 631.891ZM275.735 626.037C276.335 626.04 276.872 625.909 277.346 625.644C277.834 625.38 278.226 624.995 278.52 624.49C278.815 623.984 278.973 623.392 278.993 622.712C279.013 622.019 278.891 621.425 278.625 620.931C278.36 620.424 277.992 620.035 277.52 619.767C277.061 619.498 276.531 619.363 275.931 619.36C275.331 619.358 274.787 619.489 274.3 619.753C273.812 620.018 273.42 620.403 273.125 620.908C272.831 621.4 272.673 621.992 272.653 622.685C272.633 623.365 272.755 623.959 273.021 624.466C273.286 624.974 273.654 625.362 274.126 625.631C274.598 625.899 275.135 626.035 275.735 626.037Z" fill="white"/>
<path d="M284.043 623.433L283.839 614.075L286.799 614.088L286.023 623.442L284.043 623.433ZM284.902 628.216C284.436 628.214 284.054 628.059 283.756 627.751C283.458 627.443 283.316 627.076 283.328 626.649C283.341 626.223 283.505 625.864 283.82 625.572C284.136 625.267 284.527 625.115 284.994 625.117C285.46 625.119 285.836 625.274 286.12 625.582C286.405 625.876 286.541 626.237 286.528 626.663C286.516 627.089 286.358 627.455 286.056 627.761C285.754 628.066 285.369 628.218 284.902 628.216Z" fill="white"/>
<defs>
<linearGradient id="paint0_linear_1469_22" x1="232.414" y1="759.132" x2="158.057" y2="621.432" gradientUnits="userSpaceOnUse">
<stop/>
<stop offset="1" stop-opacity="0"/>
</linearGradient>
<linearGradient id="paint1_linear_1469_22" x1="232.414" y1="759.132" x2="158.057" y2="621.432" gradientUnits="userSpaceOnUse">
<stop/>
<stop offset="1" stop-opacity="0"/>
</linearGradient>
<linearGradient id="paint2_linear_1469_22" x1="232.414" y1="759.132" x2="158.057" y2="621.432" gradientUnits="userSpaceOnUse">
<stop/>
<stop offset="1" stop-opacity="0"/>
</linearGradient>
<linearGradient id="paint3_linear_1469_22" x1="232.414" y1="759.132" x2="158.057" y2="621.432" gradientUnits="userSpaceOnUse">
<stop/>
<stop offset="1" stop-opacity="0"/>
</linearGradient>
<linearGradient id="paint4_linear_1469_22" x1="232.414" y1="759.132" x2="158.057" y2="621.432" gradientUnits="userSpaceOnUse">
<stop/>
<stop offset="1" stop-opacity="0"/>
</linearGradient>
<linearGradient id="paint5_linear_1469_22" x1="232.414" y1="759.132" x2="158.057" y2="621.432" gradientUnits="userSpaceOnUse">
<stop/>
<stop offset="1" stop-opacity="0"/>
</linearGradient>
<linearGradient id="paint6_linear_1469_22" x1="232.414" y1="759.132" x2="158.057" y2="621.432" gradientUnits="userSpaceOnUse">
<stop/>
<stop offset="1" stop-opacity="0"/>
</linearGradient>
<linearGradient id="paint7_linear_1469_22" x1="232.414" y1="759.132" x2="158.057" y2="621.432" gradientUnits="userSpaceOnUse">
<stop/>
<stop offset="1" stop-opacity="0"/>
</linearGradient>
<linearGradient id="paint8_linear_1469_22" x1="232.414" y1="759.132" x2="158.057" y2="621.432" gradientUnits="userSpaceOnUse">
<stop/>
<stop offset="1" stop-opacity="0"/>
</linearGradient>
<linearGradient id="paint9_linear_1469_22" x1="232.414" y1="759.132" x2="158.057" y2="621.432" gradientUnits="userSpaceOnUse">
<stop/>
<stop offset="1" stop-opacity="0"/>
</linearGradient>
<linearGradient id="paint10_linear_1469_22" x1="232.414" y1="759.132" x2="158.057" y2="621.432" gradientUnits="userSpaceOnUse">
<stop/>
<stop offset="1" stop-opacity="0"/>
</linearGradient>
<linearGradient id="paint11_linear_1469_22" x1="332.978" y1="986.465" x2="294.437" y2="754.91" gradientUnits="userSpaceOnUse">
<stop/>
<stop offset="1" stop-opacity="0"/>
</linearGradient>
<linearGradient id="paint12_linear_1469_22" x1="307.442" y1="671.138" x2="-9.11677" y2="29.5343" gradientUnits="userSpaceOnUse">
<stop/>
<stop offset="1" stop-opacity="0"/>
</linearGradient>
<linearGradient id="paint13_linear_1469_22" x1="800.182" y1="927.29" x2="766.288" y2="708.867" gradientUnits="userSpaceOnUse">
<stop/>
<stop offset="1" stop-opacity="0"/>
</linearGradient>
<linearGradient id="paint14_linear_1469_22" x1="925.232" y1="458.792" x2="583.375" y2="-217.159" gradientUnits="userSpaceOnUse">
<stop/>
<stop offset="1" stop-opacity="0"/>
</linearGradient>
<linearGradient id="paint15_linear_1469_22" x1="-288.118" y1="920.082" x2="-667.236" y2="251.311" gradientUnits="userSpaceOnUse">
<stop/>
<stop offset="1" stop-opacity="0"/>
</linearGradient>
<linearGradient id="paint16_linear_1469_22" x1="14.6405" y1="1144.61" x2="-90.3077" y2="917.517" gradientUnits="userSpaceOnUse">
<stop/>
<stop offset="1" stop-opacity="0"/>
</linearGradient>
<linearGradient id="paint17_linear_1469_22" x1="-940.682" y1="1128.08" x2="-1176.52" y2="549.155" gradientUnits="userSpaceOnUse">
<stop/>
<stop offset="1" stop-opacity="0"/>
</linearGradient>
<linearGradient id="paint18_linear_1469_22" x1="14.6404" y1="1409.8" x2="-125.462" y2="1156.97" gradientUnits="userSpaceOnUse">
<stop/>
<stop offset="1" stop-opacity="0"/>
</linearGradient>
<linearGradient id="paint19_linear_1469_22" x1="708.134" y1="928.03" x2="651.223" y2="717.333" gradientUnits="userSpaceOnUse">
<stop/>
<stop offset="1" stop-opacity="0"/>
</linearGradient>
<linearGradient id="paint20_linear_1469_22" x1="448.212" y1="517.019" x2="142.74" y2="239.111" gradientUnits="userSpaceOnUse">
<stop/>
<stop offset="1" stop-opacity="0"/>
</linearGradient>
</defs>
</svg>
