<svg width="525" height="835" viewBox="0 0 525 835" fill="none" xmlns="http://www.w3.org/2000/svg">
<rect x="184.311" y="239.501" width="20" height="624.194" transform="rotate(-4.3042 184.311 239.501)" fill="#C9D2E5"/>
<g opacity="0.95">
<path d="M11.1097 57.8031C-27.5412 84.7756 -34.8141 103.273 -57.4348 144.968C-70.1718 168.446 -74.3475 200.669 -75.8049 224.672L36.1315 229.314C36.1315 229.314 29.7453 178.773 39.4633 148.988C63.8562 74.2236 169 10.5 169 10.5C138.444 13.0073 65.6424 19.7475 11.1097 57.8031Z" fill="#B73C94"/>
<path d="M11.1097 57.8031C-27.5412 84.7756 -34.8141 103.273 -57.4348 144.968C-70.1718 168.446 -74.3475 200.669 -75.8049 224.672L36.1315 229.314C36.1315 229.314 29.7453 178.773 39.4633 148.988C63.8562 74.2236 169 10.5 169 10.5C138.444 13.0073 65.6424 19.7475 11.1097 57.8031Z" fill="url(#paint0_linear_0_1)" fill-opacity="0.2"/>
<path fill-rule="evenodd" clip-rule="evenodd" d="M276.982 207.938C277.154 207.894 277.323 207.886 277.489 207.912L276.982 207.938ZM154.137 220.634C154.24 220.614 154.348 220.606 154.461 220.61L154.137 220.634ZM36.1315 229.314L-75.8049 224.672C-76.0543 228.779 -76.4637 232.971 -76.8646 237.076C-78.4439 253.248 -79.8914 268.07 -70.9067 271.037C-39.997 281.244 -1.17737 278.072 23.1217 274.937C31.5895 273.844 32.5834 256.582 33.33 243.612C33.7911 235.604 34.1579 229.232 36.1315 229.314Z" fill="#B73C94"/>
<path fill-rule="evenodd" clip-rule="evenodd" d="M276.982 207.938C277.154 207.894 277.323 207.886 277.489 207.912L276.982 207.938ZM154.137 220.634C154.24 220.614 154.348 220.606 154.461 220.61L154.137 220.634ZM36.1315 229.314L-75.8049 224.672C-76.0543 228.779 -76.4637 232.971 -76.8646 237.076C-78.4439 253.248 -79.8914 268.07 -70.9067 271.037C-39.997 281.244 -1.17737 278.072 23.1217 274.937C31.5895 273.844 32.5834 256.582 33.33 243.612C33.7911 235.604 34.1579 229.232 36.1315 229.314Z" fill="url(#paint1_linear_0_1)" fill-opacity="0.2"/>
<path d="M154.461 220.61L276.982 207.938C276.982 207.938 265.308 156.227 252.215 125.239C231.644 76.553 178.5 8.49999 178.5 8.49999C178.5 8.49999 144.01 83.1788 142.002 132.504C140.588 167.258 154.461 220.61 154.461 220.61Z" fill="#B73C94"/>
<path d="M154.461 220.61L276.982 207.938C276.982 207.938 265.308 156.227 252.215 125.239C231.644 76.553 178.5 8.49999 178.5 8.49999C178.5 8.49999 144.01 83.1788 142.002 132.504C140.588 167.258 154.461 220.61 154.461 220.61Z" fill="url(#paint2_linear_0_1)" fill-opacity="0.2"/>
<path d="M276.982 207.938L154.461 220.61C157.389 220.732 159.178 229.073 161.235 238.669C164.021 251.663 167.301 266.955 174.57 267.257C201.137 268.359 234.573 262.758 264.374 257.766C266.465 257.416 268.538 257.069 270.589 256.727C276.678 255.713 275.892 240.818 275.203 227.743C274.671 217.651 274.196 208.643 276.982 207.938Z" fill="#B73C94"/>
<path d="M276.982 207.938L154.461 220.61C157.389 220.732 159.178 229.073 161.235 238.669C164.021 251.663 167.301 266.955 174.57 267.257C201.137 268.359 234.573 262.758 264.374 257.766C266.465 257.416 268.538 257.069 270.589 256.727C276.678 255.713 275.892 240.818 275.203 227.743C274.671 217.651 274.196 208.643 276.982 207.938Z" fill="url(#paint3_linear_0_1)" fill-opacity="0.2"/>
<path d="M39.4633 148.988C29.7453 178.773 36.1315 229.314 36.1315 229.314L154.137 220.634C154.24 220.614 154.348 220.606 154.461 220.61C154.461 220.61 140.588 167.258 142.002 132.504C144.01 83.1788 178.5 8.49999 178.5 8.49999L169 10.5C169 10.5 63.8562 74.2236 39.4633 148.988Z" fill="#B73C94"/>
<path d="M39.4633 148.988C29.7453 178.773 36.1315 229.314 36.1315 229.314L154.137 220.634C154.24 220.614 154.348 220.606 154.461 220.61C154.461 220.61 140.588 167.258 142.002 132.504C144.01 83.1788 178.5 8.49999 178.5 8.49999L169 10.5C169 10.5 63.8562 74.2236 39.4633 148.988Z" fill="url(#paint4_linear_0_1)" fill-opacity="0.2"/>
<path d="M50.0985 276.056C92.381 275.442 125.31 274.953 143.889 270.989C152.979 269.049 152.508 251.294 152.14 237.403C151.903 228.458 151.708 221.115 154.137 220.634L36.1315 229.314C38.1689 229.399 38.8815 236.702 39.741 245.511C41.0625 259.057 42.7315 276.162 50.0985 276.056Z" fill="#B73C94"/>
<path d="M50.0985 276.056C92.381 275.442 125.31 274.953 143.889 270.989C152.979 269.049 152.508 251.294 152.14 237.403C151.903 228.458 151.708 221.115 154.137 220.634L36.1315 229.314C38.1689 229.399 38.8815 236.702 39.741 245.511C41.0625 259.057 42.7315 276.162 50.0985 276.056Z" fill="url(#paint5_linear_0_1)" fill-opacity="0.2"/>
<path d="M252.215 125.239C265.308 156.227 276.982 207.938 276.982 207.938C277.154 207.894 277.323 207.886 277.489 207.912L404.429 201.387C404.429 201.387 386.297 148.65 366.376 119.913C319.554 52.3701 190.5 8.49999 190.5 8.49999C188.853 8.66404 186.664 8.58199 184.48 8.5001C182.302 8.41842 180.127 8.33691 178.5 8.49999C178.5 8.49999 231.644 76.553 252.215 125.239Z" fill="#B73C94"/>
<path d="M252.215 125.239C265.308 156.227 276.982 207.938 276.982 207.938C277.154 207.894 277.323 207.886 277.489 207.912L404.429 201.387C404.429 201.387 386.297 148.65 366.376 119.913C319.554 52.3701 190.5 8.49999 190.5 8.49999C188.853 8.66404 186.664 8.58199 184.48 8.5001C182.302 8.41842 180.127 8.33691 178.5 8.49999C178.5 8.49999 231.644 76.553 252.215 125.239Z" fill="url(#paint6_linear_0_1)" fill-opacity="0.2"/>
<path d="M301.208 254.494C332.911 255.809 364.299 253.608 392.585 247.275C398.077 246.045 399.292 232.031 400.352 219.805C401.171 210.362 401.897 201.985 404.429 201.387L277.489 207.912C279.802 208.266 281.613 215.118 283.819 223.462C287.361 236.86 291.921 254.109 301.208 254.494Z" fill="#B73C94"/>
<path d="M301.208 254.494C332.911 255.809 364.299 253.608 392.585 247.275C398.077 246.045 399.292 232.031 400.352 219.805C401.171 210.362 401.897 201.985 404.429 201.387L277.489 207.912C279.802 208.266 281.613 215.118 283.819 223.462C287.361 236.86 291.921 254.109 301.208 254.494Z" fill="url(#paint7_linear_0_1)" fill-opacity="0.2"/>
<path d="M404.429 201.387L514.966 168.71C514.966 168.71 467.001 123.136 432.247 99.5644C348.164 42.5369 190.5 8.49999 190.5 8.49999C190.5 8.49999 319.554 52.3701 366.376 119.913C386.297 148.65 404.429 201.387 404.429 201.387Z" fill="#B73C94"/>
<path d="M404.429 201.387L514.966 168.71C514.966 168.71 467.001 123.136 432.247 99.5644C348.164 42.5369 190.5 8.49999 190.5 8.49999C190.5 8.49999 319.554 52.3701 366.376 119.913C386.297 148.65 404.429 201.387 404.429 201.387Z" fill="url(#paint8_linear_0_1)" fill-opacity="0.2"/>
<path d="M518.258 217.945C526.95 212.05 523.963 192.208 514.966 168.71L404.429 201.387C406.197 200.97 407.31 204.798 408.882 210.206C412.478 222.576 418.478 243.217 440.222 240.263C445.286 239.575 449.887 238.974 454.103 238.424L454.117 238.422L454.121 238.421L454.14 238.419L454.145 238.418C486.511 234.192 496.158 232.933 518.258 217.945Z" fill="#B73C94"/>
<path d="M518.258 217.945C526.95 212.05 523.963 192.208 514.966 168.71L404.429 201.387C406.197 200.97 407.31 204.798 408.882 210.206C412.478 222.576 418.478 243.217 440.222 240.263C445.286 239.575 449.887 238.974 454.103 238.424L454.117 238.422L454.121 238.421L454.14 238.419L454.145 238.418C486.511 234.192 496.158 232.933 518.258 217.945Z" fill="url(#paint9_linear_0_1)" fill-opacity="0.2"/>
<path d="M489.056 117.308C462.622 74.7842 413.042 30.9504 340.267 14.0782C287.682 1.88693 238.241 3.74425 190.5 8.49999C190.5 8.49999 348.164 42.5369 432.247 99.5644C467.001 123.136 514.966 168.71 514.966 168.71C508.642 152.191 499.349 133.866 489.056 117.308Z" fill="#B73C94"/>
<path d="M489.056 117.308C462.622 74.7842 413.042 30.9504 340.267 14.0782C287.682 1.88693 238.241 3.74425 190.5 8.49999C190.5 8.49999 348.164 42.5369 432.247 99.5644C467.001 123.136 514.966 168.71 514.966 168.71C508.642 152.191 499.349 133.866 489.056 117.308Z" fill="url(#paint10_linear_0_1)" fill-opacity="0.2"/>
</g>
<g opacity="0.95">
<path d="M154.275 219.975L276.022 207.557C276.022 207.557 264.4 156.675 251.377 126.183C230.915 78.2733 178.077 11.2963 178.077 11.2963C178.077 11.2963 143.834 84.7564 141.859 133.285C140.468 167.478 154.275 219.975 154.275 219.975Z" fill="#FCDC8F"/>
<path d="M154.275 219.975L276.022 207.557C276.022 207.557 264.4 156.675 251.377 126.183C230.915 78.2733 178.077 11.2963 178.077 11.2963C178.077 11.2963 143.834 84.7564 141.859 133.285C140.468 167.478 154.275 219.975 154.275 219.975Z" fill="url(#paint11_linear_0_1)" fill-opacity="0.2"/>
</g>
<g opacity="0.95">
<path d="M277.263 207.262L153.921 220.131C156.869 220.254 158.668 228.703 160.737 238.422C163.538 251.583 166.835 267.073 174.153 267.377C200.896 268.486 234.557 262.804 264.558 257.74C266.663 257.384 268.749 257.032 270.814 256.686C276.944 255.657 276.157 240.569 275.467 227.324C274.934 217.102 274.458 207.978 277.263 207.262Z" fill="#FCDC8F"/>
<path d="M277.263 207.262L153.921 220.131C156.869 220.254 158.668 228.703 160.737 238.422C163.538 251.583 166.835 267.073 174.153 267.377C200.896 268.486 234.557 262.804 264.558 257.74C266.663 257.384 268.749 257.032 270.814 256.686C276.944 255.657 276.157 240.569 275.467 227.324C274.934 217.102 274.458 207.978 277.263 207.262Z" fill="url(#paint12_linear_0_1)" fill-opacity="0.2"/>
</g>
<g opacity="0.95">
<path d="M39.4631 148.988C29.7452 178.773 36.1314 229.314 36.1314 229.314L154.137 220.634C154.24 220.614 154.348 220.606 154.46 220.61C154.46 220.61 140.588 167.258 142.002 132.504C144.01 83.1788 178.5 8.49999 178.5 8.49999L169 10.5C169 10.5 63.856 74.2236 39.4631 148.988Z" fill="#F99557"/>
<path d="M39.4631 148.988C29.7452 178.773 36.1314 229.314 36.1314 229.314L154.137 220.634C154.24 220.614 154.348 220.606 154.46 220.61C154.46 220.61 140.588 167.258 142.002 132.504C144.01 83.1788 178.5 8.49999 178.5 8.49999L169 10.5C169 10.5 63.856 74.2236 39.4631 148.988Z" fill="url(#paint13_linear_0_1)" fill-opacity="0.2"/>
</g>
<g opacity="0.95">
<path d="M50.0987 276.056C92.3813 275.442 125.31 274.953 143.889 270.989C152.979 269.049 152.508 251.294 152.14 237.403C151.903 228.458 151.708 221.115 154.138 220.634L36.1318 229.314C38.1691 229.399 38.8817 236.702 39.7412 245.511C41.0628 259.057 42.7317 276.162 50.0987 276.056Z" fill="#F99557"/>
<path d="M50.0987 276.056C92.3813 275.442 125.31 274.953 143.889 270.989C152.979 269.049 152.508 251.294 152.14 237.403C151.903 228.458 151.708 221.115 154.138 220.634L36.1318 229.314C38.1691 229.399 38.8817 236.702 39.7412 245.511C41.0628 259.057 42.7317 276.162 50.0987 276.056Z" fill="url(#paint14_linear_0_1)" fill-opacity="0.2"/>
</g>
<path opacity="0.95" d="M250.613 124.929C263.858 155.858 275.68 207.466 275.68 207.466C275.853 207.423 276.024 207.415 276.192 207.441L404.446 200.996C404.446 200.996 372 148 351 118.5C296.052 41.3118 188.196 8.40441 188.196 8.40441C186.532 8.56726 184.321 8.48425 182.114 8.4014C179.913 8.31876 177.716 8.2363 176.072 8.39819C176.072 8.39819 229.803 76.3352 250.613 124.929Z" fill="#37DECD"/>
<g opacity="0.95">
<path d="M299.893 254.44C332.01 255.772 363.808 253.514 392.466 247.037C398.03 245.78 399.265 231.47 400.343 218.985C401.176 209.342 401.914 200.788 404.48 200.177L275.881 206.882C278.223 207.243 280.056 214.238 282.288 222.758C285.872 236.438 290.485 254.049 299.893 254.44Z" fill="#37DECD"/>
<path d="M299.893 254.44C332.01 255.772 363.808 253.514 392.466 247.037C398.03 245.78 399.265 231.47 400.343 218.985C401.176 209.342 401.914 200.788 404.48 200.177L275.881 206.882C278.223 207.243 280.056 214.238 282.288 222.758C285.872 236.438 290.485 254.049 299.893 254.44Z" fill="url(#paint15_linear_0_1)" fill-opacity="0.2"/>
</g>
<g opacity="0.95">
<path d="M404.43 201.387L514.966 168.71C514.966 168.71 467.002 123.136 432.247 99.5644C348.164 42.5369 190.5 8.5 190.5 8.5C190.5 8.5 298.678 49.9568 345.5 117.5C365.421 146.236 404.43 201.387 404.43 201.387Z" fill="#088BC1"/>
<path d="M404.43 201.387L514.966 168.71C514.966 168.71 467.002 123.136 432.247 99.5644C348.164 42.5369 190.5 8.5 190.5 8.5C190.5 8.5 298.678 49.9568 345.5 117.5C365.421 146.236 404.43 201.387 404.43 201.387Z" fill="url(#paint16_linear_0_1)" fill-opacity="0.2"/>
</g>
<g opacity="0.95">
<path d="M518.258 217.945C526.95 212.05 523.963 192.208 514.966 168.71L404.429 201.387C406.197 200.97 407.31 204.798 408.882 210.206C412.478 222.576 418.478 243.217 440.221 240.263C445.286 239.575 449.887 238.974 454.103 238.424L454.117 238.422L454.121 238.421L454.14 238.419L454.145 238.418C486.511 234.192 496.157 232.933 518.258 217.945Z" fill="#088BC1"/>
<path d="M518.258 217.945C526.95 212.05 523.963 192.208 514.966 168.71L404.429 201.387C406.197 200.97 407.31 204.798 408.882 210.206C412.478 222.576 418.478 243.217 440.221 240.263C445.286 239.575 449.887 238.974 454.103 238.424L454.117 238.422L454.121 238.421L454.14 238.419L454.145 238.418C486.511 234.192 496.157 232.933 518.258 217.945Z" fill="url(#paint17_linear_0_1)" fill-opacity="0.2"/>
</g>
<g opacity="0.95">
<path d="M489.056 117.308C462.623 74.7842 413.043 30.9504 340.267 14.0782C287.682 1.88694 238.241 3.74426 190.5 8.5C190.5 8.5 348.164 42.5369 432.247 99.5644C467.002 123.136 514.966 168.71 514.966 168.71C508.642 152.191 499.349 133.866 489.056 117.308Z" fill="#B73C94"/>
<path d="M489.056 117.308C462.623 74.7842 413.043 30.9504 340.267 14.0782C287.682 1.88694 238.241 3.74426 190.5 8.5C190.5 8.5 348.164 42.5369 432.247 99.5644C467.002 123.136 514.966 168.71 514.966 168.71C508.642 152.191 499.349 133.866 489.056 117.308Z" fill="url(#paint18_linear_0_1)" fill-opacity="0.2"/>
</g>
<g opacity="0.95">
<path d="M11.1101 57.8031C-27.5409 84.7756 -34.8137 103.273 -57.4345 144.968C-70.1714 168.446 -74.3471 200.669 -75.8045 224.672L36.1319 229.314C36.1319 229.314 29.7457 178.773 39.4636 148.988C63.8565 74.2236 169 10.5 169 10.5C138.444 13.0073 65.6427 19.7475 11.1101 57.8031Z" fill="#FE7098"/>
<path d="M11.1101 57.8031C-27.5409 84.7756 -34.8137 103.273 -57.4345 144.968C-70.1714 168.446 -74.3471 200.669 -75.8045 224.672L36.1319 229.314C36.1319 229.314 29.7457 178.773 39.4636 148.988C63.8565 74.2236 169 10.5 169 10.5C138.444 13.0073 65.6427 19.7475 11.1101 57.8031Z" fill="url(#paint19_linear_0_1)" fill-opacity="0.2"/>
</g>
<g opacity="0.95">
<path fill-rule="evenodd" clip-rule="evenodd" d="M276.983 207.938C277.155 207.894 277.324 207.886 277.49 207.912L276.983 207.938ZM154.138 220.634C154.241 220.614 154.349 220.606 154.461 220.61L154.138 220.634ZM36.1322 229.314L-75.8042 224.672C-76.0536 228.779 -76.4631 232.971 -76.864 237.076C-78.4433 253.248 -79.8908 268.07 -70.9061 271.037C-39.9964 281.244 -1.17674 278.072 23.1223 274.937C31.5902 273.844 32.584 256.582 33.3307 243.612C33.7917 235.604 34.1585 229.232 36.1322 229.314Z" fill="#FE7098"/>
<path fill-rule="evenodd" clip-rule="evenodd" d="M276.983 207.938C277.155 207.894 277.324 207.886 277.49 207.912L276.983 207.938ZM154.138 220.634C154.241 220.614 154.349 220.606 154.461 220.61L154.138 220.634ZM36.1322 229.314L-75.8042 224.672C-76.0536 228.779 -76.4631 232.971 -76.864 237.076C-78.4433 253.248 -79.8908 268.07 -70.9061 271.037C-39.9964 281.244 -1.17674 278.072 23.1223 274.937C31.5902 273.844 32.584 256.582 33.3307 243.612C33.7917 235.604 34.1585 229.232 36.1322 229.314Z" fill="url(#paint20_linear_0_1)" fill-opacity="0.2"/>
</g>
<rect x="93" y="392.476" width="235.83" height="147.527" rx="20" transform="rotate(-3.51914 93 392.476)" fill="#10689A"/>
<path d="M139.551 450.704L138.044 422.745L143.236 422.465L144.744 450.424L139.551 450.704ZM162.766 427.821C164.47 427.729 166.006 427.98 167.373 428.574C168.767 429.166 169.888 430.134 170.735 431.477C171.58 432.793 172.061 434.53 172.177 436.687L172.836 448.909L167.844 449.178L167.219 437.595C167.117 435.705 166.588 434.318 165.633 433.435C164.704 432.55 163.44 432.151 161.843 432.237C160.671 432.3 159.645 432.596 158.766 433.124C157.886 433.652 157.22 434.409 156.765 435.395C156.336 436.353 156.161 437.551 156.238 438.988L156.82 449.773L151.827 450.042L150.677 428.713L155.43 428.457L155.74 434.208L154.806 432.496C155.479 431.098 156.501 430.001 157.874 429.206C159.271 428.383 160.902 427.921 162.766 427.821ZM188.251 448.358C186.201 448.469 184.325 448.116 182.626 447.3C180.951 446.455 179.604 445.246 178.585 443.672C177.565 442.098 176.996 440.206 176.876 437.996C176.757 435.786 177.12 433.843 177.964 432.169C178.809 430.494 180.019 429.16 181.594 428.168C183.196 427.173 185.022 426.621 187.073 426.51C188.857 426.414 190.476 426.727 191.93 427.45C193.383 428.146 194.566 429.271 195.477 430.824C196.389 432.377 196.912 434.405 197.047 436.908C197.181 439.385 196.892 441.456 196.181 443.124C195.468 444.765 194.427 446.022 193.059 446.897C191.691 447.772 190.088 448.259 188.251 448.358ZM188.62 444.052C189.818 443.988 190.869 443.664 191.772 443.081C192.702 442.497 193.419 441.684 193.924 440.642C194.455 439.598 194.684 438.398 194.611 437.04C194.536 435.655 194.179 434.486 193.54 433.532C192.927 432.55 192.126 431.819 191.139 431.338C190.178 430.856 189.099 430.647 187.9 430.712C186.702 430.776 185.638 431.101 184.708 431.685C183.805 432.268 183.087 433.081 182.556 434.124C182.05 435.14 181.834 436.34 181.909 437.724C181.982 439.082 182.326 440.252 182.94 441.234C183.58 442.214 184.381 442.946 185.341 443.428C186.329 443.909 187.421 444.117 188.62 444.052ZM195.306 447.698L195.034 442.665L194.928 436.982L194.223 431.332L193.508 418.071L198.461 417.804L200.059 447.441L195.306 447.698ZM206.63 447.087L205.48 425.758L210.473 425.489L211.623 446.818L206.63 447.087ZM207.807 422.107C206.875 422.158 206.087 421.906 205.443 421.354C204.825 420.799 204.494 420.109 204.45 419.284C204.404 418.432 204.659 417.71 205.214 417.12C205.795 416.501 206.552 416.166 207.484 416.116C208.416 416.066 209.19 416.305 209.806 416.832C210.447 417.332 210.79 417.994 210.834 418.82C210.882 419.698 210.629 420.46 210.076 421.104C209.522 421.721 208.765 422.056 207.807 422.107ZM231.317 445.756L231.084 441.442L230.755 440.539L230.348 432.989C230.269 431.525 229.769 430.417 228.847 429.665C227.924 428.887 226.57 428.546 224.786 428.643C223.588 428.707 222.413 428.958 221.261 429.394C220.136 429.828 219.192 430.4 218.429 431.108L216.276 427.579C217.374 426.639 218.697 425.913 220.245 425.402C221.818 424.864 223.457 424.548 225.161 424.456C228.25 424.29 230.673 424.907 232.431 426.308C234.214 427.68 235.189 429.911 235.356 433L236.03 445.502L231.317 445.756ZM224.622 446.397C223.024 446.483 221.611 446.293 220.385 445.825C219.156 445.33 218.183 444.621 217.466 443.699C216.774 442.748 216.395 441.66 216.328 440.435C216.264 439.237 216.485 438.143 216.993 437.155C217.527 436.164 218.431 435.355 219.706 434.725C220.981 434.095 222.696 433.723 224.853 433.606L231.044 433.272L231.223 436.588L225.391 436.902C223.687 436.994 222.557 437.335 222.002 437.926C221.444 438.49 221.187 439.172 221.231 439.971C221.279 440.876 221.678 441.575 222.425 442.069C223.173 442.563 224.186 442.775 225.464 442.707C226.689 442.64 227.766 442.302 228.694 441.691C229.649 441.079 230.31 440.215 230.677 439.101L231.678 442.051C231.266 443.328 230.453 444.347 229.239 445.107C228.051 445.865 226.512 446.295 224.622 446.397ZM253.377 422.935C255.081 422.843 256.617 423.094 257.984 423.688C259.378 424.28 260.498 425.248 261.345 426.591C262.191 427.908 262.672 429.644 262.788 431.801L263.447 444.023L258.454 444.293L257.83 432.709C257.728 430.819 257.199 429.432 256.243 428.549C255.314 427.664 254.051 427.265 252.453 427.351C251.282 427.414 250.256 427.71 249.377 428.238C248.497 428.766 247.83 429.523 247.376 430.509C246.947 431.467 246.771 432.665 246.849 434.103L247.43 444.887L242.437 445.156L241.287 423.827L246.04 423.571L246.351 429.323L245.417 427.61C246.089 426.212 247.112 425.115 248.484 424.32C249.882 423.497 251.513 423.035 253.377 422.935ZM282.921 442.973L282.689 438.66L282.36 437.756L281.953 430.207C281.874 428.742 281.373 427.634 280.451 426.883C279.528 426.105 278.175 425.764 276.39 425.86C275.192 425.925 274.017 426.175 272.866 426.611C271.741 427.045 270.797 427.617 270.034 428.326L267.881 424.797C268.979 423.856 270.301 423.131 271.849 422.62C273.423 422.081 275.061 421.766 276.766 421.674C279.854 421.507 282.278 422.124 284.036 423.525C285.819 424.898 286.794 427.128 286.96 430.217L287.635 442.719L282.921 442.973ZM276.226 443.615C274.629 443.701 273.216 443.51 271.989 443.042C270.761 442.547 269.788 441.839 269.071 440.916C268.378 439.965 267.999 438.877 267.933 437.653C267.869 436.454 268.09 435.361 268.598 434.372C269.132 433.382 270.036 432.572 271.311 431.942C272.585 431.313 274.301 430.94 276.458 430.824L282.649 430.49L282.828 433.805L276.996 434.119C275.292 434.211 274.162 434.553 273.606 435.143C273.049 435.708 272.792 436.389 272.835 437.188C272.884 438.093 273.282 438.793 274.03 439.287C274.778 439.78 275.791 439.993 277.069 439.924C278.294 439.858 279.37 439.519 280.299 438.909C281.254 438.296 281.915 437.433 282.282 436.318L283.282 439.268C282.871 440.546 282.058 441.564 280.843 442.324C279.656 443.083 278.117 443.513 276.226 443.615ZM148.33 499.582C145.987 499.709 144.144 499.207 142.801 498.078C141.457 496.922 140.721 495.159 140.593 492.789L139.561 473.657L144.554 473.387L145.579 492.4C145.634 493.412 145.929 494.184 146.465 494.715C147.028 495.246 147.775 495.486 148.707 495.436C149.826 495.376 150.742 495.032 151.456 494.406L153.045 497.886C152.485 498.397 151.786 498.795 150.947 499.081C150.108 499.366 149.235 499.533 148.33 499.582ZM136.525 482.713L136.309 478.719L150.529 477.952L150.744 481.947L136.525 482.713ZM166.114 498.623C163.931 498.741 161.962 498.38 160.207 497.54C158.451 496.673 157.036 495.441 155.962 493.843C154.888 492.245 154.294 490.394 154.18 488.291C154.066 486.161 154.457 484.257 155.355 482.579C156.251 480.875 157.526 479.511 159.18 478.487C160.834 477.463 162.753 476.893 164.936 476.775C167.146 476.656 169.128 477.016 170.883 477.856C172.664 478.695 174.078 479.901 175.124 481.473C176.197 483.044 176.791 484.908 176.907 487.065C177.021 489.169 176.629 491.073 175.733 492.777C174.864 494.479 173.589 495.857 171.91 496.909C170.256 497.933 168.324 498.504 166.114 498.623ZM165.884 494.349C167.109 494.283 168.186 493.958 169.116 493.374C170.046 492.79 170.75 491.977 171.228 490.937C171.732 489.895 171.948 488.695 171.875 487.337C171.8 485.952 171.457 484.782 170.844 483.827C170.257 482.844 169.47 482.112 168.483 481.631C167.495 481.15 166.403 480.942 165.204 481.007C163.979 481.073 162.902 481.398 161.972 481.982C161.069 482.565 160.365 483.377 159.86 484.419C159.354 485.435 159.138 486.635 159.213 488.019C159.286 489.377 159.63 490.547 160.244 491.529C160.857 492.511 161.645 493.243 162.605 493.725C163.593 494.206 164.685 494.414 165.884 494.349ZM205.819 496.602C201.984 496.809 198.917 495.893 196.617 493.854C194.344 491.813 193.098 488.756 192.878 484.682L192.027 468.905L197.22 468.625L198.06 484.202C198.215 487.078 198.94 489.135 200.235 490.374C201.557 491.611 203.35 492.169 205.613 492.047C207.877 491.925 209.586 491.178 210.74 489.808C211.895 488.437 212.394 486.314 212.239 483.438L211.399 467.86L216.512 467.585L217.363 483.362C217.582 487.436 216.659 490.61 214.591 492.885C212.551 495.158 209.627 496.397 205.819 496.602ZM225.291 495.152L223.784 467.193L228.976 466.913L230.484 494.872L225.291 495.152ZM250.09 494.215C246.256 494.422 243.189 493.506 240.889 491.467C238.616 489.426 237.37 486.369 237.15 482.295L236.299 466.518L241.492 466.238L242.332 481.815C242.487 484.691 243.212 486.748 244.507 487.987C245.829 489.224 247.621 489.782 249.885 489.66C252.148 489.538 253.857 488.791 255.012 487.42C256.166 486.05 256.666 483.926 256.511 481.051L255.671 465.473L260.784 465.197L261.634 480.975C261.854 485.049 260.93 488.223 258.863 490.498C256.822 492.771 253.898 494.01 250.09 494.215ZM282.526 492.466C280.396 492.581 278.393 492.342 276.518 491.749C274.669 491.127 273.031 490.214 271.604 489.009C270.202 487.776 269.081 486.301 268.241 484.584C267.4 482.867 266.924 480.97 266.812 478.893C266.7 476.816 266.97 474.878 267.62 473.081C268.271 471.283 269.241 469.709 270.53 468.357C271.818 466.979 273.349 465.895 275.122 465.105C276.894 464.289 278.858 463.822 281.015 463.706C283.305 463.583 285.417 463.869 287.351 464.566C289.283 465.236 290.943 466.309 292.331 467.783L289.146 471.119C288.075 470.082 286.9 469.331 285.62 468.866C284.338 468.374 282.965 468.167 281.5 468.246C280.036 468.325 278.704 468.638 277.505 469.183C276.332 469.727 275.317 470.463 274.459 471.39C273.628 472.316 272.992 473.392 272.55 474.618C272.136 475.842 271.967 477.173 272.045 478.611C272.122 480.049 272.433 481.354 272.977 482.526C273.547 483.697 274.296 484.698 275.222 485.53C276.174 486.359 277.263 486.982 278.487 487.396C279.738 487.81 281.095 487.977 282.56 487.898C284.024 487.819 285.368 487.479 286.591 486.879C287.812 486.253 288.899 485.353 289.85 484.18L293.378 487.194C292.155 488.783 290.62 490.027 288.772 490.928C286.925 491.829 284.842 492.341 282.526 492.466Z" fill="white"/>
<rect width="228.262" height="87.5962" rx="10" transform="matrix(0.999981 0.00623849 -0.0215036 0.999769 110.884 571)" fill="#0D387C"/>
<path d="M133.123 602.648L133.237 598.771L133.61 599.893L129.562 592.836L131.508 592.844L134.757 598.526L133.665 598.521L137.276 592.868L139.068 592.876L134.604 599.897L135.057 598.779L134.943 602.656L133.123 602.648ZM142.326 602.785C141.561 602.782 140.884 602.615 140.296 602.286C139.709 601.948 139.251 601.489 138.923 600.909C138.594 600.329 138.441 599.671 138.463 598.934C138.485 598.187 138.677 597.53 139.039 596.963C139.401 596.386 139.886 595.935 140.493 595.611C141.1 595.287 141.786 595.127 142.551 595.13C143.326 595.133 144.007 595.3 144.595 595.629C145.192 595.958 145.65 596.408 145.969 596.978C146.298 597.549 146.451 598.212 146.429 598.967C146.407 599.704 146.215 600.361 145.853 600.938C145.5 601.515 145.015 601.971 144.398 602.304C143.791 602.628 143.101 602.788 142.326 602.785ZM142.37 601.287C142.799 601.289 143.185 601.198 143.526 601.012C143.868 600.827 144.137 600.558 144.334 600.204C144.541 599.85 144.651 599.436 144.665 598.96C144.679 598.475 144.593 598.059 144.408 597.713C144.231 597.358 143.978 597.086 143.647 596.898C143.317 596.71 142.942 596.615 142.522 596.614C142.092 596.612 141.707 596.703 141.366 596.889C141.033 597.074 140.764 597.343 140.558 597.697C140.351 598.041 140.241 598.456 140.227 598.941C140.213 599.417 140.299 599.832 140.484 600.188C140.67 600.543 140.923 600.815 141.244 601.003C141.575 601.191 141.95 601.286 142.37 601.287ZM151.153 602.822C150.519 602.82 149.962 602.701 149.484 602.465C149.005 602.221 148.638 601.855 148.382 601.369C148.126 600.873 148.009 600.252 148.031 599.506L148.156 595.238L149.906 595.245L149.788 599.276C149.768 599.947 149.902 600.452 150.191 600.789C150.489 601.117 150.919 601.282 151.479 601.284C151.889 601.286 152.246 601.203 152.55 601.037C152.863 600.87 153.108 600.619 153.286 600.284C153.474 599.949 153.574 599.534 153.589 599.04L153.7 595.262L155.45 595.269L155.23 602.742L153.564 602.735L153.623 600.719L153.899 601.336C153.633 601.821 153.253 602.192 152.76 602.451C152.268 602.701 151.732 602.825 151.153 602.822ZM171.049 595.251C171.646 595.254 172.17 595.373 172.621 595.608C173.081 595.843 173.434 596.204 173.681 596.69C173.928 597.167 174.041 597.783 174.019 598.539L173.892 602.821L172.142 602.814L172.262 598.755C172.281 598.093 172.151 597.598 171.872 597.27C171.592 596.942 171.181 596.777 170.64 596.775C170.257 596.773 169.914 596.856 169.611 597.023C169.316 597.189 169.08 597.436 168.903 597.761C168.735 598.087 168.643 598.502 168.628 599.006L168.516 602.798L166.766 602.791L166.886 598.732C166.906 598.07 166.775 597.575 166.496 597.247C166.216 596.92 165.806 596.754 165.264 596.752C164.882 596.751 164.538 596.833 164.235 597C163.94 597.166 163.705 597.413 163.527 597.739C163.359 598.064 163.267 598.479 163.252 598.983L163.14 602.775L161.39 602.768L161.611 595.295L163.277 595.302L163.218 597.289L162.941 596.7C163.208 596.216 163.583 595.849 164.066 595.599C164.559 595.35 165.113 595.226 165.729 595.229C166.429 595.232 167.031 595.407 167.534 595.754C168.046 596.102 168.376 596.625 168.524 597.326L167.845 597.085C168.104 596.526 168.518 596.08 169.088 595.747C169.658 595.413 170.312 595.248 171.049 595.251ZM179.29 602.942C178.655 602.939 178.098 602.82 177.62 602.585C177.142 602.34 176.775 601.975 176.518 601.489C176.262 600.993 176.145 600.372 176.167 599.626L176.293 595.358L178.043 595.365L177.924 599.395C177.904 600.067 178.039 600.571 178.328 600.908C178.626 601.236 179.055 601.401 179.615 601.404C180.026 601.406 180.383 601.323 180.686 601.156C180.999 600.99 181.245 600.739 181.423 600.404C181.61 600.069 181.711 599.654 181.725 599.159L181.837 595.381L183.587 595.388L183.367 602.861L181.701 602.854L181.76 600.839L182.036 601.456C181.77 601.94 181.39 602.312 180.897 602.571C180.404 602.821 179.868 602.944 179.29 602.942ZM187.965 602.979C187.34 602.976 186.74 602.894 186.166 602.733C185.602 602.563 185.155 602.36 184.826 602.126L185.537 600.799C185.867 601.015 186.263 601.194 186.725 601.336C187.188 601.478 187.652 601.55 188.119 601.552C188.67 601.554 189.069 601.481 189.316 601.333C189.572 601.185 189.704 600.985 189.711 600.733C189.717 600.528 189.638 600.373 189.473 600.27C189.308 600.157 189.091 600.072 188.822 600.015C188.553 599.958 188.252 599.906 187.917 599.858C187.592 599.809 187.262 599.747 186.928 599.671C186.604 599.586 186.309 599.468 186.043 599.318C185.777 599.158 185.563 598.947 185.403 598.685C185.243 598.423 185.169 598.078 185.182 597.649C185.196 597.173 185.343 596.763 185.624 596.419C185.905 596.065 186.291 595.797 186.782 595.612C187.282 595.418 187.869 595.323 188.54 595.326C189.044 595.328 189.552 595.386 190.062 595.5C190.572 595.614 190.992 595.775 191.322 595.981L190.61 597.308C190.262 597.092 189.907 596.946 189.545 596.869C189.193 596.784 188.84 596.74 188.485 596.739C187.953 596.737 187.554 596.814 187.288 596.972C187.031 597.129 186.899 597.329 186.892 597.572C186.886 597.796 186.965 597.964 187.129 598.077C187.294 598.189 187.511 598.279 187.779 598.345C188.048 598.412 188.345 598.469 188.67 598.517C189.005 598.556 189.335 598.618 189.659 598.703C189.983 598.789 190.279 598.907 190.545 599.057C190.821 599.198 191.039 599.4 191.199 599.662C191.359 599.923 191.433 600.264 191.421 600.684C191.407 601.151 191.255 601.556 190.965 601.9C190.684 602.244 190.289 602.513 189.779 602.707C189.27 602.891 188.665 602.982 187.965 602.979ZM195.674 603.012C194.853 603.008 194.224 602.795 193.789 602.374C193.353 601.943 193.148 601.312 193.172 600.482L193.37 593.779L195.12 593.786L194.923 600.447C194.913 600.802 194.994 601.077 195.165 601.274C195.346 601.471 195.6 601.57 195.926 601.571C196.318 601.573 196.648 601.471 196.915 601.267L197.369 602.515C197.158 602.682 196.903 602.807 196.602 602.889C196.3 602.972 195.991 603.013 195.674 603.012ZM192.046 596.88L192.087 595.481L197.071 595.502L197.03 596.901L192.046 596.88ZM202.665 602.943L202.886 595.47L204.552 595.478L204.491 597.535L204.313 596.932C204.552 596.429 204.913 596.048 205.397 595.789C205.89 595.53 206.495 595.402 207.214 595.405L207.165 597.07C207.091 597.051 207.021 597.042 206.956 597.041C206.891 597.032 206.826 597.027 206.76 597.026C206.098 597.024 205.565 597.217 205.161 597.608C204.758 597.988 204.545 598.561 204.522 599.326L204.415 602.951L202.665 602.943ZM211.919 603.081C211.088 603.077 210.365 602.911 209.749 602.581C209.143 602.243 208.676 601.784 208.348 601.204C208.029 600.624 207.88 599.966 207.902 599.229C207.924 598.482 208.106 597.825 208.45 597.258C208.803 596.681 209.274 596.23 209.862 595.906C210.459 595.582 211.132 595.422 211.878 595.425C212.606 595.428 213.25 595.589 213.81 595.909C214.37 596.228 214.805 596.678 215.115 597.258C215.424 597.838 215.568 598.519 215.544 599.303C215.542 599.378 215.535 599.462 215.523 599.555C215.52 599.648 215.513 599.737 215.501 599.821L209.271 599.794L209.305 598.633L214.611 598.655L213.915 599.016C213.937 598.587 213.859 598.209 213.682 597.882C213.505 597.554 213.256 597.297 212.935 597.109C212.623 596.921 212.257 596.826 211.837 596.824C211.408 596.822 211.027 596.914 210.695 597.099C210.372 597.284 210.112 597.545 209.916 597.88C209.729 598.205 209.629 598.592 209.615 599.04L209.607 599.32C209.594 599.768 209.685 600.165 209.88 600.511C210.075 600.857 210.357 601.124 210.725 601.312C211.093 601.5 211.519 601.595 212.004 601.597C212.424 601.599 212.804 601.535 213.144 601.406C213.484 601.277 213.789 601.073 214.058 600.794L214.965 601.876C214.617 602.266 214.183 602.568 213.664 602.78C213.154 602.983 212.572 603.083 211.919 603.081ZM220.422 605.832C219.731 605.829 219.057 605.733 218.4 605.543C217.752 605.363 217.223 605.1 216.813 604.753L217.636 603.441C217.954 603.713 218.359 603.929 218.849 604.09C219.348 604.26 219.854 604.346 220.367 604.348C221.189 604.352 221.796 604.163 222.19 603.782C222.584 603.41 222.792 602.847 222.814 602.091L222.853 600.762L223.043 599.069L223.037 597.376L223.091 595.556L224.757 595.563L224.57 601.903C224.53 603.255 224.155 604.248 223.446 604.879C222.736 605.52 221.728 605.837 220.422 605.832ZM220.29 602.682C219.581 602.679 218.941 602.527 218.372 602.226C217.811 601.916 217.371 601.49 217.051 600.947C216.74 600.405 216.596 599.769 216.617 599.042C216.638 598.323 216.82 597.694 217.163 597.155C217.515 596.615 217.98 596.197 218.558 595.901C219.145 595.605 219.794 595.458 220.503 595.461C221.138 595.464 221.703 595.592 222.2 595.846C222.697 596.1 223.086 596.494 223.369 597.027C223.662 597.56 223.796 598.242 223.771 599.072C223.747 599.902 223.573 600.588 223.249 601.127C222.934 601.658 222.521 602.053 222.01 602.312C221.498 602.561 220.925 602.685 220.29 602.682ZM220.6 601.2C221.039 601.202 221.433 601.115 221.784 600.939C222.135 600.754 222.408 600.503 222.604 600.187C222.81 599.861 222.919 599.488 222.931 599.069C222.944 598.649 222.856 598.28 222.67 597.962C222.493 597.634 222.234 597.386 221.894 597.217C221.554 597.038 221.164 596.948 220.725 596.946C220.287 596.944 219.888 597.031 219.528 597.207C219.177 597.373 218.899 597.619 218.694 597.945C218.498 598.261 218.394 598.629 218.381 599.049C218.369 599.469 218.451 599.843 218.628 600.17C218.815 600.488 219.078 600.741 219.418 600.929C219.767 601.108 220.161 601.198 220.6 601.2ZM226.837 603.046L227.057 595.573L228.807 595.581L228.587 603.053L226.837 603.046ZM227.976 594.345C227.649 594.344 227.381 594.24 227.173 594.034C226.973 593.828 226.878 593.58 226.887 593.291C226.895 592.993 227.005 592.746 227.216 592.551C227.437 592.346 227.711 592.245 228.038 592.246C228.364 592.248 228.627 592.347 228.827 592.544C229.036 592.731 229.136 592.97 229.128 593.259C229.119 593.567 229.008 593.827 228.797 594.041C228.585 594.245 228.312 594.347 227.976 594.345ZM233.191 603.171C232.566 603.168 231.966 603.086 231.392 602.925C230.828 602.755 230.381 602.552 230.052 602.318L230.763 600.991C231.093 601.207 231.489 601.386 231.951 601.528C232.414 601.67 232.878 601.742 233.345 601.744C233.896 601.746 234.295 601.673 234.542 601.525C234.798 601.377 234.93 601.177 234.937 600.925C234.944 600.72 234.864 600.566 234.699 600.462C234.534 600.349 234.318 600.265 234.048 600.207C233.779 600.15 233.478 600.098 233.143 600.05C232.818 600.002 232.488 599.94 232.154 599.864C231.83 599.778 231.535 599.66 231.269 599.51C231.003 599.35 230.79 599.139 230.629 598.877C230.469 598.615 230.395 598.27 230.408 597.841C230.422 597.365 230.569 596.955 230.85 596.611C231.131 596.258 231.517 595.989 232.008 595.804C232.508 595.61 233.095 595.515 233.767 595.518C234.271 595.52 234.778 595.578 235.288 595.692C235.798 595.806 236.218 595.967 236.548 596.173L235.836 597.5C235.488 597.284 235.133 597.138 234.771 597.062C234.419 596.976 234.066 596.933 233.711 596.931C233.179 596.929 232.78 597.006 232.514 597.164C232.257 597.321 232.125 597.521 232.118 597.764C232.112 597.988 232.191 598.156 232.355 598.269C232.52 598.382 232.737 598.471 233.006 598.538C233.274 598.604 233.571 598.661 233.897 598.709C234.232 598.748 234.561 598.81 234.885 598.895C235.209 598.981 235.505 599.099 235.771 599.249C236.047 599.39 236.265 599.592 236.425 599.854C236.585 600.116 236.659 600.456 236.647 600.876C236.633 601.343 236.481 601.748 236.191 602.092C235.91 602.436 235.515 602.705 235.005 602.899C234.496 603.083 233.891 603.174 233.191 603.171ZM240.9 603.204C240.079 603.2 239.45 602.988 239.015 602.566C238.579 602.135 238.374 601.504 238.398 600.674L238.596 593.971L240.346 593.978L240.15 600.639C240.139 600.994 240.22 601.269 240.391 601.466C240.572 601.663 240.826 601.762 241.153 601.763C241.545 601.765 241.874 601.664 242.142 601.459L242.595 602.707C242.385 602.874 242.129 602.999 241.828 603.082C241.527 603.164 241.217 603.205 240.9 603.204ZM237.272 597.072L237.314 595.673L242.298 595.694L242.256 597.093L237.272 597.072ZM247.288 603.231C246.457 603.227 245.734 603.061 245.118 602.732C244.512 602.393 244.045 601.934 243.716 601.354C243.397 600.774 243.249 600.116 243.271 599.379C243.293 598.633 243.475 597.976 243.819 597.408C244.172 596.831 244.642 596.38 245.231 596.056C245.828 595.732 246.5 595.572 247.247 595.575C247.975 595.578 248.619 595.739 249.179 596.059C249.739 596.379 250.174 596.828 250.483 597.408C250.793 597.988 250.936 598.67 250.913 599.453C250.911 599.528 250.904 599.612 250.892 599.705C250.889 599.799 250.882 599.887 250.87 599.971L244.64 599.945L244.674 598.783L249.98 598.806L249.284 599.167C249.305 598.737 249.228 598.359 249.051 598.032C248.874 597.705 248.625 597.447 248.304 597.259C247.992 597.071 247.626 596.976 247.206 596.974C246.777 596.973 246.396 597.064 246.064 597.249C245.741 597.435 245.481 597.695 245.285 598.03C245.098 598.356 244.998 598.742 244.984 599.19L244.976 599.47C244.963 599.918 245.054 600.315 245.249 600.661C245.444 601.007 245.726 601.274 246.093 601.462C246.461 601.65 246.888 601.746 247.373 601.748C247.793 601.749 248.173 601.686 248.513 601.557C248.853 601.427 249.158 601.223 249.427 600.945L250.333 602.026C249.986 602.417 249.552 602.718 249.033 602.93C248.523 603.133 247.941 603.234 247.288 603.231ZM252.485 603.155L252.706 595.682L254.372 595.689L254.311 597.746L254.133 597.144C254.372 596.641 254.733 596.26 255.216 596.001C255.709 595.742 256.315 595.614 257.034 595.617L256.985 597.282C256.911 597.263 256.841 597.253 256.776 597.253C256.711 597.243 256.645 597.238 256.58 597.238C255.918 597.235 255.384 597.429 254.981 597.819C254.578 598.2 254.365 598.773 254.342 599.538L254.235 603.162L252.485 603.155ZM265.044 603.306C264.223 603.303 263.595 603.09 263.159 602.668C262.724 602.237 262.518 601.607 262.543 600.776L262.74 594.073L264.49 594.081L264.294 600.742C264.283 601.096 264.364 601.372 264.536 601.569C264.716 601.765 264.97 601.864 265.297 601.866C265.689 601.867 266.019 601.766 266.286 601.562L266.739 602.81C266.529 602.977 266.273 603.102 265.972 603.184C265.671 603.267 265.362 603.308 265.044 603.306ZM261.417 597.175L261.458 595.775L266.442 595.797L266.401 597.196L261.417 597.175ZM271.278 603.333C270.513 603.329 269.836 603.163 269.248 602.834C268.661 602.496 268.203 602.037 267.875 601.457C267.546 600.877 267.393 600.219 267.415 599.482C267.437 598.735 267.629 598.078 267.991 597.511C268.353 596.934 268.838 596.483 269.445 596.159C270.052 595.835 270.738 595.675 271.503 595.678C272.278 595.681 272.959 595.848 273.547 596.177C274.144 596.506 274.602 596.956 274.921 597.526C275.25 598.097 275.403 598.76 275.381 599.515C275.359 600.252 275.167 600.909 274.805 601.486C274.452 602.063 273.967 602.518 273.35 602.852C272.743 603.176 272.052 603.336 271.278 603.333ZM271.322 601.835C271.751 601.837 272.137 601.746 272.478 601.56C272.82 601.375 273.089 601.106 273.286 600.752C273.493 600.398 273.603 599.984 273.617 599.508C273.631 599.023 273.545 598.607 273.36 598.261C273.183 597.906 272.93 597.634 272.599 597.446C272.269 597.258 271.894 597.163 271.474 597.161C271.044 597.16 270.659 597.251 270.317 597.436C269.985 597.622 269.716 597.891 269.51 598.245C269.303 598.589 269.193 599.004 269.179 599.489C269.165 599.965 269.251 600.38 269.436 600.736C269.622 601.091 269.875 601.363 270.196 601.551C270.527 601.739 270.902 601.834 271.322 601.835ZM284.954 603.391C284.32 603.388 283.759 603.246 283.273 602.964C282.786 602.682 282.407 602.26 282.134 601.699C281.871 601.129 281.752 600.41 281.777 599.543C281.803 598.666 281.969 597.948 282.275 597.389C282.59 596.831 282.999 596.417 283.502 596.149C284.014 595.871 284.573 595.734 285.18 595.736C285.917 595.739 286.561 595.901 287.112 596.22C287.672 596.54 288.107 596.985 288.417 597.555C288.736 598.126 288.884 598.798 288.861 599.573C288.838 600.347 288.651 601.018 288.298 601.586C287.954 602.153 287.493 602.599 286.914 602.923C286.345 603.238 285.692 603.394 284.954 603.391ZM280.813 603.275L281.119 592.892L282.869 592.899L282.732 597.545L282.534 599.532L282.531 601.519L282.479 603.282L280.813 603.275ZM284.802 601.893C285.222 601.894 285.598 601.803 285.931 601.618C286.272 601.432 286.546 601.163 286.753 600.809C286.959 600.456 287.069 600.041 287.083 599.565C287.098 599.08 287.012 598.664 286.826 598.318C286.64 597.963 286.382 597.691 286.052 597.503C285.731 597.315 285.36 597.22 284.94 597.219C284.52 597.217 284.139 597.309 283.798 597.494C283.456 597.679 283.182 597.948 282.976 598.302C282.77 598.646 282.66 599.061 282.645 599.546C282.631 600.022 282.717 600.438 282.903 600.793C283.088 601.148 283.346 601.42 283.677 601.608C284.007 601.796 284.382 601.891 284.802 601.893ZM293.922 603.429C293.091 603.425 292.368 603.259 291.752 602.93C291.146 602.591 290.679 602.132 290.351 601.552C290.032 600.973 289.883 600.314 289.905 599.577C289.927 598.831 290.11 598.174 290.453 597.606C290.806 597.029 291.277 596.578 291.865 596.254C292.463 595.93 293.135 595.77 293.881 595.773C294.609 595.776 295.253 595.938 295.813 596.257C296.373 596.577 296.808 597.027 297.118 597.606C297.427 598.186 297.571 598.868 297.548 599.652C297.545 599.726 297.538 599.81 297.526 599.903C297.523 599.997 297.516 600.085 297.504 600.169L291.274 600.143L291.309 598.981L296.615 599.004L295.918 599.365C295.94 598.936 295.862 598.557 295.685 598.23C295.508 597.903 295.259 597.645 294.938 597.457C294.626 597.269 294.26 597.174 293.84 597.173C293.411 597.171 293.03 597.262 292.698 597.448C292.375 597.633 292.115 597.893 291.919 598.228C291.732 598.554 291.632 598.941 291.619 599.388L291.61 599.668C291.597 600.116 291.688 600.513 291.883 600.859C292.079 601.205 292.36 601.472 292.728 601.66C293.096 601.849 293.522 601.944 294.008 601.946C294.428 601.948 294.807 601.884 295.147 601.755C295.487 601.626 295.792 601.422 296.061 601.143L296.968 602.224C296.62 602.615 296.187 602.916 295.667 603.128C295.157 603.332 294.575 603.432 293.922 603.429ZM307.595 603.389L307.639 601.878L307.551 601.555L307.629 598.911C307.644 598.397 307.502 598 307.202 597.719C306.902 597.429 306.44 597.282 305.815 597.279C305.395 597.278 304.977 597.341 304.563 597.47C304.158 597.599 303.812 597.779 303.525 598.011L302.876 596.735C303.287 596.429 303.769 596.202 304.324 596.055C304.889 595.899 305.47 595.822 306.067 595.825C307.15 595.83 307.978 596.094 308.55 596.619C309.133 597.135 309.408 597.934 309.376 599.016L309.247 603.396L307.595 603.389ZM305.24 603.477C304.68 603.475 304.193 603.379 303.778 603.191C303.364 602.993 303.045 602.726 302.822 602.389C302.608 602.043 302.507 601.655 302.52 601.226C302.532 600.806 302.641 600.429 302.847 600.094C303.063 599.759 303.402 599.494 303.865 599.3C304.328 599.107 304.937 599.011 305.693 599.014L307.863 599.024L307.829 600.185L305.785 600.176C305.188 600.174 304.784 600.27 304.573 600.465C304.362 600.651 304.252 600.884 304.244 601.164C304.235 601.481 304.353 601.733 304.6 601.921C304.846 602.108 305.193 602.203 305.641 602.205C306.071 602.207 306.456 602.111 306.798 601.916C307.149 601.722 307.405 601.434 307.566 601.052L307.829 602.102C307.648 602.54 307.334 602.879 306.889 603.12C306.452 603.361 305.903 603.48 305.24 603.477ZM315.957 595.867C316.555 595.869 317.083 595.988 317.543 596.224C318.012 596.459 318.375 596.82 318.631 597.306C318.888 597.783 319.005 598.399 318.983 599.155L318.857 603.437L317.107 603.429L317.226 599.371C317.246 598.709 317.102 598.214 316.794 597.886C316.496 597.558 316.066 597.393 315.506 597.391C315.096 597.389 314.729 597.471 314.407 597.638C314.085 597.804 313.83 598.055 313.643 598.39C313.465 598.716 313.369 599.131 313.354 599.635L313.243 603.413L311.493 603.406L311.713 595.933L313.379 595.94L313.319 597.955L313.044 597.338C313.319 596.863 313.708 596.501 314.21 596.251C314.721 595.992 315.304 595.864 315.957 595.867ZM146.731 619.7L146.776 618.189L146.687 617.867L146.765 615.222C146.78 614.709 146.638 614.312 146.338 614.03C146.039 613.74 145.576 613.593 144.951 613.591C144.531 613.589 144.114 613.652 143.699 613.781C143.294 613.91 142.948 614.091 142.661 614.323L142.013 613.046C142.423 612.74 142.906 612.514 143.461 612.367C144.026 612.21 144.607 612.134 145.204 612.136C146.287 612.141 147.114 612.406 147.687 612.93C148.269 613.446 148.544 614.245 148.512 615.327L148.383 619.707L146.731 619.7ZM144.376 619.788C143.816 619.786 143.329 619.691 142.915 619.502C142.5 619.304 142.182 619.037 141.958 618.7C141.744 618.354 141.644 617.967 141.656 617.537C141.669 617.118 141.778 616.74 141.984 616.405C142.199 616.07 142.538 615.806 143.001 615.612C143.464 615.418 144.074 615.322 144.83 615.326L147 615.335L146.966 616.496L144.922 616.488C144.324 616.485 143.92 616.581 143.709 616.776C143.498 616.962 143.389 617.195 143.38 617.475C143.371 617.792 143.49 618.044 143.736 618.232C143.983 618.42 144.33 618.514 144.778 618.516C145.207 618.518 145.593 618.422 145.934 618.227C146.286 618.033 146.541 617.745 146.702 617.363L146.965 618.414C146.784 618.851 146.471 619.191 146.025 619.431C145.589 619.672 145.039 619.791 144.376 619.788ZM153.44 619.827C152.619 619.823 151.99 619.611 151.555 619.189C151.119 618.758 150.914 618.127 150.938 617.297L151.136 610.594L152.886 610.601L152.69 617.262C152.679 617.617 152.76 617.893 152.931 618.089C153.112 618.286 153.366 618.385 153.693 618.386C154.085 618.388 154.414 618.287 154.682 618.083L155.135 619.33C154.925 619.497 154.669 619.622 154.368 619.705C154.067 619.787 153.757 619.828 153.44 619.827ZM149.812 613.695L149.854 612.296L154.838 612.317L154.796 613.716L149.812 613.695ZM159.196 619.851C158.375 619.848 157.746 619.635 157.311 619.213C156.875 618.782 156.67 618.152 156.694 617.321L156.892 610.618L158.642 610.626L158.445 617.287C158.435 617.641 158.516 617.917 158.687 618.114C158.868 618.31 159.122 618.409 159.448 618.411C159.84 618.412 160.17 618.311 160.437 618.107L160.891 619.355C160.68 619.522 160.425 619.647 160.124 619.729C159.823 619.812 159.513 619.853 159.196 619.851ZM155.568 613.72L155.609 612.32L160.593 612.342L160.552 613.741L155.568 613.72ZM165.583 619.878C164.753 619.875 164.03 619.709 163.414 619.379C162.808 619.041 162.341 618.582 162.012 618.002C161.693 617.422 161.545 616.764 161.566 616.027C161.588 615.28 161.771 614.623 162.115 614.055C162.468 613.478 162.938 613.028 163.527 612.704C164.124 612.38 164.796 612.219 165.543 612.223C166.271 612.226 166.915 612.387 167.475 612.707C168.035 613.026 168.47 613.476 168.779 614.056C169.089 614.636 169.232 615.317 169.209 616.101C169.207 616.176 169.2 616.26 169.188 616.353C169.185 616.446 169.178 616.535 169.166 616.619L162.936 616.592L162.97 615.431L168.276 615.453L167.579 615.814C167.601 615.385 167.524 615.007 167.347 614.68C167.17 614.352 166.921 614.095 166.599 613.907C166.288 613.719 165.922 613.624 165.502 613.622C165.072 613.62 164.692 613.712 164.359 613.897C164.037 614.082 163.777 614.342 163.58 614.678C163.393 615.003 163.293 615.39 163.28 615.838L163.272 616.118C163.259 616.566 163.35 616.962 163.545 617.309C163.74 617.655 164.022 617.922 164.389 618.11C164.757 618.298 165.184 618.393 165.669 618.395C166.089 618.397 166.469 618.333 166.809 618.204C167.149 618.075 167.453 617.871 167.723 617.592L168.629 618.674C168.282 619.064 167.848 619.366 167.328 619.578C166.818 619.781 166.237 619.881 165.583 619.878ZM175.246 612.264C175.843 612.266 176.372 612.385 176.832 612.62C177.301 612.856 177.663 613.216 177.92 613.703C178.176 614.18 178.294 614.796 178.271 615.552L178.145 619.834L176.395 619.826L176.515 615.768C176.534 615.106 176.39 614.611 176.082 614.283C175.784 613.955 175.355 613.79 174.795 613.787C174.384 613.786 174.018 613.868 173.696 614.035C173.373 614.201 173.118 614.452 172.931 614.787C172.754 615.113 172.657 615.528 172.643 616.032L172.531 619.81L170.781 619.803L171.001 612.33L172.667 612.337L172.608 614.352L172.332 613.735C172.608 613.26 172.996 612.898 173.498 612.648C174.01 612.389 174.593 612.261 175.246 612.264ZM183.54 619.955C182.821 619.952 182.177 619.79 181.608 619.471C181.048 619.142 180.613 618.692 180.303 618.122C179.994 617.551 179.85 616.879 179.873 616.104C179.896 615.33 180.079 614.659 180.422 614.091C180.766 613.524 181.227 613.082 181.805 612.768C182.393 612.453 183.047 612.297 183.765 612.3C184.391 612.303 184.947 612.445 185.433 612.727C185.92 613 186.3 613.416 186.572 613.977C186.845 614.538 186.969 615.257 186.943 616.134C186.917 617.002 186.756 617.72 186.459 618.288C186.163 618.846 185.763 619.264 185.26 619.542C184.757 619.82 184.184 619.957 183.54 619.955ZM183.794 618.458C184.214 618.46 184.59 618.368 184.922 618.183C185.264 617.998 185.538 617.729 185.744 617.375C185.96 617.021 186.075 616.607 186.089 616.131C186.103 615.646 186.013 615.23 185.818 614.884C185.632 614.529 185.374 614.257 185.043 614.069C184.722 613.881 184.352 613.786 183.932 613.784C183.512 613.782 183.131 613.874 182.789 614.059C182.457 614.245 182.183 614.514 181.968 614.868C181.761 615.212 181.651 615.627 181.637 616.112C181.623 616.588 181.709 617.003 181.894 617.359C182.089 617.714 182.347 617.986 182.668 618.174C182.999 618.362 183.374 618.456 183.794 618.458ZM186.021 619.867L186.073 618.104L186.201 616.117L186.12 614.129L186.257 609.483L187.993 609.491L187.687 619.874L186.021 619.867ZM193.501 619.997C192.67 619.994 191.947 619.827 191.332 619.498C190.725 619.159 190.258 618.7 189.93 618.12C189.611 617.541 189.462 616.882 189.484 616.145C189.506 615.399 189.689 614.742 190.032 614.174C190.385 613.597 190.856 613.147 191.444 612.823C192.042 612.498 192.714 612.338 193.461 612.341C194.189 612.344 194.833 612.506 195.393 612.825C195.953 613.145 196.387 613.595 196.697 614.174C197.007 614.754 197.15 615.436 197.127 616.22C197.125 616.294 197.117 616.378 197.105 616.471C197.103 616.565 197.095 616.653 197.084 616.737L190.854 616.711L190.888 615.549L196.194 615.572L195.497 615.933C195.519 615.504 195.442 615.125 195.264 614.798C195.087 614.471 194.838 614.213 194.517 614.025C194.205 613.837 193.839 613.742 193.419 613.741C192.99 613.739 192.609 613.83 192.277 614.016C191.954 614.201 191.695 614.461 191.498 614.796C191.311 615.122 191.211 615.509 191.198 615.956L191.19 616.236C191.176 616.684 191.267 617.081 191.463 617.427C191.658 617.773 191.939 618.04 192.307 618.229C192.675 618.417 193.101 618.512 193.587 618.514C194.007 618.516 194.387 618.452 194.727 618.323C195.066 618.194 195.371 617.99 195.641 617.711L196.547 618.792C196.199 619.183 195.766 619.484 195.246 619.697C194.736 619.9 194.154 620 193.501 619.997ZM202.21 620.034C201.379 620.031 200.656 619.864 200.04 619.535C199.434 619.196 198.967 618.737 198.639 618.157C198.32 617.578 198.171 616.919 198.193 616.182C198.215 615.436 198.398 614.779 198.741 614.211C199.094 613.634 199.565 613.184 200.153 612.86C200.751 612.535 201.423 612.375 202.17 612.378C202.898 612.381 203.542 612.543 204.102 612.862C204.662 613.182 205.096 613.632 205.406 614.211C205.716 614.791 205.859 615.473 205.836 616.257C205.834 616.331 205.826 616.415 205.814 616.508C205.812 616.602 205.804 616.69 205.792 616.774L199.563 616.748L199.597 615.586L204.903 615.609L204.206 615.97C204.228 615.541 204.15 615.162 203.973 614.835C203.796 614.508 203.547 614.25 203.226 614.062C202.914 613.874 202.548 613.779 202.128 613.778C201.699 613.776 201.318 613.867 200.986 614.053C200.663 614.238 200.404 614.498 200.207 614.833C200.02 615.159 199.92 615.546 199.907 615.993L199.899 616.273C199.885 616.721 199.976 617.118 200.171 617.464C200.367 617.81 200.648 618.077 201.016 618.266C201.384 618.454 201.81 618.549 202.296 618.551C202.716 618.553 203.096 618.489 203.435 618.36C203.775 618.231 204.08 618.027 204.35 617.748L205.256 618.829C204.908 619.22 204.475 619.521 203.955 619.734C203.445 619.937 202.863 620.037 202.21 620.034ZM211.277 619.975L211.497 612.502L213.247 612.509L213.027 619.982L211.277 619.975ZM212.415 611.274C212.089 611.273 211.821 611.169 211.613 610.963C211.413 610.757 211.318 610.509 211.326 610.22C211.335 609.921 211.445 609.674 211.656 609.479C211.877 609.275 212.151 609.174 212.477 609.175C212.804 609.176 213.067 609.276 213.267 609.472C213.476 609.66 213.576 609.898 213.568 610.187C213.559 610.495 213.448 610.756 213.237 610.97C213.025 611.174 212.751 611.276 212.415 611.274ZM219.788 612.453C220.386 612.456 220.914 612.575 221.374 612.81C221.843 613.045 222.206 613.406 222.462 613.892C222.719 614.369 222.836 614.985 222.814 615.741L222.688 620.023L220.938 620.016L221.057 615.957C221.077 615.295 220.933 614.8 220.625 614.472C220.327 614.144 219.897 613.979 219.337 613.977C218.927 613.975 218.56 614.057 218.238 614.224C217.916 614.391 217.661 614.641 217.474 614.976C217.296 615.302 217.2 615.717 217.185 616.221L217.074 619.999L215.324 619.992L215.544 612.519L217.21 612.526L217.151 614.541L216.875 613.924C217.15 613.45 217.539 613.087 218.041 612.838C218.553 612.578 219.135 612.45 219.788 612.453ZM232.134 620.161C231.369 620.158 230.692 619.992 230.104 619.663C229.517 619.324 229.059 618.865 228.731 618.285C228.402 617.705 228.249 617.047 228.271 616.31C228.293 615.564 228.485 614.907 228.847 614.339C229.209 613.762 229.694 613.312 230.301 612.988C230.908 612.664 231.594 612.503 232.359 612.506C233.134 612.51 233.815 612.676 234.403 613.005C235 613.334 235.458 613.784 235.777 614.354C236.106 614.925 236.259 615.588 236.237 616.344C236.215 617.081 236.023 617.738 235.661 618.315C235.308 618.892 234.823 619.347 234.206 619.68C233.599 620.004 232.909 620.164 232.134 620.161ZM232.178 618.664C232.607 618.666 232.993 618.574 233.334 618.389C233.676 618.204 233.945 617.934 234.142 617.581C234.349 617.227 234.459 616.812 234.473 616.336C234.487 615.851 234.401 615.436 234.216 615.09C234.039 614.734 233.786 614.463 233.455 614.275C233.125 614.087 232.75 613.992 232.33 613.99C231.9 613.988 231.515 614.08 231.173 614.265C230.841 614.45 230.572 614.72 230.366 615.073C230.159 615.418 230.049 615.832 230.035 616.317C230.021 616.793 230.107 617.209 230.292 617.564C230.478 617.919 230.731 618.191 231.052 618.379C231.383 618.567 231.758 618.662 232.178 618.664ZM237.8 620.087L238.02 612.615L239.686 612.622L239.626 614.679L239.447 614.076C239.686 613.573 240.048 613.192 240.531 612.933C241.024 612.674 241.63 612.546 242.349 612.549L242.3 614.214C242.226 614.195 242.156 614.186 242.091 614.185C242.025 614.176 241.96 614.171 241.895 614.171C241.232 614.168 240.699 614.361 240.296 614.752C239.892 615.132 239.679 615.705 239.657 616.47L239.55 620.095L237.8 620.087ZM246.703 620.223C245.985 620.22 245.341 620.059 244.771 619.739C244.212 619.41 243.777 618.96 243.467 618.39C243.157 617.819 243.014 617.147 243.036 616.373C243.059 615.598 243.242 614.927 243.586 614.36C243.929 613.792 244.39 613.351 244.969 613.036C245.557 612.721 246.21 612.565 246.929 612.568C247.554 612.571 248.11 612.713 248.597 612.995C249.083 613.268 249.463 613.685 249.736 614.246C250.009 614.807 250.132 615.526 250.106 616.403C250.081 617.27 249.92 617.988 249.623 618.556C249.326 619.115 248.927 619.533 248.424 619.811C247.921 620.088 247.347 620.226 246.703 620.223ZM246.957 618.727C247.377 618.728 247.754 618.637 248.086 618.452C248.427 618.266 248.701 617.997 248.908 617.643C249.123 617.29 249.238 616.875 249.252 616.399C249.267 615.914 249.176 615.498 248.981 615.152C248.795 614.797 248.537 614.525 248.207 614.337C247.886 614.149 247.515 614.054 247.095 614.053C246.675 614.051 246.294 614.143 245.953 614.328C245.621 614.513 245.347 614.782 245.131 615.136C244.925 615.48 244.815 615.895 244.8 616.38C244.786 616.856 244.872 617.272 245.058 617.627C245.253 617.982 245.511 618.254 245.832 618.442C246.162 618.63 246.537 618.725 246.957 618.727ZM249.184 620.136L249.236 618.372L249.365 616.386L249.283 614.398L249.42 609.752L251.156 609.759L250.85 620.143L249.184 620.136ZM256.665 620.265C255.834 620.262 255.111 620.096 254.495 619.766C253.889 619.428 253.422 618.969 253.093 618.389C252.775 617.809 252.626 617.151 252.648 616.414C252.67 615.667 252.852 615.01 253.196 614.442C253.549 613.865 254.019 613.415 254.608 613.091C255.205 612.767 255.878 612.606 256.624 612.61C257.352 612.613 257.996 612.774 258.556 613.094C259.116 613.413 259.551 613.863 259.861 614.443C260.17 615.023 260.313 615.704 260.29 616.488C260.288 616.563 260.281 616.647 260.269 616.74C260.266 616.833 260.259 616.922 260.247 617.006L254.017 616.979L254.051 615.818L259.357 615.84L258.661 616.201C258.683 615.772 258.605 615.394 258.428 615.067C258.251 614.739 258.002 614.482 257.681 614.294C257.369 614.106 257.003 614.011 256.583 614.009C256.154 614.007 255.773 614.099 255.441 614.284C255.118 614.469 254.858 614.729 254.662 615.064C254.475 615.39 254.375 615.777 254.361 616.225L254.353 616.505C254.34 616.953 254.431 617.349 254.626 617.696C254.821 618.042 255.103 618.309 255.471 618.497C255.838 618.685 256.265 618.78 256.75 618.782C257.17 618.784 257.55 618.72 257.89 618.591C258.23 618.462 258.535 618.258 258.804 617.979L259.71 619.061C259.363 619.451 258.929 619.753 258.41 619.965C257.9 620.168 257.318 620.268 256.665 620.265ZM261.862 620.19L262.083 612.717L263.749 612.724L263.688 614.781L263.51 614.178C263.749 613.676 264.11 613.295 264.594 613.035C265.087 612.776 265.692 612.648 266.411 612.651L266.362 614.316C266.288 614.297 266.218 614.288 266.153 614.288C266.088 614.278 266.023 614.273 265.957 614.273C265.295 614.27 264.761 614.464 264.358 614.854C263.955 615.235 263.742 615.808 263.719 616.573L263.612 620.197L261.862 620.19ZM274.421 620.341C273.6 620.337 272.972 620.125 272.536 619.703C272.101 619.272 271.895 618.641 271.92 617.811L272.117 611.108L273.867 611.115L273.671 617.776C273.66 618.131 273.741 618.407 273.913 618.603C274.093 618.8 274.347 618.899 274.674 618.9C275.066 618.902 275.396 618.801 275.663 618.597L276.116 619.844C275.906 620.011 275.65 620.136 275.349 620.219C275.048 620.302 274.739 620.342 274.421 620.341ZM270.794 614.209L270.835 612.81L275.819 612.831L275.778 614.231L270.794 614.209ZM280.655 620.367C279.89 620.364 279.213 620.198 278.625 619.869C278.038 619.53 277.58 619.071 277.252 618.491C276.923 617.912 276.77 617.253 276.792 616.516C276.814 615.77 277.006 615.113 277.368 614.545C277.73 613.968 278.215 613.518 278.822 613.194C279.429 612.87 280.115 612.709 280.88 612.713C281.655 612.716 282.336 612.882 282.924 613.211C283.521 613.54 283.979 613.99 284.298 614.561C284.627 615.131 284.78 615.794 284.758 616.55C284.736 617.287 284.544 617.944 284.182 618.521C283.829 619.098 283.344 619.553 282.727 619.886C282.12 620.21 281.43 620.371 280.655 620.367ZM280.699 618.87C281.128 618.872 281.514 618.78 281.855 618.595C282.197 618.41 282.466 618.14 282.663 617.787C282.87 617.433 282.98 617.018 282.994 616.542C283.008 616.057 282.922 615.642 282.737 615.296C282.56 614.94 282.307 614.669 281.977 614.481C281.646 614.293 281.271 614.198 280.851 614.196C280.421 614.194 280.036 614.286 279.695 614.471C279.362 614.656 279.093 614.926 278.887 615.279C278.68 615.624 278.57 616.038 278.556 616.524C278.542 616.999 278.628 617.415 278.813 617.77C278.999 618.126 279.252 618.397 279.573 618.585C279.904 618.773 280.279 618.868 280.699 618.87ZM294.331 620.425C293.697 620.423 293.136 620.28 292.65 619.998C292.163 619.716 291.784 619.295 291.511 618.734C291.248 618.164 291.129 617.445 291.154 616.577C291.18 615.7 291.346 614.982 291.652 614.424C291.967 613.865 292.376 613.452 292.879 613.184C293.391 612.906 293.95 612.768 294.557 612.771C295.294 612.774 295.938 612.935 296.489 613.255C297.049 613.574 297.484 614.019 297.794 614.59C298.113 615.16 298.261 615.833 298.238 616.607C298.215 617.382 298.028 618.053 297.675 618.62C297.331 619.188 296.87 619.634 296.291 619.958C295.722 620.273 295.069 620.429 294.331 620.425ZM290.19 620.31L290.496 609.926L292.246 609.934L292.109 614.58L291.911 616.566L291.908 618.554L291.856 620.317L290.19 620.31ZM294.179 618.927C294.599 618.929 294.976 618.837 295.308 618.652C295.649 618.467 295.923 618.198 296.13 617.844C296.336 617.49 296.446 617.075 296.46 616.6C296.475 616.115 296.389 615.699 296.203 615.353C296.017 614.998 295.759 614.726 295.429 614.538C295.108 614.35 294.737 614.255 294.317 614.253C293.897 614.252 293.516 614.343 293.175 614.528C292.833 614.714 292.56 614.983 292.353 615.337C292.147 615.681 292.037 616.096 292.022 616.581C292.008 617.057 292.094 617.472 292.28 617.828C292.465 618.183 292.723 618.455 293.054 618.643C293.384 618.831 293.759 618.925 294.179 618.927ZM303.299 620.464C302.468 620.46 301.745 620.294 301.129 619.964C300.523 619.626 300.056 619.167 299.728 618.587C299.409 618.007 299.26 617.349 299.282 616.612C299.304 615.865 299.487 615.208 299.83 614.641C300.183 614.064 300.654 613.613 301.242 613.289C301.84 612.965 302.512 612.805 303.259 612.808C303.987 612.811 304.63 612.972 305.19 613.292C305.75 613.611 306.185 614.061 306.495 614.641C306.804 615.221 306.948 615.902 306.925 616.686C306.922 616.761 306.915 616.845 306.903 616.938C306.9 617.031 306.893 617.12 306.881 617.204L300.651 617.177L300.686 616.016L305.992 616.038L305.295 616.399C305.317 615.97 305.239 615.592 305.062 615.265C304.885 614.937 304.636 614.68 304.315 614.492C304.003 614.304 303.637 614.209 303.217 614.207C302.788 614.205 302.407 614.297 302.075 614.482C301.752 614.667 301.493 614.928 301.296 615.263C301.109 615.588 301.009 615.975 300.996 616.423L300.987 616.703C300.974 617.151 301.065 617.548 301.26 617.894C301.456 618.24 301.737 618.507 302.105 618.695C302.473 618.883 302.899 618.978 303.385 618.98C303.805 618.982 304.185 618.918 304.524 618.789C304.864 618.66 305.169 618.456 305.439 618.177L306.345 619.259C305.997 619.649 305.564 619.951 305.044 620.163C304.534 620.366 303.952 620.466 303.299 620.464ZM137.894 636.756C137.11 636.752 136.415 636.586 135.809 636.257C135.212 635.918 134.75 635.459 134.421 634.879C134.093 634.299 133.94 633.641 133.961 632.904C133.983 632.158 134.175 631.501 134.538 630.933C134.9 630.356 135.389 629.906 136.006 629.582C136.631 629.258 137.336 629.098 138.12 629.101C138.848 629.104 139.483 629.256 140.025 629.557C140.576 629.848 140.988 630.279 141.261 630.85L139.894 631.628C139.68 631.272 139.413 631.01 139.091 630.84C138.778 630.671 138.436 630.586 138.062 630.584C137.633 630.582 137.243 630.674 136.892 630.859C136.541 631.044 136.263 631.314 136.056 631.667C135.85 632.012 135.74 632.426 135.725 632.911C135.711 633.397 135.797 633.817 135.982 634.172C136.168 634.518 136.431 634.785 136.771 634.973C137.111 635.161 137.495 635.256 137.924 635.258C138.298 635.26 138.646 635.177 138.968 635.011C139.3 634.844 139.583 634.584 139.817 634.23L141.138 635.02C140.832 635.578 140.395 636.01 139.826 636.316C139.266 636.612 138.622 636.759 137.894 636.756ZM145.85 636.789C145.084 636.786 144.408 636.62 143.82 636.291C143.233 635.952 142.775 635.493 142.447 634.913C142.118 634.334 141.965 633.675 141.987 632.938C142.009 632.192 142.201 631.535 142.563 630.967C142.925 630.39 143.41 629.94 144.017 629.616C144.624 629.292 145.31 629.131 146.075 629.135C146.85 629.138 147.531 629.304 148.119 629.633C148.716 629.962 149.174 630.412 149.493 630.983C149.822 631.553 149.975 632.216 149.953 632.972C149.931 633.709 149.739 634.366 149.376 634.943C149.023 635.52 148.539 635.975 147.922 636.308C147.315 636.632 146.624 636.793 145.85 636.789ZM145.894 635.292C146.323 635.294 146.709 635.202 147.05 635.017C147.392 634.832 147.661 634.562 147.858 634.209C148.064 633.855 148.175 633.44 148.189 632.964C148.203 632.479 148.117 632.064 147.931 631.718C147.755 631.362 147.502 631.091 147.171 630.903C146.841 630.715 146.466 630.62 146.046 630.618C145.616 630.616 145.231 630.708 144.889 630.893C144.557 631.078 144.288 631.348 144.081 631.701C143.875 632.046 143.765 632.46 143.751 632.946C143.737 633.421 143.822 633.837 144.008 634.192C144.194 634.548 144.447 634.819 144.768 635.007C145.099 635.195 145.474 635.29 145.894 635.292ZM155.981 629.177C156.578 629.179 157.106 629.298 157.566 629.533C158.035 629.769 158.398 630.129 158.655 630.616C158.911 631.093 159.028 631.709 159.006 632.465L158.88 636.747L157.13 636.739L157.249 632.681C157.269 632.019 157.125 631.524 156.817 631.196C156.519 630.868 156.09 630.703 155.53 630.7C155.119 630.699 154.753 630.781 154.43 630.948C154.108 631.114 153.853 631.365 153.666 631.7C153.488 632.026 153.392 632.441 153.377 632.944L153.266 636.723L151.516 636.715L151.736 629.243L153.402 629.25L153.343 631.265L153.067 630.648C153.342 630.173 153.731 629.811 154.233 629.561C154.745 629.302 155.327 629.174 155.981 629.177ZM163.407 636.864C162.782 636.861 162.182 636.779 161.608 636.618C161.044 636.448 160.597 636.245 160.268 636.011L160.979 634.684C161.309 634.9 161.705 635.079 162.167 635.221C162.63 635.363 163.094 635.435 163.561 635.437C164.112 635.439 164.511 635.366 164.758 635.218C165.014 635.07 165.146 634.87 165.153 634.618C165.159 634.413 165.08 634.258 164.915 634.155C164.75 634.042 164.533 633.958 164.264 633.9C163.995 633.843 163.694 633.791 163.359 633.743C163.034 633.695 162.704 633.633 162.37 633.557C162.046 633.471 161.751 633.353 161.485 633.203C161.219 633.043 161.005 632.832 160.845 632.57C160.685 632.308 160.611 631.963 160.624 631.534C160.638 631.058 160.785 630.648 161.066 630.304C161.347 629.951 161.733 629.682 162.224 629.497C162.724 629.303 163.311 629.208 163.983 629.211C164.487 629.213 164.994 629.271 165.504 629.385C166.014 629.499 166.434 629.66 166.764 629.866L166.052 631.193C165.704 630.977 165.349 630.831 164.987 630.755C164.635 630.669 164.282 630.626 163.927 630.624C163.395 630.622 162.996 630.699 162.73 630.857C162.473 631.014 162.341 631.214 162.334 631.457C162.328 631.681 162.407 631.849 162.571 631.962C162.736 632.075 162.953 632.164 163.221 632.231C163.49 632.297 163.787 632.354 164.112 632.402C164.447 632.441 164.777 632.503 165.101 632.588C165.425 632.674 165.721 632.792 165.987 632.942C166.263 633.083 166.481 633.285 166.641 633.547C166.801 633.809 166.875 634.149 166.863 634.569C166.849 635.036 166.697 635.441 166.407 635.785C166.126 636.129 165.731 636.398 165.221 636.592C164.712 636.776 164.107 636.867 163.407 636.864ZM168.305 636.787L168.525 629.314L170.275 629.321L170.055 636.794L168.305 636.787ZM169.443 628.086C169.117 628.085 168.849 627.981 168.64 627.775C168.441 627.569 168.346 627.321 168.354 627.032C168.363 626.733 168.473 626.487 168.684 626.292C168.905 626.087 169.179 625.986 169.505 625.987C169.832 625.989 170.095 626.088 170.295 626.284C170.504 626.472 170.604 626.71 170.596 627C170.586 627.307 170.476 627.568 170.264 627.782C170.053 627.986 169.779 628.088 169.443 628.086ZM175.513 636.915C174.794 636.912 174.15 636.751 173.581 636.431C173.021 636.102 172.586 635.653 172.276 635.082C171.967 634.512 171.823 633.839 171.846 633.065C171.869 632.291 172.052 631.62 172.395 631.052C172.739 630.484 173.2 630.043 173.778 629.728C174.366 629.413 175.02 629.258 175.738 629.261C176.364 629.263 176.92 629.406 177.406 629.688C177.893 629.96 178.272 630.377 178.545 630.938C178.818 631.499 178.942 632.218 178.916 633.095C178.89 633.963 178.729 634.68 178.432 635.248C178.136 635.807 177.736 636.225 177.233 636.503C176.73 636.781 176.157 636.918 175.513 636.915ZM175.767 635.419C176.187 635.421 176.563 635.329 176.895 635.144C177.237 634.959 177.511 634.689 177.717 634.336C177.933 633.982 178.048 633.567 178.062 633.091C178.076 632.606 177.986 632.191 177.79 631.845C177.605 631.489 177.347 631.218 177.016 631.03C176.695 630.842 176.325 630.747 175.905 630.745C175.485 630.743 175.104 630.835 174.762 631.02C174.43 631.205 174.156 631.475 173.941 631.828C173.734 632.173 173.624 632.587 173.61 633.072C173.596 633.548 173.682 633.964 173.867 634.319C174.062 634.675 174.32 634.946 174.641 635.134C174.972 635.322 175.347 635.417 175.767 635.419ZM177.994 636.828L178.046 635.065L178.174 633.078L178.093 631.09L178.23 626.444L179.966 626.452L179.66 636.835L177.994 636.828ZM185.474 636.958C184.643 636.954 183.92 636.788 183.304 636.459C182.698 636.12 182.231 635.661 181.903 635.081C181.584 634.501 181.435 633.843 181.457 633.106C181.479 632.359 181.662 631.702 182.005 631.135C182.358 630.558 182.829 630.107 183.417 629.783C184.015 629.459 184.687 629.299 185.434 629.302C186.162 629.305 186.806 629.466 187.366 629.786C187.926 630.106 188.36 630.555 188.67 631.135C188.98 631.715 189.123 632.397 189.1 633.18C189.098 633.255 189.09 633.339 189.078 633.432C189.076 633.525 189.068 633.614 189.056 633.698L182.827 633.671L182.861 632.51L188.167 632.532L187.47 632.893C187.492 632.464 187.414 632.086 187.237 631.759C187.06 631.431 186.811 631.174 186.49 630.986C186.178 630.798 185.812 630.703 185.392 630.701C184.963 630.699 184.582 630.791 184.25 630.976C183.927 631.162 183.668 631.422 183.471 631.757C183.284 632.083 183.184 632.469 183.171 632.917L183.163 633.197C183.149 633.645 183.24 634.042 183.436 634.388C183.631 634.734 183.912 635.001 184.28 635.189C184.648 635.377 185.074 635.472 185.56 635.474C185.98 635.476 186.36 635.413 186.699 635.283C187.039 635.154 187.344 634.95 187.614 634.671L188.52 635.753C188.172 636.143 187.739 636.445 187.219 636.657C186.709 636.86 186.127 636.96 185.474 636.958ZM190.672 636.882L190.892 629.409L192.558 629.416L192.497 631.473L192.319 630.871C192.558 630.368 192.919 629.987 193.403 629.728C193.896 629.468 194.502 629.34 195.221 629.343L195.171 631.009C195.097 630.99 195.028 630.98 194.962 630.98C194.897 630.97 194.832 630.965 194.767 630.965C194.104 630.962 193.571 631.156 193.167 631.546C192.764 631.927 192.551 632.5 192.529 633.265L192.422 636.889L190.672 636.882ZM199.925 637.019C199.094 637.016 198.371 636.849 197.756 636.52C197.149 636.182 196.682 635.722 196.354 635.142C196.035 634.563 195.886 633.904 195.908 633.167C195.93 632.421 196.113 631.764 196.456 631.196C196.809 630.619 197.28 630.169 197.868 629.845C198.466 629.521 199.138 629.36 199.885 629.363C200.613 629.366 201.257 629.528 201.817 629.847C202.377 630.167 202.811 630.617 203.121 631.196C203.431 631.776 203.574 632.458 203.551 633.242C203.549 633.316 203.541 633.4 203.529 633.493C203.527 633.587 203.519 633.675 203.508 633.759L197.278 633.733L197.312 632.571L202.618 632.594L201.921 632.955C201.943 632.526 201.866 632.147 201.688 631.82C201.511 631.493 201.262 631.235 200.941 631.047C200.629 630.859 200.263 630.764 199.843 630.763C199.414 630.761 199.033 630.853 198.701 631.038C198.378 631.223 198.119 631.483 197.922 631.818C197.735 632.144 197.635 632.531 197.622 632.979L197.614 633.258C197.6 633.706 197.691 634.103 197.887 634.449C198.082 634.795 198.363 635.062 198.731 635.251C199.099 635.439 199.525 635.534 200.011 635.536C200.431 635.538 200.811 635.474 201.151 635.345C201.49 635.216 201.795 635.012 202.065 634.733L202.971 635.814C202.623 636.205 202.19 636.506 201.67 636.719C201.16 636.922 200.578 637.022 199.925 637.019ZM208.284 637.055C207.565 637.052 206.921 636.89 206.352 636.571C205.792 636.242 205.358 635.792 205.048 635.221C204.738 634.651 204.594 633.979 204.617 633.204C204.64 632.43 204.823 631.759 205.166 631.191C205.51 630.623 205.971 630.182 206.55 629.867C207.138 629.553 207.791 629.397 208.51 629.4C209.135 629.403 209.691 629.545 210.177 629.827C210.664 630.1 211.044 630.516 211.316 631.077C211.589 631.638 211.713 632.357 211.687 633.234C211.661 634.102 211.5 634.82 211.203 635.388C210.907 635.946 210.507 636.364 210.004 636.642C209.501 636.92 208.928 637.057 208.284 637.055ZM208.538 635.558C208.958 635.56 209.334 635.468 209.666 635.283C210.008 635.098 210.282 634.828 210.488 634.475C210.704 634.121 210.819 633.706 210.833 633.231C210.847 632.745 210.757 632.33 210.562 631.984C210.376 631.628 210.118 631.357 209.788 631.169C209.466 630.981 209.096 630.886 208.676 630.884C208.256 630.882 207.875 630.974 207.534 631.159C207.201 631.344 206.927 631.614 206.712 631.967C206.506 632.312 206.395 632.727 206.381 633.212C206.367 633.687 206.453 634.103 206.638 634.458C206.833 634.814 207.091 635.085 207.412 635.273C207.743 635.461 208.118 635.556 208.538 635.558ZM210.765 636.967L210.817 635.204L210.945 633.217L210.864 631.229L211.001 626.583L212.737 626.591L212.431 636.974L210.765 636.967ZM218.841 637.001L219.074 629.109C219.097 628.325 219.344 627.701 219.815 627.237C220.296 626.763 220.965 626.528 221.824 626.531C222.132 626.533 222.42 626.567 222.689 626.633C222.967 626.7 223.198 626.803 223.38 626.944L222.865 628.257C222.738 628.154 222.591 628.079 222.424 628.031C222.258 627.975 222.086 627.946 221.908 627.945C221.544 627.944 221.266 628.045 221.073 628.25C220.881 628.445 220.779 628.743 220.767 629.144L220.742 629.984L220.775 630.768L220.591 637.009L218.841 637.001ZM217.787 630.979L217.828 629.579L222.812 629.601L222.771 631L217.787 630.979ZM227.019 637.134C226.254 637.131 225.577 636.965 224.989 636.636C224.402 636.297 223.944 635.838 223.616 635.258C223.287 634.678 223.134 634.02 223.156 633.283C223.178 632.537 223.37 631.88 223.732 631.312C224.094 630.735 224.579 630.285 225.186 629.961C225.793 629.637 226.479 629.476 227.244 629.48C228.019 629.483 228.7 629.649 229.288 629.978C229.885 630.307 230.343 630.757 230.662 631.327C230.991 631.898 231.144 632.561 231.122 633.317C231.1 634.054 230.908 634.711 230.546 635.288C230.193 635.865 229.708 636.32 229.091 636.653C228.484 636.977 227.794 637.137 227.019 637.134ZM227.063 635.637C227.492 635.639 227.878 635.547 228.219 635.362C228.561 635.177 228.83 634.907 229.027 634.554C229.234 634.2 229.344 633.785 229.358 633.309C229.372 632.824 229.286 632.409 229.101 632.063C228.924 631.707 228.671 631.436 228.34 631.248C228.01 631.06 227.635 630.965 227.215 630.963C226.785 630.961 226.4 631.053 226.058 631.238C225.726 631.423 225.457 631.693 225.251 632.046C225.044 632.391 224.934 632.805 224.92 633.29C224.906 633.766 224.992 634.182 225.177 634.537C225.363 634.893 225.616 635.164 225.937 635.352C226.268 635.54 226.643 635.635 227.063 635.637ZM232.685 637.06L232.905 629.588L234.571 629.595L234.511 631.652L234.332 631.049C234.571 630.546 234.933 630.165 235.416 629.906C235.909 629.647 236.515 629.519 237.234 629.522L237.185 631.187C237.111 631.168 237.041 631.159 236.976 631.158C236.91 631.149 236.845 631.144 236.78 631.144C236.117 631.141 235.584 631.334 235.181 631.725C234.777 632.105 234.564 632.678 234.542 633.443L234.435 637.068L232.685 637.06ZM247.039 637.121L247.084 635.61L246.995 635.288L247.073 632.643C247.088 632.13 246.946 631.733 246.646 631.451C246.347 631.161 245.884 631.014 245.259 631.012C244.839 631.01 244.422 631.073 244.007 631.202C243.602 631.331 243.256 631.512 242.969 631.744L242.321 630.467C242.731 630.161 243.214 629.935 243.769 629.788C244.333 629.631 244.914 629.555 245.512 629.557C246.594 629.562 247.422 629.827 247.995 630.351C248.577 630.867 248.852 631.666 248.82 632.748L248.691 637.128L247.039 637.121ZM244.684 637.209C244.124 637.207 243.637 637.111 243.222 636.923C242.808 636.725 242.489 636.458 242.266 636.121C242.052 635.775 241.952 635.388 241.964 634.958C241.977 634.539 242.086 634.161 242.292 633.826C242.507 633.491 242.846 633.227 243.309 633.033C243.772 632.839 244.382 632.743 245.138 632.747L247.308 632.756L247.273 633.917L245.23 633.909C244.632 633.906 244.228 634.002 244.017 634.197C243.806 634.383 243.696 634.616 243.688 634.896C243.679 635.213 243.797 635.465 244.044 635.653C244.29 635.841 244.638 635.935 245.086 635.937C245.515 635.939 245.901 635.843 246.242 635.648C246.593 635.454 246.849 635.166 247.01 634.784L247.273 635.835C247.092 636.272 246.779 636.612 246.333 636.852C245.896 637.093 245.347 637.212 244.684 637.209ZM258.947 637.27C258.312 637.267 257.752 637.125 257.265 636.843C256.779 636.561 256.399 636.139 256.127 635.578C255.863 635.008 255.745 634.289 255.77 633.422C255.796 632.545 255.962 631.827 256.268 631.268C256.583 630.71 256.992 630.296 257.494 630.028C258.007 629.75 258.566 629.613 259.173 629.615C259.91 629.618 260.554 629.78 261.105 630.099C261.665 630.419 262.1 630.864 262.409 631.434C262.729 632.005 262.877 632.677 262.854 633.452C262.831 634.226 262.643 634.897 262.291 635.465C261.947 636.032 261.486 636.478 260.907 636.802C260.338 637.117 259.684 637.273 258.947 637.27ZM254.806 637.154L255.112 626.771L256.862 626.778L256.725 631.424L256.527 633.411L256.524 635.398L256.472 637.161L254.806 637.154ZM258.795 635.772C259.215 635.773 259.591 635.682 259.923 635.497C260.265 635.311 260.539 635.042 260.745 634.688C260.952 634.335 261.062 633.92 261.076 633.444C261.09 632.959 261.005 632.543 260.819 632.197C260.633 631.842 260.375 631.57 260.045 631.382C259.724 631.194 259.353 631.099 258.933 631.098C258.513 631.096 258.132 631.188 257.791 631.373C257.449 631.558 257.175 631.827 256.969 632.181C256.763 632.525 256.652 632.94 256.638 633.425C256.624 633.901 256.71 634.317 256.895 634.672C257.081 635.027 257.339 635.299 257.669 635.487C258 635.675 258.375 635.77 258.795 635.772ZM267.565 637.306C266.93 637.304 266.373 637.185 265.895 636.949C265.417 636.705 265.05 636.339 264.793 635.853C264.537 635.358 264.42 634.737 264.442 633.99L264.568 629.722L266.318 629.73L266.199 633.76C266.179 634.431 266.314 634.936 266.602 635.273C266.901 635.601 267.33 635.766 267.89 635.768C268.301 635.77 268.658 635.688 268.961 635.521C269.274 635.354 269.52 635.103 269.698 634.768C269.885 634.433 269.986 634.018 270 633.524L270.112 629.746L271.862 629.753L271.642 637.226L269.976 637.219L270.035 635.204L270.311 635.821C270.044 636.305 269.665 636.676 269.172 636.935C268.679 637.185 268.143 637.309 267.565 637.306ZM276.24 637.343C275.615 637.341 275.015 637.259 274.441 637.098C273.877 636.927 273.43 636.725 273.101 636.49L273.812 635.164C274.142 635.38 274.538 635.559 275 635.701C275.463 635.842 275.927 635.914 276.394 635.916C276.945 635.919 277.343 635.846 277.591 635.698C277.847 635.549 277.979 635.349 277.986 635.097C277.992 634.892 277.913 634.738 277.748 634.635C277.583 634.522 277.366 634.437 277.097 634.38C276.828 634.323 276.526 634.27 276.192 634.222C275.867 634.174 275.537 634.112 275.203 634.036C274.879 633.951 274.584 633.833 274.318 633.682C274.052 633.523 273.838 633.312 273.678 633.05C273.518 632.788 273.444 632.442 273.457 632.013C273.471 631.537 273.618 631.127 273.899 630.783C274.18 630.43 274.566 630.161 275.057 629.977C275.557 629.783 276.143 629.687 276.815 629.69C277.319 629.692 277.826 629.75 278.337 629.865C278.847 629.979 279.267 630.139 279.596 630.346L278.885 631.672C278.537 631.456 278.182 631.31 277.82 631.234C277.468 631.148 277.114 631.105 276.76 631.103C276.228 631.101 275.829 631.179 275.563 631.336C275.306 631.494 275.174 631.694 275.167 631.936C275.16 632.16 275.24 632.329 275.404 632.441C275.569 632.554 275.786 632.644 276.054 632.71C276.323 632.776 276.62 632.834 276.945 632.882C277.28 632.92 277.61 632.982 277.934 633.068C278.258 633.153 278.553 633.271 278.82 633.422C279.096 633.563 279.314 633.764 279.474 634.026C279.634 634.288 279.708 634.629 279.696 635.049C279.682 635.515 279.53 635.92 279.24 636.264C278.959 636.608 278.564 636.877 278.054 637.071C277.545 637.256 276.94 637.346 276.24 637.343ZM287.314 637.39C286.689 637.388 286.089 637.306 285.515 637.145C284.951 636.974 284.504 636.772 284.175 636.537L284.886 635.211C285.216 635.427 285.612 635.606 286.074 635.748C286.537 635.89 287.001 635.961 287.468 635.963C288.019 635.966 288.418 635.893 288.665 635.745C288.921 635.596 289.053 635.396 289.06 635.144C289.066 634.939 288.987 634.785 288.822 634.682C288.657 634.569 288.44 634.484 288.171 634.427C287.902 634.37 287.601 634.317 287.266 634.269C286.941 634.221 286.611 634.159 286.277 634.083C285.953 633.998 285.658 633.88 285.392 633.729C285.126 633.57 284.913 633.359 284.752 633.097C284.592 632.835 284.518 632.489 284.531 632.06C284.545 631.584 284.692 631.174 284.973 630.83C285.254 630.477 285.64 630.208 286.131 630.024C286.631 629.83 287.218 629.734 287.89 629.737C288.394 629.739 288.901 629.797 289.411 629.912C289.921 630.026 290.341 630.186 290.671 630.393L289.959 631.719C289.611 631.503 289.256 631.357 288.894 631.281C288.542 631.196 288.189 631.152 287.834 631.151C287.302 631.148 286.903 631.226 286.637 631.383C286.38 631.541 286.248 631.741 286.241 631.983C286.235 632.207 286.314 632.376 286.478 632.488C286.643 632.601 286.86 632.691 287.129 632.757C287.397 632.823 287.694 632.881 288.02 632.929C288.354 632.968 288.684 633.03 289.008 633.115C289.332 633.2 289.628 633.318 289.894 633.469C290.17 633.61 290.388 633.811 290.548 634.073C290.708 634.335 290.782 634.676 290.77 635.096C290.756 635.562 290.604 635.967 290.314 636.311C290.033 636.655 289.638 636.924 289.128 637.118C288.619 637.303 288.014 637.393 287.314 637.39ZM295.723 637.426C294.892 637.423 294.169 637.256 293.553 636.927C292.947 636.589 292.48 636.129 292.152 635.55C291.833 634.97 291.684 634.311 291.706 633.574C291.728 632.828 291.911 632.171 292.254 631.603C292.607 631.026 293.078 630.576 293.666 630.252C294.264 629.928 294.936 629.767 295.683 629.77C296.411 629.773 297.055 629.935 297.615 630.254C298.175 630.574 298.609 631.024 298.919 631.603C299.229 632.183 299.372 632.865 299.349 633.649C299.347 633.723 299.339 633.807 299.327 633.901C299.325 633.994 299.317 634.082 299.305 634.166L293.076 634.14L293.11 632.978L298.416 633.001L297.719 633.362C297.741 632.933 297.663 632.555 297.486 632.227C297.309 631.9 297.06 631.642 296.739 631.454C296.427 631.266 296.061 631.171 295.641 631.17C295.212 631.168 294.831 631.26 294.499 631.445C294.176 631.63 293.917 631.89 293.72 632.225C293.533 632.551 293.433 632.938 293.42 633.386L293.412 633.665C293.398 634.113 293.489 634.51 293.685 634.856C293.88 635.202 294.161 635.469 294.529 635.658C294.897 635.846 295.323 635.941 295.809 635.943C296.229 635.945 296.609 635.881 296.948 635.752C297.288 635.623 297.593 635.419 297.863 635.14L298.769 636.221C298.421 636.612 297.988 636.913 297.468 637.126C296.958 637.329 296.376 637.429 295.723 637.426ZM305.322 637.369L305.366 635.858L305.278 635.535L305.356 632.89C305.371 632.377 305.228 631.98 304.929 631.699C304.629 631.408 304.167 631.262 303.542 631.259C303.122 631.257 302.704 631.321 302.29 631.45C301.885 631.579 301.539 631.759 301.252 631.991L300.603 630.715C301.014 630.409 301.496 630.182 302.051 630.035C302.616 629.879 303.197 629.802 303.794 629.805C304.877 629.809 305.705 630.074 306.277 630.599C306.86 631.115 307.135 631.914 307.103 632.996L306.974 637.376L305.322 637.369ZM302.967 637.457C302.407 637.455 301.92 637.359 301.505 637.171C301.091 636.973 300.772 636.706 300.549 636.369C300.335 636.023 300.234 635.635 300.247 635.206C300.259 634.786 300.368 634.409 300.574 634.074C300.789 633.739 301.129 633.474 301.592 633.28C302.055 633.086 302.664 632.991 303.42 632.994L305.59 633.003L305.556 634.165L303.512 634.156C302.915 634.154 302.511 634.25 302.3 634.445C302.089 634.631 301.979 634.863 301.971 635.143C301.962 635.461 302.08 635.713 302.327 635.901C302.573 636.088 302.92 636.183 303.368 636.185C303.798 636.187 304.183 636.09 304.525 635.896C304.876 635.702 305.132 635.413 305.293 635.032L305.556 636.082C305.375 636.52 305.061 636.859 304.616 637.1C304.179 637.341 303.63 637.46 302.967 637.457ZM312.031 637.495C311.209 637.492 310.581 637.279 310.145 636.858C309.71 636.427 309.504 635.796 309.529 634.966L309.726 628.262L311.476 628.27L311.28 634.931C311.27 635.286 311.35 635.561 311.522 635.758C311.703 635.954 311.956 636.054 312.283 636.055C312.675 636.057 313.005 635.955 313.272 635.751L313.726 636.999C313.515 637.166 313.26 637.291 312.958 637.373C312.657 637.456 312.348 637.497 312.031 637.495ZM308.403 631.364L308.444 629.964L313.428 629.986L313.387 631.385L308.403 631.364Z" fill="white"/>
<defs>
<linearGradient id="paint0_linear_0_1" x1="231.265" y1="255.754" x2="223.326" y2="198.117" gradientUnits="userSpaceOnUse">
<stop/>
<stop offset="1" stop-opacity="0"/>
</linearGradient>
<linearGradient id="paint1_linear_0_1" x1="231.265" y1="255.754" x2="223.326" y2="198.117" gradientUnits="userSpaceOnUse">
<stop/>
<stop offset="1" stop-opacity="0"/>
</linearGradient>
<linearGradient id="paint2_linear_0_1" x1="231.265" y1="255.754" x2="223.326" y2="198.117" gradientUnits="userSpaceOnUse">
<stop/>
<stop offset="1" stop-opacity="0"/>
</linearGradient>
<linearGradient id="paint3_linear_0_1" x1="231.265" y1="255.754" x2="223.326" y2="198.117" gradientUnits="userSpaceOnUse">
<stop/>
<stop offset="1" stop-opacity="0"/>
</linearGradient>
<linearGradient id="paint4_linear_0_1" x1="231.265" y1="255.754" x2="223.326" y2="198.117" gradientUnits="userSpaceOnUse">
<stop/>
<stop offset="1" stop-opacity="0"/>
</linearGradient>
<linearGradient id="paint5_linear_0_1" x1="231.265" y1="255.754" x2="223.326" y2="198.117" gradientUnits="userSpaceOnUse">
<stop/>
<stop offset="1" stop-opacity="0"/>
</linearGradient>
<linearGradient id="paint6_linear_0_1" x1="231.265" y1="255.754" x2="223.326" y2="198.117" gradientUnits="userSpaceOnUse">
<stop/>
<stop offset="1" stop-opacity="0"/>
</linearGradient>
<linearGradient id="paint7_linear_0_1" x1="231.265" y1="255.754" x2="223.326" y2="198.117" gradientUnits="userSpaceOnUse">
<stop/>
<stop offset="1" stop-opacity="0"/>
</linearGradient>
<linearGradient id="paint8_linear_0_1" x1="231.265" y1="255.754" x2="223.326" y2="198.117" gradientUnits="userSpaceOnUse">
<stop/>
<stop offset="1" stop-opacity="0"/>
</linearGradient>
<linearGradient id="paint9_linear_0_1" x1="231.265" y1="255.754" x2="223.326" y2="198.117" gradientUnits="userSpaceOnUse">
<stop/>
<stop offset="1" stop-opacity="0"/>
</linearGradient>
<linearGradient id="paint10_linear_0_1" x1="231.265" y1="255.754" x2="223.326" y2="198.117" gradientUnits="userSpaceOnUse">
<stop/>
<stop offset="1" stop-opacity="0"/>
</linearGradient>
<linearGradient id="paint11_linear_0_1" x1="230.611" y1="254.584" x2="222.896" y2="197.846" gradientUnits="userSpaceOnUse">
<stop/>
<stop offset="1" stop-opacity="0"/>
</linearGradient>
<linearGradient id="paint12_linear_0_1" x1="231.228" y1="255.71" x2="223.125" y2="197.346" gradientUnits="userSpaceOnUse">
<stop/>
<stop offset="1" stop-opacity="0"/>
</linearGradient>
<linearGradient id="paint13_linear_0_1" x1="231.265" y1="255.754" x2="223.326" y2="198.117" gradientUnits="userSpaceOnUse">
<stop/>
<stop offset="1" stop-opacity="0"/>
</linearGradient>
<linearGradient id="paint14_linear_0_1" x1="231.265" y1="255.754" x2="223.326" y2="198.117" gradientUnits="userSpaceOnUse">
<stop/>
<stop offset="1" stop-opacity="0"/>
</linearGradient>
<linearGradient id="paint15_linear_0_1" x1="229.037" y1="255.75" x2="220.851" y2="196.921" gradientUnits="userSpaceOnUse">
<stop/>
<stop offset="1" stop-opacity="0"/>
</linearGradient>
<linearGradient id="paint16_linear_0_1" x1="231.265" y1="255.754" x2="223.326" y2="198.117" gradientUnits="userSpaceOnUse">
<stop/>
<stop offset="1" stop-opacity="0"/>
</linearGradient>
<linearGradient id="paint17_linear_0_1" x1="231.265" y1="255.754" x2="223.326" y2="198.117" gradientUnits="userSpaceOnUse">
<stop/>
<stop offset="1" stop-opacity="0"/>
</linearGradient>
<linearGradient id="paint18_linear_0_1" x1="231.265" y1="255.754" x2="223.326" y2="198.117" gradientUnits="userSpaceOnUse">
<stop/>
<stop offset="1" stop-opacity="0"/>
</linearGradient>
<linearGradient id="paint19_linear_0_1" x1="231.265" y1="255.754" x2="223.327" y2="198.117" gradientUnits="userSpaceOnUse">
<stop/>
<stop offset="1" stop-opacity="0"/>
</linearGradient>
<linearGradient id="paint20_linear_0_1" x1="231.265" y1="255.754" x2="223.327" y2="198.117" gradientUnits="userSpaceOnUse">
<stop/>
<stop offset="1" stop-opacity="0"/>
</linearGradient>
</defs>
</svg>
