<svg width="1076" height="435" viewBox="0 0 1076 435" fill="none" xmlns="http://www.w3.org/2000/svg">
<path d="M1074.42 145.6H1017.99C1017.33 145.6 1016.8 145.07 1016.8 144.41V57.09C1016.8 55.95 1015.35 55.46 1014.66 56.37L980.86 100.97L948.021 144.3L944.2 149.34C944.04 149.55 943.96 149.8 943.96 150.06V178.76L943.421 178.11H905.401V178.05H863.541C863.321 178.05 863.111 178.11 862.931 178.22L858.47 180.89L842.19 190.64L837.811 193.26C837.341 193.54 836.74 193.47 836.36 193.08L828.041 184.76L822.531 179.25C822.311 179.03 822 178.9 821.69 178.9H769.48C769.16 178.9 768.86 179.03 768.641 179.25L763.13 184.76L760.73 187.16C759.98 187.91 758.7 187.38 758.7 186.32V36.15C758.7 35.01 757.251 34.52 756.561 35.43L722.76 80.03L699.21 111.11C698.67 111.82 697.58 111.71 697.19 110.92L693.811 104.05L688.641 93.54C688.44 93.13 688.03 92.87 687.57 92.87H647.301V92.77H602.85C602.53 92.77 602.23 92.9 602.01 93.12L596.5 98.63L584.441 110.69C583.691 111.44 582.411 110.91 582.411 109.85V93.96C582.411 93.3 581.88 92.77 581.22 92.77H530.49C530.17 92.77 529.87 92.9 529.651 93.12L524.141 98.63L515.331 107.44L509.821 112.95C509.601 113.17 509.47 113.48 509.47 113.79V144.2C509.47 144.86 508.941 145.39 508.281 145.39H498.22C497.56 145.39 497.031 144.86 497.031 144.2V56.88C497.031 55.74 495.581 55.25 494.891 56.16L461.091 100.76L428.251 144.09L424.431 149.13C424.271 149.34 424.191 149.59 424.191 149.85V177.95C424.191 178.6 423.661 179.13 423.011 179.14L409.431 179.25L370.321 179.57H370.181V102.59V44.42C370.181 43.27 368.701 42.79 368.021 43.72L333.961 90.88L301.121 136.35L297.561 141.28C297.411 141.48 297.331 141.73 297.331 141.98V200.52C297.331 201.58 296.051 202.11 295.301 201.36C295.081 201.14 294.771 201.01 294.461 201.01H235.491C235.171 201.01 234.871 201.14 234.651 201.36L229.141 206.87L228.681 207.33C228.221 207.79 227.461 207.79 227.001 207.33L226.761 207.09L202.04 182.37L196.531 176.86C196.311 176.64 196.001 176.51 195.691 176.51H143.48C143.16 176.51 142.861 176.64 142.641 176.86L137.131 182.37L134.451 185.05C133.701 185.8 132.421 185.27 132.421 184.21V146.84C132.421 146.18 131.891 145.65 131.23 145.65H74.8005C74.1405 145.65 73.6105 145.12 73.6105 144.46V57.14C73.6105 56 72.1605 55.51 71.4705 56.42L37.6705 101.02L4.83051 144.35L1.01053 149.39C0.850529 149.6 0.770508 149.85 0.770508 150.11V343.66C0.770508 344.32 1.30051 344.85 1.96051 344.85H58.3905C59.0505 344.85 59.5805 345.38 59.5805 346.04V433.36C59.5805 434.5 61.0305 434.99 61.7205 434.08L95.5205 389.48L128.361 346.15L129.071 345.22C129.301 344.92 129.651 344.75 130.021 344.75H231.431C232.091 344.75 232.621 344.22 232.621 343.56V342.37L234.651 344.4C234.871 344.62 235.181 344.75 235.491 344.75H294.461C294.781 344.75 295.081 344.62 295.301 344.4L297.331 342.37V343.63C297.331 344.29 297.861 344.82 298.521 344.82H361.461L361.491 344.87L372.321 344.82H482.421C482.75 345.03 482.98 345.38 482.98 345.81V433.13C482.98 434.27 484.431 434.76 485.121 433.85L518.921 389.25L551.76 345.92L552.6 344.82H685.44C685.69 345.04 685.85 345.35 685.85 345.7V405.73C685.85 406.87 687.3 407.36 687.99 406.45L721.791 361.85L732.561 347.65C732.791 347.35 733.141 347.18 733.51 347.18H857.431C858.091 347.18 858.62 346.65 858.62 345.99V343.34L859.58 344.47C859.81 344.74 860.141 344.89 860.49 344.89H897.181L917.181 344.92H939.1L939.151 344.89H954.161V344.85H1001.59C1002.25 344.85 1002.78 345.38 1002.78 346.04V433.36C1002.78 434.5 1004.23 434.99 1004.92 434.08L1038.72 389.48L1071.56 346.15L1075.38 341.11C1075.54 340.9 1075.62 340.65 1075.62 340.39V146.84C1075.62 146.18 1075.09 145.65 1074.43 145.65L1074.42 145.6Z" fill="#562411"/>
<path d="M1074.63 110.71H1018.2C1017.54 110.71 1017.01 110.18 1017.01 109.52V22.2C1017.01 21.06 1015.56 20.57 1014.87 21.48L981.07 66.08L948.23 109.41L944.411 114.45C944.251 114.66 944.171 114.91 944.171 115.17V143.87L943.63 143.22H905.61V143.16H863.75C863.531 143.16 863.32 143.22 863.141 143.33L858.681 146L842.401 155.75L838.021 158.37C837.551 158.65 836.95 158.58 836.57 158.19L828.25 149.87L822.74 144.36C822.521 144.14 822.211 144.01 821.901 144.01H769.69C769.37 144.01 769.07 144.14 768.85 144.36L763.34 149.87L760.94 152.27C760.19 153.02 758.911 152.49 758.911 151.43V1.26C758.911 0.120002 757.461 -0.37 756.771 0.54L722.97 45.14L699.421 76.22C698.881 76.93 697.791 76.82 697.401 76.03L694.021 69.16L688.85 58.65C688.65 58.24 688.241 57.98 687.781 57.98H647.51V57.88H603.061C602.741 57.88 602.44 58.01 602.22 58.23L596.71 63.74L584.651 75.8C583.901 76.55 582.62 76.02 582.62 74.96V59.07C582.62 58.41 582.09 57.88 581.43 57.88H530.7C530.38 57.88 530.08 58.01 529.86 58.23L524.35 63.74L515.54 72.55L510.03 78.06C509.81 78.28 509.68 78.59 509.68 78.9V109.31C509.68 109.97 509.15 110.5 508.49 110.5H498.43C497.77 110.5 497.24 109.97 497.24 109.31V21.99C497.24 20.85 495.79 20.36 495.1 21.27L461.3 65.87L428.46 109.2L424.64 114.24C424.48 114.45 424.4 114.7 424.4 114.96V143.06C424.4 143.71 423.87 144.24 423.22 144.25L409.64 144.36L370.53 144.68H370.39V67.7V9.52999C370.39 8.37999 368.91 7.89998 368.23 8.82998L334.17 55.99L301.33 101.46L297.77 106.39C297.62 106.59 297.54 106.84 297.54 107.09V165.63C297.54 166.69 296.26 167.22 295.51 166.47C295.29 166.25 294.98 166.12 294.67 166.12H235.7C235.38 166.12 235.08 166.25 234.86 166.47L229.35 171.98L228.89 172.44C228.43 172.9 227.67 172.9 227.21 172.44L226.97 172.2L202.25 147.48L196.74 141.97C196.52 141.75 196.21 141.62 195.9 141.62H143.69C143.37 141.62 143.07 141.75 142.85 141.97L137.34 147.48L134.66 150.16C133.91 150.91 132.63 150.38 132.63 149.32V111.95C132.63 111.29 132.1 110.76 131.44 110.76H75.0105C74.3505 110.76 73.8205 110.23 73.8205 109.57V22.25C73.8205 21.11 72.3705 20.62 71.6805 21.53L37.8805 66.13L5.04047 109.46L1.22046 114.5C1.06046 114.71 0.980469 114.96 0.980469 115.22V308.77C0.980469 309.43 1.51047 309.96 2.17047 309.96H58.6005C59.2605 309.96 59.7905 310.49 59.7905 311.15V398.47C59.7905 399.61 61.2405 400.1 61.9305 399.19L95.7304 354.59L128.57 311.26L129.28 310.33C129.51 310.03 129.86 309.86 130.23 309.86H231.64C232.3 309.86 232.83 309.33 232.83 308.67V307.48L234.86 309.51C235.08 309.73 235.39 309.86 235.7 309.86H294.67C294.99 309.86 295.29 309.73 295.51 309.51L297.54 307.48V308.74C297.54 309.4 298.07 309.93 298.73 309.93H361.67L361.7 309.98L372.53 309.93H482.63C482.96 310.14 483.19 310.49 483.19 310.92V398.24C483.19 399.38 484.64 399.87 485.33 398.96L519.13 354.36L551.97 311.03L552.81 309.93H685.651C685.901 310.15 686.061 310.46 686.061 310.81V370.84C686.061 371.98 687.51 372.47 688.2 371.56L722 326.96L732.771 312.76C733 312.46 733.35 312.29 733.72 312.29H857.641C858.3 312.29 858.83 311.76 858.83 311.1V308.45L859.791 309.58C860.021 309.85 860.35 310 860.7 310H897.391L917.391 310.03H939.311L939.36 310H954.37V309.96H1001.8C1002.46 309.96 1002.99 310.49 1002.99 311.15V398.47C1002.99 399.61 1004.44 400.1 1005.13 399.19L1038.93 354.59L1071.77 311.26L1075.59 306.22C1075.75 306.01 1075.83 305.76 1075.83 305.5V111.95C1075.83 111.29 1075.3 110.76 1074.64 110.76L1074.63 110.71Z" fill="#753214"/>
<path d="M79.7905 130.71V182.36H53.8205V78.1499L20.9805 121.48V289.9H53.8205V210H79.7905V342.46L112.63 299.13V130.71H79.7905Z" fill="#FBAA1E" stroke="#753214" stroke-width="7.65" stroke-miterlimit="10"/>
<path d="M188.101 161.58H151.481L126.761 186.3V289.8H159.701V239.61H179.891V289.8H212.831V186.3L188.111 161.58H188.101ZM179.881 211.97H159.691V194.52H179.881V211.97Z" fill="#FBAA1E" stroke="#753214" stroke-width="7.65" stroke-miterlimit="10"/>
<path d="M303.421 219.02V202.62L286.881 186.08H243.491L227.021 202.55H226.951V256.86V273.26L243.491 289.8H286.881L303.421 273.26V256.86H259.891V219.02H303.421Z" fill="#FBAA1E" stroke="#753214" stroke-width="7.65" stroke-miterlimit="10"/>
<path d="M411.601 289.7L370.331 226.48L409.791 164.32L370.681 164.64L350.381 196.62V67.6599L317.541 113.13V289.87H350.381V256L372.491 289.87L411.601 289.7Z" fill="#FBAA1E" stroke="#753214" stroke-width="7.65" stroke-miterlimit="10"/>
<path d="M503.19 130.47V198.18L477.22 163.27V77.9199L444.38 121.25V289.67H477.22V209.59L503.19 244.51V342.22L536.03 298.89V130.47H503.19Z" fill="#FBAA1E" stroke="#753214" stroke-width="7.65" stroke-miterlimit="10"/>
<path d="M562.6 77.86H538.47L529.67 86.66V107.08L537.89 115.31H550.25V142.75L562.6 130.4V77.86Z" fill="#FBAA1E" stroke="#753214" stroke-width="7.65" stroke-miterlimit="10"/>
<path d="M659.261 167.26V167.32H627.501V167.26V110.8H692.201L676.061 77.96H627.501V77.86H610.841L594.561 94.14V183.92L610.841 200.2H620.44V200.26H659.261V256.72H594.561L611.281 289.56H659.261V289.61H675.921L675.971 289.56H676.241V289.29L692.201 273.33V183.54L675.921 167.26H659.261Z" fill="#FBAA1E" stroke="#753214" stroke-width="7.65" stroke-miterlimit="10"/>
<path d="M706.061 100.54V103.07V268.95V314.82L738.901 271.49V268.95V103.07V57.21L706.061 100.54Z" fill="#FBAA1E" stroke="#753214" stroke-width="7.65" stroke-miterlimit="10"/>
<path d="M814.101 164H777.481L752.761 188.72V292.22H785.701V242.03H805.891V292.22H838.831V188.72L814.111 164H814.101ZM805.881 214.39H785.691V196.94H805.881V214.39Z" fill="#FBAA1E" stroke="#753214" stroke-width="7.65" stroke-miterlimit="10"/>
<path d="M917.38 211.73H885.61V211.69V191.99H950.31L934.17 163.21H885.61V163.14H868.95L852.67 172.9V226.67L868.95 236.42H878.55V236.45H917.38V262.34H852.67L869.39 289.94H917.38V289.96H934.03L934.08 289.94H934.35V289.77L950.31 280.21V226.44L934.03 211.69L917.38 211.73Z" fill="#FBAA1E" stroke="#753214" stroke-width="7.65" stroke-miterlimit="10"/>
<path d="M1022.98 130.71V182.36H997.01V78.1499L964.17 121.48V289.9H997.01V210H1022.98V342.46L1055.82 299.13V130.71H1022.98Z" fill="#FBAA1E" stroke="#753214" stroke-width="7.65" stroke-miterlimit="10"/>
<path d="M419.75 309.87L425.23 284.45L433.62 309.87H419.75Z" fill="#562411"/>
<path d="M573.86 309.87L578.53 276.46L591.72 311.34L596.9 293.9L604.04 309.87L582.91 319.04L573.86 309.87Z" fill="#562411"/>
<path d="M409.621 144.32L411.601 155.81L414.751 144.28L419.441 163.89L422.131 144.22L409.621 144.32Z" fill="#562411"/>
<path d="M159.69 309.8L169.79 284.45L183.44 303.26L190.29 296.11L197.44 311L159.69 309.8Z" fill="#562411"/>
</svg>
