<svg width="71" height="67" viewBox="0 0 71 67" fill="none" xmlns="http://www.w3.org/2000/svg">
    <ellipse cx="35.0771" cy="33.5" rx="35.0771" ry="33.5" fill="#B73C94"/>
    <g clip-path="url(#clip0_0_1)">
    <path d="M51.9143 33.4999C51.9143 24.6192 44.3761 17.4199 35.0773 17.4199C25.7784 17.4199 18.2402 24.6192 18.2402 33.4999C18.2402 41.5258 24.3973 48.1783 32.4465 49.3846V38.148H28.1715V33.4999H32.4465V29.9573C32.4465 25.9272 34.9602 23.7012 38.8061 23.7012C40.6476 23.7012 42.575 24.0152 42.575 24.0152V27.9724H40.452C38.3605 27.9724 37.708 29.212 37.708 30.4849V33.4999H42.3777L41.6312 38.148H37.708V49.3846C45.7573 48.1783 51.9143 41.5258 51.9143 33.4999Z" fill="white"/>
    </g>
    <defs>
    <clipPath id="clip0_0_1">
    <rect width="33.6741" height="32.16" fill="white" transform="translate(18.2402 17.4199)"/>
    </clipPath>
    </defs>
    </svg>
    