<svg width="71" height="67" viewBox="0 0 71 67" fill="none" xmlns="http://www.w3.org/2000/svg">
    <ellipse cx="35.0771" cy="33.5" rx="35.0771" ry="33.5" fill="#B73C94"/>
    <g clip-path="url(#clip0_0_1)">
    <path fill-rule="evenodd" clip-rule="evenodd" d="M35.0776 18.0898C31.0805 18.0918 27.2145 19.4439 24.1709 21.9042C21.1272 24.3645 19.1044 27.7727 18.4641 31.5193C17.8237 35.2659 18.6077 39.1067 20.6758 42.3548C22.7438 45.6029 25.9612 48.0466 29.7524 49.2488C30.5888 49.3971 30.9039 48.902 30.9039 48.481C30.9039 48.0601 30.8872 46.8396 30.8816 45.5052C26.1977 46.4716 25.2079 43.6175 25.2079 43.6175C24.444 41.7642 23.3399 41.2771 23.3399 41.2771C21.8121 40.2869 23.4542 40.3054 23.4542 40.3054C25.1466 40.4193 26.036 41.9548 26.036 41.9548C27.5359 44.3985 29.9755 43.6916 30.9345 43.2786C31.0851 42.2434 31.5228 41.5392 32.0052 41.1394C28.2636 40.737 24.3325 39.3655 24.3325 33.2391C24.3093 31.6503 24.9301 30.1137 26.0666 28.9474C25.8938 28.545 25.3166 26.9194 26.2311 24.7114C26.2311 24.7114 27.6447 24.2825 30.8621 26.3502C33.6218 25.6335 36.5334 25.6335 39.2931 26.3502C42.5077 24.2825 43.9185 24.7114 43.9185 24.7114C44.8358 26.9141 44.2586 28.5397 44.0858 28.9474C45.2259 30.1139 45.848 31.6531 45.8227 33.2444C45.8227 39.3841 41.8832 40.737 38.1361 41.1315C38.7383 41.6292 39.2764 42.6008 39.2764 44.0941C39.2764 46.2333 39.2569 47.9542 39.2569 48.481C39.2569 48.9073 39.5608 49.405 40.4139 49.2488C44.2056 48.0464 47.4233 45.6023 49.4913 42.3537C51.5593 39.105 52.3429 35.2637 51.7018 31.5167C51.0608 27.7697 49.037 24.3615 45.9923 21.9016C42.9476 19.4417 39.0807 18.0906 35.0832 18.0898H35.0776Z" fill="white"/>
    <path d="M24.6164 41.0468C24.5802 41.1263 24.4464 41.1501 24.3376 41.0945C24.2289 41.0389 24.148 40.9356 24.1871 40.8536C24.2261 40.7715 24.3572 40.7503 24.4659 40.8059C24.5746 40.8615 24.6583 40.9674 24.6164 41.0468Z" fill="white"/>
    <path d="M25.2995 41.7696C25.2418 41.7972 25.1757 41.805 25.1127 41.7914C25.0496 41.7779 24.9935 41.744 24.9538 41.6955C24.8451 41.5843 24.8228 41.4307 24.9064 41.3619C24.9901 41.2931 25.1406 41.3248 25.2494 41.436C25.3581 41.5472 25.3832 41.7008 25.2995 41.7696Z" fill="white"/>
    <path d="M25.9631 42.6884C25.86 42.7572 25.6843 42.6884 25.5867 42.5507C25.5598 42.526 25.5383 42.4964 25.5236 42.4637C25.509 42.4309 25.5014 42.3957 25.5014 42.3601C25.5014 42.3245 25.509 42.2893 25.5236 42.2565C25.5383 42.2238 25.5598 42.1942 25.5867 42.1695C25.6899 42.1033 25.8656 42.1695 25.9631 42.3045C26.0607 42.4395 26.0635 42.6195 25.9631 42.6884V42.6884Z" fill="white"/>
    <path d="M26.8636 43.578C26.7716 43.6759 26.5848 43.6495 26.4315 43.5171C26.2782 43.3847 26.2419 43.2047 26.3339 43.1094C26.4259 43.014 26.6127 43.0405 26.7716 43.1702C26.9305 43.3 26.9612 43.4827 26.8636 43.578V43.578Z" fill="white"/>
    <path d="M28.1266 44.0966C28.0848 44.221 27.8952 44.2766 27.7056 44.2236C27.516 44.1707 27.3905 44.0224 27.4268 43.8953C27.463 43.7683 27.6554 43.71 27.8478 43.7683C28.0402 43.8265 28.1628 43.9668 28.1266 44.0966Z" fill="white"/>
    <path d="M29.5039 44.1866C29.5039 44.3164 29.3478 44.4276 29.1471 44.4302C28.9463 44.4329 28.7818 44.327 28.7818 44.1972C28.7818 44.0675 28.938 43.9563 29.1387 43.9537C29.3394 43.951 29.5039 44.0543 29.5039 44.1866Z" fill="white"/>
    <path d="M30.7864 43.9831C30.8115 44.1128 30.6721 44.2478 30.4714 44.2796C30.2707 44.3114 30.095 44.2346 30.0699 44.1075C30.0448 43.9804 30.1898 43.8427 30.385 43.8083C30.5801 43.7739 30.7614 43.8533 30.7864 43.9831Z" fill="white"/>
    </g>
    <defs>
    <clipPath id="clip0_0_1">
    <rect width="33.6741" height="32.16" fill="white" transform="translate(18.2402 17.4199)"/>
    </clipPath>
    </defs>
    </svg>
    