<svg width="71" height="67" viewBox="0 0 71 67" fill="none" xmlns="http://www.w3.org/2000/svg">
    <ellipse cx="35.3526" cy="33.5" rx="35.0771" ry="33.5" fill="#B73C94"/>
    <g clip-path="url(#clip0_0_1)">
    <path d="M35.3528 20.3156C39.8514 20.3156 40.3842 20.3344 42.1534 20.4098C43.7976 20.4789 44.6855 20.7427 45.2774 20.9625C46.0601 21.2515 46.6257 21.6032 47.211 22.1623C47.803 22.7276 48.1647 23.2615 48.4672 24.009C48.6974 24.5743 48.9737 25.4285 49.046 26.9925C49.1249 28.6885 49.1447 29.1973 49.1447 33.4874C49.1447 37.7837 49.1249 38.2925 49.046 39.9822C48.9737 41.5525 48.6974 42.4005 48.4672 42.9658C48.1647 43.7132 47.7964 44.2534 47.211 44.8125C46.6191 45.3778 46.0601 45.7232 45.2774 46.0122C44.6855 46.232 43.791 46.4958 42.1534 46.5649C40.3776 46.6403 39.8448 46.6591 35.3528 46.6591C30.8541 46.6591 30.3214 46.6403 28.5522 46.5649C26.908 46.4958 26.0201 46.232 25.4281 46.0122C24.6455 45.7232 24.0799 45.3715 23.4945 44.8125C22.9026 44.2471 22.5408 43.7132 22.2383 42.9658C22.0081 42.4005 21.7319 41.5462 21.6595 39.9822C21.5806 38.2862 21.5609 37.7775 21.5609 33.4874C21.5609 29.191 21.5806 28.6822 21.6595 26.9925C21.7319 25.4222 22.0081 24.5743 22.2383 24.009C22.5408 23.2615 22.9092 22.7213 23.4945 22.1623C24.0864 21.597 24.6455 21.2515 25.4281 20.9625C26.0201 20.7427 26.9145 20.4789 28.5522 20.4098C30.3214 20.3344 30.8541 20.3156 35.3528 20.3156ZM35.3528 17.4199C30.7818 17.4199 30.2096 17.4388 28.4141 17.5141C26.6251 17.5895 25.3953 17.8659 24.3298 18.2616C23.2183 18.6762 22.2778 19.2226 21.3438 20.1209C20.4033 21.0128 19.8311 21.911 19.3971 22.9663C18.9827 23.9901 18.6933 25.1584 18.6144 26.8669C18.5355 28.588 18.5157 29.1345 18.5157 33.4999C18.5157 37.8654 18.5355 38.4119 18.6144 40.1266C18.6933 41.8351 18.9827 43.0097 19.3971 44.0273C19.8311 45.0888 20.4033 45.9871 21.3438 46.879C22.2778 47.7709 23.2183 48.3237 24.3232 48.732C25.3953 49.1277 26.6186 49.404 28.4075 49.4794C30.203 49.5548 30.7752 49.5736 35.3462 49.5736C39.9172 49.5736 40.4894 49.5548 42.2849 49.4794C44.0738 49.404 45.3037 49.1277 46.3692 48.732C47.4741 48.3237 48.4146 47.7709 49.3486 46.879C50.2825 45.9871 50.8613 45.0888 51.2888 44.0336C51.7031 43.0097 51.9925 41.8414 52.0714 40.1329C52.1503 38.4181 52.1701 37.8717 52.1701 33.5062C52.1701 29.1407 52.1503 28.5943 52.0714 26.8795C51.9925 25.171 51.7031 23.9964 51.2888 22.9788C50.8744 21.911 50.3022 21.0128 49.3617 20.1209C48.4278 19.2289 47.4873 18.6762 46.3823 18.2679C45.3103 17.8722 44.087 17.5958 42.2981 17.5204C40.496 17.4388 39.9238 17.4199 35.3528 17.4199Z" fill="white"/>
    <path d="M35.3528 25.2402C30.5779 25.2402 26.7041 28.9399 26.7041 33.5001C26.7041 38.0603 30.5779 41.7599 35.3528 41.7599C40.1277 41.7599 44.0015 38.0603 44.0015 33.5001C44.0015 28.9399 40.1277 25.2402 35.3528 25.2402ZM35.3528 38.858C32.255 38.858 29.7426 36.4585 29.7426 33.5001C29.7426 30.5416 32.255 28.1422 35.3528 28.1422C38.4505 28.1422 40.9629 30.5416 40.9629 33.5001C40.9629 36.4585 38.4505 38.858 35.3528 38.858Z" fill="white"/>
    <path d="M46.3626 24.9132C46.3626 25.981 45.455 26.8416 44.3435 26.8416C43.2254 26.8416 42.3244 25.9747 42.3244 24.9132C42.3244 23.8454 43.232 22.9849 44.3435 22.9849C45.455 22.9849 46.3626 23.8517 46.3626 24.9132Z" fill="white"/>
    </g>
    <defs>
    <clipPath id="clip0_0_1">
    <rect width="33.6741" height="32.16" fill="white" transform="translate(18.5157 17.4199)"/>
    </clipPath>
    </defs>
    </svg>
    