<svg width="71" height="67" viewBox="0 0 71 67" fill="none" xmlns="http://www.w3.org/2000/svg">
    <ellipse cx="35.9036" cy="33.5" rx="35.0771" ry="33.5" fill="#B73C94"/>
    <g clip-path="url(#clip0_0_1)">
    <path d="M50.2481 17.4199H21.5528C20.1782 17.4199 19.0667 18.4563 19.0667 19.7377V47.2559C19.0667 48.5372 20.1782 49.5799 21.5528 49.5799H50.2481C51.6227 49.5799 52.7407 48.5372 52.7407 47.2621V19.7377C52.7407 18.4563 51.6227 17.4199 50.2481 17.4199ZM29.0571 44.825H24.0586V29.4736H29.0571V44.825ZM26.5578 27.382C24.9531 27.382 23.6574 26.1446 23.6574 24.6182C23.6574 23.0919 24.9531 21.8545 26.5578 21.8545C28.156 21.8545 29.4517 23.0919 29.4517 24.6182C29.4517 26.1383 28.156 27.382 26.5578 27.382ZM47.762 44.825H42.7701V37.3629C42.7701 35.5853 42.7372 33.2926 40.1722 33.2926C37.5743 33.2926 37.1796 35.2335 37.1796 37.2373V44.825H32.1943V29.4736H36.9823V31.5716H37.0481C37.7124 30.3656 39.3435 29.0905 41.7704 29.0905C46.828 29.0905 47.762 32.2688 47.762 36.4019V44.825V44.825Z" fill="white"/>
    </g>
    <defs>
    <clipPath id="clip0_0_1">
    <rect width="33.6741" height="32.16" fill="white" transform="translate(19.0667 17.4199)"/>
    </clipPath>
    </defs>
    </svg>
    