<svg width="71" height="67" viewBox="0 0 71 67" fill="none" xmlns="http://www.w3.org/2000/svg">
    <ellipse cx="35.6281" cy="33.5" rx="35.0771" ry="33.5" fill="#B73C94"/>
    <g clip-path="url(#clip0_0_1)">
    <path d="M29.3847 46.565C42.0888 46.565 49.0393 36.5106 49.0393 27.7942C49.0393 27.5115 49.0328 27.2226 49.0196 26.9399C50.3717 26.0061 51.5385 24.8494 52.4653 23.5242C51.206 24.0592 49.8691 24.4087 48.5 24.5606C49.9415 23.7354 51.0209 22.439 51.5379 20.9118C50.1818 21.6793 48.6988 22.2208 47.1524 22.5129C46.1105 21.4556 44.7329 20.7555 43.2325 20.5209C41.7322 20.2863 40.1928 20.5303 38.8522 21.2151C37.5116 21.8999 36.4446 22.9874 35.8161 24.3094C35.1875 25.6315 35.0325 27.1144 35.375 28.5291C32.6292 28.3975 29.9429 27.7162 27.4903 26.5295C25.0378 25.3428 22.8738 23.6771 21.1385 21.6404C20.2566 23.0926 19.9867 24.811 20.3838 26.4464C20.7808 28.0818 21.815 29.5115 23.2761 30.4448C22.1792 30.4116 21.1063 30.1295 20.1461 29.622V29.7037C20.1451 31.2276 20.6968 32.7049 21.7073 33.8843C22.7178 35.0638 24.1248 35.8726 25.6891 36.1733C24.673 36.4389 23.6066 36.4775 22.5723 36.2864C23.0138 37.597 23.8726 38.7433 25.029 39.5654C26.1854 40.3874 27.5817 40.8441 29.023 40.8717C26.5761 42.7074 23.5535 43.703 20.442 43.6983C19.8902 43.6975 19.339 43.6652 18.7912 43.6016C21.9522 45.5383 25.6292 46.5669 29.3847 46.565Z" fill="white"/>
    </g>
    <defs>
    <clipPath id="clip0_0_1">
    <rect width="33.6741" height="32.16" fill="white" transform="translate(18.7912 17.4199)"/>
    </clipPath>
    </defs>
    </svg>
    