<svg width="1901" height="1676" viewBox="0 0 1901 1676" fill="none" xmlns="http://www.w3.org/2000/svg">
<path fill-rule="evenodd" clip-rule="evenodd" d="M1706.85 266.147L1732.2 292.247L1717.2 229.847C1730.1 176.897 1733.7 122.147 1728 68.1467C1737 76.6967 1747.95 88.2468 1752.6 96.3468C1746.9 82.8468 1735.2 58.5467 1725.45 47.4467C1723.2 32.7467 1720.35 18.1969 1716.75 3.79688L1716 0.796875L1720.35 3.94666C1774.2 41.7467 1813.05 95.1467 1833.15 155.147C1831.35 173.297 1827.3 196.247 1819.5 210.497C1825.05 207.347 1834.5 197.597 1840.2 179.897C1849.5 218.147 1851.3 258.347 1844.85 298.547L1833 372.797C1826.4 381.647 1818.75 390.797 1811.55 396.647C1815.75 396.497 1822.95 395.597 1829.85 392.897L1828.95 398.597C1816.95 473.747 1756.2 531.497 1680.6 539.747C1655.85 497.747 1649.4 447.647 1662.45 400.997L1690.05 453.947L1669.05 379.997L1706.85 266.147Z" fill="#A61E00"/>
<path d="M1400.85 484.848L1416 406.098L1872.75 493.548L1844.55 640.398L1830.75 645.197L1841.4 654.197L1828.2 658.848L1839.15 668.447L1818 779.298L1807.65 782.898L1815.9 790.098L1786.35 944.447L1779.6 946.848L1784.55 951.048L1779.9 952.697L1784.1 956.298L1753.95 1114.1L1465.95 1059.05L1461.75 1046.75L1453.35 1056.35L1449.9 1046.45L1442.85 1054.55L1297.2 1026.65L1398.6 497.298L1410.45 493.098L1400.85 484.848Z" fill="#D3BDAB"/>
<path d="M1871.55 817.547H1769.4V1203.95H1871.55V817.547Z" fill="#FFB23E"/>
<path d="M156 678.947H53.8499V1065.35H156V678.947Z" fill="#FFB23E"/>
<path d="M500.7 1038.19L485.55 959.443L28.95 1046.89L57 1193.59L70.7999 1198.39L60.3 1207.54L73.5 1212.19L62.3999 1221.79L83.5499 1332.49L94.0499 1336.24L85.6499 1343.29L115.2 1497.79L122.1 1500.04L117.15 1504.39L121.8 1506.04L117.45 1509.64L147.75 1667.44L435.6 1612.39L439.8 1600.09L448.2 1609.69L451.65 1599.79L458.7 1607.89L604.5 1579.99L503.1 1050.64L491.1 1046.44L500.7 1038.19Z" fill="#D3BDAB"/>
<path d="M1847.1 458.9H72.9001V1627.85H1847.1V458.9Z" fill="#872C8B"/>
<path d="M1803.45 503.148H116.7V1583.45H1803.45V503.148Z" fill="#FFFACC"/>
<path d="M970.05 503.148H949.8V1583.45H970.05V503.148Z" fill="#F5EA83"/>
<path d="M1310.7 448.099L1273.2 439.099L1244.55 464.749L1241.55 426.499L1208.25 407.149L1243.8 392.449L1251.9 354.799L1276.95 384.049L1315.2 380.149L1294.95 412.999L1310.7 448.099Z" fill="#FBCCFF"/>
<path d="M1383.15 437.301L1362 435.5L1343.25 445.4L1345.05 424.25L1335.15 405.35L1356.3 407.301L1375.2 397.4L1373.25 418.551L1383.15 437.301Z" fill="#FBCCFF"/>
<path d="M1333.95 515.149L1328.25 499.699L1315.2 489.949L1330.5 484.249L1340.4 471.049L1346.1 486.499L1359.15 496.249L1343.85 501.949L1333.95 515.149Z" fill="#FBCCFF"/>
<path d="M77.85 838.698L40.35 829.698L11.85 855.348L8.85005 817.099L-24.45 797.748L11.1 783.049L19.05 745.398L44.1 774.648L82.35 770.748L62.25 803.448L77.85 838.698Z" fill="#FBCCFF"/>
<path d="M56.8498 927.645L41.9998 912.494L21.2998 907.694L36.4498 892.845L41.2498 872.145L56.0998 887.295L76.6498 892.095L61.4998 906.944L56.8498 927.645Z" fill="#FBCCFF"/>
<path d="M120.75 761.448L112.2 752.598L100.2 749.898L108.9 741.348L111.75 729.498L120.3 738.198L132.15 740.898L123.45 749.448L120.75 761.448Z" fill="#FBCCFF"/>
<path d="M1896 1569.8L1858.65 1560.8L1830 1586.45L1827 1548.05L1793.7 1528.85L1829.25 1514.15L1837.35 1476.5L1862.25 1505.75L1900.5 1501.85L1880.4 1534.55L1896 1569.8Z" fill="#FBCCFF"/>
<path d="M1885.2 1641.05L1864.05 1639.1L1845.3 1649L1847.1 1627.85L1837.35 1609.1L1858.35 1610.9L1877.25 1601L1875.3 1622.15L1885.2 1641.05Z" fill="#FBCCFF"/>
<path d="M1763.85 1670.15L1749.6 1668.95L1736.85 1675.55L1738.2 1661.3L1731.45 1648.55L1745.85 1649.75L1758.45 1643.15L1757.25 1657.4L1763.85 1670.15Z" fill="#FBCCFF"/>
<path d="M207.15 1643.75L192 1628.9L171.15 1624.55L186 1609.4L190.35 1588.55L205.5 1603.4L226.35 1607.75L211.5 1622.9L207.15 1643.75Z" fill="#FBCCFF"/>
<path d="M274.95 1649.9L261.45 1655L252.9 1666.4L247.8 1652.9L236.4 1644.2L249.9 1639.25L258.6 1627.85L263.55 1641.35L274.95 1649.9Z" fill="#FBCCFF"/>
<path d="M1886.25 576.949L1869.75 590.149L1862.85 610.249L1849.65 593.749L1829.55 586.849L1846.2 573.649L1852.95 553.549L1866.15 570.199L1886.25 576.949Z" fill="#FBCCFF"/>
<path d="M1869.45 668.149L1863.75 652.849L1850.7 642.949L1866 637.249L1875.9 624.049L1881.6 639.499L1894.65 649.249L1879.35 655.099L1869.45 668.149Z" fill="#FBCCFF"/>
<path d="M647.4 409.85H414.15V503.3H647.4V409.85Z" fill="#C9345A"/>
<path d="M917.4 409.85H684.15V503.3H917.4V409.85Z" fill="#3C7C31"/>
<path d="M377.55 409.85H144.3V503.3H377.55V409.85Z" fill="#DD5740"/>
</svg>
