<svg width="1892" height="1676" viewBox="0 0 1892 1676" fill="none" xmlns="http://www.w3.org/2000/svg">
<path fill-rule="evenodd" clip-rule="evenodd" d="M1697.85 266.147L1723.2 292.247L1708.2 229.847C1721.1 176.897 1724.7 122.147 1719 68.1467C1728 76.6967 1738.95 88.2468 1743.6 96.3468C1737.9 82.8468 1726.2 58.5467 1716.45 47.4467C1714.2 32.7467 1711.35 18.1969 1707.75 3.79688L1707 0.796875L1711.35 3.94666C1765.2 41.7467 1804.05 95.1467 1824.15 155.147C1822.35 173.297 1818.3 196.247 1810.5 210.497C1816.05 207.347 1825.5 197.597 1831.2 179.897C1840.5 218.147 1842.3 258.347 1835.85 298.547L1824 372.797C1817.4 381.647 1809.75 390.797 1802.55 396.647C1806.75 396.497 1813.95 395.597 1820.85 392.897L1819.95 398.597C1807.95 473.747 1747.2 531.497 1671.6 539.747C1646.85 497.747 1640.4 447.647 1653.45 400.997L1681.05 453.947L1660.05 379.997L1697.85 266.147Z" fill="#A61E00"/>
<path d="M1391.85 484.848L1407 406.098L1863.75 493.548L1835.55 640.398L1821.75 645.197L1832.4 654.197L1819.2 658.848L1830.15 668.447L1809 779.298L1798.65 782.898L1806.9 790.098L1777.35 944.447L1770.6 946.848L1775.55 951.048L1770.9 952.697L1775.1 956.298L1744.95 1114.1L1456.95 1059.05L1452.75 1046.75L1444.35 1056.35L1440.9 1046.45L1433.85 1054.55L1288.2 1026.65L1389.6 497.298L1401.45 493.098L1391.85 484.848Z" fill="#D3BDAB"/>
<path d="M1862.55 817.547H1760.4V1203.95H1862.55V817.547Z" fill="#FFB23E"/>
<path d="M147 678.947H44.8499V1065.35H147V678.947Z" fill="#FFB23E"/>
<path d="M491.7 1038.19L476.55 959.443L19.95 1046.89L48 1193.59L61.7999 1198.39L51.3 1207.54L64.5 1212.19L53.3999 1221.79L74.5499 1332.49L85.0499 1336.24L76.6499 1343.29L106.2 1497.79L113.1 1500.04L108.15 1504.39L112.8 1506.04L108.45 1509.64L138.75 1667.44L426.6 1612.39L430.8 1600.09L439.2 1609.69L442.65 1599.79L449.7 1607.89L595.5 1579.99L494.1 1050.64L482.1 1046.44L491.7 1038.19Z" fill="#D3BDAB"/>
<path d="M1838.1 458.9H63.9001V1627.85H1838.1V458.9Z" fill="#872C8B"/>
<path d="M1794.45 503.148H107.7V1583.45H1794.45V503.148Z" fill="#FFFACC"/>
<path d="M961.05 503.148H940.8V1583.45H961.05V503.148Z" fill="#F5EA83"/>
<path d="M1301.7 448.099L1264.2 439.099L1235.55 464.749L1232.55 426.499L1199.25 407.149L1234.8 392.449L1242.9 354.799L1267.95 384.049L1306.2 380.149L1285.95 412.999L1301.7 448.099Z" fill="#FBCCFF"/>
<path d="M1374.15 437.301L1353 435.5L1334.25 445.4L1336.05 424.25L1326.15 405.35L1347.3 407.301L1366.2 397.4L1364.25 418.551L1374.15 437.301Z" fill="#FBCCFF"/>
<path d="M1324.95 515.149L1319.25 499.699L1306.2 489.949L1321.5 484.249L1331.4 471.049L1337.1 486.499L1350.15 496.249L1334.85 501.949L1324.95 515.149Z" fill="#FBCCFF"/>
<path d="M102.3 843.3L64.8 834.3L36.3 859.95L33.3 821.7L0 802.35L35.55 787.65L43.5 750L68.55 779.25L106.8 775.35L86.7 808.05L102.3 843.3Z" fill="#FBCCFF"/>
<path d="M47.8498 927.645L32.9998 912.494L12.2998 907.694L27.4498 892.845L32.2498 872.145L47.0998 887.295L67.6498 892.095L52.4998 906.944L47.8498 927.645Z" fill="#FBCCFF"/>
<path d="M111.75 761.448L103.2 752.598L91.2 749.898L99.8999 741.348L102.75 729.498L111.3 738.198L123.15 740.898L114.45 749.448L111.75 761.448Z" fill="#FBCCFF"/>
<path d="M1887 1569.8L1849.65 1560.8L1821 1586.45L1818 1548.05L1784.7 1528.85L1820.25 1514.15L1828.35 1476.5L1853.25 1505.75L1891.5 1501.85L1871.4 1534.55L1887 1569.8Z" fill="#FBCCFF"/>
<path d="M1876.2 1641.05L1855.05 1639.1L1836.3 1649L1838.1 1627.85L1828.35 1609.1L1849.35 1610.9L1868.25 1601L1866.3 1622.15L1876.2 1641.05Z" fill="#FBCCFF"/>
<path d="M1754.85 1670.15L1740.6 1668.95L1727.85 1675.55L1729.2 1661.3L1722.45 1648.55L1736.85 1649.75L1749.45 1643.15L1748.25 1657.4L1754.85 1670.15Z" fill="#FBCCFF"/>
<path d="M198.15 1643.75L183 1628.9L162.15 1624.55L177 1609.4L181.35 1588.55L196.5 1603.4L217.35 1607.75L202.5 1622.9L198.15 1643.75Z" fill="#FBCCFF"/>
<path d="M265.95 1649.9L252.45 1655L243.9 1666.4L238.8 1652.9L227.4 1644.2L240.9 1639.25L249.6 1627.85L254.55 1641.35L265.95 1649.9Z" fill="#FBCCFF"/>
<path d="M1877.25 576.949L1860.75 590.149L1853.85 610.249L1840.65 593.749L1820.55 586.849L1837.2 573.649L1843.95 553.549L1857.15 570.199L1877.25 576.949Z" fill="#FBCCFF"/>
<path d="M1860.45 668.149L1854.75 652.849L1841.7 642.949L1857 637.249L1866.9 624.049L1872.6 639.499L1885.65 649.249L1870.35 655.099L1860.45 668.149Z" fill="#FBCCFF"/>
</svg>
