<svg width="1892" height="1322" viewBox="0 0 1892 1322" fill="none" xmlns="http://www.w3.org/2000/svg">
<path d="M1391.85 130.85L1407 52.0996L1863.75 139.55L1835.55 286.4L1821.75 291.199L1832.4 300.199L1819.2 304.85L1830.15 314.449L1809 425.3L1798.65 428.9L1806.9 436.1L1777.35 590.449L1770.6 592.85L1775.55 597.05L1770.9 598.699L1775.1 602.3L1744.95 760.099L1456.95 705.05L1452.75 692.749L1444.35 702.349L1440.9 692.45L1433.85 700.55L1288.2 672.649L1389.6 143.3L1401.45 139.1L1391.85 130.85Z" fill="#D3BDAB"/>
<path d="M1862.55 463.549H1760.4V849.949H1862.55V463.549Z" fill="#FFB23E"/>
<path d="M147 324.949H44.8499V711.349H147V324.949Z" fill="#FFB23E"/>
<path d="M491.7 684.196L476.55 605.445L19.95 692.895L48 839.595L61.8 844.395L51.3 853.546L64.4999 858.196L53.3999 867.796L74.5499 978.495L85.0499 982.245L76.6499 989.296L106.2 1143.8L113.1 1146.05L108.15 1150.4L112.8 1152.05L108.45 1155.65L138.75 1313.45L426.6 1258.4L430.8 1246.1L439.2 1255.7L442.65 1245.8L449.7 1253.9L595.5 1226L494.1 696.645L482.1 692.446L491.7 684.196Z" fill="#D3BDAB"/>
<path d="M1838.1 104.902H63.9001V1273.85H1838.1V104.902Z" fill="#872C8B"/>
<path d="M1794.45 149.15H107.7V1229.45H1794.45V149.15Z" fill="#FFFACC"/>
<path d="M961.05 149.15H940.8V1229.45H961.05V149.15Z" fill="#F5EA83"/>
<path d="M1301.7 94.1007L1264.2 85.1007L1235.55 110.75L1232.55 72.5005L1199.25 53.1506L1234.8 38.4506L1242.9 0.800781L1267.95 30.0508L1306.2 26.1506L1285.95 59.0005L1301.7 94.1007Z" fill="#FBCCFF"/>
<path d="M1374.15 83.3025L1353 81.5022L1334.25 91.4023L1336.05 70.2522L1326.15 51.3524L1347.3 53.3025L1366.2 43.4023L1364.25 64.5525L1374.15 83.3025Z" fill="#FBCCFF"/>
<path d="M1324.95 161.151L1319.25 145.701L1306.2 135.951L1321.5 130.25L1331.4 117.051L1337.1 132.5L1350.15 142.25L1334.85 147.951L1324.95 161.151Z" fill="#FBCCFF"/>
<path d="M102.3 489.302L64.8 480.302L36.3 505.952L33.3 467.702L0 448.352L35.55 433.652L43.5 396.002L68.55 425.252L106.8 421.352L86.7 454.052L102.3 489.302Z" fill="#FBCCFF"/>
<path d="M47.8498 573.646L32.9998 558.496L12.2998 553.696L27.4498 538.847L32.2498 518.146L47.0998 533.297L67.6498 538.097L52.4998 552.946L47.8498 573.646Z" fill="#FBCCFF"/>
<path d="M111.75 407.45L103.2 398.6L91.2 395.9L99.8999 387.35L102.75 375.5L111.3 384.2L123.15 386.9L114.45 395.45L111.75 407.45Z" fill="#FBCCFF"/>
<path d="M1887 1215.8L1849.65 1206.8L1821 1232.45L1818 1194.05L1784.7 1174.85L1820.25 1160.15L1828.35 1122.5L1853.25 1151.75L1891.5 1147.85L1871.4 1180.55L1887 1215.8Z" fill="#FBCCFF"/>
<path d="M1876.2 1287.05L1855.05 1285.1L1836.3 1295L1838.1 1273.85L1828.35 1255.1L1849.35 1256.9L1868.25 1247L1866.3 1268.15L1876.2 1287.05Z" fill="#FBCCFF"/>
<path d="M1754.85 1316.15L1740.6 1314.95L1727.85 1321.55L1729.2 1307.3L1722.45 1294.55L1736.85 1295.75L1749.45 1289.15L1748.25 1303.4L1754.85 1316.15Z" fill="#FBCCFF"/>
<path d="M198.15 1289.75L183 1274.9L162.15 1270.55L177 1255.4L181.35 1234.55L196.5 1249.4L217.35 1253.75L202.5 1268.9L198.15 1289.75Z" fill="#FBCCFF"/>
<path d="M265.95 1295.9L252.45 1301L243.9 1312.4L238.8 1298.9L227.4 1290.2L240.9 1285.25L249.6 1273.85L254.55 1287.35L265.95 1295.9Z" fill="#FBCCFF"/>
<path d="M1877.25 222.951L1860.75 236.151L1853.85 256.25L1840.65 239.75L1820.55 232.851L1837.2 219.651L1843.95 199.551L1857.15 216.201L1877.25 222.951Z" fill="#FBCCFF"/>
<path d="M1860.45 314.151L1854.75 298.851L1841.7 288.951L1857 283.25L1866.9 270.051L1872.6 285.5L1885.65 295.25L1870.35 301.101L1860.45 314.151Z" fill="#FBCCFF"/>
</svg>
