<svg width="725" height="580" viewBox="0 0 725 580" fill="none" xmlns="http://www.w3.org/2000/svg">
<path d="M476.9 375.801C485.902 375.801 493.2 368.503 493.2 359.501C493.2 350.499 485.902 343.201 476.9 343.201C467.898 343.201 460.6 350.499 460.6 359.501C460.6 368.503 467.898 375.801 476.9 375.801Z" fill="#D3A1A1"/>
<path d="M466.1 375.302C468.917 375.302 471.2 373.018 471.2 370.201C471.2 367.385 468.917 365.102 466.1 365.102C463.283 365.102 461 367.385 461 370.201C461 373.018 463.283 375.302 466.1 375.302Z" fill="#D3A1A1"/>
<path d="M461.5 367.7C464.317 367.7 466.6 365.417 466.6 362.6C466.6 359.783 464.317 357.5 461.5 357.5C458.683 357.5 456.4 359.783 456.4 362.6C456.4 365.417 458.683 367.7 461.5 367.7Z" fill="#D3A1A1"/>
<path d="M473.6 379.901C476.417 379.901 478.7 377.618 478.7 374.801C478.7 371.985 476.417 369.701 473.6 369.701C470.783 369.701 468.5 371.985 468.5 374.801C468.5 377.618 470.783 379.901 473.6 379.901Z" fill="#D3A1A1"/>
<path d="M541.1 404.401C550.102 404.401 557.4 397.103 557.4 388.101C557.4 379.099 550.102 371.801 541.1 371.801C532.098 371.801 524.8 379.099 524.8 388.101C524.8 397.103 532.098 404.401 541.1 404.401Z" fill="#D3A1A1"/>
<path d="M540.3 408.401C543.117 408.401 545.4 406.118 545.4 403.301C545.4 400.485 543.117 398.201 540.3 398.201C537.484 398.201 535.2 400.485 535.2 403.301C535.2 406.118 537.484 408.401 540.3 408.401Z" fill="#D3A1A1"/>
<path d="M549 406.7C551.817 406.7 554.1 404.417 554.1 401.6C554.1 398.783 551.817 396.5 549 396.5C546.183 396.5 543.9 398.783 543.9 401.6C543.9 404.417 546.183 406.7 549 406.7Z" fill="#D3A1A1"/>
<path d="M531.9 405.802C534.716 405.802 537 403.518 537 400.701C537 397.885 534.716 395.602 531.9 395.602C529.083 395.602 526.8 397.885 526.8 400.701C526.8 403.518 529.083 405.802 531.9 405.802Z" fill="#D3A1A1"/>
<path d="M451.185 246.51L441.103 264.014L453.321 271.051L463.403 253.548L451.185 246.51Z" fill="#AFE8D0"/>
<path d="M463.385 253.506L453.303 271.01L486.577 290.175L496.659 272.672L463.385 253.506Z" fill="#89BEAA"/>
<path d="M438.5 267.502C447.723 267.502 455.2 260.025 455.2 250.802C455.2 241.578 447.723 234.102 438.5 234.102C429.277 234.102 421.8 241.578 421.8 250.802C421.8 260.025 429.277 267.502 438.5 267.502Z" fill="#EBD2D2"/>
<path d="M444.816 254.444C447.848 249.18 446.854 242.924 442.594 240.471C438.335 238.018 432.425 240.296 429.392 245.56C426.36 250.824 427.355 257.081 431.614 259.534C435.873 261.987 441.784 259.708 444.816 254.444Z" fill="#E8A6A6"/>
<path d="M431.742 234.752L427.977 249.686L436.413 251.813L440.179 236.879L431.742 234.752Z" fill="#FFB23E"/>
<path d="M452.3 193.7L442.3 233.4L436.8 232L449.5 181.9L452.3 193.7Z" fill="#89BEAA"/>
<path d="M441.3 191L449.5 181.9L436.8 232L431.3 230.7L441.3 191Z" fill="#B7D6D6"/>
<path d="M447 239.902L424.1 234.102C422.7 233.702 421.8 232.302 422.2 230.902C422.6 229.502 424 228.602 425.4 229.002L448.3 234.802C449.7 235.202 450.6 236.602 450.2 238.002C449.9 239.402 448.4 240.202 447 239.902Z" fill="#DE8E45"/>
<path d="M431.4 259.601C434.658 259.601 437.3 256.959 437.3 253.701C437.3 250.442 434.658 247.801 431.4 247.801C428.142 247.801 425.5 250.442 425.5 253.701C425.5 256.959 428.142 259.601 431.4 259.601Z" fill="#FFB23E"/>
<path d="M431.209 237.114L430.916 238.277L439.352 240.404L439.646 239.241L431.209 237.114Z" fill="#DE8E45"/>
<path d="M430.448 240.161L430.154 241.324L438.591 243.451L438.884 242.288L430.448 240.161Z" fill="#DE8E45"/>
<path d="M429.644 243.063L429.351 244.227L437.787 246.354L438.08 245.19L429.644 243.063Z" fill="#DE8E45"/>
<path d="M428.914 246.09L428.62 247.254L437.056 249.381L437.35 248.217L428.914 246.09Z" fill="#DE8E45"/>
<path d="M431.4 256.802C433.112 256.802 434.5 255.414 434.5 253.702C434.5 251.989 433.112 250.602 431.4 250.602C429.688 250.602 428.3 251.989 428.3 253.702C428.3 255.414 429.688 256.802 431.4 256.802Z" fill="#DE8E45"/>
<path d="M425.9 248.701C428.772 248.701 431.1 246.373 431.1 243.501C431.1 240.629 428.772 238.301 425.9 238.301C423.028 238.301 420.7 240.629 420.7 243.501C420.7 246.373 423.028 248.701 425.9 248.701Z" fill="#EBD2D2"/>
<path d="M432 242.002C434.872 242.002 437.2 239.674 437.2 236.802C437.2 233.93 434.872 231.602 432 231.602C429.128 231.602 426.8 233.93 426.8 236.802C426.8 239.674 429.128 242.002 432 242.002Z" fill="#EBD2D2"/>
<path d="M423.7 257.502C426.572 257.502 428.9 255.174 428.9 252.302C428.9 249.43 426.572 247.102 423.7 247.102C420.828 247.102 418.5 249.43 418.5 252.302C418.5 255.174 420.828 257.502 423.7 257.502Z" fill="#EBD2D2"/>
<path d="M627.433 318.384L622.793 338.045L636.516 341.284L641.156 321.623L627.433 318.384Z" fill="#AFE8D0"/>
<path d="M590.014 309.576L585.374 329.236L622.749 338.057L627.389 318.396L590.014 309.576Z" fill="#89BEAA"/>
<path d="M647.5 350.201C656.723 350.201 664.2 342.724 664.2 333.501C664.2 324.278 656.723 316.801 647.5 316.801C638.277 316.801 630.8 324.278 630.8 333.501C630.8 342.724 638.277 350.201 647.5 350.201Z" fill="#EBD2D2"/>
<path d="M657.681 335.916C659.076 330.003 656.329 324.294 651.545 323.165C646.761 322.036 641.751 325.914 640.356 331.827C638.96 337.74 641.707 343.448 646.491 344.578C651.275 345.707 656.285 341.829 657.681 335.916Z" fill="#E8A6A6"/>
<path d="M655.661 322.313L648.177 335.771L655.78 340L663.264 326.542L655.661 322.313Z" fill="#FFB23E"/>
<path d="M676.4 282.5L656.5 318.3L661.5 321L686.6 275.9L676.4 282.5Z" fill="#89BEAA"/>
<path d="M686.3 288L686.6 275.9L661.5 321L666.4 323.8L686.3 288Z" fill="#B7D6D6"/>
<path d="M651.2 315.2L671.8 326.7C673.1 327.4 673.5 329 672.8 330.3C672.1 331.6 670.5 332 669.2 331.3L648.6 319.8C647.3 319.1 646.9 317.5 647.6 316.2C648.3 314.9 650 314.5 651.2 315.2Z" fill="#DE8E45"/>
<path d="M650.6 346.401C653.859 346.401 656.5 343.76 656.5 340.501C656.5 337.243 653.859 334.602 650.6 334.602C647.342 334.602 644.7 337.243 644.7 340.501C644.7 343.76 647.342 346.401 650.6 346.401Z" fill="#FFB23E"/>
<path d="M654.503 324.457L653.92 325.506L661.523 329.734L662.106 328.685L654.503 324.457Z" fill="#DE8E45"/>
<path d="M652.996 327.154L652.413 328.203L660.016 332.431L660.599 331.383L652.996 327.154Z" fill="#DE8E45"/>
<path d="M651.442 329.801L650.858 330.85L658.461 335.078L659.044 334.029L651.442 329.801Z" fill="#DE8E45"/>
<path d="M649.968 332.5L649.385 333.549L656.988 337.777L657.571 336.728L649.968 332.5Z" fill="#DE8E45"/>
<path d="M650.6 343.601C652.312 343.601 653.7 342.213 653.7 340.5C653.7 338.788 652.312 337.4 650.6 337.4C648.888 337.4 647.5 338.788 647.5 340.5C647.5 342.213 648.888 343.601 650.6 343.601Z" fill="#DE8E45"/>
<path d="M661.6 342.101C664.472 342.101 666.8 339.773 666.8 336.901C666.8 334.029 664.472 331.701 661.6 331.701C658.728 331.701 656.4 334.029 656.4 336.901C656.4 339.773 658.728 342.101 661.6 342.101Z" fill="#EBD2D2"/>
<path d="M661.8 333.001C664.672 333.001 667 330.673 667 327.802C667 324.93 664.672 322.602 661.8 322.602C658.928 322.602 656.6 324.93 656.6 327.802C656.6 330.673 658.928 333.001 661.8 333.001Z" fill="#EBD2D2"/>
<path d="M657.2 350.001C660.072 350.001 662.4 347.673 662.4 344.802C662.4 341.93 660.072 339.602 657.2 339.602C654.328 339.602 652 341.93 652 344.802C652 347.673 654.328 350.001 657.2 350.001Z" fill="#EBD2D2"/>
<path d="M486.5 277.701L594.1 320.301L579.7 356.601C571.6 377.101 548.4 387.101 527.9 379.001L494.5 365.801C474 357.701 464 334.501 472.1 314.001L486.5 277.701Z" fill="#EBD2D2"/>
<path d="M545.8 356.201L546.9 363.301L615.6 390.501L614.1 383.301L545.8 356.201Z" fill="#AFE8D0"/>
<path d="M602.5 327.101L540.9 302.701L537.9 305.001L545.8 356.201L614.1 383.301L602.5 327.101Z" fill="#89BEAA"/>
<path d="M422.7 314.101L491.4 341.301L497 336.901L428.7 309.801L422.7 314.101Z" fill="#AFE8D0"/>
<path d="M537.3 301.201L475.7 276.801L428.7 309.801L497 336.901L537.9 305.001L537.3 301.201Z" fill="#89BEAA"/>
<path d="M540.9 302.701L537.3 301.201L537.9 305.001L540.9 302.701Z" fill="#89BEAA"/>
<path d="M604.454 330.245C606.102 326.086 578.759 311.353 543.381 297.338C508.004 283.323 477.989 275.334 476.342 279.493C474.694 283.652 502.037 298.385 537.415 312.399C572.792 326.414 602.807 334.404 604.454 330.245Z" fill="#FFB23E"/>
<path d="M481.3 269.501L606.4 319.001C609.2 320.101 610.6 323.301 609.5 326.201C608.4 329.001 605.2 330.401 602.3 329.301L477.2 279.801C474.4 278.701 473 275.501 474.1 272.601C475.3 269.801 478.5 268.401 481.3 269.501Z" fill="#FFB23E"/>
<path d="M481.9 259.402L607 309.002C609.8 310.102 611.2 313.302 610.1 316.202C609 319.002 605.8 320.402 602.9 319.302L477.8 269.802C475 268.702 473.6 265.502 474.7 262.602C475.9 259.702 479.1 258.302 481.9 259.402Z" fill="#FFB23E"/>
<path d="M529.4 292.801L503.5 324.501L515.1 320.101L513.1 332.401L539 300.601L529.4 292.801Z" fill="#AFE8D0"/>
<path d="M551.9 301.701L549.1 342.501L543.6 331.401L536.7 341.701L539.5 300.801L551.9 301.701Z" fill="#AFE8D0"/>
<path d="M657.6 90.5015L597.6 66.7014C577.5 58.8014 554.8 62.1015 537.9 75.5015L479.6 121.701C467.5 131.301 461.4 146.602 463.7 161.902L475.6 242.701C478.1 259.601 489.4 273.901 505.3 280.201L578.7 309.302C594.6 315.602 612.7 312.902 626.1 302.302L690.1 251.601C702.2 242.001 708.3 226.702 706 211.402L695.1 137.802C691.9 116.502 677.6 98.5015 657.6 90.5015Z" fill="#89BEAA"/>
<path d="M681.834 246.492C701.463 196.944 670.631 138.259 612.97 115.416C555.308 92.5737 492.652 114.223 473.023 163.772C453.395 213.321 484.226 272.006 541.888 294.848C599.549 317.691 662.205 296.041 681.834 246.492Z" fill="#649B85"/>
<path d="M601.6 277.501C606.7 264.601 621.4 258.201 634.3 263.301C643.4 266.902 649.3 275.301 650.1 284.401C664.2 275.601 675.2 263.301 681.3 247.801C699.5 201.801 667.6 145.901 609.8 123.001C552.1 100.101 490.5 118.901 472.3 165.001C466.2 180.401 465.7 197.001 470 213.001C476.9 206.901 486.9 204.801 496 208.401C508.9 213.501 515.3 228.201 510.2 241.101C507.3 248.501 501.2 253.701 494.2 255.901C507 269.901 523.9 281.801 543.8 289.701C563.8 297.601 584.2 300.502 603.1 299.102C599.5 292.902 598.7 284.901 601.6 277.501Z" fill="#EBD2D2"/>
<path d="M510.3 241.301C515.4 228.401 509.1 213.701 496.1 208.601C487 205.001 477 207.101 470.1 213.201C474.1 228.401 482.5 243.201 494.2 256.201C501.3 254.001 507.3 248.701 510.3 241.301Z" fill="#E8A6A6"/>
<path d="M650.2 284.501C649.4 275.301 643.5 267.001 634.4 263.401C621.5 258.301 606.8 264.601 601.7 277.601C598.8 285.001 599.6 292.9 603.2 299.4C620.6 297.9 636.8 292.901 650.2 284.501Z" fill="#E8A6A6"/>
<path d="M567.4 230.401C561 227.901 557.8 220.601 560.4 214.201L583.7 223.401C581.1 229.801 573.9 233.001 567.4 230.401Z" fill="#6D3232"/>
<path d="M569.1 226.3C564.1 224.3 560.9 220.6 562 217.9L580 225C579 227.7 574.1 228.2 569.1 226.3Z" fill="#934141"/>
<path d="M545.4 286.101C551.2 288.401 558.3 285.201 563.7 278.601C561.1 275.201 556.9 272.101 551.7 270.101C546.6 268.101 541.4 267.501 537.1 268.101C536.6 276.601 539.6 283.801 545.4 286.101Z" fill="#C9345A"/>
<path d="M569.8 244.2L565.8 254.4C564.3 258.1 560.1 259.9 556.4 258.5C552.7 257 550.9 252.8 552.3 249.1L556.3 238.9C549.9 240.9 543.4 247.5 539.8 256.7C538.3 260.6 537.4 264.5 537.2 268.1C541.5 267.4 546.6 268 551.8 270.1C556.9 272.1 561.1 275.2 563.8 278.6C566.1 275.8 568.2 272.4 569.7 268.5C573.3 259.3 573.1 250 569.8 244.2Z" fill="#CA6E91"/>
<path d="M556.3 238.801L552.3 249.001C550.9 252.501 552.4 256.301 555.6 258.001L563.3 238.601C561 238.001 558.7 238.101 556.3 238.801Z" fill="#FFFACC"/>
<path d="M564.8 239.301L557.1 258.701C560.6 259.601 564.3 257.801 565.7 254.401L569.7 244.201C568.5 242.001 566.9 240.301 564.8 239.301Z" fill="#FFFACC"/>
<path d="M564 239.001C563.7 238.901 563.5 238.801 563.2 238.701L555.5 258.101C555.7 258.201 556 258.401 556.3 258.501C556.6 258.601 556.8 258.701 557.1 258.801L564.8 239.401C564.6 239.201 564.3 239.101 564 239.001Z" fill="#EACACA"/>
<path d="M546.8 203.501C543.8 211.001 535.4 214.601 527.9 211.701C520.4 208.701 516.8 200.301 519.7 192.801C522.3 186.301 529 182.701 535.6 183.801L526.6 176.201C520.2 178.201 514.6 182.901 511.9 189.701C507.2 201.501 513 214.801 524.8 219.501C536.6 224.201 549.9 218.401 554.6 206.601C555.3 204.801 555.8 202.901 556 201.001L547 193.401C548.1 196.601 548.1 200.201 546.8 203.501Z" fill="#FFFACC"/>
<path d="M519.8 192.8C516.8 200.3 520.5 208.7 528 211.7C535.5 214.7 543.9 211 546.9 203.5C548.2 200.1 548.2 196.6 547.1 193.4L535.7 183.8C529 182.8 522.3 186.4 519.8 192.8ZM526.1 194.3L529.9 194.2C530.3 194.2 530.7 194 531 193.6L533.1 190.4C533.7 189.5 535.1 189.6 535.5 190.7L536.8 194.3C536.9 194.7 537.3 195 537.7 195.1L541.4 196.1C542.5 196.4 542.7 197.8 541.9 198.4L538.9 200.7C538.6 201 538.4 201.4 538.4 201.8L538.6 205.6C538.7 206.7 537.4 207.4 536.5 206.8L533.4 204.6C533 204.4 532.6 204.3 532.2 204.5L528.7 205.9C527.7 206.3 526.6 205.3 527 204.3L528.1 200.7C528.2 200.3 528.1 199.8 527.9 199.5L525.5 196.5C524.4 195.6 524.9 194.3 526.1 194.3Z" fill="#6D3232"/>
<path d="M525.1 196.501L527.5 199.501C527.8 199.801 527.9 200.301 527.7 200.701L526.6 204.301C526.3 205.401 527.3 206.301 528.3 205.901L531.8 204.501C532.2 204.301 532.7 204.401 533 204.601L536.1 206.801C537 207.401 538.2 206.701 538.2 205.601L538 201.801C538 201.401 538.2 200.901 538.5 200.701L541.5 198.401C542.4 197.701 542.1 196.401 541 196.101L537.3 195.101C536.9 195.001 536.5 194.701 536.4 194.301L535.1 190.701C534.7 189.701 533.3 189.501 532.7 190.401L530.6 193.601C530.4 194.001 530 194.201 529.5 194.201L525.7 194.301C525 194.401 524.4 195.601 525.1 196.501Z" fill="#934141"/>
<path d="M600.9 225.001C597.9 232.501 601.6 240.901 609.1 243.901C616.6 246.901 625 243.201 628 235.701C630.6 229.201 628.2 222.001 622.6 218.301L634.4 218.901C637.8 224.701 638.5 232.001 635.8 238.801C631.1 250.601 617.8 256.301 606 251.701C594.2 247.001 588.5 233.701 593.1 221.901C593.8 220.101 594.8 218.401 595.9 216.801L607.7 217.401C604.7 219.001 602.2 221.601 600.9 225.001Z" fill="#FFFACC"/>
<path d="M622.5 218.3L607.7 217.5C604.7 219.1 602.3 221.6 600.9 225C597.9 232.5 601.6 240.9 609.1 243.9C616.6 246.9 625 243.2 628 235.7C630.5 229.2 628.1 222 622.5 218.3ZM621.5 234.7L617.7 235.2C617.3 235.3 616.9 235.5 616.7 235.9L615 239.3C614.5 240.3 613.1 240.3 612.6 239.3L610.9 235.9C610.7 235.5 610.3 235.2 609.9 235.2L606.1 234.6C605 234.4 604.6 233.1 605.4 232.3L608.1 229.7C608.4 229.4 608.6 229 608.5 228.5L607.9 224.8C607.7 223.7 608.9 222.9 609.8 223.4L613.1 225.2C613.5 225.4 613.9 225.4 614.3 225.2L617.7 223.5C618.7 223 619.8 223.8 619.6 224.9L618.9 228.6C618.8 229 619 229.5 619.3 229.8L622 232.5C623.1 233.2 622.6 234.6 621.5 234.7Z" fill="#6D3232"/>
<path d="M621.5 234.7L617.7 235.2C617.3 235.3 616.9 235.5 616.7 235.9L615 239.3C614.5 240.3 613.1 240.3 612.6 239.3L610.9 235.9C610.7 235.5 610.3 235.2 609.9 235.2L606.1 234.6C605 234.4 604.6 233.1 605.4 232.3L608.1 229.7C608.4 229.4 608.6 229 608.5 228.5L607.9 224.8C607.7 223.7 608.9 222.9 609.8 223.4L613.1 225.2C613.5 225.4 613.9 225.4 614.3 225.2L617.7 223.5C618.7 223 619.8 223.8 619.6 224.9L618.9 228.6C618.8 229 619 229.5 619.3 229.8L622 232.5C623.1 233.2 622.6 234.6 621.5 234.7Z" fill="#934141"/>
<path d="M553 171.501C556.8 173.001 558.7 177.401 557.2 181.201L554.4 188.101L547.5 185.301C543.7 183.801 541.8 179.401 543.3 175.601C544.8 171.901 549.2 170.001 553 171.501Z" fill="#E8A6A6"/>
<path d="M612.7 211.3L605.8 208.5L608.6 201.6C610.1 197.8 614.5 195.9 618.3 197.4C622.1 198.9 624 203.3 622.5 207.1C620.9 210.9 616.6 212.8 612.7 211.3Z" fill="#E8A6A6"/>
<path d="M581.6 98.4008L561.2 96.5007C557.7 96.2007 555 93.2007 554.9 89.7007L553.9 24.9008C553.7 10.5008 566 -0.99924 580.4 0.40076C594.8 1.70076 604.8 15.2008 601.9 29.4008L589 92.9008C588.3 96.3008 585.1 98.7008 581.6 98.4008Z" fill="#EBD2D2"/>
<path d="M579.8 98.2L564.3 96.8001L565.1 48.8001C565.3 39.0001 571.4 31.1 578.2 31.7C585 32.3 589.5 41.3001 587.9 50.9001L579.8 98.2Z" fill="#CA6E91"/>
<path d="M647.6 124.501L663.7 137.101C666.5 139.301 670.5 139.001 672.9 136.501L718 90.0005C728 79.6005 726.9 62.9005 715.5 54.0005C704.1 45.1005 687.6 48.1006 680 60.4006L645.9 115.501C644.1 118.401 644.8 122.301 647.6 124.501Z" fill="#EBD2D2"/>
<path d="M649 125.601L661.3 135.201L693.6 99.7009C700.2 92.5009 701.2 82.501 695.8 78.301C690.4 74.101 681 77.5009 675.6 85.7009L649 125.601Z" fill="#CA6E91"/>
<path d="M536.3 97.2012C539.614 97.2012 542.3 94.5149 542.3 91.2012C542.3 87.8875 539.614 85.2012 536.3 85.2012C532.986 85.2012 530.3 87.8875 530.3 91.2012C530.3 94.5149 532.986 97.2012 536.3 97.2012Z" fill="#AFE8D0"/>
<path d="M525.5 101.8C527.543 101.8 529.2 100.144 529.2 98.1003C529.2 96.0569 527.543 94.4004 525.5 94.4004C523.456 94.4004 521.8 96.0569 521.8 98.1003C521.8 100.144 523.456 101.8 525.5 101.8Z" fill="#AFE8D0"/>
<path d="M696.8 212.701C698.844 212.701 700.5 211.044 700.5 209.001C700.5 206.957 698.844 205.301 696.8 205.301C694.757 205.301 693.1 206.957 693.1 209.001C693.1 211.044 694.757 212.701 696.8 212.701Z" fill="#AFE8D0"/>
<path d="M518.5 293.802L521.4 286.502C523.3 281.602 528.8 279.302 533.7 281.202C538.6 283.102 540.9 288.602 539 293.502L536.1 300.802C534.2 305.702 528.7 308.002 523.8 306.102C519 304.202 516.6 298.702 518.5 293.802Z" fill="#89BEAA"/>
<path d="M542 303.2L544.9 295.9C546.8 291 552.3 288.7 557.2 290.6C562.1 292.5 564.4 298 562.5 302.9L559.6 310.2C557.7 315.1 552.2 317.4 547.3 315.5C542.5 313.5 540.1 308 542 303.2Z" fill="#89BEAA"/>
<path d="M533.8 299.801L536.6 292.701C537.2 291.101 539 290.301 540.6 291.001L545.3 292.901C546.9 293.501 547.7 295.301 547 296.901L544.2 304.001C543.6 305.601 541.8 306.401 540.2 305.701L535.5 303.801C534 303.201 533.2 301.401 533.8 299.801Z" fill="#AFE8D0"/>
<path d="M531.5 291.101C531.8 290.801 532.3 290.701 532.6 291.001L549.4 304.401C549.7 304.701 549.8 305.201 549.5 305.501C549.2 305.801 548.7 305.902 548.4 305.602L531.6 292.201C531.3 292.001 531.2 291.501 531.5 291.101Z" fill="#AFE8D0"/>
<path d="M529 297.401C529 297.001 529.4 296.601 529.8 296.701L551.2 298.501C551.6 298.501 552 298.901 551.9 299.301C551.9 299.701 551.5 300.101 551.1 300.001L529.7 298.201C529.3 298.201 529 297.801 529 297.401Z" fill="#AFE8D0"/>
<path d="M177.6 426.801C187.817 426.801 196.1 418.518 196.1 408.301C196.1 398.084 187.817 389.801 177.6 389.801C167.383 389.801 159.1 398.084 159.1 408.301C159.1 418.518 167.383 426.801 177.6 426.801Z" fill="#C6824B"/>
<path d="M175.4 431.301C178.603 431.301 181.2 428.704 181.2 425.501C181.2 422.298 178.603 419.701 175.4 419.701C172.197 419.701 169.6 422.298 169.6 425.501C169.6 428.704 172.197 431.301 175.4 431.301Z" fill="#C6824B"/>
<path d="M166 427.701C169.203 427.701 171.8 425.105 171.8 421.901C171.8 418.698 169.203 416.102 166 416.102C162.797 416.102 160.2 418.698 160.2 421.901C160.2 425.105 162.797 427.701 166 427.701Z" fill="#C6824B"/>
<path d="M185.4 430.201C188.603 430.201 191.2 427.605 191.2 424.401C191.2 421.198 188.603 418.602 185.4 418.602C182.197 418.602 179.6 421.198 179.6 424.401C179.6 427.605 182.197 430.201 185.4 430.201Z" fill="#C6824B"/>
<path d="M255.1 407.602C265.317 407.602 273.6 399.319 273.6 389.102C273.6 378.884 265.317 370.602 255.1 370.602C244.883 370.602 236.6 378.884 236.6 389.102C236.6 399.319 244.883 407.602 255.1 407.602Z" fill="#C6824B"/>
<path d="M265.1 409C268.303 409 270.9 406.404 270.9 403.2C270.9 399.997 268.303 397.4 265.1 397.4C261.897 397.4 259.3 399.997 259.3 403.2C259.3 406.404 261.897 409 265.1 409Z" fill="#C6824B"/>
<path d="M271.7 401.401C274.903 401.401 277.5 398.804 277.5 395.601C277.5 392.398 274.903 389.801 271.7 389.801C268.497 389.801 265.9 392.398 265.9 395.601C265.9 398.804 268.497 401.401 271.7 401.401Z" fill="#C6824B"/>
<path d="M255.8 412.701C259.003 412.701 261.6 410.105 261.6 406.901C261.6 403.698 259.003 401.102 255.8 401.102C252.597 401.102 250 403.698 250 406.901C250 410.105 252.597 412.701 255.8 412.701Z" fill="#C6824B"/>
<path d="M124.1 379.201L288.8 338.201C292.7 353.901 283.1 369.901 267.4 373.801L159.7 400.601C143.9 404.501 128 394.901 124.1 379.201Z" fill="#DE8E45"/>
<path d="M148.1 373.201L264.8 344.201C266.8 352.101 262 360.001 254.1 362.001L165.9 383.901C158 385.801 150 381.001 148.1 373.201Z" fill="#FFFACC"/>
<path d="M258.2 243.5L106.7 281.2L110.3 370.3L296.8 323.9L258.2 243.5Z" fill="#A977AB"/>
<path d="M194.111 291.972L185.96 294L199.406 348.051L207.557 346.023L194.111 291.972Z" fill="#88538C"/>
<path d="M307.4 230.501C320.71 230.501 331.5 219.711 331.5 206.401C331.5 193.091 320.71 182.301 307.4 182.301C294.09 182.301 283.3 193.091 283.3 206.401C283.3 219.711 294.09 230.501 307.4 230.501Z" fill="#DE8E45"/>
<path d="M321.8 196.602C325.942 196.602 329.3 193.244 329.3 189.102C329.3 184.959 325.942 181.602 321.8 181.602C317.658 181.602 314.3 184.959 314.3 189.102C314.3 193.244 317.658 196.602 321.8 196.602Z" fill="#DE8E45"/>
<path d="M329.6 207.102C333.742 207.102 337.1 203.744 337.1 199.602C337.1 195.459 333.742 192.102 329.6 192.102C325.458 192.102 322.1 195.459 322.1 199.602C322.1 203.744 325.458 207.102 329.6 207.102Z" fill="#DE8E45"/>
<path d="M310.1 190.801C314.242 190.801 317.6 187.443 317.6 183.301C317.6 179.159 314.242 175.801 310.1 175.801C305.958 175.801 302.6 179.159 302.6 183.301C302.6 187.443 305.958 190.801 310.1 190.801Z" fill="#DE8E45"/>
<path d="M310.1 186.301C311.757 186.301 313.1 184.958 313.1 183.301C313.1 181.644 311.757 180.301 310.1 180.301C308.443 180.301 307.1 181.644 307.1 183.301C307.1 184.958 308.443 186.301 310.1 186.301Z" fill="#FFFACC"/>
<path d="M321.8 192.102C323.457 192.102 324.8 190.758 324.8 189.102C324.8 187.445 323.457 186.102 321.8 186.102C320.143 186.102 318.8 187.445 318.8 189.102C318.8 190.758 320.143 192.102 321.8 192.102Z" fill="#FFFACC"/>
<path d="M329.6 202.602C331.257 202.602 332.6 201.258 332.6 199.602C332.6 197.945 331.257 196.602 329.6 196.602C327.943 196.602 326.6 197.945 326.6 199.602C326.6 201.258 327.943 202.602 329.6 202.602Z" fill="#FFFACC"/>
<path d="M321.122 215.019C325.646 209.587 323.809 200.599 317.019 194.944C310.229 189.289 301.057 189.107 296.533 194.539C292.008 199.971 293.845 208.96 300.635 214.615C307.425 220.27 316.597 220.451 321.122 215.019Z" fill="#FFFACC"/>
<path d="M272.782 217.205L216.078 285.285L246.43 310.565L303.134 242.485L272.782 217.205Z" fill="#A977AB"/>
<path d="M282.991 205.005L272.815 217.223L303.167 242.503L313.343 230.285L282.991 205.005Z" fill="#FFB23E"/>
<path d="M45.8 295.501C59.11 295.501 69.9 284.711 69.9 271.401C69.9 258.091 59.11 247.301 45.8 247.301C32.4899 247.301 21.7 258.091 21.7 271.401C21.7 284.711 32.4899 295.501 45.8 295.501Z" fill="#DE8E45"/>
<path d="M24.9001 270.4C29.0423 270.4 32.4001 267.043 32.4001 262.9C32.4001 258.758 29.0423 255.4 24.9001 255.4C20.758 255.4 17.4001 258.758 17.4001 262.9C17.4001 267.043 20.758 270.4 24.9001 270.4Z" fill="#DE8E45"/>
<path d="M23 283.301C27.1421 283.301 30.5 279.943 30.5 275.801C30.5 271.659 27.1421 268.301 23 268.301C18.8579 268.301 15.5 271.659 15.5 275.801C15.5 279.943 18.8579 283.301 23 283.301Z" fill="#DE8E45"/>
<path d="M32.6001 259.801C36.7422 259.801 40.1001 256.443 40.1001 252.301C40.1001 248.159 36.7422 244.801 32.6001 244.801C28.458 244.801 25.1001 248.159 25.1001 252.301C25.1001 256.443 28.458 259.801 32.6001 259.801Z" fill="#DE8E45"/>
<path d="M32.6001 255.301C34.257 255.301 35.6001 253.958 35.6001 252.301C35.6001 250.644 34.257 249.301 32.6001 249.301C30.9432 249.301 29.6001 250.644 29.6001 252.301C29.6001 253.958 30.9432 255.301 32.6001 255.301Z" fill="#FFFACC"/>
<path d="M24.9001 265.9C26.557 265.9 27.9001 264.557 27.9001 262.9C27.9001 261.244 26.557 259.9 24.9001 259.9C23.2433 259.9 21.9001 261.244 21.9001 262.9C21.9001 264.557 23.2433 265.9 24.9001 265.9Z" fill="#FFFACC"/>
<path d="M26.0628 275.893C26.0987 274.236 24.785 272.864 23.1285 272.828C21.472 272.792 20.0999 274.106 20.064 275.762C20.028 277.419 21.3417 278.791 22.9982 278.827C24.6547 278.863 26.0268 277.549 26.0628 275.893Z" fill="#FFFACC"/>
<path d="M55.5157 275.361C58.8656 267.185 56.2786 258.384 49.7374 255.704C43.1963 253.024 35.178 257.48 31.8281 265.656C28.4781 273.833 31.0651 282.633 37.6062 285.313C44.1474 287.993 52.1658 283.538 55.5157 275.361Z" fill="#FFFACC"/>
<path d="M81.3827 264.703L66.4082 301.252L148.39 334.84L163.364 298.291L81.3827 264.703Z" fill="#A977AB"/>
<path d="M66.6524 258.63L51.678 295.18L66.3903 301.207L81.3647 264.658L66.6524 258.63Z" fill="#FFB23E"/>
<path d="M126.9 321.501L130.1 323.201C130.5 323.401 130.9 323.401 131.3 323.201L134.5 321.501C135.4 321.001 136.6 321.801 136.4 322.901L135.8 326.501C135.7 326.901 135.9 327.301 136.2 327.601L138.8 330.101C139.6 330.801 139.1 332.101 138.1 332.301L134.5 332.801C134.1 332.901 133.7 333.101 133.5 333.501L131.9 336.801C131.4 337.801 130.1 337.801 129.6 336.801L128 333.501C127.8 333.101 127.4 332.901 127 332.801L123.4 332.301C122.3 332.101 121.9 330.801 122.7 330.101L125.3 327.501C125.6 327.201 125.7 326.801 125.7 326.401L125.1 322.801C124.9 321.801 126 321.001 126.9 321.501Z" fill="#FFB23E"/>
<path d="M159.2 343.3L160.8 344.601C161 344.801 161.2 344.8 161.5 344.7L163.5 344.101C164.1 343.901 164.6 344.501 164.4 345.101L163.7 347C163.6 347.2 163.6 347.5 163.8 347.7L165 349.4C165.3 349.9 165 350.6 164.4 350.5L162.3 350.4C162.1 350.4 161.8 350.5 161.7 350.7L160.4 352.3C160 352.8 159.3 352.6 159.1 352L158.6 350C158.5 349.8 158.4 349.6 158.1 349.5L156.2 348.8C155.6 348.6 155.5 347.8 156.1 347.5L157.8 346.4C158 346.3 158.1 346.1 158.1 345.8L158.2 343.7C158 343.3 158.7 342.9 159.2 343.3Z" fill="#FFB23E"/>
<path d="M158.9 309.101L159.4 311.101C159.5 311.301 159.6 311.501 159.9 311.601L161.9 312.301C162.5 312.501 162.6 313.301 162.1 313.601L160.4 314.7C160.2 314.8 160.1 315.101 160.1 315.301V317.4C160.1 318 159.4 318.3 158.9 318L157.3 316.7C157.1 316.5 156.9 316.501 156.6 316.601L154.6 317.2C154 317.4 153.5 316.8 153.7 316.2L154.4 314.301C154.5 314.101 154.5 313.801 154.3 313.601L153.1 311.9C152.8 311.4 153.1 310.701 153.7 310.801L155.8 310.9C156 310.9 156.3 310.801 156.4 310.601L157.7 309C158 308.3 158.7 308.501 158.9 309.101Z" fill="#FFB23E"/>
<path d="M180.1 328.3L181.7 331.601C181.9 332.001 182.2 332.3 182.7 332.3L186.3 332.9C187.4 333.1 187.8 334.401 187 335.101L184.3 337.601C184 337.901 183.8 338.3 183.9 338.7L184.4 342.3C184.6 343.4 183.4 344.101 182.5 343.601L179.3 341.8C178.9 341.6 178.5 341.6 178.1 341.8L174.8 343.4C173.8 343.9 172.8 343.1 173 342L173.7 338.4C173.8 338 173.7 337.6 173.4 337.3L170.8 334.7C170 333.9 170.5 332.6 171.6 332.5L175.2 332C175.6 331.9 176 331.7 176.2 331.3L177.9 328.101C178.3 327.301 179.6 327.3 180.1 328.3Z" fill="#FFB23E"/>
<path d="M122.9 352.802L123.7 354.701C123.8 354.901 124 355.102 124.2 355.102L126.2 355.502C126.8 355.602 127 356.402 126.5 356.802L125 358.201C124.8 358.401 124.7 358.602 124.8 358.802L125 360.901C125.1 361.501 124.4 361.902 123.9 361.602L122.1 360.602C121.9 360.502 121.6 360.502 121.4 360.602L119.5 361.502C119 361.802 118.3 361.301 118.5 360.701L118.9 358.701C119 358.501 118.9 358.202 118.7 358.002L117.3 356.502C116.9 356.102 117.2 355.302 117.8 355.302L119.9 355.102C120.1 355.102 120.4 354.901 120.5 354.701L121.5 352.901C121.9 352.201 122.7 352.202 122.9 352.802Z" fill="#FFB23E"/>
<path d="M80.6999 293.001L82.3999 294.201C82.5999 294.301 82.7999 294.401 83.0999 294.301L84.9999 293.601C85.5999 293.401 86.0999 293.901 85.8999 294.501L85.2999 296.501C85.1999 296.701 85.2999 297.001 85.3999 297.201L86.6999 298.801C87.0999 299.301 86.6999 300.001 86.0999 300.001H83.9999C83.7999 300.001 83.4999 300.101 83.3999 300.301L82.1999 302.001C81.8999 302.501 81.0999 302.401 80.8999 301.801L80.2999 299.801C80.1999 299.601 79.9999 299.401 79.7999 299.301L77.7999 298.701C77.1999 298.501 77.0999 297.801 77.5999 297.401L79.2999 296.201C79.4999 296.101 79.5999 295.801 79.5999 295.601V293.501C79.4999 293.001 80.1999 292.601 80.6999 293.001Z" fill="#FFB23E"/>
<path d="M123.7 300.4L124.6 302.3C124.7 302.5 124.9 302.7 125.1 302.7L127.1 303C127.7 303.1 127.9 303.8 127.5 304.2L126 305.6C125.8 305.8 125.7 306 125.8 306.2L126.1 308.2C126.2 308.8 125.6 309.2 125 309L123.2 308C123 307.9 122.7 307.9 122.5 308L120.7 308.9C120.2 309.2 119.5 308.7 119.6 308.1L120 306.1C120 305.9 120 305.6 119.8 305.5L118.3 304C117.9 303.6 118.1 302.8 118.7 302.8L120.7 302.5C120.9 302.5 121.1 302.3 121.3 302.1L122.2 300.3C122.7 299.9 123.5 299.9 123.7 300.4Z" fill="#FFB23E"/>
<path d="M223 297.801L225.9 300.001C226.2 300.301 226.7 300.301 227.1 300.201L230.6 299.001C231.6 298.701 232.6 299.601 232.2 300.601L231 304.101C230.9 304.501 230.9 304.901 231.2 305.301L233.4 308.201C234 309.101 233.4 310.301 232.3 310.301L228.6 310.201C228.2 310.201 227.8 310.401 227.5 310.701L225.4 313.701C224.8 314.601 223.4 314.301 223.1 313.301L222 309.801C221.9 309.401 221.6 309.101 221.2 308.901L217.7 307.801C216.7 307.501 216.5 306.101 217.4 305.501L220.4 303.401C220.7 303.201 221 302.801 221 302.301V298.601C220.9 297.801 222.1 297.101 223 297.801Z" fill="#FFB23E"/>
<path d="M221.4 326.8L223 328.101C223.2 328.301 223.4 328.3 223.7 328.2L225.7 327.601C226.3 327.401 226.8 328.001 226.6 328.601L225.9 330.5C225.8 330.7 225.8 331 226 331.2L227.2 332.9C227.5 333.4 227.2 334.1 226.6 334L224.5 333.9C224.3 333.9 224 334 223.9 334.2L222.6 335.8C222.2 336.3 221.5 336.1 221.3 335.5L220.8 333.5C220.7 333.3 220.6 333.1 220.3 333L218.4 332.3C217.8 332.1 217.7 331.3 218.3 331L220 329.9C220.2 329.8 220.3 329.6 220.3 329.3L220.4 327.2C220.2 326.8 220.9 326.4 221.4 326.8Z" fill="#FFB23E"/>
<path d="M266.6 306.701L268.2 310.001C268.4 310.401 268.7 310.701 269.2 310.701L272.8 311.302C273.9 311.502 274.3 312.801 273.5 313.501L270.8 316.001C270.5 316.301 270.3 316.702 270.4 317.102L270.9 320.701C271.1 321.801 269.9 322.501 269 322.001L265.8 320.201C265.4 320.001 265 320.001 264.6 320.201L261.3 321.802C260.3 322.302 259.3 321.501 259.5 320.401L260.2 316.802C260.3 316.402 260.2 316.001 259.9 315.701L257.3 313.102C256.5 312.302 257 311.001 258.1 310.901L261.7 310.401C262.1 310.301 262.5 310.101 262.7 309.701L264.4 306.501C264.8 305.701 266.2 305.801 266.6 306.701Z" fill="#FFB23E"/>
<path d="M250.4 283.802L250.9 285.802C251 286.002 251.1 286.202 251.4 286.302L253.4 287.002C254 287.202 254.1 288.002 253.6 288.302L251.9 289.402C251.7 289.502 251.6 289.802 251.6 290.002V292.102C251.6 292.702 250.9 293.002 250.4 292.702L248.8 291.402C248.6 291.302 248.4 291.202 248.1 291.302L246.1 291.902C245.5 292.102 245 291.502 245.2 290.902L245.9 289.002C246 288.802 246 288.502 245.8 288.302L244.6 286.602C244.3 286.102 244.6 285.402 245.2 285.502L247.3 285.602C247.5 285.602 247.8 285.502 247.9 285.302L249.2 283.702C249.5 283.002 250.2 283.202 250.4 283.802Z" fill="#FFB23E"/>
<path d="M283.2 245.301L284.8 246.601C285 246.801 285.2 246.801 285.5 246.701L287.5 246.101C288.1 245.901 288.6 246.501 288.4 247.101L287.7 249.001C287.6 249.201 287.6 249.501 287.8 249.701L289 251.401C289.3 251.901 289 252.601 288.4 252.501L286.3 252.401C286.1 252.401 285.8 252.501 285.7 252.701L284.4 254.301C284 254.801 283.3 254.601 283.1 254.001L282.6 252.001C282.5 251.801 282.4 251.601 282.1 251.501L280.2 250.801C279.6 250.601 279.5 249.801 280.1 249.501L281.8 248.401C282 248.301 282.1 248.101 282.1 247.801L282.2 245.701C282 245.201 282.7 244.901 283.2 245.301Z" fill="#FFB23E"/>
<path d="M110.3 370.301L110.8 382.5L302 334.9L296.8 323.9L110.3 370.301Z" fill="#FFB23E"/>
<path d="M108.3 243.701L239.1 211.201C255.5 207.101 272 217.101 276.1 233.501C280.2 249.901 270.2 266.401 253.8 270.501L123.1 303.001C106.7 307.101 90.2001 297.101 86.1001 280.701C82.0001 264.301 92.0001 247.801 108.3 243.701Z" fill="#FFFACC"/>
<path d="M222.3 235.8C206.8 239.7 191.1 230.2 187.3 214.7L159.2 130.9C156.2 131.4 153.3 132 150.3 132.7C147.3 133.4 144.4 134.3 141.6 135.2L156 222.4C159.9 237.9 150.4 253.6 134.9 257.4L110.8 263.4C101.9 265.6 93 265.1 85 262.3C105.2 294.3 148.3 310.6 191.9 299.8C235.5 289 265.9 254.3 268.8 216.6C263 222.8 255.4 227.4 246.5 229.6L222.3 235.8Z" fill="#FFFACC"/>
<path d="M159.1 131.001L187.2 214.801C191.1 230.301 206.7 239.701 222.2 235.901L246.3 229.901C255.2 227.701 262.8 223.101 268.6 216.901C269.2 208.901 268.6 200.801 266.6 192.701C255.8 149.001 208.8 122.701 159.1 131.001Z" fill="#DE8E45"/>
<path d="M134.8 257.6C150.3 253.7 159.7 238.1 155.9 222.6L141.5 135.4C93.8 151.4 64.6 196.7 75.4 240.2C77.4 248.3 80.7 255.8 84.9 262.5C92.9 265.2 101.9 265.8 110.7 263.6L134.8 257.6Z" fill="#DE8E45"/>
<path d="M128.5 252.801C138.883 252.801 147.3 244.384 147.3 234.001C147.3 223.618 138.883 215.201 128.5 215.201C118.117 215.201 109.7 223.618 109.7 234.001C109.7 244.384 118.117 252.801 128.5 252.801Z" fill="#FFFACC"/>
<path d="M128.5 247.1C135.735 247.1 141.6 241.235 141.6 234C141.6 226.765 135.735 220.9 128.5 220.9C121.265 220.9 115.4 226.765 115.4 234C115.4 241.235 121.265 247.1 128.5 247.1Z" fill="#770000"/>
<path d="M122.7 235.301C124.523 235.301 126 233.824 126 232.001C126 230.179 124.523 228.701 122.7 228.701C120.878 228.701 119.4 230.179 119.4 232.001C119.4 233.824 120.878 235.301 122.7 235.301Z" fill="#A32626"/>
<path d="M216.8 230.801C227.183 230.801 235.6 222.384 235.6 212.001C235.6 201.618 227.183 193.201 216.8 193.201C206.417 193.201 198 201.618 198 212.001C198 222.384 206.417 230.801 216.8 230.801Z" fill="#FFFACC"/>
<path d="M216.8 225.1C224.035 225.1 229.9 219.235 229.9 212C229.9 204.765 224.035 198.9 216.8 198.9C209.565 198.9 203.7 204.765 203.7 212C203.7 219.235 209.565 225.1 216.8 225.1Z" fill="#770000"/>
<path d="M221 210.901C222.822 210.901 224.3 209.423 224.3 207.601C224.3 205.778 222.822 204.301 221 204.301C219.177 204.301 217.7 205.778 217.7 207.601C217.7 209.423 219.177 210.901 221 210.901Z" fill="#A32626"/>
<path d="M176.9 239.902C169.3 241.802 161.6 237.202 159.7 229.502L187.3 222.602C189.1 230.302 184.5 238.002 176.9 239.902Z" fill="#770000"/>
<path d="M175.6 235.002C169.7 236.502 164.3 235.102 163.5 231.902L184.9 226.602C185.7 229.702 181.5 233.502 175.6 235.002Z" fill="#A32626"/>
<path d="M185.4 274.2C194.7 271.9 203.6 272.7 209.2 275.9C211.8 270.8 213 265 212.4 259.1C202.5 262.8 191.1 262.3 181.2 257C175.9 264.9 168.1 270.4 158.8 272.7C157.4 273 156 273.3 154.6 273.5C156.8 279 160.6 283.6 165.3 286.9C168.6 281.5 176.1 276.6 185.4 274.2Z" fill="#EBD2D2"/>
<path d="M189.7 291.401C198.5 289.201 205.4 283.401 209.2 276.001C203.7 272.801 194.8 271.901 185.4 274.301C176.1 276.601 168.6 281.501 165.2 287.001C172.1 291.701 180.9 293.601 189.7 291.401Z" fill="#CA6E91"/>
<path d="M163.5 267.101L172.9 264.801L174.1 269.501C174.7 272.101 173.2 274.701 170.6 275.401C168 276.001 165.4 274.501 164.7 271.901L163.5 267.101Z" fill="white"/>
<path d="M192 260.001L201.4 257.701L202.6 262.401C203.2 265.001 201.7 267.601 199.1 268.301C196.5 268.901 193.9 267.401 193.2 264.801L192 260.001Z" fill="white"/>
<path d="M230.9 240.501C230 239.901 228.8 240.201 228.2 241.201C224.2 247.801 218.3 252.601 211.6 255.301C202 259.101 190.9 258.601 181.4 252.901L179.7 251.901L178.7 253.601C174 261.401 166.5 266.901 157.7 269.101C156.2 269.501 154.7 269.701 153.2 269.901C145.8 270.701 138.4 269.101 131.9 265.201C131 264.601 129.8 264.901 129.2 265.901C128.6 266.801 128.9 268.001 129.9 268.601C137.4 273.101 145.9 274.901 154.4 273.701C155.8 273.501 157.2 273.201 158.6 272.901C167.8 270.601 175.7 265.101 181 257.201C190.9 262.501 202.3 263.001 212.2 259.301C220 256.401 226.9 251.001 231.5 243.301C232.2 242.201 231.9 241.001 230.9 240.501Z" fill="#D3CB90"/>
<path d="M130 195.201C133.7 194.301 137.4 196.501 138.3 200.201L139.9 206.801L133.3 208.401C129.6 209.301 125.9 207.101 125 203.401C124.1 199.801 126.3 196.101 130 195.201Z" fill="#FFFACC"/>
<path d="M200.6 191.7L194 193.3L192.4 186.7C191.5 183 193.7 179.3 197.4 178.4C201.1 177.5 204.8 179.7 205.7 183.4C206.5 187.1 204.3 190.8 200.6 191.7Z" fill="#FFFACC"/>
<path d="M204.7 120.101L142.4 36.4011L140.3 38.7011C140 39.0011 139.9 39.4011 140 39.9011L140.8 43.5011C141 44.5011 140 45.4011 139 45.0011L135.7 43.5011C135.3 43.3011 134.9 43.3011 134.5 43.6011L131.4 45.5011C130.5 46.0011 129.3 45.3011 129.5 44.2011L129.9 40.6011C129.9 40.2011 129.8 39.8011 129.5 39.5011L126.7 37.1011C125.9 36.4011 126.2 35.1011 127.3 34.9011L130.9 34.2011C131.3 34.1011 131.7 33.8011 131.8 33.4011L133.2 30.0011C133.6 29.0011 135 28.9011 135.5 29.9011L137.3 33.1011C137.5 33.5011 137.9 33.7012 138.3 33.8012L140.4 34.0011L122.1 9.40114C120.6 7.40114 117.5 8.20109 117.1 10.6011L114.5 27.5011L116 26.8012C116.5 26.5012 117.2 27.0011 117 27.6011L116.5 29.6011C116.4 29.8011 116.5 30.1012 116.7 30.3012L118.1 31.8012C118.5 32.2012 118.2 33.0011 117.6 33.0011L115.5 33.2011C115.3 33.2011 115 33.4011 114.9 33.6011L113.9 35.4011C113.7 35.7011 113.4 35.8011 113.1 35.7011L108.3 66.8012C108.4 66.8012 108.6 66.9011 108.7 67.0011L111.6 69.2011C111.9 69.5011 112.4 69.5011 112.8 69.4011L116.3 68.3012C117.3 68.0012 118.3 69.0011 117.9 70.0011L116.7 73.4011C116.6 73.8011 116.6 74.2011 116.9 74.6011L119 77.6011C119.6 78.5011 119 79.7011 117.9 79.6011L114.2 79.5011C113.8 79.5011 113.4 79.7011 113.1 80.0011L110.9 82.9011C110.3 83.8011 108.9 83.5011 108.6 82.5011L107.6 79.0011C107.5 78.6011 107.2 78.3011 106.8 78.1011L106.5 78.0011L95.9001 147.101L204.7 120.101Z" fill="#A977AB"/>
<path d="M107.9 79.0007L108.9 82.5007C109.2 83.5007 110.5 83.8008 111.2 82.9008L113.4 80.0007C113.6 79.7007 114.1 79.5007 114.5 79.5007L118.2 79.6007C119.3 79.6007 119.9 78.4007 119.3 77.6007L117.2 74.6007C117 74.3007 116.9 73.8008 117 73.4008L118.2 70.0007C118.6 69.0007 117.6 68.0008 116.6 68.3008L113.1 69.4008C112.7 69.5008 112.3 69.5007 111.9 69.2007L109 67.0007C108.9 66.9007 108.7 66.8008 108.6 66.8008L106.9 78.2007L107.2 78.3008C107.4 78.2008 107.8 78.6007 107.9 79.0007Z" fill="#FFB23E"/>
<path d="M137.3 33.0016L135.5 29.8017C135 28.9017 133.6 28.9017 133.2 29.9017L131.8 33.3017C131.6 33.7017 131.3 34.0016 130.9 34.1016L127.3 34.8017C126.3 35.0017 125.9 36.3016 126.7 37.0016L129.5 39.4017C129.8 39.7017 130 40.1016 129.9 40.5016L129.5 44.1016C129.4 45.2016 130.5 45.9017 131.4 45.4017L134.5 43.5016C134.9 43.3016 135.3 43.3017 135.7 43.4017L139 44.9017C140 45.3017 141 44.5017 140.8 43.4017L140 39.8017C139.9 39.4017 140 39.0016 140.3 38.6016L142.4 36.3017L140.4 33.6016L138.3 33.4017C137.9 33.6017 137.5 33.3016 137.3 33.0016Z" fill="#FFB23E"/>
<path d="M114.1 35.2014L115.1 33.4014C115.2 33.2014 115.4 33.1014 115.7 33.0014L117.8 32.8015C118.4 32.7015 118.7 32.0014 118.3 31.6014L116.9 30.1014C116.7 29.9014 116.7 29.7014 116.7 29.4014L117.2 27.4014C117.3 26.8014 116.7 26.3014 116.2 26.6014L114.7 27.3015L113.4 35.5014C113.6 35.6014 113.9 35.5014 114.1 35.2014Z" fill="#FFB23E"/>
<path d="M96.2 147.102L94.3 159.502L212.2 130.202L204.7 120.102L96.2 147.102Z" fill="#FFB23E"/>
<path d="M161.7 84.5011L163.9 87.4012C164.2 87.7012 164.6 87.9012 165 87.9012L168.6 87.7011C169.7 87.6011 170.3 88.8011 169.7 89.7011L167.6 92.7011C167.4 93.0011 167.3 93.5012 167.5 93.9012L168.8 97.3012C169.2 98.3012 168.3 99.3011 167.2 99.0011L163.7 98.0011C163.3 97.9011 162.9 98.0011 162.5 98.2011L159.7 100.501C158.9 101.201 157.6 100.601 157.6 99.5011L157.5 95.8012C157.5 95.4012 157.3 95.0012 156.9 94.8012L153.8 92.8012C152.9 92.2012 153.1 90.9011 154.1 90.5011L157.5 89.3012C157.9 89.2012 158.2 88.8012 158.3 88.4012L159.2 84.9012C159.7 83.9012 161 83.6011 161.7 84.5011Z" fill="#FFB23E"/>
<path d="M123.3 99.1012L126.4 101.001C126.8 101.201 127.2 101.201 127.6 101.101L130.9 99.6012C131.9 99.2012 132.9 100.001 132.7 101.101L131.9 104.701C131.8 105.101 131.9 105.501 132.2 105.901L134.7 108.601C135.4 109.401 134.9 110.701 133.9 110.801L130.3 111.101C129.9 111.101 129.5 111.401 129.3 111.701L127.5 114.901C127 115.801 125.6 115.701 125.2 114.801L123.8 111.401C123.6 111.001 123.3 110.701 122.9 110.601L119.3 109.901C118.3 109.701 117.9 108.401 118.7 107.701L121.5 105.301C121.8 105.001 122 104.601 121.9 104.201L121.5 100.601C121.2 99.3012 122.4 98.5012 123.3 99.1012Z" fill="#FFB23E"/>
<path d="M160.4 115.401L161.5 117.201C161.6 117.401 161.8 117.501 162.1 117.601L164.2 117.701C164.8 117.701 165.1 118.401 164.7 118.901L163.3 120.501C163.1 120.701 163.1 120.901 163.1 121.201L163.6 123.201C163.7 123.801 163.2 124.301 162.6 124.101L160.7 123.301C160.5 123.201 160.2 123.201 160 123.401L158.3 124.501C157.8 124.801 157.1 124.401 157.2 123.801L157.4 121.701C157.4 121.501 157.3 121.201 157.1 121.101L155.5 119.801C155 119.401 155.2 118.701 155.8 118.501L157.8 118.001C158 117.901 158.2 117.801 158.3 117.601L159.1 115.701C159.3 114.901 160.1 114.901 160.4 115.401Z" fill="#FFB23E"/>
<path d="M148 66.8015L148.4 68.8015C148.4 69.0015 148.6 69.2015 148.8 69.3015L150.7 70.1014C151.3 70.3014 151.3 71.1015 150.8 71.4015L149 72.4015C148.8 72.5015 148.7 72.7014 148.6 73.0014L148.4 75.1014C148.3 75.7014 147.6 76.0014 147.2 75.6014L145.7 74.2014C145.5 74.0014 145.3 74.0014 145 74.0014L143 74.5014C142.4 74.6014 141.9 74.0014 142.2 73.5014L143.1 71.6014C143.2 71.4014 143.2 71.1015 143.1 70.9015L142 69.1014C141.7 68.6014 142.1 67.9014 142.7 68.0014L144.8 68.2014C145 68.2014 145.3 68.1014 145.4 68.0014L146.8 66.4015C147.1 66.0015 147.8 66.2015 148 66.8015Z" fill="#FFB23E"/>
<path d="M111.4 128.801L113.2 129.901C113.4 130.001 113.7 130.001 113.9 129.901L115.8 129.001C116.3 128.701 117 129.201 116.8 129.801L116.3 131.801C116.2 132.001 116.3 132.301 116.5 132.501L117.9 134.001C118.3 134.401 118 135.201 117.4 135.201L115.3 135.401C115.1 135.401 114.8 135.601 114.7 135.801L113.7 137.601C113.4 138.101 112.6 138.101 112.4 137.501L111.6 135.601C111.5 135.401 111.3 135.201 111.1 135.201L109.1 134.801C108.5 134.701 108.3 133.901 108.8 133.501L110.4 132.101C110.6 131.901 110.7 131.701 110.6 131.501L110.4 129.401C110.3 128.901 110.9 128.501 111.4 128.801Z" fill="#FFB23E"/>
<path d="M86.7 207.701C72.8 207.201 62.5 179.601 63.6 146.101C64.4 122.501 77.4 102.501 85.1 92.7009C87.9 89.2009 93.3 89.3009 95.9 93.1009C102.9 103.401 114.6 124.301 113.8 147.801C112.7 181.301 100.5 208.201 86.7 207.701Z" fill="#DE8E45"/>
<path d="M241.5 169.2C253.5 162.3 249.7 133.1 233 103.9C221.3 83.5001 200.4 71.9002 189 66.8002C184.9 65.0002 180.2 67.7001 179.7 72.2001C178.3 84.6001 177.8 108.5 189.5 129C206.1 158.1 229.4 176.1 241.5 169.2Z" fill="#DE8E45"/>
<path d="M93.6001 148.3C92.1001 173 79.3002 192.2 79.3002 192.2C79.3002 192.2 68.9001 171.5 70.4001 146.9C71.9001 122.2 84.7001 103 84.7001 103C84.7001 103 95.1001 123.6 93.6001 148.3Z" fill="#EBD2D2"/>
<path d="M207.5 120.001C220.4 141.101 240.7 152.101 240.7 152.101C240.7 152.101 240.2 129.001 227.3 107.901C214.4 86.8008 194.1 75.8008 194.1 75.8008C194.1 75.8008 194.6 98.9007 207.5 120.001Z" fill="#EBD2D2"/>
<g opacity="0.82">
<path d="M51.2 232.202L49.2 213.402L39 226.402L20 200.602L15.4001 232.302L0.300049 225.602L7.30005 243.102C6.10005 246.302 5.80005 249.702 6.60005 253.002C9.20005 263.602 22.5 269.502 36.3 266.102C50 262.702 59 251.302 56.4001 240.602C55.6001 237.302 53.7 234.402 51.2 232.202Z" fill="#FF7336"/>
<path d="M41.8001 244.102L40.8001 235.202L36 241.302L27.1 229.102L24.9001 244.002L17.8 240.902L21.1 249.202C20.5 250.702 20.4 252.302 20.8 253.902C22 258.902 28.3 261.702 34.8 260.102C41.3 258.502 45.5001 253.102 44.3001 248.102C43.9001 246.502 43.0001 245.102 41.8001 244.102Z" fill="#FFB23E"/>
<path d="M328.1 163.301L326.1 144.501L315.9 157.501L297 131.701L292.4 163.401L277.3 156.701L284.3 174.201C283.1 177.401 282.8 180.801 283.6 184.101C286.2 194.701 299.5 200.601 313.3 197.201C327 193.801 336 182.401 333.4 171.701C332.5 168.401 330.7 165.601 328.1 163.301Z" fill="#FF7336"/>
<path d="M318.8 175.201L317.8 166.301L313 172.401L304.1 160.201L301.9 175.101L294.8 172.001L298.1 180.301C297.5 181.801 297.4 183.401 297.8 185.001C299 190.001 305.3 192.801 311.8 191.201C318.3 189.601 322.5 184.201 321.3 179.201C320.9 177.601 320 176.201 318.8 175.201Z" fill="#FFB23E"/>
</g>
<path d="M110.2 248.2L149.1 238.5L150.5 244.2C151 246.1 149.8 248 147.9 248.5L112.4 257.3L110.2 248.2Z" fill="#DE8E45"/>
<path d="M242.6 225.001L207.1 233.801C205.2 234.301 203.3 233.101 202.8 231.201L201.4 225.501L240.3 215.801L242.6 225.001Z" fill="#DE8E45"/>
<path d="M313.8 162.501C314.7 164.301 313.9 166.501 312.1 167.401L308.8 169.001L305.6 162.301L308.9 160.701C310.7 159.901 312.9 160.701 313.8 162.501Z" fill="#638237"/>
<path d="M318.7 169.801C320.3 171.001 320.7 173.301 319.5 174.901L317.3 177.901L311.3 173.601L313.5 170.601C314.7 169.001 317 168.701 318.7 169.801Z" fill="#638237"/>
<path d="M327 173.7C329 174.3 330.1 176.3 329.5 178.3L328.5 181.8L321.4 179.8L322.4 176.3C323 174.3 325 173.2 327 173.7Z" fill="#638237"/>
<path d="M354.6 109.5L337.9 134.6L358.8 135.5L354.6 109.5Z" fill="#F5EA83"/>
<path d="M352.2 111.5L323.1 119.2L338.2 133.8L352.2 111.5Z" fill="#F5EA83"/>
<path d="M352 106.5C353.7 106 355.5 107 356 108.7L364.4 136.9C364.9 138.6 363.9 140.4 362.2 140.9C360.5 141.4 358.7 140.4 358.2 138.7L349.8 110.5C349.3 108.8 350.3 107 352 106.5Z" fill="#94BC5C"/>
<path d="M355.3 108.6C355.8 110.3 354.8 112.1 353.1 112.6L324.9 121C323.2 121.5 321.4 120.5 320.9 118.8C320.4 117.1 321.4 115.3 323.1 114.8L351.3 106.4C353 105.9 354.8 106.9 355.3 108.6Z" fill="#94BC5C"/>
<path d="M354 110.801C354.9 111.501 355.1 112.701 354.5 113.601L339.9 134.101C339.2 135.001 338 135.201 337.1 134.601C336.2 133.901 336 132.701 336.6 131.801L351.2 111.301C351.8 110.301 353.1 110.101 354 110.801Z" fill="#94BC5C"/>
<path d="M337.1 121.301L328.2 150.101L348.4 145.001L337.1 121.301Z" fill="#F5EA83"/>
<path d="M335.4 123.9L309.7 139.5L328.2 149.2L335.4 123.9Z" fill="#F5EA83"/>
<path d="M389.3 163.7C370 163.6 354.1 179.2 354 198.6C354 202.1 356.8 205 360.4 205C363.9 205 366.8 202.2 366.8 198.6C366.9 186.3 376.9 176.4 389.2 176.4C392.7 176.4 395.6 173.6 395.6 170C395.6 166.6 392.8 163.7 389.3 163.7Z" fill="#94BC5C"/>
<path d="M387.2 152.102C406.4 150.002 423.8 163.802 425.9 183.102C426.3 186.602 423.8 189.802 420.3 190.202C416.8 190.602 413.6 188.102 413.2 184.602C411.8 172.402 400.8 163.602 388.6 164.902C385.1 165.302 381.9 162.802 381.5 159.302C381.2 155.602 383.7 152.502 387.2 152.102Z" fill="#94BC5C"/>
<path d="M374.3 190.901L329.5 193.301L334.7 160.701C337.3 144.001 351.3 131.501 368.1 130.601L402.1 128.801L403.7 158.201C404.6 175.401 391.4 190.001 374.3 190.901Z" fill="#B3D689"/>
<path d="M421.3 108.902C421.4 108.702 421.4 108.401 421.3 108.201L423.4 81.5015C423.5 80.0015 421.6 79.3015 420.7 80.5015L404.5 101.802C404.3 102.002 404.1 102.102 404.1 102.402C403.5 104.002 406.8 106.801 411.6 108.601C416.3 110.401 420.6 110.502 421.3 108.902Z" fill="#638237"/>
<path d="M402.6 170.5C423.2 170.5 439.9 153.801 439.9 133.2C439.9 112.6 423.2 95.9004 402.6 95.9004C382 95.9004 365.3 112.6 365.3 133.2C365.3 153.801 382 170.5 402.6 170.5Z" fill="#B3D689"/>
<path d="M416.6 114.301L435.9 113.301C453.3 112.401 468.1 125.701 469.1 143.101L469.2 145.001C469.7 154.101 462.7 161.801 453.6 162.301L419.2 164.101L416.6 114.301Z" fill="#B3D689"/>
<path d="M415.4 148.9L469.3 146L469.5 149.2L415.6 152.1C414.7 152.1 413.9 151.5 413.9 150.6C413.8 149.7 414.5 148.9 415.4 148.9Z" fill="#638237"/>
<path d="M401.4 140.1C408.635 140.1 414.5 134.235 414.5 127C414.5 119.765 408.635 113.9 401.4 113.9C394.165 113.9 388.3 119.765 388.3 127C388.3 134.235 394.165 140.1 401.4 140.1Z" fill="#FFFACC"/>
<path d="M424.2 122.101C429.391 122.101 433.6 117.892 433.6 112.701C433.6 107.509 429.391 103.301 424.2 103.301C419.008 103.301 414.8 107.509 414.8 112.701C414.8 117.892 419.008 122.101 424.2 122.101Z" fill="#FFFACC"/>
<path d="M409.268 128.29C409.967 123.983 407.042 119.925 402.735 119.226C398.428 118.527 394.37 121.452 393.671 125.759C392.972 130.065 395.897 134.123 400.204 134.822C404.511 135.521 408.569 132.596 409.268 128.29Z" fill="#638237"/>
<path d="M424.2 118.4C427.348 118.4 429.9 115.848 429.9 112.7C429.9 109.552 427.348 107 424.2 107C421.052 107 418.5 109.552 418.5 112.7C418.5 115.848 421.052 118.4 424.2 118.4Z" fill="#638237"/>
<path d="M446.7 135.501C448.412 135.501 449.8 134.113 449.8 132.401C449.8 130.689 448.412 129.301 446.7 129.301C444.988 129.301 443.6 130.689 443.6 132.401C443.6 134.113 444.988 135.501 446.7 135.501Z" fill="#638237"/>
<path d="M423.6 141.001C425.6 140.901 427.4 142.501 427.5 144.501L427.7 148.2L420.3 148.601L420.1 144.901C420 142.901 421.6 141.201 423.6 141.001Z" fill="#FFFACC"/>
<path d="M382.4 109.301C382.3 109.101 382.1 109.001 381.8 108.901L360.6 92.5008C359.4 91.6008 357.8 92.8008 358.3 94.2008L367.3 119.501C367.3 119.801 367.4 120.001 367.5 120.201C368.5 121.601 372.7 120.301 376.8 117.301C380.9 114.301 383.5 110.701 382.4 109.301Z" fill="#638237"/>
<path d="M398.9 127.8C400.225 127.8 401.3 126.726 401.3 125.4C401.3 124.075 400.225 123 398.9 123C397.575 123 396.5 124.075 396.5 125.4C396.5 126.726 397.575 127.8 398.9 127.8Z" fill="#81A549"/>
<path d="M425.7 111.101C426.473 111.101 427.1 110.474 427.1 109.701C427.1 108.927 426.473 108.301 425.7 108.301C424.927 108.301 424.3 108.927 424.3 109.701C424.3 110.474 424.927 111.101 425.7 111.101Z" fill="#81A549"/>
<path d="M331.3 193.301C312 194.301 295.4 179.401 294.4 160.101C294.2 156.601 296.9 153.601 300.4 153.401C303.9 153.201 306.9 155.901 307.1 159.401C307.7 171.701 318.3 181.101 330.5 180.501C334 180.301 337 183.001 337.2 186.501C337.5 190.101 334.8 193.101 331.3 193.301Z" fill="#B3D689"/>
<path d="M372.8 160.701C392 158.601 409.4 172.401 411.5 191.701C411.9 195.201 409.4 198.401 405.9 198.801C402.4 199.201 399.2 196.701 398.8 193.201C397.4 181.001 386.4 172.201 374.2 173.501C370.7 173.901 367.5 171.401 367.1 167.901C366.8 164.301 369.3 161.101 372.8 160.701Z" fill="#B3D689"/>
<path d="M373.6 170.401C354.3 170.301 338.4 185.901 338.3 205.301C338.3 208.801 341.1 211.701 344.7 211.701C348.2 211.701 351.1 208.901 351.1 205.301C351.2 193.001 361.2 183.101 373.5 183.101C377 183.101 379.9 180.301 379.9 176.701C379.9 173.101 377.1 170.401 373.6 170.401Z" fill="#B3D689"/>
<path d="M333.8 119.101C335.3 118.101 337.3 118.601 338.2 120.001L354.3 144.701C355.3 146.201 354.8 148.201 353.4 149.101C351.9 150.101 349.9 149.601 349 148.201L332.9 123.501C331.8 122.101 332.3 120.101 333.8 119.101Z" fill="#B3D689"/>
<path d="M337.5 120.2C338.5 121.7 338 123.7 336.6 124.6L311.9 140.7C310.4 141.7 308.4 141.2 307.5 139.8C306.5 138.3 307 136.3 308.4 135.4L333.1 119.3C334.6 118.3 336.6 118.8 337.5 120.2Z" fill="#B3D689"/>
<path d="M336.9 122.701C338 123.101 338.5 124.201 338.2 125.301L329.9 149.101C329.5 150.201 328.4 150.701 327.3 150.401C326.2 150.001 325.7 148.901 326 147.801L334.3 124.001C334.7 122.901 335.8 122.301 336.9 122.701Z" fill="#B3D689"/>
<path d="M461.6 514.901C467.6 518.201 475.2 516.101 478.5 510.101C481.8 504.101 479.7 496.501 473.7 493.201L464.9 488.301L454 510.701L461.6 514.901Z" fill="#91BCBB"/>
<path d="M394.6 477.8L454 510.7L464.9 488.2L406.7 456L394.6 477.8Z" fill="#ACBFBE"/>
<path d="M450.9 509.001L461.9 487.501C462.6 486.201 464.2 485.701 465.5 486.301C466.8 487.001 467.3 488.601 466.7 489.901L455.7 511.401C455 512.701 453.4 513.201 452.1 512.601C450.7 511.901 450.2 510.301 450.9 509.001Z" fill="#8BA5A3"/>
<path d="M244.3 503.501C238.8 507.701 237.8 515.501 242 520.901C246.2 526.401 254 527.401 259.4 523.201L267.4 517.101L251.2 498.201L244.3 503.501Z" fill="#91BCBB"/>
<path d="M305.1 457L251.2 498.2L267.4 517.2L320.3 476.8L305.1 457Z" fill="#ACBFBE"/>
<path d="M253.9 496L269.2 514.7C270.1 515.8 270 517.5 268.8 518.5C267.7 519.4 266 519.3 265 518.1L249.7 499.4C248.8 498.3 248.9 496.6 250.1 495.6C251.3 494.7 253 494.9 253.9 496Z" fill="#8BA5A3"/>
<path d="M242.2 524.901C244.188 524.901 245.8 523.289 245.8 521.301C245.8 519.313 244.188 517.701 242.2 517.701C240.212 517.701 238.6 519.313 238.6 521.301C238.6 523.289 240.212 524.901 242.2 524.901Z" fill="#91BCBB"/>
<path d="M239.5 519.2C241.488 519.2 243.1 517.588 243.1 515.6C243.1 513.612 241.488 512 239.5 512C237.512 512 235.9 513.612 235.9 515.6C235.9 517.588 237.512 519.2 239.5 519.2Z" fill="#91BCBB"/>
<path d="M247.2 528.601C249.188 528.601 250.8 526.989 250.8 525C250.8 523.012 249.188 521.4 247.2 521.4C245.212 521.4 243.6 523.012 243.6 525C243.6 526.989 245.212 528.601 247.2 528.601Z" fill="#91BCBB"/>
<path d="M316.5 574.4C325.171 574.4 332.2 567.371 332.2 558.7C332.2 550.029 325.171 543 316.5 543C307.829 543 300.8 550.029 300.8 558.7C300.8 567.371 307.829 574.4 316.5 574.4Z" fill="#91BCBB"/>
<path d="M310.1 576.901C312.806 576.901 315 574.708 315 572.001C315 569.295 312.806 567.102 310.1 567.102C307.394 567.102 305.2 569.295 305.2 572.001C305.2 574.708 307.394 576.901 310.1 576.901Z" fill="#91BCBB"/>
<path d="M303.6 571.501C306.306 571.501 308.5 569.308 308.5 566.601C308.5 563.895 306.306 561.701 303.6 561.701C300.894 561.701 298.7 563.895 298.7 566.601C298.7 569.308 300.894 571.501 303.6 571.501Z" fill="#91BCBB"/>
<path d="M318.5 578.601C321.206 578.601 323.4 576.407 323.4 573.701C323.4 570.994 321.206 568.801 318.5 568.801C315.794 568.801 313.6 570.994 313.6 573.701C313.6 576.407 315.794 578.601 318.5 578.601Z" fill="#91BCBB"/>
<path d="M424.9 519.601L427.1 486.901L283.8 477.301L281.6 510.001C281.2 515.401 282 520.601 283.7 525.401L420.8 534.601C423.1 530.101 424.6 525.001 424.9 519.601Z" fill="#ACBFBE"/>
<path d="M283.7 525.4C288.7 539.5 301.7 550.001 317.5 551.101L383.8 555.601C399.7 556.701 413.9 548 420.7 534.7L283.7 525.4Z" fill="#B7D6D6"/>
<path d="M330.9 513.101L276.3 509.401L282.8 482.701L344.7 486.901L343.7 501.901C343.2 508.601 337.5 513.601 330.9 513.101Z" fill="#8BA5A3"/>
<path d="M375.6 516.101L430.2 519.801L427.3 492.501L365.4 488.301L364.4 503.301C364 510.001 369 515.701 375.6 516.101Z" fill="#8BA5A3"/>
<path d="M447.8 497.9L261.8 485.4L285.9 453.4L428.2 463L447.8 497.9Z" fill="#A61E00"/>
<path d="M336.3 216.6C334.6 225.9 340.7 234.8 350 236.5C359.3 238.2 368.2 232.1 369.9 222.8C371.8 212.4 381.9 205.5 392.3 207.4C401.6 209.1 410.5 203 412.2 193.7C413.9 184.4 407.8 175.5 398.5 173.8C369.7 168.4 341.7 187.6 336.3 216.6Z" fill="#A61E00"/>
<path d="M359.4 239.202C374.754 239.202 387.2 226.755 387.2 211.402C387.2 196.048 374.754 183.602 359.4 183.602C344.047 183.602 331.6 196.048 331.6 211.402C331.6 226.755 344.047 239.202 359.4 239.202Z" fill="#A61E00"/>
<path d="M409.423 256.316C410.972 233.226 391.277 213.102 365.432 211.367C339.587 209.632 317.379 226.944 315.829 250.034C314.279 273.124 333.975 293.248 359.82 294.983C385.665 296.717 407.873 279.406 409.423 256.316Z" fill="#A61E00"/>
<path d="M268.8 246.401L262.3 315.601L340.2 279.801L283.5 239.601C277.6 235.501 269.4 239.301 268.8 246.401Z" fill="#B7D6D6"/>
<path d="M280 266.701L280.8 307.101L321.7 288.301L291.5 261.401C287.1 257.301 279.9 260.601 280 266.701Z" fill="#DB9EB7"/>
<path d="M473.5 260.201L470.6 329.601L398.2 283.701L459.7 251.501C466.1 248.101 473.8 253.001 473.5 260.201Z" fill="#B7D6D6"/>
<path d="M459.6 278.8L453.4 318.8L415.3 294.7L448.8 272C453.9 268.5 460.5 272.8 459.6 278.8Z" fill="#DB9EB7"/>
<path d="M484.326 379.199C488.328 319.573 437.384 267.6 370.539 263.114C303.694 258.627 246.262 303.326 242.26 362.952C238.258 422.578 289.202 474.551 356.047 479.038C422.892 483.524 480.324 438.825 484.326 379.199Z" fill="#ACBFBE"/>
<path d="M446.9 294.301L373.9 212.701L290.6 283.801C306.8 277.801 336.2 274.901 369.5 277.201C402.8 279.401 431.6 286.101 446.9 294.301Z" fill="#ACBFBE"/>
<path d="M446.3 302.801L373.3 221.201L290 292.301C306.2 286.301 335.6 283.401 368.9 285.701C402.2 288.001 431 294.701 446.3 302.801Z" fill="#8BA5A3"/>
<path d="M372.7 229.102L367.7 233.302L364.6 278.902C366.2 279.002 367.7 279.102 369.3 279.202C370.9 279.302 372.5 279.402 374 279.602L377.1 234.002L372.7 229.102Z" fill="#0D3F41"/>
<path d="M390.8 248.801L388.6 281.201C391.1 281.501 393.5 281.901 395.8 282.301L397.6 256.201L390.8 248.801Z" fill="#0D3F41"/>
<path d="M380.8 237.801L378 279.901C380.3 280.101 382.6 280.401 384.8 280.701L387.2 244.901L380.8 237.801Z" fill="#0D3F41"/>
<path d="M356.3 242.702L353.9 278.502C356.2 278.502 358.4 278.602 360.8 278.702L363.6 236.602L356.3 242.702Z" fill="#0D3F41"/>
<path d="M332.6 262.502L331.5 279.402C333.9 279.202 336.4 279.002 338.9 278.902L340.4 256.102L332.6 262.502Z" fill="#0D3F41"/>
<path d="M401.2 260.102L399.7 282.902C402.2 283.402 404.6 283.902 407 284.402L408.1 267.502L401.2 260.102Z" fill="#0D3F41"/>
<path d="M430.9 292.602L411.6 271.602L410.7 285.402C419 287.502 425.9 289.902 430.9 292.602Z" fill="#0D3F41"/>
<path d="M306.6 284.2C312 282.3 319.1 280.8 327.6 279.8L328.5 266L306.6 284.2Z" fill="#0D3F41"/>
<path d="M344.5 252.601L342.7 278.701C345.1 278.601 347.5 278.601 350 278.601L352.2 246.201L344.5 252.601Z" fill="#0D3F41"/>
<path d="M384.6 282.701L388.5 283.001L388.6 281.201C387.3 281.001 386 280.901 384.8 280.701L384.6 282.701Z" fill="#8BA5A3"/>
<path d="M421.6 316.801L420.4 335.401C420 341.601 414.6 346.301 408.4 345.901C402.2 345.501 397.5 340.101 397.9 333.901L399.7 307.401C395 305.901 390.2 304.701 385.2 303.701L382.4 345.601C381.8 354.701 374 361.501 364.9 360.901C355.8 360.301 349 352.501 349.6 343.401L352.4 301.201C346.7 301.501 341 302.101 335.6 303.001L333.8 329.501C333.4 335.701 328 340.401 321.8 340.001C315.6 339.601 310.9 334.201 311.3 328.001L312.5 309.401C279.9 322.001 256.8 347.701 254.8 378.701C254.1 388.701 255.7 398.401 259.1 407.601C262.9 405.801 267.2 405.001 271.6 405.301C285.8 406.201 296.5 418.501 295.5 432.601C295.1 438.001 293.1 442.901 289.9 446.901C307.6 460.001 330.7 468.701 356.4 470.401C382.1 472.101 406.1 466.601 425.4 456.001C422.8 451.701 421.4 446.501 421.8 441.101C422.7 426.901 435 416.201 449.1 417.201C453.6 417.501 457.7 418.901 461.2 421.201C465.8 412.601 468.7 403.101 469.4 393.101C471.6 362.101 452.2 333.601 421.6 316.801Z" fill="#B7D6D6"/>
<path d="M364.9 360.902C374 361.502 381.8 354.702 382.4 345.602L385.2 303.702C379.6 302.602 373.8 301.802 367.9 301.402C362.7 301.102 357.5 301.002 352.4 301.202L349.6 343.402C349 352.502 355.8 360.302 364.9 360.902Z" fill="#8BCCCA"/>
<path d="M408.4 345.801C414.6 346.201 420 341.501 420.4 335.301L421.6 316.701C414.8 313.001 407.5 309.801 399.7 307.301L397.9 333.801C397.5 340.101 402.2 345.401 408.4 345.801Z" fill="#8BCCCA"/>
<path d="M321.8 340C328 340.4 333.4 335.7 333.8 329.5L335.6 303C327.5 304.4 319.8 306.6 312.6 309.4L311.4 328C310.9 334.2 315.6 339.6 321.8 340Z" fill="#8BCCCA"/>
<path d="M271.7 405.301C267.2 405.001 263 405.901 259.2 407.601C264.9 422.701 275.7 436.301 290.1 446.901C293.3 443.001 295.3 438.001 295.7 432.601C296.6 418.501 285.9 406.301 271.7 405.301Z" fill="#72B0BA"/>
<path d="M461.4 421.201C457.9 419.001 453.8 417.501 449.3 417.201C435.1 416.301 422.9 427.001 422 441.101C421.6 446.501 423 451.701 425.6 456.001C441.2 447.501 453.7 435.501 461.4 421.201Z" fill="#72B0BA"/>
<path d="M407.8 214.2C413.268 214.2 417.7 209.768 417.7 204.3C417.7 198.833 413.268 194.4 407.8 194.4C402.332 194.4 397.9 198.833 397.9 204.3C397.9 209.768 402.332 214.2 407.8 214.2Z" fill="#A61E00"/>
<path d="M359.7 423.201C351.2 422.601 344.8 415.301 345.4 406.801L376.1 408.901C375.5 417.301 368.2 423.801 359.7 423.201Z" fill="#0D3F41"/>
<path d="M360.1 417.7C353.5 417.3 348.4 414 348.6 410.5L372.4 412.1C372.2 415.6 366.7 418.1 360.1 417.7Z" fill="#1C6666"/>
<path d="M331 362.601C335.3 362.901 338.6 366.601 338.3 371.001L337.8 378.901L329.9 378.401C325.6 378.101 322.3 374.401 322.6 370.001C322.9 365.601 326.7 362.301 331 362.601Z" fill="#0D3F41"/>
<path d="M395.2 382.701L387.3 382.201L387.8 374.301C388.1 370.001 391.8 366.701 396.2 367.001C400.5 367.301 403.8 371.001 403.5 375.401C403.3 379.701 399.5 383.001 395.2 382.701Z" fill="#0D3F41"/>
<path d="M335.6 408.5C335.6 408.5 314.7 417.2 296.3 409.7C277.8 402.3 268.8 381.5 268.8 381.5C268.8 381.5 289.7 372.8 308.1 380.3C326.6 387.8 335.6 408.5 335.6 408.5Z" fill="#FFFACC"/>
<path d="M302.2 409.901C310.429 409.901 317.1 403.231 317.1 395.001C317.1 386.772 310.429 380.102 302.2 380.102C293.971 380.102 287.3 386.772 287.3 395.001C287.3 403.231 293.971 409.901 302.2 409.901Z" fill="#0D3F41"/>
<path d="M299.1 394.601C301.917 394.601 304.2 392.317 304.2 389.5C304.2 386.684 301.917 384.4 299.1 384.4C296.283 384.4 294 386.684 294 389.5C294 392.317 296.283 394.601 299.1 394.601Z" fill="#1C6666"/>
<path d="M385.6 411.9C385.6 411.9 405.1 423.3 424.4 418.4C443.7 413.5 455.4 394.1 455.4 394.1C455.4 394.1 435.9 382.7 416.6 387.6C397.3 392.5 385.6 411.9 385.6 411.9Z" fill="#FFFACC"/>
<path d="M342.4 447.601C344.2 454.601 350.3 460.001 357.9 460.501C365.5 461.001 372.3 456.501 375 449.801C369.2 447.901 363.8 444.701 359.3 440.201C354.2 444.001 348.4 446.501 342.4 447.601Z" fill="#DB9EB7"/>
<path d="M413.3 438.101C412.3 437.001 410.6 436.901 409.5 437.801C402.7 443.801 393.9 446.701 384.8 446.101C381.8 445.901 378.9 445.3 376.1 444.4C370.5 442.5 365.4 439.201 361.4 434.601L359.6 432.601L357.6 434.4C353 438.4 347.6 441.1 341.7 442.2C338.8 442.8 335.9 443.001 332.9 442.801C323.8 442.201 315.6 438.1 309.6 431.2C308.6 430.1 306.9 430 305.8 430.9C304.7 431.9 304.6 433.6 305.5 434.7C314.9 445.5 329 449.901 342.2 447.501C348.2 446.401 354 444.001 359.1 440.101C363.6 444.601 369.1 447.9 374.8 449.7C377.9 450.7 381.1 451.301 384.3 451.501C394.4 452.201 404.7 449 412.9 441.9C414.2 441 414.3 439.301 413.3 438.101Z" fill="#26515B"/>
<path d="M281 310.1C283.927 310.1 286.3 307.727 286.3 304.8C286.3 301.873 283.927 299.5 281 299.5C278.073 299.5 275.7 301.873 275.7 304.8C275.7 307.727 278.073 310.1 281 310.1Z" fill="#CCD6D5"/>
<path d="M272.9 317.001C274.944 317.001 276.6 315.345 276.6 313.302C276.6 311.258 274.944 309.602 272.9 309.602C270.857 309.602 269.2 311.258 269.2 313.302C269.2 315.345 270.857 317.001 272.9 317.001Z" fill="#CCD6D5"/>
<path d="M477.2 365.101C479.243 365.101 480.9 363.445 480.9 361.401C480.9 359.358 479.243 357.701 477.2 357.701C475.157 357.701 473.5 359.358 473.5 361.401C473.5 363.445 475.157 365.101 477.2 365.101Z" fill="#CCD6D5"/>
<path d="M403.8 403.8L435 394.6C437.1 394 439.2 395.2 439.8 397.2C440.4 399.3 439.2 401.4 437.2 402L406 411.2C403.9 411.8 401.8 410.6 401.2 408.6C400.6 406.6 401.8 404.4 403.8 403.8Z" fill="#0D3F41"/>
<path d="M429 398.601L435.1 396.801C436 396.501 437 397.101 437.3 398.001C437.6 398.901 437 399.901 436.1 400.201L430 402.001C429.1 402.301 428.1 401.701 427.8 400.801C427.5 399.901 428.1 398.901 429 398.601Z" fill="#1C6666"/>
<path d="M370.4 499.7C371 490.8 364.3 483.2 355.4 482.6C346.5 482 338.9 488.7 338.3 497.6C337.7 505.9 343.6 513.1 351.6 514.5L351.9 509.8C350.2 509 349 507.2 349.1 505.1C349.3 502.5 351.6 500.5 354.2 500.6C356.8 500.8 358.8 503.1 358.7 505.7C358.6 507.7 357.2 509.4 355.3 510L355 514.7C363.1 514.3 369.8 507.9 370.4 499.7Z" fill="#F5EA83"/>
<path d="M358.7 505.702C358.9 503.102 356.9 500.802 354.2 500.602C351.6 500.402 349.3 502.402 349.1 505.102C349 507.102 350.1 509.002 351.9 509.802L351.6 514.502C352.2 514.602 352.7 514.702 353.3 514.702C353.9 514.702 354.5 514.702 355 514.702L355.3 510.002C357.1 509.402 358.5 507.702 358.7 505.702Z" fill="#FFB23E"/>
<path d="M345.6 493.401C346.87 493.401 347.9 492.371 347.9 491.101C347.9 489.831 346.87 488.801 345.6 488.801C344.33 488.801 343.3 489.831 343.3 491.101C343.3 492.371 344.33 493.401 345.6 493.401Z" fill="#FCF8DB"/>
<path d="M342.5 535.8L292.7 556.4C288 558.4 282.8 554.7 283.2 549.6L284.4 532L342.5 535.8Z" fill="#617A78"/>
<path d="M361.1 537L407.7 564C412.1 566.6 417.7 563.6 418 558.5L419.2 540.9L361.1 537Z" fill="#617A78"/>
<path d="M283.8 525.4L420.7 534.6C422.5 534.7 423.8 536.2 423.7 538C423.6 539.8 422.1 541.1 420.3 541L283.4 531.8C281.6 531.7 280.3 530.2 280.4 528.4C280.5 526.6 282 525.3 283.8 525.4Z" fill="#8BA5A3"/>
<path d="M388.1 579.101C396.771 579.101 403.8 572.072 403.8 563.401C403.8 554.73 396.771 547.701 388.1 547.701C379.429 547.701 372.4 554.73 372.4 563.401C372.4 572.072 379.429 579.101 388.1 579.101Z" fill="#91BCBB"/>
<path d="M398.892 550.721C399.325 548.05 397.511 545.533 394.84 545.1C392.168 544.666 389.652 546.48 389.218 549.151C388.785 551.823 390.599 554.34 393.27 554.773C395.941 555.207 398.458 553.393 398.892 550.721Z" fill="#91BCBB"/>
<path d="M400.8 560.001C403.506 560.001 405.7 557.808 405.7 555.101C405.7 552.395 403.506 550.201 400.8 550.201C398.094 550.201 395.9 552.395 395.9 555.101C395.9 557.808 398.094 560.001 400.8 560.001Z" fill="#91BCBB"/>
<path d="M385.7 553.401C388.406 553.401 390.6 551.208 390.6 548.501C390.6 545.795 388.406 543.602 385.7 543.602C382.994 543.602 380.8 545.795 380.8 548.501C380.8 551.208 382.994 553.401 385.7 553.401Z" fill="#91BCBB"/>
<path d="M385.7 550.401C386.749 550.401 387.6 549.551 387.6 548.501C387.6 547.452 386.749 546.602 385.7 546.602C384.65 546.602 383.8 547.452 383.8 548.501C383.8 549.551 384.65 550.401 385.7 550.401Z" fill="#DB9EB7"/>
<path d="M394.1 551.8C395.15 551.8 396 550.949 396 549.9C396 548.851 395.15 548 394.1 548C393.051 548 392.2 548.851 392.2 549.9C392.2 550.949 393.051 551.8 394.1 551.8Z" fill="#DB9EB7"/>
<path d="M400.8 557.001C401.849 557.001 402.7 556.151 402.7 555.101C402.7 554.052 401.849 553.201 400.8 553.201C399.751 553.201 398.9 554.052 398.9 555.101C398.9 556.151 399.751 557.001 400.8 557.001Z" fill="#DB9EB7"/>
<path d="M398.204 566.276C400.053 562.081 397.29 556.803 392.034 554.487C386.778 552.171 381.019 553.694 379.17 557.889C377.322 562.084 380.085 567.362 385.341 569.678C390.597 571.994 396.356 570.47 398.204 566.276Z" fill="#DB9EB7"/>
<path d="M541.6 376.601L479.9 464.301L490 471.401L564 366.201L541.6 376.601Z" fill="#89BEAA"/>
<path d="M561.8 390.701L564 366.201L490 471.401L500.1 478.401L561.8 390.701Z" fill="#B7D6D6"/>
<path d="M512.243 469.577L483.535 510.391L486.48 512.462L515.187 471.649L512.243 469.577Z" fill="#FF7F00"/>
<path d="M499.9 521.901L486.5 512.501L494.6 500.901L483.5 493.101L495.8 475.601L506.9 483.401L515.2 471.701L523.1 488.901L499.9 521.901Z" fill="#FBA036"/>
<path d="M452.5 488.501L444.4 471.601L467.9 438.201L481.3 447.601L473 459.301L484.1 467.101L471.8 484.601L460.7 476.801L452.5 488.501Z" fill="#FBA036"/>
<path d="M471.603 484.678L454.344 509.215L466.367 517.672L483.626 493.135L471.603 484.678Z" fill="#5B619B"/>
<path d="M495.9 472.902L486.5 466.302C485.7 465.702 484.6 465.602 483.7 466.002L473.3 470.802C472.4 471.202 471.8 472.102 471.7 473.102L470.7 484.502C470.6 485.502 471.1 486.502 471.9 487.102L481.3 493.702C482.1 494.302 483.2 494.402 484.1 494.002L494.5 489.202C495.4 488.802 496 487.902 496.1 486.902L497.1 475.502C497.2 474.502 496.8 473.502 495.9 472.902Z" fill="#FFDA40"/>
<path d="M490.1 472L489.4 471.5C486.7 469.6 483.1 469.3 480 470.7L479.2 471.1C476.2 472.5 474.1 475.4 473.8 478.8L473.7 479.7C473.4 483 474.9 486.3 477.7 488.2L478.4 488.7C481.1 490.6 484.7 490.9 487.8 489.5L488.6 489.1C491.6 487.7 493.7 484.8 494 481.4L494.1 480.5C494.4 477.2 492.9 473.9 490.1 472Z" fill="#45B236"/>
<path d="M468.563 484.325L466.089 487.842L482.529 499.405L485.003 495.888L468.563 484.325Z" fill="#FFDA40"/>
<path d="M449.5 513.301C446.6 517.401 447.6 523.001 451.7 525.901C455.8 528.801 461.4 527.801 464.3 523.701C464.7 523.101 465 522.601 465.3 522.001L450.9 511.801C450.3 512.301 449.9 512.701 449.5 513.301Z" fill="#398729"/>
<path d="M465.8 517.201L455.1 509.602L452.2 507.602L449.8 511.102L450.8 511.802L465.2 522.001L466.2 522.701L468.7 519.201L465.8 517.201Z" fill="#FFDA40"/>
<path d="M455.6 520.301L461 519.101L454.9 514.701L455.6 520.301Z" fill="#FFDA40"/>
<path d="M461.2 524.2L466.2 522.7L461 519L461.2 524.2Z" fill="#FFDA40"/>
<path d="M450 516.302L455 514.802L449.8 511.102L450 516.302Z" fill="#FFDA40"/>
<path d="M455.186 504.637L452.712 508.154L467.925 518.855L470.399 515.338L455.186 504.637Z" fill="#FBA036"/>
<path d="M458.286 503.643L457.711 504.461L469.734 512.918L470.31 512.1L458.286 503.643Z" fill="#495189"/>
<path d="M467.594 490.432L467.019 491.25L479.042 499.707L479.617 498.889L467.594 490.432Z" fill="#495189"/>
<path d="M460.125 500.934L459.55 501.752L471.573 510.209L472.148 509.391L460.125 500.934Z" fill="#495189"/>
<path d="M461.983 498.364L461.407 499.182L473.43 507.639L474.006 506.821L461.983 498.364Z" fill="#495189"/>
<path d="M463.899 495.713L463.324 496.531L475.347 504.988L475.922 504.17L463.899 495.713Z" fill="#495189"/>
<path d="M465.737 493.004L465.162 493.822L477.185 502.279L477.76 501.461L465.737 493.004Z" fill="#495189"/>
<path d="M458.9 526.101C459.507 526.101 460 525.608 460 525C460 524.393 459.507 523.9 458.9 523.9C458.292 523.9 457.8 524.393 457.8 525C457.8 525.608 458.292 526.101 458.9 526.101Z" fill="#A6F498"/>
<path d="M490 475.602L486 472.802C485.2 472.202 484.1 472.102 483.1 472.502L478.6 474.602C477.7 475.002 477 475.902 476.9 476.902L476.5 481.802C476.4 482.802 476.9 483.802 477.7 484.402L481.7 487.202C482.5 487.802 483.6 487.902 484.6 487.502L489.1 485.402C490 485.002 490.7 484.102 490.8 483.102L491.2 478.202C491.3 477.202 490.8 476.202 490 475.602Z" fill="#409E30"/>
<path d="M487.4 476.801L485.7 475.601C484.9 475.001 483.8 474.901 482.8 475.301L481 476.2C480.1 476.6 479.4 477.5 479.3 478.5L479.1 480.5C479 481.5 479.5 482.501 480.3 483.101L482 484.301C482.8 484.901 483.9 485.001 484.9 484.601L486.7 483.7C487.6 483.3 488.3 482.4 488.4 481.4L488.6 479.4C488.7 478.4 488.2 477.401 487.4 476.801Z" fill="#398729"/>
<path d="M484.7 474C485.529 474 486.2 473.328 486.2 472.5C486.2 471.672 485.529 471 484.7 471C483.872 471 483.2 471.672 483.2 472.5C483.2 473.328 483.872 474 484.7 474Z" fill="#62D34F"/>
<path d="M481.4 474.1C481.842 474.1 482.2 473.742 482.2 473.3C482.2 472.858 481.842 472.5 481.4 472.5C480.958 472.5 480.6 472.858 480.6 473.3C480.6 473.742 480.958 474.1 481.4 474.1Z" fill="#62D34F"/>
<path d="M446.6 476.201L444.4 471.601L467.9 438.301L471.5 440.801L446.6 476.201Z" fill="#FF7F00"/>
<path d="M473.2 510.201C475.243 510.201 476.9 508.544 476.9 506.501C476.9 504.457 475.243 502.801 473.2 502.801C471.157 502.801 469.5 504.457 469.5 506.501C469.5 508.544 471.157 510.201 473.2 510.201Z" fill="#91BCBB"/>
<path d="M468.4 514.4C470.444 514.4 472.1 512.743 472.1 510.7C472.1 508.656 470.444 507 468.4 507C466.357 507 464.7 508.656 464.7 510.7C464.7 512.743 466.357 514.4 468.4 514.4Z" fill="#91BCBB"/>
<path d="M475.6 504.201C477.643 504.201 479.3 502.544 479.3 500.501C479.3 498.457 477.643 496.801 475.6 496.801C473.556 496.801 471.9 498.457 471.9 500.501C471.9 502.544 473.556 504.201 475.6 504.201Z" fill="#91BCBB"/>
<path d="M403.6 485.702L436.5 487.902C437.9 488.002 439 489.202 438.9 490.702C438.8 492.102 437.6 493.202 436.1 493.102L403.2 490.902C401.8 490.802 400.7 489.602 400.8 488.102C400.9 486.702 402.1 485.602 403.6 485.702Z" fill="#C9361F"/>
<path d="M414.656 483.741L413.926 494.617L417.518 494.858L418.248 483.982L414.656 483.741Z" fill="#A61E00"/>
<path d="M276.1 477.202L279.1 477.402C280.5 477.502 281.6 478.702 281.5 480.202C281.4 481.602 280.2 482.702 278.7 482.602L275.7 482.402C274.3 482.302 273.2 481.102 273.3 479.602C273.5 478.202 274.7 477.102 276.1 477.202Z" fill="#C9361F"/>
<path d="M349.8 210.9C353.942 210.9 357.3 207.543 357.3 203.4C357.3 199.258 353.942 195.9 349.8 195.9C345.658 195.9 342.3 199.258 342.3 203.4C342.3 207.543 345.658 210.9 349.8 210.9Z" fill="#C9361F"/>
<path d="M339.6 217.102C341.533 217.102 343.1 215.535 343.1 213.602C343.1 211.669 341.533 210.102 339.6 210.102C337.667 210.102 336.1 211.669 336.1 213.602C336.1 215.535 337.667 217.102 339.6 217.102Z" fill="#C9361F"/>
<path d="M407.7 209.5C409.246 209.5 410.5 208.247 410.5 206.7C410.5 205.154 409.246 203.9 407.7 203.9C406.154 203.9 404.9 205.154 404.9 206.7C404.9 208.247 406.154 209.5 407.7 209.5Z" fill="#C9361F"/>
</svg>
