<svg width="455" height="133" viewBox="0 0 455 133" fill="none" xmlns="http://www.w3.org/2000/svg">
<path d="M206.3 0.652344L144.2 132.952H185.3L247.55 0.652344H206.3Z" fill="#FFB23E"/>
<path d="M136.399 0.652344L74.1494 132.952H144.199L206.299 0.652344H136.399Z" fill="#F5EA83"/>
<path d="M247.55 0.652344L185.3 132.952H240.65L302.9 0.652344H247.55Z" fill="#F5EA83"/>
<path d="M388.4 0.652344H313.25H302.9H136.4H117.35H66.65C30.05 0.652344 0.5 30.2021 0.5 66.8021C0.5 103.402 30.05 132.952 66.65 132.952H74.15H240.65H262.55H388.55C425.15 132.952 454.7 103.402 454.7 66.8021C454.7 30.2021 425 0.652344 388.4 0.652344ZM77.75 125.452L132.95 8.0022H299.45L244.25 125.452H77.75Z" fill="#FFB23E"/>
<path d="M48.8282 86.2092C46.0097 86.2092 43.3949 85.7678 40.9839 84.8849C38.6068 83.968 36.5354 82.6776 34.7696 81.0136C33.0377 79.3497 31.6794 77.3971 30.6946 75.1559C29.7098 72.8807 29.2175 70.3848 29.2175 67.6682C29.2175 64.9515 29.7098 62.4726 30.6946 60.2314C31.6794 57.9562 33.0377 55.9866 34.7696 54.3227C36.5354 52.6588 38.6068 51.3853 40.9839 50.5024C43.3949 49.5856 46.0097 49.1271 48.8282 49.1271C52.1221 49.1271 55.0595 49.7044 57.6403 50.859C60.255 52.0136 62.4283 53.6775 64.1602 55.8508L57.7421 61.6576C56.5876 60.2993 55.3141 59.2636 53.9219 58.5505C52.5635 57.8373 51.0354 57.4808 49.3375 57.4808C47.8773 57.4808 46.536 57.7185 45.3135 58.1939C44.091 58.6693 43.0383 59.3654 42.1554 60.2823C41.3065 61.1652 40.6273 62.2349 40.118 63.4913C39.6425 64.7478 39.4048 66.1401 39.4048 67.6682C39.4048 69.1963 39.6425 70.5886 40.118 71.845C40.6273 73.1014 41.3065 74.1881 42.1554 75.105C43.0383 75.9879 44.091 76.667 45.3135 77.1424C46.536 77.6178 47.8773 77.8556 49.3375 77.8556C51.0354 77.8556 52.5635 77.499 53.9219 76.7859C55.3141 76.0728 56.5876 75.037 57.7421 73.6787L64.1602 79.4855C62.4283 81.6249 60.255 83.2888 57.6403 84.4774C55.0595 85.6319 52.1221 86.2092 48.8282 86.2092ZM85.8915 86.2092C83.0391 86.2092 80.4073 85.7508 77.9963 84.8339C75.5853 83.917 73.4799 82.6266 71.6801 80.9627C69.9143 79.2648 68.539 77.2952 67.5543 75.054C66.5695 72.8128 66.0771 70.3508 66.0771 67.6682C66.0771 64.9855 66.5695 62.5235 67.5543 60.2823C68.539 58.0411 69.9143 56.0885 71.6801 54.4246C73.4799 52.7267 75.5853 51.4193 77.9963 50.5024C80.4073 49.5856 83.0391 49.1271 85.8915 49.1271C88.778 49.1271 91.4097 49.5856 93.7868 50.5024C96.1978 51.4193 98.2862 52.7267 100.052 54.4246C101.818 56.0885 103.193 58.0411 104.178 60.2823C105.197 62.5235 105.706 64.9855 105.706 67.6682C105.706 70.3508 105.197 72.8298 104.178 75.105C103.193 77.3462 101.818 79.2988 100.052 80.9627C98.2862 82.6266 96.1978 83.917 93.7868 84.8339C91.4097 85.7508 88.778 86.2092 85.8915 86.2092ZM85.8915 77.8556C87.2499 77.8556 88.5063 77.6178 89.6609 77.1424C90.8494 76.667 91.8681 75.9879 92.7171 75.105C93.6 74.1881 94.2792 73.1014 94.7546 71.845C95.2639 70.5886 95.5186 69.1963 95.5186 67.6682C95.5186 66.1061 95.2639 64.7138 94.7546 63.4913C94.2792 62.2349 93.6 61.1652 92.7171 60.2823C91.8681 59.3654 90.8494 58.6693 89.6609 58.1939C88.5063 57.7185 87.2499 57.4808 85.8915 57.4808C84.5332 57.4808 83.2598 57.7185 82.0713 58.1939C80.9167 58.6693 79.898 59.3654 79.0151 60.2823C78.1661 61.1652 77.487 62.2349 76.9776 63.4913C76.5022 64.7138 76.2645 66.1061 76.2645 67.6682C76.2645 69.1963 76.5022 70.5886 76.9776 71.845C77.487 73.1014 78.1661 74.1881 79.0151 75.105C79.898 75.9879 80.9167 76.667 82.0713 77.1424C83.2598 77.6178 84.5332 77.8556 85.8915 77.8556ZM110.988 85.4961V49.8402H119.291L134.063 74.0862H129.682L144.046 49.8402H152.349L152.451 85.4961H143.18L143.079 63.9498H144.658L133.91 81.9814H129.427L118.374 63.9498H120.31V85.4961H110.988ZM159.587 85.4961V49.8402H169.673V85.4961H159.587ZM176.848 85.4961V49.8402H185.151L204.813 73.5769H200.89V49.8402H210.772V85.4961H202.469L182.808 61.7595H186.73V85.4961H176.848ZM235.714 86.2092C232.896 86.2092 230.281 85.7678 227.87 84.8849C225.459 83.968 223.37 82.6776 221.605 81.0136C219.873 79.3497 218.514 77.3971 217.53 75.1559C216.545 72.8807 216.053 70.3848 216.053 67.6682C216.053 64.9515 216.545 62.4726 217.53 60.2314C218.514 57.9562 219.89 55.9866 221.656 54.3227C223.421 52.6588 225.51 51.3853 227.921 50.5024C230.366 49.5856 233.031 49.1271 235.918 49.1271C239.28 49.1271 242.285 49.6874 244.934 50.808C247.582 51.9287 249.773 53.5417 251.505 55.6471L245.087 61.4539C243.864 60.1295 242.54 59.1447 241.113 58.4995C239.721 57.8204 238.159 57.4808 236.427 57.4808C234.899 57.4808 233.507 57.7185 232.25 58.1939C230.994 58.6693 229.924 59.3654 229.041 60.2823C228.159 61.1652 227.462 62.2349 226.953 63.4913C226.478 64.7138 226.24 66.1061 226.24 67.6682C226.24 69.1623 226.478 70.5376 226.953 71.7941C227.462 73.0505 228.159 74.1372 229.041 75.054C229.924 75.9369 230.977 76.6331 232.2 77.1424C233.456 77.6178 234.831 77.8556 236.325 77.8556C237.82 77.8556 239.28 77.6178 240.706 77.1424C242.132 76.6331 243.575 75.7841 245.036 74.5956L250.69 81.6758C248.652 83.136 246.292 84.2566 243.609 85.0377C240.927 85.8187 238.295 86.2092 235.714 86.2092ZM241.776 80.3515V66.9041H250.69V81.6758L241.776 80.3515ZM284.438 86.2092C281.517 86.2092 278.699 85.8527 275.982 85.1395C273.3 84.3925 271.109 83.4416 269.411 82.2871L272.722 74.8503C274.318 75.869 276.152 76.718 278.223 77.3971C280.329 78.0423 282.417 78.3649 284.489 78.3649C285.881 78.3649 287.002 78.2461 287.851 78.0084C288.699 77.7367 289.311 77.3971 289.684 76.9896C290.092 76.5482 290.295 76.0388 290.295 75.4615C290.295 74.6465 289.922 74.0013 289.175 73.5259C288.428 73.0505 287.46 72.66 286.271 72.3544C285.083 72.0487 283.759 71.7431 282.298 71.4375C280.872 71.1319 279.429 70.7414 277.969 70.266C276.543 69.7905 275.235 69.1793 274.047 68.4322C272.858 67.6512 271.89 66.6494 271.143 65.4269C270.396 64.1705 270.023 62.5915 270.023 60.6898C270.023 58.5505 270.6 56.6149 271.754 54.883C272.943 53.1511 274.709 51.7589 277.052 50.7062C279.395 49.6535 282.315 49.1271 285.813 49.1271C288.156 49.1271 290.448 49.3988 292.69 49.9421C294.965 50.4515 296.985 51.2155 298.751 52.2343L295.644 59.722C293.946 58.8051 292.265 58.126 290.601 57.6845C288.937 57.2091 287.324 56.9714 285.762 56.9714C284.37 56.9714 283.249 57.1242 282.4 57.4298C281.551 57.7015 280.94 58.075 280.567 58.5505C280.193 59.0259 280.006 59.5692 280.006 60.1804C280.006 60.9615 280.363 61.5897 281.076 62.0651C281.823 62.5066 282.791 62.8801 283.979 63.1857C285.202 63.4574 286.526 63.746 287.952 64.0516C289.413 64.3573 290.856 64.7478 292.282 65.2232C293.742 65.6646 295.067 66.2759 296.255 67.0569C297.444 67.804 298.394 68.8058 299.108 70.0622C299.855 71.2847 300.228 72.8298 300.228 74.6975C300.228 76.7689 299.634 78.6875 298.445 80.4533C297.291 82.1852 295.542 83.5775 293.199 84.6302C290.89 85.6829 287.969 86.2092 284.438 86.2092ZM322.868 86.2092C320.015 86.2092 317.383 85.7508 314.972 84.8339C312.561 83.917 310.456 82.6266 308.656 80.9627C306.89 79.2648 305.515 77.2952 304.53 75.054C303.546 72.8128 303.053 70.3508 303.053 67.6682C303.053 64.9855 303.546 62.5235 304.53 60.2823C305.515 58.0411 306.89 56.0885 308.656 54.4246C310.456 52.7267 312.561 51.4193 314.972 50.5024C317.383 49.5856 320.015 49.1271 322.868 49.1271C325.754 49.1271 328.386 49.5856 330.763 50.5024C333.174 51.4193 335.262 52.7267 337.028 54.4246C338.794 56.0885 340.169 58.0411 341.154 60.2823C342.173 62.5235 342.682 64.9855 342.682 67.6682C342.682 70.3508 342.173 72.8298 341.154 75.105C340.169 77.3462 338.794 79.2988 337.028 80.9627C335.262 82.6266 333.174 83.917 330.763 84.8339C328.386 85.7508 325.754 86.2092 322.868 86.2092ZM322.868 77.8556C324.226 77.8556 325.482 77.6178 326.637 77.1424C327.826 76.667 328.844 75.9879 329.693 75.105C330.576 74.1881 331.255 73.1014 331.731 71.845C332.24 70.5886 332.495 69.1963 332.495 67.6682C332.495 66.1061 332.24 64.7138 331.731 63.4913C331.255 62.2349 330.576 61.1652 329.693 60.2823C328.844 59.3654 327.826 58.6693 326.637 58.1939C325.482 57.7185 324.226 57.4808 322.868 57.4808C321.509 57.4808 320.236 57.7185 319.047 58.1939C317.893 58.6693 316.874 59.3654 315.991 60.2823C315.142 61.1652 314.463 62.2349 313.954 63.4913C313.478 64.7138 313.241 66.1061 313.241 67.6682C313.241 69.1963 313.478 70.5886 313.954 71.845C314.463 73.1014 315.142 74.1881 315.991 75.105C316.874 75.9879 317.893 76.667 319.047 77.1424C320.236 77.6178 321.509 77.8556 322.868 77.8556ZM365.945 86.2092C363.093 86.2092 360.461 85.7508 358.05 84.8339C355.639 83.917 353.534 82.6266 351.734 80.9627C349.968 79.2648 348.593 77.2952 347.608 75.054C346.623 72.8128 346.131 70.3508 346.131 67.6682C346.131 64.9855 346.623 62.5235 347.608 60.2823C348.593 58.0411 349.968 56.0885 351.734 54.4246C353.534 52.7267 355.639 51.4193 358.05 50.5024C360.461 49.5856 363.093 49.1271 365.945 49.1271C368.832 49.1271 371.463 49.5856 373.84 50.5024C376.251 51.4193 378.34 52.7267 380.106 54.4246C381.871 56.0885 383.247 58.0411 384.232 60.2823C385.25 62.5235 385.76 64.9855 385.76 67.6682C385.76 70.3508 385.25 72.8298 384.232 75.105C383.247 77.3462 381.871 79.2988 380.106 80.9627C378.34 82.6266 376.251 83.917 373.84 84.8339C371.463 85.7508 368.832 86.2092 365.945 86.2092ZM365.945 77.8556C367.303 77.8556 368.56 77.6178 369.714 77.1424C370.903 76.667 371.922 75.9879 372.771 75.105C373.654 74.1881 374.333 73.1014 374.808 71.845C375.318 70.5886 375.572 69.1963 375.572 67.6682C375.572 66.1061 375.318 64.7138 374.808 63.4913C374.333 62.2349 373.654 61.1652 372.771 60.2823C371.922 59.3654 370.903 58.6693 369.714 58.1939C368.56 57.7185 367.303 57.4808 365.945 57.4808C364.587 57.4808 363.313 57.7185 362.125 58.1939C360.97 58.6693 359.952 59.3654 359.069 60.2823C358.22 61.1652 357.541 62.2349 357.031 63.4913C356.556 64.7138 356.318 66.1061 356.318 67.6682C356.318 69.1963 356.556 70.5886 357.031 71.845C357.541 73.1014 358.22 74.1881 359.069 75.105C359.952 75.9879 360.97 76.667 362.125 77.1424C363.313 77.6178 364.587 77.8556 365.945 77.8556ZM391.042 85.4961V49.8402H399.345L419.006 73.5769H415.084V49.8402H424.966V85.4961H416.663L397.002 61.7595H400.924V85.4961H391.042Z" fill="#A61E00"/>
</svg>
