<svg width="1280" height="801" viewBox="0 0 1280 801" fill="none" xmlns="http://www.w3.org/2000/svg">
<path d="M1225.2 726H54.8999V800.1H1225.2V726Z" fill="#055972"/>
<path d="M54.9 707.699H0V800.199H54.9V707.699Z" fill="#0A697F"/>
<path d="M1280 0.800781H0V707.601H54.9V280.301C54.9 198.301 119.5 131.801 199.3 131.801H371.4C451.1 131.801 515.8 198.301 515.8 280.301V707.601H764.3V280.301C764.3 198.301 828.9 131.801 908.7 131.801H1080.8C1160.5 131.801 1225.2 198.301 1225.2 280.301V707.601H1280.1V0.800781H1280Z" fill="#065972"/>
<path d="M1280 707.699H1225.1V800.199H1280V707.699Z" fill="#0A697F"/>
<path d="M233.3 515.2H134.3V390.5C134.3 363.2 156.5 341 183.8 341C211.1 341 233.3 363.2 233.3 390.5V515.2Z" fill="#07556D"/>
<path d="M228 509.3H139.6V394.5C139.6 369.3 159.4 348.9 183.8 348.9C208.2 348.9 228 369.3 228 394.5V509.3Z" fill="#0E6A7F"/>
<path d="M231.6 425.3H187.1V345H180.4V425.3H135.9V431.9H180.4V511.8H187.1V431.9H231.6V425.3Z" fill="#07556D"/>
<path d="M436.3 515.2H337.3V390.5C337.3 363.2 359.5 341 386.8 341C414.1 341 436.3 363.2 436.3 390.5V515.2Z" fill="#07556D"/>
<path d="M431 508.3H342.6V393.5C342.6 368.3 362.4 347.9 386.8 347.9C411.2 347.9 431 368.3 431 393.5V508.3Z" fill="#0E6A7F"/>
<path d="M434.7 425.3H390.2V345H383.5V425.3H339V431.9H383.5V511.8H390.2V431.9H434.7V425.3Z" fill="#07556D"/>
<path d="M942.7 515.2H843.7V390.5C843.7 363.2 865.9 341 893.2 341C920.5 341 942.7 363.2 942.7 390.5V515.2Z" fill="#07556D"/>
<path d="M937.4 509.3H849V394.5C849 369.3 868.8 348.9 893.2 348.9C917.6 348.9 937.4 369.3 937.4 394.5V509.3Z" fill="#0E6A7F"/>
<path d="M941 425.3H896.5V345H889.8V425.3H845.3V431.9H889.8V511.8H896.5V431.9H941V425.3Z" fill="#07556D"/>
<path d="M1145.8 515.2H1046.8V390.5C1046.8 363.2 1069 341 1096.3 341C1123.6 341 1145.8 363.2 1145.8 390.5V515.2Z" fill="#07556D"/>
<path d="M1140.4 508.3H1052V393.5C1052 368.3 1071.8 347.9 1096.2 347.9C1120.6 347.9 1140.4 368.3 1140.4 393.5V508.3Z" fill="#0E6A7F"/>
<path d="M1144.1 425.3H1099.6V345H1092.9V425.3H1048.4V431.9H1092.9V511.8H1099.6V431.9H1144.1V425.3Z" fill="#07556D"/>
<path d="M558.9 599.399H560.2V598.699L558.9 599.399Z" fill="#0A697F"/>
<path d="M719.8 598.699V599.399H721.1L719.8 598.699Z" fill="#0A697F"/>
<path d="M731.5 284C728.7 284 726.3 285.5 725 287.8H554.9C553.6 285.5 551.2 284 548.4 284C544.3 284 540.9 287.3 540.9 291.5C540.9 295.6 544.2 299 548.4 299C551.2 299 553.6 297.5 554.9 295.2H560.2V303.5V305.8V602.8L640 556.8L719.8 602.8V305.8V303.5V295.2H725.1C726.4 297.5 728.8 299 731.6 299C735.7 299 739.1 295.7 739.1 291.5C739 287.3 735.7 284 731.5 284ZM711.5 303.4H568.5V295.1H711.5V303.4Z" fill="#0A697F"/>
<path d="M665.1 457.801L652.1 457.701L652.8 370.801L640.9 347.801L628.6 370.601L627.9 457.501L614.8 457.401C611.7 457.401 609.1 459.901 609.1 463.001C609.1 466.101 611.6 468.701 614.7 468.701L630.5 468.801L630.3 496.901C626.8 500.801 625.9 506.601 628.5 511.401C631.8 517.501 639.5 519.701 645.6 516.401C651.7 513.101 653.9 505.401 650.6 499.301C650.1 498.401 649.5 497.601 648.9 496.901V493.601V491.101V487.101V484.601V480.601V478.101V474.001V471.501V469.001L664.7 469.101C667.8 469.101 670.4 466.601 670.4 463.501C670.8 460.401 668.3 457.801 665.1 457.801Z" fill="#065972"/>
<path d="M764.2 707.699H515.7V800.199H764.2V707.699Z" fill="#0A697F"/>
<path d="M885 564.5C883.9 564.5 883 565.1 882.5 566H816.5C816 565.1 815.1 564.5 814 564.5C812.4 564.5 811.1 565.8 811.1 567.4C811.1 569 812.4 570.3 814 570.3C815.1 570.3 816 569.7 816.5 568.8H818.6V572V572.9V688.1L849.5 670.2L880.4 688.1V572.9V572V568.8H882.5C883 569.7 883.9 570.3 885 570.3C886.6 570.3 887.9 569 887.9 567.4C887.9 565.8 886.6 564.5 885 564.5ZM877.2 572.1H821.7V568.9H877.2V572.1Z" fill="#07556D"/>
<path d="M859.2 632H854.2L854.5 598.301L849.9 589.4L845.1 598.2L844.8 631.9H839.7C838.5 631.9 837.5 632.901 837.5 634.101C837.5 635.301 838.5 636.301 839.7 636.301H845.8L845.7 647.2C844.3 648.7 844 651.001 845 652.801C846.3 655.201 849.3 656 851.6 654.7C854 653.4 854.8 650.401 853.5 648.101C853.3 647.801 853.1 647.4 852.8 647.2V645.9V644.9V643.4V642.4V640.9V639.9V638.301V637.301V636.301H858.9C860.1 636.301 861.1 635.301 861.1 634.101C861.4 633.001 860.4 632 859.2 632Z" fill="#0E6A7F"/>
<path d="M1175.5 564.5C1174.4 564.5 1173.5 565.1 1173 566H1107C1106.5 565.1 1105.6 564.5 1104.5 564.5C1102.9 564.5 1101.6 565.8 1101.6 567.4C1101.6 569 1102.9 570.3 1104.5 570.3C1105.6 570.3 1106.5 569.7 1107 568.8H1109.1V572V572.9V688.1L1140 670.2L1170.9 688.1V572.9V572V568.8H1173C1173.5 569.7 1174.4 570.3 1175.5 570.3C1177.1 570.3 1178.4 569 1178.4 567.4C1178.4 565.8 1177.1 564.5 1175.5 564.5ZM1167.7 572.1H1112.2V568.9H1167.7V572.1Z" fill="#07556D"/>
<path d="M1149.7 632H1144.7L1145 598.301L1140.4 589.4L1135.6 598.2L1135.3 631.9H1130.2C1129 631.9 1128 632.901 1128 634.101C1128 635.301 1129 636.301 1130.2 636.301H1136.3L1136.2 647.2C1134.8 648.7 1134.5 651.001 1135.5 652.801C1136.8 655.201 1139.8 656 1142.1 654.7C1144.5 653.4 1145.3 650.401 1144 648.101C1143.8 647.801 1143.6 647.4 1143.3 647.2V645.9V644.9V643.4V642.4V640.9V639.9V638.301V637.301V636.301H1149.4C1150.6 636.301 1151.6 635.301 1151.6 634.101C1151.9 633.001 1150.9 632 1149.7 632Z" fill="#0E6A7F"/>
<path d="M175.6 564.5C174.5 564.5 173.6 565.1 173.1 566H107.1C106.6 565.1 105.7 564.5 104.6 564.5C103 564.5 101.7 565.8 101.7 567.4C101.7 569 103 570.3 104.6 570.3C105.7 570.3 106.6 569.7 107.1 568.8H109.2V572V572.9V688.1L140.1 670.2L171 688.1V572.9V572V568.8H173.1C173.6 569.7 174.5 570.3 175.6 570.3C177.2 570.3 178.5 569 178.5 567.4C178.5 565.8 177.2 564.5 175.6 564.5ZM167.8 572.1H112.3V568.9H167.8V572.1Z" fill="#07556D"/>
<path d="M149.8 632H144.8L145.1 598.301L140.5 589.4L135.7 598.2L135.4 631.9H130.3C129.1 631.9 128.1 632.901 128.1 634.101C128.1 635.301 129.1 636.301 130.3 636.301H136.4L136.3 647.2C134.9 648.7 134.6 651.001 135.6 652.801C136.9 655.201 139.9 656 142.2 654.7C144.6 653.4 145.4 650.401 144.1 648.101C143.9 647.801 143.7 647.4 143.4 647.2V645.9V644.9V643.4V642.4V640.9V639.9V638.301V637.301V636.301H149.5C150.7 636.301 151.7 635.301 151.7 634.101C152 633.001 151 632 149.8 632Z" fill="#0E6A7F"/>
<path d="M466.1 564.5C465 564.5 464.1 565.1 463.6 566H397.6C397.1 565.1 396.2 564.5 395.1 564.5C393.5 564.5 392.2 565.8 392.2 567.4C392.2 569 393.5 570.3 395.1 570.3C396.2 570.3 397.1 569.7 397.6 568.8H399.7V572V572.9V688.1L430.6 670.2L461.5 688.1V572.9V572V568.8H463.6C464.1 569.7 465 570.3 466.1 570.3C467.7 570.3 469 569 469 567.4C469 565.8 467.7 564.5 466.1 564.5ZM458.3 572.1H402.8V568.9H458.3V572.1Z" fill="#07556D"/>
<path d="M440.3 632H435.3L435.6 598.301L431 589.4L426.2 598.2L425.9 631.9H420.8C419.6 631.9 418.6 632.901 418.6 634.101C418.6 635.301 419.6 636.301 420.8 636.301H426.9L426.8 647.2C425.4 648.7 425.1 651.001 426.1 652.801C427.4 655.201 430.4 656 432.7 654.7C435.1 653.4 435.9 650.401 434.6 648.101C434.4 647.801 434.2 647.4 433.9 647.2V645.9V644.9V643.4V642.4V640.9V639.9V638.301V637.301V636.301H440C441.2 636.301 442.2 635.301 442.2 634.101C442.5 633.001 441.5 632 440.3 632Z" fill="#0E6A7F"/>
<path d="M1028.8 584.3H960.6V537.6C960.6 518.8 975.9 503.5 994.7 503.5C1013.5 503.5 1028.8 518.8 1028.8 537.6V584.3Z" fill="#07556D"/>
<path d="M1018.3 550.1H972.5V558H990.8V584.3H998.6V558H1018.3V550.1Z" fill="#0E6A7F"/>
<path d="M1001.1 492.699H988.3V516.999H1001.1V492.699Z" fill="#0E6A7F"/>
<path d="M1038.7 667.799H950.8V599.699C950.8 593.099 956.1 587.799 962.7 587.799H1026.9C1033.5 587.799 1038.8 593.099 1038.8 599.699V667.799H1038.7Z" fill="#07556D"/>
<path d="M1028.8 584.299H960.6V587.799H1028.8V584.299Z" fill="#0E6A7F"/>
<path d="M947.9 689.399H927.8V600.299C927.8 594.699 932.3 590.199 937.9 590.199C943.5 590.199 948 594.699 948 600.299V689.399H947.9Z" fill="#07556D"/>
<path d="M1061.6 689.399H1041.5V600.299C1041.5 594.699 1046 590.199 1051.6 590.199C1057.2 590.199 1061.7 594.699 1061.7 600.299V689.399H1061.6Z" fill="#07556D"/>
<path d="M950.7 599.6H947.9V667.899H950.7V599.6Z" fill="#0E6A7F"/>
<path d="M1041.5 599.6H1038.7V667.899H1041.5V599.6Z" fill="#0E6A7F"/>
<path d="M1038.7 670.891V667.791H950.798V670.891H1038.7Z" fill="#0E6A7F"/>
<path d="M950.7 671V680.2V689.4V744.1H988.7V689.4H1000.7V744.1H1038.7V689.4V680.2V671H950.7Z" fill="#07556D"/>
<path d="M947.9 699.1H934.7C928.1 699.1 922.8 693.8 922.8 687.2V674H947.8V699.1H947.9Z" fill="#07556D"/>
<path d="M1054.6 699.1H1041.4V674.1H1066.4V687.3C1066.5 693.8 1061.2 699.1 1054.6 699.1Z" fill="#07556D"/>
<path d="M1038.6 747.199H950.7V763.099H1038.6V747.199Z" fill="#07556D"/>
<path d="M1038.65 747.147V744.047H950.753V747.147H1038.65Z" fill="#0E6A7F"/>
<path d="M319.4 584.3H251.2V537.6C251.2 518.8 266.5 503.5 285.3 503.5C304.1 503.5 319.4 518.8 319.4 537.6V584.3Z" fill="#07556D"/>
<path d="M308.9 550.1H263.1V558H281.4V584.3H289.2V558H308.9V550.1Z" fill="#0E6A7F"/>
<path d="M291.7 492.699H278.9V516.999H291.7V492.699Z" fill="#0E6A7F"/>
<path d="M329.3 667.799H241.4V599.699C241.4 593.099 246.7 587.799 253.3 587.799H317.5C324.1 587.799 329.4 593.099 329.4 599.699V667.799H329.3Z" fill="#07556D"/>
<path d="M319.4 584.299H251.2V587.799H319.4V584.299Z" fill="#0E6A7F"/>
<path d="M238.5 689.399H218.4V600.299C218.4 594.699 222.9 590.199 228.5 590.199C234.1 590.199 238.6 594.699 238.6 600.299V689.399H238.5Z" fill="#07556D"/>
<path d="M352.2 689.399H332.1V600.299C332.1 594.699 336.6 590.199 342.2 590.199C347.8 590.199 352.3 594.699 352.3 600.299V689.399H352.2Z" fill="#07556D"/>
<path d="M241.3 599.6H238.5V667.899H241.3V599.6Z" fill="#0E6A7F"/>
<path d="M332.1 599.6H329.3V667.899H332.1V599.6Z" fill="#0E6A7F"/>
<path d="M329.292 670.897V667.797H241.391V670.897H329.292Z" fill="#0E6A7F"/>
<path d="M241.3 671V680.2V689.4V744.1H279.3V689.4H291.3V744.1H329.3V689.4V680.2V671H241.3Z" fill="#07556D"/>
<path d="M238.5 699.1H225.3C218.7 699.1 213.4 693.8 213.4 687.2V674H238.4V699.1H238.5Z" fill="#07556D"/>
<path d="M345.2 699.1H332V674.1H357V687.3C357.1 693.8 351.8 699.1 345.2 699.1Z" fill="#07556D"/>
<path d="M329.2 747.199H241.3V763.099H329.2V747.199Z" fill="#07556D"/>
<path d="M329.247 747.153V744.053H241.347V747.153H329.247Z" fill="#0E6A7F"/>
</svg>
