<svg width="336" height="243" viewBox="0 0 336 243" fill="none" xmlns="http://www.w3.org/2000/svg">
<path d="M155.108 154.152L113.708 242.352H141.108L182.608 154.152H155.108Z" fill="#FFB23E"/>
<path d="M108.508 154.152L67.0083 242.352H113.708L155.108 154.152H108.508Z" fill="#F5EA83"/>
<path d="M182.608 154.152L141.108 242.352H178.008L219.508 154.152H182.608Z" fill="#F5EA83"/>
<path d="M276.508 154.152H226.408H219.508H108.508H95.8082H62.0082C37.6082 154.152 17.9082 173.852 17.9082 198.252C17.9082 222.652 37.6082 242.352 62.0082 242.352H67.0082H178.008H192.608H276.608C301.008 242.352 320.708 222.652 320.708 198.252C320.708 173.852 300.908 154.152 276.508 154.152ZM69.4082 237.352L106.208 159.052H217.208L180.408 237.352H69.4082Z" fill="#FFB23E"/>
<path d="M27.3018 46V12.7016H33.4858V46H27.3018ZM56.335 20.3126C62.4239 20.3126 66.943 23.7852 66.943 31.4438V46H60.9968V32.2049C60.9968 27.6859 58.761 25.4977 54.9555 25.4977C50.7219 25.4977 47.8677 28.0664 47.8677 33.1563V46H41.9216V20.598H47.5823V23.8803C49.5326 21.5494 52.6246 20.3126 56.335 20.3126ZM88.0908 40.3868L89.7557 44.6205C88.3287 45.7622 86.188 46.333 84.0474 46.333C78.4818 46.333 75.2947 43.3837 75.2947 37.7705V25.5452H71.1086V20.7883H75.2947V14.9849H81.2408V20.7883H88.0432V25.5452H81.2408V37.6278C81.2408 40.1014 82.4776 41.4334 84.761 41.4334C85.9978 41.4334 87.187 41.1004 88.0908 40.3868ZM100.308 24.3084C102.02 21.6446 105.112 20.3126 109.346 20.3126V25.9734C108.823 25.8782 108.395 25.8307 107.967 25.8307C103.447 25.8307 100.593 28.4945 100.593 33.6796V46H94.6472V20.598H100.308V24.3084ZM125.575 46.333C117.773 46.333 112.065 40.9101 112.065 33.299C112.065 25.688 117.773 20.3126 125.575 20.3126C133.471 20.3126 139.132 25.688 139.132 33.299C139.132 40.9101 133.471 46.333 125.575 46.333ZM125.575 41.2431C129.903 41.2431 133.138 38.1511 133.138 33.299C133.138 28.447 129.903 25.355 125.575 25.355C121.293 25.355 118.059 28.447 118.059 33.299C118.059 38.1511 121.293 41.2431 125.575 41.2431ZM163.75 10.7037H169.697V46H163.988V42.7177C161.99 45.1438 159.041 46.333 155.568 46.333C148.195 46.333 142.725 41.1955 142.725 33.299C142.725 25.4025 148.195 20.3126 155.568 20.3126C158.851 20.3126 161.752 21.4067 163.75 23.7376V10.7037ZM156.282 41.2431C160.563 41.2431 163.845 38.1511 163.845 33.299C163.845 28.447 160.563 25.355 156.282 25.355C152.001 25.355 148.718 28.447 148.718 33.299C148.718 38.1511 152.001 41.2431 156.282 41.2431ZM196.122 20.598H202.068V46H196.408V42.7653C194.505 45.0962 191.508 46.333 188.226 46.333C181.709 46.333 177.285 42.7653 177.285 35.1067V20.598H183.231V34.298C183.231 38.9122 185.419 41.1004 189.177 41.1004C193.316 41.1004 196.122 38.5316 196.122 33.4417V20.598ZM221.508 46.333C213.469 46.333 207.761 40.9101 207.761 33.299C207.761 25.688 213.469 20.3126 221.508 20.3126C226.455 20.3126 230.404 22.3581 232.354 26.2112L227.787 28.8751C226.265 26.4491 223.982 25.355 221.461 25.355C217.084 25.355 213.755 28.3994 213.755 33.299C213.755 38.2462 217.084 41.2431 221.461 41.2431C223.982 41.2431 226.265 40.149 227.787 37.723L232.354 40.3868C230.404 44.1924 226.455 46.333 221.508 46.333ZM240.491 16.412C238.303 16.412 236.685 14.8422 236.685 12.8443C236.685 10.8464 238.303 9.27658 240.491 9.27658C242.679 9.27658 244.297 10.7512 244.297 12.7016C244.297 14.7946 242.727 16.412 240.491 16.412ZM237.494 46V20.598H243.44V46H237.494ZM265.658 20.3126C271.747 20.3126 276.266 23.7852 276.266 31.4438V46H270.32V32.2049C270.32 27.6859 268.084 25.4977 264.279 25.4977C260.045 25.4977 257.191 28.0664 257.191 33.1563V46H251.245V20.598H256.905V23.8803C258.856 21.5494 261.948 20.3126 265.658 20.3126ZM303.592 20.598H309.253V42.1469C309.253 51.3753 304.449 55.5614 295.553 55.5614C290.796 55.5614 286.087 54.3246 283.185 51.9461L285.849 47.4746C288.085 49.3298 291.7 50.5191 295.22 50.5191C300.833 50.5191 303.307 47.9503 303.307 42.8129V41.4809C301.214 43.7642 298.217 44.8583 294.792 44.8583C287.514 44.8583 281.948 39.9111 281.948 32.5379C281.948 25.1647 287.514 20.3126 294.792 20.3126C298.36 20.3126 301.499 21.4543 303.592 23.9755V20.598ZM295.696 39.816C300.167 39.816 303.402 36.8667 303.402 32.5379C303.402 28.2567 300.167 25.355 295.696 25.355C291.177 25.355 287.942 28.2567 287.942 32.5379C287.942 36.8667 291.177 39.816 295.696 39.816ZM27.1744 70.7016H34.8806V104H27.1744V90.3476H12.0474V104H4.34114V70.7016H12.0474V83.8307H27.1744V70.7016ZM52.5581 78.0272C60.3594 78.0272 64.8785 81.6425 64.8785 89.3963V104H57.9334V100.813C56.5539 103.144 53.89 104.381 50.1321 104.381C44.1384 104.381 40.5707 101.051 40.5707 96.6268C40.5707 92.1077 43.7578 88.9681 51.5591 88.9681H57.4577C57.4577 85.781 55.555 83.9258 51.5591 83.9258C48.8477 83.9258 46.0411 84.8296 44.1859 86.3043L41.522 81.1192C44.3286 79.1213 48.4671 78.0272 52.5581 78.0272ZM51.9873 99.3858C54.4609 99.3858 56.6015 98.2441 57.4577 95.9132V93.2969H52.3678C48.8953 93.2969 47.8012 94.5813 47.8012 96.2938C47.8012 98.149 49.371 99.3858 51.9873 99.3858ZM84.2414 104.381C75.9168 104.381 69.9707 98.9101 69.9707 91.2039C69.9707 83.4977 75.9168 78.0272 84.2414 78.0272C89.6167 78.0272 93.8504 80.3581 95.7056 84.5442L89.9497 87.6362C88.5702 85.2102 86.5247 84.1161 84.1938 84.1161C80.4359 84.1161 77.4866 86.7324 77.4866 91.2039C77.4866 95.6754 80.4359 98.2917 84.1938 98.2917C86.5247 98.2917 88.5702 97.2452 89.9497 94.7716L95.7056 97.9111C93.8504 102.002 89.6167 104.381 84.2414 104.381ZM118.868 104L110.781 93.9629L107.213 97.483V104H99.7925V68.7037H107.213V88.6827L118.059 78.4078H126.907L116.251 89.2535L127.858 104H118.868Z" fill="white"/>
<path d="M154.504 104L143.849 90.9185L139.377 95.5803V104H131.719V70.7016H139.377V86.2567L154.124 70.7016H162.686L148.891 85.5432L163.495 104H154.504ZM181.498 78.0272C187.54 78.0272 192.106 81.5473 192.106 89.3487V104H184.686V90.4903C184.686 86.3518 182.783 84.4491 179.501 84.4491C175.933 84.4491 173.364 86.6372 173.364 91.3466V104H165.943V78.4078H173.031V81.4046C175.029 79.2164 178.026 78.0272 181.498 78.0272ZM202.543 74.8401C199.784 74.8401 197.929 73.0325 197.929 70.7016C197.929 68.3707 199.784 66.563 202.543 66.563C205.302 66.563 207.158 68.2755 207.158 70.5589C207.158 73.0325 205.302 74.8401 202.543 74.8401ZM198.833 104V78.4078H206.254V104H198.833ZM232.502 78.4078H239.542V99.7188C239.542 109.233 234.404 113.609 225.176 113.609C220.324 113.609 215.615 112.42 212.618 110.089L215.567 104.761C217.755 106.521 221.323 107.663 224.605 107.663C229.838 107.663 232.121 105.284 232.121 100.67V99.5761C230.171 101.717 227.364 102.763 224.034 102.763C216.946 102.763 211.238 97.8636 211.238 90.3952C211.238 82.9268 216.946 78.0272 224.034 78.0272C227.602 78.0272 230.551 79.2164 232.502 81.69V78.4078ZM225.509 96.6743C229.41 96.6743 232.216 94.1532 232.216 90.3952C232.216 86.6372 229.41 84.1161 225.509 84.1161C221.608 84.1161 218.754 86.6372 218.754 90.3952C218.754 94.1532 221.608 96.6743 225.509 96.6743ZM262.004 78.0272C268.045 78.0272 272.612 81.5473 272.612 89.3487V104H265.191V90.4903C265.191 86.3518 263.288 84.4491 260.006 84.4491C256.438 84.4491 253.869 86.6372 253.869 91.3466V104H246.449V68.7037H253.869V81.0716C255.867 79.0737 258.722 78.0272 262.004 78.0272ZM293.847 97.5306L295.845 102.763C294.323 103.857 292.087 104.381 289.804 104.381C283.762 104.381 280.242 101.289 280.242 95.1997V84.6869H276.294V78.9786H280.242V72.747H287.663V78.9786H294.037V84.6869H287.663V95.1046C287.663 97.2927 288.852 98.482 290.85 98.482C291.944 98.482 293.038 98.149 293.847 97.5306ZM308.621 104.381C304.292 104.381 299.915 103.191 297.537 101.622L300.01 96.2938C302.294 97.7684 305.766 98.7674 308.906 98.7674C312.331 98.7674 313.615 97.8636 313.615 96.4365C313.615 92.2504 298.155 96.5316 298.155 86.3043C298.155 81.4522 302.532 78.0272 310 78.0272C313.52 78.0272 317.421 78.8359 319.847 80.263L317.373 85.5432C314.852 84.1161 312.331 83.6404 310 83.6404C306.67 83.6404 305.243 84.6869 305.243 86.0188C305.243 90.3952 320.703 86.1615 320.703 96.2462C320.703 101.003 316.279 104.381 308.621 104.381ZM325.805 92.4407L324.33 70.7016H333.178L331.703 92.4407H325.805ZM328.754 104.381C326.09 104.381 324.188 102.43 324.188 100.052C324.188 97.6257 326.09 95.8181 328.754 95.8181C331.418 95.8181 333.321 97.6257 333.321 100.052C333.321 102.43 331.418 104.381 328.754 104.381Z" fill="#FFB23E"/>
<path d="M51.4427 211.051V187.28H58.1664V205.719H69.5083V211.051H51.4427ZM78.8247 205.855H91.2534V211.051H72.169V187.28H90.8119V192.476H78.8247V196.483H89.3857V201.509H78.8247V205.855ZM112.778 211.051L110.911 206.432H100.859L98.9915 211.051H92.132L102.625 187.28H109.247L119.774 211.051H112.778ZM102.829 201.475H108.941L105.885 193.868L102.829 201.475ZM136.384 211.051L132.071 204.735H128.404V211.051H121.68V187.28H132.546C139.032 187.28 143.107 190.642 143.107 196.075C143.107 199.573 141.41 202.154 138.455 203.58L143.583 211.051H136.384ZM136.316 196.075C136.316 193.868 134.924 192.578 132.139 192.578H128.404V199.539H132.139C134.924 199.539 136.316 198.249 136.316 196.075ZM162.845 187.28H169.433V211.051H163.898L153.405 198.384V211.051H146.817V187.28H152.352L162.845 199.947V187.28ZM211.7 211.051H205.519L205.451 198.452L199.339 208.708H196.351L190.272 198.792V211.051H184.058V187.28H189.593L197.947 200.999L206.097 187.28H211.632L211.7 211.051ZM228.444 211.526C220.838 211.526 215.235 206.297 215.235 199.165C215.235 192.034 220.838 186.805 228.444 186.805C236.051 186.805 241.654 192.034 241.654 199.165C241.654 206.297 236.051 211.526 228.444 211.526ZM228.444 205.957C232.044 205.957 234.862 203.274 234.862 199.165C234.862 195.057 232.044 192.374 228.444 192.374C224.845 192.374 222.026 195.057 222.026 199.165C222.026 203.274 224.845 205.957 228.444 205.957ZM259.879 211.051L255.567 204.735H251.899V211.051H245.175V187.28H256.042C262.528 187.28 266.603 190.642 266.603 196.075C266.603 199.573 264.905 202.154 261.951 203.58L267.078 211.051H259.879ZM259.811 196.075C259.811 193.868 258.419 192.578 255.635 192.578H251.899V199.539H255.635C258.419 199.539 259.811 198.249 259.811 196.075ZM276.968 205.855H289.397V211.051H270.312V187.28H288.955V192.476H276.968V196.483H287.529V201.509H276.968V205.855Z" fill="#A61E00"/>
</svg>
