<svg width="304" height="89" viewBox="0 0 304 89" fill="none" xmlns="http://www.w3.org/2000/svg">
<path d="M138.108 0.152344L96.708 88.3523H124.108L165.608 0.152344H138.108Z" fill="#FFB23E"/>
<path d="M91.5083 0.152344L50.0083 88.3523H96.7083L138.108 0.152344H91.5083Z" fill="#F5EA83"/>
<path d="M165.608 0.152344L124.108 88.3523H161.008L202.508 0.152344H165.608Z" fill="#F5EA83"/>
<path d="M259.508 0.152344H209.408H202.508H91.5082H78.8082H45.0082C20.6082 0.152344 0.908203 19.8522 0.908203 44.2522C0.908203 68.6522 20.6082 88.3523 45.0082 88.3523H50.0082H161.008H175.608H259.608C284.008 88.3523 303.708 68.6522 303.708 44.2522C303.708 19.8522 283.908 0.152344 259.508 0.152344ZM52.4082 83.3523L89.2082 5.05225H200.208L163.408 83.3523H52.4082Z" fill="#FFB23E"/>
<path d="M34.4427 57.0508V33.2802H41.1664V51.7194H52.5083V57.0508H34.4427ZM61.8247 51.8552H74.2534V57.0508H55.169V33.2802H73.8119V38.4758H61.8247V42.4828H72.3857V47.5086H61.8247V51.8552ZM95.7785 57.0508L93.9108 52.4325H83.8592L81.9915 57.0508H75.132L85.625 33.2802H92.2468L102.774 57.0508H95.7785ZM85.8288 47.4746H91.9412L88.885 39.8681L85.8288 47.4746ZM119.384 57.0508L115.071 50.7346H111.404V57.0508H104.68V33.2802H115.546C122.032 33.2802 126.107 36.6421 126.107 42.0753C126.107 45.573 124.41 48.1538 121.455 49.58L126.583 57.0508H119.384ZM119.316 42.0753C119.316 39.8681 117.924 38.5777 115.139 38.5777H111.404V45.539H115.139C117.924 45.539 119.316 44.2486 119.316 42.0753ZM145.845 33.2802H152.433V57.0508H146.898L136.405 44.3845V57.0508H129.817V33.2802H135.352L145.845 45.9465V33.2802ZM194.7 57.0508H188.519L188.451 44.4524L182.339 54.7077H179.351L173.272 44.792V57.0508H167.058V33.2802H172.593L180.947 46.9992L189.097 33.2802H194.632L194.7 57.0508ZM211.444 57.5262C203.838 57.5262 198.235 52.2967 198.235 45.1655C198.235 38.0343 203.838 32.8048 211.444 32.8048C219.051 32.8048 224.654 38.0343 224.654 45.1655C224.654 52.2967 219.051 57.5262 211.444 57.5262ZM211.444 51.9571C215.044 51.9571 217.862 49.2744 217.862 45.1655C217.862 41.0566 215.044 38.3739 211.444 38.3739C207.845 38.3739 205.026 41.0566 205.026 45.1655C205.026 49.2744 207.845 51.9571 211.444 51.9571ZM242.879 57.0508L238.567 50.7346H234.899V57.0508H228.175V33.2802H239.042C245.528 33.2802 249.603 36.6421 249.603 42.0753C249.603 45.573 247.905 48.1538 244.951 49.58L250.078 57.0508H242.879ZM242.811 42.0753C242.811 39.8681 241.419 38.5777 238.635 38.5777H234.899V45.539H238.635C241.419 45.539 242.811 44.2486 242.811 42.0753ZM259.968 51.8552H272.397V57.0508H253.312V33.2802H271.955V38.4758H259.968V42.4828H270.529V47.5086H259.968V51.8552Z" fill="#A61E00"/>
</svg>
