<svg width="303" height="89" viewBox="0 0 303 89" fill="none" xmlns="http://www.w3.org/2000/svg">
<path d="M137.2 0.101562L95.7998 88.3015H123.2L164.7 0.101562H137.2Z" fill="#FFB23E"/>
<path d="M90.6001 0.101562L49.1001 88.3015H95.8001L137.2 0.101562H90.6001Z" fill="#F5EA83"/>
<path d="M164.7 0.101562L123.2 88.3015H160.1L201.6 0.101562H164.7Z" fill="#F5EA83"/>
<path d="M258.6 0.101562H208.5H201.6H90.6H77.9H44.1C19.7 0.101562 0 19.8014 0 44.2014C0 68.6014 19.7 88.3015 44.1 88.3015H49.1H160.1H174.7H258.7C283.1 88.3015 302.8 68.6014 302.8 44.2014C302.8 19.8014 283 0.101562 258.6 0.101562ZM51.5 83.3015L88.3 5.00146H199.3L162.5 83.3015H51.5Z" fill="#FFB23E"/>
</svg>
