<svg width="1920" height="74" viewBox="0 0 1920 74" fill="none" xmlns="http://www.w3.org/2000/svg">
<path d="M125.25 73.5996H-9.15024C-12.7502 73.5996 -15.7502 70.5998 -15.7502 66.9998V6.69983C-15.7502 3.09983 -12.7502 0.0996094 -9.15024 0.0996094H125.25C128.85 0.0996094 131.85 3.09983 131.85 6.69983V66.9998C131.85 70.5998 128.85 73.5996 125.25 73.5996Z" fill="#7FA0A5"/>
<path d="M275.55 73.5996H141.15C137.55 73.5996 134.55 70.5998 134.55 66.9998V6.69983C134.55 3.09983 137.55 0.0996094 141.15 0.0996094H275.55C279.15 0.0996094 282.15 3.09983 282.15 6.69983V66.9998C282.15 70.5998 279.3 73.5996 275.55 73.5996Z" fill="#7FA0A5"/>
<path d="M425.85 73.5996H291.45C287.85 73.5996 284.85 70.5998 284.85 66.9998V6.69983C284.85 3.09983 287.85 0.0996094 291.45 0.0996094H425.85C429.45 0.0996094 432.45 3.09983 432.45 6.69983V66.9998C432.6 70.5998 429.6 73.5996 425.85 73.5996Z" fill="#7FA0A5"/>
<path d="M576.15 73.5996H441.75C438.15 73.5996 435.15 70.5998 435.15 66.9998V6.69983C435.15 3.09983 438.15 0.0996094 441.75 0.0996094H576.15C579.75 0.0996094 582.75 3.09983 582.75 6.69983V66.9998C582.9 70.5998 579.9 73.5996 576.15 73.5996Z" fill="#7FA0A5"/>
<path d="M726.6 73.5996H592.2C588.6 73.5996 585.6 70.5998 585.6 66.9998V6.69983C585.6 3.09983 588.6 0.0996094 592.2 0.0996094H726.6C730.2 0.0996094 733.2 3.09983 733.2 6.69983V66.9998C733.2 70.5998 730.2 73.5996 726.6 73.5996Z" fill="#7FA0A5"/>
<path d="M876.899 73.5996H742.499C738.899 73.5996 735.899 70.5998 735.899 66.9998V6.69983C735.899 3.09983 738.899 0.0996094 742.499 0.0996094H876.899C880.499 0.0996094 883.499 3.09983 883.499 6.69983V66.9998C883.499 70.5998 880.499 73.5996 876.899 73.5996Z" fill="#7FA0A5"/>
<path d="M1027.2 73.5996H892.8C889.2 73.5996 886.2 70.5998 886.2 66.9998V6.69983C886.2 3.09983 889.2 0.0996094 892.8 0.0996094H1027.2C1030.8 0.0996094 1033.8 3.09983 1033.8 6.69983V66.9998C1033.8 70.5998 1030.8 73.5996 1027.2 73.5996Z" fill="#7FA0A5"/>
<path d="M1177.5 73.5996H1043.1C1039.5 73.5996 1036.5 70.5998 1036.5 66.9998V6.69983C1036.5 3.09983 1039.5 0.0996094 1043.1 0.0996094H1177.5C1181.1 0.0996094 1184.1 3.09983 1184.1 6.69983V66.9998C1184.1 70.5998 1181.25 73.5996 1177.5 73.5996Z" fill="#7FA0A5"/>
<path d="M1327.8 73.5996H1193.4C1189.8 73.5996 1186.8 70.5998 1186.8 66.9998V6.69983C1186.8 3.09983 1189.8 0.0996094 1193.4 0.0996094H1327.8C1331.4 0.0996094 1334.4 3.09983 1334.4 6.69983V66.9998C1334.55 70.5998 1331.55 73.5996 1327.8 73.5996Z" fill="#7FA0A5"/>
<path d="M1478.1 73.5996H1343.7C1340.1 73.5996 1337.1 70.5998 1337.1 66.9998V6.69983C1337.1 3.09983 1340.1 0.0996094 1343.7 0.0996094H1478.1C1481.7 0.0996094 1484.7 3.09983 1484.7 6.69983V66.9998C1484.85 70.5998 1481.85 73.5996 1478.1 73.5996Z" fill="#7FA0A5"/>
<path d="M1628.55 73.5996H1494.15C1490.55 73.5996 1487.55 70.5998 1487.55 66.9998V6.69983C1487.55 3.09983 1490.55 0.0996094 1494.15 0.0996094H1628.55C1632.15 0.0996094 1635.15 3.09983 1635.15 6.69983V66.9998C1635.15 70.5998 1632.15 73.5996 1628.55 73.5996Z" fill="#7FA0A5"/>
<path d="M1778.85 73.5996H1644.45C1640.85 73.5996 1637.85 70.5998 1637.85 66.9998V6.69983C1637.85 3.09983 1640.85 0.0996094 1644.45 0.0996094H1778.85C1782.45 0.0996094 1785.45 3.09983 1785.45 6.69983V66.9998C1785.45 70.5998 1782.45 73.5996 1778.85 73.5996Z" fill="#7FA0A5"/>
<path d="M1929.15 73.5996H1794.75C1791.15 73.5996 1788.15 70.5998 1788.15 66.9998V6.69983C1788.15 3.09983 1791.15 0.0996094 1794.75 0.0996094H1929.15C1932.75 0.0996094 1935.75 3.09983 1935.75 6.69983V66.9998C1935.75 70.5998 1932.75 73.5996 1929.15 73.5996Z" fill="#7FA0A5"/>
</svg>
