<svg width="407" height="394" viewBox="0 0 407 394" fill="none" xmlns="http://www.w3.org/2000/svg">
<path d="M370.69 185.905C366.764 181.543 360.984 178.162 354.331 176.635L86.9111 116.215C80.1493 114.688 73.6056 115.343 68.1525 117.524L58.8822 115.452L55.1741 131.811L48.9576 159.403L20.7106 284.606C17.984 296.603 27.7996 309.036 42.632 312.417L310.052 372.838C324.884 376.219 339.062 369.129 341.789 357.132L370.036 231.93L376.252 204.337L379.96 187.978L370.69 185.905Z" fill="#A977AB"/>
<path d="M379.768 188.022C382.025 178.035 311.985 153.698 223.329 133.666C134.673 113.633 60.9735 105.49 58.7167 115.478C56.4599 125.466 126.5 149.802 215.156 169.835C303.812 189.867 377.511 198.01 379.768 188.022Z" fill="#C58FC9"/>
<path d="M363.601 109.343L107.196 51.4309C99.7803 49.795 94.2182 46.4143 94.7635 44.0149L104.688 0.171875L387.813 64.1914L377.888 108.034C377.452 110.433 371.017 111.088 363.601 109.343Z" fill="#633A14"/>
<path d="M387.812 64.5201C388.466 61.7936 325.538 45.2163 247.341 27.5483C169.143 9.88024 105.233 -2.22594 104.688 0.500609C104.142 3.22715 166.962 19.805 245.159 37.473C264.136 41.7264 282.131 45.6523 298.709 49.1423L310.596 66.156L329.464 55.4682C364.473 62.5572 387.376 66.156 387.812 64.5201Z" fill="#FFB23E"/>
<path opacity="0.2" d="M320.849 392.361L24.2005 325.398C7.73221 321.689 -2.51961 305.003 1.29756 288.207L49.6119 74.4462C53.4291 57.6507 69.7884 47.0714 86.2567 50.7795L382.905 117.743C399.373 121.452 409.625 138.138 405.808 154.934L357.494 368.695C353.676 385.49 337.317 396.07 320.849 392.361Z" fill="#89BEAA"/>
<path opacity="0.66" d="M375.707 116.102L93.5638 52.3012C89.9647 51.5378 87.7835 47.9389 88.547 44.3399L92.037 29.0712C92.8004 25.4722 96.3994 23.2909 99.9985 24.0543L382.141 87.8555C385.741 88.6189 387.922 92.2183 387.158 95.8173L383.668 111.086C382.796 114.685 379.197 116.975 375.707 116.102Z" fill="#89BEAA"/>
<path opacity="0.66" d="M100.653 38.7793C102.701 38.7793 104.362 37.1192 104.362 35.0713C104.362 33.0233 102.701 31.3633 100.653 31.3633C98.6054 31.3633 96.9453 33.0233 96.9453 35.0713C96.9453 37.1192 98.6054 38.7793 100.653 38.7793Z" fill="#A6DDC6"/>
<path opacity="0.66" d="M221.821 66.2613L114.831 42.0493C112.868 41.6131 111.668 39.65 112.105 37.6869V37.5777C112.541 35.6146 114.504 34.4149 116.467 34.8512L223.457 59.0631C225.42 59.4993 226.62 61.4625 226.183 63.4256V63.5347C225.747 65.3888 223.784 66.6975 221.821 66.2613Z" fill="#A6DDC6"/>
<path d="M211.675 231.163C213.202 224.183 207.749 218.621 198.915 216.658C189.536 214.586 180.702 217.421 174.376 224.292L151.691 204.552C164.343 191.137 183.537 184.812 209.058 190.483C235.778 196.481 252.246 212.295 247.448 233.453C241.34 260.501 212.003 258.102 208.404 274.025L177.539 267.045C182.665 244.36 208.731 244.25 211.675 231.163ZM167.178 293.656C169.469 283.404 179.175 277.623 190.845 280.241C202.514 282.858 208.84 292.347 206.55 302.598C204.259 312.632 194.335 318.958 182.665 316.34C170.995 313.723 164.888 303.798 167.178 293.656Z" fill="white"/>
</svg>
