<svg width="218" height="334" viewBox="0 0 218 334" fill="none" xmlns="http://www.w3.org/2000/svg">
<path d="M108.206 44.6047L49.094 57.0378C47.4217 57.4013 45.6767 55.9473 45.2405 53.8387L37.1699 15.4488L102.389 1.70703L110.459 40.0967C110.896 42.2052 109.878 44.2411 108.206 44.6047Z" fill="#633A14"/>
<path opacity="0.66" d="M112.059 47.8776L46.9129 61.6194C44.5135 62.1283 42.1869 60.6017 41.6779 58.2023L37.8244 40.0978C37.3154 37.6984 38.8423 35.372 41.2417 34.863L106.388 21.1213C108.787 20.6123 111.114 22.139 111.623 24.5383L115.476 42.6425C115.985 44.9692 114.459 47.3687 112.059 47.8776Z" fill="#89BEAA"/>
<path opacity="0.66" d="M47.9309 47.0051C49.8583 47.0051 51.4209 45.4427 51.4209 43.5152C51.4209 41.5878 49.8583 40.0254 47.9309 40.0254C46.0034 40.0254 44.4409 41.5878 44.4409 43.5152C44.4409 45.4427 46.0034 47.0051 47.9309 47.0051Z" fill="#A6DDC6"/>
<path opacity="0.66" d="M74.1056 41.5529L58.328 44.8975C56.5103 45.2611 54.7653 44.0978 54.4018 42.3528L54.3291 42.062C53.9655 40.2443 55.1288 38.4994 56.8738 38.1359L72.6514 34.7912C74.4691 34.4277 76.2141 35.591 76.5777 37.336L76.6504 37.6268C77.0866 39.4445 75.9233 41.1894 74.1056 41.5529Z" fill="#A6DDC6"/>
<path d="M102.389 1.70787C101.88 -0.691494 86.9022 0.399124 68.8707 4.25264C50.8391 8.03345 36.6611 13.0502 37.17 15.4496C37.679 17.8489 52.6568 16.7583 70.6884 12.9048C75.0508 11.9596 79.1952 11.0144 82.976 9.9965L88.938 21.1934L89.8833 7.96082C97.7357 5.56146 102.68 3.16202 102.389 1.70787Z" fill="#FFB23E"/>
<path d="M171.971 133.092C172.625 133.455 173.207 133.819 173.861 134.255C173.352 133.819 172.77 133.455 171.971 133.092Z" fill="#89BEAA"/>
<path d="M25.2458 165.519C25.6821 164.937 26.0456 164.283 26.4819 163.701C25.9002 164.356 25.464 165.01 25.2458 165.519Z" fill="#89BEAA"/>
<path d="M173.788 134.256C174.225 134.692 174.515 135.129 174.588 135.638C176.042 142.545 143.76 155.196 102.462 163.921C61.1638 172.646 26.4821 174.1 25.028 167.12C24.9553 166.611 25.028 166.102 25.2461 165.52C14.1218 182.025 10.4864 204.128 17.6845 225.504L68.8708 313.19C71.7064 318.061 77.3777 320.606 82.9762 319.443L183.24 298.285C188.766 297.122 192.983 292.541 193.565 286.87L204.98 185.951C202.871 163.63 190.657 144.871 173.788 134.256ZM32.4442 216.198C29.5359 216.779 26.7003 214.962 26.0459 212.053C25.4642 209.145 27.2819 206.31 30.1902 205.655C33.0986 205.073 35.9342 206.891 36.5885 209.8C37.2429 212.708 35.3525 215.616 32.4442 216.198ZM42.696 198.966C38.2608 199.911 33.8983 197.076 32.9531 192.641C32.0079 188.205 34.8435 183.843 39.2787 182.898C43.7139 181.953 48.0764 184.788 49.0216 189.223C49.9668 193.658 47.1312 198.021 42.696 198.966Z" fill="#C9345A"/>
<path d="M42.5458 198.932C46.9858 197.996 49.8267 193.638 48.891 189.198C47.9554 184.758 43.5975 181.917 39.1575 182.853C34.7175 183.788 31.8767 188.146 32.8123 192.586C33.748 197.026 38.1058 199.867 42.5458 198.932Z" fill="#E5557F"/>
<path d="M36.4854 211.859C37.0318 208.938 35.1069 206.127 32.1862 205.581C29.2655 205.034 26.4549 206.959 25.9084 209.88C25.3619 212.8 27.2866 215.611 30.2073 216.157C33.1279 216.704 35.9389 214.779 36.4854 211.859Z" fill="#E5557F"/>
<path d="M102.462 163.919C143.76 155.194 176.115 142.543 174.588 135.636C174.515 135.127 174.225 134.69 173.788 134.254C173.207 133.891 172.552 133.455 171.898 133.091C162.809 129.238 132.418 131.419 97.1542 138.835C61.8909 146.251 33.1713 156.576 26.4822 163.774C26.0459 164.355 25.6097 164.937 25.2461 165.591C25.028 166.173 24.9553 166.682 25.028 167.191C26.4822 174.098 61.1638 172.644 102.462 163.919Z" fill="#E5557F"/>
<path opacity="0.2" d="M132.272 113.313L112.059 117.603L97.9539 50.8574L60.9456 58.637L75.0509 125.383L54.8381 129.673C13.9036 138.325 -9.65377 183.622 4.66968 226.156L62.6906 325.693C65.9624 331.219 72.3607 334.127 78.6863 332.746L192.401 308.752C198.727 307.443 203.453 302.209 204.18 295.81L217.122 181.368C213.051 136.58 173.207 104.661 132.272 113.313Z" fill="#89BEAA"/>
</svg>
