<svg width="199" height="261" viewBox="0 0 199 261" fill="none" xmlns="http://www.w3.org/2000/svg">
<path d="M143.097 83.5508C143.969 84.1324 144.478 84.8595 144.624 85.6592C145.496 91.694 121.357 100.346 90.6018 104.854C59.8464 109.435 34.1805 108.199 33.308 102.091C33.2353 101.364 33.4535 100.637 34.0351 99.8373C20.0752 115.251 11.5684 135.755 11.5684 158.149C11.5684 206.209 50.5398 245.108 98.527 245.108C146.514 245.108 185.486 206.136 185.486 158.149C185.486 126.449 168.472 98.7467 143.097 83.5508Z" fill="#FFB23E"/>
<path d="M142.152 82.9707C142.443 83.1888 142.806 83.3341 143.097 83.5522C142.806 83.3341 142.515 83.1161 142.152 82.9707Z" fill="#FFB23E"/>
<path d="M33.9619 99.8399C34.3255 99.4036 34.7617 98.9675 35.1253 98.5312C34.689 99.0402 34.2527 99.4036 33.9619 99.8399Z" fill="#FFB23E"/>
<path d="M33.3082 102.093C34.1807 108.128 59.8466 109.364 90.602 104.856C121.357 100.275 145.569 91.6956 144.624 85.6609C144.479 84.8611 143.97 84.2068 143.097 83.5524C142.806 83.3343 142.443 83.189 142.152 82.9709C134.954 79.3355 112.851 79.1173 87.3301 82.8981C62.1732 86.6062 41.3788 93.0773 35.1986 98.6031C34.7623 99.0393 34.3988 99.4754 34.0353 99.9117C33.3809 100.639 33.1628 101.366 33.3082 102.093Z" fill="#FFC06E"/>
<path d="M178.651 55.2702L134.226 33.4579C132.918 32.8035 132.554 31.0585 133.354 29.4589L147.532 0.59375L196.61 24.7329L182.432 53.5977C181.632 55.0519 179.96 55.8519 178.651 55.2702Z" fill="#633A14"/>
<path d="M196.537 24.6593C197.409 22.8416 187.158 16.007 173.634 9.31791C160.11 2.62878 148.404 -1.29751 147.459 0.520185C146.587 2.33788 156.838 9.17249 170.362 15.8616C173.634 17.4612 176.833 18.9153 179.741 20.1513L177.924 30.4032L185.267 22.3326C191.665 24.7319 196.028 25.6773 196.537 24.6593Z" fill="#FFB23E"/>
<path opacity="0.2" d="M159.093 81.953L171.089 57.5234L137.28 40.873L125.283 65.303C80.2772 53.0153 31.4902 73.8825 10.1868 117.289C-13.9522 166.512 6.26058 225.915 55.4838 250.127C104.707 274.338 164.109 254.053 188.321 204.829C209.625 161.495 196.319 110.091 159.093 81.953Z" fill="#89BEAA"/>
<path opacity="0.66" d="M177.415 60.2115L129.791 36.7998C127.61 35.7092 126.737 33.0916 127.755 30.9104L133.79 18.6952C134.881 16.514 137.498 15.6416 139.679 16.6596L187.303 40.0716C189.484 41.1623 190.357 43.7795 189.339 45.9607L183.304 58.1758C182.286 60.4298 179.596 61.3021 177.415 60.2115Z" fill="#89BEAA"/>
<path opacity="0.66" d="M138.952 28.2199C140.518 28.2199 141.788 26.9504 141.788 25.3844C141.788 23.8183 140.518 22.5488 138.952 22.5488C137.386 22.5488 136.117 23.8183 136.117 25.3844C136.117 26.9504 137.386 28.2199 138.952 28.2199Z" fill="#A6DDC6"/>
<path opacity="0.66" d="M157.275 37.5253L144.624 31.2724C143.533 30.6907 143.024 29.3818 143.606 28.2185L144.115 27.2007C144.696 26.11 146.005 25.6012 147.168 26.1828L159.82 32.4358C160.91 33.0174 161.419 34.326 160.837 35.4893L160.328 36.5071C159.747 37.5977 158.365 38.107 157.275 37.5253Z" fill="#A6DDC6"/>
<path d="M32.4356 130.231C34.9253 130.231 36.9435 128.213 36.9435 125.723C36.9435 123.233 34.9253 121.215 32.4356 121.215C29.946 121.215 27.9277 123.233 27.9277 125.723C27.9277 128.213 29.946 130.231 32.4356 130.231Z" fill="#FFCD8A"/>
<path d="M25.0192 140.047C26.6254 140.047 27.9275 138.745 27.9275 137.139C27.9275 135.533 26.6254 134.23 25.0192 134.23C23.4129 134.23 22.1108 135.533 22.1108 137.139C22.1108 138.745 23.4129 140.047 25.0192 140.047Z" fill="#FFCD8A"/>
</svg>
