<svg width="326" height="312" viewBox="0 0 326 312" fill="none" xmlns="http://www.w3.org/2000/svg">
<path d="M217.541 64.385L146.016 53.7197C143.927 53.4214 142.585 51.1093 142.958 48.4989L149.894 2.0332L228.878 13.8176L221.941 60.2829C221.643 62.8933 219.629 64.6833 217.541 64.385Z" fill="#633A14"/>
<path d="M287.352 300.891L20.3429 261.063C14.8984 260.243 11.1692 255.245 11.9896 249.801L26.7571 151.053C27.5775 145.608 32.5746 141.879 38.0192 142.699L305.028 182.527C310.472 183.347 314.202 188.344 313.381 193.789L298.614 292.537C297.793 297.982 292.722 301.711 287.352 300.891Z" fill="#3C7C31"/>
<path d="M58.082 172.904C62.1599 172.904 65.4657 169.598 65.4657 165.52C65.4657 161.442 62.1599 158.137 58.082 158.137C54.0041 158.137 50.6982 161.442 50.6982 165.52C50.6982 169.598 54.0041 172.904 58.082 172.904Z" fill="#519942"/>
<path d="M43.1644 184.39C46.1302 184.39 48.5344 181.986 48.5344 179.021C48.5344 176.055 46.1302 173.65 43.1644 173.65C40.1987 173.65 37.7944 176.055 37.7944 179.021C37.7944 181.986 40.1987 184.39 43.1644 184.39Z" fill="#519942"/>
<path d="M285.487 268.521C288.452 268.521 290.857 266.117 290.857 263.151C290.857 260.185 288.452 257.781 285.487 257.781C282.521 257.781 280.117 260.185 280.117 263.151C280.117 266.117 282.521 268.521 285.487 268.521Z" fill="#519942"/>
<path d="M278.401 276.651C280.007 276.651 281.31 275.349 281.31 273.743C281.31 272.136 280.007 270.834 278.401 270.834C276.794 270.834 275.492 272.136 275.492 273.743C275.492 275.349 276.794 276.651 278.401 276.651Z" fill="#519942"/>
<path opacity="0.2" d="M315.021 174.172L246.628 163.954C213.364 158.957 190.392 128.005 195.39 94.7407C196.956 84.4482 200.983 75.1252 206.726 67.3685L156.979 59.9102C160.261 69.0839 161.379 79.1527 159.888 89.4453C154.891 122.709 123.939 145.681 90.6744 140.684L30.8585 131.734C24.2206 130.765 18.1048 135.314 17.0606 141.952L0.130175 255.244C-0.839409 261.882 3.71019 267.998 10.3481 269.042L294.585 311.48C301.223 312.45 307.339 307.9 308.383 301.262L325.314 187.97C326.209 181.332 321.659 175.216 315.021 174.172Z" fill="#89BEAA"/>
<path opacity="0.66" d="M221.344 69.7547L140.869 57.7467C138.408 57.3738 136.692 55.0617 137.065 52.6005L140.571 29.1067C140.943 26.6455 143.256 24.93 145.717 25.3029L226.118 37.3109C228.579 37.6838 230.294 39.9958 229.921 42.4571L226.416 65.9509C226.118 68.4121 223.806 70.1276 221.344 69.7547Z" fill="#89BEAA"/>
<path opacity="0.66" d="M150.341 42.2343C152.647 42.2343 154.517 40.3643 154.517 38.0576C154.517 35.7509 152.647 33.8809 150.341 33.8809C148.034 33.8809 146.164 35.7509 146.164 38.0576C146.164 40.3643 148.034 42.2343 150.341 42.2343Z" fill="#A6DDC6"/>
<path opacity="0.66" d="M181.144 46.858L160.932 43.8746C159.067 43.5763 157.799 41.8611 158.098 39.9965L158.321 38.5048C158.62 36.6402 160.335 35.3721 162.2 35.6704L182.412 38.6538C184.276 38.9521 185.544 40.6677 185.246 42.5323L185.022 44.0239C184.724 45.8139 183.009 47.0817 181.144 46.858Z" fill="#A6DDC6"/>
<path d="M228.952 13.8176C229.4 10.9088 212.022 5.91172 190.243 2.63005C168.465 -0.651617 150.416 -0.875586 149.968 2.03317C149.521 4.94192 166.899 9.93901 188.677 13.2207C193.973 14.0411 199.044 14.6378 203.668 15.0853L205.682 30.2259L212.32 15.7568C222.165 16.2043 228.654 15.6076 228.952 13.8176Z" fill="#FFB23E"/>
<path d="M211.112 68.0334L151.29 59.1055L148.351 78.8003L208.173 87.7282L211.112 68.0334Z" fill="#A977AB"/>
<path d="M258.188 99.639L204.882 75.2402L200.443 84.9382L253.749 109.337L258.188 99.639Z" fill="#A977AB"/>
<path d="M231.346 125.84L204.679 73.6367L195.181 78.4884L221.849 130.692L231.346 125.84Z" fill="#A977AB"/>
</svg>
