<svg width="299" height="391" viewBox="0 0 299 391" fill="none" xmlns="http://www.w3.org/2000/svg">
<path d="M215.146 125.324C216.455 126.197 217.218 127.287 217.436 128.487C218.745 137.539 182.536 150.517 136.403 157.279C90.2701 164.15 51.7713 162.296 50.4625 153.135C50.3535 152.044 50.6807 150.954 51.5532 149.754C30.6133 172.875 17.853 203.631 17.853 237.222C17.853 309.312 76.3101 367.66 148.291 367.66C220.272 367.66 278.729 309.203 278.729 237.222C278.729 189.671 253.208 148.118 215.146 125.324Z" fill="#FFB23E"/>
<path d="M213.729 124.453C214.165 124.78 214.71 124.998 215.146 125.325C214.71 124.998 214.274 124.671 213.729 124.453Z" fill="#FFB23E"/>
<path d="M51.4434 149.76C51.9887 149.105 52.6431 148.451 53.1884 147.797C52.534 148.56 51.8796 149.105 51.4434 149.76Z" fill="#FFB23E"/>
<path d="M50.463 153.137C51.7718 162.19 90.2706 164.043 136.404 157.282C182.537 150.411 218.854 137.541 217.437 128.489C217.219 127.29 216.455 126.308 215.146 125.327C214.71 124.999 214.165 124.782 213.729 124.454C202.931 119.001 169.777 118.674 131.496 124.345C93.7606 129.907 62.5689 139.614 53.2986 147.903C52.6442 148.557 52.099 149.211 51.5536 149.866C50.5721 150.956 50.2449 152.047 50.463 153.137Z" fill="#FFC06E"/>
<path d="M268.477 82.9053L201.84 50.1868C199.877 49.2052 199.331 46.5877 200.531 44.1884L221.798 0.890625L295.415 37.0994L274.148 80.3966C272.948 82.5778 270.44 83.7778 268.477 82.9053Z" fill="#633A14"/>
<path d="M295.305 36.988C296.614 34.2615 281.236 24.0096 260.951 13.9759C240.665 3.9422 223.106 -1.94725 221.689 0.7793C220.38 3.50585 235.758 13.7578 256.043 23.7915C260.951 26.1908 265.749 28.3719 270.112 30.226L267.385 45.6038L278.401 33.4979C287.998 37.0969 294.542 38.5149 295.305 36.988Z" fill="#FFB23E"/>
<path opacity="0.2" d="M239.139 122.929L257.134 86.2842L206.42 61.3086L188.425 97.9535C120.916 79.522 47.7353 110.823 15.7802 175.933C-20.4284 249.768 9.89087 338.871 83.7257 375.189C157.561 411.506 246.664 381.078 282.982 307.243C314.937 242.242 294.979 165.135 239.139 122.929Z" fill="#89BEAA"/>
<path opacity="0.66" d="M266.621 90.3182L195.186 55.2007C191.914 53.5647 190.605 49.6384 192.132 46.3665L201.184 28.0438C202.82 24.772 206.746 23.4634 210.018 24.9903L281.454 60.1084C284.725 61.7444 286.034 65.6702 284.507 68.942L275.455 87.2647C273.928 90.6456 269.893 91.9542 266.621 90.3182Z" fill="#89BEAA"/>
<path opacity="0.66" d="M208.927 42.3308C211.276 42.3308 213.181 40.4266 213.181 38.0775C213.181 35.7284 211.276 33.8242 208.927 33.8242C206.578 33.8242 204.674 35.7284 204.674 38.0775C204.674 40.4266 206.578 42.3308 208.927 42.3308Z" fill="#A6DDC6"/>
<path opacity="0.66" d="M236.411 56.289L217.434 46.9095C215.798 46.037 215.035 44.0737 215.907 42.3287L216.67 40.802C217.543 39.166 219.506 38.4027 221.251 39.2752L240.228 48.6546C241.864 49.5271 242.627 51.4899 241.755 53.2349L240.991 54.7617C240.119 56.3976 238.047 57.1614 236.411 56.289Z" fill="#A6DDC6"/>
<path d="M49.1539 195.344C52.8884 195.344 55.9158 192.317 55.9158 188.582C55.9158 184.848 52.8884 181.82 49.1539 181.82C45.4195 181.82 42.3921 184.848 42.3921 188.582C42.3921 192.317 45.4195 195.344 49.1539 195.344Z" fill="#FFCD8A"/>
<path d="M38.029 210.069C40.4383 210.069 42.3915 208.116 42.3915 205.706C42.3915 203.297 40.4383 201.344 38.029 201.344C35.6196 201.344 33.6665 203.297 33.6665 205.706C33.6665 208.116 35.6196 210.069 38.029 210.069Z" fill="#FFCD8A"/>
<path d="M158.433 229.367C161.16 222.824 156.688 216.389 148.29 212.899C139.347 209.3 130.186 210.718 122.879 216.389L103.684 193.159C118.408 182.035 138.366 178.872 162.578 188.797C187.88 199.158 201.622 217.371 193.442 237.547C182.972 263.286 154.398 255.979 148.181 271.138L118.844 259.142C127.678 237.438 153.416 241.691 158.433 229.367ZM104.23 283.571C108.156 273.865 118.735 269.72 129.75 274.192C140.765 278.663 145.564 289.133 141.638 298.84C137.711 308.437 126.805 313.018 115.79 308.437C104.775 303.857 100.303 293.169 104.23 283.571Z" fill="white"/>
</svg>
