<svg width="489" height="468" viewBox="0 0 489 468" fill="none" xmlns="http://www.w3.org/2000/svg">
<path d="M326.812 97.0746L219.524 81.0767C216.391 80.6292 214.378 77.161 214.937 73.2454L225.341 3.54688L343.817 21.2235L333.413 90.9214C332.965 94.8371 329.945 97.5221 326.812 97.0746Z" fill="#633A14"/>
<path d="M431.527 451.836L31.0142 392.095C22.8473 390.864 17.2535 383.368 18.4841 375.201L40.6354 227.079C41.8661 218.912 49.3617 213.318 57.5286 214.549L458.041 274.29C466.208 275.52 471.802 283.016 470.571 291.183L448.42 439.306C447.19 447.472 439.582 453.066 431.527 451.836Z" fill="#3C7C31"/>
<path d="M87.623 259.858C93.7399 259.858 98.6986 254.899 98.6986 248.783C98.6986 242.666 93.7399 237.707 87.623 237.707C81.5061 237.707 76.5474 242.666 76.5474 248.783C76.5474 254.899 81.5061 259.858 87.623 259.858Z" fill="#519942"/>
<path d="M65.2469 277.083C69.6956 277.083 73.3019 273.477 73.3019 269.028C73.3019 264.579 69.6956 260.973 65.2469 260.973C60.7983 260.973 57.1919 264.579 57.1919 269.028C57.1919 273.477 60.7983 277.083 65.2469 277.083Z" fill="#519942"/>
<path d="M428.73 403.282C433.178 403.282 436.785 399.675 436.785 395.227C436.785 390.778 433.178 387.172 428.73 387.172C424.281 387.172 420.675 390.778 420.675 395.227C420.675 399.675 424.281 403.282 428.73 403.282Z" fill="#519942"/>
<path d="M418.101 415.476C420.511 415.476 422.465 413.523 422.465 411.113C422.465 408.703 420.511 406.75 418.101 406.75C415.692 406.75 413.738 408.703 413.738 411.113C413.738 413.523 415.692 415.476 418.101 415.476Z" fill="#519942"/>
<path opacity="0.2" d="M473.032 261.756L370.443 246.429C320.546 238.933 286.089 192.505 293.584 142.609C295.934 127.17 301.975 113.186 310.589 101.551L235.969 90.3633C240.891 104.124 242.569 119.227 240.332 134.666C232.836 184.562 186.408 219.02 136.512 211.524L46.7878 198.099C36.8309 196.645 27.6572 203.469 26.0909 213.426L0.695262 383.364C-0.759114 393.321 6.06528 402.495 16.0222 404.061L442.378 467.718C452.335 469.173 461.509 462.348 463.075 452.391L488.471 282.453C489.813 272.496 482.989 263.322 473.032 261.756Z" fill="#89BEAA"/>
<path opacity="0.66" d="M332.517 105.133L211.804 87.121C208.112 86.5616 205.539 83.0936 206.098 79.4017L211.356 44.1611C211.915 40.4692 215.384 37.8959 219.075 38.4553L339.677 56.4673C343.369 57.0267 345.942 60.4947 345.382 64.1866L340.124 99.4272C339.677 103.119 336.209 105.692 332.517 105.133Z" fill="#89BEAA"/>
<path opacity="0.66" d="M226.011 63.8505C229.471 63.8505 232.276 61.0455 232.276 57.5854C232.276 54.1254 229.471 51.3203 226.011 51.3203C222.551 51.3203 219.746 54.1254 219.746 57.5854C219.746 61.0455 222.551 63.8505 226.011 63.8505Z" fill="#A6DDC6"/>
<path opacity="0.66" d="M272.216 70.7879L241.898 66.3129C239.101 65.8654 237.199 63.2926 237.647 60.4957L237.982 58.2582C238.43 55.4613 241.003 53.5591 243.8 54.0066L274.118 58.4816C276.915 58.9291 278.817 61.5025 278.369 64.2994L278.034 66.5369C277.586 69.2219 275.013 71.1235 272.216 70.7879Z" fill="#A6DDC6"/>
<path d="M343.928 21.2263C344.6 16.8632 318.533 9.36758 285.865 4.44508C253.198 -0.477425 226.124 -0.813379 225.453 3.54975C224.781 7.91288 250.848 15.4085 283.516 20.331C291.459 21.5616 299.066 22.4566 306.003 23.1279L309.023 45.8389L318.98 24.1352C333.748 24.8065 343.481 23.9113 343.928 21.2263Z" fill="#FFB23E"/>
<path d="M317.168 102.548L227.435 89.1562L223.026 118.699L312.759 132.09L317.168 102.548Z" fill="#A977AB"/>
<path d="M387.782 149.957L307.824 113.359L301.165 127.906L381.124 164.504L387.782 149.957Z" fill="#A977AB"/>
<path d="M347.519 189.262L307.518 110.957L293.271 118.234L333.273 196.54L347.519 189.262Z" fill="#A977AB"/>
<path d="M255.322 309.865C256.441 302.593 250.399 297.335 241.114 295.993C231.381 294.538 222.542 298.23 216.613 305.614L191.889 287.154C203.859 272.499 222.99 264.444 249.504 268.471C277.249 272.611 295.373 287.49 292.017 309.529C287.766 337.722 257.559 337.386 255.098 354.056L222.99 349.245C226.57 325.527 253.308 323.402 255.322 309.865ZM214.376 377.214C215.942 366.585 225.451 359.873 237.534 361.663C249.616 363.453 256.888 372.627 255.322 383.367C253.756 393.883 244.022 401.043 231.94 399.253C219.857 397.351 212.921 387.618 214.376 377.214Z" fill="white"/>
</svg>
