<svg width="326" height="500" viewBox="0 0 326 500" fill="none" xmlns="http://www.w3.org/2000/svg">
<path d="M162.308 66.9031L73.6408 85.5528C71.1324 86.0981 68.5149 83.917 67.8605 80.7542L55.7546 23.1692L153.583 2.55664L165.689 60.1411C166.343 63.3039 164.816 66.3578 162.308 66.9031Z" fill="#633A14"/>
<path opacity="0.66" d="M168.088 71.8126L70.3691 92.4251C66.77 93.1886 63.2801 90.8986 62.5166 87.2995L56.7363 60.1427C55.9729 56.5437 58.2632 53.054 61.8623 52.2906L159.582 31.678C163.181 30.9146 166.671 33.2046 167.434 36.8036L173.214 63.9599C173.978 67.4499 171.688 71.0491 168.088 71.8126Z" fill="#89BEAA"/>
<path opacity="0.66" d="M71.8961 70.5047C74.7873 70.5047 77.1311 68.1611 77.1311 65.2699C77.1311 62.3787 74.7873 60.0352 71.8961 60.0352C69.0049 60.0352 66.6611 62.3787 66.6611 65.2699C66.6611 68.1611 69.0049 70.5047 71.8961 70.5047Z" fill="#A6DDC6"/>
<path opacity="0.66" d="M111.158 62.3245L87.4916 67.3414C84.7651 67.8867 82.1476 66.1418 81.6023 63.5243L81.4932 63.0881C80.9479 60.3616 82.6929 57.7442 85.3104 57.1989L108.977 52.1819C111.703 51.6366 114.321 53.3816 114.866 55.9991L114.975 56.4352C115.63 59.1618 113.885 61.7792 111.158 62.3245Z" fill="#A6DDC6"/>
<path d="M153.583 2.55887C152.82 -1.04017 130.353 0.595757 103.306 6.37603C76.2584 12.0472 54.9914 19.5724 55.7548 23.1715C56.5182 26.7705 78.985 25.1346 106.032 19.3543C112.576 17.9365 118.793 16.5187 124.464 14.9918L133.407 31.7872L134.825 11.9383C146.603 8.33925 154.02 4.74011 153.583 2.55887Z" fill="#FFB23E"/>
<path d="M257.956 199.637C258.938 200.182 259.81 200.727 260.792 201.381C260.028 200.727 259.156 200.182 257.956 199.637Z" fill="#89BEAA"/>
<path d="M37.8684 248.277C38.5228 247.405 39.0681 246.423 39.7225 245.551C38.85 246.532 38.1956 247.514 37.8684 248.277Z" fill="#89BEAA"/>
<path d="M260.682 201.379C261.336 202.033 261.773 202.688 261.882 203.452C264.063 213.812 215.639 232.789 153.692 245.876C91.7452 258.964 39.7227 261.145 37.5415 250.675C37.4324 249.912 37.5415 249.148 37.8687 248.275C21.1822 273.033 15.7291 306.187 26.5262 338.252L103.306 469.78C107.559 477.087 116.066 480.905 124.464 479.16L274.86 447.423C283.149 445.678 289.474 438.807 290.347 430.3L307.47 278.922C304.307 245.44 285.984 217.302 260.682 201.379ZM48.6658 324.292C44.3033 325.164 40.0499 322.438 39.0683 318.075C38.1959 313.713 40.9224 309.459 45.2849 308.478C49.6473 307.605 53.9008 310.332 54.8823 314.695C55.8639 319.057 53.0283 323.419 48.6658 324.292ZM64.0435 298.444C57.3907 299.862 50.847 295.609 49.4292 288.956C48.0114 282.303 52.2648 275.76 58.9176 274.342C65.5704 272.924 72.1141 277.177 73.5319 283.83C74.9497 290.483 70.6963 297.026 64.0435 298.444Z" fill="#C9345A"/>
<path d="M63.8182 298.393C70.4782 296.99 74.7395 290.453 73.3361 283.793C71.9326 277.133 65.3958 272.872 58.7358 274.275C52.0758 275.679 47.8146 282.216 49.218 288.876C50.6215 295.536 57.1582 299.797 63.8182 298.393Z" fill="#E5557F"/>
<path d="M54.7276 317.786C55.5473 313.405 52.6598 309.189 48.2788 308.369C43.8977 307.549 39.6818 310.436 38.8621 314.817C38.0424 319.198 40.9294 323.414 45.3104 324.234C49.6914 325.054 53.9079 322.167 54.7276 317.786Z" fill="#E5557F"/>
<path d="M153.692 245.875C215.639 232.788 264.172 213.811 261.882 203.45C261.773 202.687 261.336 202.032 260.682 201.377C259.809 200.832 258.828 200.178 257.846 199.633C244.214 193.853 198.626 197.124 145.731 208.249C92.8357 219.373 49.7563 234.86 39.7226 245.657C39.0683 246.529 38.4139 247.402 37.8686 248.383C37.5414 249.256 37.4323 250.019 37.5414 250.783C39.7226 261.144 91.7451 258.962 153.692 245.875Z" fill="#E5557F"/>
<path opacity="0.2" d="M198.408 169.965L168.089 176.4L146.93 76.2812L91.418 87.9505L112.576 188.07L82.2568 194.504C20.855 207.483 -14.481 275.428 7.00416 339.229L94.0355 488.535C98.9433 496.824 108.541 501.186 118.029 499.114L288.602 463.123C298.09 461.16 305.179 453.308 306.27 443.71L325.683 272.047C319.575 204.865 259.809 156.987 198.408 169.965Z" fill="#89BEAA"/>
<path d="M184.993 323.97C183.575 316.99 176.159 314.154 167.325 316.008C157.946 317.972 151.075 324.297 148.239 333.131L119.338 324.624C125.336 307.174 140.06 293.324 165.58 287.98C192.409 282.309 213.895 289.834 218.366 310.992C224.037 338.148 196.445 348.182 199.716 364.214L168.743 370.758C164.053 348.073 187.72 337.058 184.993 323.97ZM170.597 399.332C168.416 389.08 174.85 379.701 186.52 377.301C198.19 374.793 208.005 380.792 210.186 391.043C212.368 401.186 205.824 411.001 194.154 413.51C182.376 415.909 172.669 409.474 170.597 399.332Z" fill="white"/>
</svg>
