<svg width="271" height="263" viewBox="0 0 271 263" fill="none" xmlns="http://www.w3.org/2000/svg">
<path d="M246.793 123.937C244.176 121.029 240.322 118.775 235.887 117.757L57.6073 77.4766C53.0994 76.4587 48.7369 76.8951 45.1015 78.3492L38.9213 76.9678L36.4492 87.874L32.3049 106.269L13.4736 189.738C11.6559 197.735 18.1995 206.024 28.0878 208.278L206.368 248.558C216.256 250.812 225.708 246.086 227.526 238.088L246.357 154.62L250.501 136.225L252.973 125.319L246.793 123.937Z" fill="#A977AB"/>
<path d="M252.845 125.348C254.35 118.689 207.656 102.465 148.552 89.1099C89.4485 75.7549 40.3157 70.3262 38.8111 76.9847C37.3066 83.6432 84.0001 99.8674 143.104 113.222C202.208 126.578 251.341 132.006 252.845 125.348Z" fill="#C58FC9"/>
<path d="M242.067 72.894L71.1311 34.286C66.187 33.1954 62.4789 30.9416 62.8425 29.342L69.4589 0.113281L258.209 42.793L251.592 72.0213C251.301 73.6209 247.012 74.0573 242.067 72.894Z" fill="#633A14"/>
<path d="M258.208 43.0115C258.644 41.1938 216.692 30.1422 164.56 18.3636C112.429 6.58488 69.8219 -1.48591 69.4584 0.331786C69.0949 2.14948 110.975 13.2014 163.106 24.98C175.757 27.8157 187.754 30.4329 198.806 32.7596L206.731 44.1021L219.309 36.9768C242.649 41.7029 257.917 44.1021 258.208 43.0115Z" fill="#FFB23E"/>
<path opacity="0.2" d="M213.566 261.572L15.8004 216.93C4.82147 214.458 -2.01307 203.333 0.531706 192.136L32.7413 49.6288C35.2861 38.4318 46.1922 31.379 57.1711 33.8511L254.937 78.4936C265.915 80.9657 272.75 92.0901 270.205 103.287L237.996 245.795C235.451 256.992 224.545 264.044 213.566 261.572Z" fill="#89BEAA"/>
<path opacity="0.66" d="M250.138 77.4003L62.0425 34.8662C59.6432 34.3572 58.189 31.958 58.698 29.5586L61.0246 19.3795C61.5336 16.9802 63.9329 15.5259 66.3323 16.0349L254.428 58.569C256.827 59.078 258.281 61.4775 257.772 63.8769L255.446 74.056C254.864 76.4554 252.464 77.9819 250.138 77.4003Z" fill="#89BEAA"/>
<path opacity="0.66" d="M66.7689 25.8522C68.1342 25.8522 69.241 24.7455 69.241 23.3802C69.241 22.0149 68.1342 20.9082 66.7689 20.9082C65.4036 20.9082 64.2969 22.0149 64.2969 23.3802C64.2969 24.7455 65.4036 25.8522 66.7689 25.8522Z" fill="#A6DDC6"/>
<path opacity="0.66" d="M147.547 44.1716L76.2206 28.0303C74.9118 27.7395 74.1121 26.4307 74.4029 25.122V25.0492C74.6937 23.7405 76.0025 22.9407 77.3112 23.2315L148.638 39.3728C149.946 39.6636 150.746 40.9724 150.455 42.2811V42.3539C150.165 43.5899 148.856 44.4624 147.547 44.1716Z" fill="#A6DDC6"/>
</svg>
