<svg width="360" height="291" viewBox="0 0 360 291" fill="none" xmlns="http://www.w3.org/2000/svg">
<path d="M231.573 45.5245L60.4915 109.071C55.5474 110.889 50.8941 110.671 50.167 108.562L35.9163 70.2451L224.884 0.0820312L239.135 38.3992C239.862 40.5078 236.517 43.7068 231.573 45.5245Z" fill="#633A14"/>
<path d="M224.884 0.156949C224.23 -1.66075 181.332 12.5174 129.2 31.9304C76.9961 51.3434 35.2618 68.5024 35.9888 70.3201C36.7159 72.1378 79.5409 57.9599 131.672 38.5469C144.324 33.8209 156.32 29.313 167.299 25.0232L180.678 30.4035L187.585 17.0253C210.561 7.86413 225.32 1.24757 224.884 0.156949Z" fill="#FFB23E"/>
<path d="M308.28 191.961L97.7905 270.122C70.6705 280.229 40.4967 266.341 30.3903 239.221L20.8656 213.628C10.7592 186.508 24.6464 156.334 51.7664 146.228L262.256 68.0667C289.376 57.9603 319.55 71.8475 329.656 98.9676L339.181 124.561C349.287 151.754 335.4 181.928 308.28 191.961Z" fill="#138699"/>
<path opacity="0.66" d="M238.481 49.0906L57.438 116.345C51.7668 118.454 45.9501 116.854 44.496 112.782L37.6614 94.3147C36.1346 90.2431 39.5518 85.2991 45.1503 83.1905L226.193 15.9357C231.864 13.8272 237.681 15.4267 239.135 19.4984L245.97 37.9661C247.496 42.0377 244.152 46.9821 238.481 49.0906Z" fill="#89BEAA"/>
<path opacity="0.66" d="M50.4581 99.4044C52.9477 99.4044 54.966 97.3863 54.966 94.8967C54.966 92.4071 52.9477 90.3887 50.4581 90.3887C47.9684 90.3887 45.9502 92.4071 45.9502 94.8967C45.9502 97.3863 47.9684 99.4044 50.4581 99.4044Z" fill="#A6DDC6"/>
<path opacity="0.66" d="M129.491 70.3198L62.3093 95.2588C61.0732 95.695 59.6918 95.1134 59.1828 93.8046L57.7287 89.8781C57.2924 88.6421 57.8741 87.2608 59.1828 86.7518L126.365 61.8131C127.601 61.3769 128.982 61.9586 129.491 63.2673L130.946 67.1935C131.382 68.4295 130.727 69.8108 129.491 70.3198Z" fill="#A6DDC6"/>
<path opacity="0.2" d="M267.927 51.1264L232.373 64.3594L228.156 52.9441L67.6896 112.565L71.9067 123.98L36.3525 137.212C6.46959 148.337 -7.85387 183.964 4.36106 216.828L15.8489 247.801C28.0638 280.665 62.1638 298.333 92.0468 287.209L323.621 201.195C353.504 190.071 367.828 154.444 355.613 121.58L344.125 90.6067C331.91 57.67 297.81 40.0748 267.927 51.1264Z" fill="#89BEAA"/>
<path d="M54.1658 184.545C59.0647 184.545 63.0361 180.574 63.0361 175.675C63.0361 170.776 59.0647 166.805 54.1658 166.805C49.2668 166.805 45.2954 170.776 45.2954 175.675C45.2954 180.574 49.2668 184.545 54.1658 184.545Z" fill="#54BBC6"/>
<path d="M46.8953 203.885C50.7101 203.885 53.8025 200.792 53.8025 196.978C53.8025 193.163 50.7101 190.07 46.8953 190.07C43.0805 190.07 39.988 193.163 39.988 196.978C39.988 200.792 43.0805 203.885 46.8953 203.885Z" fill="#54BBC6"/>
</svg>
