<svg width="541" height="436" viewBox="0 0 541 436" fill="none" xmlns="http://www.w3.org/2000/svg">
<path d="M347.86 68.2847L91.2374 163.605C83.8212 166.332 76.8413 166.004 75.7506 162.842L54.3745 105.366L337.826 0.121094L359.202 57.5969C360.293 60.7597 355.276 65.5582 347.86 68.2847Z" fill="#633A14"/>
<path d="M337.826 0.235423C336.844 -2.49112 272.498 18.7761 194.301 47.8957C115.994 77.0152 53.3927 102.754 54.4833 105.48C55.5739 108.207 119.811 86.9399 198.009 57.8204C216.985 50.7314 234.981 43.9694 251.449 37.5348L271.516 45.6053L281.877 25.538C316.341 11.7962 338.48 1.87135 337.826 0.235423Z" fill="#FFB23E"/>
<path d="M462.92 287.942L147.186 405.183C106.506 420.343 61.245 399.512 46.0854 358.832L31.7983 320.442C16.6387 279.762 37.4696 234.501 78.1496 219.342L393.884 102.1C434.564 86.9405 479.824 107.771 494.984 148.451L509.271 186.841C524.431 227.63 503.6 272.891 462.92 287.942Z" fill="#138699"/>
<path opacity="0.66" d="M358.221 73.6349L86.6569 174.517C78.1501 177.68 69.4252 175.28 67.2439 169.173L56.9921 141.471C54.7018 135.364 59.8277 127.948 68.2255 124.785L339.789 23.9026C348.296 20.7398 357.021 23.1391 359.202 29.2466L369.454 56.9482C371.745 63.0556 366.728 70.4721 358.221 73.6349Z" fill="#89BEAA"/>
<path opacity="0.66" d="M76.1871 149.106C79.9216 149.106 82.949 146.079 82.949 142.344C82.949 138.61 79.9216 135.582 76.1871 135.582C72.4527 135.582 69.4253 138.61 69.4253 142.344C69.4253 146.079 72.4527 149.106 76.1871 149.106Z" fill="#A6DDC6"/>
<path opacity="0.66" d="M194.737 105.479L93.9637 142.887C92.1096 143.542 90.0374 142.669 89.274 140.706L87.0928 134.816C86.4384 132.962 87.3109 130.89 89.274 130.127L190.047 92.7187C191.901 92.0644 193.973 92.9369 194.737 94.9L196.918 100.789C197.572 102.643 196.591 104.715 194.737 105.479Z" fill="#A6DDC6"/>
<path opacity="0.2" d="M402.391 76.6886L349.06 96.5381L342.734 79.4152L102.034 168.846L108.36 185.969L55.0288 205.818C10.2044 222.504 -11.2808 275.945 7.04159 325.24L24.2734 371.701C42.5957 420.997 93.7458 447.499 138.57 430.813L485.932 301.792C530.757 285.106 552.242 231.665 533.919 182.369L516.688 135.909C498.365 86.504 447.215 60.1112 402.391 76.6886Z" fill="#89BEAA"/>
<path d="M81.7487 276.818C89.0971 276.818 95.0542 270.861 95.0542 263.512C95.0542 256.164 89.0971 250.207 81.7487 250.207C74.4002 250.207 68.4431 256.164 68.4431 263.512C68.4431 270.861 74.4002 276.818 81.7487 276.818Z" fill="#54BBC6"/>
<path d="M70.8431 305.827C76.5652 305.827 81.2039 301.188 81.2039 295.466C81.2039 289.744 76.5652 285.105 70.8431 285.105C65.1209 285.105 60.4822 289.744 60.4822 295.466C60.4822 301.188 65.1209 305.827 70.8431 305.827Z" fill="#54BBC6"/>
<path d="M269.88 224.578C267.372 217.926 259.738 216.18 251.231 219.343C242.179 222.724 236.398 229.922 234.872 239.083L205.098 234.939C208.37 216.835 220.912 201.021 245.451 191.86C271.08 182.372 293.547 186.516 301.072 206.801C310.779 232.758 284.822 246.827 290.493 262.096L260.828 273.111C252.758 251.517 274.57 237.121 269.88 224.578ZM266.718 301.358C263.119 291.542 268.026 281.29 279.151 277.146C290.275 273.002 300.854 277.473 304.562 287.289C308.161 296.995 303.253 307.684 292.02 311.828C280.787 315.972 270.317 310.955 266.718 301.358Z" fill="white"/>
</svg>
