<svg width="277" height="327" viewBox="0 0 277 327" fill="none" xmlns="http://www.w3.org/2000/svg">
<path d="M245.631 264.04L93.1622 311.3C80.8746 315.081 67.8599 308.247 64.0064 295.959L16.7463 143.49C12.9654 131.203 19.8 118.188 32.0876 114.334L184.556 67.0744C196.844 63.2936 209.858 70.1282 213.712 82.4158L260.972 234.884C264.753 247.172 257.918 260.259 245.631 264.04Z" fill="#DD5740"/>
<path d="M144.203 41.9921L51.0637 70.8573C48.3736 71.657 45.6834 70.7119 45.1017 68.7488L33.7593 32.1765L136.568 0.257812L147.911 36.8297C148.565 38.8656 146.893 41.1196 144.203 41.9921Z" fill="#633A14"/>
<path d="M136.714 0.547454C135.987 -1.7792 112.43 3.52862 84.0008 12.3263C55.572 21.1239 33.178 30.1398 33.8323 32.3937C34.4867 34.6477 58.1168 29.4126 86.5456 20.6149C93.4528 18.5064 99.9238 16.325 105.886 14.2892L114.829 23.9595L116.792 10.2902C129.298 5.70964 137.15 1.9289 136.714 0.547454Z" fill="#FFB23E"/>
<path opacity="0.2" d="M189.863 51.0088L136.569 67.5136L131.624 51.4451L66.7691 71.5853L71.7132 87.6538L18.4183 104.158C4.60381 108.448 -3.10324 123.135 1.18653 136.95L54.336 308.322C58.6257 322.137 73.3128 329.844 87.1273 325.554L258.5 272.404C272.314 268.115 280.021 253.428 275.732 239.613L222.582 68.2407C218.365 54.4262 203.678 46.719 189.863 51.0088Z" fill="#89BEAA"/>
<path opacity="0.66" d="M150.674 45.9184L48.0101 77.7647C45.6834 78.4918 43.2113 77.183 42.4842 74.8564L37.1766 57.77C36.4495 55.4434 37.7582 52.9712 40.0849 52.2442L142.748 20.3982C145.075 19.6712 147.547 20.9799 148.274 23.3066L153.582 40.3929C154.309 42.7196 153 45.1913 150.674 45.9184Z" fill="#89BEAA"/>
<path opacity="0.66" d="M47.283 63.5864C49.1703 63.5864 50.7002 62.0563 50.7002 60.169C50.7002 58.2817 49.1703 56.752 47.283 56.752C45.3957 56.752 43.8657 58.2817 43.8657 60.169C43.8657 62.0563 45.3957 63.5864 47.283 63.5864Z" fill="#A6DDC6"/>
<path opacity="0.66" d="M73.3129 55.5881L56.7355 60.7504C55.4995 61.114 54.118 60.4594 53.7544 59.1507L53.1728 57.2602C52.8093 56.0242 53.4636 54.6427 54.7724 54.2791L71.3498 49.1171C72.5858 48.7536 73.9672 49.4078 74.3308 50.7165L74.9125 52.607C75.276 53.843 74.5489 55.2245 73.3129 55.5881Z" fill="#A6DDC6"/>
<path d="M40.3759 152.217C46.0378 152.217 50.6277 147.627 50.6277 141.965C50.6277 136.303 46.0378 131.713 40.3759 131.713C34.7139 131.713 30.124 136.303 30.124 141.965C30.124 147.627 34.7139 152.217 40.3759 152.217Z" fill="#F47160"/>
<path d="M36.8864 170.394C39.6973 170.394 41.976 168.115 41.976 165.304C41.976 162.494 39.6973 160.215 36.8864 160.215C34.0755 160.215 31.7969 162.494 31.7969 165.304C31.7969 168.115 34.0755 170.394 36.8864 170.394Z" fill="#F47160"/>
<path d="M233.707 247.246C236.518 247.246 238.796 244.967 238.796 242.156C238.796 239.345 236.518 237.066 233.707 237.066C230.896 237.066 228.617 239.345 228.617 242.156C228.617 244.967 230.896 247.246 233.707 247.246Z" fill="#F47160"/>
</svg>
