<svg width="328" height="386" viewBox="0 0 328 386" fill="none" xmlns="http://www.w3.org/2000/svg">
<path d="M290.151 311.899L110.048 367.725C95.5332 372.192 80.1596 364.119 75.6077 349.604L19.7816 169.5C15.3156 154.985 23.3888 139.612 37.9036 135.06L218.007 79.2338C232.522 74.7677 247.895 82.8411 252.447 97.3559L308.273 277.459C312.739 291.974 304.666 307.433 290.151 311.899Z" fill="#DD5740"/>
<path d="M170.339 49.6033L60.3188 83.7003C57.141 84.645 53.9633 83.5286 53.2762 81.2097L39.8779 38.0086L161.321 0.304688L174.719 43.5053C175.492 45.9101 173.517 48.5727 170.339 49.6033Z" fill="#633A14"/>
<path d="M161.493 0.64668C160.634 -2.10168 132.807 4.16818 99.2257 14.5604C65.6442 24.9526 39.1913 35.6026 39.9643 38.2651C40.7372 40.9276 68.6503 34.7436 102.232 24.3514C110.391 21.8607 118.035 19.2839 125.077 16.8791L135.641 28.3022L137.96 12.1553C152.733 6.74452 162.009 2.27852 161.493 0.64668Z" fill="#FFB23E"/>
<path opacity="0.2" d="M224.276 60.2531L161.322 79.7495L155.481 60.7685L78.8709 84.5592L84.7112 103.54L21.7566 123.036C5.43825 128.103 -3.6657 145.452 1.40158 161.771L64.1844 364.205C69.2517 380.523 86.6007 389.627 102.919 384.56L305.353 321.777C321.671 316.709 330.775 299.361 325.708 283.042L262.925 80.6083C257.944 64.29 240.595 55.1858 224.276 60.2531Z" fill="#89BEAA"/>
<path opacity="0.66" d="M177.983 54.2425L56.7117 91.8609C53.9634 92.7198 51.0432 91.1738 50.1843 88.4255L43.9146 68.2422C43.0558 65.4938 44.6017 62.5736 47.3501 61.7148L168.621 24.0968C171.37 23.2379 174.29 24.7839 175.149 27.5322L181.418 47.7155C182.277 50.4638 180.731 53.3836 177.983 54.2425Z" fill="#89BEAA"/>
<path opacity="0.66" d="M55.8531 75.1123C58.0824 75.1123 59.8897 73.3048 59.8897 71.0755C59.8897 68.8461 58.0824 67.0391 55.8531 67.0391C53.6237 67.0391 51.8164 68.8461 51.8164 71.0755C51.8164 73.3048 53.6237 75.1123 55.8531 75.1123Z" fill="#A6DDC6"/>
<path opacity="0.66" d="M86.601 65.6638L67.0189 71.7618C65.5588 72.1912 63.927 71.418 63.4975 69.8721L62.8105 67.639C62.381 66.1789 63.154 64.547 64.7 64.1175L84.282 58.02C85.7421 57.5905 87.3739 58.3633 87.8033 59.9092L88.4905 62.1423C88.9199 63.6024 88.061 65.2343 86.601 65.6638Z" fill="#A6DDC6"/>
<path d="M47.6945 179.806C54.3826 179.806 59.8044 174.384 59.8044 167.696C59.8044 161.008 54.3826 155.586 47.6945 155.586C41.0063 155.586 35.5845 161.008 35.5845 167.696C35.5845 174.384 41.0063 179.806 47.6945 179.806Z" fill="#F47160"/>
<path d="M43.5721 201.278C46.8924 201.278 49.5841 198.586 49.5841 195.266C49.5841 191.946 46.8924 189.254 43.5721 189.254C40.2517 189.254 37.5601 191.946 37.5601 195.266C37.5601 198.586 40.2517 201.278 43.5721 201.278Z" fill="#F47160"/>
<path d="M276.066 292.059C279.387 292.059 282.078 289.368 282.078 286.047C282.078 282.727 279.387 280.035 276.066 280.035C272.746 280.035 270.054 282.727 270.054 286.047C270.054 289.368 272.746 292.059 276.066 292.059Z" fill="#F47160"/>
<path d="M171.027 207.631C169.395 202.307 163.383 200.589 156.598 202.736C149.384 204.969 144.488 210.466 142.856 217.594L119.581 213.043C123.017 198.957 133.495 187.019 153.163 180.921C173.775 174.565 191.21 178.774 196.277 195.092C202.719 215.962 181.763 225.839 185.542 238.121L161.751 245.507C156.34 228.072 174.119 217.68 171.027 207.631ZM165.187 267.838C162.782 259.936 167.076 252.121 176.008 249.372C184.941 246.624 193.1 250.489 195.504 258.39C197.909 266.12 193.615 274.365 184.597 277.199C175.579 280.034 167.591 275.568 165.187 267.838Z" fill="white"/>
</svg>
