<svg width="324" height="305" viewBox="0 0 324 305" fill="none" xmlns="http://www.w3.org/2000/svg">
<path d="M261.3 221.1V145H271.2V221.1C274.7 222.9 277 226.5 277 230.7C277 236.7 272.2 241.5 266.2 241.5C260.2 241.5 255.4 236.7 255.4 230.7C255.5 226.5 257.9 222.9 261.3 221.1Z" fill="#E09128"/>
<path d="M80 249.501C80 246.201 80.4 242.901 81.3 239.701H243.2C244 242.901 244.5 246.101 244.5 249.501C244.5 249.701 244.5 249.901 244.5 250.201H80C80 249.901 80 249.701 80 249.501Z" fill="#B43EC1"/>
<path d="M126.6 199.901V134.301H197.9V199.901C215.3 205.501 229.2 215.001 237.2 226.801H87.2998C95.1998 215.101 109.2 205.501 126.6 199.901Z" fill="#B43EC1"/>
<path d="M82.5 263.102H241.9C238.7 271.502 232.7 279.102 224.5 285.402C227.5 287.202 229.5 290.502 229.5 294.202C229.5 299.902 224.9 304.502 219.2 304.502H100.6C94.9 304.502 90.3 299.902 90.3 294.202C90.3 289.302 93.7 285.202 98.3 284.202C91 278.102 85.5 270.902 82.5 263.102Z" fill="#B43EC1"/>
<path d="M87.2998 226.801H237.2C240 230.901 242 235.201 243.2 239.701H81.2998C82.4998 235.201 84.4998 230.901 87.2998 226.801Z" fill="#FFB23E"/>
<path d="M80 250.201H244.4C244.3 254.701 243.5 259.001 241.9 263.101H82.5C80.9 258.901 80.1 254.601 80 250.201Z" fill="#FFB23E"/>
<path opacity="0.26" d="M324 304.5H0.899902L45.0999 145H279.8L324 304.5Z" fill="#E09128"/>
<path d="M161 136.899C214.9 136.899 261.4 117.999 282.8 90.6992C290.8 107.799 295.4 126.999 295.4 147.099C295.4 165.499 280.5 180.299 262.2 180.299C243.8 180.299 229 165.399 229 147.099C229 165.499 214.1 180.299 195.8 180.299C177.5 180.299 162.6 165.399 162.6 147.099C162.6 165.499 147.7 180.299 129.4 180.299C111 180.299 96.1998 165.399 96.1998 147.099C96.1998 165.499 81.2998 180.299 62.9998 180.299C44.5998 180.299 29.7998 165.399 29.7998 147.099C29.7998 127.799 33.8998 109.399 41.2998 92.8994C63.1998 118.999 108.6 136.899 161 136.899Z" fill="#872C8B"/>
<path d="M58.0996 64.7993C73.5996 82.7993 114.2 95.5991 162 95.5991C210.3 95.5991 251.3 82.4992 266.4 64.1992C272.9 72.2992 278.4 81.1992 282.9 90.6992C261.5 117.999 215 136.899 161.1 136.899C108.7 136.899 63.2996 118.999 41.0996 92.8994C45.5996 82.7994 51.2996 73.3993 58.0996 64.7993Z" fill="#9B33A3"/>
<path d="M161.9 95.5991C114.2 95.5991 73.5 82.7993 58 64.7993C82.3 33.9993 120 14.1992 162.4 14.1992C204.4 14.1992 241.9 33.6992 266.3 64.1992C251.2 82.4992 210.2 95.5991 161.9 95.5991Z" fill="#B43EC1"/>
<path d="M118.7 20.1992H205.8C207.5 20.1992 208.8 18.8992 208.8 17.1992C208.8 15.4992 207.5 14.1992 205.8 14.1992H118.7C117 14.1992 115.7 15.4992 115.7 17.1992C115.7 18.8992 117 20.1992 118.7 20.1992Z" fill="#FFB23E"/>
<path d="M133.5 0C138.8 0 143.1 4.29961 143.1 9.59961C143.1 4.29961 147.4 0 152.7 0C158 0 162.3 4.29961 162.3 9.59961C162.3 4.29961 166.6 0 171.9 0C177.2 0 181.5 4.29961 181.5 9.59961C181.5 4.29961 185.8 0 191.1 0C196.4 0 200.7 4.29961 200.7 9.59961V14.1997H123.6V9.59961C123.9 4.29961 128.2 0 133.5 0Z" fill="#B43EC1"/>
<path d="M32.5998 139.9C32.4998 142.1 32.3999 144.4 32.3999 146.6C32.2999 162.4 45.1999 176.5 60.9999 177.4C77.5999 178.4 91.5998 165.9 93.0998 149.8C93.1998 148.2 94.4998 147 96.0998 147C97.5998 147 98.8998 148.2 99.0998 149.7C100.5 165.2 113.5 177.4 129.4 177.4C145.2 177.4 158.3 165.2 159.7 149.7C159.8 148.2 161.1 147 162.7 147C164.2 147 165.5 148.2 165.7 149.7C167.1 165.2 180.1 177.4 196 177.4C211.8 177.4 224.9 165.2 226.3 149.7C226.4 148.2 227.7 147 229.3 147C230.9 147 232.1 148.2 232.3 149.8C233.8 165.8 247.7 178.3 264.4 177.4C280.1 176.5 293 162.4 293 146.6C293 144.3 292.9 142.1 292.8 139.9C292.7 138.3 294 136.9 295.7 136.9C297.2 136.9 298.5 138.1 298.6 139.6C298.7 141.9 298.8 144.1 298.8 146.4C298.9 165.7 283.3 182.5 264 183.2C248.6 183.7 235.1 174.5 229.5 161.2C224 174.1 211.2 183.2 196.3 183.2C181.4 183.2 168.6 174.1 163.1 161.2C157.6 174.1 144.8 183.2 129.9 183.2C115 183.2 102.2 174.1 96.6999 161.2C90.9999 174.5 77.5999 183.7 62.1999 183.2C42.8999 182.5 27.2999 165.7 27.3999 146.4C27.3999 144.1 27.4998 141.9 27.5998 139.6C27.6998 138.1 28.8999 136.9 30.4999 136.9C31.3999 136.9 32.6998 138.3 32.5998 139.9Z" fill="#FFB23E"/>
<path d="M200.8 216.9C203.506 216.9 205.7 214.706 205.7 212C205.7 209.294 203.506 207.1 200.8 207.1C198.094 207.1 195.9 209.294 195.9 212C195.9 214.706 198.094 216.9 200.8 216.9Z" fill="#D05FE0"/>
<path d="M211 220.4C212.657 220.4 214 219.057 214 217.4C214 215.744 212.657 214.4 211 214.4C209.343 214.4 208 215.744 208 217.4C208 219.057 209.343 220.4 211 220.4Z" fill="#D05FE0"/>
</svg>
