<svg width="160" height="186" viewBox="0 0 160 186" fill="none" xmlns="http://www.w3.org/2000/svg">
<path d="M152.2 107.301H7.7002L15.3002 155.601H144.5L152.2 107.301Z" fill="#BF3C2B"/>
<path d="M19.9998 185.402H139.8L142 171.402H17.7998L19.9998 185.402Z" fill="#BF3C2B"/>
<path d="M15.2998 155.602L17.7998 171.402H142L144.5 155.602H15.2998Z" fill="#FFB23E"/>
<path d="M11.0998 136.201H148.8C152.6 136.201 155.6 133.101 155.6 129.401V107.601C155.6 103.801 152.5 100.801 148.8 100.801H11.0998C7.29979 100.801 4.2998 103.901 4.2998 107.601V129.401C4.2998 133.101 7.29979 136.201 11.0998 136.201Z" fill="#DD5740"/>
<path d="M105.6 77.502H54.7002V100.702H105.6V77.502Z" fill="#FFFACC"/>
<path d="M159.2 62.8018C151 27.4018 119.6 0.901563 82 0.101562C82 8.10156 75.5 14.6016 67.5 14.6016C61 14.6016 55.6 10.402 53.7 4.50195C41.2 8.80195 30.1999 16.0019 21.2999 25.4019C21.4 25.4019 21.4999 25.4019 21.5999 25.4019C30.6999 25.4019 38.0999 30.9016 38.0999 37.6016C38.0999 44.3016 30.6999 49.8018 21.5999 49.8018C15.8999 49.8018 10.8 47.7019 7.89999 44.4019C4.89999 50.2019 2.69994 56.4019 1.09994 62.9019C-1.10006 72.3019 5.99997 81.4019 15.7 81.4019H144.7C154.3 81.3019 161.4 72.3018 159.2 62.8018ZM69.7 72.8018C63.7 72.8018 58.7999 69.2017 58.7999 64.7017C58.7999 60.2017 63.7 56.6016 69.7 56.6016C75.7 56.6016 80.5999 60.2017 80.5999 64.7017C80.5999 69.2017 75.7 72.8018 69.7 72.8018ZM114.8 61.4019C105.3 61.4019 97.5 55.7017 97.5 48.7017C97.5 41.7017 105.2 36.002 114.8 36.002C124.3 36.002 132.1 41.7017 132.1 48.7017C132.1 55.7017 124.3 61.4019 114.8 61.4019Z" fill="#C9345A"/>
<path d="M67.5001 14.6016C75.5001 14.6016 82.0001 8.10156 82.0001 0.101562C81.4001 0.101562 80.8001 0.101562 80.1001 0.101562C70.8001 0.101562 61.9001 1.70195 53.6001 4.50195C55.5001 10.302 61.0001 14.6016 67.5001 14.6016Z" fill="#FFFACC"/>
<path d="M114.8 61.3022C124.355 61.3022 132.1 55.6161 132.1 48.6021C132.1 41.588 124.355 35.9023 114.8 35.9023C105.245 35.9023 97.5 41.588 97.5 48.6021C97.5 55.6161 105.245 61.3022 114.8 61.3022Z" fill="#FFFACC"/>
<path d="M69.6998 72.9014C75.7197 72.9014 80.5998 69.2748 80.5998 64.8013C80.5998 60.3278 75.7197 56.7012 69.6998 56.7012C63.6799 56.7012 58.7998 60.3278 58.7998 64.8013C58.7998 69.2748 63.6799 72.9014 69.6998 72.9014Z" fill="#FFFACC"/>
<path d="M21.5002 49.8022C30.6002 49.8022 38.0002 44.3021 38.0002 37.6021C38.0002 30.9021 30.6002 25.4023 21.5002 25.4023C21.4002 25.4023 21.3002 25.4023 21.2002 25.4023C15.9002 31.0023 11.3002 37.4023 7.7002 44.4023C10.8002 47.6023 15.8002 49.8022 21.5002 49.8022Z" fill="#FFFACC"/>
<path d="M40.0999 87.001C43.2999 87.001 45.7999 84.4008 45.7999 81.3008H34.3999C34.3999 84.4008 36.9999 87.001 40.0999 87.001Z" fill="#CCC592"/>
<path d="M51.5997 87.001C54.7997 87.001 57.2997 84.4008 57.2997 81.3008H45.8998C45.7998 84.4008 48.3997 87.001 51.5997 87.001Z" fill="#CCC592"/>
<path d="M62.9998 87.001C66.1998 87.001 68.6998 84.4008 68.6998 81.3008H57.2998C57.2998 84.4008 59.7998 87.001 62.9998 87.001Z" fill="#CCC592"/>
<path d="M74.3997 87.001C77.5997 87.001 80.0997 84.4008 80.0997 81.3008H68.6997C68.6997 84.4008 71.2997 87.001 74.3997 87.001Z" fill="#CCC592"/>
<path d="M85.7996 87.001C88.9996 87.001 91.4996 84.4008 91.4996 81.3008H80.0996C80.0996 84.4008 82.6996 87.001 85.7996 87.001Z" fill="#CCC592"/>
<path d="M97.2996 87.001C100.5 87.001 103 84.4008 103 81.3008H91.5996C91.5996 84.4008 94.0996 87.001 97.2996 87.001Z" fill="#CCC592"/>
<path d="M108.7 87.001C111.9 87.001 114.4 84.4008 114.4 81.3008H103C103 84.4008 105.5 87.001 108.7 87.001Z" fill="#CCC592"/>
<path d="M120.1 87.001C123.3 87.001 125.8 84.4008 125.8 81.3008H114.4C114.4 84.4008 117 87.001 120.1 87.001Z" fill="#CCC592"/>
</svg>
