<svg width="257" height="208" viewBox="0 0 257 208" fill="none" xmlns="http://www.w3.org/2000/svg">
<path d="M58.9658 161.92V193.07C58.9658 197.08 62.2011 200.33 66.192 200.33C70.1828 200.33 73.4181 197.08 73.4181 193.07V161.92C73.4181 157.91 70.1828 154.66 66.192 154.66C62.2011 154.66 58.9658 157.91 58.9658 161.92Z" fill="#B26227"/>
<path d="M107.488 161.92V193.07C107.488 197.08 110.724 200.33 114.714 200.33C118.705 200.33 121.941 197.08 121.941 193.07V161.92C121.941 157.91 118.705 154.66 114.714 154.66C110.724 154.66 107.488 157.91 107.488 161.92Z" fill="#B26227"/>
<path d="M155.623 161.92V193.07C155.623 197.08 158.858 200.33 162.849 200.33C166.84 200.33 170.075 197.08 170.075 193.07V161.92C170.075 157.91 166.84 154.66 162.849 154.66C158.858 154.66 155.623 157.91 155.623 161.92Z" fill="#B26227"/>
<path d="M201.936 161.92V193.07C201.936 197.08 205.171 200.33 209.162 200.33C213.153 200.33 216.388 197.08 216.388 193.07V161.92C216.388 157.91 213.153 154.66 209.162 154.66C205.171 154.66 201.936 157.91 201.936 161.92Z" fill="#B26227"/>
<path d="M40.7812 168.95V200.1C40.7812 204.11 44.0165 207.36 48.0074 207.36C51.9983 207.36 55.2335 204.11 55.2335 200.1V168.95C55.2335 164.941 51.9983 161.69 48.0074 161.69C44.0165 161.69 40.7812 164.941 40.7812 168.95Z" fill="#DE8E44"/>
<path d="M89.1143 168.95V200.1C89.1143 204.11 92.3495 207.36 96.3404 207.36C100.331 207.36 103.567 204.11 103.567 200.1V168.95C103.567 164.941 100.331 161.69 96.3404 161.69C92.3495 161.69 89.1143 164.941 89.1143 168.95Z" fill="#DE8E44"/>
<path d="M137.379 167.67V198.82C137.379 202.83 140.614 206.08 144.605 206.08C148.596 206.08 151.831 202.83 151.831 198.82V167.67C151.831 163.661 148.596 160.41 144.605 160.41C140.614 160.41 137.379 163.661 137.379 167.67Z" fill="#DE8E44"/>
<path d="M183.084 167.67V198.82C183.084 202.83 186.319 206.08 190.31 206.08C194.301 206.08 197.536 202.83 197.536 198.82V167.67C197.536 163.66 194.301 160.41 190.31 160.41C186.319 160.41 183.084 163.66 183.084 167.67Z" fill="#DE8E44"/>
<path d="M227.257 27.2402C228.91 27.2402 230.243 25.9002 230.243 24.2402C230.243 14.3802 238.226 6.36035 248.04 6.36035C249.692 6.36035 251.026 5.02035 251.026 3.36035C251.026 1.70035 249.692 0.360352 248.04 0.360352C234.932 0.360352 224.271 11.0702 224.271 24.2402C224.271 25.9002 225.605 27.2402 227.257 27.2402Z" fill="#DE8E44"/>
<path d="M214.079 27.2402C212.427 27.2402 211.093 25.9002 211.093 24.2402C211.093 14.3802 203.111 6.36035 193.297 6.36035C191.644 6.36035 190.311 5.02035 190.311 3.36035C190.311 1.70035 191.644 0.360352 193.297 0.360352C206.405 0.360352 217.065 11.0702 217.065 24.2402C217.065 25.9002 215.731 27.2402 214.079 27.2402Z" fill="#DE8E44"/>
<path d="M177.57 124.45H30.2305C13.8971 124.45 0.65918 137.75 0.65918 154.16C0.65918 170.57 13.8971 183.871 30.2305 183.871H227.386C230.392 183.871 233.289 183.421 236.026 182.581C207.38 175.511 184.756 153.01 177.57 124.44V124.45Z" fill="#B3D689"/>
<path d="M256.958 52.79C256.958 32.66 240.714 16.3301 220.668 16.3301C200.632 16.3301 184.378 32.65 184.378 52.79V118.35C190.171 149.01 215.512 172.85 246.945 176.44C253.076 171 256.958 163.04 256.958 154.17C256.958 153.09 256.898 152.02 256.789 150.97C256.898 149.8 256.958 148.62 256.958 147.43V52.8V52.79Z" fill="#B3D689"/>
<path d="M184.388 118.351V124.45H177.57C184.757 153.02 207.371 175.521 236.026 182.591C240.117 181.341 243.83 179.21 246.955 176.44C215.522 172.85 190.191 149.011 184.388 118.351Z" fill="#89BFAA"/>
<path d="M217.174 56.8306C217.174 54.9583 215.663 53.4404 213.8 53.4404C211.936 53.4404 210.426 54.9583 210.426 56.8306V69.8306C210.426 71.7028 211.936 73.2205 213.8 73.2205C215.663 73.2205 217.174 71.7028 217.174 69.8306V56.8306Z" fill="#0F4041"/>
<path d="M230.92 56.8306C230.92 54.9583 229.409 53.4404 227.546 53.4404C225.682 53.4404 224.172 54.9583 224.172 56.8306V69.8306C224.172 71.7028 225.682 73.2205 227.546 73.2205C229.409 73.2205 230.92 71.7028 230.92 69.8306V56.8306Z" fill="#0F4041"/>
<path d="M220.668 89.0802C214.537 89.0802 208.764 86.6802 204.414 82.3102C203.439 81.3302 203.439 79.7502 204.414 78.7702C205.39 77.7902 206.962 77.7902 207.938 78.7702C211.342 82.1902 215.861 84.0702 220.668 84.0702C225.476 84.0702 229.994 82.1902 233.398 78.7702C234.374 77.7902 235.946 77.7902 236.922 78.7702C237.897 79.7502 237.897 81.3302 236.922 82.3102C232.582 86.6702 226.809 89.0802 220.668 89.0802Z" fill="#0F4041"/>
<path d="M256.958 102.41H184.388V109.95H256.958V102.41Z" fill="#89BFAA"/>
<path d="M148.377 183.88V124.45H140.842V183.88H148.377Z" fill="#89BFAA"/>
<path d="M100.093 183.88V124.45H92.5085V183.88H100.093Z" fill="#89BFAA"/>
<path d="M51.8496 183.89L51.8496 124.46H44.1657V183.89H51.8496Z" fill="#89BFAA"/>
</svg>
