<svg width="283" height="442" viewBox="0 0 283 442" fill="none" xmlns="http://www.w3.org/2000/svg">
<path d="M139.286 101.879L145.782 85.5773L51.7549 47.6592L39.5881 77.8992L41.4781 80.498L38.5249 80.8523L40.4149 83.3329L37.2256 83.6873L28.0118 106.604L29.5474 108.494L27.0668 108.848L14.3093 140.623L15.2543 141.805L13.8368 142.041L14.5456 142.868L13.3643 143.104L0.252441 175.589L59.5512 199.45L61.7956 197.678L62.1499 200.513L64.0399 199.095L64.2762 201.34L94.3981 213.507L138.222 104.359L136.569 102.233L139.286 101.879Z" fill="#FFF9CD"/>
<path d="M155.693 219.478L22.5948 257.563L74.3288 438.359L207.427 400.274L155.693 219.478Z" fill="#FFF9CD"/>
<path d="M88.2556 297.139L95.5794 322.536L91.0906 323.836L88.2556 313.913L82.1131 315.685L84.9481 325.607L80.4594 326.907L73.1356 301.51L77.6244 300.211L80.3412 309.779L86.4837 308.007L83.7669 298.439L88.2556 297.139Z" fill="#E5DCA8"/>
<path d="M110.345 312.259L111.881 317.811L99.1233 321.473L91.7996 296.076L104.203 292.532L105.738 298.084L97.7058 300.329L98.8871 304.581L105.975 302.573L107.51 307.889L100.423 309.897L101.722 314.504L110.345 312.259Z" fill="#E5DCA8"/>
<path d="M107.746 291.587L112.235 290.288L117.905 310.015L125.465 307.889L127.119 313.559L115.07 316.984L107.746 291.587Z" fill="#E5DCA8"/>
<path d="M139.049 292.769C140.703 298.557 139.049 302.927 134.679 304.109L131.962 304.936L133.852 311.551L129.363 312.85L122.039 287.453L129.245 285.327C133.616 284.146 137.396 286.981 139.049 292.769ZM134.443 294.068C133.734 291.706 132.434 290.642 130.544 291.115L128.064 291.824L130.19 299.266L132.671 298.557C134.679 297.966 135.151 296.312 134.443 294.068Z" fill="#E5DCA8"/>
<path d="M86.8382 344.626L88.9644 371.44L84.1213 372.858L76.6794 358.328L77.9788 374.63L73.1357 376.047L60.7325 352.186L65.3394 350.886L73.1357 366.243L71.8363 349.114L75.9707 347.933L83.885 363.408L82.5857 346.043L86.8382 344.626Z" fill="#E5DCA8"/>
<path d="M104.911 361.517L98.1781 363.407L98.2962 368.723L93.6894 370.022L93.4531 342.617L97.8237 341.318L112.117 364.707L107.51 366.006L104.911 361.517ZM102.076 356.674L97.7056 349.114L97.9419 357.855L102.076 356.674Z" fill="#E5DCA8"/>
<path d="M121.803 334.585L129.127 359.982L125.465 361.045L114.598 349.469L118.496 363.053L114.125 364.352L106.801 338.956L110.463 337.892L121.331 349.469L117.433 335.884L121.803 334.585Z" fill="#E5DCA8"/>
<path d="M130.544 338.247L125.701 339.664L124.047 333.994L138.222 329.978L139.876 335.648L135.033 337.066L140.703 356.792L136.214 358.092L130.544 338.247Z" fill="#E5DCA8"/>
<path d="M158.776 345.453L160.312 351.005L147.554 354.666L140.231 329.27L152.634 325.726L154.169 331.278L146.137 333.522L147.318 337.775L154.406 335.766L155.941 341.082L148.854 343.09L150.153 347.697L158.776 345.453Z" fill="#E5DCA8"/>
<path d="M156.178 324.78L163.619 322.654C168.817 321.119 173.896 325.017 176.141 332.813C178.385 340.609 176.141 346.515 170.943 348.051L163.501 350.177L156.178 324.78ZM169.053 342.381C171.77 341.554 172.833 338.483 171.534 334.112C170.234 329.742 167.754 327.615 165.037 328.442L162.202 329.269L166.218 343.208L169.053 342.381Z" fill="#E5DCA8"/>
<path d="M207.562 400.381L62.2682 441.961L57.7794 426.25L191.851 387.86L207.562 400.381Z" fill="#E5DCA8"/>
<path d="M266.388 34.0752L264.026 0.291504L68.0563 13.7577L72.4269 76.8364L77.9788 79.5533L73.0175 82.7427L78.3331 85.3415L73.2538 88.8853L76.4431 136.371L80.6956 138.498L76.7975 141.096L81.4044 207.246L84.1213 208.664L81.8769 210.2L83.6488 211.145L81.7588 212.444L86.3656 280.13L209.924 271.625L212.405 266.663L215.358 271.152L217.366 267.136L219.965 270.916L282.453 266.663L266.743 39.3908L262.018 37.0283L266.388 34.0752Z" fill="#D3BDAB"/>
<path d="M72.7812 82.9781L73.0171 82.7422L72.7812 82.6243V82.9781Z" fill="#964C1A"/>
<path d="M81.6404 210.317L81.8763 210.199L81.5225 210.082L81.6404 210.317Z" fill="#964C1A"/>
<path d="M129.718 63.4881C127.946 65.8506 125.347 67.2681 122.158 67.5043C117.551 67.8587 114.479 66.4412 109.518 61.9525C102.076 61.2437 96.5244 55.9281 96.0519 48.4862C95.4613 40.0994 101.604 33.4844 110.581 32.8937C119.559 32.3031 126.528 37.9731 127.119 46.36C127.591 52.7388 124.166 58.0544 118.496 60.535C119.677 61.5981 120.74 61.9525 121.921 61.9525C123.457 61.8343 124.874 61.1256 126.056 59.7081L129.718 63.4881ZM112.117 55.4556C116.369 55.2193 119.441 51.7938 119.086 46.9506C118.732 42.1075 115.188 39.1543 110.936 39.5087C106.683 39.745 103.612 43.1706 103.966 48.0137C104.321 52.7387 107.864 55.6918 112.117 55.4556Z" fill="#C19D81"/>
<path d="M132.08 47.5411L131.017 32.0667L138.931 31.4761L139.994 46.7143C140.349 51.5574 142.475 53.3292 145.783 53.093C149.09 52.8567 150.98 50.8486 150.626 46.0055L149.563 30.7674L157.359 30.1768L158.422 45.6511C159.013 54.038 154.406 58.9992 146.137 59.5898C137.868 60.1805 132.671 55.928 132.08 47.5411Z" fill="#C19D81"/>
<path d="M187.481 50.14L187.953 56.2825L165.509 57.8181L163.619 29.8225L185.591 28.2869L186.063 34.4294L172.006 35.3744L172.361 40.0994L184.764 39.2725L185.118 45.1788L172.715 46.0056L173.069 51.085L187.481 50.14Z" fill="#C19D81"/>
<path d="M191.143 53.4475L193.387 47.4231C195.986 48.8406 199.529 49.7856 202.837 49.5494C206.144 49.3131 207.326 48.3682 207.208 46.9507C206.853 42.4619 191.261 46.8325 190.552 36.4375C190.198 31.4763 193.978 27.1056 202.364 26.515C206.026 26.2787 209.806 26.8694 212.641 28.2869L210.633 34.3113C207.916 33.0119 205.199 32.5394 202.719 32.6575C199.411 32.8937 198.23 34.075 198.348 35.4925C198.584 39.745 214.295 35.4925 215.004 45.7694C215.358 50.6125 211.578 55.1012 203.191 55.6919C198.584 56.0462 193.978 55.1013 191.143 53.4475Z" fill="#C19D81"/>
<path d="M224.099 31.9487L215.476 32.5393L215.004 26.2787L240.046 24.5068L240.519 30.7674L232.014 31.3581L233.549 53.093L225.635 53.6837L224.099 31.9487Z" fill="#C19D81"/>
<path d="M135.86 91.3655C135.978 93.8461 134.443 95.9723 130.663 96.2086C128.655 96.3267 126.646 95.8542 125.229 94.9092L126.174 92.7829C127.237 93.6098 128.773 93.9642 130.426 93.8461C132.316 93.7279 133.38 92.7829 133.261 91.4836C133.143 90.1842 132.198 89.3573 129.363 89.5936L125.938 89.8298L126.174 82.1517L134.443 81.561L134.561 83.8054L128.536 84.278L128.418 87.5855L129.718 87.4673C133.852 87.231 135.624 88.8848 135.86 91.3655Z" fill="#C19D81"/>
<path d="M137.632 88.5305C137.277 83.9236 139.64 81.0886 142.947 80.8524C146.255 80.6161 148.972 83.0968 149.326 87.7037C149.681 92.3106 147.318 95.1456 143.892 95.3818C140.585 95.6181 137.986 93.1374 137.632 88.5305ZM146.727 87.9399C146.491 84.5142 145.074 83.0967 143.184 83.2149C141.294 83.333 140.112 84.9868 140.349 88.4124C140.585 91.838 142.002 93.2555 143.892 93.1374C145.782 93.0193 146.964 91.3655 146.727 87.9399Z" fill="#C19D81"/>
<path d="M168.226 86.286L170.707 86.1679L171.061 91.7198C169.644 93.0192 167.636 93.7279 165.746 93.846C161.375 94.2004 157.949 91.3654 157.713 87.1129C157.477 82.9785 160.43 79.6711 164.801 79.3167C167.163 79.1986 169.171 79.7892 170.589 81.2067L169.053 82.9785C167.872 81.9154 166.572 81.5611 165.037 81.6792C162.084 81.9155 160.076 84.0417 160.312 86.9948C160.548 89.8298 162.792 91.8378 165.746 91.6016C166.691 91.4835 167.754 91.2473 168.581 90.6567L168.226 86.286Z" fill="#C19D81"/>
<path d="M173.542 86.0497C173.306 81.9153 176.259 78.6079 180.629 78.2535C185 77.8991 188.426 80.734 188.662 84.9865C188.898 89.1209 185.945 92.4284 181.574 92.7828C177.322 93.019 173.896 90.1841 173.542 86.0497ZM186.063 85.2229C185.827 82.3879 183.582 80.3797 180.747 80.616C177.912 80.8522 175.904 82.9785 176.141 85.9316C176.377 88.7666 178.621 90.7748 181.456 90.5385C184.291 90.3023 186.299 88.0579 186.063 85.2229Z" fill="#C19D81"/>
<path d="M191.497 77.7811L194.096 77.5449L194.923 89.3574L202.246 88.8849L202.364 91.1293L192.442 91.838L191.497 77.7811Z" fill="#C19D81"/>
<path d="M203.9 76.9542L210.043 76.4816C214.649 76.1273 217.839 78.726 218.193 82.9785C218.429 87.231 215.594 90.1842 210.988 90.5385L204.845 91.0109L203.9 76.9542ZM210.751 88.2941C213.823 88.0579 215.831 86.0497 215.594 83.0966C215.358 80.1435 213.232 78.3716 210.161 78.6078L206.735 78.8441L207.444 88.4122L210.751 88.2941Z" fill="#C19D81"/>
<g opacity="0.6">
<path d="M197.757 125.149L210.987 136.608L230.242 108.258C231.541 106.25 231.187 103.651 229.415 102.115C227.643 100.579 224.926 100.579 223.154 102.115L197.757 125.149Z" fill="#C19D81"/>
<path d="M150.744 128.457L139.286 141.687L116.251 116.172C114.716 114.4 114.597 111.683 116.251 109.911C117.787 108.14 120.504 107.785 122.394 109.085L150.744 128.457Z" fill="#C19D81"/>
<path d="M215.831 195.906L142.711 200.986C136.096 201.458 130.308 196.379 129.836 189.764L127.473 155.626C126.174 137.552 138.813 122.078 155.587 120.897L192.087 118.416C208.861 117.235 223.509 130.937 224.69 149.011L227.052 183.149C227.525 189.645 222.446 195.434 215.831 195.906Z" fill="#C19D81"/>
<path d="M160.784 164.957C166.573 164.603 171.061 159.524 170.589 153.736L149.444 155.153C149.917 160.941 154.996 165.312 160.784 164.957Z" fill="#FFF9CD"/>
<path d="M181.574 152.909C181.929 158.815 187.008 163.186 192.914 162.831C198.703 162.477 203.191 157.397 202.719 151.609C202.719 151.609 202.719 151.609 202.719 151.491L181.574 152.909Z" fill="#FFF9CD"/>
<path d="M210.161 179.015L146.019 183.385C143.892 183.503 142.002 181.968 141.884 179.723C141.766 177.597 143.302 175.707 145.546 175.589L209.688 171.218C211.814 171.1 213.704 172.636 213.822 174.88C213.941 177.006 212.287 178.896 210.161 179.015Z" fill="#D3BDAB"/>
<path d="M200.829 175.116L191.969 175.707L191.733 173.108C191.615 170.628 193.387 168.62 195.867 168.383C198.348 168.265 200.356 170.037 200.592 172.518L200.829 175.116Z" fill="#FFF9CD"/>
<path d="M209.216 174.053L146.373 178.424C145.664 178.424 145.192 179.015 145.31 179.724C145.31 180.432 145.901 180.905 146.609 180.787L209.452 176.416C210.161 176.416 210.633 175.825 210.515 175.117C210.515 174.408 209.924 173.935 209.216 174.053Z" fill="#FFF9CD"/>
<path d="M180.393 167.911L173.778 168.383C171.061 168.619 168.935 166.375 168.935 163.776L169.526 148.774C169.644 146.53 171.416 144.64 173.66 144.404L177.086 144.168C179.33 144.049 181.456 145.585 181.811 147.829L184.409 162.595C185 165.312 183.11 167.793 180.393 167.911Z" fill="#D3BDAB"/>
<path d="M117.433 134.717C126.528 128.811 138.577 130.938 138.577 130.938C138.577 130.938 135.742 142.75 126.528 148.656C117.433 154.563 105.384 152.436 105.384 152.436C105.384 152.436 108.219 140.624 117.433 134.717Z" fill="#C19D81"/>
<path d="M120.031 143.931C125.229 141.214 130.544 141.333 130.544 141.333C130.544 141.333 127.473 145.703 122.394 148.42C117.196 151.137 111.881 151.019 111.881 151.019C111.881 151.019 114.834 146.648 120.031 143.931Z" fill="#D3BDAB"/>
<path d="M231.777 126.803C221.855 122.196 210.397 125.976 210.397 125.976C210.397 125.976 214.886 137.316 224.808 141.923C234.731 146.53 246.189 142.75 246.189 142.75C246.189 142.75 241.7 131.41 231.777 126.803Z" fill="#C19D81"/>
<path d="M230.478 136.253C225.044 134.363 219.729 135.072 219.729 135.072C219.729 135.072 223.273 138.97 228.824 140.978C234.258 142.868 239.574 142.159 239.574 142.159C239.574 142.159 235.912 138.261 230.478 136.253Z" fill="#D3BDAB"/>
</g>
<path d="M129.599 231.934L130.426 229.808C131.607 230.635 133.497 231.225 135.269 231.107C137.514 230.989 138.341 230.044 138.341 228.981C138.104 225.91 129.836 228.508 129.481 223.193C129.363 220.948 131.017 218.822 134.915 218.586C136.569 218.468 138.459 218.822 139.758 219.531L139.049 221.657C137.75 220.948 136.332 220.712 135.033 220.83C132.789 220.948 131.962 221.893 132.08 222.957C132.316 226.028 140.585 223.429 140.939 228.626C141.057 230.871 139.404 232.997 135.506 233.233C133.143 233.352 130.899 232.879 129.599 231.934Z" fill="#C19D81"/>
<path d="M143.184 218.113L145.782 217.877L146.609 229.926L154.051 229.453L154.169 231.698L144.129 232.406L143.184 218.113Z" fill="#C19D81"/>
<path d="M165.982 227.563L158.894 228.036L157.713 231.461L154.996 231.698L160.43 217.05L163.029 216.814L170.471 230.635L167.754 230.871L165.982 227.563ZM165.037 225.555L161.966 219.531L159.721 225.91L165.037 225.555Z" fill="#C19D81"/>
<path d="M177.676 225.083L178.031 230.162L175.432 230.398L175.078 225.437L168.817 216.578L171.652 216.342L176.259 222.957L180.039 215.751L182.638 215.515L177.676 225.083Z" fill="#C19D81"/>
<path d="M193.978 216.933L189.253 217.287L189.134 215.042L201.183 214.216L201.301 216.46L196.576 216.814L197.403 228.863L194.804 229.099L193.978 216.933Z" fill="#C19D81"/>
<path d="M216.303 213.152L217.248 227.445L214.649 227.682L214.177 221.539L206.853 222.011L207.326 228.154L204.727 228.39L203.782 214.097L206.381 213.861L206.735 219.767L214.059 219.295L213.704 213.388L216.303 213.152Z" fill="#C19D81"/>
<path d="M232.132 224.138L232.25 226.382L221.619 227.091L220.674 212.798L231.069 212.089L231.187 214.334L223.39 214.924L223.627 218.586L230.478 218.114L230.596 220.24L223.745 220.712L223.981 224.61L232.132 224.138Z" fill="#C19D81"/>
<path d="M151.571 244.337L146.846 244.692L146.727 242.447L158.776 241.62L158.894 243.865L154.169 244.219L154.996 256.268L152.397 256.504L151.571 244.337Z" fill="#C19D81"/>
<path d="M171.534 255.087L168.344 251.07C168.108 251.07 167.99 251.07 167.754 251.07L164.564 251.307L164.801 255.441L162.202 255.677L161.257 241.384L167.163 241.03C170.943 240.794 173.306 242.565 173.542 245.637C173.66 247.763 172.715 249.417 170.825 250.362L174.369 254.85L171.534 255.087ZM167.163 243.274L164.092 243.511L164.446 249.18L167.518 248.944C169.88 248.826 170.943 247.645 170.825 245.873C170.707 244.101 169.408 243.156 167.163 243.274Z" fill="#C19D81"/>
<path d="M176.022 247.645C175.786 243.392 178.739 240.085 183.228 239.73C187.599 239.376 191.142 242.329 191.379 246.582C191.615 250.834 188.662 254.141 184.173 254.496C179.802 254.732 176.377 251.779 176.022 247.645ZM188.78 246.7C188.544 243.746 186.299 241.856 183.464 242.093C180.629 242.329 178.621 244.573 178.857 247.408C179.094 250.361 181.338 252.251 184.173 252.015C187.008 251.897 188.898 249.653 188.78 246.7Z" fill="#C19D81"/>
<path d="M194.214 239.14L196.812 238.904L197.639 250.953L205.081 250.48L205.199 252.724L195.159 253.433L194.214 239.14Z" fill="#C19D81"/>
<path d="M206.853 238.313L209.452 238.077L210.279 250.125L217.721 249.653L217.839 251.897L207.798 252.606L206.853 238.313Z" fill="#C19D81"/>
</svg>
