<svg width="69" height="67" viewBox="0 0 69 67" fill="none" xmlns="http://www.w3.org/2000/svg">
<path d="M37.2262 66.6505C54.6574 66.6505 68.7882 52.4534 68.7882 34.9404C68.7882 17.4275 54.6574 3.23047 37.2262 3.23047C19.795 3.23047 5.66406 17.4275 5.66406 34.9404C5.66406 52.4534 19.795 66.6505 37.2262 66.6505Z" fill="#757575"/>
<path d="M32.796 63.6599C50.3867 63.6599 64.6467 49.5971 64.6467 32.2499C64.6467 14.9026 50.3867 0.839844 32.796 0.839844C15.2054 0.839844 0.945312 14.9026 0.945312 32.2499C0.945312 49.5971 15.2054 63.6599 32.796 63.6599Z" fill="#D9D9D8"/>
<path d="M54.6139 9.73047L5.65332 48.2505L8.59959 52.4005L58.1472 13.2905L54.6039 9.73047H54.6139Z" fill="#757575"/>
</svg>
