<svg width="254" height="532" viewBox="0 0 254 532" fill="none" xmlns="http://www.w3.org/2000/svg">
<path d="M269.12 234.949L267.939 217.466L166.706 224.554L168.95 257.038L171.785 258.456L169.304 260.109L172.021 261.527L169.422 263.299L171.076 287.869L173.202 288.814L171.194 290.231L173.557 324.369L174.974 325.078L173.793 325.905L174.738 326.377L173.793 327.086L176.156 362.051L239.943 357.681L241.242 355.082L242.778 357.444L243.841 355.318L245.141 357.326L277.389 355.082L269.356 237.784L266.876 236.484L269.12 234.949Z" fill="#FFF9CD"/>
<path d="M224.114 352.956L226.949 351.892L227.067 351.42L224.351 349.058L227.658 347.876L235.1 307.359L230.966 303.934L236.045 302.162L242.069 268.851L48.8169 233.531L37.4768 295.665L42.2018 299.681L36.65 301.689L41.1388 305.469L35.3507 307.596L26.7275 354.491L30.2712 357.444L25.9007 358.98L14.0882 424.421L16.3326 426.311L13.7337 427.256L15.3875 428.674L13.1431 429.383L0.976318 496.241L122.763 518.449L126.307 514.196L128.197 519.276L131.032 515.85L132.567 520.221L194.229 531.442L210.058 444.621L205.333 440.604L211.121 438.478L226.477 354.964L224.114 352.956Z" fill="#D3BDAB"/>
<path d="M99.4922 262.945L88.2703 283.853L81.5373 282.671L79.7654 268.378L72.9141 281.018L66.181 279.836L62.9917 256.33L69.4886 257.511L71.3785 272.513L78.7022 259.164L84.4904 260.228L86.3804 275.348L93.586 261.881L99.4922 262.945Z" fill="#C19D81"/>
<path d="M113.313 283.971L103.981 282.317L101.501 286.333L95.1218 285.152L108.942 264.716L115.085 265.898L120.873 289.877L114.376 288.696L113.313 283.971ZM112.368 279.009L110.833 271.449L106.698 278.064L112.368 279.009Z" fill="#C19D81"/>
<path d="M148.514 271.922L144.498 294.129L139.301 293.184L131.623 279.6L129.496 291.412L123.354 290.349L127.37 268.142L132.567 269.087L140.246 282.671L142.372 270.859L148.514 271.922Z" fill="#C19D81"/>
<path d="M157.492 278.655L150.641 277.355L151.586 272.394L171.431 276.056L170.486 281.017L163.752 279.836L160.563 297.082L154.302 295.901L157.492 278.655Z" fill="#C19D81"/>
<path d="M189.267 297.201L188.44 302.044L170.604 298.855L174.62 276.647L191.984 279.836L191.157 284.68L179.935 282.671L179.227 286.451L189.031 288.223L188.204 292.948L178.4 291.176L177.691 295.193L189.267 297.201Z" fill="#C19D81"/>
<path d="M196.591 280.663L207.104 282.553C214.428 283.852 218.681 289.05 217.499 295.901C216.2 302.752 210.412 306.06 203.088 304.761L192.575 302.871L196.591 280.663ZM203.679 299.681C207.459 300.39 210.412 298.618 211.121 294.72C211.829 290.94 209.703 288.223 205.923 287.514L201.907 286.806L199.662 298.972L203.679 299.681Z" fill="#C19D81"/>
<path d="M78.3483 293.185L77.9939 295.311L81.4196 295.901L81.1832 296.964L77.7577 296.374L77.2852 299.091L75.9858 298.855L77.2852 291.767L82.4827 292.712L82.2464 293.775L78.3483 293.185Z" fill="#C19D81"/>
<path d="M82.719 296.492C83.0734 294.366 84.9634 293.067 87.2078 293.539C89.4522 293.893 90.7515 295.783 90.3971 297.91C90.0427 300.036 88.1527 301.335 85.9083 300.863C83.6639 300.39 82.3646 298.618 82.719 296.492ZM89.0978 297.673C89.334 296.256 88.5071 294.957 87.0896 294.72C85.6721 294.484 84.3727 295.311 84.1364 296.728C83.9002 298.146 84.7271 299.445 86.1446 299.681C87.5621 299.918 88.8615 299.091 89.0978 297.673Z" fill="#C19D81"/>
<path d="M96.0666 302.634L95.0035 300.272C94.8853 300.272 94.7671 300.272 94.7671 300.272L93.1135 300.036L92.7591 302.162L91.4597 301.926L92.7591 294.838L95.7122 295.429C97.6022 295.783 98.5471 296.964 98.3109 298.5C98.0746 299.563 97.3659 300.272 96.4209 300.508L97.6022 303.107L96.0666 302.634ZM95.3578 296.256L93.8222 296.019L93.3497 298.854L94.8854 299.091C96.0666 299.327 96.7753 298.854 96.8934 298.027C97.0116 297.201 96.539 296.492 95.3578 296.256Z" fill="#C19D81"/>
<path d="M107.761 303.579L107.525 304.642L102.209 303.697L103.509 296.61L108.706 297.555L108.47 298.618L104.572 297.909L104.218 299.799L107.643 300.39L107.407 301.453L103.981 300.862L103.627 302.87L107.761 303.579Z" fill="#C19D81"/>
<path d="M115.794 306.178L116.621 301.453L113.549 304.879L112.959 304.761L111.305 300.508L110.478 305.115L109.179 304.879L110.478 297.791L111.541 298.027L113.549 303.225L117.211 298.973L118.274 299.209L116.975 306.296L115.794 306.178Z" fill="#C19D81"/>
<path d="M125.834 306.06C125.598 307.241 124.535 307.832 122.645 307.478L119.101 306.887L120.401 299.8L123.708 300.39C125.362 300.745 126.189 301.571 125.952 302.753C125.834 303.461 125.362 303.934 124.771 304.17C125.598 304.407 126.071 305.115 125.834 306.06ZM121.582 300.981L121.227 302.989L123.117 303.343C124.062 303.461 124.653 303.225 124.771 302.635C124.889 301.926 124.417 301.571 123.472 301.335L121.582 300.981ZM124.535 305.706C124.653 304.997 124.181 304.525 123.236 304.406L121.109 304.052L120.755 306.06L122.881 306.415C123.826 306.533 124.417 306.415 124.535 305.706Z" fill="#C19D81"/>
<path d="M132.804 308.186L132.568 309.249L127.252 308.305L128.551 301.217L133.749 302.162L133.513 303.225L129.614 302.516L129.26 304.406L132.686 304.997L132.449 306.06L129.024 305.47L128.67 307.478L132.804 308.186Z" fill="#C19D81"/>
<path d="M140.009 309.486L139.773 310.549L133.749 309.486L133.867 308.659L138.946 304.288L134.812 303.579L135.048 302.516L140.955 303.579L140.836 304.524L135.757 308.895L140.009 309.486Z" fill="#C19D81"/>
<path d="M146.979 310.667L146.743 311.73L140.718 310.667L140.836 309.84L145.916 305.469L141.781 304.761L142.018 303.698L147.924 304.761L147.806 305.706L142.726 310.076L146.979 310.667Z" fill="#C19D81"/>
<path d="M149.577 304.997L150.877 305.233L149.814 311.258L153.594 311.966L153.358 313.029L148.278 312.084L149.577 304.997Z" fill="#C19D81"/>
<path d="M160.209 313.148L159.972 314.211L154.657 313.266L155.956 306.178L161.154 307.123L160.917 308.186L157.019 307.478L156.665 309.368L160.09 309.958L159.854 311.021L156.429 310.431L156.074 312.439L160.209 313.148Z" fill="#C19D81"/>
<path d="M168.241 315.746L169.068 311.021L165.997 314.447L165.406 314.329L163.753 310.077L162.926 314.683L161.626 314.447L162.926 307.36L163.989 307.596L165.997 312.793L169.659 308.541L170.722 308.777L169.423 315.865L168.241 315.746Z" fill="#C19D81"/>
<path d="M177.219 316.219L176.982 317.282L171.667 316.337L172.966 309.25L178.164 310.195L177.927 311.258L174.029 310.549L173.675 312.439L177.1 313.03L176.864 314.093L173.439 313.502L173.084 315.51L177.219 316.219Z" fill="#C19D81"/>
<path d="M186.314 311.73L185.015 318.818L183.952 318.581L180.881 313.03L180.054 317.873L178.754 317.636L180.054 310.549L181.117 310.785L184.188 316.337L185.015 311.494L186.314 311.73Z" fill="#C19D81"/>
<path d="M189.74 313.502L187.378 313.029L187.614 311.966L193.638 313.029L193.402 314.092L191.04 313.62L189.977 319.644L188.677 319.408L189.74 313.502Z" fill="#C19D81"/>
<path d="M103.627 316.337L100.083 315.628L99.1383 317.164L97.7207 316.928L102.21 310.431L103.509 310.667L105.399 318.345L103.981 318.109L103.627 316.337ZM103.391 315.274L102.564 311.967L100.674 314.802L103.391 315.274Z" fill="#C19D81"/>
<path d="M114.14 312.675L112.841 319.763L111.777 319.526L108.706 313.974L107.879 318.818L106.58 318.581L107.879 311.494L108.942 311.73L112.014 317.282L112.841 312.439L114.14 312.675Z" fill="#C19D81"/>
<path d="M116.384 313.03L119.455 313.62C121.818 314.093 123.117 315.746 122.645 317.873C122.29 319.999 120.4 321.18 118.156 320.708L115.085 320.117L116.384 313.03ZM118.274 319.645C119.81 319.881 121.109 319.172 121.345 317.636C121.582 316.219 120.755 315.038 119.219 314.683L117.447 314.329L116.502 319.172L118.274 319.645Z" fill="#C19D81"/>
<path d="M129.142 316.574L128.788 318.7L132.213 319.29L131.977 320.354L128.551 319.763L128.079 322.48L126.78 322.244L128.079 315.156L133.276 316.101L133.04 317.164L129.142 316.574Z" fill="#C19D81"/>
<path d="M138.119 324.369L137.056 322.007C136.938 322.007 136.82 322.007 136.82 322.007L135.166 321.771L134.812 323.897L133.512 323.661L134.812 316.573L137.765 317.164C139.655 317.518 140.6 318.699 140.364 320.235C140.128 321.298 139.419 322.007 138.474 322.243L139.655 324.842L138.119 324.369ZM137.529 318.109L135.993 317.873L135.521 320.708L137.056 320.944C138.237 321.18 138.946 320.708 139.064 319.881C139.182 319.054 138.592 318.227 137.529 318.109Z" fill="#C19D81"/>
<path d="M146.152 324.133L142.608 323.425L141.663 324.96L140.246 324.724L144.734 318.227L146.034 318.463L147.924 326.142L146.506 325.905L146.152 324.133ZM145.916 323.07L145.089 319.763L143.199 322.598L145.916 323.07Z" fill="#C19D81"/>
<path d="M149.459 323.188L150.168 319.172L151.467 319.408L150.759 323.424C150.522 324.842 150.995 325.669 152.176 325.905C153.357 326.141 154.066 325.551 154.302 324.133L155.011 320.117L156.31 320.353L155.602 324.369C155.247 326.496 153.83 327.322 151.94 326.968C150.05 326.614 148.987 325.314 149.459 323.188Z" fill="#C19D81"/>
<path d="M158.555 320.708L161.626 321.298C163.989 321.771 165.288 323.425 164.816 325.551C164.343 327.677 162.571 328.858 160.327 328.386L157.256 327.795L158.555 320.708ZM160.445 327.323C161.981 327.559 163.28 326.85 163.516 325.315C163.753 323.897 162.926 322.716 161.39 322.361L159.618 322.007L158.673 326.85L160.445 327.323Z" fill="#C19D81"/>
<g opacity="0.46">
<path d="M82.1281 372.564C83.5456 372.8 84.845 371.855 85.0812 370.556C85.3175 369.139 84.3726 367.839 83.0732 367.603C81.6557 367.367 80.3563 368.312 80.1201 369.611C79.8838 371.029 80.8287 372.328 82.1281 372.564Z" fill="#876249"/>
<path d="M149.223 398.67L90.0422 387.921L95.1217 339.135C96.1848 333.111 101.973 329.213 107.997 330.276L152.885 338.426C158.909 339.49 162.807 345.278 161.744 351.302L149.223 398.67Z" fill="#A0785D"/>
<path fill-rule="evenodd" clip-rule="evenodd" d="M158.791 379.18L160.327 382.015L160.681 376.345C163.162 372.21 164.816 367.603 165.643 362.878C166.233 363.823 166.824 365.123 167.06 365.831C166.942 364.532 166.588 362.17 165.997 360.988C166.233 359.689 166.351 358.39 166.351 357.09V356.854L166.588 357.208C170.249 361.815 172.14 367.249 172.376 372.919C171.785 374.455 170.84 376.226 169.777 377.29C170.368 377.171 171.431 376.581 172.258 375.163C172.021 378.589 171.194 382.133 169.659 385.322L166.824 391.346C165.997 391.937 165.17 392.528 164.343 392.882C164.698 393 165.288 393.118 165.997 393L165.761 393.473C162.808 399.497 156.193 402.923 149.578 401.742C148.514 397.607 149.223 393.118 151.586 389.456L152.649 394.654L152.767 387.803L158.791 379.18Z" fill="#A0785D"/>
<path d="M146.388 407.293C146.27 407.293 146.152 407.175 146.034 407.175C145.561 406.939 145.443 406.348 145.797 405.876L150.05 399.497C150.05 399.379 150.168 399.379 150.168 399.261L151.349 398.316C154.302 395.835 156.901 392.882 159.145 389.693C161.272 386.739 163.044 383.432 164.461 380.125C165.76 376.935 166.705 373.628 167.414 370.32L167.651 369.375C167.769 368.903 168.241 368.548 168.714 368.666C169.186 368.785 169.541 369.257 169.422 369.73L169.186 370.675C168.595 374.218 167.532 377.644 166.233 380.833C164.815 384.377 162.925 387.685 160.681 390.756C158.319 394.063 155.602 397.016 152.53 399.615L151.467 400.56L147.215 406.939C147.097 407.175 146.742 407.411 146.388 407.293Z" fill="#C19D81"/>
<path d="M155.011 358.98L136.229 362.052L140.482 388.63L159.264 385.558L155.011 358.98Z" fill="#FFF9C8"/>
<path d="M144.734 378.235C146.388 378.589 147.924 377.408 148.278 375.754C148.632 374.1 147.451 372.565 145.797 372.21C144.144 371.856 142.608 373.037 142.254 374.691C142.017 376.345 143.081 377.998 144.734 378.235Z" fill="#876249"/>
<path d="M150.168 377.408C151.822 377.762 153.357 376.581 153.712 374.927C154.066 373.273 152.885 371.738 151.231 371.383C149.577 371.029 148.042 372.21 147.687 373.864C147.451 375.518 148.514 377.053 150.168 377.408Z" fill="#876249"/>
<path d="M146.742 373.628C148.396 373.982 149.932 372.801 150.286 371.147C150.641 369.493 149.459 367.958 147.806 367.603C146.152 367.249 144.616 368.43 144.262 370.084C143.907 371.738 145.089 373.273 146.742 373.628Z" fill="#876249"/>
<path d="M147.924 375.281L146.625 380.479L150.877 379.77L147.924 375.281Z" fill="#876249"/>
<path d="M151.35 398.316L88.2708 386.858L88.8614 376.345C89.0976 375.045 90.2789 374.219 91.5783 374.455L152.767 385.558C154.066 385.795 154.893 386.976 154.657 388.275L151.35 398.316Z" fill="#876249"/>
<path d="M100.319 368.194L84.9631 386.267L114.494 391.701L106.462 369.375C105.517 366.658 102.091 366.068 100.319 368.194Z" fill="#C19D81"/>
<path d="M140.482 375.517L125.125 393.591L154.657 399.024L146.624 376.699C145.679 373.982 142.254 373.391 140.482 375.517Z" fill="#C19D81"/>
<path d="M82.7187 371.856L76.9305 373.982C77.1668 374.455 77.285 375.045 77.1669 375.636C77.0487 376.108 76.8124 376.581 76.458 376.935L81.0649 380.833L82.7187 371.856Z" fill="#FFF9C8"/>
<path d="M91.5784 378.117C92.9959 378.353 94.2953 377.408 94.5315 376.109C94.7678 374.691 93.8228 373.392 92.5235 373.155C91.106 372.919 89.8066 373.864 89.5703 375.164C89.216 376.581 90.1609 377.881 91.5784 378.117Z" fill="#876249"/>
<path d="M86.1447 371.856L85.0815 371.62C81.8922 371.029 78.9391 373.155 78.3485 376.345L77.049 383.55C76.4583 386.74 78.5846 389.693 81.774 390.283L82.8371 390.52C86.0265 391.11 88.9797 388.984 89.5703 385.795L90.8697 378.589C91.3422 375.4 89.3341 372.447 86.1447 371.856Z" fill="#FFF9C8"/>
<path d="M76.9304 373.864L75.7491 374.337C75.0404 374.573 74.9223 375.4 75.513 375.872L76.5761 376.817C76.9305 376.463 77.1667 375.99 77.2848 375.518C77.2848 374.927 77.1666 374.337 76.9304 373.864Z" fill="#876249"/>
<path d="M82.6005 376.935C83.5455 377.053 84.4905 376.462 84.6086 375.517C84.7267 374.572 84.1362 373.627 83.1912 373.509C82.2462 373.391 81.3011 373.982 81.1829 374.927C81.0648 375.872 81.6555 376.699 82.6005 376.935Z" fill="white"/>
<path d="M82.7189 376.463C83.4277 376.581 84.0183 376.108 84.1364 375.4C84.2545 374.691 83.7821 374.1 83.0734 373.982C82.3646 373.864 81.7739 374.337 81.6558 375.045C81.5377 375.754 82.0102 376.227 82.7189 376.463Z" fill="#876249"/>
<path d="M86.2626 378.944C87.2076 379.062 88.1525 378.471 88.2706 377.526C88.3887 376.581 87.7982 375.636 86.8532 375.518C85.9082 375.4 84.9632 375.99 84.8451 376.935C84.727 377.88 85.1994 378.825 86.2626 378.944Z" fill="white"/>
<path d="M86.2627 378.471C86.9714 378.589 87.562 378.117 87.6801 377.408C87.7983 376.699 87.3259 376.108 86.6171 375.99C85.9084 375.872 85.3177 376.345 85.1995 377.053C85.0814 377.762 85.6721 378.353 86.2627 378.471Z" fill="#876249"/>
<path d="M166.351 400.914L73.2689 383.904C67.9533 382.959 62.8739 386.503 61.9289 391.819C60.9839 397.134 64.5276 402.214 69.8432 403.159L162.926 420.169C168.241 421.114 173.321 417.57 174.266 412.254C175.211 407.057 171.667 401.859 166.351 400.914Z" fill="#A0785D"/>
<path d="M143.08 403.631L93.9405 394.654C75.0405 391.228 56.9674 403.75 53.5418 422.65L52.8329 426.548C49.4073 445.448 61.9286 463.521 80.8286 466.946L129.969 475.924C148.869 479.35 166.942 466.828 170.367 447.928L171.076 444.03C174.502 425.248 161.98 407.057 143.08 403.631Z" fill="#C19D81"/>
<path d="M108.116 420.878C108.234 419.933 107.998 418.869 107.407 417.806C106.816 416.743 105.753 415.798 104.336 414.853C103.036 413.908 101.382 413.081 99.4925 412.373C97.6025 411.664 95.5944 411.073 93.4681 410.719C91.3419 410.364 89.2157 410.128 87.3257 410.128C85.3176 410.128 83.4276 410.364 81.892 410.719C80.2382 411.073 78.9388 411.664 77.9938 412.491C77.0488 413.318 76.4582 414.144 76.2219 415.089L92.1688 418.042L108.116 420.878Z" fill="#FFF9C8"/>
<path d="M86.6168 414.381C87.0893 411.782 89.688 410.01 92.2867 410.483L94.8856 410.955C97.4843 411.428 99.2561 414.027 98.7836 416.625L98.3111 419.106L86.1443 416.861L86.6168 414.381Z" fill="#876249"/>
<path d="M152.767 429.028C152.885 428.083 152.648 427.02 152.058 425.957C151.467 424.894 150.404 423.949 149.105 423.004C147.805 422.059 146.152 421.232 144.262 420.523C142.372 419.815 140.363 419.224 138.237 418.87C136.111 418.515 134.103 418.279 132.095 418.279C130.087 418.279 128.315 418.515 126.661 418.87C125.007 419.224 123.708 419.815 122.763 420.642C121.818 421.35 121.227 422.295 120.991 423.24L136.82 426.075L152.767 429.028Z" fill="#FFF9C8"/>
<path d="M131.268 422.531C131.741 419.933 134.339 418.161 136.938 418.633L139.655 419.106C142.254 419.578 144.026 422.177 143.553 424.776L143.081 427.256L130.796 425.012L131.268 422.531Z" fill="#876249"/>
<path d="M126.543 434.462C126.307 435.643 119.81 438.597 111.541 437.061C104.454 435.762 97.6025 430.446 97.8387 429.265C97.8387 429.265 105.635 429.383 112.722 430.682C119.928 431.863 127.37 434.58 126.543 434.462Z" fill="#876249"/>
<path d="M103.745 408.12C104.099 406.348 105.753 405.167 107.525 405.521C109.297 405.876 110.478 407.53 110.124 409.301L109.533 412.491L106.344 411.9C104.572 411.664 103.391 410.01 103.745 408.12Z" fill="#FFF9C8"/>
<path d="M125.598 433.753C125.362 434.935 118.983 437.061 111.896 435.762C104.808 434.462 99.4925 430.21 99.7288 429.147C99.7288 429.147 105.871 428.084 113.077 429.383C120.164 430.564 126.425 433.872 125.598 433.753Z" fill="#FFF9C8"/>
<path d="M129.614 412.845C129.969 411.073 128.787 409.301 127.016 409.065C125.244 408.711 123.472 409.892 123.236 411.664L122.645 414.853L125.834 415.444C127.606 415.798 129.26 414.617 129.614 412.845Z" fill="#FFF9C8"/>
<path d="M97.4842 429.265C94.8855 428.792 92.4048 427.965 90.0423 426.666L82.9548 423.004C82.6004 422.886 82.6005 422.532 82.7186 422.177C82.8367 421.823 83.1911 421.823 83.5454 421.941L90.6329 425.603C95.1217 427.965 100.201 428.91 105.28 428.32C110.596 427.729 115.912 428.674 120.637 431.155C125.125 433.517 130.205 434.462 135.284 433.872L143.199 432.927C143.553 432.927 143.789 433.163 143.907 433.399C143.907 433.753 143.671 433.99 143.435 434.108L135.52 435.053C130.205 435.643 124.889 434.698 120.164 432.218C115.675 429.855 110.596 428.91 105.517 429.501C102.682 429.855 100.083 429.737 97.4842 429.265Z" fill="#876249"/>
<path d="M116.621 423.831C116.384 425.248 115.085 426.194 113.668 425.839C112.25 425.603 111.305 424.304 111.659 422.886C111.896 421.469 113.077 421.705 114.376 421.941C115.676 422.177 116.857 422.413 116.621 423.831Z" fill="#FECACA"/>
<path d="M65.2968 447.641C70.6818 447.074 74.4664 441.093 73.7499 434.28C73.0334 427.468 68.0871 422.404 62.702 422.971C57.317 423.537 53.5325 429.519 54.249 436.331C54.9655 443.144 59.9117 448.207 65.2968 447.641Z" fill="#876249"/>
<path d="M165.185 456.482C168.261 450.361 166.832 443.428 161.993 440.997C157.155 438.566 150.739 441.557 147.663 447.678C144.587 453.799 146.017 460.732 150.855 463.164C155.694 465.595 162.11 462.604 165.185 456.482Z" fill="#876249"/>
<path opacity="0.32" d="M92.2865 429.855C100.898 429.855 107.879 422.874 107.879 414.263C107.879 405.651 100.898 398.67 92.2865 398.67C83.675 398.67 76.6941 405.651 76.6941 414.263C76.6941 422.874 83.675 429.855 92.2865 429.855Z" fill="#FFF9C8"/>
<path d="M89.0976 431.273C79.5294 429.501 73.1507 420.287 74.9226 410.719C76.6944 401.151 85.9082 394.772 95.4763 396.544C105.044 398.316 111.423 407.53 109.651 417.098C107.879 426.666 98.6657 432.927 89.0976 431.273ZM95.0038 398.907C86.7351 397.371 78.8207 402.923 77.2851 411.192C75.7494 419.46 81.3013 427.375 89.5701 428.91C97.8388 430.446 105.753 424.894 107.289 416.625C108.824 408.357 103.273 400.442 95.0038 398.907Z" fill="#A0785D"/>
<path d="M80.238 430.446C80.8251 430.446 81.3011 429.97 81.3011 429.383C81.3011 428.796 80.8251 428.32 80.238 428.32C79.6508 428.32 79.1748 428.796 79.1748 429.383C79.1748 429.97 79.6508 430.446 80.238 430.446Z" fill="#A0785D"/>
<path d="M77.8757 432.926C78.4628 432.926 78.9388 432.45 78.9388 431.863C78.9388 431.276 78.4628 430.8 77.8757 430.8C77.2885 430.8 76.8125 431.276 76.8125 431.863C76.8125 432.45 77.2885 432.926 77.8757 432.926Z" fill="#A0785D"/>
<path d="M75.2769 435.289C75.864 435.289 76.34 434.813 76.34 434.226C76.34 433.639 75.864 433.163 75.2769 433.163C74.6897 433.163 74.2139 433.639 74.2139 434.226C74.2139 434.813 74.6897 435.289 75.2769 435.289Z" fill="#A0785D"/>
<path d="M72.2055 437.297C72.7926 437.297 73.2686 436.821 73.2686 436.234C73.2686 435.647 72.7926 435.171 72.2055 435.171C71.6183 435.171 71.1423 435.647 71.1423 436.234C71.1423 436.821 71.6183 437.297 72.2055 437.297Z" fill="#A0785D"/>
<path d="M68.7801 438.36C69.3672 438.36 69.8432 437.884 69.8432 437.297C69.8432 436.71 69.3672 436.234 68.7801 436.234C68.1929 436.234 67.717 436.71 67.717 437.297C67.717 437.884 68.1929 438.36 68.7801 438.36Z" fill="#A0785D"/>
<path d="M65.2361 438.833C65.8233 438.833 66.2993 438.357 66.2993 437.77C66.2993 437.183 65.8233 436.707 65.2361 436.707C64.649 436.707 64.1731 437.183 64.1731 437.77C64.1731 438.357 64.649 438.833 65.2361 438.833Z" fill="#A0785D"/>
<path d="M61.4565 439.187C62.0436 439.187 62.5196 438.711 62.5196 438.124C62.5196 437.537 62.0436 437.061 61.4565 437.061C60.8693 437.061 60.3933 437.537 60.3933 438.124C60.3933 438.711 60.8693 439.187 61.4565 439.187Z" fill="#A0785D"/>
<path d="M57.9128 437.77C58.4999 437.77 58.9759 437.294 58.9759 436.706C58.9759 436.119 58.4999 435.643 57.9128 435.643C57.3256 435.643 56.8496 436.119 56.8496 436.706C56.8496 437.294 57.3256 437.77 57.9128 437.77Z" fill="#A0785D"/>
<path d="M55.5502 435.525C56.1374 435.525 56.6134 435.049 56.6134 434.462C56.6134 433.875 56.1374 433.399 55.5502 433.399C54.9631 433.399 54.4871 433.875 54.4871 434.462C54.4871 435.049 54.9631 435.525 55.5502 435.525Z" fill="#A0785D"/>
</g>
<path d="M23.4198 472.144L21.648 481.83L19.8761 481.476L21.4116 473.325L19.4036 472.971L19.6398 471.435L23.4198 472.144Z" fill="#C19D81"/>
<path d="M24.8375 477.341C25.4281 474.152 27.4362 472.734 29.7987 473.089C32.0431 473.561 33.4607 475.569 32.9882 478.758C32.3975 481.948 30.3893 483.365 28.0268 483.011C25.6643 482.657 24.2469 480.53 24.8375 477.341ZM31.0982 478.522C31.5707 476.16 30.8619 474.978 29.4444 474.742C28.145 474.506 27.0819 475.451 26.6094 477.695C26.1369 480.058 26.8457 481.239 28.2632 481.475C29.5625 481.712 30.6257 480.767 31.0982 478.522Z" fill="#C19D81"/>
<path d="M35.8231 483.247C35.8231 483.602 35.705 483.838 35.2325 484.429L34.1694 486.2L33.1062 485.964L34.0513 483.956C33.6969 483.72 33.4606 483.365 33.5787 482.775C33.6969 482.066 34.2875 481.712 34.8781 481.83C35.4687 481.948 35.9413 482.539 35.8231 483.247Z" fill="#C19D81"/>
<path d="M37.8314 479.704C38.422 476.514 40.4301 475.097 42.7926 475.451C45.037 475.924 46.4545 477.932 45.982 481.121C45.3914 484.311 43.3832 485.728 41.0207 485.374C38.6582 485.019 37.2408 482.893 37.8314 479.704ZM44.0921 480.885C44.5646 478.523 43.8558 477.341 42.4383 477.105C41.1389 476.869 40.0758 477.814 39.6033 480.058C39.1308 482.421 39.8395 483.602 41.257 483.838C42.5564 484.074 43.6196 483.129 44.0921 480.885Z" fill="#C19D81"/>
<path d="M47.3993 481.476C47.9899 478.286 49.9981 476.869 52.3606 477.223C54.605 477.696 56.0224 479.704 55.5499 482.893C54.9593 486.082 52.9512 487.5 50.5887 487.145C48.2262 486.673 46.8086 484.665 47.3993 481.476ZM53.6599 482.539C54.1324 480.176 53.4237 478.995 52.0062 478.759C50.7068 478.522 49.6436 479.467 49.1711 481.712C48.6986 484.074 49.4074 485.256 50.8249 485.492C52.1243 485.846 53.1874 484.901 53.6599 482.539Z" fill="#C19D81"/>
<path d="M56.9671 483.248C57.5578 480.058 59.566 478.641 61.9285 478.995C64.1728 479.468 65.5903 481.476 65.1178 484.665C64.5272 487.854 62.5191 489.272 60.1566 488.917C57.7941 488.445 56.3765 486.319 56.9671 483.248ZM63.2278 484.311C63.7003 481.948 62.9915 480.767 61.574 480.531C60.2747 480.294 59.2115 481.239 58.739 483.484C58.2665 485.846 58.9753 487.028 60.3928 487.264C61.6922 487.618 62.7553 486.673 63.2278 484.311Z" fill="#C19D81"/>
<path d="M77.9937 486.909L79.6475 487.264L78.9388 491.162C77.7575 491.752 76.34 491.989 74.9225 491.752C71.9694 491.162 70.0794 488.681 70.67 485.846C71.1425 483.011 73.7412 481.239 76.8124 481.83C78.4662 482.066 79.6474 482.893 80.3562 484.074L79.0569 485.019C78.4662 484.074 77.6394 483.602 76.5763 483.484C74.5681 483.129 72.7963 484.192 72.4419 486.2C72.0875 488.209 73.2686 489.862 75.2768 490.217C75.9855 490.335 76.6943 490.335 77.4031 490.098L77.9937 486.909Z" fill="#C19D81"/>
<path d="M81.6557 487.736C82.1282 484.901 84.7271 483.129 87.7983 483.72C90.7514 484.31 92.6414 486.791 92.0508 489.626C91.5783 492.461 88.9795 494.233 85.9082 493.642C82.9551 493.052 81.1832 490.571 81.6557 487.736ZM90.2789 489.272C90.6333 487.264 89.452 485.61 87.562 485.255C85.672 484.901 83.9001 486.082 83.5457 487.972C83.1913 489.98 84.3726 491.634 86.2626 491.989C88.1526 492.343 89.9245 491.28 90.2789 489.272Z" fill="#C19D81"/>
<path d="M95.122 485.138L96.8938 485.492L95.3582 493.643L100.438 494.588L100.201 496.123L93.3501 494.824L95.122 485.138Z" fill="#C19D81"/>
<path d="M103.745 486.791L107.997 487.618C111.068 488.209 112.958 490.453 112.368 493.406C111.895 496.241 109.296 497.895 106.225 497.304L101.973 496.477L103.745 486.791ZM106.343 495.651C108.469 496.005 110.123 494.942 110.478 492.934C110.832 490.926 109.651 489.39 107.524 489.036L105.162 488.563L103.981 495.178L106.343 495.651Z" fill="#C19D81"/>
<path d="M124.181 500.376L122.763 497.186C122.645 497.186 122.527 497.186 122.409 497.186L120.282 496.832L119.81 499.667L118.038 499.312L119.81 489.626L123.826 490.335C126.307 490.807 127.724 492.343 127.252 494.469C127.015 495.887 126.071 496.832 124.653 497.186L126.307 500.73L124.181 500.376ZM123.236 491.87L121.109 491.516L120.401 495.414L122.527 495.769C124.062 496.005 125.007 495.532 125.244 494.233C125.48 492.934 124.771 492.107 123.236 491.87Z" fill="#C19D81"/>
<path d="M135.757 500.966L135.521 502.502L128.315 501.203L130.087 491.516L137.174 492.816L136.938 494.351L131.741 493.406L131.268 495.887L135.875 496.714L135.639 498.131L131.032 497.305L130.559 500.021L135.757 500.966Z" fill="#C19D81"/>
<path d="M153.476 495.768L148.514 504.864L146.624 504.51L145.561 496.95L141.781 503.683L139.891 503.328L138.474 493.052L140.364 493.406L141.427 501.202L145.207 494.351L146.861 494.705L147.924 502.502L151.704 495.532L153.476 495.768Z" fill="#C19D81"/>
<path d="M159.855 504.628L155.011 503.801L153.712 505.809L151.822 505.455L157.964 496.595L159.736 496.95L162.335 507.345L160.445 506.99L159.855 504.628ZM159.5 503.092L158.437 498.603L155.838 502.501L159.5 503.092Z" fill="#C19D81"/>
<path d="M170.131 508.762L168.714 505.573C168.595 505.573 168.477 505.573 168.359 505.573L166.233 505.219L165.76 508.054L163.989 507.699L165.76 498.013L169.777 498.722C172.257 499.194 173.675 500.73 173.202 502.856C172.966 504.274 172.021 505.219 170.603 505.573L172.257 509.117L170.131 508.762ZM169.186 500.257L167.06 499.903L166.351 503.801L168.477 504.155C170.013 504.392 170.958 503.919 171.194 502.62C171.43 501.439 170.84 500.494 169.186 500.257Z" fill="#C19D81"/>
<path d="M176.037 499.903L180.29 500.73C183.361 501.321 185.251 503.565 184.661 506.518C184.188 509.353 181.589 511.007 178.518 510.416L174.266 509.59L176.037 499.903ZM178.636 508.763C180.762 509.117 182.416 508.054 182.771 506.046C183.125 504.038 181.944 502.502 179.817 502.148L177.455 501.675L176.274 508.29L178.636 508.763Z" fill="#C19D81"/>
<path d="M212.656 25.8676L207.813 0.352539L59.5659 28.7025L68.6615 76.307L73.1503 77.9607L69.7246 80.9138L73.9771 82.3313L70.4334 85.4025L77.2847 121.431L80.7103 122.612L77.9934 124.974L87.5615 175.059L89.8059 175.886L88.1521 177.186L89.6878 177.776L88.2702 178.958L98.0746 230.224L191.63 212.269L192.929 208.253L195.646 211.442L196.827 208.134L199.072 210.851L246.44 201.756L213.483 29.8838L209.585 28.5844L212.656 25.8676Z" fill="#D3BDAB"/>
<path d="M94.531 52.5639C95.1216 55.7533 92.8773 57.9977 88.0341 58.9427L78.2297 60.8327L74.8042 42.6415L84.136 40.8696C88.861 39.9246 91.5779 41.4602 92.1685 44.2952C92.5229 46.0671 91.9322 47.6027 90.5147 48.6658C92.5229 49.0202 94.0585 50.3196 94.531 52.5639ZM80.4741 45.3583L81.1828 48.9021L84.7266 48.1933C86.4985 47.8389 87.2072 47.1302 86.971 45.949C86.7347 44.7677 85.7897 44.4133 84.0179 44.6495L80.4741 45.3583ZM89.2154 52.9183C88.9791 51.6189 87.916 51.2646 86.1442 51.6189L81.8917 52.4458L82.6004 56.1077L86.8529 55.2808C88.6248 55.0445 89.4516 54.2177 89.2154 52.9183Z" fill="#C19D81"/>
<path d="M112.604 50.2011L113.313 54.2174L98.6654 57.0524L95.2397 38.8611L109.533 36.1443L110.242 40.1605L101.028 41.9324L101.619 45.0037L109.651 43.468L110.36 47.3662L102.327 48.9018L102.918 52.2093L112.604 50.2011Z" fill="#C19D81"/>
<path d="M141.663 29.8838L139.182 49.1382L133.63 50.2013L128.079 39.8063L126.543 51.6188L120.991 52.682L111.659 35.6719L116.975 34.6088L122.881 45.4763L124.535 33.1913L129.26 32.2463L135.166 43.232L136.702 30.8288L141.663 29.8838Z" fill="#C19D81"/>
<path d="M158.436 41.8145L150.758 43.232L150.05 47.012L144.852 47.957L149.459 28.2301L154.538 27.2852L166.115 43.9408L160.799 45.0039L158.436 41.8145ZM156.192 38.3889L152.767 33.0732L151.585 39.3338L156.192 38.3889Z" fill="#C19D81"/>
<path d="M174.974 37.3258L172.139 37.9164L173.084 42.7595L167.887 43.7045L164.461 25.5133L172.73 23.9776C177.691 23.0326 181.353 25.0408 182.062 29.1751C182.534 31.892 181.707 34.0183 179.581 35.5539L184.542 40.5151L178.99 41.5783L174.974 37.3258ZM173.32 27.9939L170.485 28.5845L171.548 33.9001L174.383 33.3095C176.51 32.9551 177.337 31.6558 177.1 30.002C176.628 28.4664 175.447 27.6395 173.32 27.9939Z" fill="#C19D81"/>
<path d="M201.67 33.1914L202.379 37.2076L187.732 40.0427L184.306 21.8514L198.599 19.1345L199.308 23.1508L190.094 24.9227L190.685 27.9939L198.717 26.4583L199.426 30.3564L191.393 31.892L191.984 35.1995L201.67 33.1914Z" fill="#C19D81"/>
<path d="M89.9239 77.8427L87.7978 75.8345C87.6796 75.8345 87.5614 75.8345 87.4433 75.9526L85.6714 76.307L86.144 78.6695L84.6083 78.9057L83.0728 70.9914L86.3802 70.4008C88.5064 70.0464 89.924 70.8733 90.2784 72.527C90.5146 73.7083 90.0421 74.7714 89.0971 75.362L91.4596 77.6064L89.9239 77.8427ZM86.7346 71.4639L84.9627 71.8182L85.5534 75.0076L87.3252 74.6533C88.6246 74.417 89.2153 73.7083 88.979 72.6451C88.7428 71.7001 88.034 71.2276 86.7346 71.4639Z" fill="#C19D81"/>
<path d="M98.1928 74.4172L94.1765 75.126L93.7041 77.1341L92.1685 77.3704L94.1765 68.7473L95.5941 68.511L100.673 75.8348L99.1379 76.1891L98.1928 74.4172ZM97.4841 73.3542L95.3578 70.1648L94.531 73.9448L97.4841 73.3542Z" fill="#C19D81"/>
<path d="M109.415 74.1809L108.352 68.8652L106.58 73.7084L105.871 73.8265L102.445 70.0465L103.39 75.244L101.973 75.4803L100.437 67.5659L101.619 67.3296L105.753 72.0546L107.879 66.1484L109.06 65.9121L110.596 73.8265L109.415 74.1809Z" fill="#C19D81"/>
<path d="M118.982 66.9753C119.337 68.7472 118.274 70.0466 116.148 70.401L114.376 70.7554L114.848 72.9997L113.313 73.236L111.777 65.3216L115.084 64.7309C117.093 64.3766 118.628 65.2035 118.982 66.9753ZM117.447 67.3297C117.211 66.3847 116.502 65.9122 115.203 66.1485L113.431 66.5028L114.021 69.6922L115.793 69.3378C117.093 68.9835 117.683 68.2747 117.447 67.3297Z" fill="#C19D81"/>
<path d="M126.07 68.9834L122.054 69.6921L121.582 71.7003L120.046 71.9365L122.054 63.3134L123.472 63.0771L128.551 70.4009L127.015 70.7553L126.07 68.9834ZM125.362 67.9202L123.235 64.7309L122.408 68.5109L125.362 67.9202Z" fill="#C19D81"/>
<path d="M135.639 60.8328L137.174 68.7472L135.993 68.9834L130.559 64.3765L131.623 69.8103L130.205 70.0465L128.669 62.1322L129.851 61.8959L135.284 66.5027L134.221 61.069L135.639 60.8328Z" fill="#C19D81"/>
<path d="M139.891 61.3052L137.292 61.7776L137.056 60.4783L143.789 59.179L144.026 60.4783L141.427 60.9508L142.726 67.6839L141.191 67.9202L139.891 61.3052Z" fill="#C19D81"/>
<path d="M148.514 58.3524L151.94 57.6436C154.538 57.1711 156.547 58.3523 157.019 60.833C157.492 63.1955 156.074 65.2036 153.475 65.6761L150.05 66.3848L148.514 58.3524ZM153.239 64.4949C155.011 64.1405 155.956 62.8411 155.601 61.1873C155.247 59.5336 153.948 58.7067 152.176 59.0611L150.286 59.4154L151.349 64.8492L153.239 64.4949Z" fill="#C19D81"/>
<path d="M164.933 63.5497L162.807 61.5416C162.689 61.5416 162.571 61.5416 162.453 61.6597L160.681 62.0141L161.153 64.3766L159.618 64.6128L158.082 56.6985L161.39 56.1078C163.516 55.7535 164.933 56.5803 165.288 58.2341C165.524 59.4153 165.052 60.4785 164.107 61.0691L166.469 63.3135L164.933 63.5497ZM161.626 57.171L159.854 57.5253L160.445 60.7147L162.217 60.3604C163.516 60.1241 164.107 59.4154 163.87 58.3522C163.752 57.4072 162.925 56.9347 161.626 57.171Z" fill="#C19D81"/>
<path d="M173.084 60.0059L169.068 60.7147L168.595 62.7228L167.06 62.959L169.068 54.3359L170.485 54.0996L175.565 61.4234L174.029 61.7777L173.084 60.0059ZM172.375 58.9428L170.249 55.7534L169.422 59.5334L172.375 58.9428Z" fill="#C19D81"/>
<path d="M181.589 56.1079L183.007 55.8716L183.597 59.061C182.889 59.8879 181.825 60.4785 180.644 60.7148C178.164 61.1873 176.037 59.7698 175.565 57.4073C175.092 55.0448 176.628 52.9185 179.108 52.446C180.408 52.2098 181.589 52.446 182.534 53.1547L181.825 54.2179C181.117 53.7454 180.29 53.5091 179.463 53.7454C177.809 54.0997 176.746 55.3991 177.1 57.0529C177.455 58.7066 178.872 59.6516 180.526 59.2973C181.117 59.1791 181.589 58.9429 182.062 58.5885L181.589 56.1079Z" fill="#C19D81"/>
<path d="M184.66 55.6353C184.188 53.2728 185.723 51.1465 188.204 50.674C190.685 50.2015 192.811 51.619 193.283 53.9815C193.756 56.344 192.22 58.4703 189.739 58.9428C187.259 59.4153 185.133 57.9978 184.66 55.6353ZM191.748 54.2178C191.393 52.564 189.976 51.619 188.44 51.9734C186.786 52.3277 185.841 53.6271 186.196 55.2809C186.55 56.9346 187.968 57.8796 189.503 57.5253C191.157 57.289 192.102 55.8715 191.748 54.2178Z" fill="#C19D81"/>
<path d="M201.434 48.3115L202.969 56.2259L201.788 56.4621L196.354 51.8553L197.417 57.289L196 57.5253L194.464 49.6109L195.646 49.3746L201.079 53.9815L200.016 48.5478L201.434 48.3115Z" fill="#C19D81"/>
<path d="M98.6655 87.8833C98.193 85.5208 99.7286 83.3946 102.209 82.9221C104.69 82.4496 106.816 83.8671 107.289 86.2296C107.761 88.5921 106.226 90.7183 103.745 91.1908C101.264 91.6633 99.138 90.2458 98.6655 87.8833ZM105.753 86.5839C105.399 84.9302 103.981 83.9852 102.445 84.3396C100.792 84.694 99.8468 85.9933 100.201 87.6471C100.556 89.3008 101.973 90.2459 103.509 89.8915C105.044 89.6552 106.107 88.2377 105.753 86.5839Z" fill="#C19D81"/>
<path d="M115.439 80.6777L116.975 88.5921L115.793 88.8284L110.36 84.2215L111.423 89.6553L110.005 89.8915L108.47 81.9772L109.651 81.7409L115.085 86.3478L114.022 80.914L115.439 80.6777Z" fill="#C19D81"/>
<path d="M122.999 80.4415L120.4 80.914L120.164 79.6146L126.897 78.3152L127.133 79.6146L124.535 80.0871L125.834 86.8202L124.298 87.0565L122.999 80.4415Z" fill="#C19D81"/>
<path d="M135.402 76.7798L136.938 84.6942L135.402 84.9304L134.693 81.5048L130.559 82.3317L131.268 85.7573L129.732 85.9935L128.197 78.0792L129.732 77.8429L130.323 81.1504L134.457 80.3235L133.867 77.016L135.402 76.7798Z" fill="#C19D81"/>
<path d="M145.088 81.8591L145.325 83.0404L139.3 84.2216L137.765 76.3073L143.553 75.2441L143.789 76.4254L139.418 77.2523L139.773 79.3785L143.671 78.6698L143.907 79.851L140.009 80.5598L140.482 82.8042L145.088 81.8591Z" fill="#C19D81"/>
<path d="M149.104 74.1808L150.64 73.9446L151.94 80.6776L156.074 79.8508L156.31 81.1502L150.64 82.2133L149.104 74.1808Z" fill="#C19D81"/>
<path d="M156.192 76.898C155.719 74.5355 157.255 72.4092 159.736 71.9367C162.216 71.4642 164.343 72.8817 164.815 75.2442C165.288 77.6067 163.752 79.733 161.271 80.2055C158.791 80.678 156.664 79.2605 156.192 76.898ZM163.279 75.5986C162.925 73.9448 161.508 72.9999 159.972 73.3542C158.318 73.7086 157.373 75.008 157.728 76.6617C158.082 78.3155 159.5 79.2604 161.035 78.9061C162.689 78.6698 163.634 77.2523 163.279 75.5986Z" fill="#C19D81"/>
<path d="M166.115 75.0076C165.642 72.6451 167.178 70.5188 169.658 70.0463C172.139 69.5738 174.265 70.9914 174.738 73.3539C175.21 75.7164 173.675 77.8426 171.194 78.3151C168.714 78.7876 166.469 77.3701 166.115 75.0076ZM173.202 73.7083C172.848 72.0545 171.43 71.1095 169.895 71.4639C168.241 71.8182 167.296 73.1176 167.65 74.7713C168.005 76.4251 169.422 77.3701 170.958 77.0157C172.493 76.7795 173.438 75.362 173.202 73.7083Z" fill="#C19D81"/>
<path d="M176.392 76.3071L176.628 75.0077C177.337 75.362 178.4 75.5983 179.463 75.362C180.644 75.1258 181.117 74.5352 180.998 73.9446C180.644 72.1727 176.155 74.2989 175.565 71.3458C175.328 70.0464 176.155 68.7471 178.282 68.3927C179.227 68.1564 180.29 68.2746 181.117 68.6289L180.88 69.8102C180.053 69.5739 179.227 69.4558 178.518 69.5739C177.337 69.8102 176.864 70.4008 176.982 70.9914C177.337 72.6452 181.825 70.637 182.416 73.5901C182.652 74.8895 181.825 76.1889 179.699 76.5433C178.518 76.8976 177.219 76.7796 176.392 76.3071Z" fill="#C19D81"/>
<path d="M190.331 73.2361L190.567 74.4173L184.542 75.5986L183.007 67.6842L188.795 66.6211L189.031 67.8023L184.661 68.6292L185.015 70.7555L188.913 70.0467L189.149 71.2279L185.251 71.9367L185.724 74.181L190.331 73.2361Z" fill="#C19D81"/>
<path d="M191.984 73.354C191.866 72.8815 192.22 72.409 192.693 72.2909C193.165 72.1728 193.638 72.5271 193.756 72.9996C193.874 73.4721 193.52 73.9446 193.047 74.0628C192.575 74.1809 192.102 73.9447 191.984 73.354ZM190.685 66.2665L192.339 65.9121L193.047 71.2277L191.866 71.464L190.685 66.2665Z" fill="#C19D81"/>
<path d="M95.2398 156.75C95.358 157.104 95.1217 157.34 94.7673 157.459C94.4129 157.577 94.1767 157.34 94.0586 156.986C94.0586 156.868 94.0586 156.75 94.0586 156.395L94.2949 155.332L94.8856 155.214L94.7673 156.277C95.0036 156.395 95.1217 156.514 95.2398 156.75ZM96.6574 156.514C96.7756 156.868 96.5393 157.104 96.1849 157.222C95.8305 157.341 95.5943 157.104 95.4762 156.75C95.4762 156.632 95.4762 156.514 95.4762 156.159L95.7124 155.096L96.303 154.978L96.1849 156.041C96.4212 156.041 96.6574 156.277 96.6574 156.514Z" fill="#C19D81"/>
<path d="M98.9015 155.569L97.2479 155.923L97.1296 155.215L101.264 154.388L101.382 155.096L99.7285 155.451L100.555 159.585L99.6104 159.703L98.9015 155.569Z" fill="#C19D81"/>
<path d="M106.225 156.159L106.58 158.286L105.753 158.404L105.398 156.396C105.28 155.687 104.926 155.451 104.335 155.569C103.745 155.687 103.39 156.159 103.509 156.868L103.863 158.758L103.036 158.876L102.091 153.679L102.918 153.561L103.272 155.451C103.509 155.096 103.863 154.86 104.454 154.742C105.162 154.624 105.989 155.096 106.225 156.159Z" fill="#C19D81"/>
<path d="M111.068 155.805L108.115 156.395C108.352 156.868 108.824 157.222 109.533 157.104C110.005 156.986 110.242 156.868 110.478 156.514L111.068 156.986C110.832 157.459 110.36 157.813 109.651 157.931C108.352 158.167 107.407 157.577 107.288 156.395C107.052 155.332 107.761 154.387 108.824 154.151C109.887 153.915 110.832 154.505 111.068 155.687C111.068 155.569 111.068 155.687 111.068 155.805ZM107.997 155.805L110.123 155.451C110.005 154.978 109.415 154.624 108.942 154.742C108.351 154.742 107.997 155.214 107.997 155.805Z" fill="#C19D81"/>
<path d="M117.093 150.962L118.038 156.16L117.211 156.278L117.093 155.805C116.857 156.16 116.502 156.514 115.912 156.514C114.848 156.75 113.903 156.16 113.667 154.978C113.431 153.797 114.14 152.97 115.203 152.734C115.675 152.616 116.148 152.734 116.502 152.97L116.148 151.08L117.093 150.962ZM116.857 154.388C116.738 153.679 116.148 153.325 115.557 153.443C114.967 153.561 114.494 154.152 114.73 154.86C114.848 155.569 115.439 155.923 116.03 155.805C116.62 155.687 117.093 155.097 116.857 154.388Z" fill="#C19D81"/>
<path d="M122.172 153.088L122.645 155.215L121.818 155.333L121.7 154.86C121.582 155.215 121.227 155.451 120.637 155.569C119.81 155.687 119.219 155.333 118.983 154.742C118.865 154.152 119.219 153.561 120.282 153.325L121.227 153.088C121.109 152.616 120.755 152.38 120.164 152.498C119.692 152.616 119.337 152.852 119.101 153.088L118.629 152.498C118.983 152.143 119.574 151.907 120.164 151.789C121.227 151.671 121.936 152.025 122.172 153.088ZM121.464 154.27L121.345 153.797L120.401 153.915C119.81 154.033 119.692 154.27 119.692 154.506C119.81 154.86 120.046 154.978 120.519 154.86C120.991 154.978 121.346 154.624 121.464 154.27Z" fill="#C19D81"/>
<path d="M123.354 154.742L123.59 154.033C123.944 154.151 124.535 154.27 125.007 154.151C125.598 154.033 125.716 153.797 125.716 153.561C125.598 152.852 123.354 153.915 123.117 152.498C122.999 151.789 123.472 151.198 124.535 151.08C125.007 150.962 125.598 150.962 125.952 151.08L125.716 151.789C125.362 151.671 125.007 151.671 124.653 151.671C124.181 151.789 123.944 152.025 123.944 152.261C124.062 152.97 126.307 151.907 126.543 153.324C126.661 154.033 126.071 154.624 125.126 154.742C124.299 154.978 123.708 154.86 123.354 154.742Z" fill="#C19D81"/>
<path d="M129.732 153.679C129.496 153.915 129.26 154.033 128.905 154.033C128.078 154.151 127.488 153.797 127.37 152.97L127.015 151.198L126.425 151.316L126.307 150.608L126.897 150.489L126.779 149.663L127.606 149.544L127.724 150.371L128.669 150.135L128.787 150.844L127.842 151.08L128.197 152.852C128.315 153.206 128.433 153.324 128.787 153.324C129.023 153.324 129.142 153.206 129.26 153.088L129.732 153.679Z" fill="#C19D81"/>
<path d="M133.394 150.962L133.867 153.088L133.04 153.206L132.922 152.734C132.803 153.088 132.449 153.324 131.858 153.443C131.032 153.561 130.441 153.206 130.205 152.616C130.087 152.025 130.441 151.435 131.504 151.198L132.449 150.962C132.331 150.489 131.977 150.253 131.386 150.371C130.913 150.489 130.559 150.726 130.323 150.962L129.85 150.371C130.205 150.017 130.795 149.781 131.386 149.663C132.449 149.426 133.158 149.899 133.394 150.962ZM132.685 152.143L132.567 151.671L131.622 151.789C131.032 151.907 130.913 152.143 130.913 152.38C131.032 152.734 131.268 152.852 131.74 152.734C132.331 152.734 132.685 152.498 132.685 152.143Z" fill="#C19D81"/>
<path d="M136.465 148.718L136.583 149.544C136.465 149.544 136.465 149.544 136.347 149.544C135.638 149.663 135.284 150.135 135.52 150.844L135.875 152.616L135.048 152.734L134.339 149.072L135.166 148.954L135.284 149.544C135.52 149.072 135.875 148.836 136.465 148.718Z" fill="#C19D81"/>
<path d="M140.718 146.473L141.663 151.671L140.836 151.789L140.718 151.316C140.482 151.671 140.127 152.025 139.537 152.025C138.473 152.261 137.528 151.671 137.292 150.489C137.056 149.308 137.765 148.481 138.828 148.245C139.3 148.127 139.773 148.245 140.127 148.481L139.773 146.591L140.718 146.473ZM140.482 149.899C140.363 149.19 139.773 148.836 139.182 148.954C138.592 149.072 138.119 149.662 138.355 150.371C138.473 151.08 139.064 151.434 139.655 151.316C140.245 151.198 140.718 150.607 140.482 149.899Z" fill="#C19D81"/>
<path d="M142.017 146.119L142.844 146.001L143.789 151.198L142.962 151.316L142.017 146.119Z" fill="#C19D81"/>
<path d="M148.042 146.591L147.097 150.962C146.861 151.907 146.506 152.261 145.916 152.379C145.561 152.498 145.089 152.379 144.852 152.261L145.089 151.553C145.325 151.671 145.561 151.789 145.798 151.671C146.152 151.671 146.27 151.434 146.388 151.08V150.962L144.026 147.536L144.971 147.418L146.624 149.899L147.333 146.946L148.042 146.591Z" fill="#C19D81"/>
<path d="M155.129 147.064C155.366 148.245 154.657 149.072 153.594 149.308C153.121 149.426 152.649 149.308 152.294 149.072L152.412 149.544L151.586 149.663L150.641 144.465L151.467 144.347L151.822 146.237C152.058 145.883 152.413 145.646 152.885 145.528C153.948 145.41 154.893 146.001 155.129 147.064ZM154.184 147.3C154.066 146.591 153.476 146.237 152.885 146.355C152.294 146.473 151.822 147.064 152.058 147.773C152.176 148.481 152.767 148.836 153.358 148.717C153.948 148.481 154.302 148.009 154.184 147.3Z" fill="#C19D81"/>
<path d="M159.618 146.591L156.665 147.182C156.901 147.654 157.374 148.009 158.082 147.891C158.555 147.773 158.791 147.654 159.027 147.3L159.618 147.773C159.382 148.245 158.909 148.599 158.201 148.718C156.901 148.954 155.956 148.363 155.838 147.182C155.602 146.119 156.31 145.174 157.374 144.938C158.437 144.701 159.382 145.292 159.618 146.473C159.618 146.355 159.618 146.473 159.618 146.591ZM156.547 146.473L158.673 146.119C158.555 145.646 157.964 145.292 157.492 145.41C156.901 145.528 156.547 146.001 156.547 146.473Z" fill="#C19D81"/>
<path d="M163.516 145.174L163.988 147.3L163.161 147.418L163.043 146.945C162.925 147.3 162.571 147.536 161.98 147.654C161.153 147.772 160.563 147.418 160.326 146.827C160.208 146.237 160.563 145.646 161.626 145.41L162.571 145.174C162.453 144.701 162.098 144.465 161.508 144.583C161.035 144.701 160.681 144.937 160.445 145.174L159.972 144.583C160.327 144.229 160.917 143.992 161.508 143.874C162.571 143.756 163.28 144.11 163.516 145.174ZM162.807 146.355L162.689 145.882L161.744 146.001C161.153 146.119 161.035 146.355 161.035 146.591C161.153 146.946 161.39 147.064 161.862 146.945C162.453 147.064 162.807 146.709 162.807 146.355Z" fill="#C19D81"/>
<path d="M164.697 146.828L164.933 146.119C165.288 146.237 165.878 146.355 166.351 146.237C166.942 146.119 167.06 145.883 167.06 145.646C166.942 144.938 164.697 146.001 164.461 144.583C164.343 143.874 164.815 143.284 165.878 143.166C166.351 143.048 166.941 143.048 167.296 143.166L167.06 143.874C166.705 143.756 166.351 143.756 165.997 143.756C165.524 143.874 165.288 144.111 165.288 144.347C165.406 145.056 167.65 143.993 167.886 145.41C168.005 146.119 167.414 146.709 166.469 146.828C165.76 147.064 165.052 146.946 164.697 146.828Z" fill="#C19D81"/>
<path d="M171.194 145.764C170.958 146.001 170.722 146.119 170.367 146.119C169.54 146.237 168.95 145.882 168.832 145.056L168.477 143.284L167.887 143.402L167.769 142.693L168.359 142.575L168.241 141.748L169.068 141.63L169.186 142.457L170.131 142.221L170.249 142.929L169.304 143.166L169.659 144.937C169.777 145.292 169.895 145.41 170.249 145.41C170.485 145.41 170.604 145.292 170.722 145.174L171.194 145.764Z" fill="#C19D81"/>
<path d="M177.809 142.811C178.045 143.993 177.336 144.819 176.273 145.056C175.801 145.174 175.328 145.056 174.974 144.819L175.092 145.292L174.265 145.41L173.32 140.213L174.147 140.094L174.501 141.984C174.738 141.63 175.092 141.394 175.564 141.276C176.628 141.039 177.573 141.63 177.809 142.811ZM176.864 142.93C176.746 142.221 176.155 141.866 175.564 141.984C174.974 142.103 174.501 142.693 174.738 143.402C174.856 144.111 175.446 144.465 176.037 144.347C176.628 144.229 176.982 143.638 176.864 142.93Z" fill="#C19D81"/>
<path d="M181.944 140.094L182.652 143.756L181.826 143.874L181.707 143.402C181.471 143.756 181.117 144.111 180.644 144.111C179.699 144.347 178.991 143.874 178.754 142.811L178.4 140.685L179.227 140.567L179.581 142.575C179.699 143.284 180.054 143.52 180.644 143.402C181.235 143.284 181.589 142.811 181.471 142.103L181.117 140.213L181.944 140.094Z" fill="#C19D81"/>
<path d="M185.487 139.386L185.605 140.213C185.487 140.213 185.487 140.213 185.369 140.213C184.66 140.331 184.306 140.803 184.542 141.512L184.897 143.284L184.07 143.402L183.361 139.74L184.188 139.622L184.306 140.213C184.424 139.74 184.778 139.504 185.487 139.386Z" fill="#C19D81"/>
<path d="M190.33 140.094L190.685 142.22L189.858 142.339L189.503 140.331C189.385 139.622 189.031 139.386 188.44 139.504C187.85 139.622 187.495 140.094 187.613 140.803L187.968 142.693L187.141 142.811L186.432 139.149L187.259 139.031L187.377 139.504C187.613 139.149 187.968 138.795 188.558 138.795C189.385 138.559 190.094 139.031 190.33 140.094Z" fill="#C19D81"/>
<path d="M194.229 141.394C193.993 141.63 193.756 141.748 193.402 141.748C192.575 141.866 191.985 141.512 191.866 140.685L191.512 138.913L190.921 139.031L190.803 138.323L191.394 138.205L191.276 137.378L192.103 137.26L192.221 138.086L193.166 137.85L193.284 138.559L192.339 138.795L192.693 140.567C192.811 140.921 192.929 141.039 193.284 141.039C193.52 141.039 193.638 140.921 193.756 140.803L194.229 141.394Z" fill="#C19D81"/>
<path d="M202.97 137.732L203.324 139.858L202.497 139.977L202.143 137.968C202.025 137.26 201.67 137.023 201.08 137.142C200.489 137.26 200.135 137.732 200.371 138.441L200.725 140.331L199.898 140.449L199.544 138.441C199.426 137.732 199.072 137.496 198.481 137.614C197.89 137.732 197.536 138.205 197.772 138.913L198.127 140.803L197.3 140.922L196.591 137.26L197.418 137.142L197.536 137.614C197.772 137.26 198.127 136.905 198.599 136.905C199.19 136.787 199.662 136.905 200.017 137.26C200.253 136.787 200.725 136.433 201.316 136.433C202.025 136.197 202.852 136.551 202.97 137.732Z" fill="#C19D81"/>
<path d="M207.458 135.133L206.514 139.504C206.277 140.449 205.923 140.803 205.332 140.921C204.978 141.04 204.505 140.921 204.269 140.803L204.505 140.095C204.742 140.213 204.978 140.331 205.214 140.213C205.568 140.213 205.687 139.976 205.805 139.622V139.504L203.442 136.078L204.387 135.96L206.041 138.441L206.75 135.488L207.458 135.133Z" fill="#C19D81"/>
<path d="M211.121 134.306V134.543L212.184 134.306L212.302 135.015L211.357 135.251L211.948 138.205L211.121 138.323L210.53 135.37L209.939 135.488L209.821 134.779L210.412 134.661V134.424C210.294 133.598 210.648 133.007 211.475 132.889C211.829 132.889 212.066 132.889 212.302 132.889L212.184 133.598C212.066 133.48 211.829 133.48 211.711 133.48C211.239 133.598 211.003 133.834 211.121 134.306Z" fill="#C19D81"/>
<path d="M216.318 135.133L216.79 137.259L215.964 137.378L215.845 136.905C215.727 137.259 215.373 137.496 214.782 137.614C213.956 137.732 213.365 137.378 213.129 136.787C213.01 136.196 213.365 135.606 214.428 135.369L215.373 135.133C215.255 134.661 214.9 134.424 214.31 134.543C213.837 134.661 213.483 134.897 213.247 135.133L212.774 134.543C213.129 134.188 213.719 133.952 214.31 133.834C215.373 133.598 216.082 134.07 216.318 135.133ZM215.609 136.314L215.491 135.842L214.546 135.96C213.955 136.078 213.837 136.314 213.837 136.551C213.955 136.905 214.192 137.023 214.664 136.905C215.137 136.905 215.491 136.669 215.609 136.314Z" fill="#C19D81"/>
<path d="M219.389 132.889L219.507 133.716C219.389 133.716 219.389 133.716 219.271 133.716C218.562 133.834 218.208 134.306 218.444 135.015L218.798 136.787L217.972 136.905L217.263 133.243L218.09 133.125L218.208 133.716C218.326 133.243 218.798 133.007 219.389 132.889Z" fill="#C19D81"/>
<path d="M226.831 133.125L227.185 135.251L226.358 135.369L226.004 133.361C225.886 132.653 225.532 132.416 224.941 132.534C224.35 132.653 223.996 133.125 224.232 133.834L224.587 135.724L223.76 135.842L223.405 133.834C223.287 133.125 222.933 132.889 222.342 133.007C221.751 133.125 221.397 133.598 221.633 134.306L221.988 136.196L221.161 136.314L220.452 132.653L221.279 132.534L221.397 133.007C221.633 132.653 221.988 132.298 222.46 132.298C223.051 132.18 223.523 132.298 223.878 132.653C224.114 132.18 224.587 131.826 225.177 131.826C225.886 131.589 226.595 132.062 226.831 133.125Z" fill="#C19D81"/>
<path d="M119.456 163.011L119.928 165.137L119.101 165.255L118.983 164.783C118.865 165.137 118.511 165.373 117.92 165.491C117.093 165.609 116.503 165.255 116.266 164.664C116.148 164.074 116.503 163.483 117.566 163.247L118.511 163.011C118.393 162.538 118.038 162.302 117.448 162.42C116.975 162.538 116.621 162.774 116.384 163.011L115.912 162.42C116.266 162.066 116.857 161.829 117.448 161.711C118.629 161.475 119.337 161.948 119.456 163.011ZM118.865 164.192L118.747 163.719L117.802 163.838C117.211 163.956 117.093 164.192 117.093 164.428C117.211 164.783 117.448 164.901 117.92 164.783C118.393 164.783 118.747 164.546 118.865 164.192Z" fill="#C19D81"/>
<path d="M124.417 162.066L124.771 164.192L123.944 164.31L123.59 162.302C123.472 161.593 123.117 161.357 122.527 161.475C121.936 161.593 121.582 162.066 121.7 162.774L122.054 164.664L121.228 164.783L120.519 161.121L121.346 161.003L121.464 161.475C121.7 161.121 122.054 160.766 122.645 160.766C123.472 160.53 124.181 161.003 124.417 162.066Z" fill="#C19D81"/>
<path d="M128.787 158.05L129.732 163.247L128.905 163.365L128.787 162.893C128.551 163.247 128.197 163.602 127.606 163.602C126.543 163.838 125.598 163.247 125.362 162.066C125.125 160.885 125.834 160.058 126.897 159.822C127.37 159.704 127.842 159.822 128.197 160.058L127.842 158.168L128.787 158.05ZM128.551 161.594C128.433 160.885 127.842 160.531 127.252 160.649C126.661 160.767 126.189 161.357 126.425 162.066C126.543 162.775 127.134 163.129 127.724 163.011C128.315 162.775 128.669 162.302 128.551 161.594Z" fill="#C19D81"/>
<path d="M135.875 159.821L136.348 161.947L135.521 162.065L135.403 161.593C135.284 161.947 134.93 162.184 134.339 162.302C133.512 162.42 132.922 162.065 132.686 161.475C132.568 160.884 132.922 160.294 133.985 160.057L134.93 159.821C134.812 159.349 134.458 159.112 133.867 159.23C133.394 159.349 133.04 159.585 132.804 159.821L132.331 159.23C132.686 158.876 133.276 158.64 133.867 158.522C134.93 158.404 135.639 158.758 135.875 159.821ZM135.166 161.002L135.048 160.53L134.103 160.648C133.513 160.766 133.394 161.002 133.394 161.239C133.513 161.593 133.749 161.711 134.221 161.593C134.812 161.711 135.166 161.475 135.166 161.002Z" fill="#C19D81"/>
<path d="M139.773 161.12C139.537 161.357 139.3 161.475 138.946 161.475C138.119 161.593 137.529 161.239 137.411 160.412L137.056 158.64L136.466 158.758L136.347 158.049L136.938 157.931L136.82 157.104L137.647 156.986L137.765 157.813L138.71 157.577L138.828 158.286L137.883 158.522L138.237 160.294C138.356 160.648 138.474 160.766 138.828 160.766C139.064 160.766 139.182 160.648 139.301 160.53L139.773 161.12Z" fill="#C19D81"/>
<path d="M143.789 158.994L140.836 159.585C141.072 160.058 141.545 160.412 142.254 160.294C142.726 160.176 142.962 160.058 143.198 159.703L143.789 160.176C143.553 160.648 143.08 161.002 142.372 161.121C141.072 161.357 140.127 160.766 140.009 159.585C139.773 158.522 140.482 157.577 141.545 157.341C142.608 157.104 143.553 157.695 143.789 158.876C143.671 158.758 143.789 158.876 143.789 158.994ZM140.718 158.994L142.844 158.64C142.726 158.167 142.135 157.813 141.663 157.931C141.072 157.931 140.718 158.404 140.718 158.994Z" fill="#C19D81"/>
<path d="M149.813 157.223L150.286 159.349L149.459 159.467L149.341 158.995C149.223 159.349 148.868 159.585 148.278 159.703C147.451 159.821 146.86 159.467 146.624 158.877C146.506 158.286 146.86 157.695 147.923 157.459L148.868 157.223C148.75 156.75 148.396 156.514 147.805 156.632C147.333 156.75 146.978 156.986 146.742 157.223L146.27 156.632C146.624 156.278 147.214 156.042 147.805 155.923C148.986 155.687 149.695 156.16 149.813 157.223ZM149.223 158.404L149.104 157.931L148.16 158.05C147.569 158.168 147.451 158.404 147.451 158.64C147.569 158.995 147.805 159.113 148.278 158.995C148.75 158.995 149.105 158.758 149.223 158.404Z" fill="#C19D81"/>
<path d="M150.522 153.915L151.349 153.797L152.294 158.995L151.467 159.113L150.522 153.915Z" fill="#C19D81"/>
<path d="M152.767 153.561L153.593 153.443L154.538 158.64L153.712 158.758L152.767 153.561Z" fill="#C19D81"/>
<path d="M163.752 154.506L164.107 156.632L163.28 156.75L162.925 154.742C162.807 154.033 162.453 153.797 161.862 153.915C161.272 154.033 160.917 154.506 161.154 155.214L161.508 157.104L160.681 157.223L160.327 155.214C160.209 154.506 159.854 154.269 159.264 154.388C158.673 154.506 158.319 154.978 158.555 155.687L158.909 157.577L158.082 157.695L157.374 154.033L158.2 153.915L158.319 154.388C158.555 154.033 158.909 153.679 159.382 153.679C159.972 153.561 160.445 153.679 160.799 154.033C161.035 153.561 161.508 153.206 162.099 153.206C162.807 153.088 163.634 153.443 163.752 154.506Z" fill="#C19D81"/>
<path d="M168.241 152.025L167.296 156.396C167.06 157.341 166.705 157.695 166.115 157.813C165.76 157.931 165.288 157.813 165.052 157.695L165.288 156.986C165.524 157.104 165.76 157.223 165.997 157.105C166.351 157.105 166.469 156.868 166.587 156.514V156.396L164.225 152.97L165.17 152.852L166.824 155.333L167.532 152.38L168.241 152.025Z" fill="#C19D81"/>
<path d="M171.076 153.442C170.84 152.379 171.549 151.434 172.73 151.198C173.439 151.08 174.029 151.198 174.502 151.789L173.911 152.261C173.675 151.907 173.203 151.907 172.848 151.907C172.258 152.025 171.785 152.616 171.903 153.324C172.021 154.033 172.612 154.387 173.202 154.269C173.557 154.151 173.911 154.033 174.029 153.561L174.738 153.797C174.502 154.387 174.029 154.86 173.321 154.978C172.257 155.214 171.194 154.624 171.076 153.442Z" fill="#C19D81"/>
<path d="M179.109 151.671L179.463 153.797L178.636 153.915L178.282 151.907C178.164 151.198 177.809 150.962 177.219 151.08C176.628 151.198 176.274 151.671 176.392 152.38L176.746 154.27L175.919 154.388L174.974 149.19L175.801 149.072L176.156 150.962C176.392 150.608 176.746 150.371 177.337 150.253C178.164 150.135 178.872 150.489 179.109 151.671Z" fill="#C19D81"/>
<path d="M179.699 148.717C179.699 148.481 179.817 148.127 180.172 148.127C180.526 148.009 180.762 148.245 180.88 148.481C180.88 148.836 180.762 149.072 180.408 149.072C180.054 149.19 179.817 148.954 179.699 148.717ZM180.054 149.781L180.88 149.663L181.589 153.324L180.762 153.442L180.054 149.781Z" fill="#C19D81"/>
<path d="M182.298 151.317C182.062 150.253 182.771 149.308 183.952 149.072C184.661 148.954 185.251 149.072 185.724 149.663L185.133 150.135C184.897 149.781 184.424 149.781 184.07 149.781C183.479 149.899 183.007 150.49 183.125 151.198C183.243 151.907 183.834 152.262 184.424 152.143C184.779 152.025 185.133 151.907 185.251 151.435L185.96 151.671C185.724 152.261 185.251 152.734 184.542 152.852C183.479 153.088 182.534 152.38 182.298 151.317Z" fill="#C19D81"/>
<path d="M188.322 150.371L187.85 151.08L188.086 152.025L187.259 152.143L186.314 146.946L187.141 146.828L187.732 149.899L189.267 147.891L190.33 147.655L189.031 149.545L191.157 151.435L190.094 151.671L188.322 150.371Z" fill="#C19D81"/>
<path d="M194.819 149.19L191.866 149.781C192.102 150.253 192.575 150.607 193.283 150.489C193.756 150.371 193.992 150.253 194.228 149.899L194.819 150.371C194.583 150.844 194.11 151.198 193.401 151.316C192.102 151.553 191.157 150.962 191.039 149.781C190.803 148.717 191.511 147.772 192.575 147.536C193.638 147.3 194.583 147.891 194.819 149.072C194.701 149.072 194.701 149.19 194.819 149.19ZM191.748 149.19L193.874 148.836C193.756 148.363 193.165 148.009 192.693 148.127C192.102 148.245 191.748 148.599 191.748 149.19Z" fill="#C19D81"/>
<path d="M199.308 147.773L199.662 149.899L198.836 150.017L198.481 148.009C198.363 147.3 198.009 147.064 197.418 147.182C196.827 147.3 196.473 147.773 196.591 148.481L196.945 150.371L196.119 150.489L195.41 146.827L196.237 146.709L196.355 147.182C196.591 146.828 196.945 146.473 197.536 146.473C198.363 146.237 199.072 146.709 199.308 147.773Z" fill="#C19D81"/>
<path d="M200.489 149.426L200.726 148.718C201.08 148.836 201.671 148.954 202.143 148.836C202.734 148.718 202.852 148.481 202.852 148.245C202.734 147.536 200.489 148.599 200.253 147.182C200.135 146.473 200.607 145.883 201.671 145.764C202.143 145.646 202.734 145.646 203.088 145.764L202.852 146.473C202.497 146.355 202.143 146.355 201.789 146.355C201.316 146.473 201.08 146.709 201.08 146.946C201.198 147.654 203.442 146.591 203.679 148.009C203.797 148.718 203.206 149.308 202.261 149.426C201.552 149.663 200.962 149.544 200.489 149.426Z" fill="#C19D81"/>
<path d="M204.506 148.481C204.506 148.127 204.624 147.891 204.978 147.891C205.332 147.773 205.569 148.009 205.687 148.363C205.687 148.718 205.569 148.954 205.214 148.954C204.86 148.954 204.624 148.836 204.506 148.481ZM203.679 144.111L204.742 143.875L205.214 147.182L204.506 147.3L203.679 144.111Z" fill="#C19D81"/>
<path d="M206.868 143.756C206.868 143.874 206.868 143.993 206.868 144.347L206.75 145.41L206.159 145.528L206.277 144.347C206.041 144.347 205.923 144.111 205.805 143.874C205.687 143.52 205.923 143.284 206.277 143.166C206.513 143.166 206.75 143.402 206.868 143.756ZM208.285 143.402C208.285 143.52 208.285 143.638 208.285 143.993L208.167 145.056L207.577 145.174L207.695 143.993C207.459 143.993 207.34 143.756 207.222 143.52C207.104 143.166 207.34 142.929 207.695 142.811C208.049 142.929 208.285 143.166 208.285 143.402Z" fill="#C19D81"/>
<path d="M115.203 119.541L115.557 121.549L108.234 122.967L106.462 113.753L113.667 112.336L114.022 114.344L109.415 115.289L109.769 116.824L113.904 115.998L114.258 117.888L110.124 118.714L110.478 120.368L115.203 119.541Z" fill="#C19D81"/>
<path d="M121.582 116.942L122.172 120.25L119.573 120.722L118.983 117.415L114.376 112.217L117.093 111.745L119.928 114.934L121.463 110.918L123.944 110.445L121.582 116.942Z" fill="#C19D81"/>
<path d="M133.63 115.997L133.985 118.005L126.661 119.423L124.889 110.209L132.095 108.792L132.449 110.8L127.842 111.627L128.196 113.162L132.331 112.335L132.685 114.225L128.551 115.052L128.905 116.706L133.63 115.997Z" fill="#C19D81"/>
<path d="M148.278 105.72L147.097 115.525L144.262 116.115L141.427 110.8L140.6 116.706L137.765 117.297L133.04 108.674L135.757 108.201L138.71 113.753L139.537 107.492L141.899 107.02L144.852 112.572L145.679 106.311L148.278 105.72Z" fill="#C19D81"/>
<path d="M149.577 105.484L152.176 105.011L153.948 114.225L151.349 114.698L149.577 105.484Z" fill="#C19D81"/>
<path d="M156.665 106.311L153.83 106.902L153.476 104.893L161.744 103.358L162.099 105.366L159.264 105.957L160.681 113.044L158.082 113.517L156.665 106.311Z" fill="#C19D81"/>
<path d="M171.785 101.231L173.557 110.445L171.431 110.8L166.469 106.665L167.414 111.508L164.816 111.981L163.044 102.767L165.17 102.413L170.131 106.547L169.186 101.704L171.785 101.231Z" fill="#C19D81"/>
<path d="M182.652 106.665L183.007 108.674L175.683 110.091L173.911 100.877L181.117 99.4597L181.471 101.468L176.864 102.295L177.218 103.83L181.353 103.003L181.707 104.893L177.573 105.72L177.927 107.374L182.652 106.665Z" fill="#C19D81"/>
<path d="M183.952 107.61L184.424 105.484C185.369 105.838 186.551 105.957 187.614 105.838C188.677 105.602 189.031 105.248 188.913 104.775C188.677 103.358 183.598 105.366 183.007 101.94C182.653 100.286 183.834 98.7509 186.551 98.1603C187.732 97.924 189.031 97.924 190.094 98.2784L189.622 100.405C188.677 100.05 187.732 100.05 186.905 100.168C185.842 100.405 185.487 100.877 185.606 101.231C185.842 102.649 190.921 100.641 191.512 103.948C191.866 105.602 190.685 107.138 187.968 107.728C186.551 108.201 185.015 108.083 183.952 107.61Z" fill="#C19D81"/>
<path d="M192.811 105.957L193.284 103.83C194.229 104.185 195.41 104.303 196.473 104.185C197.536 103.949 197.891 103.594 197.773 103.122C197.536 101.704 192.457 103.712 191.866 100.287C191.512 98.6329 192.693 97.0973 195.41 96.5067C196.591 96.2705 197.891 96.2704 198.954 96.6248L198.481 98.7511C197.536 98.3967 196.591 98.3966 195.764 98.5148C194.701 98.751 194.347 99.2236 194.465 99.5779C194.701 100.995 199.781 98.9874 200.371 102.295C200.726 103.949 199.544 105.484 196.827 106.075C195.41 106.429 193.756 106.311 192.811 105.957Z" fill="#C19D81"/>
<path d="M128.197 134.897L126.78 135.133L127.252 137.614L124.653 138.086L122.881 128.873L127.134 128.046C129.614 127.573 131.504 128.518 131.859 130.645C132.095 131.944 131.623 133.125 130.559 133.834L133.04 136.314L130.205 136.905L128.197 134.897ZM127.37 130.29L125.953 130.526L126.425 133.243L127.843 133.007C128.906 132.771 129.378 132.18 129.26 131.353C129.142 130.408 128.433 130.054 127.37 130.29Z" fill="#C19D81"/>
<path d="M141.781 132.771L142.136 134.779L134.812 136.196L133.04 126.983L140.245 125.565L140.6 127.573L135.993 128.518L136.347 130.054L140.482 129.227L140.836 131.117L136.702 131.944L137.056 133.598L141.781 132.771Z" fill="#C19D81"/>
<path d="M151.113 127.101C151.467 129.227 150.168 130.763 147.687 131.235L146.033 131.59L146.506 133.952L143.907 134.425L142.135 125.211L146.388 124.384C148.868 124.03 150.64 124.975 151.113 127.101ZM148.396 127.574C148.278 126.747 147.569 126.274 146.506 126.51L145.088 126.747L145.561 129.463L146.978 129.227C148.16 129.109 148.632 128.519 148.396 127.574Z" fill="#C19D81"/>
<path d="M152.53 128.046C152.058 125.329 153.83 122.848 156.783 122.258C159.736 121.667 162.335 123.321 162.807 126.038C163.28 128.755 161.508 131.235 158.555 131.826C155.602 132.417 153.003 130.881 152.53 128.046ZM160.091 126.628C159.736 125.093 158.555 124.266 157.137 124.502C155.72 124.738 154.893 126.038 155.129 127.573C155.484 129.109 156.665 129.936 158.082 129.7C159.5 129.463 160.445 128.164 160.091 126.628Z" fill="#C19D81"/>
<path d="M168.832 127.219L167.414 127.455L167.887 129.936L165.288 130.408L163.516 121.195L167.769 120.368C170.249 119.895 172.139 120.84 172.494 122.967C172.73 124.266 172.257 125.447 171.194 126.156L173.675 128.637L170.84 129.227L168.832 127.219ZM168.005 122.494L166.587 122.73L167.06 125.447L168.477 125.211C169.54 124.975 170.013 124.384 169.895 123.557C169.659 122.73 169.068 122.258 168.005 122.494Z" fill="#C19D81"/>
<path d="M175.801 120.958L172.966 121.549L172.612 119.541L180.88 118.005L181.235 120.014L178.4 120.604L179.817 127.692L177.218 128.164L175.801 120.958Z" fill="#C19D81"/>
<path d="M183.007 126.156L183.479 124.03C184.424 124.384 185.605 124.502 186.668 124.384C187.732 124.148 188.086 123.794 187.968 123.321C187.732 121.904 182.652 123.912 182.062 120.486C181.707 118.833 182.888 117.297 185.605 116.706C186.787 116.47 188.086 116.47 189.149 116.824L188.677 118.951C187.732 118.596 186.787 118.596 185.96 118.714C184.897 118.951 184.542 119.423 184.66 119.777C184.897 121.195 189.976 119.187 190.567 122.494C190.921 124.148 189.74 125.684 187.023 126.274C185.605 126.747 184.07 126.629 183.007 126.156Z" fill="#C19D81"/>
<path d="M84.6196 105.389L81.1389 106.054L81.3605 107.214L84.8412 106.549L84.6196 105.389Z" fill="#C19D81"/>
<path d="M209.467 82.6856L202.498 83.9851L202.261 82.8038L209.231 81.5044L209.467 82.6856ZM199.19 84.6938L192.221 85.9931L191.985 84.8119L198.954 83.5125L199.19 84.6938ZM188.795 86.7019L181.826 88.0013L181.589 86.82L188.559 85.5207L188.795 86.7019ZM178.4 88.7101L171.431 90.0094L171.195 88.8282L178.164 87.5288L178.4 88.7101ZM168.005 90.7181L161.036 92.0175L160.799 90.8362L167.769 89.5369L168.005 90.7181ZM157.61 92.6081L150.641 93.9076L150.405 92.7263L157.374 91.4269L157.61 92.6081ZM147.215 94.6163L140.246 95.9157L140.009 94.7344L146.979 93.4351L147.215 94.6163ZM136.82 96.6244L129.851 97.9237L129.614 96.7425L136.584 95.4431L136.82 96.6244ZM126.425 98.6326L119.456 99.9319L119.22 98.7507L126.189 97.4513L126.425 98.6326ZM116.03 100.641L109.061 101.94L108.824 100.759L115.794 99.4594L116.03 100.641ZM105.753 102.531L98.7838 103.83L98.5476 102.649L105.517 101.349L105.753 102.531ZM95.3582 104.539L88.3889 105.838L88.1526 104.657L95.122 103.358L95.3582 104.539Z" fill="#C19D81"/>
<path d="M216.198 80.2202L212.717 80.885L212.939 82.0452L216.42 81.3804L216.198 80.2202Z" fill="#C19D81"/>
<path d="M122.291 178.485C122.409 178.84 122.172 179.076 121.818 179.194C121.464 179.312 121.227 179.076 121.109 178.721C121.109 178.603 121.109 178.485 121.109 178.131L121.346 177.068L121.936 176.95L121.818 178.013C122.172 178.131 122.291 178.249 122.291 178.485ZM123.826 178.249C123.944 178.603 123.708 178.84 123.354 178.958C122.999 179.076 122.763 178.84 122.645 178.485C122.645 178.367 122.645 178.249 122.645 177.895L122.881 176.831L123.472 176.713L123.354 177.777C123.59 177.777 123.708 178.013 123.826 178.249Z" fill="#C19D81"/>
<path d="M124.653 176.714L125.598 176.595L126.543 181.439L125.598 181.557L124.653 176.714Z" fill="#C19D81"/>
<path d="M130.087 180.493C129.969 180.73 129.614 180.848 129.26 180.848C128.433 180.966 127.961 180.611 127.724 179.903L127.37 178.131L126.779 178.249L126.661 177.54L127.252 177.422L127.134 176.595L127.961 176.477L128.079 177.304L129.024 177.068L129.142 177.777L128.197 178.013L128.551 179.785C128.669 180.139 128.787 180.257 129.142 180.257C129.378 180.257 129.496 180.139 129.614 180.021L130.087 180.493Z" fill="#C19D81"/>
<path d="M138.001 175.414L137.293 179.312L136.466 179.431L135.048 177.068L134.576 179.785L133.749 179.903L131.741 176.477L132.568 176.359L134.103 178.84L134.576 175.887L135.284 175.769L136.82 178.249L137.293 175.296L138.001 175.414Z" fill="#C19D81"/>
<path d="M142.018 176.123L142.372 178.249L141.545 178.367L141.427 177.894C141.309 178.249 140.955 178.485 140.364 178.603C139.537 178.721 138.946 178.367 138.828 177.776C138.71 177.186 139.065 176.595 140.128 176.359L141.073 176.123C140.955 175.65 140.6 175.414 140.01 175.532C139.537 175.65 139.183 175.886 138.946 176.123L138.474 175.532C138.828 175.178 139.301 174.941 139.891 174.823C141.191 174.705 141.9 175.059 142.018 176.123ZM141.427 177.304L141.309 176.831L140.364 176.949C139.773 177.068 139.655 177.304 139.655 177.54C139.773 177.894 140.01 178.013 140.482 177.894C140.955 178.013 141.309 177.776 141.427 177.304Z" fill="#C19D81"/>
<path d="M143.199 177.776L143.435 177.068C143.789 177.186 144.38 177.304 144.734 177.186C145.325 177.068 145.443 176.831 145.443 176.595C145.325 175.886 143.199 176.95 142.844 175.532C142.726 174.823 143.199 174.233 144.262 174.114C144.734 173.996 145.325 173.996 145.679 174.114L145.443 174.823C145.089 174.705 144.734 174.705 144.38 174.705C143.907 174.823 143.671 175.059 143.671 175.296C143.789 176.004 145.916 174.941 146.27 176.359C146.388 177.068 145.797 177.658 144.852 177.776C144.262 178.013 143.671 178.013 143.199 177.776Z" fill="#C19D81"/>
<path d="M148.987 176.713L149.223 176.005C149.578 176.123 150.168 176.241 150.523 176.123C151.113 176.005 151.231 175.768 151.231 175.532C151.113 174.823 148.987 175.886 148.633 174.469C148.515 173.76 148.987 173.17 150.05 173.051C150.523 172.933 151.113 172.933 151.468 173.051L151.231 173.76C150.877 173.642 150.523 173.642 150.168 173.642C149.696 173.76 149.46 173.996 149.46 174.233C149.578 174.941 151.704 173.878 152.058 175.296C152.176 176.004 151.586 176.595 150.641 176.713C150.05 176.95 149.459 176.831 148.987 176.713Z" fill="#C19D81"/>
<path d="M152.531 174.469C152.294 173.406 153.003 172.461 154.184 172.224C155.366 171.988 156.311 172.579 156.547 173.76C156.783 174.823 156.074 175.768 154.893 176.005C153.712 176.241 152.767 175.532 152.531 174.469ZM155.602 173.878C155.484 173.169 154.893 172.815 154.302 172.933C153.712 173.051 153.358 173.642 153.476 174.233C153.594 174.941 154.184 175.296 154.775 175.178C155.366 175.178 155.72 174.587 155.602 173.878Z" fill="#C19D81"/>
<path d="M163.398 172.461C163.634 173.642 162.926 174.469 161.863 174.705C161.39 174.823 160.918 174.705 160.563 174.469L160.681 174.941L159.854 175.06L158.909 169.98L159.736 169.862L160.091 171.752C160.327 171.398 160.681 171.161 161.154 171.043C162.335 170.689 163.28 171.28 163.398 172.461ZM162.571 172.579C162.453 171.87 161.863 171.516 161.272 171.634C160.681 171.752 160.209 172.343 160.445 173.052C160.681 173.76 161.154 174.115 161.744 173.996C162.335 173.76 162.689 173.288 162.571 172.579Z" fill="#C19D81"/>
<path d="M163.753 169.271C163.753 169.035 163.871 168.681 164.225 168.681C164.58 168.563 164.816 168.799 164.816 169.035C164.816 169.39 164.698 169.626 164.343 169.626C164.107 169.744 163.871 169.626 163.753 169.271ZM164.107 170.335L164.934 170.217L165.643 173.878L164.816 173.996L164.107 170.335Z" fill="#C19D81"/>
<path d="M169.895 169.271L170.486 172.343C170.722 173.642 170.131 174.469 168.832 174.705C168.123 174.823 167.415 174.823 166.942 174.469L167.178 173.76C167.533 173.997 168.123 173.996 168.596 173.996C169.423 173.878 169.659 173.406 169.541 172.697V172.461C169.305 172.815 168.95 173.052 168.36 173.17C167.296 173.406 166.351 172.815 166.115 171.752C165.879 170.689 166.588 169.862 167.651 169.626C168.123 169.508 168.596 169.626 169.068 169.862L168.95 169.39L169.895 169.271ZM169.423 171.161C169.305 170.571 168.714 170.217 168.123 170.335C167.415 170.453 167.06 170.925 167.178 171.634C167.296 172.225 167.887 172.579 168.478 172.461C169.068 172.343 169.541 171.752 169.423 171.161Z" fill="#C19D81"/>
<path d="M176.628 169.508L176.982 171.634L176.155 171.752L176.037 171.28C175.919 171.634 175.565 171.87 174.974 171.988C174.147 172.106 173.557 171.752 173.439 171.161C173.321 170.571 173.675 169.98 174.738 169.744L175.683 169.508C175.565 169.035 175.211 168.799 174.62 168.917C174.147 169.035 173.793 169.272 173.557 169.508L173.084 168.917C173.439 168.563 173.911 168.326 174.502 168.208C175.683 168.09 176.392 168.563 176.628 169.508ZM175.919 170.689L175.801 170.216L174.856 170.335C174.265 170.453 174.147 170.689 174.147 170.925C174.266 171.28 174.502 171.398 174.974 171.28C175.565 171.398 175.919 171.162 175.919 170.689Z" fill="#C19D81"/>
<path d="M181.471 168.681L181.825 170.807L180.999 170.925L180.644 168.917C180.526 168.209 180.172 167.972 179.581 168.09C178.99 168.208 178.636 168.681 178.754 169.39L179.109 171.28L178.282 171.398L177.573 167.736L178.4 167.618L178.518 168.09C178.754 167.736 179.109 167.382 179.699 167.382C180.526 167.145 181.353 167.618 181.471 168.681Z" fill="#C19D81"/>
<path d="M185.842 164.783L186.787 169.862L185.96 169.98L185.842 169.508C185.606 169.862 185.251 170.216 184.779 170.216C183.716 170.453 182.771 169.862 182.534 168.681C182.298 167.5 183.007 166.673 184.07 166.436C184.542 166.318 185.015 166.436 185.369 166.673L185.015 164.783H185.842ZM185.606 168.208C185.487 167.499 184.897 167.145 184.306 167.263C183.716 167.381 183.243 167.972 183.479 168.681C183.597 169.39 184.188 169.744 184.779 169.626C185.369 169.39 185.724 168.917 185.606 168.208Z" fill="#C19D81"/>
<path d="M191.63 165.137L191.748 165.964C191.63 165.964 191.63 165.964 191.511 165.964C190.803 166.082 190.567 166.555 190.685 167.263L191.039 169.035L190.212 169.153L189.503 165.491L190.33 165.373L190.448 165.964C190.566 165.491 191.039 165.255 191.63 165.137Z" fill="#C19D81"/>
<path d="M196.355 166.437L193.52 167.027C193.756 167.5 194.229 167.854 194.937 167.736C195.41 167.618 195.646 167.5 195.882 167.146L196.473 167.618C196.237 168.09 195.764 168.327 195.055 168.445C193.874 168.681 192.929 168.091 192.693 166.909C192.457 165.728 193.166 164.901 194.229 164.665C195.292 164.429 196.237 165.019 196.473 166.201C196.355 166.201 196.355 166.319 196.355 166.437ZM193.284 166.437L195.41 166.082C195.292 165.61 194.819 165.256 194.229 165.374C193.638 165.374 193.284 165.846 193.284 166.437Z" fill="#C19D81"/>
<path d="M200.253 161.948L201.198 167.027L200.371 167.145L200.253 166.673C200.017 167.027 199.662 167.381 199.19 167.381C198.127 167.618 197.182 167.027 196.945 165.846C196.709 164.665 197.418 163.838 198.481 163.602C198.954 163.483 199.426 163.601 199.78 163.838L199.426 161.948H200.253ZM200.017 165.373C199.899 164.665 199.308 164.31 198.717 164.428C198.127 164.546 197.654 165.137 197.89 165.846C198.009 166.555 198.599 166.909 199.19 166.791C199.78 166.673 200.135 166.082 200.017 165.373Z" fill="#C19D81"/>
<path d="M202.143 166.437C202.025 166.082 202.261 165.846 202.616 165.728C202.97 165.61 203.206 165.846 203.325 166.201C203.443 166.555 203.206 166.791 202.852 166.909C202.498 166.909 202.143 166.673 202.143 166.437Z" fill="#C19D81"/>
<path d="M204.151 161.83C204.151 161.948 204.151 162.066 204.151 162.42L204.033 163.483L203.442 163.602L203.561 162.538C203.324 162.538 203.206 162.302 203.088 162.066C202.97 161.711 203.206 161.475 203.561 161.357C203.797 161.239 204.151 161.475 204.151 161.83ZM205.687 161.475C205.687 161.593 205.687 161.711 205.687 162.066L205.569 163.129L204.978 163.247L205.096 162.184C204.86 162.184 204.742 161.948 204.624 161.711C204.506 161.357 204.742 161.121 205.096 161.003C205.332 161.003 205.569 161.121 205.687 161.475Z" fill="#C19D81"/>
<path d="M104.217 199.275C104.335 199.63 104.099 199.866 103.745 199.984C103.39 200.102 103.154 199.866 103.036 199.512C103.036 199.394 103.036 199.275 103.036 198.921L103.272 197.858L103.863 197.74L103.745 198.803C103.981 198.803 104.099 198.921 104.217 199.275ZM105.635 198.921C105.753 199.275 105.517 199.512 105.162 199.63C104.808 199.748 104.572 199.512 104.453 199.157C104.453 199.039 104.453 198.921 104.453 198.567L104.69 197.504L105.28 197.385L105.162 198.449C105.398 198.567 105.635 198.685 105.635 198.921Z" fill="#C19D81"/>
<path d="M110.242 199.157L111.068 199.039L111.423 200.929C110.95 201.402 110.36 201.756 109.651 201.874C108.115 202.11 106.816 201.284 106.58 199.866C106.343 198.449 107.17 197.149 108.706 196.913C109.533 196.795 110.242 196.913 110.832 197.385L110.36 198.094C109.887 197.74 109.415 197.74 108.942 197.74C107.879 197.976 107.288 198.803 107.525 199.748C107.761 200.693 108.588 201.284 109.533 201.165C109.887 201.047 110.242 200.929 110.478 200.693L110.242 199.157Z" fill="#C19D81"/>
<path d="M115.676 196.913L116.384 200.575L115.557 200.693L115.439 200.22C115.203 200.575 114.849 200.929 114.376 200.929C113.431 201.165 112.722 200.693 112.486 199.63L112.132 197.503L112.959 197.385L113.313 199.393C113.431 200.102 113.786 200.339 114.376 200.22C114.967 200.102 115.321 199.63 115.203 198.921L114.849 197.031L115.676 196.913Z" fill="#C19D81"/>
<path d="M119.101 196.204L119.219 197.031C119.101 197.031 119.101 197.031 118.983 197.031C118.274 197.149 118.038 197.622 118.156 198.331L118.511 200.102L117.684 200.221L116.975 196.559L117.802 196.441L117.92 197.031C118.038 196.559 118.511 196.322 119.101 196.204Z" fill="#C19D81"/>
<path d="M119.692 194.669L120.518 194.551L121.464 199.63L120.637 199.748L119.692 194.669Z" fill="#C19D81"/>
<path d="M124.298 197.149C124.062 196.086 124.771 195.141 125.952 194.905C127.133 194.669 128.078 195.259 128.315 196.44C128.551 197.504 127.842 198.449 126.661 198.685C125.48 198.921 124.417 198.212 124.298 197.149ZM127.252 196.558C127.133 195.85 126.543 195.495 125.952 195.614C125.362 195.732 125.007 196.322 125.125 196.913C125.244 197.504 125.834 197.976 126.425 197.858C127.015 197.858 127.488 197.267 127.252 196.558Z" fill="#C19D81"/>
<path d="M132.685 195.259L133.04 197.385L132.213 197.504L131.858 195.495C131.74 194.787 131.386 194.55 130.795 194.669C130.205 194.787 129.85 195.259 129.968 195.968L130.323 197.858L129.496 197.976L128.551 192.897L129.378 192.779L129.732 194.669C129.969 194.314 130.323 194.078 130.914 193.96C131.74 193.724 132.567 194.196 132.685 195.259Z" fill="#C19D81"/>
<path d="M142.254 193.487L142.608 195.614L141.781 195.732L141.427 193.724C141.308 193.015 140.954 192.779 140.364 192.897C139.773 193.015 139.418 193.487 139.655 194.196L140.009 196.086L139.182 196.204L138.828 194.196C138.71 193.487 138.355 193.251 137.765 193.369C137.174 193.487 136.82 193.96 137.056 194.669L137.41 196.559L136.583 196.677L135.875 193.015L136.702 192.897L136.82 193.369C137.056 193.015 137.41 192.779 137.883 192.661C138.473 192.542 138.946 192.66 139.182 193.015C139.419 192.542 139.891 192.306 140.482 192.188C141.309 191.952 142.017 192.306 142.254 193.487Z" fill="#C19D81"/>
<path d="M146.506 191.007L145.561 195.259C145.324 196.204 144.97 196.559 144.379 196.677C144.025 196.795 143.553 196.677 143.316 196.558L143.553 195.85C143.789 195.968 144.025 196.086 144.261 195.968C144.616 195.968 144.734 195.732 144.852 195.377V195.259L142.49 191.833L143.435 191.715L145.088 194.196L145.679 191.243L146.506 191.007Z" fill="#C19D81"/>
<path d="M153.003 189.708L153.593 192.779C153.83 194.078 153.239 194.905 151.94 195.141C151.231 195.259 150.522 195.259 150.05 194.905L150.286 194.196C150.64 194.432 151.231 194.433 151.703 194.433C152.53 194.314 152.766 193.842 152.648 193.133V192.897C152.412 193.251 152.058 193.487 151.467 193.606C150.404 193.842 149.459 193.251 149.223 192.188C148.987 191.125 149.695 190.298 150.758 190.062C151.231 189.944 151.703 190.062 152.176 190.298L152.058 189.826L153.003 189.708ZM152.412 191.597C152.294 191.007 151.703 190.653 151.113 190.771C150.404 190.889 150.05 191.361 150.168 192.07C150.286 192.661 150.876 193.015 151.467 192.897C152.176 192.779 152.53 192.306 152.412 191.597Z" fill="#C19D81"/>
<path d="M154.302 191.361C154.066 190.298 154.775 189.353 155.956 189.117C157.137 188.881 158.082 189.471 158.319 190.652C158.555 191.715 157.846 192.66 156.665 192.897C155.484 193.133 154.539 192.542 154.302 191.361ZM157.374 190.771C157.255 190.062 156.665 189.707 156.074 189.825C155.484 189.944 155.129 190.534 155.247 191.125C155.366 191.834 155.956 192.188 156.547 192.07C157.137 192.07 157.492 191.479 157.374 190.771Z" fill="#C19D81"/>
<path d="M162.217 186.518L163.162 191.597L162.335 191.715L162.217 191.243C161.98 191.597 161.626 191.952 161.153 191.952C160.09 192.188 159.145 191.597 158.909 190.416C158.673 189.235 159.382 188.408 160.445 188.172C160.917 188.053 161.39 188.172 161.744 188.408L161.39 186.518H162.217ZM161.98 189.943C161.862 189.235 161.272 188.88 160.681 188.999C160.09 189.117 159.618 189.707 159.854 190.416C159.972 191.125 160.563 191.479 161.153 191.361C161.744 191.125 162.098 190.652 161.98 189.943Z" fill="#C19D81"/>
<path d="M165.17 190.652C165.17 190.77 165.17 190.888 165.17 191.243L165.052 192.306L164.461 192.424L164.579 191.361C164.343 191.361 164.225 191.125 164.107 190.888C163.989 190.534 164.225 190.298 164.579 190.18C164.934 190.18 165.17 190.298 165.17 190.652Z" fill="#C19D81"/>
<path d="M171.076 184.864L172.021 189.943L171.194 190.061L171.076 189.589C170.84 189.943 170.485 190.298 170.013 190.298C168.95 190.534 168.005 189.943 167.768 188.762C167.532 187.581 168.241 186.754 169.304 186.518C169.777 186.4 170.249 186.518 170.603 186.754L170.249 184.864H171.076ZM170.84 188.29C170.722 187.581 170.131 187.226 169.54 187.345C168.95 187.463 168.477 188.053 168.713 188.762C168.832 189.471 169.422 189.825 170.013 189.707C170.603 189.589 170.958 188.998 170.84 188.29Z" fill="#C19D81"/>
<path d="M174.738 185.573L174.856 186.4C174.738 186.4 174.738 186.4 174.62 186.4C173.911 186.518 173.674 186.99 173.793 187.699L174.147 189.471L173.32 189.589L172.611 185.927L173.438 185.809L173.556 186.4C173.675 185.927 174.147 185.691 174.738 185.573Z" fill="#C19D81"/>
<path d="M178.99 186.4L179.345 188.526L178.518 188.644L178.4 188.172C178.282 188.526 177.927 188.762 177.337 188.88C176.51 188.998 175.919 188.644 175.801 188.054C175.683 187.463 176.037 186.872 177.1 186.636L178.045 186.4C177.927 185.927 177.573 185.691 176.982 185.809C176.51 185.927 176.155 186.163 175.919 186.4L175.447 185.809C175.801 185.455 176.273 185.219 176.864 185.1C178.045 184.864 178.754 185.337 178.99 186.4ZM178.282 187.581L178.163 187.108L177.218 187.227C176.628 187.345 176.51 187.581 176.51 187.817C176.628 188.172 176.864 188.29 177.337 188.172C177.927 188.172 178.163 187.935 178.282 187.581Z" fill="#C19D81"/>
<path d="M183.597 183.919L184.188 186.99C184.424 188.29 183.834 189.117 182.534 189.353C181.825 189.471 181.117 189.471 180.644 189.117L180.88 188.408C181.235 188.644 181.825 188.644 182.298 188.644C183.125 188.526 183.361 188.054 183.243 187.345V187.109C183.007 187.463 182.652 187.699 182.062 187.817C180.999 188.054 180.053 187.463 179.817 186.4C179.581 185.337 180.29 184.51 181.353 184.274C181.825 184.155 182.298 184.274 182.77 184.51L182.652 184.037L183.597 183.919ZM183.125 185.809C183.007 185.219 182.416 184.864 181.825 184.982C181.117 185.1 180.762 185.573 180.88 186.282C180.999 186.872 181.589 187.227 182.18 187.109C182.888 186.99 183.243 186.4 183.125 185.809Z" fill="#C19D81"/>
<path d="M185.015 185.573C184.778 184.51 185.487 183.565 186.669 183.329C187.85 183.092 188.795 183.683 189.031 184.864C189.267 185.927 188.558 186.872 187.377 187.109C186.196 187.227 185.133 186.636 185.015 185.573ZM187.968 184.982C187.85 184.274 187.259 183.919 186.669 184.037C186.078 184.156 185.724 184.746 185.842 185.337C185.96 185.927 186.55 186.4 187.141 186.282C187.732 186.164 188.204 185.691 187.968 184.982Z" fill="#C19D81"/>
<path d="M193.401 183.683L193.756 185.809L192.929 185.927L192.575 183.919C192.457 183.21 192.102 182.974 191.511 183.092C190.921 183.21 190.567 183.683 190.685 184.391L191.039 186.281L190.212 186.4L189.503 182.738L190.33 182.62L190.448 183.092C190.685 182.738 191.039 182.383 191.63 182.383C192.456 182.147 193.283 182.502 193.401 183.683Z" fill="#C19D81"/>
<path d="M194.583 185.218L194.819 184.51C195.174 184.628 195.764 184.746 196.119 184.628C196.709 184.51 196.827 184.273 196.827 184.037C196.709 183.328 194.583 184.392 194.229 182.974C194.111 182.265 194.583 181.675 195.646 181.557C196.119 181.438 196.709 181.438 197.064 181.557L196.827 182.265C196.473 182.147 196.119 182.147 195.764 182.147C195.292 182.265 195.055 182.502 195.055 182.738C195.174 183.447 197.3 182.384 197.654 183.801C197.772 184.51 197.182 185.1 196.237 185.218C195.646 185.455 194.937 185.455 194.583 185.218Z" fill="#C19D81"/>
<path d="M203.561 181.675L203.915 183.801L203.088 183.919L202.97 183.446C202.852 183.801 202.497 184.037 201.907 184.155C201.08 184.273 200.489 183.919 200.371 183.328C200.253 182.738 200.607 182.147 201.67 181.911L202.616 181.675C202.497 181.202 202.143 180.966 201.552 181.084C201.08 181.202 200.725 181.438 200.489 181.675L200.017 181.084C200.371 180.73 200.844 180.493 201.434 180.375C202.616 180.257 203.324 180.611 203.561 181.675ZM202.852 182.856L202.734 182.383L201.789 182.502C201.198 182.62 201.08 182.856 201.08 183.092C201.198 183.447 201.434 183.565 201.907 183.446C202.497 183.565 202.852 183.21 202.852 182.856Z" fill="#C19D81"/>
<path d="M206.632 179.43L206.75 180.257C206.632 180.257 206.632 180.257 206.514 180.257C205.805 180.376 205.568 180.848 205.687 181.557L206.041 183.329L205.214 183.447L204.505 179.785L205.332 179.667L205.45 180.257C205.687 179.903 206.041 179.549 206.632 179.43Z" fill="#C19D81"/>
<path d="M211.357 180.848L208.522 181.439C208.758 181.911 209.23 182.266 209.939 182.147C210.412 182.029 210.648 181.911 210.884 181.557L211.475 182.029C211.239 182.502 210.766 182.738 210.057 182.856C208.876 183.092 207.931 182.502 207.695 181.321C207.459 180.258 208.167 179.312 209.23 179.076C210.294 178.84 211.239 179.431 211.475 180.612C211.357 180.612 211.357 180.73 211.357 180.848ZM208.404 180.73L210.53 180.376C210.412 179.903 209.939 179.549 209.349 179.667C208.64 179.785 208.404 180.258 208.404 180.73Z" fill="#C19D81"/>
<path d="M214.192 181.438L214.428 180.73C214.782 180.848 215.373 180.966 215.727 180.848C216.318 180.73 216.436 180.493 216.436 180.257C216.318 179.548 214.192 180.612 213.837 179.194C213.719 178.485 214.192 177.895 215.255 177.777C215.727 177.658 216.318 177.658 216.672 177.777L216.436 178.485C216.082 178.367 215.727 178.367 215.373 178.367C214.9 178.485 214.664 178.722 214.664 178.958C214.782 179.667 216.909 178.603 217.263 180.021C217.381 180.73 216.79 181.32 215.845 181.438C215.255 181.675 214.664 181.675 214.192 181.438Z" fill="#C19D81"/>
<path d="M221.279 176.714L221.988 180.376L221.161 180.494L221.043 180.021C220.807 180.376 220.452 180.73 219.98 180.73C219.035 180.966 218.326 180.494 218.09 179.431L217.735 177.304L218.562 177.186L218.917 179.194C219.035 179.903 219.389 180.139 219.98 180.021C220.57 179.903 220.925 179.431 220.807 178.722L220.452 176.832L221.279 176.714Z" fill="#C19D81"/>
<path d="M222.697 178.367C222.46 177.304 223.169 176.359 224.35 176.123C225.059 176.005 225.65 176.123 226.122 176.714L225.532 177.186C225.295 176.832 224.941 176.832 224.469 176.832C223.878 176.95 223.405 177.54 223.523 178.249C223.642 178.958 224.232 179.312 224.823 179.194C225.177 179.076 225.532 178.958 225.65 178.485L226.358 178.722C226.24 179.312 225.65 179.785 224.941 179.903C223.878 180.139 222.815 179.43 222.697 178.367Z" fill="#C19D81"/>
<path d="M230.611 176.595L230.965 178.722L230.139 178.84L229.784 176.832C229.666 176.123 229.312 175.887 228.721 176.005C228.13 176.123 227.776 176.595 227.894 177.304L228.248 179.194L227.422 179.312L226.477 174.233L227.304 174.115L227.658 176.005C227.894 175.65 228.248 175.414 228.839 175.296C229.666 175.06 230.493 175.414 230.611 176.595Z" fill="#C19D81"/>
<path d="M159.5 199.748L159.854 201.874L159.027 201.993L158.909 201.52C158.791 201.874 158.437 202.111 157.846 202.229C157.019 202.347 156.429 201.993 156.31 201.402C156.192 200.811 156.547 200.221 157.61 199.984L158.555 199.748C158.437 199.276 158.082 199.039 157.492 199.158C157.019 199.276 156.665 199.512 156.429 199.748L155.956 199.158C156.31 198.803 156.783 198.567 157.373 198.449C158.673 198.213 159.382 198.685 159.5 199.748ZM158.909 200.811L158.791 200.339L157.846 200.457C157.255 200.575 157.137 200.811 157.137 201.047C157.255 201.402 157.492 201.52 157.964 201.402C158.437 201.52 158.791 201.284 158.909 200.811Z" fill="#C19D81"/>
<path d="M162.807 200.929L163.044 200.22C163.398 200.339 163.989 200.457 164.343 200.339C164.934 200.22 165.052 199.984 165.052 199.748C164.934 199.039 162.807 200.102 162.453 198.685C162.335 197.976 162.807 197.385 163.87 197.267C164.343 197.149 164.934 197.149 165.288 197.267L165.052 197.976C164.697 197.858 164.343 197.858 163.989 197.858C163.516 197.976 163.28 198.212 163.28 198.449C163.398 199.157 165.524 198.094 165.879 199.512C165.997 200.22 165.406 200.811 164.461 200.929C163.87 201.165 163.162 201.047 162.807 200.929Z" fill="#C19D81"/>
<path d="M165.997 195.377L166.823 195.259L167.768 200.338L166.942 200.457L165.997 195.377Z" fill="#C19D81"/>
<path d="M171.785 197.386L172.139 199.512L171.312 199.63L171.194 199.157C171.076 199.512 170.722 199.748 170.131 199.866C169.304 199.984 168.714 199.63 168.595 199.039C168.477 198.449 168.832 197.858 169.895 197.622L170.84 197.386C170.722 196.913 170.367 196.677 169.777 196.795C169.304 196.913 168.95 197.149 168.714 197.386L168.241 196.795C168.596 196.441 169.068 196.204 169.659 196.086C170.958 195.85 171.667 196.322 171.785 197.386ZM171.194 198.567L171.076 198.094L170.131 198.212C169.541 198.331 169.422 198.567 169.422 198.803C169.541 199.157 169.777 199.276 170.249 199.157C170.722 199.157 171.076 198.921 171.194 198.567Z" fill="#C19D81"/>
<path d="M176.155 194.905L175.211 199.157C174.974 200.102 174.62 200.457 174.029 200.575C173.675 200.693 173.202 200.575 172.966 200.457L173.202 199.748C173.439 199.866 173.675 199.984 173.911 199.866C174.265 199.866 174.384 199.63 174.502 199.275V199.157L172.139 195.732L173.084 195.614L174.738 198.094L175.329 195.141L176.155 194.905Z" fill="#C19D81"/>
<path d="M177.337 197.976C177.337 197.621 177.455 197.385 177.809 197.385C178.163 197.267 178.4 197.503 178.4 197.858C178.4 198.212 178.282 198.448 177.927 198.448C177.691 198.567 177.337 198.33 177.337 197.976ZM176.51 193.723L177.573 193.487L178.045 196.795L177.337 196.913L176.51 193.723Z" fill="#C19D81"/>
<path d="M179.699 193.369C179.699 193.487 179.699 193.605 179.699 193.96L179.581 195.023L178.991 195.141L179.109 194.078C178.872 194.078 178.754 193.841 178.636 193.605C178.518 193.251 178.754 193.015 179.109 192.897C179.345 192.778 179.581 193.015 179.699 193.369ZM181.117 193.015C181.117 193.133 181.117 193.251 181.117 193.605L180.999 194.668L180.408 194.786L180.526 193.723C180.29 193.723 180.172 193.487 180.054 193.251C179.936 192.897 180.172 192.66 180.526 192.542C180.763 192.542 181.117 192.66 181.117 193.015Z" fill="#C19D81"/>
</svg>
