<?xml version="1.0" encoding="UTF-8"?><svg id="Layer_1" xmlns="http://www.w3.org/2000/svg" viewBox="0 0 421.96 424.11"><defs><style>.cls-1{fill:#ad9f72;stroke-width:0px;}</style></defs><path class="cls-1" d="M139.68,308.18c-1.93-1.38-1.9-1.36-.49-3.42.59-.86,1.01-1.82,1.51-2.74l-.11.1c.66-.29,1.33-.58,2.17-.95-1.29-2.57-1.14-5.55-3.64-7.3-.43-.3-.9-.96-1.23-.89-2.67.56-4.23-1.65-6.76-2.35.93-2.66,2.48-4.21,4.99-5.16,4.59-1.73,9.53-1.88,14.14-3.36,2.13-.69,4.59-.04,6.43-1.7,2.18.85,3.82-.94,5.68-1.18,2.94-.38,5.77-1.38,8.78-1.37,1.91,0,3.8-.15,5.46-1.79.82-.82,2.83-.48,4.3-.59,1.17-.09,2.37.03,3.53-.1,4.76-.54,9.51-1.19,14.27-1.69,1.61-.17,3.26-.03,4.85-.03.17.6.43,1.08.32,1.19-2.06,2.15-2,4.67-1.43,7.34.13.59-.28,1.27-.31,1.92-.07,1.44.71,1.66,2.11,1.14-.11-1.56-.19-3.16-.35-4.75-.11-1.17.1-2,1.2-2.75.63-.42,1.17-1.68,1.02-2.41-.54-2.64-1.39-5.21-2.19-8.04-4.25-.37-6.34-3.27-7.29-7.26-.56-2.35-2.6-4.36-1.62-7.11.12-.33-.55-.9-.78-1.4-.37-.79-1.03-1.63-.97-2.4.33-4.44-1.56-8.34-2.7-12.45-.56-2.01-.44-4.2-.66-6.79-2.16,2.28-2.07,5.84-5.56,6.47-2.93-1.76-3.86-4.77-4.18-8.14-.32-3.33-.72-6.66-1.08-9.98-.03-.32-.16-.67-.07-.95.58-1.93.7-3.83.04-5.8-.12-.36.59-1,.92-1.52.49.36,1.09.65,1.45,1.12.22.29.1.85.1,1.28.02,3.44.52,6.84.37,10.31-.11,2.53.63,5.11,1.13,7.64.25,1.27.79,2.48,1.21,3.72.28,0,.55.02.83.03,1.03-3.25,2.07-6.5,3.09-9.75.2-.62.13-1.39.48-1.89.3-.43,1-.76,1.54-.78.27-.01.88.85.8,1.18-.45,1.82-.15,3.44.76,5.05.22.39-.01,1.02,0,1.55,0,.93-.18,1.94.1,2.79.85,2.54,1.51,5.01,1.91,7.73.8,5.53,2.75,10.9,4.23,16.33.62,2.28.6,4.78,2.17,6.75.45.57.98,1.09,1.58,1.75.9-.74,1.65-1.34,2.52-2.06-1.26-1.99.49-3.51.69-5.28.22-1.87.05-3.78.05-6.27,2.45,2.19,2.76,4.58,2.16,6.66-1.21,4.23-.06,8.31.41,12.37.19,1.68.22,3.06-.47,4.65,2.68,1.54,1.14,4.31,1.99,6.46.77,1.97.63,4.27,1.18,6.36,1.32,5,2.92,9.9,6.83,13.79,2.34-1.4.65-4.09,2.14-5.64,1.29-1.34.04-4.18,3.21-5.12-.37,2.14-.64,3.9-1,5.64-.27,1.28-.84,2.52-.96,3.8-.18,1.85-1.18,3.24-2.7,3.7-1.64.5-2.7-.99-3.58-2.28-.17-.25-.34-.5-.81-1.18-.21,2.11-.62,3.66-2.94,3.17-.45-.09-1.08.59-1.6.94-2.82,1.9-5.63,3.81-9.06,6.14,1.57,0,2.55-.04,3.53,0,3.11.15,6.21-.13,9.29-.25,4.28-.16,8.95-.85,12.99,1.76.27.17.61.25.91.36,4.2,1.6,4.47,2.05,4.11,6.75-.06.73,0,1.46,0,2.54,2.33-1.37,4.35-2.87,6.6-3.8,2.45-1.02,5.1-1.99,7.7-2.08,1.69-.06,3.43,1.48,5.25,2.35-.58,1.88-1.04,3.41-1.56,5.1,1.33.42,2.14-.06,3.07-1.05,1.4-1.49,2.96-2.91,4.68-4.01,2.24-1.43,3.62-3.47,4.69-5.73,1.06-2.25-.76-6.58-3.06-7.5-.54-.22-1.3-.17-1.87.01-1.86.61-3.65.31-5.5-.03-2.24-.42-4.54-.55-6.78-1-1.73-.35-3.3-1.21-5.05-1.65-4.68-1.17-8.63-4-12.73-6.41-.94-.55-1.59-1.59-2.53-2.56,1.52-.94,2.39-.62,3.33.13,4.28,3.45,9.47,5.21,14.29,7.67.57.29,1.26.45,1.9.47,5.51.14,10.96.79,16.42,1.53,1.38.19,2.86-.61,4.32-.79,3.72-.46,7.1-1.87,10.4-3.55,1.16-.59,2.38-1.06,3.57-1.58.4-.18.93-.24,1.18-.54,2.07-2.5,5.26-3.3,7.76-5.16,2.54-1.89,5.44-3.37,9.47-4.3-.72,1.11-.97,1.96-1.38,2.05-2.62.54-4.36,2.44-6.4,3.87-1.48,1.04-3.05,1.95-5.06,3.22,1.81.34,2.9,1.45,4.35.42.3-.21.87-.17,1.27-.06,6.29,1.58,12.75,1.77,19.16,2.28,4.11.33,8.24.38,12.36.56,2.5.11,5,.3,7.5.36,3.6.1,7.2,0,10.79.2,3.9.21,7.79.67,11.69,1.02.11,0,.21.07.32.07,5.86-.15,11.71-.27,17.57-.49,2.73-.1,5.46-.36,8.19-.65,1.03-.11,2.04-.47,3.87-.91-1.73-.88-2.72-1.46-3.77-1.92-1.67-.72-3.38-1.34-5.06-2.03-1.06-.43-1.1-1.21-.67-2.1,1.71-.76,1.76,1.34,3.09,1.66,1.25-1.73,2.79-1.97,4.85-.82,1.11.62,2.69.37,4.37.55.27-.38.69-.95,1.2-1.66-2.4-1.44-4.63-2.76-6.84-4.13-.54-.33-1.18-.71-1.45-1.23-.5-.97-1.07-1.61-2.23-1.62-.31,0-.71-.13-.9-.34-.73-.86-2.49-1.13-2.01-2.66.41-1.28,1.63-1.64,2.97-1.37.21.04.44-.05.65-.02.68.08,1.65-.06,1.96.32.75.93-.04,1.55-.86,2.03-.15.09-.19.37-.4.82,4.16,2.69,8.36,5.4,12.65,8.18-.91,3.36-4.59,2.4-6.65,4.22.4.83.81,1.69,1.2,2.49-.42,1.6-1.67,2.16-2.99,2.27-4.11.33-8.16,1.28-12.35.93-2.15-.18-4.36.41-6.55.49-1.95.08-3.92-.17-5.86-.06-4.17.22-8.3-.28-12.44-.53-2.47-.15-4.95-.04-7.44-.02-5.06-.27-10.11-.24-15.17-.23-.54,0-1.08.56-1.62.86.08.28.16.57.25.85,4.73,0,9.47.07,14.2-.07.8-.02,1.57-.97,2.35-1.49.05,1.67,1.54,1.61,2.38,1.5,3.73-.49,7.28.66,10.92.89,1.07.07,2.17-.3,3.24-.22.76.05,1.49.51,2.43.86-1.32,1.89-3.07,1.68-4.37,1.46-7.17-1.23-14.42-1.3-21.61-1.02-3.68.14-7.4.59-11.04.18-3.2-.36-6.26.4-9.39.24-2.24-.11-4.4-.19-6.69.14-3.34.47-6.83-.15-10.25-.28-.73-.03-1.49-.06-2.19.11-2.11.5-2.11.54-4.55-1.76,3.1,0,5.9.48,8.43-.14,2.5-.61,5.14,1.35,7.92-1.03-.99.08-1.47.23-1.89.12-.53-.14-1.01-.49-1.51-.74.42-.41.82-1.15,1.25-1.17,2.64-.11,5.29-.05,7.98-.25-5.66-1.32-11.52-1.3-16.58-1.98-1.85,1.05-3.26,1.71-4.52,2.59-2.45,1.72-4.82,3.56-7.22,5.34-.7.52-1.35,1.26-2.14,1.46-2.47.63-4.29,2.42-6.07,3.88-2.34,1.92-4.85,3.27-7.49,4.55-.63.3-1.02,1.07-1.54,1.61-.44.47-.83,1.15-1.37,1.33-3.48,1.14-6.14,3.63-9.19,5.48-.56.34-1.16.89-1.72.87-.8-.03-1.78-.31-2.29-.85-.35-.38-.24-1.46,0-2.08.55-1.36,1.32-2.63,2.1-4.11-1.44-.64-2.48-1.25-3.6-1.55-.79-.21-1.82-.27-2.51.07-2.02.99-3.95,2.19-5.88,3.36-2.01,1.22-3.99,2.49-6.24,3.91-1.03-.16-1.79-.91-1.67-2.39.1-1.2.12-2.41.31-3.6.37-2.36-.82-4.81-2.94-5.33-2.28-.56-4.63-.95-6.98-1.14-1.69-.14-3.42.22-5.13.26-1.63.04-3.27-.1-4.91-.07-2.51.05-5.02.25-7.53.24-1.91-.01-4.03.27-5.35-2.28,5.08-4.54,11.54-7.12,16.9-11.2-1.48-3.45-3.03-7.07-4.47-10.42-1.61-.37-3.21-.75-4.8-1.11-.85-.19-1.7-.51-2.56-.53-3.1-.08-6.2-.06-9.3-.1-.76,0-1.54-.02-2.29-.17-1.79-.35-2.4-1.53-1.41-3.07.79-1.23,1.91-2.25,3.07-3.57-3.78-.56-7.43-1-11.03-1.67-2.77-.51-5.24.79-7.89,1-1.79.15-3.45.77-5.39.7-2.61-.09-5.32.72-7.87,1.52-4.1,1.28-8.22,2.29-12.44,3.11-3.56.69-7.45,1.21-11.04,3.77,3.36,1.88,6.38,3.58,9.59,5.38-1.67,1.48-1.25,2.86.07,4.16,2.35-.61,1.48-1.61.22-2.85,1.1-.18,1.99-.33,2.84-.47,1.84,3.1,1.66,3.31-1.13,5.01-2.1,1.28-4.02,2.91-5.79,4.62-.69.67-.75,2-1.1,3.02l.07-.06ZM307.53,304.1c1.67.32,3.34.65,5.21,1.01.99-.42,2.25-.94,3.84-1.61-3.24-.32-6.16-.75-8.98.66-1.83.17-3.69-1.21-5.78.09,2.16,1.92,3.92.31,5.72-.16ZM200.57,284.86c-.08-2.41-.06-4.62-.25-6.82-.15-1.7-1.22-2.12-2.94-1.48.04,2.77-.8,5.54.14,8.45,1.04-.05,1.86-.09,3.05-.15ZM273.02,304.26c-3.63,1.33-6.69,2.45-9.13,3.34-.58,2.58-.99,4.41-1.53,6.77,1.62-1.07,2.76-1.82,3.91-2.58-.65-.71-1.24-1.35-2.13-2.32,2.9-1.9,6.64-1.71,8.88-5.21ZM194.94,280.38c-.04-3.99-1.83-4.85-5.98-3,2.02,1.01,3.95,1.98,5.98,3ZM195.63,285.44c-1.03-2.99-1.8-3.06-4.58-.61,1.64.22,2.88.39,4.58.61ZM281.22,297.94c-1.25,1.34-2.13,2.29-2.98,3.19,1.19.76,2.41.38,3.15-.81.32-.51-.08-1.48-.17-2.38ZM207.19,282.95c-1.78,1.76-1.76,2.77,0,4.45v-4.45ZM274.23,304.34c1.32-.82,2.05-1.26,3.18-1.96-1.98-.69-2.83-.39-3.18,1.96ZM271.63,309.2c-.04-.18-.09-.35-.13-.53-.48.03-.99-.04-1.42.11-.39.14-.68.54-1.02.82.09.15.17.31.26.46.77-.29,1.54-.58,2.31-.86Z"/><path class="cls-1" d="M205.23,38.86c1.72.32,3.02.99,3.93.65,2.69-1.01,5.37-.26,8.02-.31,3.07-.05,6.15.36,9.23.51,1.38.06,2.37-.62,2.49-2.07.09-.97.12-2.02-.17-2.92-1.22-3.84-1.23-7.69-.7-11.65.32-2.39.34-4.88.02-7.27-.31-2.31,1.03-4.11,1.29-6.22.18-1.44,1.17-2.8,1.29-4.23.15-1.86,1.13-2.99,2.45-4.02,1.64-1.28,3.24-.87,3.69,1.13.46,2.02,1.93,3.84.83,6.23-.45.98.23,2.48.39,3.74l.67.13c.62-1.83,1.37-3.62,1.82-5.49.54-2.24,1.27-4.36,2.91-5.99.61-.61,1.69-1.16,2.48-1.07,1.05.12,1.82.93,2,2.26.44,3.26.77,6.51.43,9.81-.05.47.25.98.45,1.67,1.91-1.86,3.65-3.55,5.66-5.49,2.04,4.52,3.39,8.67,3.02,13.24-.12,1.48-.15,2.99-.03,4.48.08,1.01.36,1.95-.71,2.63-.24.16-.56.66-.49.77,1.92,3-.59,5.85-.29,8.81.14,1.45-.31,2.95-.32,4.43,0,.57.39,1.21.76,1.69,2.91,3.8,6.15,7.39,8.69,11.42,1.93,3.06,3,6.67,4.43,10.05.38.9.45,2.03,1.05,2.72,1.99,2.3,1.59,5.04,1.89,7.69-1.16.53-1.78.05-2.23-.78-.15-.28-.24-.62-.27-.94-.49-4.79-3.28-8.7-5.17-12.91-2.62-5.84-5.74-11.5-11.22-15.67-.06-2.42-.17-4.92.53-7.54.69-2.58.62-5.38.75-8.09.18-3.79.35-7.59.27-11.37-.05-2.42-.42-4.87-1.59-7.76-1.22,2.71-2.84,4.35-3.6,6.86-1.22,4.03-1.29,8.09-1.75,12.15-.06.54-.03,1.1-.13,1.64-.2,1.08-.81,2.03-1.94,1.71-.51-.15-1.09-1.36-1.02-2.03.37-3.76,1-7.49,1.38-11.24.14-1.37-.32-2.79-.26-4.18.19-4.36-.08-8.71-.38-13.27-1.2,1.91-2.39,3.82-3.78,6.03,0,.37.35,1.59-.06,1.96-1.5,1.36-1.07,3.22-1.67,4.78-.95,2.48-.41,5.2-1.5,7.62-.08.19-.12.48-.03.64,1.32,2.37-.91,4.2-.74,6.38-1.57.22-2.24-.29-2.23-1.74.04-3.29.08-6.59.17-9.88.12-4.85-.41-9.71-.68-14.57,0-.16-.3-.3-.67-.64-2.06,1.76-2.6,4.3-3.4,6.67-.37,1.09-.57,2.27-.68,3.42-.17,1.69-.2,3.39-.27,5.09-.03.76.29,1.79-.09,2.25-1.27,1.53-.61,3.11-.24,4.54.98,3.89.13,7.82.56,11.71.09.84.01,1.7.01,2.51-1.37,2.96-4.33,2.71-6.42,2.13-3.76-1.05-7.37.16-11.02-.22-1.76-.18-3.55-.15-5.33-.18-3.65-.07-6.89,1.07-10.26,2.52-4.36,1.88-8.12,4.6-12.02,7.13-1.73,1.12-3.39,2.83-4.26,4.67-1.26,2.69-3.44,4.57-5.05,6.91-2.06,2.99-4.5,5.73-6.7,8.63-.34.45-.34,1.18-.43,1.79-.16,1.05-.26,2.11-.38,3.07-3.18.17-6.03.34-8.89.45-.52.02-1.06-.17-1.58-.32-.53-.15-1.15-.63-1.54-.49-3.03,1.14-5.87-.48-8.8-.53-5.7-.1-11.41.23-17.1-.38-2.69-.29-5.46.59-8.09-.62-.26-.12-.74-.1-.96.07-1.67,1.31-3.56.56-5.37.64-3.92.16-7.9.16-11.75.59-4.39.49-8.71-.32-13.04.21-.5.06-1.01.12-1.51.17-1.25.14-2.49.33-3.74.38-.63.03-1.42-.51-1.88-.28-3.39,1.68-7.17.25-10.66,1.47-1.74.61-3.82.15-5.69.5-3.57.68-7.09,1.58-10.63,2.41-.32.07-.67.4-.91.31-2.73-.95-4.94,1.45-7.57,1.16-.45-.05-1.09.33-1.41.71-.96,1.1-2.13,1.4-3.51,1.31-.41-.03-.9.09-1.26.3-1.34.76-2.99.82-4.22,1.37-3.25,1.46-6.72,2.34-9.91,3.85-4.1,1.95-8.06,4.19-12.08,6.31-2.97,1.57-6.29,2.73-8.79,4.85-1.88,1.6-4.83,2.81-4.94,6.35,4.09.21,7.93,1.89,12.21,1.06,1.43-.28,2.86-.35,4.16-1.07.28-.15.6-.28.92-.32,4.31-.58,8.62-1.14,12.93-1.72,1.29-.18,2.56-.5,3.85-.62.62-.06,1.27.18,1.9.9-3.31.79-6.62,1.58-9.94,2.37-2.1.5-4.19,1.05-6.3,1.48-.93.19-1.93.3-2.85.16-1.79-.28-3.48-.48-4.51,1.3-1.32.05-2.46-1.88-3.79.33,3.19,2.84,6.46,5.71,9.67,8.63.79.72,1.4,1.65,2.12,2.46,2.51,2.85,4.96,5.76,7.58,8.51,2.61,2.74,5.65,5.1,7.99,8.04,1.47,1.84,4.1,2.65,4.61,5.27,3.63,1.63,4.31,6.58,8.51,7.58.28.07.67.37.73.63.71,3.14,3.44,4.77,5.5,6.7,1.58,1.49,3.39,2.86,4.82,4.5,2.67,3.07,5.79,5.57,9.08,7.91,1.04.74,1.8,1.88,2.7,2.81,1.04,1.07,2.06,2.17,3.17,3.16,2.26,2.01,4.5,4.07,6.91,5.9,1.71,1.3,3.69,2.24,5.55,3.35.56.33,1.32.54,1.64,1.04,2.1,3.27,5.49,4.63,8.77,6.24,2.44,1.2,4.69,2.82,7.2,3.85,4.24,1.74,8.26,3.93,12.33,5.98,2.72,1.37,5.82,1.68,8.33,3.25,2.19,1.37,4.78,1.18,6.89,2.3,4.41,2.35,9.39,2.4,14.03,3.81,1.69.52,3.59.37,5.4.45,2.22.1,4.45.1,6.68.21.41.02.79.4,1.21.45,2.23.28,4.38.87,6.73.11,2.65-.85,5.48-1.18,8.92-1.87-2.13,2.18-3.73,3.37-6.42,3.21-2.2-.13-4.45.68-6.68,1.08-.41.07-.83.26-1.23.23-4.5-.34-9.01-.68-13.5-1.1-.93-.09-1.86-.4-2.73-.76-3.01-1.26-6.32-1-9.45-2.31-2.56-1.07-5.31-2.03-7.99-2.88-2.72-.86-5.55-1.27-7.93-3.02-2.18.95-3.02-.77-4.14-2.02-.27-.3-.84-.59-1.18-.51-2.75.66-4.48-1.86-6.98-2.21-1.64-.23-3.09-1.81-4.63-2.79-2.27-1.44-4.54-2.88-6.81-4.32-2.14-1.36-5.1-1.53-6.27-4.35-.09-.22-.84-.1-1.22-.28-.78-.36-2.03-.69-2.17-1.26-.55-2.22-2.59-2.43-4.02-3.45-2.02-1.45-4.07-2.86-5.98-4.45-3.94-3.28-8.02-6.43-11.6-10.08-3.34-3.4-7.62-5.83-10.24-10.01-.89-1.42-2.61-2.29-3.79-3.56-1.9-2.04-3.68-4.21-5.5-6.33-.29-.33-.48-.79-.83-1.01-4.39-2.88-7.19-7.45-11.31-10.61-.17-.13-.42-.25-.48-.43-1.28-3.75-5.01-5.24-7.35-8.01-2.64-3.13-5.16-6.37-7.94-9.36-2.03-2.19-4.41-4.05-6.63-6.07-.4-.36-.95-.66-1.14-1.12-1.19-2.84-3.7-3.41-6.32-3.93-1.38-.27-2.78-.64-4.05-1.23-2.04-.95-2.43-2.28-1.21-4.21.86-1.37,1.9-2.67,3.08-3.78,3.69-3.49,8-6.03,12.65-8.05,1.09-.47,2.1-1.15,3.13-1.75.84-.49,1.6-1.16,2.49-1.52,5.17-2.08,10.11-4.79,15.6-6.07.73-.17,1.39-.64,2.07-.98.78-.39,1.52-.94,2.35-1.16,2.06-.55,4.36-.57,6.21-1.51,2-1.01,4-1.52,6.14-1.91,3.95-.72,7.86-1.65,11.8-2.4,3.05-.58,6.12-.97,9.23-1.26,3.72-.35,7.58.44,11.21-.96.48-.18,1.07-.07,1.62-.06,2.58.03,5.34.64,7.69-.08,2.1-.65,4.19-.31,6.2-.91.92-.27,2.13-.63,2.88-.27,3.51,1.7,7.08.88,10.49.15,3.04-.65,6.01.09,9.01-.34,2.14-.3,4.36-.08,6.54.04,1.84.1,3.67.48,5.51.57,1.94.09,3.9,0,5.85-.03.83-.01,1.76-.3,2.48-.03,2.6.99,5.27.42,7.89.63,1.18.09,2.39.73,3.49.56,2.98-.45,5.93-.37,8.91-.23,1.22.06,2.02-.79,2.59-2.11.98-2.27,2.23-4.48,3.66-6.5,2.15-3.03,4.42-5.99,6.89-8.77,2.06-2.32,4.48-4.31,6.73-6.47.63-.6,1.16-1.31,1.82-1.87,2.97-2.53,5.98-4.95,9.88-6.02,2.09-.57,3.97-1.72,6.3-1.56.79.05,1.65-.96,2.15-1.27Z"/><path class="cls-1" d="M139.61,308.23c.72-.21,1.44-.42,2.34-.68,1.24,1.86,2.35,3.71,3.66,5.41.54.69,1.46,1.13,2.28,1.56,1.61.85,3.28,1.59,4.91,2.42.77.39,1.45,1.02,2.26,1.29,5.03,1.67,9.85,4.01,15.33,4.25,2.68.12,5.34,1.04,7.96,1.78,3.18.91,4.6,4.68,3.15,8.34.39.41.75,1.01,1.28,1.31,2.11,1.19,4.26,2.3,6.41,3.42.48.25,1.04.63,1.51.56,2.7-.38,4.71,1.68,7.22,1.91.31.03.6.32.9.33,4.13.23,8.26.44,12.39.65.66.03,1.36-.15,1.96.03,3.72,1.1,7.42.58,11.18.18,2.81-.3,5.74-.46,8.49.03,2.22.39,4.27-.19,6.4-.12,2.44.08,4.91-.41,7.36-.59.87-.06,1.75.04,2.63.09,3.4.18,6.79.59,10.21-.02,1.11-.2,2.32.3,3.49.29,3.19-.03,6.38-.23,9.58-.24,1.3,0,2.6.25,3.88.51,1.51.31,2.88.41,4.41-.31.81-.39,2.1.4,3.1.24,5.9-.93,11.78.74,17.67.07,2.92-.33,5.85-.64,8.85-.96,1.69-5.04-.19-9.77-.19-14.48,2.71-.24,3.38.48,8.07,8.55,1.47-1.4,1.9-3.25,2.55-5.11.96-2.72,2.57-5.22,3.91-7.8,1.95.18,2.91,1.14,3.1,2.69.38,3.11.6,6.24.91,9.35.04.41.23.8.52,1.73,1.65-1.28,3.07-2.39,5.02-3.91-.08,3.21-2.25,4.02-3.55,5.41-.26.27-.77.29-1.12.49-1.74,1.02-2.57.7-2.84-1.19-.38-2.69-.68-5.4-1.05-8.09-.07-.5-.3-.97-.69-2.2-1.67,4.26-3.1,7.81-4.47,11.4-.62,1.64-1.66,1.94-2.81.57-1.52-1.82-2.91-3.75-4.65-5.58,1.86,3.11-1.55,6.46,1.21,9.47-1.1.53-1.75,1.1-2.43,1.13-3.47.2-6.87.94-10.44.5-3.07-.38-6.26.31-9.4.44-1.16.05-2.33-.1-3.49-.19-.87-.07-1.73-.29-2.59-.27-1.85.05-3.7.32-5.55.31-4.43-.04-8.86-.27-13.29-.27-2.13,0-4.25.36-6.38.52-.64.05-1.4.21-1.92-.05-1.79-.89-3.64-.52-5.48-.5-3.74.03-7.48-.02-11.23,0-1.3,0-2.64-.08-3.89.21-1.01.24-1.84.58-2.75-.19-.26-.22-.86-.27-1.2-.13-3.87,1.56-7.89.76-11.85.8-2.59.03-5.17-.26-7.76-.26-3.88,0-7.71-.43-11.56-.88-4.88-.58-9.57-1.91-14.37-2.74-2.69-.46-4.28-2.56-6.54-3.6-.64-.29-1.03-1.08-1.63-1.49-.97-.66-1.15-1.51-.93-2.57.28-1.36.5-2.74.79-4.34-2.48-.8-4.82-1.68-7.22-2.3-1.99-.51-4.09-.59-6.09-1.09-1.6-.4-3.09-1.57-4.65-1.62-1.69-.05-3.15-.21-4.69-1.01-3.29-1.69-6.69-3.16-10.44-4.91.39,1.48,1.65,2.79.23,3.98,0,0,.1-.1.1-.1-2.81-1.66-4.51-4.45-5.87-7.11-.82-1.61-1.11-3.68-2.16-5.36-.01,0-.08.06-.08.06Z"/><path class="cls-1" d="M213,96.42c-4.24-.01-7.54-2.34-10.49-4.77-1.61-1.33-2.41-3.84-3.14-5.96-1.27-3.69-1.55-7.53.5-11.06,1.16-2,2.53-4.08,5.36-4.05.43,0,.92-.02,1.28-.21,4.59-2.41,8.87-.09,13.24.85.3.06.66.26.83.5,1.91,2.75,3.8,5.53,5.68,8.31.18.26.37.66.3.91-.88,2.99-.53,6.28-2.43,9.02-1.89,2.72-4.08,5.08-7.29,6.14-1.18.39-2.55.24-3.83.33ZM216.31,81.44c-.82-2.26-2.54-2.98-4.43-3.61-.91,2.04.58,3.3,1.01,4.94,1.14-.44,2.12-.83,3.42-1.33Z"/><path class="cls-1" d="M363.48,265.3c-1-1.95-1.79-3.49-2.59-5.03-.25-.48-.45-1.15-.87-1.36-3.71-1.87-5.5-5.71-8.46-8.37-1.92-1.73-3.72-3.83-5.52-5.81-1.92-2.11-3.98-4.03-6.21-5.84-1.46-1.19-3.13-2.75-4.12-4.32-1.82-2.9-4.99-4.16-6.92-6.99-2.06-3.01-5.43-5.12-8.22-7.65-1.49-1.35-2.97-2.73-4.43-4.11-2.33-2.21-4.6-4.48-6.98-6.63-.61-.55-1.53-.75-2.58-1.24.58-.81,1.04-1.46,1.56-2.18,2.65,2.22,5.15,4.22,7.55,6.34,4.01,3.56,8.28,6.92,11.79,10.93,1.73,1.98,4.16,3.22,5.47,5.37,1.74,2.86,4.78,4.18,6.83,6.65,1.78,2.14,4.19,3.76,5.96,5.91.93,1.14,1.59,2.12,3.14,2.53.79.2,1.57,1.25,1.93,2.1,1.27,2.98,4.3,4.36,6,6.92.47.71,1.18,1.26,1.73,1.92,2.21,2.62,4.36,5.29,6.61,7.87.98,1.12,3.81,1.08,5.1.04.64-.52,1.19-1.15,1.99-1.94.53,1.79-.26,2.54-1.35,3.19-1.57.95-3.12,1.93-3.25,3.68-2.2.32-4.21.33-6,.96-1.67.59-3.05,1.93-4.65,2.78-1.95,1.03-4.01,1.82-5.98,2.82-1.93.97-3.65,2.11-6.07,2.03-1.55-.05-3.18,1.09-4.69,1.85-3.54,1.79-7.34,1.36-10.99,1.05-6.5-.56-12.84-2.18-19.02-4.26-1.42-.48-2.78-1.29-4.02-2.15-1.98-1.38-3.82-2.96-5.75-4.42-1.19-.9-2.54-1.24-3.97-.63-3.29,1.41-6.81,1.86-10.23,2.7-3.75.93-7.31.7-10.9.31-3.44-.37-6.94-1.03-10.17-2.22-2.89-1.07-5.31-3.36-8.17-4.53-4.22-1.71-6.57-5.22-9.19-8.5-1.2-1.5-2.14-3.22-3.1-4.9-.54-.93-.71-2.06-2.03-2.37-.3-.07-.46-.87-.6-1.36-.09-.3.12-.81-.05-.94-3.21-2.76-2.4-6.76-3.64-10.56.85.24,1.44.24,1.58.48.73,1.31,1.69,2.62,1.95,4.04.66,3.62,2.5,6.46,4.82,9.21,1.81,2.15,2.97,4.84,4.77,6.99,2.35,2.81,4.92,5.44,8.4,7.01,2.66,1.2,5.1,2.91,7.79,4.02,1.87.77,3.97,1.11,6,1.3,3.8.35,7.61.46,11.42.62.61.03,1.25-.1,1.84-.28,3.77-1.21,7.52-2.47,11.29-3.68,1.54-.49,2.76.46,3.28,1.58,1.05,2.24,3.37,2.62,4.88,3.98,2.75,2.47,6.52,2.23,9.26,4.39.53.42,1.46.3,2.19.49.91.24,1.78.59,2.69.8,1.04.24,2.1.44,3.16.54,2.22.21,4.44.36,6.66.52.54.04,1.1.14,1.63.05,5.04-.84,10.18-1.22,14.91-3.4.5-.23,1.06-.36,1.49-.67,2.36-1.68,5.17-2.33,7.75-3.51,2.52-1.15,4.86-2.72,7.3-4.12Z"/><path class="cls-1" d="M92.61,98.38c-.44,2.92-1.94,4.7-4.85,4.83-1.86.08-3.87.52-5.44-.95-1.26-1.18-2.4-2.49-3.77-3.93-1.99,0-4.51.29-6.92-.08-2.26-.35-4.51,2.41-6.74,0,.29-1.55,1.46-1.62,2.52-1.73,4.09-.41,8.17-.83,12.27-1.13,1.4-.1,2.82.24,4.23.22,3.01-.04,6.03-.25,9.04-.26,1.4,0,2.8.35,4.21.45,2.24.16,4.48.32,6.72.33,2.5.02,5.13.32,7.48-.32,1.89-.51,3.1.3,4.66.6,2.74.52,5.58.46,8.39.62.43.02.88-.18,1.3-.14,4.32.38,8.64.83,12.96,1.19,1.63.13,3.41.51,4.87.03,3.09-1.01,6.16-.29,9.1-.04,4.95.41,9.81,1.77,14.71,2.74,1.08.22,2.16.49,3.6.83-1.2,1.63-2.2,1.9-3.65,1.47-2.61-.78-5.29-1.34-7.92-2.06-1.31-.36-2.41-.16-3.23.93-1.22,1.62-2.36,3.3-3.57,4.93-.44.59-.91,1.2-1.5,1.62-.86.63-1.84,1.1-3.05,1.81-2.73-2.02-5.09-4.63-6.62-7.69-1.12-2.25-2.77-3.01-4.85-3.2-2.69-.24-5.42-.09-8.12-.24-1.29-.07-2.03.37-2.59,1.51-1.18,2.4-2.45,4.75-3.69,7.12-.35.67-.7,1.35-1.15,1.96-.97,1.34-2.58,1.54-3.49.23-.85-1.21-1.54-2.63-1.94-4.06-.48-1.74-1.01-3.41-1.79-5.06-.69-1.46-1.61-2.36-3.19-2.33-1.98.04-3.88-1.24-5.97-.07-.71.4-1.98.15-2.87-.16-2.95-1.02-5.83-.29-9.14.03ZM142.65,100.05c1.13,1.9,2.01,3.46,2.99,4.97,1.14,1.77,2.72,2.44,4.06,1.45,1.85-1.37,3.85-2.84,3.46-6.04-3.48-.02-6.89-.79-10.51-.37ZM118.6,107.1c2.58-1.08,3.29-2.35,4.53-7.74-2.42-.17-4.82-.34-7.76-.55,1.24,3.17,2.24,5.73,3.24,8.29ZM90.65,97.93c-6.01-.9-7.99-.56-9.36,1.8,2.44.86,4.82,1.69,7.23,2.54.7-1.42,1.34-2.73,2.13-4.34Z"/><path class="cls-1" d="M275.78,92.42c.39.49,1.04.93,1.12,1.47.36,2.34.72,4.7.79,7.07.09,3.22-.08,6.44-.15,9.66,0,.43-.32,1.02-.13,1.25,1.72,2.19.21,4.4.13,6.6-.07,1.72.34,3.62-.25,5.13-1.49,3.78-1.3,7.85-2.46,11.65-1.44,4.72-2.32,9.74-4.55,14.05-2.58,4.99-3.44,10.91-7.81,14.99-.43.4-.43,1.38-.43,2.09,0,.82.21,1.65.38,2.74-2.45.47-3.8,1.97-5.28,3.64-1.69,1.9-3.11,4.01-4.88,5.84-.7.72-.95,1.86-1.47,2.78-1.9,3.42-4.74,6.32-5.44,10.41-.21,1.22-1.07,2.39-1.81,3.46-1.87,2.69-2.95,5.6-2.83,8.91.01.32.03.69-.1.97-1.93,4.28-1.42,8.94-1.96,13.41-.52,4.31-.09,8.73.24,13.09.05.68.51,1.33.88,2.22-.74.15-1.23.25-2.05.42-.71-4.01-1.6-7.8-1.97-11.64-.24-2.57.6-5.23.36-7.8-.38-4.1,1.59-7.64,2.09-11.48.3-2.3,2.2-4.25,1.37-6.76-.11-.33.14-.86.37-1.21,2.24-3.54,4.82-6.91,6.65-10.65,1.08-2.22,2.43-4.25,3.54-6.43,2.04-3.99,5.21-7.02,8.28-10.16,1.09-1.12,1.87-2.6,2.62-4,1.08-2,2.04-4.07,3-6.12,1.67-3.54,3.28-7.1,4.54-10.81.67-1.97,1.97-3.77,1.47-6.02,2.19-2.24,1.52-5.46,2.8-8.11,1.18-2.42,1.08-5.46,1.51-8.23.33-2.14.72-4.28.9-6.44.18-2.25.14-4.52.18-6.77,0-.21-.21-.43-.19-.62.44-3.43-.51-6.83-.33-10.21.1-1.92.12-3.67-.38-5.53-.22-.82.31-1.84.5-2.76.25-.02.51-.04.76-.07Z"/><path class="cls-1" d="M380.69,162.46c-1.34.15-2.77.32-4.2.48q-.27-2.43,1.56-2.41c2.2.02,3.19-.88,3.11-3.01-.11-2.9-.42-5.8-.44-8.69,0-1.32.49-2.65.86-4.51,2.09,2.66,1.52,5.18,1.58,7.54.07,2.46.02,4.93.02,7.76.42-.02,1.2.14,1.74-.13,1.72-.88,3.3-2.04,5.04-2.87,2.55-1.2,2.83-1.51,2.78-4.28-.01-.72.06-1.45.12-2.7,1.17.51,1.96.86,2.37,1.04-.09,2.36-.03,4.26-.28,6.13-.27,2.05.37,4.02.24,6-.12,1.86-1.59,3.68.06,5.68,1.52-.21,2.82-.71,3.59-2.27.27-.55.9-.92,1.39-1.36,1.11-.99,2.12-.66,2.68.51.8,1.65,1.48,3.39,1.98,5.15.35,1.21.32,2.54.45,3.81-1.47-.24-1.44-.26-2.53-2.85-.55-1.3-1.24-2.53-1.81-3.67-2.99.8-3.94,5.03-7.78,4.11-2.49-4.33-.46-8.98-1-13.87-1.72.78-3.14,1.47-4.61,2.07-.67.27-1.44.56-2.11.48-1.51-.19-2.52.47-2.48,1.83.08,2.96-1.58,6.24,1.64,8.8-.56.48-1.07,1.15-1.3,1.06-1.15-.42-2.23-1.03-3.89-1.85-2.54.27-5.83.62-9.12.98-2.34.25-7.59-2.3-8.48-4.29-.38-.86-.35-1.92-.44-2.9-.13-1.4-.46-2.86-.22-4.21.26-1.43.78-3.02,1.71-4.08,3.16-3.57,3.21-4.41,7.93-3.25,1.85,3.91.14,8.55-3.7,10.12-.69.28-1.38.65-1.92,1.15-.91.83-.77,1.95.12,2.55,1.33.89,2.85,1.5,4.31,2.17.57.26,1.24.29,1.78.59,1.03.56,1.9.66,3.07.14,1.88-.84,3.92-1.34,5.73-1.93.14-1.66.27-3.18.43-5.04ZM364.63,161.27c4.09-.64,4.21-3.89,4.8-7.17-1.21.16-2.24.3-3.15.42q-1.96,4.51-1.65,6.76Z"/><path class="cls-1" d="M217.29,65.88c-1.76-.18-3.61-.15-5.34-.61-2.76-.73-5.43-1.7-7.98.45-1.99-.5-3.44.43-4.42,1.97-1.62,2.53-3.41,4.9-5.33,7.21-.88,1.06-.73,3.12-.74,4.72-.02,2.29-.87,4.92,1.88,6.43.26,2.76,2.58,4.13,4.09,6.04,3.28,4.15,7.71,6.52,12.58,8.19.56.19,1.28-.03,1.91-.15.53-.1,1.22-.63,1.52-.45,1.47.89,2.82.41,3.89-.46,1.81-1.48,3.47-3.16,5.08-4.86.88-.93,1.55-2.07,2.28-3.13.35-.5.8-1.03.9-1.59.88-5.09,1.43-10.23-.7-15.13-.62-1.42-1.97-2.56-3.11-3.69-1.54-1.52-3.21-2.91-4.91-4.43,1.91-.81,1.18-1.51,7.22,2.59,1.98-.85,4.04-1.73,6.08-2.62.81-.35,1.64-.38,1.8.61.07.44-.49,1.21-.97,1.46-1.61.86-3.31,1.56-4.91,2.29.08,1.88.72,3.3,1.52,4.85,1.58,3.05,1.78,6.6.98,9.9-1.01,4.21-2.39,8.37-5.26,11.81-.85,1.02-1.57,2.09-3.05,2.29-.63.09-1.27.39-1.81.75-3.68,2.41-7.62,2.18-11.64,1.24-6.64-1.56-10.91-6.17-14.21-11.68-1.03-1.73-2.01-2.06-3.57-1.84-1.2.17-2.86.6-3.07-.77-.3-1.89,1.52-1.64,2.81-1.64.2,0,.39-.13.86-.3-.13-1.21,0-2.59-.46-3.75-.57-1.47-.53-2.81.17-4.05,1.52-2.72,1.31-6.23,3.89-8.46,1.06-.92,2-1.98,3.11-2.83,1.46-1.11,3.03-2.09,4.57-3.1.45-.3.96-.75,1.44-.75,3.87,0,7.8-.97,11.59.7,1.16.51,1.82,1.14,1.32,2.78Z"/><path class="cls-1" d="M177.79,172.59c.37,2.37,1.13,4.48.88,6.46-.22,1.71.08,3.23.29,4.81.67,5.03,1.45,10.04,2.09,15.07.11.84-.23,1.74-.38,2.75-1.93-.6-2.24-1.88-2.16-3.02.31-4.43-1.09-8.68-1.3-13.07-.15-3.13-.97-6.35-.77-9.55.24-3.82-.12-7.57-.24-11.36-.08-2.48-.03-5.13.43-7.67.48-2.66.7-5.36,1.24-8,1.01-4.99,2.17-9.95,3.28-14.93.12-.53.28-1.05.49-1.55,1.47-3.6,2.82-7.27,4.49-10.78,1.46-3.07,3.15-6.05,5.02-8.88.78-1.18,2.36-1.82,3.44-2.84.66-.62,1.07-1.51,1.64-2.34-1.25-1.14-1.98-2.08-3.7-2.24-2.09-.2-4.1-1.28-6.12-2.03-2.13-.79-4.26-1.57-6.34-2.47-.87-.38-1.65-1.03-2.41-1.63-1.45-1.15-2.81-2.42-4.3-3.52-3.61-2.65-4.09-6.51-4.64-10.35.21-.13.42-.27.63-.4.44.36,1.05.64,1.27,1.11.61,1.29,1.04,2.65,1.56,3.98.93,2.41,2.21,4.45,4.77,5.56,1.14.5,1.9,1.86,3.03,2.41,3.32,1.62,6.37,3.87,10.23,4.25,3.23.32,5.6,2.23,7.41,4.75.77,1.07.92,2.5-.24,3.61-1.01.96-2.06,1.88-3.1,2.8-.16.14-.5.15-.56.3-1.19,3.03-4.25,4.84-5.08,8.18-.48,1.96-1.46,3.89-2.62,5.55-1.2,1.72-1.97,3.42-2.19,5.51-.15,1.49-.8,2.93-1.26,4.38-.74,2.31-1.52,4.61-2.28,6.92-.07.2-.18.48-.1.63,1.39,2.75-.44,5.25-.63,7.87-.19,2.56-1.32,5.13-1.11,7.62.29,3.33-1.51,6.58-.11,9.93.27.66-.42,1.72-.55,2.18Z"/><path class="cls-1" d="M366.6,93.92c2.68,3.81,6.19,4.63,10,4.29.89-.08,1.84-1.27,2.47-2.16.67-.95,1.02-2.14,1.46-3.24.22-.54.37-1.11.48-1.68.06-.31-.12-.68-.02-.95.22-.59.42-1.34.88-1.66,2.07-1.4,2.4-4.92,5.7-4.75.66.03,1.31.43,1.96.65-.34.62-.54,1.42-1.05,1.83-1.42,1.12-3.12,1.91-4.42,3.15-1.32,1.26-2.46,2.84-1.73,4.93.3.87.48,2.31.99,2.45.91.24,2.16-.1,3.04-.59,1.09-.61,1.96-1.61,3.07-2.57-.58-2.09-.88-4.34,1.17-6.31,1.06.15,1.61.82,1.65,1.94.03.98.15,1.99-.04,2.94-.4,1.92.02,3.36,1.73,4.5,1.15.77,1.85,1.87.66,3.44-1.81-.47-3.02-1.47-3.52-3.64-1.24.46-2.43.72-3.41,1.31-1.86,1.1-3.81,1.52-5.94,1.62-1.91.09-3.74.25-5.62,1.26-2.7,1.46-8.48-.72-10.18-3.36-.57-.89-1.14-1.75-.2-2.96.44-.56-.2-1.87.11-2.65,1.26-3.13,2.66-6.23,5.35-8.46,1.17-.97,2.44-1.81,3.62-2.77.78-.63,1.66-.96,2.27-.06.61.88.5,2.31-.57,2.52-3.03.59-4.35,3-5.95,5.09-1.43,1.85-2.63,3.88-3.98,5.91Z"/><path class="cls-1" d="M275,393.07c-.6-2.55-1.41-5.07-1.75-7.65-.36-2.8-.2-2.66-2.86-3.16-2.39-.45-4.7-1.32-7.06-1.96-.69-.19-1.46-.45-2.11-.3-1.48.34-1.93-.17-2.08-1.61-.41-3.79-.84-7.58-1.55-11.32-.36-1.89-1.42-3.66.8-5.75-4.63-.85-8.34-2.16-12.26-1.99-5.43.23-10.8,0-16.11-1.24-.72-.17-1.57-.52-2.18-.3-2.04.74-3.74-.96-5.82-.56-1.13.22-2.41-1.1-1.04-3.01,1.22.38,2.49.85,3.8,1.18,1.35.34,2.73.52,4.09.8.53.11,1.05.48,1.55.44,7.29-.49,14.48,1.3,21.78.96,1.8-.08,3.72,1.1,5.48,1.92,1.51.7,1.53,2.3,1.57,3.71.04,1.84-.36,3.73,1.11,5.3.28.3.06,1.05.08,1.59.1,2.23.04,4.49.4,6.68.11.68,1.26,1.49,2.08,1.72,3,.85,6.04,1.66,9.12,2.13,2.51.38,3.19,2.46,3.51,4.05.53,2.63.14,5.44.14,8.17-.23.07-.46.13-.69.2Z"/><path class="cls-1" d="M170.93,381.77c-3.29-2.22-3.94-5.54-4.37-9.22-.3-2.58.13-5.25-1.13-7.82-.69-1.41-.43-3.44-.15-5.12.3-1.85.51-3.45-.36-5.3-.85-1.8-1.41-3.96-1.33-5.93.08-2.07-1.11-2.61-2.66-3.32,1.53-2.95.04-4.72-1.98-6.7-3.2-3.14-5.58-6.98-8.01-10.77-1.42-2.2-2.98-4.25-3.22-6.95,0,0-.11.1-.11.11,2.05-.23,2.75,1.34,3.48,2.73,2.06,3.93,4.51,7.53,7.55,10.81,1.8,1.94,2.93,4.5,4.39,6.76.63.98,1.44,1.87,1.96,2.91.61,1.2,1.46,2.55,1.37,3.77-.14,2.11,1.37,4.02.45,6.17-.55,1.29-.67,2.53.58,3.77.63.63.79,1.98.75,2.99-.16,4.25.53,8.41,1.28,12.55.32,1.77.67,3.61,1.43,5.21.61,1.28.36,2.28,0,3.42l.09-.08Z"/><path class="cls-1" d="M325.11,122.26c.31,3.13.34,5.59.86,7.95.38,1.72,1.41,3.3,2.13,4.9,1.68.19,2.42-.75,2.82-1.92.45-1.32.63-2.74,1.05-4.08.2-.64.72-1.69,1.06-1.68.75.03,1.53.54,2.2,1,.29.2.35.76.5,1.17.48,1.3.88,2.64,1.44,3.9,1.45,3.22,4.51,2.66,6.03.15,1.6-2.65,2.52-5.48,2.55-8.64.02-1.78.49-3.56.76-5.34.24,0,.48-.02.72-.03.19.4.57.82.54,1.21-.25,2.77.26,5.5-.21,8.34-.86,5.11-2.98,8.48-8.57,9.14-1.61-1.49-4.33-1.8-4.97-4.58-1.48,1.33-2.69,2.51-4,3.57-1.07.86-2.33.81-3.28-.13-1.87-1.86-3.36-3.98-3.38-6.8,0-.76.15-1.64-.16-2.27-1.09-2.2-.08-3.72,1.91-5.86Z"/><path class="cls-1" d="M210.42,251.31c.81.62,1.69,1.16,2.4,1.88.57.58.92,1.38,1.74,2.66.85-4.15,2.74-7.3,2.9-10.98.11-2.57.11-5.18.58-7.69.81-4.32.29-8.61.24-12.92-.04-3.7.22-7.4.32-11.1.04-1.61.04-3.21.04-4.82.01-2.79-.05-5.58.09-8.36.02-.5.83-.97,1.27-1.45.24.07.48.15.71.22.1,1.77.28,3.54.28,5.31-.01,4.1-.91,8.17-.11,12.31.24,1.22-.21,2.58-.38,3.88-.29,2.24-.47,4.42-.27,6.73.36,4.25.48,8.55-.38,12.82-.92,4.53-1.5,9.13-2.32,13.68-.54,3.02-1.89,4.46-3.68,4.17-2.44-.39-3.95-3.26-3.37-6.39l-.07.06Z"/><path class="cls-1" d="M332.11,206.36c1.84,1.26,3.74,2.45,5.51,3.8,2.43,1.85,4.8,3.79,7.14,5.76.56.47.91,1.18,1.35,1.79.94,1.29,1.62,2.6,3.57,3.03,1.41.31,2.51,1.97,3.78,2.98,1.1.88,2.24,1.71,3.36,2.57.35.26.8.47,1.01.82,3.8,6.16,9.28,11.08,12.81,17.45.99,1.78,2.29,3.42,3.05,5.28.65,1.6,1.03,3.44-.02,5.34-1.24-.77-1.31-1.82-1.51-2.89-.38-2.09-.32-4.45-2.83-5.44-1.79-3.94-5.31-6.64-7.44-10.3-1.87-3.22-3.87-6.19-6.82-8.56-3.78-3.04-7.35-6.36-10.99-9.56-1.61-1.42-3.16-2.93-4.82-4.29-2.09-1.71-4.31-3.25-6.38-4.98-.64-.54-.98-1.45-1.45-2.19.23-.2.46-.41.69-.61Z"/><path class="cls-1" d="M313.15,87.53c.23-1.8,2.91-2.01,1.75-3.82-.4-.63-1.57-.77-2.71-1.27-.49-1.94,1.28-3.47,2.53-4.57,2.32-2.03,5.13-3.16,8.52-1.98,4.38,1.52,4.44,1.36,4.6,6.54-1.84,1.42-3.87,2.99-5.91,4.56-.34.26-.66.59-1.04.76-1.16.52-3.1.72-3.37,1.5-.55,1.64-.52,3.63-.16,5.36.49,2.34-.75,4.4-.59,6.64,0,.12-.52.29-1.27.68-.16-4.38-.31-8.48-.47-12.96-.41-.31-1.15-.88-1.9-1.45ZM317.43,86.01c.68-.07,1.42.06,1.91-.23,1.84-1.1,3.65-2.28,5.37-3.55.95-.71.73-2.76-.22-3.49-1.33-1.02-5.94-.88-7.11.29-.35.35-.64.98-.61,1.46.14,1.79.42,3.57.67,5.52Z"/><path class="cls-1" d="M330.12,205.89c-1.37-.73-3-1.19-4.07-2.22-4.9-4.75-10.76-8.28-15.94-12.67-3.76-3.19-8.19-5.63-12.42-8.24-2.34-1.44-4.9-2.53-7.32-3.84-.76-.41-1.54-.96-2.03-1.64-.78-1.09-1.43-2.07-2.97-2.24-.52-.06-.93-1.13-1.69-2.12,2.13-.26,3.19.38,4.43,1.21,4.74,3.16,8.8,7.39,14.48,9.11,1.16.35,2.11,1.4,3.18,2.11,2.05,1.36,4.34,2.46,6.13,4.11,3.09,2.86,7.21,4.37,9.74,8.02,1.08,1.56,3.21,2.42,4.91,3.51,1.75,1.12,2.81,2.77,3.58,4.91Z"/><path class="cls-1" d="M210.5,251.25c-2.06-1.02-2.31-2.97-2.56-4.94-.56-4.39-1.17-8.77-1.73-13.16-.17-1.38-.57-2.84-.29-4.14.52-2.39-.71-4.6-.25-7.06.22-1.2-.85-2.83-.89-4.53-.07-2.76-.94-5.5-1.31-8.27-.18-1.35,0-2.76.01-4.14.03-2.83.05-5.66.49-8.53.86,2.77,2.3,5.25,1.98,8.37-.26,2.5.39,5.09.58,7.64.21,2.82.36,5.65.54,8.48,0,.11,0,.23.03.32,2.24,5.48.73,11.43,2.11,17.02.67,2.7.37,5.53,1.59,8.22.58,1.27-.2,3.15-.37,4.76,0,0,.07-.06.07-.06Z"/><path class="cls-1" d="M326.82,95.71c-.63,3.74-.54,3.73,2.3,4.71,4.22,1.46,8.26,1.36,12.22-.75.13-.07.4.1.6.15-.34,2.88-.36,2.78-2.79,3.4-2.85.72-5.73,1.15-8.59.57-1.84-.37-3.35-1.34-4.82-2.88-4.73-4.97.5-14.19,7.01-14.92,2.22-.25,3.96,1.38,3.91,3.56-.11,5.14-4.22,7.87-8.66,6.34-.3-.1-.64-.11-1.18-.2ZM327.15,93.21c3.92,1.42,6.02-.61,7.95-3.12-.49-1.83-1.95-2.04-3.35-1.6-2.2.7-3.71,2.26-4.6,4.72Z"/><path class="cls-1" d="M209.07,373.3c1.01.69,1.66.89,1.8,1.27.92,2.55,2.51,5.19,2.35,7.69-.15,2.35,2.13,4.24.7,6.67-.32.55.27,1.88.78,2.63,2.11,3.16,2.43,6.67,2.44,10.31,0,1.15.38,2.32.71,3.44,1.31,4.53,2.64,9.06,4.03,13.57.32,1.03.84,2,1.31,2.98.67,1.38.15,2.02-1.44,2.25-1.8-4.92-4.1-9.69-5.23-14.72-1.41-6.26-2.58-12.6-3.69-18.94-.81-4.65-2.16-9.2-3.23-13.8-.21-.89-.28-1.81-.51-3.35Z"/><path class="cls-1" d="M386.13,271.73c3.3-1.67,6.18-1.78,9.05-1.64,2.57.13,5.14.49,7.7.8,1.55.19,1.81-.9,2.08-1.99.57-2.29,1.88-3.86,4.4-4.67.81,3.06-.19,6.26,1.33,9.01,1.6-1.09,3.12-2.37,4.84-3.24,3.08-1.54,5.49-.06,5.9,3.38.1.87.53,1.71.53,2.57,0,.85-.35,1.69-.71,3.25-1.89-2.69-2.04-5.03-2.03-7.19-2.48-1.05-3.76.71-5.25,1.58-1.44.84-2.35,2.63-4.28,2.51-2.16-2.15-1.52-4.82-1.54-7.83-.85.71-1.45.99-1.72,1.47-1.74,3.09-4.61,4.23-7.74,2.57-1.14-.6-1.99-.49-3.04-.3-2.96.52-5.91.52-9.51-.28Z"/><path class="cls-1" d="M348.94,166.46c3.72,1.98,6.38,5.08,10.96,2.04-.2,1.32-.08,2.11-.43,2.52-.46.54-1.24.92-1.95,1.12-2.99.82-7.64-1.42-9.18-4.12-1.43-2.5-2.18-4.88-.62-7.63.56-1,.55-2.31.87-3.45.8-2.79,3.02-4.22,5.49-5.06,2.07-.71,4.34,1.98,3.49,4.17-1.29,3.31-2.45,6.81-6.39,8.17-.77.27-1.29,1.27-2.24,2.25ZM349.2,162.77c3.11-1.42,4.65-3.57,5.66-6.1.21-.54-.27-1.36-.43-2.05-.67.22-1.54.26-1.97.71-.72.74-1.04,1.87-1.75,2.63-1.17,1.28-1.58,2.69-1.51,4.81Z"/><path class="cls-1" d="M170.84,381.85c3.33.97,6.68,1.88,9.99,2.93,2.13.68,3.51,1.92,3.18,4.52-.18,1.36-.14,2.87,1.15,3.93.24.19.5.54.51.81.07,3.3,1.71,6.32,1.9,9.5.2,3.3.93,6.36,1.88,9.46.33,1.07,1.1,2.42-.45,3.84-.58-1.05-1.25-1.88-1.52-2.82-.91-3.19-1.77-6.4-2.47-9.65-.85-3.96-1.45-7.97-2.28-11.92-.33-1.56-.74-3.21-1.6-4.5-.64-.96-2.02-1.83-3.16-1.96-1.61-.19-2.78-1.44-4.59-1.31-1.04.07-2.71-1.02-2.43-2.9,0,0-.09.08-.09.08Z"/><path class="cls-1" d="M180.82,339.23c.72,1.64,1.55,3.24,2.13,4.93,1.44,4.16,2.46,8.49,4.24,12.49,1.11,2.49,3.23,4.57,5.05,6.7.96,1.12,2.48,1.28,3.88,1.75,2.91.98,5.52,2.82,8.28,4.27.8.42,1.81.54,2.49,1.09.63.51.95,1.4,1.72,2.63-1.19-.17-1.96-.07-2.5-.39-2.05-1.2-3.93-2.69-6.04-3.75-2.09-1.06-4.33-2.17-6.6-2.44-2.32-.28-3.54-1.77-4.53-3.2-3.2-4.65-5.12-9.98-7.12-15.23-.84-2.21-1.42-4.53-2.02-6.82-.15-.57.11-1.25.19-1.88.27-.04.54-.09.82-.13Z"/><path class="cls-1" d="M410.25,340.15c-1.14-.11-1.75-.17-2.62-.25.17-2.57.33-5,.5-7.57-2.16.38-3.95.88-4.8,3.29-.43,1.23-1.7,2.17-2.58,3.23-2.14-.69-2.27-2.27-2.12-3.97.18-2.01.38-4.01.59-6.19-1.69,1.77-3.24,3.15-4.47,4.78-.78,1.04-1.07,2.44-1.66,3.86-1.06-.16-1.93-.6-1.21-1.84,1.78-3.06,3.61-6.1,5.64-8.99,1-1.43,3.06-.91,3.57.83.32,1.11.21,2.35.25,3.54.03.91,0,1.82,0,2.95,1.95-1.36,3.52-2.59,5.24-3.58.63-.36,1.79-.44,2.35-.09.7.44,1.07,1.2.92,2.45-.28,2.3.2,4.7.4,7.55Z"/><path class="cls-1" d="M402.65,93.22c1.39-1.76,2.42-3.45,3.82-4.71,1.13-1.01,2.67-1.96,4.12-2.12,1.67-.18,2.89,1.86,3.35,3.94.38,1.72.26,3.17-.66,4.69-.39.66-.39,1.66-.31,2.48.28,2.9-1.04,4.75-4.03,6.16-.11-.89-.39-1.58-.22-2.13.22-.7.75-1.34,1.24-1.92,2.48-2.94,2.31-6.46,2.14-9.95-.05-1.13-1.43-1.78-2.18-1-1.22,1.27-2.86,1.94-3.63,3.95-.88,2.28-2.95,4.1-4.76,6.45-1.56-2.64-2.29-4.69-1.4-7.22.56-1.6.68-3.38.9-5.09.17-1.27.51-2.24,2.26-2.3.13,3-1.89,5.55-.63,8.76Z"/><path class="cls-1" d="M177.39,294c1.59-.8,3.17-1.74,4.86-2.39,1.78-.69,3.39.22,3.28,1.93-.15,2.52-.65,5.02-1.07,7.51-.05.32-.56.56-1.34,1.27-.12-3.21-.22-5.89-.34-9.02-2.91,1.57-3.85,4.2-5.63,6.36-1.91-3.01-1.81-6.71-4.47-9.03-1.33.77-.99,1.57-.39,2.67,1.06,1.93.87,2.4-.92,4.03-1.8-.78-.89-2.5-1.21-3.75-.63-2.41-.66-4.9.08-7.33.49-1.61,1.51-1.88,2.43-.46,1.67,2.58,3.09,5.33,4.72,8.21Z"/><path class="cls-1" d="M363.94,109.74c1.88,1.23,2.15,2.81,1.88,4.06-.71,3.31.73,6.21,1.13,9.87,2.82-1.08,5.3-2.03,7.77-2.98-.39,2.06-.74,3.51-3.14,3.62-3.04.14-4.94,3.13-4.51,6.55.26,2.09-.02,3.99-.82,5.87-1.28.05-1.86-.55-1.76-1.55.22-2.04.59-4.06.91-6.11-.77-1.2-1.76-1.85-3.25-1.43-.89.25-1.96.39-2.17-.74-.25-1.33.93-1.49,1.93-1.66.53-.09,1.05-.24,1.9-.44,0-2.1.09-4.18-.02-6.26-.12-2.28-.48-4.54-.62-6.82-.03-.53.42-1.1.78-1.98Z"/><path class="cls-1" d="M379.28,132.36c-.27-.88-.83-1.74-.73-2.51.62-4.65.09-9.23-.5-13.83-.13-.98.44-2.04.84-3.72,2.78,5.21,1.5,10.39,2.25,15.43,1.47-.72,2.71-1.32,3.95-1.94,3.6-1.81,6.2-.49,6.57,3.59.18,1.99-.25,4.04-.44,6.48-1.37-.31-2.33-.52-3.41-.76,2.28-3.91,2.32-5.2.4-7.56-2.5.2-4.25,1.66-5.53,3.63-.8,1.23-1.7,1.59-3.4,1.19Z"/><path class="cls-1" d="M320.18,240.71c1.22-1.22,2.04-1.35,3.24-.25,2.62,2.41,5.43,4.61,8.15,6.91.32.27.8.59.83.92.22,2.22,2.09,2.76,3.54,3.86,1.89,1.43,3.54,3.2,5.19,4.92,2.53,2.63,4.94,5.37,7.45,8.01.98,1.03,1.49,2.01.59,3.43-2.39-2.19-5.39-3.89-6.75-6.46-2.06-3.91-6.11-5.4-8.65-8.68-2.74-3.54-6.52-6.16-10.11-8.89-1.34-1.02-2.34-2.5-3.49-3.78Z"/><path class="cls-1" d="M287.53,312.89c1.97,3.07,3.6,5.61,5.51,8.6,1.05-2.68,1.4-5.06,3.74-6.25,3.2,2.93,2.27,6.74,2.93,10.66-3.84-1.41-.98-5.19-3.38-6.82-1.13,1.85-1.07,4.61-3.88,5.33-2.33-1.17-1.92-4.87-5.03-5.71-1.28,2.09.24,4.21-.09,6.45-.59.15-1.25.31-2.4.59,1.79-4.2-1.14-8.75,2.59-12.85Z"/><path class="cls-1" d="M300.13,120.68c1.09,2.67-.37,5.12-.84,7.6-.75,3.93,1.85,7.9,5.97,8.27,4.61.42,9.21.88,13.96,1.33-2.07,1.81-2.06,1.75-4.2,1.63-2.05-.12-4.11-.21-6.16-.13-4.7.18-10.99-3.65-12.36-7.93-.44-1.37-.41-3.12.05-4.49.72-2.18,1.97-4.18,3.03-6.24.04-.08.41.02.62.03l-.07-.06Z"/><path class="cls-1" d="M329.14,163.68c-4.25,1.84-4.59,1.78-5.59-1.18,1.93-.37,3.8-.73,5.61-1.07,0-1.95-.08-3.84.06-5.72.03-.46.76-.87,1.17-1.3.42.41,1.13.77,1.21,1.25.25,1.38.26,2.8.39,4.51,2.64.27,5.12.52,7.6.77-1.9,2.23-4.43,1.38-6.72,2.19-1.54,2.73,1.13,6.17-1.15,9.09-2.81-2.3-.78-5.9-2.57-8.52Z"/><path class="cls-1" d="M332.81,312.11c-1,.11-2.02.41-2.99.29-3.7-.43-7.39-.79-11.09-.04-.53.11-1.1.08-1.64.04-4.96-.39-9.91-.41-14.83.48-1.26.23-2.34.07-3.57-1.37.94-.31,1.61-.78,2.13-.65,2.07.52,4.06.69,6.06-.21.19-.09.43-.12.64-.1,5.32.54,10.62-1.29,15.85-.5,2.5.38,4.91.27,7.36.43.68.05,1.35.4,2.02.61.02.34.03.68.05,1.02Z"/><path class="cls-1" d="M346.56,101.95c-.16-1.23-.51-2.47-.44-3.69.12-1.83,1.07-3.67-.37-5.38-.06-.07-.05-.22-.03-.32.39-1.54.78-3.09,1.18-4.63-1.88-1.47-.17-3.24-.37-4.87-.2-1.6-.27-3.27-.04-4.86.1-.7,1.09-1.28,2.19-2.45.24,2.19.53,3.56.5,4.91-.08,4.09.22,8.27-.6,12.22-.59,2.81.56,5.55-.5,8.2-.14.35-.46.63-.69.95-.28-.03-.55-.05-.83-.08Z"/><path class="cls-1" d="M409.44,147.24c.44-.62.95-1.35,1.51-2.14,1.78,1.47,3.29,2.81,4.89,4.02,1.9,1.45,2.42,3.48,2.76,5.68.18,1.16.4,2.44,1.03,3.38,1.68,2.52,1.13,5.22.99,7.91-.01.24-.4.46-.64.72-.29-.25-.7-.42-.76-.67-.61-2.53-1.36-5.05-1.69-7.63-.65-5.02-3.3-8.47-7.72-10.7-.08-.04-.12-.18-.36-.56Z"/><path class="cls-1" d="M231.72,96.48c1.02,2.43-.09,4.01-1.62,5.25-2.58,2.08-4.65,4.87-8.05,5.88-.67.2-1.17.93-1.79,1.44-1.33-.49-2.68-.89-3.91-1.51-.44-.22-.94-1.04-.85-1.47.23-1.08,1.32-.93,1.85-.47,1.99,1.71,3.55.65,5.27-.46,4.25-2.73,4.27-2.7,7.16-7.53.15-.26.44-.46.71-.61.35-.2.74-.32,1.24-.52Z"/><path class="cls-1" d="M339.28,340.2c.25-3.89.46-7.07.68-10.55-1.67.63-3.01,1.14-5.18,1.96.48-1.43.51-2.37.99-2.78.89-.76,1.98-1.41,3.1-1.74.81-.24,1.97-.19,2.67.24.91.56,1.22,1.54.85,2.86-.42,1.48-.21,3.12-.37,4.69-.18,1.79-.12,3.72-2.74,5.34Z"/><path class="cls-1" d="M282.68,172.84c-1.09-.11-2.22-.06-3.25-.36-2.86-.81-2.84-.87-5.78.3-1.56-1.99-3.93-1.76-6.19-1.9-1.49-.09-1.49-.11-2.2-1.85,6.27-1.18,12.04-.23,17.46,3.02-.01.26-.03.53-.04.79Z"/><path class="cls-1" d="M419.16,169.12c1.29,3.09-.02,5.02-1.37,6.82-2.2,2.94-6.49,5.15-10.18,5.12,4.45-3.65,9.15-6.43,11.55-11.94Z"/><path class="cls-1" d="M355.57,137.17c-2.86-.22-3.05-2-3.02-3.59.05-2.67.04-5.3-.64-7.91-.3-1.16.48-2.04,1.52-1.98.57.03,1.4,1.02,1.55,1.69.23,1.09-.11,2.28-.04,3.42.16,2.72.41,5.43.64,8.37Z"/><path class="cls-1" d="M45.88,101.68c3.22-1.33,6.32-2.74,9.8-2.87,1-.04,1.98-.52,2.97-.8.67-.19,1.33-.39,1.99-.59.12.77.23,1.54.33,2.17-5.14,1.71-9.99,2.83-15.09,2.09Z"/><path class="cls-1" d="M275.5,92.03c-1.54-1.22-1.28-2.49-1.54-3.71-.67-3.12-1.76-6.16-2.75-9.21-.32-.99-.32-1.91.84-1.94.66-.02,1.91.76,1.91,1.17-.04,3.03,1,5.83,1.54,8.73.21,1.13.57,2.24.7,3.38.05.43-.38.91-.69,1.58Z"/><path class="cls-1" d="M367.11,328.46c-.12.99-.13,1.61-.27,2.21-.46,1.95-1.65,3.64-1.2,5.93.2,1.01-1.23,2.34-2.03,3.72-1.27-1.51-.63-3.03-.52-4.43.12-1.5.41-3,.76-4.47.34-1.47.74-3,3.27-2.96Z"/><path class="cls-1" d="M162.01,327.58c.62.5,1.46.89,1.81,1.53,1.26,2.35,2.38,4.78,3.51,7.2.33.72.5,1.63-.58,1.8-.45.07-1.22-.4-1.47-.84-1.12-1.97-2.19-3.98-3.12-6.04-.45-1-.55-2.17-.81-3.26.22-.13.44-.26.66-.39Z"/><path class="cls-1" d="M357.9,99.68c-.69-.3-1.44-.42-1.5-.68-.58-2.82-.91-5.69-.17-8.53.23-.89.54-2.25,1.81-1.71.56.24.94,1.6.9,2.43-.09,1.71-.54,3.41-.78,5.11-.13.94-.15,1.9-.26,3.39Z"/><path class="cls-1" d="M377.35,255.74c.86-.15,1.34-.24,1.82-.32,2.63-.46,5.25-.96,7.89-1.37.84-.13,1.88-.24,2.09.96.21,1.2-.66,1.37-1.62,1.49-1.71.21-3.41.49-5.1.82-1.81.35-3.35-.08-5.07-1.58Z"/><path class="cls-1" d="M197.26,295.59c1.42-.4,2.82-1.06,4.25-1.15,5.58-.35,5.58-.28,7.54.83-1.85,1.61-4.13,1.1-6.13,1.1-1.84,0-3.77,1.56-5.59.28-.02-.35-.05-.7-.07-1.06Z"/><path class="cls-1" d="M167.9,330.25c.48-.57,1.01-1.19,1.7-2,1.83,3.37,3.51,6.47,5.29,9.75-2.88.71-2.71-2.17-4.02-3.12-1.27-.92-1.84-2.78-2.97-4.63Z"/><path class="cls-1" d="M368.61,340.18c.25-.57.46-1.18.77-1.72.9-1.59,1.85-3.14,2.77-4.72.7-1.2,1.53-2.06,3.2-1.29-1.54,2.73-2.96,5.37-4.53,7.9-.26.41-1.2.4-1.83.58-.13-.25-.25-.5-.38-.76Z"/><path class="cls-1" d="M196.29,300.61c2.38-.43,4.65-.91,6.95-1.22.5-.07,1.18.36,1.55.77.15.16-.21,1.03-.55,1.33-.47.41-1.17.88-1.73.83-2-.17-3.99-.53-5.98-.88-.13-.02-.17-.54-.25-.83Z"/><path class="cls-1" d="M140.7,302.02c-.62-.4-1.44-.66-1.83-1.22-1.02-1.46-1.8-3.08-2.78-4.57-.9-1.37-.27-1.92,1.1-2.42,1.1,2.01,2.24,3.9,3.17,5.88.33.69.17,1.62.23,2.44,0,0,.11-.1.11-.1Z"/><path class="cls-1" d="M300.2,120.75c.6-2.15.95-4.45,2.88-5.92.52-.4,1.26-.49,2.11-.46-1.08,2.66-1.89,5.42-5.05,6.32,0,0,.07.06.07.06Z"/><path class="cls-1" d="M313.36,235.91c.65-.56,1.09-.94,1.27-1.09,1.3.96,2.4,1.68,3.39,2.52.5.43,1.26,1.35,1.11,1.59-.64,1.12-1.44.41-2.13-.13-1.1-.86-2.2-1.74-3.65-2.89Z"/><path class="cls-1" d="M412.27,307.78c.84-3.19,2.24-4.26,4.47-3.64-1.72,2.87-2.18,3.26-4.47,3.64Z"/><path class="cls-1" d="M357.77,78.76c.52-1.51,1.33-2.37,2.67-1.66.44.24.78,1.71.48,2.12-.99,1.35-2.03.49-3.15-.46Z"/><path class="cls-1" d="M354.42,306.31c1.33-2.13,2.66-.45,3.97-.09-1.29.76-2.57,1.82-3.97.09Z"/><path class="cls-1" d="M160.59,327.15c-.65-.75-1.31-1.49-1.96-2.24,1.71-.19,2.56.43,2.66,1.82-.23.14-.47.28-.7.42Z"/><path class="cls-1" d="M356.41,112.44c-.5-.54-1.15-1.01-1.08-1.2.19-.51.64-1,1.12-1.27.15-.09,1.05.61,1.01.8-.13.53-.58.97-1.05,1.68Z"/></svg>