<?xml version="1.0" encoding="UTF-8"?><svg id="Layer_1" xmlns="http://www.w3.org/2000/svg" viewBox="0 0 494.55 299.95"><defs><style>.cls-1{fill:#ad9f72;stroke-width:0px;}</style></defs><path class="cls-1" d="M7.09,271.64c-1.11,1.42-2.21,2.84-3.77,4.83,2.58-.92,4.56-1.88,6.64-2.3,2.15-.43,4.09-2.32,6.65-1.12-.68,2.68-4.76,1.06-5.17,4.41,4.05-1.74,7.88-3.39,11.77-5.06.96.7,1.14,1.47.04,2.29-.81.61-2.16.82-1.68,2.48.38.05.94.31,1.19.13,2.49-1.73,5.09-3.35,7.32-5.38,1.37-1.25,1.78-3.01,4.28-3.53,3.25-.68,3.91-2.81,4.07-7.67-.7.51-1.36.99-2.54,1.84-.38-5.33-.72-10.1-1.07-14.99,2.57-.21.98,2.44,2.54,2.95,1.2-1.4,1.17-3.17.78-4.77-.91-3.74-1.68-7.47-1.64-11.33.62.43,1.24.85,1.86,1.28.15-.12.3-.25.45-.37-.41-.59-.82-1.19-1.22-1.78-.34.32-.68.63-1.03.95-.57.24-1.28.33-1.68.73-1.12,1.14-2.08,2.43-3.15,3.61-1.15,1.27-2.36,2.5-3.54,3.74-1.2,1.26-2.38,2.54-3.62,3.77-.35.35-.88.51-1.47.84-.88-1.82.17-2.68,1.1-3.79,3.05-3.64,7.16-6.26,9.53-10.62.92-1.7,3.4-2.52,5.09-3.84,2.3-1.8,4.01-3.72,4.29-7.07.29-3.41-.97-6.58-.65-9.49-1.93-1.61-3.52-3.24-5.4-4.41-2.36-1.47-4.97-2.54-7.44-3.83-1.21-.63-2.36-1.36-3.51-2.1-.25-.16-.3-.7-.54-.79-4.72-1.9-6.65-6.77-10.35-9.8-1.74-1.42-2.68-3.92-3.78-6.03-3.17-6.11-5.31-12.52-5.02-19.51.16-3.8.14-7.67.84-11.38.52-2.8,1.95-5.47,3.18-8.1.86-1.86,2.04-3.57,3.14-5.31.26-.42.85-.61,1.19-1,1.42-1.61,2.81-3.25,4.21-4.88.35-.41.64-.88,1.04-1.23,2.6-2.27,5.12-4.65,7.88-6.7,1.86-1.39,4.1-2.27,6.13-3.44,1.11-.64,2.11-1.47,3.24-2.07,3.26-1.72,6.44-3.68,9.88-4.91,1.86-.67,3.48-1.62,5.22-2.43,1.27-.59,2.69-.89,4.06-1.26.52-.14,1.29.07,1.57-.23,2.39-2.54,5.83-2.57,8.78-3.59,3.03-1.05,6.36-1.24,9.54-1.88.72-.15,1.39-.58,2.08-.9,1.48-.67,2.87-1.25,4.65-.78.99.26,2.23-.4,3.35-.65.52-.12,1.03-.37,1.56-.38,3.86-.11,7.73-.18,11.59-.26.11,0,.26-.06.32,0,2.95,2.39,6.18.22,9.24.6.9.11,1.75.59,2.65.74,1.76.31,3.57.39,5.31.77,3.74.81,7.5,1.59,11.16,2.67,2.36.7,4.79,1.58,6.79,2.95,3.14,2.15,6.96,2.14,10.21,3.86,2.08,1.1,4.47,1.6,6.71,2.38,1.32.46,2.53.91,3.65,1.97.92.86,2.63.81,3.91,1.37,1.26.55,2.42,1.33,3.62,2.03.27.16.51.56.75.55,3.32-.06,5.03,2.71,7.5,4.15,1.55.91,3.18,1.7,4.8,2.47,3.52,1.68,7.02,3.4,10.6,4.93,5.18,2.22,9.35,5.84,13.53,9.46.33.29.3,1,.44,1.52-3.67-2.49-7.33-5-11.03-7.44-.88-.58-1.9-.99-2.89-1.37-3.24-1.24-6.87-1.9-9.63-3.82-2.07-1.45-4.12-1.71-6.26-2.11-1.08-.2-2.38.15-3.43.59-1.18.5-2.19,1.4-3.27,2.12.24,2.54,1.46,5.01,3.41,6.65,1.91,1.61,3.92,3.1,5.82,4.72.94.81,1.59,2.01,2.6,2.68,1.41.95,3.04,1.58,4.58,2.33,2,.98,4.12,1.76,6,2.95,5.53,3.49,11.34,6.25,17.65,8.06,2.9.83,5.14.02,7.3-1.65,1.34-1.03,1.41-1.68.21-2.91-1.36-1.39-2.88-2.63-4.27-3.99-2.31-2.27-4.57-4.59-6.85-6.89.64-.03,1.5-.34,1.87-.04,2.44,1.96,4.74,4.09,7.16,6.08,1.92,1.59,4.06,3.09,4.85,5.5.41,1.25.84,2.01,2.4,2.32-1.53,2.05-2.71,3.96-4.76,5.13-1.66.95-2.6,3.12-4.83,3.09-1.36-.02-2.74-.27-4.07-.58-.28-.06-.39-.84-.72-1.61,3.04.35,5.81.71,7.76-2.73-.87.41-1.31.83-1.69.77-3.2-.47-6.5-.65-9.54-1.64-3.85-1.26-7.78-2.63-10.89-5.48-3.5-.07-5.34-3.7-8.75-4.09-.74-.08-1.36-1.03-2.07-1.54-2.53-1.83-5.24-3.47-7.57-5.53-2.51-2.23-4.86-4.71-6.94-7.34-2.35-2.97-1.49-6.03,2.28-7.44,1.45-.54,2.81-1.32,4.48-2.12-3.61-1.71-6.46-4.35-10.39-5.2-2.16-.47-4.21-1.67-6.15-2.82-2-1.18-4.15-1.7-6.33-2.33-2.53-.73-4.88-2.05-7.37-2.98-4.14-1.55-8.29-3.06-12.48-4.45-3.39-1.13-6.81-2.23-10.28-3.03-2.35-.54-4.82-.5-7.24-.74-1.19-.12-2.43-.1-3.55-.44-4.2-1.26-8.46-.65-12.68-.43-3.95.2-7.98.37-11.78,1.33-2.54.64-5.13.72-7.6,1.4-3.82,1.05-7.53,2.49-11.31,3.69-.71.23-1.52.13-2.28.2-1.46.12-2.97.03-3.72,1.76-.19.43-.84.87-1.32.92-3.3.3-5.8,2.72-8.98,3.32-.43.08-.95.15-1.23.42-3.65,3.59-8.9,4.45-12.8,7.6-1.6,1.29-3.24,2.55-4.91,3.75-3.3,2.36-6.65,4.65-9.22,7.84-1.06,1.32-1.56,3.17-2.78,4.26-3.18,2.85-2.93,7.47-5.76,10.44-.19.19-.13.62-.18.94-1.03,6.46-1.21,12.92.48,19.28.78,2.93,2.21,5.68,3.02,8.61.75,2.71,2.55,4.65,4.14,6.78.26.35.71.57.92.93,2.58,4.51,6.76,7.47,10.72,10.5,1.85,1.41,3.97,3.01,6.7,2.91,1.5-.06,2.54.83,3.5,2.06,1.24,1.58,2.39,3.62,5.06,2.86.9,2.62,1.41,4.94,1.19,7.52-.18,2.14.34,4.33.44,6.5.11,2.48.15,4.96.12,7.44-.03,2.65-.04,5.32-.28,7.96-.27,2.99,1.44,5.35,2.31,7.97.18.54.88.92,1.37,1.33,1.17.98,2.49,1.82,3.52,2.93,3.95,4.21,4.64,4.72,10.11,6.59,1.34,2,3.69.93,5.42,1.77,1.86.91,3.78,1.65,5.93,1.2,3.26,2.16,6.87,2.03,10.59,1.94,3.03-.07,6.07.39,9.13.24,1.41-.07,2.85-.04,4.25.14,4.33.57,8.58-.61,12.9-.49,1.37.04,2.82-.88,4.12-.67,3.9.63,7.51-.74,11.21-1.33,3.54-.56,7.01-1.6,10.49-2.5,6.42-1.66,12.37-4.62,18.39-7.26,3.06-1.35,6.44-2.44,9.15-4.76,1.24-1.07,3.09-1.43,5.12-2.32-.47,2.63-2.01,3.89-3.69,4.24-3.07.64-5.07,3.42-8.26,3.73-.42.04-1.1,1.21-1.02,1.76.12.85.79,1.23,1.95,1.11,4.08-.43,8.21-1.02,12.27-.76,5.89.38,10.77-1.71,15.46-4.77-.15.75-.3,1.49-.55,2.83,1.07-.67,1.48-.93,1.85-1.16-.5-.62-.91-1.14-1.33-1.66,1.36-1.93,2.71-3.87,4.09-5.78.73-1.02,2.18-1.65,1.72-3.3-.05-.17.09-.54.21-.57,3.31-.89,3.24-4.4,4.96-6.53,1.68-2.08,2.5-4.83,4.73-6.57.4-3.84,4.52-5.7,5.01-9.67.23-1.88,1.85-3.61,2.98-5.32.36-.55,1.18-.8,1.82-1.21,1.01,2.49-1.01,10.84-4.27,20.09-2.26,6.44-5.52,12.24-10.31,17.95,3.47-.21,6.11.23,8.86-1.43,2.81-1.7,6.19-2.48,9.32-3.65,2.19-.82,4.4-1.61,6.6-2.41,1.14-.42,2.28-.84,3.42-1.26.12.19.24.39.35.58-.4.58-.74,1.62-1.2,1.68-2.87.33-4.82,2.47-7.66,3.66,1.32,1.68,2.58,3.3,3.9,4.99-2.41,2.01-4.78,3.97-7.12,5.96-.32.27-.63.67-.73,1.06-.12.47-.21,1.16.03,1.47.22.28.96.32,1.41.21,2.16-.53,4.31-1.15,6.71-1.81.22.96.42,1.85.66,2.86,6.27,3.14,11.32-.97,16.85-3.58v2.99c1.06.05,2.1.09,3.28.15.92-3.36-.59-5.8-2.68-7.82-.7-.68-1.26-.98-1-2.03.08-.34-.2-1.09-.43-1.13-2.26-.49-2.63-2.61-3.34-4.17-.73-1.6-1.94-2.29-3.27-2.95-1.42-.71-2.94-1.21-4.52-1.84.11-.59.04-1.23.28-1.38,1.45-.91,2.88-2.17,4.47-2.44,3.72-.64,6.1-3.47,9.28-4.92,1.05-.48,2.36-.39,3.65-.18-2.6,2.46-4.96,5.22-8.74,5.41-2.21.11-2.14,2.73-4.3,2.75,2.72,1.57,5.03,2.84,7.29,4.21,4.26,2.58,8.8,4.01,13.81,4.4,2.52.2,4.97.45,7.7.17-2.95-2.41-5.63-4.62-8.33-6.82-.92-.74-.79-1.42.11-2.23,2.32,1.88,4.51,3.93,6.96,5.6,2.49,1.68,5.23,2.98,8.05,4.55.76-.3,1.72-.68,3.1-1.23-.52,2.64,1.13,3.1,2.83,3.67,2.67.89,5.28,1.97,7.93,2.92,1.91.68,3.83,1.69,5.79,1.81,2.49.15,3.87,1.86,5.63,3.03.57.38,1.26,1.39,1.12,1.9-.78,2.82,1.34,4.23,2.77,5.87.8.92,1.6,1.68,1.85,2.95.11.59.62,1.15,1.05,1.63,2.31,2.54,4.79,4.93,6.92,7.61,1.02,1.29,2.02,2.8,1.91,4.75-.1,1.66-.47,3-2.5,4.09-.06-1.32-.08-2.41-.16-3.5-.07-.95.12-2.12-.37-2.79-1.64-2.29-3.56-4.38-5.31-6.59-1.67-2.11-3.21-4.32-4.92-6.4-1.94-2.37-3.23-5.03-4.45-7.84-.65-1.49-3.02-2.28-4.69-3.27-.73-.43-1.64-.59-2.49-.81-3.41-.89-6.85-1.68-10.23-2.66-1.24-.36-2.44-1.03-3.5-1.78-1.25-.89-2.31-.96-3.59-.08-2.32,1.59-4.69,3.11-7.09,4.59-.63.39-1.43.52-2.14.79-1.62.61-3.24,1.22-4.86,1.83-.31.12-.63.38-.91.35-3.67-.41-6.65,1.77-9.98,2.64-1.55.4-3.04.66-4.45-.21-1.41-.87-2.89-.53-4.09.04-2.35,1.13-4.59,1.79-7.09.65-.28-.13-.65-.06-.97-.06q-2.91.05-4.67-2.71c-.64.27-1.33.53-1.99.85-2.21,1.07-4.39-.55-6.61-.14-.15.03-.95-1.52-.76-2.12.31-.98,1.16-1.8,1.83-2.64,1-1.25,1.95-2.56,3.1-3.66,1.06-1.01,2.35-1.78,3.72-2.79-1.78-.99-3.58-2-5.17-2.88-4.91,1.56-9.83,2.72-14.38,4.71-3.58,1.57-7.33,2-10.99,2.72-3.58.71-7.12,1.58-10.7,2.24-3.06.57-6.29.3-9.44.22-3.19-.08-6.37-.4-9.56-.57-.63-.03-1.27.16-1.89.29-1.37.28-2.68.84-4.14.07-.58-.31-1.55-.17-2.24.06-3.28,1.09-6.69,1.68-9.99,2.82-3.41,1.19-6.83,3.11-10.38,3.19-2.9.07-5.49,2.05-8.43,1.02-.09-.03-.24-.02-.32.03-3.59,1.94-7.62,1.14-11.42,1.72-3.87.6-7.91.16-11.87.17-.44,0-.88-.09-1.31-.05-2.34.18-4.68.63-7.04.02-3.79-.97-7.58.8-11.38,0-2.08-.43-4.14-1.1-6.24-1.24-4.59-.31-8.24-3.38-12.68-4.12-1.19-.2-2.29-1.17-3.34-1.93-2.16-1.55-2.27-1.48-4.51.37-.97.8-2.33,1.15-3.75,1.81.12,1.94-1.17,3-2.82,4.08-3.1,2.03-5.98,4.41-8.98,6.61-.59.43-1.36.61-1.99.98-.56.33-1.42.7-1.52,1.18-.97,4.85-5.45,5.19-8.8,6.93-.93.48-2.09.54-3.15.77q-2.43.51-3.65-2.17c-1.14.42-2.35.78-3.48,1.29-2.8,1.25-3.68.72-4.17-2.78-2.68,1.56-5.35,3.29-8.67,1.12,1.43-2.82,3.7-4.42,5.92-6.04.24-.18.83.11,1.26.18,0,0-.08-.08-.08-.08ZM37.84,252.67c.84,1.82-1.51,3.94.49,5.9,1.33-2.2.91-4.08-.49-5.9ZM38.69,241.4c.27-.05.55-.1.82-.15.31-.89.68-1.8-1.21-2.53.17,1.14.28,1.91.39,2.68ZM44.29,260.69c-2.19-1.24-1.89.46-2.3,1.15-.03.05.2.26.37.46.54-.45,1.08-.9,1.93-1.61ZM240.78,246.78c-.88-.84-1.45-1.38-2.31-2.2-.29,1.94.02,2.76,2.31,2.2Z"/><path class="cls-1" d="M143.64,140.62c2.78-.13,4.47,2.03,6.5,3.31,3.13,1.97,5.95,4.45,8.84,6.79,3.92,3.16,8.01,6.09,11.5,9.79,2.49,2.64,5.69,4.49,8.54,6.73,2.87,2.26,5.31,5.08,7.96,7.63.38.37.85.66,1.31.95,3.48,2.23,6.95,4.47,10.44,6.68.44.28.96.48,1.47.61,3.79.97,6.59,3.66,9.75,5.7.59.38,1.21,1.44,1.08,2.03-.11.52-1.21,1.01-1.95,1.17-2.76.6-5.57,1-8.34,1.59-1.16.24-2.26.73-3.39,1.13-1.83.66-3.65,1.34-5.48,2.01-.5.18-1.12.21-1.51.52-2.66,2.13-4.02,2.9-6.61,3.65-.52.15-1.07.31-1.53.59-3.75,2.34-7.48,4.73-11.23,7.08-2.17,1.36-4.4,2.62-6.52,4.04-2.14,1.43-4.15,3.06-6.29,4.49-4.81,3.23-8.96,7.21-13.18,11.13-1.65,1.54-3.66,2.68-5.45,4.08-2.36,1.85-4.56,3.91-6.99,5.65-2.19,1.57-4.53,2.97-6.94,4.18-2.13,1.07-3.62.22-4.35-2.08-.1-.31-.09-.78-.3-.9-2.09-1.26-3.25-3.51-5.06-4.94-2.22-1.74-4.41-3.41-5.95-5.81-.12-.18-.23-.45-.4-.5-5.05-1.63-7.19-6.44-10.73-9.72-.59-.55-1.45-.81-2.39-1.32-.76,1.75-1.33,3.39-2.17,4.89-1.98,3.56-4.15,7.01-6.12,10.58-.66,1.2-.84,2.67-1.44,3.92-.55,1.14-1.22,2.35-2.17,3.11-.48.38-2.03.11-2.54-.41-1.5-1.52-3.03-2.82-5.24-3.05-.32-.03-.73-.13-.91-.35-2.14-2.55-5.2-3.81-7.87-5.62-1.14-.78-2.37-1.42-3.73-2.23-.33.64-.82,1.15-.74,1.53.6,2.63,1.24,5.25,2.02,7.83.66,2.19.69,4.3-.1,6.43-.89,2.4-3.25,3.04-5.19,1.41-.83-.69-1.6-1.65-2.56-1.94-2.37-.73-3.4-2.39-4.18-4.56-1.03-2.87-2.35-5.64-3.51-8.46-.25-.6-.58-1.3-.48-1.89.53-3.17-.61-6.02-1.62-8.9,1.83-.39,2.77.11,2.91,1.68.14,1.57.11,3.15.18,4.73.02.43.06.89.22,1.29,1.74,4.51,3.5,9.01,5.29,13.51.11.27.47.43.86.77.67-.4,1.36-.8,2.27-1.34.79,1.79,1.69,3.39,4.19,3.89-.67-3.78-1.31-7.34-1.92-10.91-.27-1.58-.57-3.16-.68-4.75-.09-1.34,1.08-2.35,2.42-1.91,2.35.77,4.77,1.56,6.87,2.83,4.41,2.66,8.63,5.63,13.01,8.52,1.22-2.63,2.28-4.92,3.21-6.94-1.78-2.86-3.47-5.74-5.33-8.51-1.13-1.69-2.82-3.06-3.71-4.85-1.13-2.28-2.01-4.79-2.41-7.3-.25-1.56-.59-2.9-1.52-4.13-.71-.93-1.71-1.75-1.24-3.15.03-.09-.01-.25-.08-.31-3.41-3.11-3.34-8.47-7.35-11.26-2.17-1.51-1.38-3.96-.95-5.95.38-1.76,1.4-3.41,2.29-5.02.32-.58,1.08-1.22,1.7-1.29,2.23-.25,4.39-1.24,6.75-.51,1.31.41,2.76.32,4.13.55,2.77.47,4.28,2.74,5.59,4.74,1.18,1.8,1.43,4.22,2.03,6.38,1.01,3.64,1.38,7.48,3.6,10.73.96,1.4,1.92,2.03,3.78,1.86,2.57-.23,4.67-.92,6.89-2.42,3.38-2.28,7.36-3.66,10.92-5.72,2.33-1.35,4.4-3.17,6.52-4.86,1.59-1.27,3.07-2.67,4.6-4,1.05-.92,1.01-1.93.69-3.25-.65-2.61-1.39-5.3-1.35-7.94.04-3.01.89-6,1.38-8.96,1.78-.2,2.71.03,2.18,1.68-1.3,4.01-.7,8.17-.92,12.26-.07,1.26.79,2.72,1.58,3.84.61.87,1.64.85,2.51-.15.72-.83,1.66-1.48,2.71-2.4-2.33-2.81-1.74-6.69-2.74-10.17-.06-.2-.06-.44,0-.64,1.42-5.78,1.83-11.79,4.07-17.38.12-.29.39-.52.62-.81,1.91.43,2.18,1.83,1.34,2.92-1.14,1.49-2.02,2.78-1.28,4.73.14.36-.24.99-.5,1.43-1.25,2.07-1.98,4.15-1.64,6.7.43,3.3.35,6.67.58,10.01.06.82.48,1.61.64,2.1,4.18.76,7.37-2.09,11.18-1.8-.09-1.73-.28-3.15-.95-4.72-.93-2.18-.77-4.82-1.04-7.27-.48-4.39,1.49-8.35,2.37-12.48.4-1.85,1.98-3.43,2.94-5.17.4-.71.6-1.53.94-2.44-.96-.58-1.77-1.07-2.72-1.65-1.92,2.29-3.95,4.32-4.67,7.28-.68,2.79-2.3,5.21-3.3,7.88,1.58,2.9-.88,5.68-.29,8.5.59,2.82,1.5,5.56,2.3,8.46-1.74.61-2.83.34-3.17-1.12-.39-1.67-.54-3.4-.74-5.11-.04-.3.35-.71.24-.92-2.11-4.29.89-8.13,1.08-12.23.22-4.75,4.05-8.12,5.28-12.53,1.99-.59,1.03-2.4,1.48-3.61,0,0-.06.06-.06.06ZM207.61,189.77c-2.11-1.26-4.09-2.87-6.36-3.69-4.11-1.48-7.68-3.73-10.97-6.48-4.35-3.64-8.97-6.32-14.97-4.73-.51.13-1.08.04-1.62.02-2.88-.08-5.8-.51-8.44,1.19-.35.22-.85.35-1.25.31-2.23-.24-3.66,1.04-5.09,2.47-.85.84-1.9,1.47-2.84,2.22-1.34,1.07-2.82,2.02-3.97,3.26-1.4,1.51-2.59,3.22-3.74,4.94-.84,1.26-1.98,1.7-3.84,2.3,1.43-2.69,2.25-5.06,3.76-6.84,1.54-1.81,3.65-3.12,4.74-5.58-2.08-.24-3.97-.87-5.71-.58-3.5.59-6.91,1.67-10.35,2.56-.31.08-.78.11-.89.31-1.04,1.9-3.13,1.81-4.76,2.59-.68.33-1.7.33-2.07.84-1.91,2.58-4.9,3.49-7.43,5.09-1.28.81-2.67,1.42-3.31,3.02-.23.57-1.1.94-1.73,1.29-1.66.91-3.85,1.37-4.91,2.73-1.63,2.1-3.98,2.84-6.03,3.47-1.76.54-2.72,1.34-3.71,2.44-2.09.43-4.09,1.05-6.05,1.79-2.85,1.07-5.93-.18-7.62-2.65-3.11-4.53-3.42-9.92-4.77-14.96-.87-3.25-2.63-5.3-5.58-6.09-2.42-.65-5.06-.52-7.6-.68-.27-.02-.56.27-.82.41.13.54.26,1.03.39,1.58-.51.16-.82.24-1.11.35-2.54.92-3.89,3.68-2.62,5.59.64.96,1.43,1.99,2.41,2.52,2.22,1.2,3.7,3.05,5.24,5.06-.51.37-1.02.74-1.5,1.09.28,1.04.46,2.09.85,3.06.86,2.08,1.46,4.45,2.89,6.07,1.15,1.31.73,3.1,2.04,4.13-.69,2.92,1.69,4.85,2.51,7.27.48,1.43,1.39,3.32,2.46,4.15,1.42,1.1,2.07,2.44,2.94,3.78.45.7,1.02,1.31,1.65,2.1.98-.88,2.05-1.43,2.47-2.29,1.17-2.42,2.11-4.95,3.09-7.46,1.29-3.32,4.07-3.96,6.55-1.41,2.06,2.11,3.75,4.71,6.1,6.37,2.46,1.74,3.5,5.12,6.82,5.75.16.03.3.31.41.49,2.29,3.82,6.04,5.94,9.64,8.22.64.41,1.57.57,1.94,1.12.36.54.17,1.44.23,2.36,3.1-.9,4.37-3.66,6.63-5.28-.9-.12-2,.05-2.54-.42-.51-.45-.44-1.57-.65-2.47-1.25-.41-2.64-.86-4.09-1.33.57-1.3,1.21-1.67,2.42-1.43,2,.4,4.06.75,6.09.76,1.67.01,3.46-.15,5.17-1.76-1.76-.11-3.23-.58-4.44-.22-4,1.18-7.7-.49-11.51-.95-1.35-.16-2.59-1.3-3.94-2.03.98-1.5,2-1.56,3-.8,1.79,1.36,3.79,1.51,5.92,1.35.97-.07,2-.05,2.93.2,3.39.91,6.67.01,9.98-.43,4.86-.65,8.24-3.86,11.9-6.72,1.57-1.23,2.33-3.84,5.09-3.44.31.05.73-.74,1.11-1.12.62-.62,1.18-1.34,1.9-1.8,4.59-2.93,9.21-5.81,13.84-8.69.71-.44,1.49-.76,2.24-1.13-.04-1.83.18-3.44.98-4.68,2.46-3.78,5.14-7.42,7.78-11.19,1.79.99,1.63,2.07.8,3.12-1.35,1.69-2.92,3.21-4.18,4.96-1.11,1.53-1.93,3.27-2.84,4.93-.06.11.16.37.28.61,1.78-.91,3.56-1.83,5.43-2.79,1.79-4.57,2.65-5.82,6.19-8.54-.98,2.65-1.73,4.66-2.72,7.33,1.62-.55,2.72-.7,3.55-1.25,2.46-1.66,5.01-2.91,7.98-3.44,2.65-.48,5.22-1.37,8.24-2.19ZM151.14,147.88c-1.22-.49-1.86-.14-2.36.75-2.66,4.8-3.31,10.15-4.21,15.41-.27,1.6-.04,3.29-.04,5.06,2.14-.13,1.87-1.74,1.82-3.06-.16-4.48.74-8.7,3.05-12.55,1.02-1.71,1.8-3.43,1.74-5.61ZM150.63,171.73c1.55-2.96,1.16-3.05,1.75-5.82.74-3.48.71-7.15,2.53-10.42.64-1.15.59-2.72.69-4.11.02-.32-.66-.68-.94-.94-.52,1.11-1.09,2.05-1.42,3.07-.79,2.49-1.97,4.93-2.46,7.4-.65,3.3-.16,6.82-.16,10.82ZM158.5,156.92q2.33-.79,4.34,1.83c.35-2.93-.36-3.77-4.07-4.69-.09.95-.18,1.87-.27,2.87ZM150.88,176.6c-1.01-1.76-1.7-2.96-2.63-4.57q-.63,3.8,2.63,4.57ZM157.91,164.97v-5.36c-1.06,1.56-1.49,3.12,0,5.36ZM156.8,165.88q-1.95,1.94-.54,3.55c.18-1.16.32-2.09.54-3.55ZM158.74,176.64q-2.13-.55-3.28.92c1.35-.38,2.32-.65,3.28-.92Z"/><path class="cls-1" d="M438.65,106.4c.54-2.77,1.4-5.52,1.52-8.3.09-2.04-.91-4.1-1.22-6.18-.41-2.74-2.22-4.8-3.75-6.75-1.52-1.94-4-3.33-6.32-4.4-2.4-1.11-5.07-2-7.81-.62-.34.17-.86,0-1.3-.03-2-.11-4.02-.72-5.99.18-.18.08-.44.02-.65-.03-4.23-.93-8.63-.4-12.86-1.69-2.27-.69-4.79-.3-6.99-1.7-2.25-1.43-4.7-2.54-7.23-3.88.27-1.1.48-1.91.68-2.72,0,0-.06.07-.06.07,2.4.72,4.81,1.44,7.55,2.26-.21-1.21-.18-2.24-.58-3.06-1.76-3.72-2.25-7.43-.62-11.36.62-1.51.32-2.95-1.43-3.78-.48-.23-1-.86-1.08-1.37-.57-3.53-1.05-7.08-1.49-10.63-.04-.3.47-.95.68-.93.45.03,1.18.32,1.27.65.31,1.14.45,2.33.56,3.51.16,1.73.15,3.47.38,5.19.1.74.61,1.42.99,2.25.46-.43.7-.55.76-.73.77-2.36-.34-5.3,2.21-7.1-.2-2.86,1.49-4.85,3.11-6.9,3.82-4.85,8.52-8.67,13.71-11.96,1.07-.68,2.43-1.53,2.77-2.58,1.01-3.12,3.67-5.28,4.58-8.39.34-1.16,1.18-1.33,2.01-.84.24.15.15,1.41-.19,1.87-.95,1.27-1.53,2.58-1.59,3.86,1.98-.79,3.93-1.39,5.7-2.32,1.85-.97,3.54-2.26,5.3-3.4.17-.11.43-.09.63-.17,2.32-.86,4.69-1.63,6.95-2.62,2.06-.9,3.87-2.47,6.4-1.76.38.11.91-.43,1.4-.6,2.79-.95,5.66-1.38,8.6-1.38.05,0,.1.18.27.53-1.24,1.36-2.64,2.37-4.72,2.41-2.55.06-5.25-.37-7.34,1.83-.36.38-1.2.34-1.84.41-2.35.25-4.53.8-5.81,3.12.28.15.55.41.85.44,2.69.25,4.94,1.57,7.19,2.91,1.71,1.02,1.83,1.48.83,3.29-2.97-1.76-5.93-3.53-9.53-3.9-.84-.09-1.57-1.38-2.46-2.23-1.88.73-4.39,1.1-6,2.52-1.78,1.56-3.68,2.57-5.73,3.52-.97.45-1.81,1.17-2.68,1.82-1.03.76-1.96,2.11-3.05,2.24-2.42.29-3.25,1.87-4.2,3.85.95.24,1.77.5,2.61.64,1.81.29,3.65.46,5.46.75,3.92.63,7.85,1.2,11.73,1.99,1.8.37,3.53,1.12,5.23,1.86.41.18.55.97,1,1.84-.94,0-1.56.19-1.96-.03-3.91-2.17-8.34-2.34-12.56-3.17-3.94-.78-8-.88-11.98-1.48-1.74-.26-3.18-.28-4.46,1.12-1.29,1.41-2.78,2.64-4.09,4.04-.94,1-1.83,2.08-2.57,3.24-.82,1.27-1.44,2.66-2.15,4.01-.29.55-.84,1.14-.79,1.66.25,2.69-1.76,4.94-1.12,7.81.42,1.88-.49,4.01-.52,6.04-.04,2.53.22,5.06.37,7.98,1.46-1.26,2.73-2,3.47-3.1.75-1.11,1.61-1.64,2.81-1.97.58-.16,1.16-.53,1.6-.94,1.47-1.4,3.34-1.82,5.21-2.3.59-.15,1.22-.3,1.71-.63,1.53-1.06,3.08-1.59,4.88-.67.37.19.87.32,1.27.24,3.41-.64,6.81-1.36,10.23-1.98,1.49-.27,3-.37,4.51-.55l-.06-.11c-1.05,1.96-2.25,2.97-4.86,3.4-5.18.85-10.38.6-15.51,1.27-1.71.23-3.33,1.23-4.96,1.96-.68.3-1.22.93-1.91,1.2-3.11,1.23-4.16,4.44-6.8,6.1.16.21.32.41.48.62,4.41-.97,8.81-2.03,13.25-2.86,2.54-.47,5.14-.62,7.72-.79,3.77-.25,7.55-.58,11.32-.52,3.01.05,6.03.5,9,1.07,2.42.46,4.82,1.17,7.11,2.08,2.68,1.07,5.46,2.17,7.77,3.85,2.01,1.46,3.43,3.73,5.09,5.65.21.24.34.79.51.79,2.8,0,2.36,3.31,4.3,4.16.17.08.38.33.38.5-.03,4.03,3.43,7.21,2.67,11.47-.23,1.28.28,2.79.75,4.09.7,1.95.51,3.84.31,5.81-.17,1.68.19,3.41.08,5.1-.09,1.36-.53,2.7-.82,4.05-.25,1.17-.8,2.36-.72,3.51.11,1.68-.89,2.52-2.31,3.47-.04-1.44-.5-3.03-.04-4.28,1.42-3.88,1.5-7.85,1.43-11.88-.03-1.51.07-3.03.11-4.55,0-.22.09-.49,0-.65-1.92-2.98-.95-6.54-2.01-9.78-1.76-5.38-4.71-9.53-9.26-12.75-1.01-.71-1.56-2.09-2.59-2.77-4.95-3.27-10.66-4.46-16.33-5.75-.92-.21-1.79-.8-2.71-.86-1.7-.11-3.42.02-5.13.11-.61.03-1.52.57-1.76.34-1.21-1.2-2.46-.12-3.54-.29-4.18-.67-7.95,2.03-12.07,1.11-.2-.04-.48-.03-.63.08-2.63,1.78-5.69,1.42-8.61,1.82-1.02.14-2.17.54-1.86,1.76.18.7,1.18,1.55,1.92,1.68,3.53.6,7.09,1.17,10.66,1.38,3.34.2,6.71-.09,10.07-.07,2.47.01,4.99-.13,7.38.34,1.81.36,3.82,1.21,5.1,2.49,2.87,2.85,5.96,5.69,6.73,10.02.15.83.53,1.62.88,2.4,2.04,4.51.73,8.65-1.43,12.66-.2.38-.94.47-1.43.69,0,0,.07.08.07.08ZM394.96,73.58c-.2.23-.4.46-.6.68.44.32.87.65,1.33.94.02.01.36-.39.34-.43-.33-.42-.7-.8-1.07-1.19Z"/><path class="cls-1" d="M384.97,236.82c1.03.17,1.66.46,2.17.32,2.26-.63,4.51-1.33,6.72-2.13,1.2-.44,1.26-.54,3.89.34-.41.42-.68.9-1.07,1.08-2.98,1.34-6.02,2.46-9.33,2.69-2.17.15-2.97-.3-4.32-2.86.93-1.2,1.77-2.61,2.91-3.71,3.02-2.92,6.51-5.19,10.5-6.58,2.62-.91,3.52-2.17,3.35-4.75-.07-1.07,0-2.16.11-3.22.23-2.21.52-4.41.83-6.97-2.94.61-5.53,1.42-8.16,1.61-3.38.24-6.78.86-10.22.14-1.8-.38-3.75-.66-5.53-.36-2.88.48-5.02-1.14-7.33-2.13-2.57-1.1-2.45-1.31-3.9.93-.26.4-.72.74-1.16.95-1.48.68-2.94,1.47-4.5,1.89-3.97,1.07-7.96,2.09-11.99,2.87-1.69.33-2.8.89-3.4,2.53-.38,1.05-3.99,4.59-5.04,5.48-.72.61-1.39,1.42-1.76,2.27-1.31,3.09-3.32,5.24-7.07,5.7.53,2.49.09,5.07,1.74,7.42.79,1.12.48,2.96,1.06,4.3,1.54,3.54,3.04,7.09,4.07,10.82.09.31.4.67.32.9-.91,2.5.94,4.37,1.42,6.54.51,2.31.41,4.8,1.99,6.8.19.24.32.64.27.92-.48,2.68.97,4.85,1.78,7.21.37,1.08.36,2.34.26,3.49-.04.42-.83.77-1.28,1.15-.31-.4-.81-.76-.91-1.21-.92-4.42-1.54-8.92-2.76-13.25-.64-2.27-1.9-4.4-2.28-6.8-.12-.73-.12-1.49-.19-2.23-.04-.5.05-1.1-.19-1.47-1.64-2.43-2.14-5.17-2.54-8.01-.37-2.67-.99-5.29-2.44-7.71-1.13-1.88-1.99-4.04-2.4-6.19-.52-2.72-1.57-5.07-3.21-7.21-.46-.59-.97-1.16-1.53-1.65-2.86-2.5-5.77-4.95-8.6-7.49-.37-.33-.34-1.1-.21-1.85,6.49,3.13,11.43,7.85,15.1,14.42,3.25-2.97,6.19-5.61,9.06-8.32.6-.57.97-1.39,1.41-2.11.51-.84.79-1.94,1.5-2.5,2.6-2.03,3.33-5.27,5.25-7.68,1.92-2.41,3.48-4.95,4.52-7.86.55-1.53,1.36-2.97,2.11-4.42.41-.8.96-1.51,2.26-.9-.06,2-.44,3.94-1.59,5.72-.75,1.16-1.77,2.31-2.03,3.6-.58,2.81-2.9,4.25-4.65,6.46.74.54,1.37,1,2,1.46.28-.37.52-.56.5-.7-.2-1.27.2-2.11,1.12-3.16,1.38-1.58,2.3-3.61,3.24-5.53.8-1.64,1.31-3.42,2.01-5.11.13-.32.59-.51,1.12-.95,1.2,2.42-.39,4.11-.94,5.92-.59,1.94-1.33,3.84-2,5.76.21.11.43.23.64.34,2.01-2.91,4.01-5.82,6.21-9,1.39.97,2.79,2.05,4.29,2.95,1.53.92,3.12,1.78,4.76,2.46,2.57,1.06,5.21,1.96,7.84,2.88.6.21,1.26.42,1.88.37,4.62-.38,9.27-.64,13.86-1.29,4.56-.64,8.97-2.04,13.33-3.51.31-.1.66-.47.88-.39.55.2,1.03.58,1.54.89-.35.45-.61,1.13-1.07,1.31-2.2.85-4.46,1.56-6.19,2.14-.16,2.04-.28,3.58-.41,5.13-.1,1.19-.52,2.43-.29,3.54.55,2.71-.99,4.22-2.54,6.09-1.88,2.26-4.13,3.53-6.75,4.61-1.52.63-2.8,1.93-4.1,3.03-1.22,1.03-2.32,2.19-3.96,3.76ZM365.46,207.55c-.96-.78-1.9-1.56-3.23-2.64-1.06,2.48-1.91,4.48-2.85,6.71q3.89-1.47,6.08-4.07Z"/><path class="cls-1" d="M408.51,174.32v-2.81c2.39,1.12,3.99-.44,5.72-1.61,3.65-2.46,6.25-5.98,9.13-9.2.61-.69.56-1.97.68-2.45,2.64-3.13,5.02-5.95,7.39-8.76.11.07.21.15.32.22-.69,1.52-1.38,3.04-2.22,4.89,3.02.45,5.01-.36,6.38-2.66,1.15-1.94,3.16-3.45,2.88-6.51-2.4.21-4.84.42-7.28.64-.07-.29-.15-.57-.22-.86,1.77-.76,3.47-1.77,5.31-2.22,1.76-.43,3.12-1.2,4.35-2.48.65-.68,1.62-1.63,2.35-1.56,3.85.4,4.56-2.34,5.17-5,.63-2.73.92-5.55,1.4-8.32.1-.61.39-1.18.8-2.39.7.91,1.42,1.41,1.42,1.91-.01,1.62-.29,3.24-.45,4.86-.15,1.49-.77,3.14-.33,4.43.73,2.13.02,3.61-1.29,4.94-1,1.01-1.8,1.9-1.2,3.41.07.19.08.48-.02.64-1.76,2.96-2.42,6.56-5.16,8.95-.14.13-.39.14-.84.28-.84-2.36.47-4.03,1.52-5.87.99-1.74,1.62-3.68,2.56-5.87-4.27,1.21-4.93,4.76-6.41,7.62-.5.96-.6,2.35-1.35,2.92-1.29.97.18,2.69-1.43,3.57-1.16.63-1.99,1.94-2.85,3.04-.5.63-.76,1.44-1.26,2.42,2.88.1,4.09-2.04,5.85-3.16,1.18-.75,2.34-1.54,3.42-2.42,1.07-.88,1.99-1.93,3.02-2.85,1.7-1.52,3.62-2.83,5.11-4.53,1.69-1.92,3.03-4.15,4.49-6.26.24-.34.56-.99.42-1.18-1.74-2.32.04-4.65.12-6.91.08-2.24,1.03-4.59,1.67-6.84.96-3.4.63-7.16.8-10.76.03-.63-.4-1.37-.19-1.88.65-1.54.43-2.95.02-4.49-.21-.8.15-1.75.27-2.8,2.87.95,1.97,3.22,2.13,4.63.32,2.87-.07,5.83-.25,8.75-.32,5.39-.34,10.83-3,15.79-.16.29.03.77.58,1.32,1.77-4.11,3.53-8.23,5.55-12.93,1.1,2.18.88,3.72.24,5.05-2.87,6-5.5,12.09-9.56,17.53-2.37,3.18-5.56,5.38-8.03,8.36-.91,1.09-2.63,1.45-3.81,2.37-1.87,1.46-3.85,2.7-5.4,4.68-1.26,1.62-3.54,2.43-5.33,3.67-1.48,1.03-2.63,2.45-4.69,2.67-1.2.13-2.32,1.07-3.45,1.71-4.36,2.45-9.43,3.83-15.05,4.31ZM420.43,168.16c3.1.4,3.08.38,4.81-1.76.54-.68,1.25-1.22,1.81-1.88,2.23-2.58,4.44-5.18,6.64-7.76-1.17.2-2.3.58-3.42.55-1.36-.04-2.29.41-3.05,1.48-2.24,3.13-4.51,6.24-6.79,9.38Z"/><path class="cls-1" d="M294.75,193.88c-2.17-.14-4.27-.45-6.43-.98-2.63-.64-5.69-.6-8.61,1.09-2.19,1.27-3.88,2.98-5.82,4.43-.68.51-1.56,1.92-1.34,2.27,1.31,2.06-.16,3.45-1.13,4.66-4.17,5.22-4.4,10.78-1.95,16.73.45,1.1.61,2.34,1.17,3.37.53.98,1.39,1.79,2.13,2.66.73.86,1.43,1.77,2.26,2.53,1.9,1.74,3.88,3.39,5.41,4.73,2.1.18,3.81.1,5.37.54,1.58.45,2.88.32,4.43-.19,4.93-1.63,9.3-4.06,13.31-7.39,1.82-1.51,1.57-3.53,2.41-5.25.42-.85.62-1.8.94-2.77,3.49,2.44,3.74,4.21,1.47,11,1.37-1.33,2.33-2.25,3.31-3.19,1.26,2.27,1.05,3.3-.8,4.24-.77.39-1.97.5-2.3,1.1-1.49,2.79-3.91,4.49-6.54,5.9-3.88,2.08-7.81,4.07-12.5,2.78-1.49-.41-3.13-.32-4.6-.78-1.38-.43-2.44-1.83-4.14-1.28-2.9-2.41-7.18-3.18-8.71-7.25-.15-.38-.52-.72-.85-.99-3.59-2.87-4.61-6.95-5.31-11.19-.07-.43-.06-.96-.31-1.26-1.86-2.22-.75-5.08-1.64-7.51-.17-.46-.08-1.18.18-1.6,1.34-2.13,2.52-4.29,2.66-6.87,2.8-2.6,4.18-6.46,7.56-8.54,1.71-1.06,3.34-2.31,5.16-3.11,1.86-.81,3.94-1.73,5.87-1.62,3.26.17,6.84,0,9.32,2.87.15.17-.03.63-.06.95,0,0,.07-.06.07-.06Z"/><path class="cls-1" d="M430.56,184.67c-.73.2-.84.26-.93.25-4.57-.7-9.24-1.02-13.67-2.23-5.33-1.45-9.69-4.71-12.88-9.35-.84-1.22-1.42-2.73-3.25-3.08-.93,2.96-1.62,5.97-2.84,8.75-.84,1.91-2.34,3.56-3.68,5.22-1.53,1.89-3.5,3.29-5.72,4.28-2.56,1.15-5.17,2.21-7.78,3.26-2.3.92-4.64.73-6.93-.02-3.02-1-4.16-3.64-5.29-6.25-2.36-5.45-2.24-11.11-1.43-16.83.15-1.08.38-2.17.38-3.26,0-2.85.98-4.91,3.16-7.06,1.65-1.63,3.09-3.41,5.11-4.71,1.16-.75,2.14-1.33,3.57-1.04,1.9.39,3.89.46,5.74,1,6.05,1.76,11.45,4.88,14.6,10.38,1.65,2.89,4.22,4.84,5.86,7.64.88,1.49,2.32,2.68,3.61,3.9,1.34,1.26,2.74,2.46,4.23,3.54.87.63,1.91,1.15,2.94,1.4,2.33.55,4.71.9,7.07,1.32,1.92.34,3.88.52,5.76,1.01.73.19,1.3,1.02,2.35,1.9ZM371.31,183.94c.32,2.68,2.54,2.58,3.96,3.18,1.75.74,3.99,1.46,5.68.98,3.08-.87,6.13-2.08,8.82-4.11,4.03-3.04,6.08-7.29,7.34-11.85.85-3.08-.27-6.32-1.57-9.21-.53-1.18-1.89-2.04-2.99-2.9-.93-.72-2.06-1.18-3.03-1.85-2.12-1.47-4.73-2.27-6.99-2.03-2.14.23-4.7.22-6.64,1.99-.91.83-4.06,3.24-5.11,4.97,1.41-.44,2.51-.77,3.61-1.13,1.18-.39,2.27-.57,3.12.87-1.22.57-2.23,1.29-3.33,1.49-2.12.39-3.78,1.47-4.35,3.39-.52,1.76-1.73,3.47-1,5.56.61,1.75,1.06,3.59,1.34,5.42.18,1.18.37,2,1.62,2.53,1.24.52,2,1.57,1.69,3.24-.76-.19-1.36-.34-2.17-.54Z"/><path class="cls-1" d="M296.81,80.37v-1.72c-2.53.09-4.68-.07-6.73.29-3.71.65-7.35,1.65-11.04,2.44-2.21.47-4.45.83-6.67,1.24-.31.06-.78-.01-.92.17-1.73,2.27-4.42,2.1-6.79,2.72-1.44.38-2.73.73-3.97,1.83-1.01.9-2.87.76-4.25,1.33-4.18,1.76-8.61,3-12.3,5.8-2.8-.4-4.01,2.15-5.98,3.27-1.95,1.11-3.67,2.61-5.57,3.82-1.7,1.08-3.67,1.77-5.21,3.02-1.65,1.34-3.23,2.79-4.82,4.2-2.78,2.47-4.97,5.58-8.32,7.46-.43.24-.65.87-.99,1.29-2.25,2.79-4.14,5.89-7.1,8.07-.39.29-.55.89-.86,1.32-1.19,1.67-2.14,3.53-4.24,4.36-.53.21-.92.84-1.32,1.32-1.26,1.5-2.53,2.99-3.73,4.54-.95,1.23-1.91,1.16-3.08.31.14-.44.15-.89.35-1,3.3-1.85,5.26-4.83,7.1-8.01.73-1.27,2.11-2.16,3.12-3.29,1.16-1.29,2.26-2.63,3.38-3.96,1.53-1.83,2.98-3.74,4.6-5.49,1.9-2.05,3.84-4.08,5.96-5.89,2.95-2.53,6.35-4.58,9.04-7.34,3.25-3.33,7.77-4.65,11.06-7.8.42-.4,1.2-.44,1.83-.61.42-.11,1.14-.03,1.25-.25.98-2.15,3.31-2.1,4.98-3.05,2.33-1.34,4.95-2.16,7.45-3.19.69-.28,1.52-.37,2.08-.8,3-2.35,6.7-2.95,10.16-4.08,3.86-1.25,7.78-2.39,11.74-3.29,4.81-1.09,9.68-1.88,14.53-2.8.32-.06.71-.24.97-.13,2.72,1.14,5.48-.61,8.2.14.3.08.75.14.95-.02,2.53-2.03,5.76-1.46,8.62-2.21,2.97-.78,6.03-2.16,9.35-1.19,1.24.36,1.85.87,2.03,2.14.34,2.35-.84,5.45-3.11,6.25-3.04,1.08-5.65,3.26-9.03,3.42-1.74.08-3.48.25-5.22.39-1.19.1-2.38.21-3.57.35-1.95.23-3.87.6-4.84-1.9-.26-.68-1.18-1.11-2.23-2.05,1.36-.64,2.29-1.07,3.22-1.51.9.5,2.25.78,2.62,1.54,1.27,2.6,3.54,1.72,5.41,1.7,2.04-.02,4.06-.73,6.12-.97,3.71-.43,6.3-2.5,8.42-5.14-.22-2.28-1.73-2.31-3.16-2.14-2.03.25-4.06.64-6.05,1.11-2.81.67-5.82,1.05-8.31,2.37-1.71.9-3.36,1.29-5.13,1.61Z"/><path class="cls-1" d="M386.72,70.28c-.4-.09-1.16-.18-1.16-.27.03-2.21-3.31-2.68-2.66-5.18-3.65-4.17-2.69-9.32-3.08-14.21-.5-6.18,1.69-11.47,4.76-16.66,2.44-4.12,5.41-7.79,8.31-11.54.58-.75,1.44-1.29,2.17-1.93.57-.51,1.34-.92,1.67-1.56,1.78-3.51,5.07-5.11,8.29-6.87,2.19-1.19,4.25-2.6,6.4-3.87,1.95-1.16,3.94-2.05,6.24-2.56,2.9-.64,5.66-2.04,8.4-3.3,2.45-1.13,4.87-1.65,7.5-.8.34.11.82-.03,1.19-.18,1.41-.59,4.23-.84,5.71-.77,2.45.1,4.9-.02,7.35-.02,1.24,0,2.64-.31,3.69.15,4.14,1.81,9.21.73,12.79,4.19.36.34.99.51,1.52.55,2.67.2,4.57,1.8,6.55,3.35,2.28,1.79,5,3.13,6.94,5.21,2.83,3.04,7.09,4.68,8.71,8.94.31.82,1.41,1.33,2.06,2.05,1.43,1.59,2.81,3.22,4.5,5.18-1.13.56-1.75.87-2.37,1.17l.08.09c-2.01-2.74-3.3-5.99-5.96-8.26-.97-.83-2.08-1.51-2.94-2.43-4.04-4.33-8.5-8.09-13.69-11-6.17-3.45-12.92-5.27-19.59-7.35-.72-.22-1.7-.51-2.25-.2-2.9,1.6-5.93-.21-8.95.56-2.25.57-4.72.08-7.17.87-2.02.66-4.12,1.15-6.19,1.79-2.06.64-4.51-.15-6.25,1.94-.38.46-1.57.15-2.28.44-1.07.44-2,1.4-3.08,1.58-1.64.28-2.79,1.06-3.92,2.17-1.68,1.64-3.89,2.64-5.81,3.87-3.05,1.95-5.84,3.94-7.93,6.89-.57.8-1.15,1.59-1.78,2.34-2.41,2.88-4.85,5.74-7.25,8.62-.2.24-.24.6-.36.9-.76,1.9-1.35,3.9-2.32,5.68-3.35,6.12-2.93,12.62-1.46,18.97.78,3.36,1.56,6.92,3.56,9.95.24.37.03,1.04.03,1.57l.06-.07Z"/><path class="cls-1" d="M105.12,162.66c.47,1.24.05,2.05-1.07,2.46-1.23-.64-2.38-1.25-3.54-1.86l.12.11c-.97-1.15-1.85-2.39-2.93-3.42-.95-.91-2.07-.59-2.4.76-.29,1.18-1.35,2.08-.88,3.63.29.97-.52,2.26-.84,3.43-1.65.12-1.79-.8-1.58-1.86.44-2.23.97-4.45,1.42-6.68.37-1.85-.33-3.66-1.87-4.4-3.98-1.93-6.43-5.38-9.12-8.68-3.28-4.02-6.46-8.2-11.13-11.31-.62.83-1.31,1.42-1.6,2.16-1.73,4.49-3.98,8.76-6.75,12.64-1.71,2.39-4.19,4.49-6.78,5.89-1.56.84-4.01.27-6.01-.01-2.48-.34-4.92-.99-7.35-1.62-.92-.24-1.74-.8-2.63-1.16-1.29-.52-2.56-1.21-3.91-1.45-3.25-.58-5,1.08-5.24,4.36-.14,1.94-.73,3.83-1.07,5.76-.25,1.47-.52,2.96-.6,4.45-.12,2.28-2.34,4-4.43,3.29-2.34-.79-4.68-1.61-7.56-2.6.73,2.1,1.29,3.86,1.94,5.58,1.46,3.84,4.11,6.75,6.95,9.66,1.55,1.59,3.03,3.28,4.69,4.78.91.83.87,1.67-.03,2.71-2.95-.49-4.16-3.02-5.78-5.08-.67-.84-1.37-1.66-2.1-2.45-4.15-4.5-7.19-9.51-7.37-15.84-.06-2.02,0-4.05,0-6.07,2.1-.13,3.37.52,3.72,2.91.39,2.62,2.29,3.34,4.07,4.25,1.77.91,3.33.05,3.7-1.86.82-4.23,1.87-8.39,3.34-12.44.36-1,.26-2.19,1.61-2.61,2-.62,4.09-2.33,6.04-.87,1.37,1.03,2.74,1.17,4.19,1.55.53.14,1.14.27,1.51.63,2.53,2.41,5.95,1.99,8.89,2.3,2.32.25,5.22-.93,6.87-3.19,1.59-2.17,2.72-4.69,4.31-6.86,2.59-3.56,3.53-8.14,7.06-11.32,2.51,1.1,4.69,2.45,6.44,4.71,1.9,2.45,4.32,4.4,5.72,7.38.78,1.67,3.14,2.56,3.59,4.76,2.62.47,3.63,2.92,5.37,4.46,1.49,1.32,2.63-.02,4.15-.2-.01,2.93,1.45,4.53,4.03,5.65,1.83.79,3.3,2.42,4.93,3.67l-.09-.09Z"/><path class="cls-1" d="M151.49,35.45c.25.33.92.81.85,1.16-.6,3.48,1.87,5.94,2.85,8.88.42,1.24,1.38,1.95,2.76,1.81,1.03-.1,1.65.54,1.33,1.28-.22.52-1.47,1.1-2,.91-3.03-1.11-5.45-2.97-6.18-6.65-1.05,1.45-1.91,2.59-2.72,3.77-1.9,2.8-5.06,3.41-7.87,4.65-.99.44-2.05.77-2.96,1.34-2.53,1.58-4.77.7-6.98-.66-.36-.22-.86-.57-.9-.9-.2-1.83-.49-3.68-.33-5.5.18-2.12,1.01-4.19,1.17-6.3.2-2.57,2.01-4.18,3.15-6.19.2-.36.63-.59.97-.86,1.5-1.17,3.16-1.39,4.19-.58,1.25.98,1.55,2.84.73,4.62-.63,1.36-1.14,2.81-1.94,4.06-1.83,2.86-2.73,3.39-6.06,4.03.04.71.15,1.45.11,2.18-.03.74-.2,1.47-.3,2.18,4.15,2.71,6.67,2.57,10.25-.68.59-.54,1.09-1.43,1.2-2.22.45-3.45,2.41-6.27,3.72-9.35.74-1.73,2.14-2.77,3.81-3.38.66-.24,1.53.08,2.31.14-.34.67-.69,1.33-1.17,2.27ZM137.52,34.23c-2.76-.59-2.79,2.1-3.97,3.18-.91.84-1.36,2.53.13,3.79,3.01-1.39,3.9-3.83,3.83-6.97ZM149.7,37.5c-3.88,3.6-4.56,5.24-3.14,7.89.35-2.97,3.56-4.36,3.14-7.89Z"/><path class="cls-1" d="M237.44,168.22c-.58,1.9-1.14,3.38-3.18,3.52-1.77,2.57-5.12,2.39-7.26,4.03-3.31,2.53-7.22,2.59-11.13,3.83,3.54,3.69,8.47,2.7,12.6,4,.02,1.52-.94,1.95-1.93,1.84-2.92-.34-5.82-.81-8.71-1.34-.58-.11-1.21-.6-1.59-1.09-2.43-3.14-5.52-4.5-9.43-3.54-.74-1.38-.74-2.29.91-2.47,4.68-.52,5.9-4.28,7.49-7.6,1.44-.25,2.97-.43,4.46-.8,3.15-.8,6.24-1.87,9.42-2.52,3.03-.62,5.68.71,8.34,2.14ZM228.24,173.83c1.97-1.49,4.78-1.9,6.27-5.03h-7.63c.43,1.59.83,3.08,1.36,5.03ZM213.21,177.51c2.52-.39,4.53-.7,7.01-1.08-5.09-2.97-5.67-2.9-7.01,1.08Z"/><path class="cls-1" d="M298.08,213.25c-.42,2.33-.72,4.13-1.06,5.93-.67,3.52-5.02,6.01-8.45,5.13-4.87-1.26-6.1-5.31-7.5-9.27-.2-.57.2-1.33.05-1.93-1.15-4.47,2.43-6.98,6.62-6.87.32,0,.84-.08.94.09,1.37,2.18,4.12,1.72,5.83,3.08,1.41,1.12,2.49,2.66,3.58,3.85ZM295.14,212.96l-.69-.17c-.38,3.55-2.86,5.87-4.98,8.57.63.22,1.27.58,1.39.46,1.33-1.42,2.87-2.75,3.74-4.43.64-1.23.39-2.93.54-4.42Z"/><path class="cls-1" d="M208.48,30.53c1.22-.33,1.19.64,1.33,1.33.88,4.56,1.74,9.13,2.59,13.69.04.21.04.44.02.65-.46,6.02.16,12.11-1.27,18.07-.68,2.83-3.84,6.12-6.68,6.23-1.13.04-2.79-.61-3.34-1.5-1.6-2.57-2.61-5.45-2.04-8.62.22-1.23.37-2.48.58-3.89,1.77.94,1.49,2.4,1.38,3.94-.2,2.9.02,5.7,2.84,7.21,3.76-.21,4.2-3.51,5.84-5.6.21-.27.13-.85.05-1.26-.39-1.84-.06-3.56.35-5.38.47-2.07.43-4.29.33-6.43-.07-1.59-1.01-3.14-.09-4.77.08-.14-.04-.42-.12-.62-.71-1.86-1.44-3.71-2.17-5.6-1.04,1.59-2.12,3.25-3.21,4.91-1.09,1.66-2.2,2.09-3.77,1.49-1.68-.64-2.43-1.66-2.14-3.59.52-3.41,1.73-6.59,3.63-9.5,1.15-1.76,2.63-2.98,4.94-2.98.32.73.66,1.47.97,2.21-.83-.24-1.65-.46-2.14-.6-3.98,3.44-4.36,7.89-4.71,12.75,2.09-1.4,3.05-3.43,4-5.27.75-1.44.62-3.31,1.14-4.91.25-.77,1.11-1.34,1.69-2Z"/><path class="cls-1" d="M78.44,68.45c2.75,1.44,2.01,5.71,5.82,6.07.95-1.75,2.7-2.99,2.21-5.48-.15-.76,1.05-1.77,1.54-2.54,0-3.47-.3-6.86.1-10.17.27-2.26-1.12-4.41-.12-6.67.12-.27-.87-1.02-1.41-1.62-.93,1.52-1.54,2.96-2.55,4.03-.97,1.04-2.34,1.7-3.69,2.63-1.91-2.25-3.12-4.15-2.14-7.01.58-1.68.46-3.6.66-5.42.01-.11,0-.22.03-.33.35-1.53,4.25-5.09,5.82-5.23.73-.07,1.7-.23,1.71.93.01,1.11-.84,1.06-1.65.99-.31-.03-.63.05-.76.06-2.84,3.72-3.69,7.9-3.75,12.79.87-.48,1.77-.69,2.18-1.26,1.51-2.13,3.19-4.2,3.18-7.06,0-.57.66-1.15,1.02-1.72.58.42,1.56.76,1.67,1.27.42,2.08,1.74,3.89,1.21,6.31-.36,1.61.15,3.57.75,5.21,1.41,3.85.53,7.52-.35,11.25-.19.81-.38,1.67-.32,2.49.22,3.08-2.71,8.07-5.48,9.16-1.19.47-3.54-.3-4.43-1.46-1.93-2.52-2.04-3.12-1.25-7.21Z"/><path class="cls-1" d="M300.59,21.9c2.24-1.93,3.94-3.58,5.82-4.97,1.74-1.28,3.47-2.87,6.3-1.93-3.25,2.56-6.49,5.12-9.67,7.63-.06,3.89,3.29,5.63,4.55,8.55,1.21,2.8,3.55,5.12,5.31,7.54-.9,1.49-1.84,1.76-2.56.71-1.42-2.09-3.74-3.65-4-6.46-.02-.2-.12-.54-.24-.57-2.9-.65-2.33-4.33-4.75-5.44-.48-.22-.67-1.06-1.19-1.96-.6,1.76-1.25,3.2-1.56,4.7-.32,1.56-.32,3.19-.48,4.95-1.73-.24-2.27-1.18-2.1-2.72.45-4.26.82-8.5,1.9-12.69.64-2.51.32-5.28.98-7.78.69-2.6.9-5.13.62-7.74-.14-1.38-.01-2.63,1.43-3.71.47.53,1.26,1.02,1.32,1.58.14,1.36-.02,2.75-.17,4.12-.11,1.03-.44,2.04-.58,3.07-.22,1.6-.39,3.22-.52,4.83-.06.76-.13,1.58.09,2.28.5,1.58.68,2.96-.95,4.03-.12.08.17.78.45,1.99Z"/><path class="cls-1" d="M115.66,35.59c-1.98,2.61-4.97,4.3-5.4,7.72-3.11,2.03-.81,5.94-3.09,7.94-1.19.56-2.66.85-3.51,1.74-3.64,3.82-6.24,2.23-8.49-1.6-1.51-2.56-2.19-5.33-1.09-8.37.47-1.3.23-2.86.65-4.19.34-1.08,1-2.19,1.83-2.95,1.37-1.24,3.01-.92,3.74.79.57,1.35,1.14,3.09.77,4.39-.76,2.71-.57,6.15-4.15,7.25q.01,2.37,2.48,4.25c.81-.58,1.6-1.33,2.53-1.75.95-.43,2.04-.53,3.55-.89.1-2.37.19-4.96.32-7.54.07-1.42-.56-3.16,2.29-2.66.98.17,2.44-1.6,3.46-2.69,1.11-1.19,2.17-2.04,4.12-1.45ZM99.26,39.17c-2.83.98-3.38,2.81-2.09,6.31.81-2.45,1.45-4.38,2.09-6.31Z"/><path class="cls-1" d="M253.01,25.79c.84,2.96,1.85,5.48,2.23,8.09.39,2.69.58,5.34,2.13,7.7.45.69.48,1.65.71,2.49-1.83.43-3.28-.04-3.24-1.33.06-1.79-.95-2.95-1.51-4.4-.87-2.26-1.09-4.78-1.61-7.18-.12-.57-.38-1.1-.75-2.14-3.09,4.36-1.11,9.7-4.27,14.11-.79-2.92-.82-5.23.13-7.43.56-1.3.37-2.39.26-3.71-.17-2.09.5-4.25.77-6.38.12-.94.34-1.96.12-2.84-.78-3.23.49-6.21.54-9.32.24-.08.48-.15.72-.23.39.49,1.11.96,1.13,1.46.11,2.92.05,5.84.05,8.83,1.25.25,2.19-.33,3.1-1.43,1.02-1.25,2.26-2.33,3.51-3.36.3-.24,1.03.06,1.79.13-2.18,2.6-4.1,4.9-5.82,6.95Z"/><path class="cls-1" d="M438.58,106.31c-.03.98-.11,1.96-.08,2.94.08,2.24-1.21,3.33-3.12,4.08-2.89,1.13-5.75,2.38-8.61,3.58-.2.08-.4.28-.59.27-2.52-.12-4.55,1.24-6.75,2.15-2.85,1.18-5.84,1.77-8.95,1.69-.85-.02-1.71.31-2.57.42-.6.08-1.28.22-1.82.03-4.91-1.69-10.23-2.54-14.04-6.58-2.56-.16-3.24-3.4-5.83-3.57-.25-.02-.46-.66-.81-1.19.46-.26.92-.71,1.13-.61,1.86.86,3.69,1.79,5.5,2.76.86.46,1.66,1.02,2.46,1.58,1.29.9,2.55,1.83,4.2,3.02,1.82.54,4.15,1.66,6.56,1.86,3.74.31,7.56.43,11.27-.69,4.03-1.21,7.96-2.67,11.79-4.42,1.24-.56,2.33-1.54,3.98-1.06.51.15,1.37-.88,1.93-1.27,0-.93-.25-1.82.06-2.39.4-.72,1.2-1.3,1.95-1.72.72-.41,1.6-.54,2.4-.8,0,0-.07-.09-.07-.09Z"/><path class="cls-1" d="M399.05,235.04c1.55,1.61,2.8,2.9,4.04,4.2,1.08,1.13,3.19,1.24,4.41.07,1.24-1.21,2.33-2.57,3.54-3.82,1.73-1.78,3.38-1.51,3.95.93.43,1.85,1.94,1.55,2.97,2.05,1.02.49,2.31.42,2.92.51,3.16-2.03,6.01-3.77,8.76-5.65,2.73-1.86,5.41-3.81,8.02-5.84,1.36-1.06,2.47-2.44,3.81-3.54.8-.66,1.76-1.3,3.51-.64-1.51,1.69-2.66,3.36-4.17,4.57-2.46,1.96-5.48,3.31-7.67,5.51-1.91,1.91-4.54,2.54-6.36,4.52-.88.96-2.39,1.47-3.71,1.85-1.95.56-3.97.99-5.98,1.18-2.42.23-2.39-3-4.76-3.51-.94,1.07-2.12,2.19-3.02,3.49-1.06,1.52-2.38,1.74-4.02,1.4-2.78-.58-6.14-3.61-6.59-6.02-.03-.19.11-.4.37-1.26Z"/><path class="cls-1" d="M369.49,102.51c-4.33-2-7.01-5.45-11.06-6.98-1.95-.74-3.54-2.43-5.29-3.68-2.79-2-5.42-4.3-8.42-5.91-2.71-1.45-5.87-2.03-8.74-3.22-4.42-1.84-8.89-3.41-13.88-3.6.2-2.13,1.65-2.32,2.82-1.93,1.87.63,3.73.74,5.65.71.4,0,.82.22,1.21.39,3.67,1.58,7.32,3.2,11.01,4.75,1.17.49,2.48.69,3.62,1.23,1.03.48,1.94,1.24,2.89,1.88,1.89,1.28,3.81,2.53,5.67,3.86,3.51,2.49,7.01,5.01,10.49,7.53,1.44,1.04,3.53,1.27,4.21,3.23.16.47-.09,1.09-.17,1.75Z"/><path class="cls-1" d="M160.16,40.85c.85-.74,1.3-1.18,1.79-1.54,1.51-1.1,1.97-2.75,1.56-4.35-.63-2.43-.53-4.66.17-7.05.37-1.26-.1-2.78-.21-4.17-.09-1.14-.5-2.36.97-3.3,2.12,2.34,1.1,5.02,1.25,7.49.14,2.43.34,4.86.54,7.77,1.58-.36,3.32-.67,5.01-1.17,2.08-.62,4.1-1.43,6.28-.22v14.06c-2.08.42-2.6.09-2.46-1.49.22-2.41.56-4.83.58-7.25.01-1.28-.55-2.56-.94-4.22-2.54.95-4.7,1.91-6.95,2.56-1.84.53-2.13,1.71-1.87,3.25.32,1.97-.13,3.63-1.59,5.02-1.81-1.52-.72-4.82-4.13-5.37Z"/><path class="cls-1" d="M105.21,162.75c-.11-1.11.12-1.98,1.46-2.05,1.17-.06,2.35-.05,3.52-.14.63-.05,1.35-.09,1.85-.42,3.17-2.09,6.47-4.05,9.37-6.47,2.12-1.77,3.7-4.18,5.51-6.32,1.23-1.44,2.14-3.02,2.91-4.8.72-1.67,2.41-2.9,3.58-4.41,1.21-1.56,2.53-2.87,4.86-3.31-.06,1.04-.1,1.84-.15,2.82.98.3,2,.82,3.04.87,1.5.07,1.98,1.03,2.48,2.11,0,0,.07-.06.07-.07-2.97,1.08-5.7-.3-8.26-.94-1.14,1.31-2.2,2.35-3.05,3.54-1.24,1.74-2.2,3.71-3.54,5.36-1.6,1.98-3.46,3.75-5.26,5.55-.43.43-1.37.53-1.57.99-1.8,4.24-6.1,5.22-9.54,7.23-1.15.67-2.94.26-4.44.32-.98.04-1.96.02-2.94.03,0,0,.09.1.09.1Z"/><path class="cls-1" d="M279.6,20.88c2.08-.94,3.62-1.67,5.19-2.32,1.83-.76,3-.4,3.58,1.53.82,2.72,1.69,5.49.53,8.42-.45,1.14-.33,2.5-.61,3.72-.29,1.24-.75,2.44-1.18,3.78-3.18-2.4-.38-5.08-.9-7.53-.5-2.38-.11-4.94-.11-7.59-.44,0-1.13-.22-1.48.03-3.37,2.47-7.39,4.43-6.77,9.8.16,1.39-.6,2.94-1.14,4.34-.18.46-.99.68-1.65,1.1-1.58-2.17-1.8-4.24-.64-6.48,1.32-2.56,2.88-4.99,2.64-8.13-.09-1.17.62-2.44,1.13-3.59.14-.3.9-.44,1.37-.43.18,0,.49.65.48,1-.01.64-.22,1.28-.43,2.34Z"/><path class="cls-1" d="M206.74,146.47c2.59-.27,4.53-.48,6.46-.68.53-.05,1.08.02,1.59-.11,4.06-.99,7.98-.7,11.89.81,1.46.56,3.16.52,4.67.99,1.83.57,3.68,1.21,5.32,2.17,1.66.97,2.78,3.05,5.23,2.14.18-.07.52.35.8.51,3.29,1.84,6.51,3.74,8.69,7,.58.86.89,1.67.11,2.3-.87.7-1.43.07-2.02-.79-.9-1.3-2.05-2.44-3.22-3.53-.69-.64-1.58-1.09-2.43-1.54-.37-.2-.94-.07-1.25-.31-4.11-3.2-9.05-4.58-13.9-5.88-4.01-1.08-8.08-2.39-12.46-1.74-2.61.39-5.33.09-8.01,0-.33,0-.64-.56-1.47-1.36Z"/><path class="cls-1" d="M257.02,103.71c-4.48-1.23-5.95-3.47-5.32-7.49,1.57-1.24,2.8-2.16,3.97-3.15,1.94-1.65,3.9-3.21,6.65-3.08.54.03,1.23.14,1.62-.12,2.4-1.66,4.75-.46,7.18-.15,1.94.25,2.46,1.57,2.48,2.89.01,1-.71,2.52-1.53,2.91-2.41,1.15-4.4,2.91-7.21,3.6-2.8.69-5.21,2.97-7.84,4.59ZM271.39,92.85c0-.32.02-.64.03-.96-.69-.36-1.42-1.08-2.08-1.02-2.46.25-4.91.65-7.32,1.21-1.53.35-3.17.64-3.87,2.56-.23.62-1.35,1.02-2.15,1.31-2.32.86-2.65,1.36-1.83,3.16.9,1.97,1.57,2.12,3.81,1.1,1.38-.63,2.84-1.06,4.26-1.61.59-.22,1.19-.44,1.72-.77,1.27-.8,2.5-1.66,3.74-2.5,1.23-.83,2.45-1.66,3.68-2.5Z"/><path class="cls-1" d="M306,287.88c-.85,2.96-1.5,5.23-2.34,8.17,1.89-.5,3.28-.54,4.26-1.19,2.02-1.34,4.55-1.22,6.54-2.66,1.17-.84,2.76-1.08,4.03-1.81,1.5-.85,2.7-.59,3.79.57,1.31,1.4,2.31,3.36,3.91,4.16,2.03,1.03,3.74,3.52,6.79,2.25.14-1.76.28-3.62.46-5.87,2.21-1.58,3.31-1.41,4.45,1.27-1.83.56-3.46,1.03-2.97,3.82.43,2.45-1.94,3.63-4.54,3.29-3.61-.47-5.44-3.16-7.64-5.43-.81-.83-1.49-1.79-1.85-2.23-2.57.84-4.7,1.48-6.78,2.23-1.2.43-2.34,1.04-3.5,1.59-1.17.55-2.28,1.36-3.52,1.65-2.97.7-4.99-1.07-4.62-4.11.21-1.69.87-3.35,1.51-4.96.14-.35,1.02-.4,2.04-.76Z"/><path class="cls-1" d="M185.23,25.84c0,1.11.26,2.3-.06,3.3-.5,1.57.1,2.48,1.14,3.34.29-.07.52-.06.67-.16,4.23-2.88,6.73-2.17,7.95,2.63.69,2.7.74,5.57,1.04,8.37.03.27-.23.57-.41.98-1.84.05-2.44-1-2.58-2.62-.2-2.17-.38-4.35-.76-6.5-.39-2.17-1.33-2.38-3.14-1.05-1.7,1.25-2.49,3.03-3.03,4.93-.54,1.87-.83,3.81-1.31,5.7-.12.48-.47.99-.86,1.31-.89.71-2.14.24-2.21-.89-.06-1.07.18-2.16.32-3.24.54-4.38,1.09-8.76,1.65-13.14.13-1.01.32-2.01.49-3.01l1.1.04Z"/><path class="cls-1" d="M431.26,227.1c-.31-.52-.63-1.04-1-1.66,3.46-2.8,5.39-6.45,6.86-10.41.38-1.02.92-1.98,1.42-2.94,2-3.86,2.93-7.97,2.39-12.26-.28-2.23-.94-4.52-1.95-6.5-.8-1.56-2.42-2.69-3.66-4.02-1.31-1.39-2.61-2.8-4.3-4.61,2.86-.22,4.65.85,5.72,2.28,2.27,3.01,4.11,6.34,6.11,9.54.23.36.51.78.52,1.17.06,2.48.05,4.95.04,7.43,0,.32-.05.68-.2.96-1.69,3.01-1.67,6.78-4.22,9.41-.15.15-.32.4-.29.57.46,2.9-1.67,4.45-3.25,6.29-.35.4-.66.86-.88,1.35-.96,2.09-.94,2.09-3.31,3.41Z"/><path class="cls-1" d="M492.19,31.38c-.62,2.86-.93,3.16-3.31,2.22-2.65-1.05-5.36-1.85-8.19-2.07-3.4-.26-6.65.14-9.47,2.44-.87.71-2.12.93-3.17,1.44-.76.36-1.55.73-2.19,1.25-2.21,1.79-4.53,3.31-7.3,4.16-.91.28-1.74,1.18-2.34,2-1.43,1.96-2.78,3.93-5.61,3.74l.1.06c-.13-.71-.63-1.8-.34-2.07,1.4-1.3,2.88-2.65,4.58-3.45,1.18-.56,2.05-1.26,3.06-2.01,2.59-1.92,4.92-4.38,8.33-5.02.65-.12,1.33-.61,1.8-1.11,2.65-2.81,6.36-3.02,9.73-4.04.46-.14,1.06.15,1.59.24,4.27.76,8.54,1.52,12.81,2.29l-.08-.09Z"/><path class="cls-1" d="M233.48,127.08c-2.51,2.2-5.7,1.49-8.59,1.57-2.59.07-3.74-2.64-5.53-4.1-.33-.27.05-1.64.34-2.41.38-.99,1.08-1.84,1.53-2.81,2.05-4.44,5.41-7.42,10-9.03,1.83-.64,3.7.52,3.57,2.47-.23,3.48.81,7.1-1.43,10.42-.57.85.04,2.5.11,3.9ZM231.72,112.62c-2.39.48-4.44,1.15-5.73,3.12-1.34,2.07-2.61,4.18-4.18,6.71.58,2.09,2,3.64,4.97,4,3.13.38,3.28.7,4.36-2.14.75-1.97.83-4.19,1.37-6.25.49-1.89.36-3.62-.8-5.44Z"/><path class="cls-1" d="M60.91,50.87c-.18-.99-.57-1.99-.49-2.96.29-3.41.77-6.81,1.13-10.22.05-.49-.21-1-.29-1.51-.13-.82-.22-1.64-.35-2.7,3.32,1.01,1.16,3.36,1.67,5.13,2.3-1.16,4.44-2.25,6.69-3.39,2.51,2.64,3.21,5.4,2.6,8.62-.26,1.37-.2,2.8-.35,4.19-.13,1.17-.35,2.32-.54,3.56-2.11-1.28-2.77-2.96-1.73-5.15.68-1.43,1.01-2.52-.06-3.9-.37-.48,0-1.47-.11-2.21-.09-.56-.3-1.47-.63-1.55-.49-.13-1.26.2-1.68.58-.46.41-.66,1.11-.96,1.69-.7,1.33-1.5,2.62-2.04,4.01-.49,1.26-.65,2.65-1.02,3.96-.18.66-.5,1.27-.76,1.91-.36-.02-.72-.04-1.08-.06Z"/><path class="cls-1" d="M40.3,36.12v11.84c2.67-.39,4.88-.71,7.22-1.04.9,1.52-.08,2.2-1.27,2.6-1.21.41-2.53.51-3.74.92-.85.29-1.59.86-1.91,1.04.37,2.95.68,5.37.93,7.79.01.13-.49.32-1.17.75-.23-1.1-.43-1.96-.59-2.83-.6-3.24-1.89-6.54-1.57-9.69.3-3.07-.69-5.87-.41-8.77-.87-.33-1.63-.62-2.5-.95.64-2.23,2.09-3.31,4.01-3.57,2.77-.38,5.57-.51,8.36-.7.38-.03.77.23,1.64.52-3.14,1.87-6.2,2-8.99,2.1Z"/><path class="cls-1" d="M239.17,16.89c1.35,2,.52,2.99-.83,3.83-1.57.98-3.13,1.96-4.81,3.01.11,2.84.65,5.42,3.41,6.87,1.57.82,2.1,1.99,2,3.73-.12,2.09-.29,4.06-2.08,5.48-1.18.94-3.27,1.14-4.49.4-1.6-.98-2.07-2.48-1.4-4.82,1.51.9,1.64,3.66,4.34,3.04.4-.68,1.07-1.47,1.33-2.37.23-.78.3-1.88-.09-2.5-1.04-1.65-2.32-3.17-3.61-4.64-2.65-3.03-2.93-4.85-.22-7.6,1.74-1.77,4.14-2.89,6.44-4.44Z"/><path class="cls-1" d="M294.68,193.94c2.19-.83,4.04-.32,5.64,1.36,1.85,1.95,3.73,3.88,5.61,5.8,1.52,1.56.67,3.55.73,5.27.04,1.21-.04,1.97,1.08,2.68.69.43,1.04,1.37,1.65,1.96,1.29,1.25,2.6,2.51,4.01,3.62.99.78,1.64,1.46.33,2.98-1.38-1.28-2.74-2.55-4.11-3.8-.56-.51-1.06-1.17-1.73-1.46-2.74-1.19-3.79-3.68-5.3-6.18.91-.5,1.6-.87,2.33-1.27-1.46-2.08-2.82-4.01-4.2-5.93-.12-.16-.35-.32-.54-.33-2.14-.21-3.17-1.67-4.05-3.41-.28-.55-.91-.92-1.4-1.36-.01.01-.08.07-.08.07Z"/><path class="cls-1" d="M45.76,157.34c.7,1.01,1.35,1.52,1.35,2.03,0,2.05-.2,4.1-.35,6.15-.07.96-.52,2.05-.21,2.85,1.22,3.11.21,6.55,1.28,9.5,1.02,2.79.6,5.95,2.58,8.52.81,1.04.64,2.83,1.04,4.93-1.03-.59-1.63-.72-1.78-1.06-1.57-3.49-3.88-6.66-3.35-10.94.25-2.02-1.03-4.17-1.21-6.3-.43-4.98-.87-9.99.64-15.67Z"/><path class="cls-1" d="M100.51,163.26c.48,1.2.95,2.4,1.53,3.85-2.77,2.27-1.92,5.76-1.97,8.89-.06,3.96.34,7.93.77,11.88.16,1.47.95,2.86,1.4,4.31.29.92.61,1.91-.86,2.74-.68-1.78-1.59-3.4-1.9-5.13-.54-2.93-.7-5.93-1.03-8.89-.48-4.24-.88-8.46,0-12.72.3-1.45.05-3.01.05-4.82.7,0,1.42,0,2.14,0,0,0-.12-.11-.12-.11Z"/><path class="cls-1" d="M60.21,189.39c-1.73-2.1-2.31-4.69-2.56-7.36-.35-3.68-.18-7.46-.91-11.06-.66-3.29.14-6.45-.12-9.67-.03-.35.34-.74.52-1.1,1.19.02,1.77.58,1.72,1.6-.07,1.4-.4,2.8-.38,4.19.06,6.48,1.1,12.85,2.13,19.23.21,1.32.26,2.66.38,4-.26.05-.52.1-.78.15Z"/><path class="cls-1" d="M7.17,271.72c-.36-1.83.97-3.19,1.91-4.15,2.3-2.36,4.48-4.62,5.53-7.88.39-1.22,2.29-2.07,2.46-3.24.44-3.01,2.37-5.11,3.81-7.51.33-.55,1.02-.89,1.97-1.67.07,1.18.34,1.9.1,2.33-1.33,2.34-2.83,4.57-4.18,6.9-.63,1.09-1.17,2.27-1.49,3.48-.31,1.18-.39,2.38-1.77,2.89-.26.1-.55.41-.61.67-.94,4.32-4.49,6.09-7.82,8.08,0,0,.09.09.09.09Z"/><path class="cls-1" d="M450.61,46.56c.63.98.65,1.86-.46,2.5-2.42,1.39-4.85,2.77-7.28,4.14-1.59.9-2.72,2.86-5.12,1.95-.4-.15-1.31.97-1.94,1.55-1.56,1.44-3.19,1.72-4.95.37,0,0,.06.11.06.11-.08-1.39.41-2.37,1.92-2.49,2.96-.24,5.42-1.97,8.24-2.74,2.25-.61,4.15-2.65,6.11-4.17,1.08-.84,2.1-1.53,3.53-1.15l-.1-.06Z"/><path class="cls-1" d="M266.64,159.24c0-3.13.09-5.62-.04-8.1-.07-1.25-.34-2.59-.88-3.71-1.41-2.92-3.03-5.74-4.53-8.61-.65-1.23-1.23-2.5-2.09-4.27,1.64.4,2.82.25,3.1,1.88.09.5.45,1.01.81,1.39,2.48,2.63,3.47,5.85,4.37,9.28.63,2.39,1.26,4.76,1.47,7.21.14,1.67.19,3.41-2.2,4.93Z"/><path class="cls-1" d="M448,128.94c-3.2,2.39-5.54,5.26-9.48,5.85-1.15.17-2.09,1.49-3.21,2.16-1.35.8-2.8,1.44-4.18,2.2-.8.44-1.54.97-2.31,1.46-1.3-1.67-1.28-1.75.22-2.39.78-.33,1.54-.71,2.26-1.16,3.4-2.09,6.76-4.23,10.16-6.31,1.55-.95,3.13-1.88,4.77-2.66.31-.15.97.44,1.77.85Z"/><path class="cls-1" d="M341.14,169.62c-.5-.93-1.22-1.73-1.05-2.03,1.58-2.85.8-6.02.93-8.93.12-2.73,1.16-5.02,1.82-7.45.38-1.43,1.78-2.65,4.05-2.95-.24.92-.2,1.8-.6,2.16-2.87,2.51-3.42,5.78-3.3,9.31.09,2.66.64,5.36-.49,7.94-.24.55-.69,1.02-1.35,1.97Z"/><path class="cls-1" d="M338.23,292.95c2.15-.82,3.74.52,5.37.36,1.77-.18,3.76.52,5.38-1.05-.22-1.71-1.01-3.06-2.38-4.06-1.26-.92-1.26-1.85-.17-2.95,1.44,1.41,3.04,2.56,4.03,4.1.67,1.04.46,2.64.64,3.92-2.56,1.22-4.37,3.18-7.2,2.65-2.08-.39-3.75-1.41-5.66-2.97Z"/><path class="cls-1" d="M272.69,155.04c0-3.49.08-6.99-.02-10.48-.11-3.44-1.75-6.76-1.24-10.72,3.75,3.84,4.72,17.01,1.27,21.2Z"/><path class="cls-1" d="M266.82,35.68c-1.89-.07-1.98-1.03-1.9-2.09.24-3.51.46-7.01.01-10.54-.07-.56.88-1.37,1.52-1.85.29-.22,1.29-.08,1.42.17.3.59.53,1.44.33,2.04-.88,2.63-1.03,5.29-.91,8.03.06,1.37-.3,2.75-.48,4.25Z"/><path class="cls-1" d="M71.01,226.96c-.21-.44-.64-.9-.6-1.31.22-2.03.65-4.03.86-6.06.2-1.93.26-3.78-1.1-5.56-.72-.94-2.27-1.84-1.6-3.81,1.69.74,3.1,1.45,4.06,2.99.9,1.44,1.28,2.68.73,4.52-.88,2.94-1.09,6.08-1.59,9.14-.25.03-.51.06-.76.09Z"/><path class="cls-1" d="M181.17,157.7c1.51,1.19,2.84,2.06,3.95,3.17,1.92,1.92,3.92,3.52,6.71,4.1,1.35.28,2.54,1.3,4.34,2.27-1.07.46-1.63.94-1.92.8-4.02-1.81-8.34-3.08-11.69-6.14-.78-.71-1.43-1.6-1.98-2.51-.15-.26.29-.87.59-1.69Z"/><path class="cls-1" d="M312.01,192c3.15,2.77,2.53,6.09,2.27,8.88-.21,2.27.58,5.16-1.85,7.31-.39-.68-.86-1.13-.77-1.38,1.71-4.7-.74-9.58.34-14.81Z"/><path class="cls-1" d="M324.86,198.82c-1.77-1.45-2.74-3.36-3.39-5.52-.59-1.97-1.31-3.89-2.01-5.93,1.43-1.44,1.72-1.46,2.68-.05.06.09.16.17.18.27.99,3.72,3.16,7.18,2.46,11.26l.07-.03Z"/><path class="cls-1" d="M302.89,180.34c4.89,1.79,6.85,5.76,9.35,9.15.26.35-.04,1.1-.13,2.41-1.46-1.59-2.44-2.68-3.45-3.75-.8-.85-1.51-1.92-2.49-2.45-2.07-1.11-2.41-3.02-3.28-5.36Z"/><path class="cls-1" d="M338.4,165.28c-1.47.38-2.16-.02-2.27-1.08-.14-1.41-.2-2.84-.2-4.26,0-1.69.74-3.31,0-5.11-.54-1.31.73-2.06,1.92-2.77.19,4.59.37,8.93.55,13.22Z"/><path class="cls-1" d="M408.02,152.02c.5-2.06,1.09-4.1,1.45-6.18.23-1.31,1.27-2.42.58-4.02-.29-.67.63-1.87,1.01-2.83.24.04.48.07.72.11,0,.88.1,1.77-.03,2.63-.15,1.04-.13,1.99-.04,3.05.18,2.03-.46,4.18-1.04,6.2-.18.62-1.26.99-1.93,1.47-.24-.14-.49-.29-.73-.43Z"/><path class="cls-1" d="M404.19,143.66c.43,2.52.24,5.14-.51,7.53-.59,1.86-.26,4.5-2.86,5.39-.21-.27-.48-.51-.44-.58,1.8-3.35.64-7.29,2.14-10.7.27-.61.59-1.2.89-1.8.26.05.52.11.78.16Z"/><path class="cls-1" d="M115.32,185.71c-.68-3.03-1.49-6.03-1.96-9.09-.12-.77.83-1.71,1.29-2.57.23.05.47.11.7.16.12.67.18,1.35.36,2,.58,2-.1,4.17,1.08,6.16.46.77-.18,2.19-.31,3.31-.39.01-.77.02-1.16.03Z"/><path class="cls-1" d="M55.7,44.6c1.12.5,1.5,1.59,1.01,2.44-1.14,1.94-1.04,3.96-.99,6.05.02.65-.4,1.36-.77,1.95-.09.14-1.03.04-1.14-.17-.36-.72-.96-1.8-.67-2.27.92-1.56.65-3.12.66-4.75,0-1.32-.18-3.01,1.9-3.24Z"/><path class="cls-1" d="M417.33,153.28c-.41-.56-.69-.8-.64-.89,1.11-2.18,1.62-4.56,2.25-6.9.14-.53.18-1.1.38-1.61.21-.52.57-.97.87-1.45.46.51,1.16.96,1.31,1.55.13.52-.34,1.2-.55,1.81-.7,2.05-1.34,4.13-2.13,6.15-.2.51-.89.82-1.49,1.35Z"/><path class="cls-1" d="M83.54,154.47c1.38,3.49-.2,6.94-.12,10.44-2.18-3.46-1.86-6.93.12-10.44Z"/><path class="cls-1" d="M77.01,119.74c-1.94-.71-3.88,1.71-5.82-.15-.11-1.39.77-1.76,1.81-1.95,1.16-.21,2.34-.6,3.47-.48.45.05.78,1.24,1.16,1.91-.2.22-.41.44-.61.66Z"/><path class="cls-1" d="M93.77,168.32v6.81c-1.72.18-2.42-1.48-2.07-1.92,1.12-1.39-.71-3.78,2.07-4.89Z"/><path class="cls-1" d="M268.08,8.33c1.37-1.82,2.47-2.34,3.33-1.53.34.32.5,1.2.32,1.65-.47,1.15-1.48,1.11-3.65-.13Z"/><path class="cls-1" d="M179.21,18.96c-.22,1.04-.42,1.99-.62,2.95-2.32-.74-2.74-1.18-2.21-2.54.66-1.69,1.69-1.17,2.83-.42Z"/><path class="cls-1" d="M324.79,198.85c.23,1.42.47,2.83.73,4.43-2.67-1.16-2.76-2.53-.66-4.46,0,0-.07.03-.07.03Z"/><path class="cls-1" d="M54.21,34.93c-.44-.41-.99-.77-.94-.9.16-.42.55-.75.85-1.11.28.28.74.53.78.83.03.3-.36.66-.69,1.18Z"/><path class="cls-1" d="M174.11,137.59c.84-.08,1.69.07,2.3-.25,1.96-1.03,3.55-1,4.75,1.08.1.18.31.38.49.41,3.24.42,5.23,2.93,7.79,4.48,2.11,1.28,3.81,2.86,5.49,4.51,2.09,2.05,4.78,2.97,7.21,4.4,1.22.72,2.5,1.41,3.49,2.38.46.45.68,1.85.34,2.25-.51.61-1.99,1.27-2.4.98-2.85-2.04-6.34-2.62-9.32-4.29-2.77-1.55-5.87-2.45-8.33-4.65-.98-.88-2.69-.89-3.8-1.68-2.49-1.77-4.72-3.9-7.24-5.64-1.56-1.08-1.5-2.21-.78-3.98Z"/><path class="cls-1" d="M135.31,204.29c2.25-3.44,4.4-6.91,6.77-10.21.62-.87,1.19-2.57,3.18-1.65.23,1.7-.83,3.02-1.78,4.2-1.6,1.99-3.51,3.72-5.19,5.66-.46.53-.44,1.44-.84,2.05-.65.99-1.45,1.34-2.14-.05Z"/><path class="cls-1" d="M87.94,212.97c-2.18-.77-3.19-1.92-4.11-3.31-1.29-1.97-2.77-3.82-4.19-5.7-.67-.89-.59-1.57.41-2.11,3.22,3.05,6.41,6.1,7.89,11.12Z"/><path class="cls-1" d="M391.26,170.92c-.2.36-.45.82-.72,1.26-1.34,2.2-2.96,4.14-5.31,5.34-.78.39-1.7.55-2.39,1.05-1.19.87-2.26,1.23-3.5.14-1.29-1.13-2.2-2.4-1.96-4.22.11-.83.31-1.67.24-2.48-.22-2.77,1.99-4.7,2.44-7.24.06-.35,1.4-.9,1.61-.73,1.64,1.42,3.82.02,5.5,1.2.77.54,2.14.56,2.54,1.23.76,1.27,1.03,2.83,1.56,4.45ZM384.56,172.44c1.3-.89,1.85-1.8,1.42-3.39-1.54.76-2.18,1.63-1.42,3.39Z"/></svg>