<svg width="1476" height="944" viewBox="0 0 1476 944" fill="none" xmlns="http://www.w3.org/2000/svg">
<path opacity="0.149" d="M52.68 764.523C81.6749 764.523 105.18 742.049 105.18 714.327C105.18 686.605 81.6749 664.132 52.68 664.132C23.685 664.132 0.179993 686.605 0.179993 714.327C0.179993 742.049 23.685 764.523 52.68 764.523Z" fill="#B73C94"/>
<path opacity="0.0509804" d="M1328.64 249.117C1363.43 249.117 1391.64 222.149 1391.64 188.883C1391.64 155.616 1363.43 128.648 1328.64 128.648C1293.85 128.648 1265.64 155.616 1265.64 188.883C1265.64 222.149 1293.85 249.117 1328.64 249.117Z" fill="#B73C94"/>
<path opacity="0.0509804" d="M887.745 149.329C902.243 149.329 913.995 138.092 913.995 124.231C913.995 110.37 902.243 99.1336 887.745 99.1336C873.248 99.1336 861.495 110.37 861.495 124.231C861.495 138.092 873.248 149.329 887.745 149.329Z" fill="white"/>
<path opacity="0.0705882" d="M137.205 251.627C209.692 251.627 268.455 195.444 268.455 126.139C268.455 56.8334 209.692 0.650391 137.205 0.650391C64.7177 0.650391 5.95502 56.8334 5.95502 126.139C5.95502 195.444 64.7177 251.627 137.205 251.627Z" fill="#FE7098"/>
<path opacity="0.149" d="M1130.08 103.551C1147.48 103.551 1161.58 90.0669 1161.58 73.4336C1161.58 56.8003 1147.48 43.3164 1130.08 43.3164C1112.69 43.3164 1098.58 56.8003 1098.58 73.4336C1098.58 90.0669 1112.69 103.551 1130.08 103.551Z" fill="white"/>
<path opacity="0.0509804" d="M506.91 245.704C530.106 245.704 548.91 227.725 548.91 205.548C548.91 183.37 530.106 165.391 506.91 165.391C483.714 165.391 464.91 183.37 464.91 205.548C464.91 227.725 483.714 245.704 506.91 245.704Z" fill="white"/>
<path opacity="0.149" d="M1398.47 947.434C1421.66 947.434 1440.47 929.456 1440.47 907.278C1440.47 885.1 1421.66 867.122 1398.47 867.122C1375.27 867.122 1356.47 885.1 1356.47 907.278C1356.47 929.456 1375.27 947.434 1398.47 947.434Z" fill="white"/>
<path opacity="0.149" d="M330.51 486.139C347.907 486.139 362.01 472.656 362.01 456.022C362.01 439.389 347.907 425.905 330.51 425.905C313.113 425.905 299.01 439.389 299.01 456.022C299.01 472.656 313.113 486.139 330.51 486.139Z" fill="white"/>
<path opacity="0.0392157" d="M1095.96 807.189C1171.35 807.189 1232.46 748.758 1232.46 676.681C1232.46 604.603 1171.35 546.173 1095.96 546.173C1020.57 546.173 959.46 604.603 959.46 676.681C959.46 748.758 1020.57 807.189 1095.96 807.189Z" fill="#B73C94"/>
<path opacity="0.149" d="M1421.66 730.002C1392.41 729.753 1368.87 709.19 1369.08 684.074C1369.3 658.958 1393.19 638.799 1422.44 639.048C1451.69 639.297 1475.23 659.86 1475.02 684.976C1474.81 710.092 1450.92 730.251 1421.66 730.002Z" fill="#FCDC8F"/>
<path opacity="0.0509804" d="M138.285 252.084C103.181 251.785 74.9309 227.11 75.1875 196.971C75.4442 166.831 104.11 142.641 139.215 142.94C174.319 143.239 202.569 167.914 202.313 198.053C202.056 228.193 173.39 252.383 138.285 252.084Z" fill="#B73C94"/>
<path opacity="0.0509804" d="M583.888 165.464C569.261 165.339 557.49 155.058 557.597 142.5C557.704 129.942 569.648 119.862 584.275 119.987C598.902 120.111 610.673 130.393 610.566 142.951C610.459 155.509 598.515 165.588 583.888 165.464Z" fill="white"/>
<path opacity="0.0705882" d="M1340.34 264.593C1267.21 263.97 1208.35 212.564 1208.89 149.773C1209.42 86.9829 1269.14 36.5859 1342.28 37.2086C1415.41 37.8313 1474.27 89.2379 1473.73 152.028C1473.2 214.819 1413.48 265.216 1340.34 264.593Z" fill="#FE7098"/>
<path opacity="0.149" d="M339.737 121.907C322.184 121.758 308.059 109.42 308.188 94.3503C308.316 79.2806 322.649 67.1853 340.201 67.3347C357.754 67.4842 371.879 79.8218 371.75 94.8915C371.622 109.961 357.289 122.056 339.737 121.907Z" fill="#FCDC8F"/>
<path opacity="0.0509804" d="M967.38 256.051C943.977 255.852 925.144 239.402 925.315 219.309C925.486 199.216 944.597 183.089 968 183.288C991.403 183.487 1010.24 199.937 1010.06 220.03C1009.89 240.123 990.783 256.25 967.38 256.051Z" fill="white"/>
<path opacity="0.149" d="M62.4501 884.159C39.047 883.96 20.2137 867.51 20.3848 847.417C20.5559 827.324 39.6665 811.197 63.0696 811.396C86.4727 811.595 105.306 828.045 105.135 848.138C104.964 868.231 85.8532 884.358 62.4501 884.159Z" fill="white"/>
<path opacity="0.149" d="M1143.5 475.4C1125.95 475.251 1111.82 462.913 1111.95 447.844C1112.08 432.774 1126.41 420.679 1143.97 420.828C1161.52 420.978 1175.64 433.315 1175.51 448.385C1175.39 463.455 1161.05 475.55 1143.5 475.4Z" fill="white"/>
<path opacity="0.0392157" d="M103.956 651.504C58.7253 651.119 22.337 618.125 22.6803 577.809C23.0236 537.494 59.9684 505.124 105.199 505.509C150.429 505.894 186.818 538.888 186.474 579.204C186.131 619.519 149.186 651.889 103.956 651.504Z" fill="#B73C94"/>
</svg>
