<svg width="20" height="25" viewBox="0 0 20 25" fill="none" xmlns="http://www.w3.org/2000/svg">
<path d="M10.0403 5.4375C10.8968 5.4375 11.7181 5.75576 12.3237 6.32228C12.9293 6.8888 13.2695 7.65716 13.2695 8.45833C13.2695 8.85503 13.186 9.24785 13.0237 9.61436C12.8614 9.98086 12.6235 10.3139 12.3237 10.5944C12.0238 10.8749 11.6679 11.0974 11.2761 11.2492C10.8843 11.401 10.4644 11.4792 10.0403 11.4792C9.1839 11.4792 8.36254 11.1609 7.75696 10.5944C7.15137 10.0279 6.81116 9.25951 6.81116 8.45833C6.81116 7.65716 7.15137 6.8888 7.75696 6.32228C8.36254 5.75576 9.1839 5.4375 10.0403 5.4375ZM10.0403 0C12.4383 0 14.7381 0.891143 16.4337 2.47739C18.1294 4.06363 19.082 6.21504 19.082 8.45833C19.082 14.8021 10.0403 24.1667 10.0403 24.1667C10.0403 24.1667 0.998657 14.8021 0.998657 8.45833C0.998657 6.21504 1.95126 4.06363 3.6469 2.47739C5.34254 0.891143 7.64232 0 10.0403 0ZM10.0403 2.41667C8.32747 2.41667 6.68476 3.0532 5.47359 4.18623C4.26242 5.31926 3.58199 6.85598 3.58199 8.45833C3.58199 9.66667 3.58199 12.0833 10.0403 20.1912C16.4987 12.0833 16.4987 9.66667 16.4987 8.45833C16.4987 6.85598 15.8182 5.31926 14.6071 4.18623C13.3959 3.0532 11.7532 2.41667 10.0403 2.41667Z" fill="#088BC1"/>
</svg>
