<svg width="389" height="824" viewBox="0 0 389 824" fill="none" xmlns="http://www.w3.org/2000/svg">
<g filter="url(#filter0_d_377_170)">
<path fill-rule="evenodd" clip-rule="evenodd" d="M45.8253 675.691C51.8054 681.317 54.2463 688.792 53.4551 696.663L335.854 696.722C337.136 687.947 342.057 680.356 350.386 675.914C356.212 672.808 362.959 671.64 369.877 672.181L369.994 55.0888C363.824 54.7627 358.009 53.0603 353.111 49.8593C344.185 44.0262 340.173 34.4405 341.091 24.0683L46.9506 24.0065C46.5261 28.8721 44.6598 33.4746 41.2223 37.4259C35.4723 44.0353 26.3636 47.6304 16.1234 48.1617L16.0056 667.322C27.6154 666.154 38.5852 668.881 45.8253 675.691Z" fill="#C9D2E5"/>
</g>
<g filter="url(#filter1_d_377_170)">
<path fill-rule="evenodd" clip-rule="evenodd" d="M45.8253 727.691C51.8054 733.317 54.2463 740.792 53.4551 748.663L335.854 748.722C337.136 739.947 342.057 732.356 350.386 727.914C356.212 724.808 362.959 723.64 369.877 724.181L369.994 107.089C363.824 106.763 358.009 105.06 353.111 101.859C344.185 96.0262 340.173 86.4405 341.091 76.0683L46.9506 76.0065C46.5261 80.8721 44.6598 85.4746 41.2223 89.4259C35.4723 96.0353 26.3636 99.6304 16.1234 100.162L16.0056 719.322C27.6154 718.154 38.5852 720.881 45.8253 727.691Z" fill="#C9D2E5"/>
</g>
<g filter="url(#filter2_d_377_170)">
<path fill-rule="evenodd" clip-rule="evenodd" d="M45.8253 786.505C51.8054 792.13 54.2463 799.606 53.4551 807.477L335.854 807.536C337.136 798.76 342.057 791.169 350.386 786.728C356.212 783.621 362.959 782.454 369.877 782.994L369.994 165.902C363.824 165.576 358.009 163.874 353.111 160.673C344.185 154.84 340.173 145.254 341.091 134.882L46.9506 134.82C46.5261 139.686 44.6598 144.288 41.2223 148.24C35.4723 154.849 26.3636 158.444 16.1234 158.975L16.0056 778.135C27.6154 776.967 38.5852 779.694 45.8253 786.505Z" fill="#C9D2E5"/>
</g>
<defs>
<filter id="filter0_d_377_170" x="0.00558472" y="0.00646973" width="393.988" height="712.716" filterUnits="userSpaceOnUse" color-interpolation-filters="sRGB">
<feFlood flood-opacity="0" result="BackgroundImageFix"/>
<feColorMatrix in="SourceAlpha" type="matrix" values="0 0 0 0 0 0 0 0 0 0 0 0 0 0 0 0 0 0 127 0" result="hardAlpha"/>
<feOffset dx="4" dy="-4"/>
<feGaussianBlur stdDeviation="10"/>
<feComposite in2="hardAlpha" operator="out"/>
<feColorMatrix type="matrix" values="0 0 0 0 0 0 0 0 0 0 0 0 0 0 0 0 0 0 0.2 0"/>
<feBlend mode="normal" in2="BackgroundImageFix" result="effect1_dropShadow_377_170"/>
<feBlend mode="normal" in="SourceGraphic" in2="effect1_dropShadow_377_170" result="shape"/>
</filter>
<filter id="filter1_d_377_170" x="0.00558472" y="52.0065" width="393.988" height="712.716" filterUnits="userSpaceOnUse" color-interpolation-filters="sRGB">
<feFlood flood-opacity="0" result="BackgroundImageFix"/>
<feColorMatrix in="SourceAlpha" type="matrix" values="0 0 0 0 0 0 0 0 0 0 0 0 0 0 0 0 0 0 127 0" result="hardAlpha"/>
<feOffset dx="4" dy="-4"/>
<feGaussianBlur stdDeviation="10"/>
<feComposite in2="hardAlpha" operator="out"/>
<feColorMatrix type="matrix" values="0 0 0 0 0 0 0 0 0 0 0 0 0 0 0 0 0 0 0.2 0"/>
<feBlend mode="normal" in2="BackgroundImageFix" result="effect1_dropShadow_377_170"/>
<feBlend mode="normal" in="SourceGraphic" in2="effect1_dropShadow_377_170" result="shape"/>
</filter>
<filter id="filter2_d_377_170" x="0.00558472" y="110.82" width="393.988" height="712.716" filterUnits="userSpaceOnUse" color-interpolation-filters="sRGB">
<feFlood flood-opacity="0" result="BackgroundImageFix"/>
<feColorMatrix in="SourceAlpha" type="matrix" values="0 0 0 0 0 0 0 0 0 0 0 0 0 0 0 0 0 0 127 0" result="hardAlpha"/>
<feOffset dx="4" dy="-4"/>
<feGaussianBlur stdDeviation="10"/>
<feComposite in2="hardAlpha" operator="out"/>
<feColorMatrix type="matrix" values="0 0 0 0 0 0 0 0 0 0 0 0 0 0 0 0 0 0 0.2 0"/>
<feBlend mode="normal" in2="BackgroundImageFix" result="effect1_dropShadow_377_170"/>
<feBlend mode="normal" in="SourceGraphic" in2="effect1_dropShadow_377_170" result="shape"/>
</filter>
</defs>
</svg>
