<svg width="20" height="19" viewBox="0 0 20 19" fill="none" xmlns="http://www.w3.org/2000/svg">
<path d="M10.4892 0C5.24516 0 0.998657 4.256 0.998657 9.5C0.998657 14.744 5.24516 19 10.4892 19C15.7427 19 19.9987 14.744 19.9987 9.5C19.9987 4.256 15.7427 0 10.4892 0ZM10.4987 17.1C6.29966 17.1 2.89866 13.699 2.89866 9.5C2.89866 5.301 6.29966 1.9 10.4987 1.9C14.6977 1.9 18.0987 5.301 18.0987 9.5C18.0987 13.699 14.6977 17.1 10.4987 17.1Z" fill="#B73C94"/>
<path d="M11.2487 5H9.99866V10.2459L14.3737 13L14.9987 11.9246L11.2487 9.59016V5Z" fill="#B73C94"/>
</svg>
