<svg width="1855" height="927" viewBox="0 0 1855 927" fill="none" xmlns="http://www.w3.org/2000/svg">
    <path d="M0.849976 260.842L301.193 926.594H1854.1V184.806C1689.98 190.796 1483.48 196.929 1250.25 145.492C973.011 84.3505 738.887 12.4443 478.144 2.14484C0.849976 -16.7085 114.215 128.861 0.849976 260.842Z" fill="url(#paint0_linear_1001_20)"/>
    <g style="mix-blend-mode:hard-light" opacity="0.13">
    <path d="M1608.92 769.882C1624.29 769.882 1636.75 759.257 1636.75 746.151C1636.75 733.045 1624.29 722.42 1608.92 722.42C1593.56 722.42 1581.1 733.045 1581.1 746.151C1581.1 759.257 1593.56 769.882 1608.92 769.882Z" fill="#B7CADF"/>
    </g>
    <g style="mix-blend-mode:hard-light" opacity="0.13">
    <path d="M981.606 846.206C1006.21 846.206 1026.15 833.421 1026.15 817.65C1026.15 801.879 1006.21 789.094 981.606 789.094C957.005 789.094 937.062 801.879 937.062 817.65C937.062 833.421 957.005 846.206 981.606 846.206Z" fill="#B7CADF"/>
    </g>
    <g style="mix-blend-mode:hard-light" opacity="0.13">
    <path d="M431.147 379.849C441.404 379.849 449.718 374.518 449.718 367.943C449.718 361.368 441.404 356.038 431.147 356.038C420.891 356.038 412.576 361.368 412.576 367.943C412.576 374.518 420.891 379.849 431.147 379.849Z" fill="white"/>
    </g>
    <g style="mix-blend-mode:hard-light" opacity="0.3">
    <path d="M1691.35 576C1724.98 576 1752.25 549.137 1752.25 516C1752.25 482.863 1724.98 456 1691.35 456C1657.72 456 1630.45 482.863 1630.45 516C1630.45 549.137 1657.72 576 1691.35 576Z" fill="#EA7794"/>
    </g>
    <g style="mix-blend-mode:hard-light" opacity="0.13">
    <path d="M993.543 537.963C1005.84 537.963 1015.81 531.57 1015.81 523.685C1015.81 515.799 1005.84 509.407 993.543 509.407C981.242 509.407 971.271 515.799 971.271 523.685C971.271 531.57 981.242 537.963 993.543 537.963Z" fill="#A84C8E"/>
    </g>
    <g style="mix-blend-mode:hard-light" opacity="0.13">
    <path d="M1160.97 674.58C1177.38 674.58 1190.67 666.057 1190.67 655.543C1190.67 645.029 1177.38 636.505 1160.97 636.505C1144.57 636.505 1131.28 645.029 1131.28 655.543C1131.28 666.057 1144.57 674.58 1160.97 674.58Z" fill="#ED9363"/>
    </g>
    <g style="mix-blend-mode:hard-light" opacity="0.13">
    <path d="M376.796 851.992C393.197 851.992 406.492 843.469 406.492 832.955C406.492 822.441 393.197 813.917 376.796 813.917C360.396 813.917 347.101 822.441 347.101 832.955C347.101 843.469 360.396 851.992 376.796 851.992Z" fill="#ED9363"/>
    </g>
    <g style="mix-blend-mode:hard-light" opacity="0.13">
    <path d="M1543.88 916.077C1556.18 916.077 1566.15 909.684 1566.15 901.799C1566.15 893.913 1556.18 887.521 1543.88 887.521C1531.58 887.521 1521.61 893.913 1521.61 901.799C1521.61 909.684 1531.58 916.077 1543.88 916.077Z" fill="#A84C8E"/>
    </g>
    <g style="mix-blend-mode:soft-light" opacity="0.77">
    <path d="M1636.51 662.776C1642.74 662.776 1647.79 659.538 1647.79 655.543C1647.79 651.548 1642.74 648.31 1636.51 648.31C1630.28 648.31 1625.23 651.548 1625.23 655.543C1625.23 659.538 1630.28 662.776 1636.51 662.776Z" fill="white"/>
    </g>
    <g style="mix-blend-mode:soft-light" opacity="0.3">
    <path d="M1000.42 563.626C1006.66 563.626 1011.71 560.387 1011.71 556.393C1011.71 552.398 1006.66 549.16 1000.42 549.16C994.194 549.16 989.142 552.398 989.142 556.393C989.142 560.387 994.194 563.626 1000.42 563.626Z" fill="white"/>
    </g>
    <g style="mix-blend-mode:soft-light" opacity="0.26">
    <path d="M712.406 854.899C719.883 854.899 725.945 851.013 725.945 846.22C725.945 841.426 719.883 837.54 712.406 837.54C704.928 837.54 698.867 841.426 698.867 846.22C698.867 851.013 704.928 854.899 712.406 854.899Z" fill="white"/>
    </g>
    <g style="mix-blend-mode:soft-light" opacity="0.37">
    <path d="M577.499 509.391C584.977 509.391 591.038 505.505 591.038 500.711C591.038 495.918 584.977 492.032 577.499 492.032C570.022 492.032 563.96 495.918 563.96 500.711C563.96 505.505 570.022 509.391 577.499 509.391Z" fill="white"/>
    </g>
    <g style="mix-blend-mode:soft-light" opacity="0.69">
    <path d="M1493.7 891.817C1499.93 891.817 1504.98 888.578 1504.98 884.584C1504.98 880.589 1499.93 877.351 1493.7 877.351C1487.46 877.351 1482.41 880.589 1482.41 884.584C1482.41 888.578 1487.46 891.817 1493.7 891.817Z" fill="white"/>
    </g>
    <g style="mix-blend-mode:soft-light" opacity="0.52">
    <path d="M1221.04 772.863C1223.54 772.863 1225.56 771.567 1225.56 769.969C1225.56 768.372 1223.54 767.076 1221.04 767.076C1218.55 767.076 1216.53 768.372 1216.53 769.969C1216.53 771.567 1218.55 772.863 1221.04 772.863Z" fill="white"/>
    </g>
    <g style="mix-blend-mode:soft-light" opacity="0.69">
    <path d="M590.035 690.638C592.528 690.638 594.548 689.342 594.548 687.744C594.548 686.146 592.528 684.851 590.035 684.851C587.543 684.851 585.522 686.146 585.522 687.744C585.522 689.342 587.543 690.638 590.035 690.638Z" fill="white"/>
    </g>
    <g style="mix-blend-mode:soft-light">
    <path d="M478.361 769.565C480.854 769.565 482.874 768.269 482.874 766.672C482.874 765.074 480.854 763.778 478.361 763.778C475.869 763.778 473.848 765.074 473.848 766.672C473.848 768.269 475.869 769.565 478.361 769.565Z" fill="white"/>
    </g>
    <g style="mix-blend-mode:soft-light" opacity="0.19">
    <path d="M548.629 591.531C552.368 591.531 555.398 589.588 555.398 587.191C555.398 584.794 552.368 582.851 548.629 582.851C544.89 582.851 541.859 584.794 541.859 587.191C541.859 589.588 544.89 591.531 548.629 591.531Z" fill="white"/>
    </g>
    <g style="mix-blend-mode:soft-light" opacity="0.86">
    <path d="M376.796 569.456C380.535 569.456 383.566 567.513 383.566 565.116C383.566 562.719 380.535 560.776 376.796 560.776C373.058 560.776 370.027 562.719 370.027 565.116C370.027 567.513 373.058 569.456 376.796 569.456Z" fill="white"/>
    </g>
    <g style="mix-blend-mode:soft-light" opacity="0.77">
    <path d="M840.665 692.084C844.403 692.084 847.434 690.141 847.434 687.745C847.434 685.348 844.403 683.405 840.665 683.405C836.926 683.405 833.895 685.348 833.895 687.745C833.895 690.141 836.926 692.084 840.665 692.084Z" fill="white"/>
    </g>
    <g style="mix-blend-mode:soft-light" opacity="0.64">
    <path d="M1368.19 726.716C1371.93 726.716 1374.96 724.773 1374.96 722.376C1374.96 719.979 1371.93 718.036 1368.19 718.036C1364.45 718.036 1361.42 719.979 1361.42 722.376C1361.42 724.773 1364.45 726.716 1368.19 726.716Z" fill="white"/>
    </g>
    <g style="mix-blend-mode:soft-light" opacity="0.89">
    <path d="M1169.28 906.152C1173.02 906.152 1176.05 904.209 1176.05 901.812C1176.05 899.416 1173.02 897.473 1169.28 897.473C1165.54 897.473 1162.51 899.416 1162.51 901.812C1162.51 904.209 1165.54 906.152 1169.28 906.152Z" fill="white"/>
    </g>
    <g style="mix-blend-mode:soft-light">
    <path d="M1280.39 606.098C1284.13 606.098 1287.16 604.155 1287.16 601.758C1287.16 599.361 1284.13 597.418 1280.39 597.418C1276.65 597.418 1273.62 599.361 1273.62 601.758C1273.62 604.155 1276.65 606.098 1280.39 606.098Z" fill="white"/>
    </g>
    <g style="mix-blend-mode:soft-light">
    <path d="M1243.76 837.605C1247.5 837.605 1250.53 835.662 1250.53 833.266C1250.53 830.869 1247.5 828.926 1243.76 828.926C1240.02 828.926 1236.99 830.869 1236.99 833.266C1236.99 835.662 1240.02 837.605 1243.76 837.605Z" fill="white"/>
    </g>
    <path opacity="0.5" d="M1854.1 827.194H303.25V925.699H1854.1V827.194Z" fill="url(#paint1_linear_1001_20)"/>
    <path d="M1341.65 838.148C1246.45 841.186 1214.95 843.949 1214.95 846.336C1214.95 847.551 1223.16 848.217 1222.92 849.432C1222.1 853.425 1131.14 851.399 1129.93 855.869C1129.18 858.632 1163.5 861.424 1162.83 864.882C1162.19 868.137 1131.14 869.453 1117.04 870.032C1066.52 872.086 1030.55 869.525 1029.78 871.319C1028.95 873.272 1071.62 876.961 1071.08 880.332C1070.13 886.32 934.197 884.483 932.504 891.919C931.489 896.36 979.485 899.398 979.71 904.794C979.959 910.363 929.255 917.509 765.32 926.58C957.439 926.551 1149.53 926.522 1341.65 926.493C1306.54 912.012 1283.05 898.631 1291.11 890.631C1301.85 879.984 1364.85 882.559 1364.92 879.565C1364.98 876.643 1305.17 874.907 1305.17 872.187C1305.17 868.86 1395.31 867.24 1395.38 863.753C1395.45 860.716 1327.28 858.777 1327.41 855.84C1327.57 852.672 1407.47 851.226 1407.47 847.855C1407.47 846.206 1388.41 845.555 1388.32 843.646C1388.23 841.649 1408.92 839.74 1432.73 838.163H1341.63L1341.65 838.148Z" fill="#FBDB8F"/>
    <path d="M1521.61 870.972C1521.61 870.972 1543.81 872.245 1561.59 867.659C1561.59 867.659 1580.01 872.766 1600.95 869.395C1600.95 869.395 1614.28 873.547 1630.15 873.344C1630.15 873.344 1604.85 874.285 1600.68 870.972C1600.68 870.972 1570.46 874.574 1561.14 869.265C1561.14 869.265 1538.98 873.764 1521.61 870.957V870.972Z" fill="#FBDB8F"/>
    <path d="M872.436 887.998C872.436 887.998 799.439 886.146 787.299 890.544C778.182 893.828 743.545 886.204 681.627 886.956V883.644C692.887 883.644 704.53 883.817 715.88 884.381C765.975 886.87 776.67 889.126 800.928 886.927C825.253 884.757 872.436 887.983 872.436 887.983V887.998Z" fill="#FBDB8F"/>
    <path d="M922.75 833.975L287.5 839.152V708.799C291.387 708.889 297.545 708.944 305.344 709.179C311.931 709.305 319.729 709.595 328.462 709.938C339.213 710.318 351.404 710.879 364.578 711.747C444.887 716.576 561.639 729.562 609.895 764.053C686.771 818.982 800.874 789.989 839.968 802.125C879.062 814.261 864.247 826.759 922.725 833.975H922.75Z" fill="#1D2644"/>
    <path d="M842.225 802.382L1281.57 797.869L1281.88 814.843L829.951 819.482L842.225 802.382Z" fill="#1D2644"/>
    <path d="M1251.54 815.183L1215.19 815.555L1215.48 831.071L1251.84 830.699L1251.54 815.183Z" fill="#1D2644"/>
    <path d="M1128.62 799.451C847.296 799.559 816.55 733.534 712.723 698.723C608.897 663.912 498.284 757.34 461.364 693.778C446.174 667.67 416.286 651.703 386.372 642.083C383.996 641.31 381.718 640.591 379.366 639.872C378.092 639.512 376.744 639.152 375.47 638.793C372.947 638.073 370.497 637.426 368.047 636.905C366.112 636.365 364.152 635.898 362.216 635.484C358.419 634.603 354.793 633.83 351.241 633.129C340.118 630.953 329.927 629.587 321.671 628.687C317.212 628.184 313.243 627.842 310.058 627.627C307.78 627.411 305.844 627.303 304.35 627.249" stroke="#1D2644" stroke-width="1.75516" stroke-miterlimit="10"/>
    <path d="M1128.42 788.536C847.101 788.644 817.824 720.892 713.997 686.01C610.171 651.199 512.395 743.207 466.533 673.693C449.751 648.16 413.517 633.416 379.072 624.839C375.446 623.958 371.82 623.131 368.268 622.357C366.504 621.998 364.715 621.584 362.952 621.297C359.326 620.523 355.773 619.894 352.245 619.319C330.172 615.471 311.749 614.068 304.08 613.655" stroke="#1D2644" stroke-width="1.75516" stroke-miterlimit="10"/>
    <path d="M1142.46 748.732L1186.82 748.277C1194.98 748.194 1201.71 752.998 1201.83 758.985L1202.65 802.422L1128.67 803.181L1127.85 759.743C1127.73 753.756 1134.28 748.816 1142.43 748.732L1142.46 748.732Z" fill="#1D2644"/>
    <path d="M1193.37 772.251C1216.13 772.018 1234.86 785.385 1235.17 802.087L1193.95 802.51L1193.37 772.251Z" fill="#1D2644"/>
    <path d="M965.236 742.655L985.739 742.444C991.447 742.386 996.166 745.754 996.246 749.943L997.266 803.557L956.038 803.979L955.018 750.366C954.939 746.177 959.528 742.713 965.236 742.655V742.655Z" fill="#1D2644"/>
    <path d="M921.629 787.279L880.402 787.702L880.751 806.058L921.979 805.636L921.629 787.279Z" fill="#1D2644"/>
    <path d="M1086.78 762.249L1012.8 763.007L1013.58 804.341L1087.56 803.583L1086.78 762.249Z" fill="#1D2644"/>
    <path d="M321.671 628.687L323.459 721.593" stroke="#1D2644" stroke-width="1.87217" stroke-miterlimit="10"/>
    <path d="M402.125 815.417L398.891 646.523" stroke="#1D2644" stroke-width="2.64443" stroke-miterlimit="10"/>
    <path d="M478.881 814.626L476.896 709.834" stroke="#1D2644" stroke-width="2.64443" stroke-miterlimit="10"/>
    <path d="M555.734 813.835L553.725 709.043" stroke="#1D2644" stroke-width="2.64443" stroke-miterlimit="10"/>
    <path d="M632.587 813.044L630.284 692.788" stroke="#1D2644" stroke-width="2.64443" stroke-miterlimit="10"/>
    <path d="M709.343 812.252L707.162 696.995" stroke="#1D2644" stroke-width="2.64443" stroke-miterlimit="10"/>
    <path d="M786.196 811.48L784.652 730.53" stroke="#1D2644" stroke-width="2.64443" stroke-miterlimit="10"/>
    <path d="M863.049 810.689L862.167 765.071" stroke="#1D2644" stroke-width="2.64443" stroke-miterlimit="10"/>
    <path d="M939.903 809.898L939.437 785.228" stroke="#1D2644" stroke-width="2.64443" stroke-miterlimit="10"/>
    <path d="M1016.66 809.106L1016.39 795.243" stroke="#1D2644" stroke-width="2.64443" stroke-miterlimit="10"/>
    <path d="M1012.81 763.003L1049.51 747.755L1086.77 762.229L1012.81 763.003Z" fill="#1D2644"/>
    <path d="M922.75 834.04C922.75 834.04 919.712 834.13 914.244 834.365C855.511 836.679 512.482 850.778 516.532 866.667C520.963 883.984 326.081 876.066 341.22 890.979C353.878 903.379 305.829 905.657 289.424 906L287.5 807.957L922.75 834.022V834.04Z" fill="#1D2644"/>
    <path d="M782.423 716.451L793.472 706.58L828.187 726.466L822.185 736.446L782.423 716.451Z" fill="#1D2644"/>
    <path d="M380.689 645.121C383.963 645.121 386.617 643.173 386.617 640.769C386.617 638.366 383.963 636.418 380.689 636.418C377.414 636.418 374.76 638.366 374.76 640.769C374.76 643.173 377.414 645.121 380.689 645.121Z" fill="#F6A1AA"/>
    <path d="M405.825 556.548C405.972 564.711 397.079 571.436 385.956 571.544L378.067 571.633L381.277 739.305L343.303 743.764L355.651 571.867L345.729 571.975C334.606 572.083 325.444 565.556 325.297 557.393C325.15 549.229 334.043 542.505 345.165 542.397L348.448 542.361C350.457 536.984 357.096 532.957 365.058 532.885C373.021 532.813 379.905 536.679 382.11 542.019L385.393 541.983C396.515 541.875 405.678 548.402 405.825 556.566V556.548Z" fill="#1D2644"/>
    <path d="M365.352 551.279C369.56 551.279 372.972 548.776 372.972 545.687C372.972 542.599 369.56 540.095 365.352 540.095C361.144 540.095 357.733 542.599 357.733 545.687C357.733 548.776 361.144 551.279 365.352 551.279Z" fill="#F16F97"/>
    <path d="M365.549 570.879H368.782L367.337 705.178C367.312 708.396 365.328 711.003 362.952 710.985C360.477 710.985 358.517 708.144 358.689 704.818L365.549 570.897V570.879Z" fill="#FBDB8F"/>
    <path d="M419.618 662.203C422.892 662.203 425.546 660.255 425.546 657.851C425.546 655.448 422.892 653.5 419.618 653.5C416.343 653.5 413.689 655.448 413.689 657.851C413.689 660.255 416.343 662.203 419.618 662.203Z" fill="#FBDB8F"/>
    <path d="M321.671 633.039C324.945 633.039 327.599 631.09 327.599 628.687C327.599 626.284 324.945 624.336 321.671 624.336C318.396 624.336 315.742 626.284 315.742 628.687C315.742 631.09 318.396 633.039 321.671 633.039Z" fill="#FBDB8F"/>
    <path d="M452.74 689.569C456.015 689.569 458.669 687.621 458.669 685.218C458.669 682.815 456.015 680.867 452.74 680.867C449.466 680.867 446.812 682.815 446.812 685.218C446.812 687.621 449.466 689.569 452.74 689.569Z" fill="#F6A1AA"/>
    <path d="M491.62 718.375C494.894 718.375 497.549 716.427 497.549 714.024C497.549 711.621 494.894 709.672 491.62 709.672C488.346 709.672 485.691 711.621 485.691 714.024C485.691 716.427 488.346 718.375 491.62 718.375Z" fill="#FBDB8F"/>
    <path d="M542.137 715.013C545.411 715.013 548.066 713.065 548.066 710.661C548.066 708.258 545.411 706.31 542.137 706.31C538.863 706.31 536.208 708.258 536.208 710.661C536.208 713.065 538.863 715.013 542.137 715.013Z" fill="#F6A1AA"/>
    <path d="M591.723 702.229C594.997 702.229 597.652 700.28 597.652 697.877C597.652 695.474 594.997 693.526 591.723 693.526C588.449 693.526 585.794 695.474 585.794 697.877C585.794 700.28 588.449 702.229 591.723 702.229Z" fill="#FBDB8F"/>
    <path d="M645.498 696.978C648.772 696.978 651.427 695.03 651.427 692.627C651.427 690.224 648.772 688.275 645.498 688.275C642.224 688.275 639.569 690.224 639.569 692.627C639.569 695.03 642.224 696.978 645.498 696.978Z" fill="#F6A1AA"/>
    <path d="M708.289 701.024C711.564 701.024 714.218 699.075 714.218 696.672C714.218 694.269 711.564 692.321 708.289 692.321C705.015 692.321 702.361 694.269 702.361 696.672C702.361 699.075 705.015 701.024 708.289 701.024Z" fill="#FBDB8F"/>
    <path d="M764.196 724.273C767.47 724.273 770.124 722.324 770.124 719.921C770.124 717.518 767.47 715.57 764.196 715.57C760.921 715.57 758.267 717.518 758.267 719.921C758.267 722.324 760.921 724.273 764.196 724.273Z" fill="#F6A1AA"/>
    <path d="M818.045 752.935C821.319 752.935 823.974 750.986 823.974 748.583C823.974 746.18 821.319 744.232 818.045 744.232C814.771 744.232 812.116 746.18 812.116 748.583C812.116 750.986 814.771 752.935 818.045 752.935Z" fill="#FBDB8F"/>
    <path d="M862.167 769.422C865.441 769.422 868.096 767.474 868.096 765.071C868.096 762.668 865.441 760.72 862.167 760.72C858.893 760.72 856.238 762.668 856.238 765.071C856.238 767.474 858.893 769.422 862.167 769.422Z" fill="#F6A1AA"/>
    <path d="M921.529 785.299C924.803 785.299 927.457 783.351 927.457 780.948C927.457 778.545 924.803 776.597 921.529 776.597C918.254 776.597 915.6 778.545 915.6 780.948C915.6 783.351 918.254 785.299 921.529 785.299Z" fill="#FBDB8F"/>
    <path d="M920.891 758.85C929.415 758.85 936.326 753.778 936.326 747.522C936.326 741.266 929.415 736.194 920.891 736.194C912.367 736.194 905.457 741.266 905.457 747.522C905.457 753.778 912.367 758.85 920.891 758.85Z" fill="#FBDB8F"/>
    <path d="M1048.92 728.337C1057.45 728.337 1064.36 723.265 1064.36 717.009C1064.36 710.752 1057.45 705.681 1048.92 705.681C1040.4 705.681 1033.49 710.752 1033.49 717.009C1033.49 723.265 1040.4 728.337 1048.92 728.337Z" fill="#FBDB8F"/>
    <path d="M1265.13 756.855C1273.65 756.855 1280.56 751.783 1280.56 745.527C1280.56 739.27 1273.65 734.199 1265.13 734.199C1256.6 734.199 1249.69 739.27 1249.69 745.527C1249.69 751.783 1256.6 756.855 1265.13 756.855Z" fill="#FBDB8F"/>
    <path d="M1112.82 800.133C1116.09 800.133 1118.75 798.185 1118.75 795.782C1118.75 793.378 1116.09 791.43 1112.82 791.43C1109.54 791.43 1106.89 793.378 1106.89 795.782C1106.89 798.185 1109.54 800.133 1112.82 800.133Z" fill="#F6A1AA"/>
    <path d="M920.892 751.873C924.166 751.873 926.82 749.925 926.82 747.522C926.82 745.119 924.166 743.17 920.892 743.17C917.617 743.17 914.963 745.119 914.963 747.522C914.963 749.925 917.617 751.873 920.892 751.873Z" fill="#1D2644"/>
    <path d="M922.952 747.529L918.91 747.57L919.99 804.366L924.032 804.325L922.952 747.529Z" fill="#1D2644"/>
    <path d="M1048.95 722.834C1052.22 722.834 1054.88 720.886 1054.88 718.483C1054.88 716.08 1052.22 714.131 1048.95 714.131C1045.67 714.131 1043.02 716.08 1043.02 718.483C1043.02 720.886 1045.67 722.834 1048.95 722.834Z" fill="#1D2644"/>
    <path d="M1051.01 718.493L1046.96 718.535L1048.04 775.331L1052.09 775.289L1051.01 718.493Z" fill="#1D2644"/>
    <path d="M667.733 538.168L660.58 538.241L665.554 799.693L672.707 799.619L667.733 538.168Z" fill="#1D2644"/>
    <path d="M1265.15 751.19C1268.43 751.19 1271.08 749.242 1271.08 746.839C1271.08 744.435 1268.43 742.487 1265.15 742.487C1261.88 742.487 1259.22 744.435 1259.22 746.839C1259.22 749.242 1261.88 751.19 1265.15 751.19Z" fill="#1D2644"/>
    <path d="M1267.21 746.842L1263.17 746.883L1264.25 803.679L1268.29 803.638L1267.21 746.842Z" fill="#1D2644"/>
    <path d="M674.97 538.099L675.534 567.714C675.534 567.714 686.558 532.022 717.084 539.52C747.61 547.018 777.964 519.741 777.964 519.741C777.964 519.741 724.262 524.596 716.129 516.864C707.995 509.132 671.957 514.509 674.995 538.099H674.97Z" fill="#1D2644"/>
    <path d="M463.152 611.748C466.44 611.748 469.106 609.792 469.106 607.379C469.106 604.965 466.44 603.009 463.152 603.009C459.864 603.009 457.199 604.965 457.199 607.379C457.199 609.792 459.864 611.748 463.152 611.748Z" fill="#FBDB8F"/>
    <path d="M582.757 543.404C586.044 543.404 588.71 541.448 588.71 539.034C588.71 536.621 586.044 534.665 582.757 534.665C579.469 534.665 576.803 536.621 576.803 539.034C576.803 541.448 579.469 543.404 582.757 543.404Z" fill="#FBDB8F"/>
    <path d="M415.719 114.083C419.007 114.083 421.672 112.127 421.672 109.714C421.672 107.301 419.007 105.345 415.719 105.345C412.431 105.345 409.765 107.301 409.765 109.714C409.765 112.127 412.431 114.083 415.719 114.083Z" fill="#FBDB8F"/>
    <path d="M535.323 45.7387C538.611 45.7387 541.276 43.7825 541.276 41.3694C541.276 38.9562 538.611 37 535.323 37C532.035 37 529.37 38.9562 529.37 41.3694C529.37 43.7825 532.035 45.7387 535.323 45.7387Z" fill="#CAD2E5" fill-opacity="0.3"/>
    <path d="M1152.06 721.791C1155.35 721.791 1158.02 719.835 1158.02 717.422C1158.02 715.009 1155.35 713.053 1152.06 713.053C1148.78 713.053 1146.11 715.009 1146.11 717.422C1146.11 719.835 1148.78 721.791 1152.06 721.791Z" fill="#FBDB8F"/>
    <path d="M1745.25 814.851C1748.53 814.851 1751.2 812.895 1751.2 810.482C1751.2 808.069 1748.53 806.112 1745.25 806.112C1741.96 806.112 1739.29 808.069 1739.29 810.482C1739.29 812.895 1741.96 814.851 1745.25 814.851Z" fill="#FBDB8F"/>
    <path d="M578.836 649.04C582.124 649.04 584.79 647.084 584.79 644.671C584.79 642.258 582.124 640.302 578.836 640.302C575.549 640.302 572.883 642.258 572.883 644.671C572.883 647.084 575.549 649.04 578.836 649.04Z" fill="#FBDB8F"/>
    <path d="M1391.5 588.728L1402.51 598.375L1417.45 595.57L1410.8 608.128L1418.35 620.24L1403.24 618.329L1392.95 628.636L1390.25 614.917L1376.35 609.164L1389.8 602.573L1391.5 588.728Z" fill="#F16F97"/>
    <path d="M781.419 629.712L778.308 638.594L786.539 645.517L774.069 646.11L767.626 653.986L763.02 645.445L750.82 643.395L760.448 637.533L759.345 628.399L769.904 633.308L781.419 629.712Z" fill="#F16F97"/>
    <path d="M976.039 749.608C980.72 749.608 984.515 746.822 984.515 743.386C984.515 739.95 980.72 737.165 976.039 737.165C971.357 737.165 967.562 739.95 967.562 743.386C967.562 746.822 971.357 749.608 976.039 749.608Z" fill="#1D2644"/>
    <path d="M782.741 450.694C786.016 450.694 788.67 448.746 788.67 446.343C788.67 443.94 786.016 441.992 782.741 441.992C779.467 441.992 776.813 443.94 776.813 446.343C776.813 448.746 779.467 450.694 782.741 450.694Z" fill="#CAD2E5"/>
    <path d="M1447.25 732.166C1450.53 732.166 1453.18 730.218 1453.18 727.815C1453.18 725.412 1450.53 723.463 1447.25 723.463C1443.98 723.463 1441.32 725.412 1441.32 727.815C1441.32 730.218 1443.98 732.166 1447.25 732.166Z" fill="#CAD2E5"/>
    <path d="M1625.88 797.911C1629.15 797.911 1631.81 795.963 1631.81 793.56C1631.81 791.157 1629.15 789.208 1625.88 789.208C1622.6 789.208 1619.95 791.157 1619.95 793.56C1619.95 795.963 1622.6 797.911 1625.88 797.911Z" fill="#CAD2E5"/>
    <path d="M1247.24 621.674C1250.52 621.674 1253.17 619.726 1253.17 617.323C1253.17 614.919 1250.52 612.971 1247.24 612.971C1243.97 612.971 1241.31 614.919 1241.31 617.323C1241.31 619.726 1243.97 621.674 1247.24 621.674Z" fill="#CAD2E5"/>
    <path d="M1228.26 441.776C1231.53 441.776 1234.18 439.828 1234.18 437.425C1234.18 435.022 1231.53 433.074 1228.26 433.074C1224.98 433.074 1222.33 435.022 1222.33 437.425C1222.33 439.828 1224.98 441.776 1228.26 441.776Z" fill="#CAD2E5"/>
    <path d="M1046.08 582.782C1057.05 582.782 1065.95 576.253 1065.95 568.199C1065.95 560.145 1057.05 553.617 1046.08 553.617C1035.11 553.617 1026.21 560.145 1026.21 568.199C1026.21 576.253 1035.11 582.782 1046.08 582.782Z" fill="#CAD2E5"/>
    <defs>
    <linearGradient id="paint0_linear_1001_20" x1="1013.53" y1="268.515" x2="1013.53" y2="2114.27" gradientUnits="userSpaceOnUse">
    <stop stop-color="#0D387C"/>
    <stop offset="0.09" stop-color="#0D387C"/>
    <stop offset="0.276042" stop-color="#10689A"/>
    <stop offset="0.37" stop-color="#356A96"/>
    <stop offset="0.38" stop-color="#396C97"/>
    <stop offset="1" stop-color="#ECA1A6"/>
    </linearGradient>
    <linearGradient id="paint1_linear_1001_20" x1="1077.15" y1="970.507" x2="1078.1" y2="785.146" gradientUnits="userSpaceOnUse">
    <stop stop-color="#CAD2E5" stop-opacity="0.3"/>
    <stop offset="1" stop-color="#233C79"/>
    </linearGradient>
    </defs>
    </svg>
    