<svg width="1512" height="69" viewBox="0 0 1512 69" fill="none" xmlns="http://www.w3.org/2000/svg">
<path fill-rule="evenodd" clip-rule="evenodd" d="M756.211 0.480798L753.087 68.4946L752.046 68.4553L755.171 0.441472L756.211 0.480798Z" fill="url(#paint0_linear_450_103)"/>
<path fill-rule="evenodd" clip-rule="evenodd" d="M804.12 0.480844L814.536 68.4947L813.504 68.6246L803.089 0.610796L804.12 0.480844Z" fill="url(#paint1_linear_450_103)"/>
<path fill-rule="evenodd" clip-rule="evenodd" d="M853.071 0.480824L871.818 66.6054L870.81 66.8406L852.062 0.716077L853.071 0.480824Z" fill="url(#paint2_linear_450_103)"/>
<path fill-rule="evenodd" clip-rule="evenodd" d="M904.105 0.480813L927.018 66.6054L926.024 66.8886L903.111 0.76404L904.105 0.480813Z" fill="url(#paint3_linear_450_103)"/>
<path fill-rule="evenodd" clip-rule="evenodd" d="M949.931 0.480753L975.969 66.6053L974.988 66.923L948.95 0.798469L949.931 0.480753Z" fill="url(#paint4_linear_450_103)"/>
<path fill-rule="evenodd" clip-rule="evenodd" d="M999.923 0.480747L1024.92 66.6053L1023.93 66.9117L998.938 0.787115L999.923 0.480747Z" fill="url(#paint5_linear_450_103)"/>
<path fill-rule="evenodd" clip-rule="evenodd" d="M1050.96 0.480798L1080.12 65.6607L1079.15 66.0159L1049.99 0.835998L1050.96 0.480798Z" fill="url(#paint6_linear_450_103)"/>
<path fill-rule="evenodd" clip-rule="evenodd" d="M1104.07 0.480766L1143.65 65.6607L1142.74 66.1164L1103.16 0.936465L1104.07 0.480766Z" fill="url(#paint7_linear_450_103)"/>
<path fill-rule="evenodd" clip-rule="evenodd" d="M1157.19 0.480764L1196.77 65.6607L1195.86 66.1164L1156.28 0.936463L1157.19 0.480764Z" fill="url(#paint8_linear_450_103)"/>
<path fill-rule="evenodd" clip-rule="evenodd" d="M1215.51 0.480797L1248.84 65.6607L1247.9 66.0582L1214.57 0.878229L1215.51 0.480797Z" fill="url(#paint9_linear_450_103)"/>
<path fill-rule="evenodd" clip-rule="evenodd" d="M1270.71 0.4808L1305.08 65.6607L1304.14 66.0683L1269.77 0.888369L1270.71 0.4808Z" fill="url(#paint10_linear_450_103)"/>
<path fill-rule="evenodd" clip-rule="evenodd" d="M1319.66 0.480864L1360.28 65.6608L1359.38 66.1256L1318.76 0.945679L1319.66 0.480864Z" fill="url(#paint11_linear_450_103)"/>
<path fill-rule="evenodd" clip-rule="evenodd" d="M1363.41 0.480812L1415.48 65.6607L1414.64 66.215L1362.56 1.0351L1363.41 0.480812Z" fill="url(#paint12_linear_450_103)"/>
<path fill-rule="evenodd" clip-rule="evenodd" d="M1411.32 0.48078L1470.68 65.6607L1469.88 66.2623L1410.51 1.0824L1411.32 0.48078Z" fill="url(#paint13_linear_450_103)"/>
<path fill-rule="evenodd" clip-rule="evenodd" d="M1456.1 0.480794L1516.51 65.6607L1515.71 66.2686L1455.3 1.08862L1456.1 0.480794Z" fill="url(#paint14_linear_450_103)"/>
<path fill-rule="evenodd" clip-rule="evenodd" d="M616.65 1.42539L590.612 67.55L591.593 67.8677L617.631 1.74311L616.65 1.42539Z" fill="url(#paint15_linear_450_103)"/>
<path fill-rule="evenodd" clip-rule="evenodd" d="M569.279 2.30156L539.067 66.61L540.025 66.9803L570.237 2.67186L569.279 2.30156Z" fill="url(#paint16_linear_450_103)"/>
<path fill-rule="evenodd" clip-rule="evenodd" d="M524.997 1.42541L485.42 66.6053L486.332 67.061L525.91 1.8811L524.997 1.42541Z" fill="url(#paint17_linear_450_103)"/>
<path fill-rule="evenodd" clip-rule="evenodd" d="M462.507 1.42546L425.013 67.55L425.939 67.9821L463.433 1.85749L462.507 1.42546Z" fill="url(#paint18_linear_450_103)"/>
<path fill-rule="evenodd" clip-rule="evenodd" d="M409.39 1.42541L369.813 66.6053L370.725 67.061L410.303 1.8811L409.39 1.42541Z" fill="url(#paint19_linear_450_103)"/>
<path fill-rule="evenodd" clip-rule="evenodd" d="M351.066 1.42543L311.489 66.6054L310.577 66.1497L350.154 0.969733L351.066 1.42543Z" fill="url(#paint20_linear_450_103)"/>
<path fill-rule="evenodd" clip-rule="evenodd" d="M295.866 1.42542L258.372 66.6054L257.449 66.1684L294.943 0.988466L295.866 1.42542Z" fill="url(#paint21_linear_450_103)"/>
<path fill-rule="evenodd" clip-rule="evenodd" d="M246.916 1.4255L206.297 66.6054L207.204 67.0703L247.822 1.89032L246.916 1.4255Z" fill="url(#paint22_linear_450_103)"/>
<path fill-rule="evenodd" clip-rule="evenodd" d="M203.172 1.42539L151.097 66.6053L151.941 67.1596L204.016 1.97968L203.172 1.42539Z" fill="url(#paint23_linear_450_103)"/>
<path fill-rule="evenodd" clip-rule="evenodd" d="M155.263 1.42542L95.8975 66.6053L96.7005 67.207L156.066 2.02704L155.263 1.42542Z" fill="url(#paint24_linear_450_103)"/>
<path fill-rule="evenodd" clip-rule="evenodd" d="M110.478 1.42544L50.0712 66.6054L50.8685 67.2132L111.276 2.03326L110.478 1.42544Z" fill="url(#paint25_linear_450_103)"/>
<path fill-rule="evenodd" clip-rule="evenodd" d="M70.9015 2.37008L10.4942 67.55L11.2915 68.1578L71.6987 2.97791L70.9015 2.37008Z" fill="url(#paint26_linear_450_103)"/>
<path fill-rule="evenodd" clip-rule="evenodd" d="M713.51 0.480851L699.97 68.4947L698.945 68.3268L712.485 0.313006L713.51 0.480851Z" fill="url(#paint27_linear_450_103)"/>
<path fill-rule="evenodd" clip-rule="evenodd" d="M666.642 0.480764L642.286 67.4885L641.297 67.1927L665.653 0.185L666.642 0.480764Z" fill="url(#paint28_linear_450_103)"/>
<path fill-rule="evenodd" clip-rule="evenodd" d="M33.4072 0.480794L-27 65.6607L-26.2028 66.2686L34.2045 1.08862L33.4072 0.480794Z" fill="url(#paint29_linear_450_103)"/>
<path fill-rule="evenodd" clip-rule="evenodd" d="M1500.89 0.480794L1561.29 65.6607L1560.5 66.2686L1500.09 1.08862L1500.89 0.480794Z" fill="url(#paint30_linear_450_103)"/>
<defs>
<linearGradient id="paint0_linear_450_103" x1="753.471" y1="34.5549" x2="754.226" y2="34.6374" gradientUnits="userSpaceOnUse">
<stop stop-color="#FCDC8F" stop-opacity="0.57"/>
<stop offset="0.767887" stop-color="#FCDC8F"/>
</linearGradient>
<linearGradient id="paint1_linear_450_103" x1="808.183" y1="34.7457" x2="808.939" y2="34.6777" gradientUnits="userSpaceOnUse">
<stop stop-color="#FCDC8F" stop-opacity="0.57"/>
<stop offset="0.767887" stop-color="#FCDC8F"/>
</linearGradient>
<linearGradient id="paint2_linear_450_103" x1="861.339" y1="33.9166" x2="862.079" y2="33.7558" gradientUnits="userSpaceOnUse">
<stop stop-color="#FCDC8F" stop-opacity="0.57"/>
<stop offset="0.767887" stop-color="#FCDC8F"/>
</linearGradient>
<linearGradient id="paint3_linear_450_103" x1="914.479" y1="33.9706" x2="915.207" y2="33.7673" gradientUnits="userSpaceOnUse">
<stop stop-color="#FCDC8F" stop-opacity="0.57"/>
<stop offset="0.767887" stop-color="#FCDC8F"/>
</linearGradient>
<linearGradient id="paint4_linear_450_103" x1="961.887" y1="34.0094" x2="962.604" y2="33.7758" gradientUnits="userSpaceOnUse">
<stop stop-color="#FCDC8F" stop-opacity="0.57"/>
<stop offset="0.767887" stop-color="#FCDC8F"/>
</linearGradient>
<linearGradient id="paint5_linear_450_103" x1="1011.35" y1="33.9966" x2="1012.07" y2="33.7729" gradientUnits="userSpaceOnUse">
<stop stop-color="#FCDC8F" stop-opacity="0.57"/>
<stop offset="0.767887" stop-color="#FCDC8F"/>
</linearGradient>
<linearGradient id="paint6_linear_450_103" x1="1064.5" y1="33.5779" x2="1065.2" y2="33.3122" gradientUnits="userSpaceOnUse">
<stop stop-color="#FCDC8F" stop-opacity="0.57"/>
<stop offset="0.767887" stop-color="#FCDC8F"/>
</linearGradient>
<linearGradient id="paint7_linear_450_103" x1="1122.9" y1="33.6911" x2="1123.56" y2="33.34" gradientUnits="userSpaceOnUse">
<stop stop-color="#FCDC8F" stop-opacity="0.57"/>
<stop offset="0.767887" stop-color="#FCDC8F"/>
</linearGradient>
<linearGradient id="paint8_linear_450_103" x1="1176.02" y1="33.6911" x2="1176.67" y2="33.34" gradientUnits="userSpaceOnUse">
<stop stop-color="#FCDC8F" stop-opacity="0.57"/>
<stop offset="0.767887" stop-color="#FCDC8F"/>
</linearGradient>
<linearGradient id="paint9_linear_450_103" x1="1231.17" y1="33.6254" x2="1231.85" y2="33.3235" gradientUnits="userSpaceOnUse">
<stop stop-color="#FCDC8F" stop-opacity="0.57"/>
<stop offset="0.767887" stop-color="#FCDC8F"/>
</linearGradient>
<linearGradient id="paint10_linear_450_103" x1="1286.9" y1="33.6369" x2="1287.58" y2="33.3263" gradientUnits="userSpaceOnUse">
<stop stop-color="#FCDC8F" stop-opacity="0.57"/>
<stop offset="0.767887" stop-color="#FCDC8F"/>
</linearGradient>
<linearGradient id="paint11_linear_450_103" x1="1339.02" y1="33.7014" x2="1339.67" y2="33.3429" gradientUnits="userSpaceOnUse">
<stop stop-color="#FCDC8F" stop-opacity="0.57"/>
<stop offset="0.767887" stop-color="#FCDC8F"/>
</linearGradient>
<linearGradient id="paint12_linear_450_103" x1="1388.58" y1="33.8022" x2="1389.18" y2="33.3714" gradientUnits="userSpaceOnUse">
<stop stop-color="#FCDC8F" stop-opacity="0.57"/>
<stop offset="0.767887" stop-color="#FCDC8F"/>
</linearGradient>
<linearGradient id="paint13_linear_450_103" x1="1440.19" y1="33.8555" x2="1440.76" y2="33.3882" gradientUnits="userSpaceOnUse">
<stop stop-color="#FCDC8F" stop-opacity="0.57"/>
<stop offset="0.767887" stop-color="#FCDC8F"/>
</linearGradient>
<linearGradient id="paint14_linear_450_103" x1="1485.51" y1="33.8625" x2="1486.07" y2="33.3905" gradientUnits="userSpaceOnUse">
<stop stop-color="#FCDC8F" stop-opacity="0.57"/>
<stop offset="0.767887" stop-color="#FCDC8F"/>
</linearGradient>
<linearGradient id="paint15_linear_450_103" x1="604.693" y1="34.9541" x2="603.977" y2="34.7204" gradientUnits="userSpaceOnUse">
<stop stop-color="#FCDC8F" stop-opacity="0.57"/>
<stop offset="0.767887" stop-color="#FCDC8F"/>
</linearGradient>
<linearGradient id="paint16_linear_450_103" x1="555.203" y1="34.9784" x2="554.506" y2="34.7003" gradientUnits="userSpaceOnUse">
<stop stop-color="#FCDC8F" stop-opacity="0.57"/>
<stop offset="0.767887" stop-color="#FCDC8F"/>
</linearGradient>
<linearGradient id="paint17_linear_450_103" x1="506.172" y1="34.6357" x2="505.514" y2="34.2847" gradientUnits="userSpaceOnUse">
<stop stop-color="#FCDC8F" stop-opacity="0.57"/>
<stop offset="0.767887" stop-color="#FCDC8F"/>
</linearGradient>
<linearGradient id="paint18_linear_450_103" x1="444.742" y1="35.083" x2="444.073" y2="34.7512" gradientUnits="userSpaceOnUse">
<stop stop-color="#FCDC8F" stop-opacity="0.57"/>
<stop offset="0.767887" stop-color="#FCDC8F"/>
</linearGradient>
<linearGradient id="paint19_linear_450_103" x1="390.565" y1="34.6357" x2="389.907" y2="34.2847" gradientUnits="userSpaceOnUse">
<stop stop-color="#FCDC8F" stop-opacity="0.57"/>
<stop offset="0.767887" stop-color="#FCDC8F"/>
</linearGradient>
<linearGradient id="paint20_linear_450_103" x1="330.185" y1="33.6088" x2="330.794" y2="34.026" gradientUnits="userSpaceOnUse">
<stop stop-color="#FCDC8F" stop-opacity="0.57"/>
<stop offset="0.767887" stop-color="#FCDC8F"/>
</linearGradient>
<linearGradient id="paint21_linear_450_103" x1="276.017" y1="33.6299" x2="276.637" y2="34.0339" gradientUnits="userSpaceOnUse">
<stop stop-color="#FCDC8F" stop-opacity="0.57"/>
<stop offset="0.767887" stop-color="#FCDC8F"/>
</linearGradient>
<linearGradient id="paint22_linear_450_103" x1="227.561" y1="34.6461" x2="226.909" y2="34.2875" gradientUnits="userSpaceOnUse">
<stop stop-color="#FCDC8F" stop-opacity="0.57"/>
<stop offset="0.767887" stop-color="#FCDC8F"/>
</linearGradient>
<linearGradient id="paint23_linear_450_103" x1="178" y1="34.7468" x2="177.402" y2="34.316" gradientUnits="userSpaceOnUse">
<stop stop-color="#FCDC8F" stop-opacity="0.57"/>
<stop offset="0.767887" stop-color="#FCDC8F"/>
</linearGradient>
<linearGradient id="paint24_linear_450_103" x1="126.388" y1="34.8001" x2="125.824" y2="34.3328" gradientUnits="userSpaceOnUse">
<stop stop-color="#FCDC8F" stop-opacity="0.57"/>
<stop offset="0.767887" stop-color="#FCDC8F"/>
</linearGradient>
<linearGradient id="paint25_linear_450_103" x1="81.0742" y1="34.8072" x2="80.5148" y2="34.3351" gradientUnits="userSpaceOnUse">
<stop stop-color="#FCDC8F" stop-opacity="0.57"/>
<stop offset="0.767887" stop-color="#FCDC8F"/>
</linearGradient>
<linearGradient id="paint26_linear_450_103" x1="41.4972" y1="35.7518" x2="40.9378" y2="35.2798" gradientUnits="userSpaceOnUse">
<stop stop-color="#FCDC8F" stop-opacity="0.57"/>
<stop offset="0.767887" stop-color="#FCDC8F"/>
</linearGradient>
<linearGradient id="paint27_linear_450_103" x1="705.563" y1="34.4101" x2="706.293" y2="34.603" gradientUnits="userSpaceOnUse">
<stop stop-color="#FCDC8F" stop-opacity="0.57"/>
<stop offset="0.767887" stop-color="#FCDC8F"/>
</linearGradient>
<linearGradient id="paint28_linear_450_103" x1="653.309" y1="33.7612" x2="653.997" y2="34.0586" gradientUnits="userSpaceOnUse">
<stop stop-color="#FCDC8F" stop-opacity="0.57"/>
<stop offset="0.767887" stop-color="#FCDC8F"/>
</linearGradient>
<linearGradient id="paint29_linear_450_103" x1="4.00293" y1="33.8625" x2="3.44353" y2="33.3905" gradientUnits="userSpaceOnUse">
<stop stop-color="#FCDC8F" stop-opacity="0.57"/>
<stop offset="0.767887" stop-color="#FCDC8F"/>
</linearGradient>
<linearGradient id="paint30_linear_450_103" x1="1530.29" y1="33.8625" x2="1530.85" y2="33.3905" gradientUnits="userSpaceOnUse">
<stop stop-color="#FCDC8F" stop-opacity="0.57"/>
<stop offset="0.767887" stop-color="#FCDC8F"/>
</linearGradient>
</defs>
</svg>
