<svg width="1912" height="893" viewBox="0 0 1912 893" fill="none" xmlns="http://www.w3.org/2000/svg">
<path d="M1533.4 45.199C1545.81 45.199 1555.88 35.0897 1555.88 22.6191C1555.88 10.1486 1545.81 0.0390625 1533.4 0.0390625C1520.99 0.0390625 1510.93 10.1486 1510.93 22.6191C1510.93 35.0897 1520.99 45.199 1533.4 45.199Z" fill="white"/>
<path d="M295.703 90.0703C308.116 90.0703 318.178 79.9608 318.178 67.4902C318.178 55.0196 308.116 44.9102 295.703 44.9102C283.291 44.9102 273.229 55.0196 273.229 67.4902C273.229 79.9608 283.291 90.0703 295.703 90.0703Z" fill="white"/>
<path d="M332.282 300.751C347.064 300.751 359.047 288.712 359.047 273.861C359.047 259.01 347.064 246.971 332.282 246.971C317.5 246.971 305.518 259.01 305.518 273.861C305.518 288.712 317.5 300.751 332.282 300.751Z" fill="white"/>
<path d="M1271.85 379.45C1286.63 379.45 1298.61 367.411 1298.61 352.56C1298.61 337.709 1286.63 325.67 1271.85 325.67C1257.07 325.67 1245.08 337.709 1245.08 352.56C1245.08 367.411 1257.07 379.45 1271.85 379.45Z" fill="white"/>
<path d="M1424.19 249.51C1432.29 249.51 1438.85 242.92 1438.85 234.79C1438.85 226.661 1432.29 220.07 1424.19 220.07C1416.1 220.07 1409.54 226.661 1409.54 234.79C1409.54 242.92 1416.1 249.51 1424.19 249.51Z" fill="white"/>
<path d="M573.352 354.77C581.444 354.77 588.004 348.18 588.004 340.05C588.004 331.92 581.444 325.33 573.352 325.33C565.261 325.33 558.701 331.92 558.701 340.05C558.701 348.18 565.261 354.77 573.352 354.77Z" fill="white"/>
<path d="M889.858 276.401C897.95 276.401 904.51 269.811 904.51 261.681C904.51 253.551 897.95 246.961 889.858 246.961C881.767 246.961 875.207 253.551 875.207 261.681C875.207 269.811 881.767 276.401 889.858 276.401Z" fill="white"/>
<g filter="url(#filter0_d_756_96)">
<path fill-rule="evenodd" clip-rule="evenodd" d="M2020.22 221.53C2020.22 113.45 1933.01 25.8296 1825.43 25.8296C1762.7 25.8296 1706.9 55.6294 1671.28 101.909C1667.41 93.8894 1661.78 86.6694 1654.56 80.8894C1659.75 78.1894 1664.21 73.9695 1667.21 68.4395C1675.26 53.6495 1669.85 35.1095 1655.13 27.0295C1640.41 18.9495 1621.96 24.3794 1613.91 39.1694C1608.93 48.3294 1609.12 58.9296 1613.48 67.5996C1593.14 68.6796 1573.81 79.9995 1563.32 99.2795C1547.24 128.86 1558.06 165.94 1587.5 182.1C1602.19 190.17 1618.75 191.499 1633.64 187.129C1631.67 198.299 1630.64 209.8 1630.64 221.54C1630.64 251.79 1637.47 280.43 1649.67 306C1634.43 309.78 1619.72 314.91 1605.67 321.28C1602.37 295.27 1587.15 271.15 1562.5 257.62C1549.64 250.56 1535.76 247.219 1522.07 247.24C1522.15 237.639 1517.12 228.309 1508.14 223.379C1495.17 216.259 1478.91 221.05 1471.82 234.08C1466.72 243.45 1467.76 254.539 1473.56 262.669C1463.32 269.899 1454.52 279.53 1448.11 291.32C1435.73 314.08 1434.85 340.039 1443.47 362.469C1413.05 365.189 1385.95 379.55 1366.63 401.08C1363.26 398.15 1359.55 395.53 1355.48 393.3C1325.03 376.58 1286.98 387.439 1269.73 417.479C1241.71 397.319 1207.38 385.459 1170.29 385.459C1139.49 385.459 1110.59 393.649 1085.64 407.969C1038.99 341.709 962.13 298.449 875.207 298.449C817.587 298.449 764.387 317.47 721.478 349.59C720.502 337.94 713.913 326.989 702.935 320.959C685.556 311.419 663.768 317.84 654.263 335.3C644.767 352.76 651.157 374.649 668.536 384.199C672.268 386.249 676.21 387.559 680.191 388.189C670.347 399.639 661.479 411.97 653.735 425.05C619.675 395.73 575.432 378.01 527.059 378.01C504.266 378.01 482.398 381.959 462.064 389.179C463.626 364.649 451.274 340.259 428.392 327.699C396.909 310.409 357.434 322.039 340.225 353.669C339.1 355.739 338.105 357.839 337.219 359.969C304.95 337.789 267.406 322.8 226.856 317.29C230.002 303.33 231.674 288.799 231.674 273.889C231.674 242.269 224.199 212.409 210.941 185.969C235.197 177.959 252.715 155.04 252.715 127.99C252.715 97.8995 231.027 72.9094 202.51 67.8894C205.765 63.0294 207.676 57.1696 207.676 50.8696C207.676 34.0196 194.08 20.3496 177.299 20.3496C160.517 20.3496 146.921 34.0096 146.921 50.8696C146.921 61.3096 152.146 70.5195 160.109 76.0295C149.141 82.8295 140.501 93.0394 135.624 105.179C106.67 88.0394 72.9178 78.1895 36.8768 78.1895C-70.699 78.1895 -157.91 165.809 -157.91 273.889C-157.91 355.709 -107.924 425.79 -36.977 455.02C-55.2713 490.57 -65.6128 530.929 -65.6128 573.709C-65.6128 716.639 49.7166 832.5 191.97 832.5C278.594 832.5 355.224 789.54 401.916 723.68C435.767 752.22 479.402 769.41 527.049 769.41C582.011 769.41 631.649 746.53 667.073 709.74C713.923 774.17 789.688 816.04 875.187 816.04C960.686 816.04 1038.97 772.78 1085.62 706.52C1110.58 720.84 1139.48 729.029 1170.27 729.029C1188.44 729.029 1205.95 726.169 1222.37 720.899C1242.42 814.359 1325.15 884.41 1424.16 884.41C1496.94 884.41 1560.92 846.569 1597.68 789.399C1632.03 806.449 1670.7 816.04 1711.6 816.04C1853.86 816.04 1969.18 700.169 1969.18 557.25C1969.18 496.39 1948.26 440.44 1913.26 396.25C1976.69 363.98 2020.19 297.87 2020.19 221.55L2020.22 221.53Z" fill="white"/>
</g>
<defs>
<filter id="filter0_d_756_96" x="-161.91" y="20.3496" width="2186.13" height="872.061" filterUnits="userSpaceOnUse" color-interpolation-filters="sRGB">
<feFlood flood-opacity="0" result="BackgroundImageFix"/>
<feColorMatrix in="SourceAlpha" type="matrix" values="0 0 0 0 0 0 0 0 0 0 0 0 0 0 0 0 0 0 127 0" result="hardAlpha"/>
<feOffset dy="4"/>
<feGaussianBlur stdDeviation="2"/>
<feComposite in2="hardAlpha" operator="out"/>
<feColorMatrix type="matrix" values="0 0 0 0 0 0 0 0 0 0 0 0 0 0 0 0 0 0 0.25 0"/>
<feBlend mode="normal" in2="BackgroundImageFix" result="effect1_dropShadow_756_96"/>
<feBlend mode="normal" in="SourceGraphic" in2="effect1_dropShadow_756_96" result="shape"/>
</filter>
</defs>
</svg>
