<svg width="358" height="462" viewBox="0 0 358 462" fill="none" xmlns="http://www.w3.org/2000/svg">
<path d="M302.101 443.896H56.2509C36.4509 443.896 20.4009 427.846 20.4009 408.046V162.346C20.4009 142.546 36.4509 126.496 56.2509 126.496H301.951C321.751 126.496 337.801 142.546 337.801 162.346V408.046C337.951 427.846 321.901 443.896 302.101 443.896Z" fill="#CA6E91"/>
<path d="M254.251 70.9913H104.101C99.7508 70.9913 96.3008 68.2915 96.3008 65.1415V6.19141H262.051V65.1415C262.051 68.4415 258.601 70.9913 254.251 70.9913Z" fill="#633A14"/>
<path d="M262.051 6.79297C262.051 3.04297 225.001 0.0429688 179.101 0.0429688C133.351 0.0429688 96.1509 3.04297 96.1509 6.79297C96.1509 10.543 133.201 13.543 179.101 13.543C190.201 13.543 200.701 13.3929 210.451 13.0929L219.151 31.3932L228.301 12.1931C248.851 10.8431 262.051 8.89297 262.051 6.79297Z" fill="#FFB23E"/>
<path opacity="0.2" d="M317.401 104.745H231.601V78.9453H127.051V104.745H41.2509C19.0509 104.745 0.900879 122.745 0.900879 145.095V421.395C0.900879 443.595 18.9009 461.745 41.2509 461.745H317.551C339.751 461.745 357.901 443.745 357.901 421.395V145.095C357.601 122.745 339.601 104.745 317.401 104.745Z" fill="#89BEAA"/>
<path opacity="0.66" d="M259.652 79.6894H98.7017C93.6017 79.6894 89.5518 75.6393 89.5518 70.5393V47.5892C89.5518 42.4892 93.6017 38.4395 98.7017 38.4395H259.652C264.752 38.4395 268.802 42.4892 268.802 47.5892V70.5393C268.802 75.6393 264.752 79.6894 259.652 79.6894Z" fill="#89BEAA"/>
<path opacity="0.66" d="M103.352 58.8398C106.252 58.8398 108.602 56.4893 108.602 53.5898C108.602 50.6903 106.252 48.3398 103.352 48.3398C100.453 48.3398 98.1021 50.6903 98.1021 53.5898C98.1021 56.4893 100.453 58.8398 103.352 58.8398Z" fill="#A6DDC6"/>
<path opacity="0.66" d="M142.502 58.6901H118.352C115.652 58.6901 113.402 56.44 113.402 53.74V53.2899C113.402 50.5899 115.652 48.3398 118.352 48.3398H142.502C145.202 48.3398 147.452 50.5899 147.452 53.2899V53.74C147.452 56.59 145.202 58.6901 142.502 58.6901Z" fill="#A6DDC6"/>
<path d="M285.301 233.595C283.201 213.945 275.251 197.595 257.701 187.245C247.801 181.395 236.851 178.395 225.451 178.395C193.201 178.245 160.801 177.645 128.551 178.995C97.3509 180.195 75.1509 202.995 73.3509 234.045C71.2509 267.795 71.2509 301.695 73.3509 335.445C75.3009 366.795 97.5009 388.545 128.851 390.945C137.101 391.545 145.351 391.845 153.451 392.295C170.701 392.295 187.801 392.295 205.051 392.295C210.451 391.995 215.851 391.695 221.401 391.545C231.751 391.245 241.801 389.745 251.251 385.695C270.751 377.145 281.101 361.695 284.551 341.145C285.751 333.795 285.751 326.295 286.201 318.945C286.351 316.695 286.501 314.295 286.801 312.045C286.801 293.895 286.801 275.745 286.801 257.595C286.201 249.495 286.051 241.545 285.301 233.595ZM266.251 330.195C266.101 343.695 261.751 356.145 249.751 364.245C242.101 369.495 233.401 371.595 224.401 371.745C209.251 372.045 194.251 371.895 179.101 371.895C164.101 371.895 149.101 372.345 134.101 371.745C120.451 371.295 108.001 367.395 99.6009 355.245C94.3509 347.595 92.1009 338.895 92.1009 329.895C91.8009 299.745 91.6509 269.445 92.1009 239.295C92.2509 225.795 96.4508 213.345 108.451 205.095C115.951 199.845 124.501 197.595 133.501 197.445C163.951 197.145 194.401 196.995 224.851 197.445C238.201 197.595 250.501 201.945 258.751 213.645C264.001 221.295 266.251 229.995 266.401 238.995C266.551 269.595 266.701 299.895 266.251 330.195Z" fill="#FCFCFC"/>
<path d="M179.251 229.696C148.801 229.846 124.201 254.596 124.201 284.746C124.201 315.196 149.101 339.946 179.551 339.796C209.701 339.646 234.301 314.746 234.301 284.446C234.151 254.446 209.251 229.546 179.251 229.696ZM179.101 320.446C159.451 320.446 143.551 304.396 143.551 284.596C143.551 264.796 159.451 249.046 179.401 249.046C199.051 249.046 214.951 264.946 214.951 284.596C214.951 304.546 199.051 320.446 179.101 320.446Z" fill="#FCFCFC"/>
<path d="M236.851 214.694C229.651 214.544 223.951 220.094 223.801 227.144C223.651 234.344 229.051 240.044 236.251 240.194C243.451 240.344 249.152 234.944 249.452 227.744C249.452 220.694 243.901 214.844 236.851 214.694Z" fill="#FCFCFC"/>
<path d="M55.9512 186.494C64.6497 186.494 71.7012 179.443 71.7012 170.744C71.7012 162.046 64.6497 154.994 55.9512 154.994C47.2527 154.994 40.2012 162.046 40.2012 170.744C40.2012 179.443 47.2527 186.494 55.9512 186.494Z" fill="#ED88B1"/>
<path d="M40.2009 211.246C44.5087 211.246 48.0009 207.754 48.0009 203.446C48.0009 199.139 44.5087 195.646 40.2009 195.646C35.8931 195.646 32.4009 199.139 32.4009 203.446C32.4009 207.754 35.8931 211.246 40.2009 211.246Z" fill="#ED88B1"/>
<path d="M294.601 414.041C298.909 414.041 302.401 410.549 302.401 406.241C302.401 401.934 298.909 398.441 294.601 398.441C290.293 398.441 286.801 401.934 286.801 406.241C286.801 410.549 290.293 414.041 294.601 414.041Z" fill="#ED88B1"/>
</svg>
