<svg width="909" height="212" viewBox="0 0 909 212" fill="none" xmlns="http://www.w3.org/2000/svg">
<path d="M20.9489 50.7407L2.79395 39.3105L56.7013 39.7207L20.9489 50.7407Z" fill="#3B2412"/>
<path d="M3.35118 16.9897L17.1266 4.00977L884.411 0.269531L884.013 36.7095L838.417 41.7598L890.105 46.5098L882.998 129.6L849.375 143.97L882.789 148.33L882.291 193.229L13.5135 191.83L9.20375 189.49L9.81089 134.07L35.6996 118.61L7.54152 115.58L8.24823 51.1694L19.4059 51.2495L55.7854 39.9795L3.1123 39.5796L3.36114 16.9995L3.35118 16.9897Z" fill="#E59F5E"/>
<path d="M19.1667 128.48L7.53125 115.561L35.6893 118.591L19.1567 128.471L19.1667 128.48Z" fill="#3B2412"/>
<path d="M27.9061 207.331L13.832 191.311L882.6 193.23L898.207 211.311L27.9061 207.331Z" fill="#623B17"/>
<path d="M898.744 162.039L882.48 147.799L881.982 192.958L898.206 211.299L898.744 162.029V162.039Z" fill="#623B17"/>
<path d="M906.04 62.019L887.945 45.459L880.838 128.549L898.644 143.309L906.04 62.019Z" fill="#623B17"/>
<path d="M908.688 18.1597L882.232 0.509766L881.844 36.4297L908.369 47.4097L908.499 35.6099L908.688 18.1597Z" fill="#623B17"/>
<path d="M908.986 47.6694L894.076 51.1494L888.552 46.2295L836.854 41.7397L882.461 36.1797L908.986 47.6694Z" fill="#3B2412"/>
<g opacity="0.05">
<path d="M881.813 11.0293C873.85 11.9593 864.315 14.1894 856.392 15.3794C830.255 19.3194 803.908 21.8594 777.462 23.8794C686.13 30.8694 594.43 28.3292 502.849 27.6392C465.027 27.3592 427.582 27.419 389.829 28.999C367.076 29.959 345.935 28.3692 323.719 24.6792C301.145 20.9292 273.763 23.2493 251.149 23.0293C220.831 22.7293 191.001 18.9494 160.832 17.8794C148.968 17.4594 137.372 16.8691 125.727 14.8491C119.566 13.7791 113.494 12.9489 107.174 12.8989C99.9578 12.8489 93.1896 14.4793 86.1525 14.5493C72.4169 14.6893 59.169 15.8893 45.6922 18.0693C34.425 19.8893 24.6807 22.2389 13.1149 22.1489C8.9743 22.1189 9.15344 20.6291 5.4707 20.5991" stroke="black" stroke-width="8" stroke-linecap="round"/>
<path d="M5.43209 30.9398C7.24359 31.1198 3.69025 30.7602 5.43209 31.0902C9.44328 31.8602 14.5394 31.2101 18.6601 31.2401C24.3235 31.2801 30.7335 32.0198 36.3173 31.1698C41.5926 30.3698 46.3403 28.6401 51.7649 28.0701C60.7727 27.1201 69.8302 27.3798 78.848 26.6698C95.4601 25.3598 107.394 29.66 124.046 28.62C139.842 27.63 158.694 32.1001 174.51 32.2201C192.465 32.3601 212.671 29.24 230.278 32.64C260.765 38.53 287.181 42.1401 318.116 46.9701C352.595 52.3501 387.113 58.2402 421.472 64.1302C457.642 70.3302 494.788 75.5401 531.805 75.8201C549.343 75.9501 566.89 75.3399 584.488 75.3099C610.137 75.2699 633.15 59.5898 656.888 53.2298C676.218 48.0598 695.189 40.3498 714.916 36.4798C745.284 30.5198 776.279 36.0399 806.925 36.2699C813.733 36.3199 823.358 37.0599 829.051 33.2699C833.053 30.6099 841.712 27.8099 846.957 27.5199C853.517 27.1699 859.648 24.9 866.406 24.95C871.662 24.99 876.927 25.0301 882.182 25.0701" stroke="black" stroke-width="8" stroke-linecap="round"/>
<path d="M10.8761 65.2895C29.5187 65.4295 39.7607 65.4098 58.1943 62.7998C83.8639 59.1698 109.603 55.8594 135.323 52.4194C157.041 49.5194 177.833 45.9994 199.91 46.1694C220.026 46.3194 240.868 45.1794 260.695 48.4394C291.222 53.4494 320.833 60.7196 351.679 64.3096C356.964 64.9296 362.488 65.1898 367.813 65.5898C372.551 65.9398 376.313 68.4396 380.822 69.3096C382.663 69.6596 384.544 73.1395 384.584 74.5195C384.724 78.6695 381.071 80.5097 376.622 81.1997C367.843 82.5597 360.975 79.1595 352.505 77.7495C344.98 76.4995 335.982 76.6097 328.358 77.2197C320.485 77.8397 312.661 79.6698 304.888 80.8598C294.915 82.3898 283.777 81.1999 273.684 81.1299C248.562 80.9399 223.818 84.1794 198.755 84.1894C183.925 84.1894 168.866 85.3894 154.065 86.1694C143.405 86.7294 132.466 86.6097 121.876 87.7397C116.71 88.2897 111.654 89.5595 106.438 89.7895C84.7 90.7195 61.4391 93.6395 40.7859 99.4995C37.0832 100.549 8.82566 108.13 6.1084 103.52" stroke="black" stroke-width="8" stroke-linecap="round"/>
<path d="M34.5244 118.22C54.889 118.37 75.2933 117.62 95.7076 117.78C139.572 118.11 183.317 122.34 227.251 121.43C239.951 121.17 252.672 119.689 265.392 119.249C277.416 118.839 289.221 118.99 301.105 117.01C321.658 113.57 340.719 108.95 360.307 103.03C371.395 99.6798 381.767 95.6198 391.82 90.5498C397.762 87.5598 404.052 87.0795 410.442 85.5595C426.447 81.7595 447.13 86.6995 463.344 87.7695C474.502 88.4995 485.998 88.7596 497.196 89.0796C510.862 89.4696 524.926 90.9294 538.572 90.1494C547.141 89.6594 554.806 88.7896 563.127 87.1196C573.538 85.0296 584.218 84.6698 594.738 83.0898C617.352 79.6798 639.877 77.1695 662.282 72.7895C671.737 70.9395 680.656 67.7098 690.33 66.5698C699.109 65.5298 707.858 65.5896 716.637 64.0996C723.415 62.9496 733.518 58.4795 740.465 60.3095C744.974 61.4995 748.488 64.5798 752.658 66.2798C758.72 68.7498 765.747 70.3396 772.455 71.0996C779.871 71.9496 787.107 71.5596 794.532 72.8696C802.923 74.3496 811.084 76.1595 819.356 77.9795C834.047 81.2195 848.27 82.1695 863.23 83.5395C870.536 84.2095 877.722 85.3596 884.431 82.6396" stroke="black" stroke-width="8" stroke-linecap="round"/>
<path d="M11.165 151.769C51.924 152.079 88.1641 163.719 128.903 165.529C155.976 166.729 183.348 166.999 210.421 165.719C231.005 164.749 251.966 165.308 272.44 163.208C342.661 155.988 408.393 132.219 477.688 121.769C499.178 118.529 520.607 119.219 542.335 119.379C554.438 119.469 565.765 119.709 577.709 121.139C596.153 123.339 613.75 127.929 632.015 130.589C649.851 133.189 667.449 135.698 685.385 137.478C697.438 138.678 710.198 137.879 722.322 137.969C733.838 138.059 745.622 138.768 757.079 137.748C767.251 136.848 777.572 137.568 787.785 137.498C797.36 137.428 806.915 135.909 816.45 135.799C826.085 135.689 835.212 133.069 845.066 133.139C851.914 133.189 858.752 134.198 865.291 134.248" stroke="black" stroke-width="8" stroke-linecap="round"/>
<path d="M879.932 169.799C865.738 169.689 851.465 169.919 837.282 169.269C816.27 168.289 795.507 164.809 774.516 163.479C750.24 161.939 725.406 161.939 701.05 161.759C669.279 161.519 637.508 161.279 605.727 161.039C577.32 160.829 548.893 161.389 520.706 158.699C500.092 156.739 479.121 157.679 458.756 160.889C454.635 161.539 450.286 162.139 446.394 163.459C444.214 164.199 440.601 163.629 438.431 163.669C428 163.869 417.519 164.899 407.188 166.039C372.351 169.889 339.784 178.199 304.409 177.929C287.628 177.799 271.325 174.809 254.722 174.679C223.121 174.439 191.539 173.249 159.857 173.009C145.126 172.899 131.739 173.589 117.237 175.559C104.069 177.349 91.3482 177.279 78.0306 177.179C60.2241 177.049 40.3971 178.879 23.7352 172.459C19.9828 171.009 15.9317 168.899 12.2291 167.109C10.2285 166.139 11.2039 167.529 10.3877 166.149" stroke="black" stroke-width="8" stroke-linecap="round"/>
<path d="M883.007 99.9094C858.621 99.7294 833.051 100.969 809.033 96.9593C799.966 95.4493 790.769 95.2494 781.901 92.8694C770.275 89.7494 759.665 87.8495 747.333 87.4495C732.89 86.9795 718.368 87.1796 703.916 87.0696C688.409 86.9496 674.026 88.9493 658.778 90.7693C637.348 93.3393 612.654 90.7095 592.269 98.1995C586.188 100.429 579.44 100.789 573.706 103.749C569.178 106.089 571.736 105.909 575.866 106.269C581.002 106.709 587.074 108.56 592.021 109.74C600.929 111.88 610.176 113.359 618.935 115.369C637.03 119.509 658.001 117.37 676.594 117.51C698.591 117.68 717.99 112.489 738.335 105.579C749.881 101.659 762.84 98.0494 775.411 98.1394C788.39 98.2394 799.836 103.789 812.407 104.159C824.292 104.519 836.067 106.25 847.971 106.34C852.938 106.38 856.471 106.339 860.92 108.139C863.08 109.009 867.947 110.21 870.147 110.34C873.65 110.54 878.607 111.04 881.693 112.34" stroke="black" stroke-width="8" stroke-linecap="round"/>
<path d="M879.305 121.909C852.809 121.709 849.724 113.549 823.367 113.349C808.746 113.239 789.735 105.969 775.113 105.859C756.351 105.719 719.335 120.709 700.732 120.569C686.976 120.469 673.052 125.099 659.336 124.989C647.183 124.899 633.328 123.349 620.02 121.969C601.557 121.829 587.841 114.779 569.855 111.439C561.106 109.819 553.074 106.789 544.753 104.119C532.252 100.109 518.148 98.1986 504.8 98.0186C486.785 97.7786 465.753 95.2587 448.873 101.639C441.129 104.569 433.096 107.039 425.144 109.549C415.788 112.499 410.015 112.539 399.673 113.029C378.522 114.019 357.999 118.999 337.325 122.559C322.764 125.069 308.063 126.709 293.441 128.989C283.398 130.549 273.126 131.959 263.382 134.509C248.153 138.489 231.691 137.569 215.934 138.199C187.468 139.339 158.743 142.709 130.316 143.089C113.475 143.309 96.9124 144.609 80.0912 142.499C69.68 141.189 60.294 137.539 50.1615 135.779C43.1842 134.569 36.7842 131.949 30.1154 129.879C26.8209 128.859 23.4666 128.919 20.4209 127.199" stroke="black" stroke-width="8" stroke-linecap="round"/>
</g>
<path d="M898.644 143.049L886.153 151.679L882.779 148.319L849.057 143.958L881.146 128.549L898.644 143.049Z" fill="#3B2412"/>
<path d="M88.3732 133.919C105.964 133.919 120.224 119.857 120.224 102.51C120.224 85.1625 105.964 71.0996 88.3732 71.0996C70.7825 71.0996 56.5225 85.1625 56.5225 102.51C56.5225 119.857 70.7825 133.919 88.3732 133.919Z" fill="#D9D9D8"/>
<path d="M110.191 79.9902L61.2305 118.51L64.1767 122.66L113.724 83.5503L110.181 79.9902H110.191Z" fill="#757575"/>
<path d="M799.3 117.119C816.891 117.119 831.151 103.056 831.151 85.7085C831.151 68.3612 816.891 54.2988 799.3 54.2988C781.709 54.2988 767.449 68.3612 767.449 85.7085C767.449 103.056 781.709 117.119 799.3 117.119Z" fill="#D9D9D8"/>
<path d="M821.118 63.1895L772.157 101.709L775.103 105.86L824.651 66.7495L821.108 63.1895H821.118Z" fill="#757575"/>
<path d="M275.133 132.381C264.263 132.381 254.992 128.544 249.237 121.404L260.746 107.763C264.689 112.878 268.846 115.543 273.641 115.543C279.716 115.543 283.019 111.813 283.019 104.672V72.5949H257.23V56.2897H303.907V103.394C303.907 122.789 293.89 132.381 275.133 132.381ZM346.177 131.848C327.314 131.848 313.567 119.379 313.567 101.902C313.567 84.5307 327.314 72.1686 346.177 72.1686C365.253 72.1686 378.788 84.5307 378.788 101.902C378.788 119.379 365.253 131.848 346.177 131.848ZM346.177 115.756C353.104 115.756 358.326 110.747 358.326 101.902C358.326 93.1629 353.104 88.2607 346.177 88.2607C339.357 88.2607 334.028 93.1629 334.028 101.902C334.028 110.747 339.357 115.756 346.177 115.756ZM398.292 66.7335C390.832 66.7335 385.929 62.0444 385.929 55.97C385.929 49.8955 390.832 45.2064 398.292 45.2064C405.751 45.2064 410.654 49.5758 410.654 55.6502C410.654 62.0444 405.751 66.7335 398.292 66.7335ZM388.167 130.889V73.1277H408.416V130.889H388.167ZM459.194 72.1686C472.728 72.1686 483.065 79.9482 483.065 97.852V130.889H462.817V101.156C462.817 92.8432 459.194 89.3264 453.332 89.3264C446.832 89.3264 441.823 93.376 441.823 102.967V130.889H421.575V73.1277H440.864V79.4154C445.446 74.6197 451.947 72.1686 459.194 72.1686ZM562.173 132.381C540.113 132.381 527.111 119.912 527.111 97.6388V56.2897H548.212V96.9994C548.212 109.788 553.541 114.903 562.386 114.903C571.125 114.903 576.453 109.788 576.453 96.9994V56.2897H597.234V97.6388C597.234 119.912 584.233 132.381 562.173 132.381ZM631.564 131.848C621.76 131.848 611.636 129.397 605.987 125.88L612.062 112.026C617.39 115.329 625.17 117.354 632.204 117.354C639.024 117.354 641.262 115.862 641.262 113.411C641.262 105.632 607.16 114.477 607.16 91.3512C607.16 80.4811 617.177 72.1686 635.294 72.1686C643.393 72.1686 652.345 73.8737 658.1 77.0708L652.026 90.8184C646.271 87.6213 640.516 86.5556 635.401 86.5556C628.58 86.5556 626.129 88.4738 626.129 90.6052C626.129 98.598 660.125 89.9658 660.125 112.878C660.125 123.535 650.32 131.848 631.564 131.848Z" fill="#763417"/>
</svg>
