<svg width="1560" height="672" viewBox="0 0 1560 672" fill="none" xmlns="http://www.w3.org/2000/svg">
<path d="M367.202 94.2921H248.102C244.652 94.2921 241.952 90.8423 241.952 86.6423V9.24219H373.502V86.6423C373.352 90.8423 370.502 94.2921 367.202 94.2921Z" fill="#633A14"/>
<path d="M534.601 462.69H97.2007C86.2507 462.69 77.2507 453.69 77.2507 442.74V285.54C77.2507 274.59 86.2507 265.59 97.2007 265.59H534.601C545.551 265.59 554.551 274.59 554.551 285.54V442.74C554.551 453.69 545.701 462.69 534.601 462.69Z" fill="#C9345A"/>
<path d="M131.851 309.989C138.561 309.989 144.001 304.549 144.001 297.839C144.001 291.129 138.561 285.689 131.851 285.689C125.14 285.689 119.701 291.129 119.701 297.839C119.701 304.549 125.14 309.989 131.851 309.989Z" fill="#E85B83"/>
<path d="M110.851 332.34C115.738 332.34 119.701 328.378 119.701 323.49C119.701 318.603 115.738 314.641 110.851 314.641C105.963 314.641 102.001 318.603 102.001 323.49C102.001 328.378 105.963 332.34 110.851 332.34Z" fill="#E85B83"/>
<path d="M526.05 410.34C530.938 410.34 534.9 406.378 534.9 401.49C534.9 396.603 530.938 392.641 526.05 392.641C521.163 392.641 517.2 396.603 517.2 401.49C517.2 406.378 521.163 410.34 526.05 410.34Z" fill="#E85B83"/>
<path d="M517.201 425.342C519.852 425.342 522.001 423.193 522.001 420.542C522.001 417.891 519.852 415.742 517.201 415.742C514.55 415.742 512.401 417.891 512.401 420.542C512.401 423.193 514.55 425.342 517.201 425.342Z" fill="#E85B83"/>
<path opacity="0.2" d="M552.601 249.836H438.751C383.401 249.836 338.401 204.986 338.401 149.486C338.401 132.386 342.751 116.186 350.251 102.086H267.301C274.801 116.186 279.151 132.236 279.151 149.486C279.151 204.836 234.301 249.836 178.801 249.836H79.2007C68.2507 249.836 59.2507 258.836 59.2507 269.786V458.486C59.2507 469.436 68.2507 478.436 79.2007 478.436H552.451C563.401 478.436 572.401 469.436 572.401 458.486V269.786C572.551 258.686 563.551 249.836 552.601 249.836Z" fill="#89BEAA"/>
<path opacity="0.66" d="M372.901 102.086H242.251C237.151 102.086 233.101 98.0362 233.101 92.9362V57.2361C233.101 52.1361 237.151 48.0859 242.251 48.0859H372.901C378.001 48.0859 382.051 52.1361 382.051 57.2361V92.9362C382.051 98.0362 377.851 102.086 372.901 102.086Z" fill="#89BEAA"/>
<path opacity="0.66" d="M251.251 74.6323C255.061 74.6323 258.151 71.5429 258.151 67.7322C258.151 63.9214 255.061 60.832 251.251 60.832C247.44 60.832 244.351 63.9214 244.351 67.7322C244.351 71.5429 247.44 74.6323 251.251 74.6323Z" fill="#A6DDC6"/>
<path opacity="0.66" d="M302.251 74.4874H271.051C267.301 74.4874 264.151 71.4873 264.151 67.5873C264.151 63.8373 267.151 60.6875 271.051 60.6875H302.251C306.001 60.6875 309.151 63.6873 309.151 67.5873C309.151 71.4873 306.151 74.4874 302.251 74.4874Z" fill="#A6DDC6"/>
<path d="M373.352 9.24048C373.352 4.44048 343.952 0.390625 307.652 0.390625C271.352 0.390625 241.952 4.29048 241.952 9.24048C241.952 14.0405 271.352 18.0903 307.652 18.0903C316.502 18.0903 324.902 17.7905 332.552 17.4905L339.452 41.6406L346.652 16.4405C362.852 14.6406 373.352 12.0905 373.352 9.24048Z" fill="#FFB23E"/>
<path d="M357.451 102.086H257.851V134.786H357.451V102.086Z" fill="#A977AB"/>
<path d="M441.969 141.926L349.155 115.129L344.287 131.991L437.1 158.788L441.969 141.926Z" fill="#A977AB"/>
<path d="M404.449 191.324L348.286 112.73L334.008 122.934L390.171 201.528L404.449 191.324Z" fill="#A977AB"/>
<path d="M153.45 620.346H72.6003V671.046H153.45V620.346Z" fill="#07556D"/>
<path d="M1508.85 620.346H1428V671.046H1508.85V620.346Z" fill="#07556D"/>
<path d="M602.551 478.297H11.5505V500.197H599.251V551.797H11.5505V573.697H602.701C615.451 573.697 625.651 563.347 625.651 550.747V501.247C625.651 488.647 615.301 478.297 602.551 478.297Z" fill="#DD5740"/>
<path d="M599.251 500.344H29.8506V551.944H599.251V500.344Z" fill="white"/>
<path d="M1559.7 573.844H0.150391V619.744H1559.7V573.844Z" fill="#138699"/>
<path d="M176.412 393.499C169.134 393.499 162.926 390.93 159.073 386.15L166.779 377.016C169.419 380.441 172.202 382.225 175.413 382.225C179.48 382.225 181.692 379.728 181.692 374.947V353.469H164.424V342.552H195.677V374.091C195.677 387.077 188.97 393.499 176.412 393.499ZM230.401 393.499C214.418 393.499 202.644 382.51 202.644 367.526C202.644 352.542 214.418 341.553 230.401 341.553C246.384 341.553 258.158 352.542 258.158 367.526C258.158 382.51 246.384 393.499 230.401 393.499ZM230.401 381.797C237.965 381.797 243.887 376.16 243.887 367.526C243.887 358.892 237.965 353.255 230.401 353.255C222.838 353.255 216.915 358.892 216.915 367.526C216.915 376.16 222.838 381.797 230.401 381.797ZM265.557 392.5V342.552H279.685V392.5H265.557ZM323.416 342.552H337.258V392.5H325.628L303.579 365.885V392.5H289.737V342.552H301.367L323.416 369.167V342.552ZM391.036 393.499C376.266 393.499 367.561 385.151 367.561 370.238V342.552H381.689V369.809C381.689 378.372 385.257 381.797 391.179 381.797C397.03 381.797 400.598 378.372 400.598 369.809V342.552H414.512V370.238C414.512 385.151 405.807 393.499 391.036 393.499ZM441.636 393.499C433.43 393.499 425.296 391.287 420.586 388.005L425.224 377.587C429.648 380.513 435.927 382.51 441.707 382.51C447.558 382.51 449.841 380.869 449.841 378.443C449.841 370.523 421.442 376.303 421.442 357.751C421.442 348.831 428.721 341.553 443.562 341.553C450.055 341.553 456.763 343.052 461.686 345.906L457.333 356.395C452.553 353.826 447.843 352.542 443.491 352.542C437.568 352.542 435.428 354.54 435.428 357.037C435.428 364.672 463.755 358.964 463.755 377.373C463.755 386.078 456.477 393.499 441.636 393.499Z" fill="white"/>
</svg>
