<svg width="1717" height="465" viewBox="0 0 1717 465" fill="none" xmlns="http://www.w3.org/2000/svg">
<path d="M78.2496 31.2539H6.09961C2.79961 31.2539 0.0996094 28.5539 0.0996094 25.2539V6.50391C0.0996094 3.20391 2.79961 0.503906 6.09961 0.503906H78.3996C81.6996 0.503906 84.3996 3.20391 84.3996 6.50391V25.1038C84.3996 28.5538 81.6996 31.2539 78.2496 31.2539Z" fill="#015B77"/>
<path d="M169 30.801H96.7C93.4 30.801 90.7 28.101 90.7 24.801V6.20117C90.7 2.90117 93.4 0.201172 96.7 0.201172H169C172.3 0.201172 175 2.90117 175 6.20117V24.801C175 27.951 172.3 30.801 169 30.801Z" fill="#015B77"/>
<path d="M123.7 68.301H51.3997C48.0997 68.301 45.3997 65.601 45.3997 62.301V43.7012C45.3997 40.4012 48.0997 37.7012 51.3997 37.7012H123.7C127 37.7012 129.7 40.4012 129.7 43.7012V62.301C129.7 65.601 127 68.301 123.7 68.301Z" fill="#015B77"/>
<path d="M1664.65 149.899H1592.5C1589.2 149.899 1586.5 147.199 1586.5 143.899V125.299C1586.5 121.999 1589.2 119.299 1592.5 119.299H1664.8C1668.1 119.299 1670.8 121.999 1670.8 125.299V143.899C1670.8 147.199 1668.1 149.899 1664.65 149.899Z" fill="#015B77"/>
<path d="M1710.1 186.952H1637.8C1634.5 186.952 1631.8 184.252 1631.8 180.952V162.352C1631.8 159.052 1634.5 156.352 1637.8 156.352H1710.1C1713.4 156.352 1716.1 159.052 1716.1 162.352V180.952C1716.1 184.252 1713.4 186.952 1710.1 186.952Z" fill="#015B77"/>
<path d="M1183.15 427.25H1110.85C1107.55 427.25 1104.85 424.55 1104.85 421.25V402.65C1104.85 399.35 1107.55 396.65 1110.85 396.65H1183.15C1186.45 396.65 1189.15 399.35 1189.15 402.65V421.25C1189.15 424.55 1186.45 427.25 1183.15 427.25Z" fill="#015B77"/>
<path d="M1273.75 426.795H1201.45C1198.15 426.795 1195.45 424.095 1195.45 420.795V402.195C1195.45 398.895 1198.15 396.195 1201.45 396.195H1273.75C1277.05 396.195 1279.75 398.895 1279.75 402.195V420.795C1279.9 424.095 1277.2 426.795 1273.75 426.795Z" fill="#015B77"/>
<path d="M1228.45 464.448H1156.15C1152.85 464.448 1150.15 461.748 1150.15 458.448V439.848C1150.15 436.548 1152.85 433.848 1156.15 433.848H1228.45C1231.75 433.848 1234.45 436.548 1234.45 439.848V458.448C1234.6 461.748 1231.9 464.448 1228.45 464.448Z" fill="#015B77"/>
<path d="M1228.45 389.897H1156.15C1152.85 389.897 1150.15 387.197 1150.15 383.897V365.297C1150.15 361.997 1152.85 359.297 1156.15 359.297H1228.45C1231.75 359.297 1234.45 361.997 1234.45 365.297V383.897C1234.6 387.197 1231.75 389.897 1228.45 389.897Z" fill="#015B77"/>
</svg>
