<svg width="964" height="473" viewBox="0 0 964 473" fill="none" xmlns="http://www.w3.org/2000/svg">
<path d="M668.127 40.0284C561.228 -3.66534 495.06 58.2332 475.324 94.6425C321.081 42.8118 261.525 141.546 251.021 197.388C217.425 197.388 181.659 242.436 167.986 264.966C80.1739 241.27 47.4017 313.713 42 352.905C54.2132 453.62 146.354 447.327 190.891 431.592C234.416 484.175 328.654 475.712 370.333 464.917C413.098 478.244 473.415 459.362 498.228 448.254C557.023 463.061 600.35 454.423 614.671 448.254C738.362 497.866 798.555 449.182 813.201 418.628C929.257 459.35 962.091 374.508 964 326.99C945.674 225.535 855.828 227.943 813.201 241.834C811.666 218.878 773.754 202.654 754.979 197.401C758.035 93.7272 698.342 49.2934 668.127 40.0406V40.0284Z" fill="white" fill-opacity="0.3"/>
<path d="M626.119 15.0285C519.221 -28.6655 453.041 33.2334 433.318 69.643C279.078 17.812 219.522 116.547 209.018 172.39C175.423 172.39 139.657 217.438 125.985 239.968C38.1735 216.272 5.40166 288.715 0 327.908C12.213 428.623 104.353 422.33 148.889 406.595C192.414 459.166 286.65 450.715 328.329 439.92C371.093 453.248 431.409 434.366 456.222 423.258C515.017 438.065 558.355 429.426 572.663 423.258C696.365 472.869 756.557 424.186 771.19 393.631C887.245 434.354 920.079 349.51 922 301.992C903.674 200.537 813.83 202.944 771.19 216.836C769.668 193.879 731.744 177.656 712.969 172.402C716.026 68.7277 656.345 24.2942 626.119 15.0414V15.0285Z" fill="white"/>
</svg>
