<svg width="370" height="484" viewBox="0 0 370 484" fill="none" xmlns="http://www.w3.org/2000/svg">
<path d="M267.749 154.795C269.399 155.995 270.299 157.195 270.599 158.695C272.249 169.945 227.249 185.995 169.949 194.545C112.649 202.945 64.7994 200.695 63.1494 189.445C62.9994 188.095 63.4495 186.745 64.4995 185.245C38.5495 214.045 22.6494 252.145 22.6494 293.995C22.6494 383.545 95.2494 455.995 184.649 455.995C274.199 455.995 346.649 383.395 346.649 293.995C346.649 234.745 314.999 183.145 267.749 154.795Z" fill="#0D3F41"/>
<path d="M265.95 153.746C266.55 154.046 267.151 154.496 267.751 154.796C267.151 154.346 266.55 154.046 265.95 153.746Z" fill="white"/>
<path d="M64.3501 185.248C65.1003 184.498 65.8505 183.598 66.6007 182.848C65.7005 183.598 64.9503 184.348 64.3501 185.248Z" fill="white"/>
<path d="M63.1493 189.296C64.7993 200.546 112.649 202.946 169.949 194.396C227.249 185.996 272.399 169.946 270.599 158.546C270.449 157.046 269.399 155.846 267.749 154.646C267.149 154.346 266.549 153.896 265.949 153.596C252.449 146.846 211.349 146.396 163.799 153.446C116.849 160.346 78.1494 172.346 66.5994 182.696C65.8494 183.446 65.0994 184.346 64.3494 185.096C63.2994 186.596 62.8493 188.096 63.1493 189.296Z" fill="#156D6D"/>
<path d="M333.9 102.748L251.1 62.0981C248.7 60.8981 247.95 57.5981 249.45 54.5981L275.85 0.898438L367.2 45.8984L340.8 99.7483C339.45 102.448 336.3 103.948 333.9 102.748Z" fill="#633A14"/>
<path d="M367.35 45.7481C369 42.4481 349.95 29.5481 324.6 17.2481C299.4 4.79813 277.5 -2.55172 275.85 0.89828C274.2 4.19828 293.25 17.0983 318.6 29.3983C324.75 32.3983 330.6 35.0981 336.15 37.4981L332.7 56.6982L346.35 41.6982C358.2 45.8982 366.3 47.6981 367.35 45.7481Z" fill="#FFB23E"/>
<path opacity="0.2" d="M296.55 151.199L318.9 105.599L255.9 74.5488L233.55 120.149C149.7 97.199 58.7997 136.199 19.0497 217.049C-25.9503 308.699 11.8497 419.549 103.5 464.549C195.15 509.549 306 471.749 351 380.099C390.6 299.399 365.85 203.549 296.55 151.199Z" fill="#89BEAA"/>
<path opacity="0.66" d="M330.899 111.596L243.749 68.8457C239.249 66.5957 237.449 61.1959 239.549 56.6959L249.899 35.5458C252.149 31.0458 257.549 29.2457 262.049 31.3457L349.199 74.0957C353.699 76.3457 355.499 81.7459 353.399 86.2459L343.049 107.396C340.799 112.046 335.399 113.846 330.899 111.596Z" fill="#89BEAA"/>
<path opacity="0.66" d="M259.949 52.3457C262.849 52.3457 265.199 49.9952 265.199 47.0957C265.199 44.1962 262.849 41.8457 259.949 41.8457C257.05 41.8457 254.699 44.1962 254.699 47.0957C254.699 49.9952 257.05 52.3457 259.949 52.3457Z" fill="#A6DDC6"/>
<path opacity="0.66" d="M293.698 69.5961L270.898 58.3461C268.648 57.1461 267.598 54.4461 268.798 52.0461L269.398 50.8461C270.598 48.5961 273.298 47.5462 275.698 48.7462L298.498 59.9962C300.748 61.1962 301.798 63.8961 300.598 66.2961L299.998 67.4962C298.798 69.7462 295.948 70.6461 293.698 69.5961Z" fill="#A6DDC6"/>
<path d="M247.95 235.648C247.35 236.398 246.9 236.848 246.45 237.448C242.55 241.648 238.65 245.698 234.75 249.898C230.85 253.948 227.1 258.148 223.2 262.198C219 266.698 214.8 271.198 210.75 275.548C206.7 279.898 202.8 284.098 198.75 288.448C198.45 288.748 198.15 289.198 197.85 289.498C197.4 289.948 197.55 290.398 197.85 290.698C199.35 292.648 200.85 294.748 202.35 296.698C203.55 298.348 204.9 299.998 206.1 301.648C207.9 304.048 209.7 306.448 211.35 308.848C213.6 311.998 216 315.148 218.25 318.148C220.8 321.598 223.35 325.048 226.05 328.348C228.45 331.498 230.85 334.798 233.25 337.948C235.8 341.398 238.35 344.848 240.9 348.298C243 351.148 245.1 353.848 247.2 356.698C248.7 358.648 250.05 360.598 251.55 362.398C251.7 362.548 251.7 362.698 251.85 362.848C252 363.298 251.85 363.598 251.4 363.748C251.1 363.748 250.65 363.748 250.35 363.748C238.5 363.748 226.65 363.748 214.8 363.748C213.6 363.748 212.85 363.298 212.25 362.398C209.85 359.098 207.3 355.798 204.75 352.498C200.7 347.098 196.8 341.698 192.75 336.298C190.35 333.148 188.1 329.998 185.7 326.848C183.9 324.448 182.1 321.898 180.3 319.498C178.95 317.698 177.75 316.048 176.4 314.398C176.25 314.248 176.1 314.098 176.1 313.948C175.5 313.348 175.35 313.348 174.75 313.948C170.85 318.148 166.8 322.348 162.9 326.698C159.9 329.998 156.75 333.148 153.75 336.448C150.45 340.048 147.15 343.498 143.7 347.098C139.35 351.748 135.15 356.398 130.8 360.898C130.2 361.648 129.45 362.248 128.85 362.998C128.55 363.448 128.1 363.598 127.5 363.598C124.5 363.598 121.5 363.598 118.65 363.598C118.5 363.598 118.35 363.598 118.05 363.598C117.75 363.448 117.6 363.298 117.75 362.998C117.9 362.698 118.05 362.548 118.35 362.248C122.55 357.748 126.9 353.098 131.1 348.598C133.65 345.898 136.2 343.048 138.9 340.348C142.35 336.748 145.8 332.998 149.1 329.398C152.4 325.948 155.55 322.498 158.85 318.898C160.95 316.498 163.2 314.248 165.3 311.848C166.35 310.798 167.4 309.748 168.3 308.698C168.75 308.248 169.2 307.648 169.65 307.198C170.25 306.598 170.25 306.298 169.8 305.698C168.45 303.748 166.95 301.948 165.6 299.998C162.45 295.798 159.45 291.598 156.3 287.548C154.2 284.698 151.95 281.698 149.85 278.848C145.8 273.448 141.75 267.898 137.7 262.498C135.15 259.048 132.45 255.598 129.9 252.148C127.05 248.398 124.35 244.648 121.5 240.898C120.3 239.398 119.1 237.748 118.05 236.248C117.9 235.948 117.6 235.648 117.75 235.348C117.9 235.198 118.35 235.048 118.65 235.048C120 235.048 121.35 235.048 122.55 235.048C133.35 235.048 144.15 235.048 154.95 235.048C156.15 235.048 156.9 235.348 157.65 236.398C159.9 239.548 162.3 242.548 164.55 245.698C167.55 249.598 170.4 253.648 173.4 257.548C176.4 261.448 179.25 265.348 182.25 269.248C185.25 273.298 188.25 277.348 191.25 281.398C192.3 282.898 192.45 282.898 193.65 281.548C196.35 278.548 199.2 275.698 201.9 272.698C203.55 270.898 205.05 269.098 206.7 267.448C208.65 265.348 210.6 263.248 212.55 261.148C214.5 259.198 216.3 257.098 218.1 255.148C220.8 252.298 223.35 249.598 226.05 246.748C228.3 244.348 230.4 241.948 232.65 239.698C234 238.348 235.2 236.998 236.55 235.498C237 235.048 237.45 234.898 238.05 234.898C241.05 234.898 243.9 234.898 246.9 234.898C247.05 235.348 247.35 235.498 247.95 235.648ZM143.25 243.898C140.55 243.898 137.85 243.898 135.15 243.898C134.85 243.898 134.4 244.048 134.25 244.198C134.1 244.348 134.25 244.798 134.4 245.098C135.45 246.598 136.5 247.948 137.55 249.448C139.8 252.298 141.9 255.148 144.15 258.148C146.1 260.698 147.9 263.248 149.85 265.798C152.1 268.798 154.35 271.798 156.6 274.798C158.25 277.048 159.9 279.298 161.7 281.548C163.35 283.648 164.85 285.748 166.5 287.848C168.75 290.998 171.15 293.998 173.4 297.148C174.9 299.098 176.4 301.198 177.9 303.148C180.45 306.598 183 309.898 185.55 313.348C187.2 315.598 189 317.848 190.65 320.098C192.75 322.948 194.85 325.648 196.8 328.498C199.05 331.498 201.15 334.348 203.4 337.198C207.6 342.898 211.95 348.598 216.15 354.298C216.9 355.198 217.65 355.648 218.85 355.648C223.95 355.648 229.05 355.648 234.3 355.648C234.45 355.648 234.75 355.648 234.9 355.648C235.5 355.498 235.65 355.198 235.35 354.598C235.35 354.448 235.2 354.448 235.2 354.298C233.1 351.448 230.85 348.448 228.75 345.598C226.95 343.048 225 340.648 223.2 338.098C220.8 334.948 218.55 331.948 216.15 328.798C214.5 326.698 212.85 324.448 211.35 322.348C209.25 319.498 207.15 316.798 205.05 313.948C203.4 311.848 201.9 309.748 200.4 307.648C197.25 303.448 194.25 299.398 191.1 295.198C189 292.348 186.9 289.498 184.8 286.798C181.5 282.298 178.05 277.948 174.6 273.448C172.35 270.598 170.25 267.598 168 264.598C165 260.548 162 256.648 159 252.748C157.05 250.198 155.25 247.798 153.45 245.098C152.85 244.198 152.1 243.898 151.05 243.898C148.35 243.898 145.8 243.898 143.25 243.898Z" fill="white"/>
<path d="M61.4996 241.796C66.1388 241.796 69.8995 238.035 69.8995 233.396C69.8995 228.757 66.1388 224.996 61.4996 224.996C56.8604 224.996 53.0996 228.757 53.0996 233.396C53.0996 238.035 56.8604 241.796 61.4996 241.796Z" fill="#156D6D"/>
<path d="M47.6998 260.097C50.6821 260.097 53.0998 257.679 53.0998 254.697C53.0998 251.715 50.6821 249.297 47.6998 249.297C44.7174 249.297 42.2998 251.715 42.2998 254.697C42.2998 257.679 44.7174 260.097 47.6998 260.097Z" fill="#156D6D"/>
</svg>
