<svg width="1281" height="611" viewBox="0 0 1281 611" fill="none" xmlns="http://www.w3.org/2000/svg">
<path d="M1240.48 135.081V590.284" stroke="url(#paint0_linear_934_22)" stroke-width="10" stroke-miterlimit="10"/>
<path d="M1173.84 82.9653V590.284" stroke="url(#paint1_linear_934_22)" stroke-width="10" stroke-miterlimit="10"/>
<path d="M1107.19 55.0679V590.276" stroke="url(#paint2_linear_934_22)" stroke-width="10" stroke-miterlimit="10"/>
<path d="M1040.53 46.7695V590.284" stroke="url(#paint3_linear_934_22)" stroke-width="10" stroke-miterlimit="10"/>
<path d="M842.201 95.646V592.065" stroke="url(#paint4_linear_934_22)" stroke-width="10" stroke-miterlimit="10"/>
<path d="M908.845 67.8042V592.064" stroke="url(#paint5_linear_934_22)" stroke-width="10" stroke-miterlimit="10"/>
<path d="M975.499 50.2402V592.056" stroke="url(#paint6_linear_934_22)" stroke-width="10" stroke-miterlimit="10"/>
<path d="M444.424 340.703V596.852" stroke="url(#paint7_linear_934_22)" stroke-width="10" stroke-miterlimit="10"/>
<path d="M511.069 299.559V596.852" stroke="url(#paint8_linear_934_22)" stroke-width="10" stroke-miterlimit="10"/>
<path d="M577.722 248.936V596.844" stroke="url(#paint9_linear_934_22)" stroke-width="10" stroke-miterlimit="10"/>
<path d="M643.124 205.845V588.353" stroke="url(#paint10_linear_934_22)" stroke-width="10" stroke-miterlimit="10"/>
<path d="M709.778 168.508V588.776" stroke="url(#paint11_linear_934_22)" stroke-width="10" stroke-miterlimit="10"/>
<path d="M776.422 130.764V588.768" stroke="url(#paint12_linear_934_22)" stroke-width="10" stroke-miterlimit="10"/>
<path d="M50.6986 256.117V610.417" stroke="url(#paint13_linear_934_22)" stroke-width="10" stroke-miterlimit="10"/>
<path d="M117.343 323.945V610.417" stroke="url(#paint14_linear_934_22)" stroke-width="10" stroke-miterlimit="10"/>
<path d="M5.3501 137.22V610.417" stroke="url(#paint15_linear_934_22)" stroke-width="10" stroke-miterlimit="10"/>
<path d="M183.996 357.46V610.409" stroke="url(#paint16_linear_934_22)" stroke-width="10" stroke-miterlimit="10"/>
<path d="M249.398 376.611V601.919" stroke="url(#paint17_linear_934_22)" stroke-width="10" stroke-miterlimit="10"/>
<path d="M316.052 382.197V602.342" stroke="url(#paint18_linear_934_22)" stroke-width="10" stroke-miterlimit="10"/>
<path d="M382.697 367.833V602.333" stroke="url(#paint19_linear_934_22)" stroke-width="10" stroke-miterlimit="10"/>
<path d="M412.926 185.098V334.319" stroke="#FE7098" stroke-width="10" stroke-miterlimit="10"/>
<path d="M479.571 208.239V294.42" stroke="#FE7098" stroke-width="10" stroke-miterlimit="10"/>
<path d="M85.8452 92.5327V261.703" stroke="#FE7098" stroke-width="10" stroke-miterlimit="10"/>
<path d="M152.498 90.1392V317.561" stroke="#FE7098" stroke-width="10" stroke-miterlimit="10"/>
<path d="M217.901 101.335V347.885" stroke="#FE7098" stroke-width="10" stroke-miterlimit="10"/>
<path d="M284.554 124.452V360.939" stroke="#FE7098" stroke-width="10" stroke-miterlimit="10"/>
<path d="M351.198 155.572V355.863" stroke="#FE7098" stroke-width="10" stroke-miterlimit="10"/>
<path d="M1276.9 148.479C1196.48 33.8661 1069.56 3.9981 955.804 28.8709C842.043 53.7437 736.866 125.402 631.295 189.359C525.724 253.317 409.059 368.289 293.96 363.03C237.989 360.476 184.618 340.743 140.354 309.765C98.208 280.272 50.3835 232.059 32.2808 185.976C22.7439 161.693 24.3977 131.993 43.7777 113.201C57.4619 99.9303 77.6732 94.0094 97.4032 91.1128C158.378 82.1515 220.928 97.4725 276.898 121.292C372.801 162.116 464.469 223.042 575.194 226.593" stroke="#FE7098" stroke-width="10" stroke-miterlimit="10"/>
<path d="M1276.9 174.014C1196.48 59.4008 1069.56 29.5328 955.804 54.4056C842.043 79.2784 736.866 150.936 631.295 214.894C499.65 294.659 390.58 431.671 190.288 362.319C127.239 340.487 77.6992 296.822 41.4677 244.945C18.0629 211.431 -2.30586 163.018 10.8446 122.058C21.2564 89.6441 59.0802 76.9403 78.9853 71.7695C152.586 52.6341 266.294 80.8663 344.287 127.396C420.241 172.713 506.274 199.589 596.192 211.431" stroke="#FE7098" stroke-width="10" stroke-miterlimit="10"/>
<path d="M888.018 9.9556L917.711 3.03811C924.913 1.36022 932.556 4.40231 934.781 9.83275L935.466 11.503C937.691 16.9334 933.656 22.696 926.454 24.3738L896.761 31.2913C889.559 32.9692 881.917 29.927 879.691 24.4966L879.007 22.8264C876.781 17.3959 880.816 11.6335 888.018 9.9556Z" fill="#27A4B6"/>
<path d="M826.593 30.3606L854.866 20.6321C861.724 18.2723 869.82 20.5512 872.95 25.7219L873.913 27.3123C877.042 32.483 874.02 38.5878 867.162 40.9475L838.889 50.676C832.031 53.0357 823.934 50.7569 820.805 45.5862L819.842 43.9958C816.713 38.825 819.735 32.7203 826.593 30.3606Z" fill="#27A4B6"/>
<path d="M768.383 55.5266L795.298 43.8103C801.826 40.9684 810.174 42.6549 813.943 47.5772L815.102 49.0911C818.871 54.0134 816.635 60.3076 810.106 63.1494L783.192 74.8657C776.664 77.7076 768.316 76.0211 764.547 71.0988L763.387 69.5849C759.618 64.6626 761.855 58.3684 768.383 55.5266Z" fill="#27A4B6"/>
<defs>
<linearGradient id="paint0_linear_934_22" x1="1239.98" y1="135.081" x2="1239.98" y2="590.284" gradientUnits="userSpaceOnUse">
<stop stop-color="#FE7098"/>
<stop offset="1" stop-color="#FF7099" stop-opacity="0"/>
</linearGradient>
<linearGradient id="paint1_linear_934_22" x1="1173.34" y1="82.9653" x2="1173.34" y2="590.284" gradientUnits="userSpaceOnUse">
<stop stop-color="#FE7098"/>
<stop offset="1" stop-color="#FF7099" stop-opacity="0"/>
</linearGradient>
<linearGradient id="paint2_linear_934_22" x1="1106.69" y1="55.0679" x2="1106.69" y2="590.276" gradientUnits="userSpaceOnUse">
<stop stop-color="#FE7098"/>
<stop offset="1" stop-color="#FF7099" stop-opacity="0"/>
</linearGradient>
<linearGradient id="paint3_linear_934_22" x1="1040.03" y1="46.7695" x2="1040.03" y2="590.284" gradientUnits="userSpaceOnUse">
<stop stop-color="#FE7098"/>
<stop offset="1" stop-color="#FF7099" stop-opacity="0"/>
</linearGradient>
<linearGradient id="paint4_linear_934_22" x1="841.701" y1="95.646" x2="841.701" y2="592.065" gradientUnits="userSpaceOnUse">
<stop stop-color="#FE7098"/>
<stop offset="1" stop-color="#FF7099" stop-opacity="0"/>
</linearGradient>
<linearGradient id="paint5_linear_934_22" x1="908.345" y1="67.8042" x2="908.345" y2="592.064" gradientUnits="userSpaceOnUse">
<stop stop-color="#FE7098"/>
<stop offset="1" stop-color="#FF7099" stop-opacity="0"/>
</linearGradient>
<linearGradient id="paint6_linear_934_22" x1="974.999" y1="50.2402" x2="974.999" y2="592.056" gradientUnits="userSpaceOnUse">
<stop stop-color="#FE7098"/>
<stop offset="1" stop-color="#FF7099" stop-opacity="0"/>
</linearGradient>
<linearGradient id="paint7_linear_934_22" x1="443.924" y1="340.703" x2="443.924" y2="596.852" gradientUnits="userSpaceOnUse">
<stop stop-color="#FE7098"/>
<stop offset="1" stop-color="#FF7099" stop-opacity="0"/>
</linearGradient>
<linearGradient id="paint8_linear_934_22" x1="510.569" y1="299.559" x2="510.569" y2="596.852" gradientUnits="userSpaceOnUse">
<stop stop-color="#FE7098"/>
<stop offset="1" stop-color="#FF7099" stop-opacity="0"/>
</linearGradient>
<linearGradient id="paint9_linear_934_22" x1="577.222" y1="248.936" x2="577.222" y2="596.844" gradientUnits="userSpaceOnUse">
<stop stop-color="#FE7098"/>
<stop offset="1" stop-color="#FF7099" stop-opacity="0"/>
</linearGradient>
<linearGradient id="paint10_linear_934_22" x1="642.624" y1="205.845" x2="642.624" y2="588.353" gradientUnits="userSpaceOnUse">
<stop stop-color="#FE7098"/>
<stop offset="1" stop-color="#FF7099" stop-opacity="0"/>
</linearGradient>
<linearGradient id="paint11_linear_934_22" x1="709.278" y1="168.508" x2="709.278" y2="588.776" gradientUnits="userSpaceOnUse">
<stop stop-color="#FE7098"/>
<stop offset="1" stop-color="#FF7099" stop-opacity="0"/>
</linearGradient>
<linearGradient id="paint12_linear_934_22" x1="775.922" y1="130.764" x2="775.922" y2="588.768" gradientUnits="userSpaceOnUse">
<stop stop-color="#FE7098"/>
<stop offset="1" stop-color="#FF7099" stop-opacity="0"/>
</linearGradient>
<linearGradient id="paint13_linear_934_22" x1="50.1986" y1="256.117" x2="50.1986" y2="610.417" gradientUnits="userSpaceOnUse">
<stop stop-color="#FE7098"/>
<stop offset="1" stop-color="#FF7099" stop-opacity="0"/>
</linearGradient>
<linearGradient id="paint14_linear_934_22" x1="116.843" y1="323.945" x2="116.843" y2="610.417" gradientUnits="userSpaceOnUse">
<stop stop-color="#FE7098"/>
<stop offset="1" stop-color="#FF7099" stop-opacity="0"/>
</linearGradient>
<linearGradient id="paint15_linear_934_22" x1="4.8501" y1="137.22" x2="4.8501" y2="610.417" gradientUnits="userSpaceOnUse">
<stop stop-color="#FE7098"/>
<stop offset="1" stop-color="#FF7099" stop-opacity="0"/>
</linearGradient>
<linearGradient id="paint16_linear_934_22" x1="183.496" y1="357.46" x2="183.496" y2="610.409" gradientUnits="userSpaceOnUse">
<stop stop-color="#FE7098"/>
<stop offset="1" stop-color="#FF7099" stop-opacity="0"/>
</linearGradient>
<linearGradient id="paint17_linear_934_22" x1="248.898" y1="376.611" x2="248.898" y2="601.919" gradientUnits="userSpaceOnUse">
<stop stop-color="#FE7098"/>
<stop offset="1" stop-color="#FF7099" stop-opacity="0"/>
</linearGradient>
<linearGradient id="paint18_linear_934_22" x1="315.552" y1="382.197" x2="315.552" y2="602.342" gradientUnits="userSpaceOnUse">
<stop stop-color="#FE7098"/>
<stop offset="1" stop-color="#FF7099" stop-opacity="0"/>
</linearGradient>
<linearGradient id="paint19_linear_934_22" x1="382.197" y1="367.833" x2="382.197" y2="602.333" gradientUnits="userSpaceOnUse">
<stop stop-color="#FE7098"/>
<stop offset="1" stop-color="#FF7099" stop-opacity="0"/>
</linearGradient>
</defs>
</svg>
